<?xml version="1.0" standalone="no"?>
<!DOCTYPE svg PUBLIC "-//W3C//DTD SVG 20010904//EN"
 "http://www.w3.org/TR/2001/REC-SVG-20010904/DTD/svg10.dtd">
<svg version="1.0" xmlns="http://www.w3.org/2000/svg"
 width="920.000000pt" height="918.000000pt" viewBox="0 0 920.000000 918.000000"
 preserveAspectRatio="xMidYMid meet">

<g transform="translate(0.000000,918.000000) scale(0.100000,-0.100000)"
fill="#000000" stroke="none">
<path d="M3105 8838 c7 -24 19 -61 27 -83 18 -48 28 -79 74 -215 19 -58 39
-114 44 -125 20 -44 80 -228 80 -246 0 -10 -5 -19 -10 -19 -15 0 -101 44 -185
95 -38 23 -104 60 -145 82 -41 22 -91 49 -110 60 -19 11 -55 31 -80 45 -25 14
-63 35 -85 48 -46 26 -121 68 -150 84 -11 6 -22 13 -25 16 -3 3 -43 24 -90 47
-47 23 -97 50 -112 60 -38 24 -44 11 -19 -42 11 -24 21 -49 21 -55 0 -6 4 -18
9 -28 11 -20 30 -64 61 -142 38 -95 42 -105 51 -122 5 -10 9 -25 9 -33 0 -8 4
-23 10 -33 22 -39 60 -136 60 -153 0 -11 -5 -19 -12 -19 -6 0 -70 20 -142 44
-72 24 -185 61 -251 82 -66 20 -127 41 -135 45 -8 5 -78 29 -155 55 -77 25
-148 50 -158 56 -10 5 -21 8 -23 5 -2 -2 26 -44 62 -93 37 -49 79 -107 93
-129 14 -22 28 -42 31 -45 3 -3 17 -21 30 -40 13 -19 35 -49 49 -66 51 -61 59
-72 99 -130 22 -33 47 -66 56 -73 9 -7 16 -18 16 -23 0 -5 6 -15 13 -23 28
-27 132 -176 132 -188 0 -7 -9 -11 -20 -10 -24 2 -132 20 -200 33 -27 5 -66
12 -85 15 -84 14 -319 57 -363 65 -27 6 -62 10 -78 10 -17 0 -39 5 -50 11 -11
5 -34 9 -52 7 -31 -3 -28 -7 178 -216 116 -117 211 -219 213 -227 3 -14 -45
-73 -169 -209 -25 -28 -56 -63 -69 -78 -13 -15 -38 -31 -57 -34 -18 -3 -36
-10 -39 -15 -3 -5 -14 -9 -25 -9 -10 0 -27 -4 -37 -9 -33 -17 -67 -30 -92 -34
-37 -7 -130 -34 -165 -47 l-30 -11 95 -49 c144 -74 147 -78 110 -117 -11 -12
-20 -25 -20 -27 0 -3 -15 -29 -33 -58 -59 -92 -216 -390 -230 -434 -3 -10 -24
-64 -47 -119 -38 -93 -112 -302 -130 -370 -40 -144 -53 -197 -61 -244 -5 -30
-12 -58 -15 -62 -7 -12 -38 -242 -56 -419 -15 -152 -16 -505 0 -655 23 -224
49 -421 56 -434 3 -4 10 -32 15 -62 23 -129 139 -510 162 -534 5 -5 9 -19 9
-31 0 -13 4 -25 9 -28 5 -3 12 -18 16 -33 3 -15 15 -48 26 -73 11 -25 24 -54
29 -65 108 -255 327 -617 520 -860 57 -71 106 -132 109 -135 3 -3 59 -65 125
-138 65 -73 124 -136 131 -140 7 -4 44 -36 82 -72 38 -36 80 -74 94 -85 232
-191 297 -239 489 -363 181 -116 529 -296 616 -318 13 -4 27 -10 30 -15 3 -5
12 -9 20 -9 8 0 33 -9 57 -19 40 -18 203 -72 277 -93 19 -5 50 -13 68 -19 82
-23 112 -31 177 -46 158 -34 233 -47 380 -66 131 -16 795 -16 925 0 188 24
363 57 495 93 22 6 56 15 75 19 47 11 287 90 327 107 18 8 63 26 100 40 97 36
425 199 505 250 38 24 72 44 77 44 5 0 11 4 13 9 2 4 43 34 92 65 49 32 118
81 155 110 109 87 112 88 162 76 24 -6 60 -15 79 -19 19 -5 80 -21 135 -36 55
-14 127 -33 160 -42 33 -8 69 -18 80 -23 11 -5 34 -11 50 -15 17 -3 48 -10 70
-15 22 -5 43 -5 47 -1 7 6 20 73 38 196 5 33 13 92 18 130 6 39 16 106 23 150
7 44 12 96 12 115 1 31 -32 133 -68 215 -7 17 -30 71 -50 120 -20 50 -43 103
-51 119 -8 16 -14 36 -14 44 0 8 29 59 65 113 36 55 65 102 65 105 0 2 11 22
25 44 39 62 148 278 175 345 13 33 26 65 30 70 4 6 33 78 64 160 32 83 61 159
66 170 16 42 66 225 80 295 5 25 14 65 20 90 15 65 27 143 51 335 31 250 31
720 0 955 -26 191 -35 248 -51 310 -6 25 -15 65 -20 90 -9 49 -41 174 -59 230
-7 19 -16 51 -22 70 -13 45 -44 129 -76 205 -13 33 -28 69 -32 80 -133 334
-400 769 -646 1051 -168 194 -509 500 -645 581 -17 9 -30 21 -30 25 0 4 -4 8
-10 8 -5 0 -37 20 -72 44 -172 121 -531 312 -741 395 -87 35 -274 98 -327 111
-19 5 -53 14 -75 20 -168 48 -402 89 -610 106 l-70 7 -200 198 -200 198 -3
-132 c-2 -73 2 -151 8 -174 11 -45 14 -166 4 -176 -3 -3 -34 18 -68 46 -34 29
-91 76 -127 106 -35 29 -86 74 -114 100 -27 25 -71 62 -96 81 -25 19 -81 68
-125 107 -44 40 -90 80 -103 90 l-24 16 7 -54 c8 -71 26 -175 36 -219 5 -19
15 -75 23 -125 9 -49 17 -96 19 -104 1 -7 -1 -15 -7 -17 -8 -3 -224 160 -311
235 -11 10 -52 42 -90 71 -38 29 -94 74 -124 99 -62 53 -228 181 -234 181 -2
0 2 -19 9 -42z m325 -398 c24 -19 62 -51 84 -71 23 -19 63 -53 91 -75 45 -35
89 -72 119 -99 6 -5 34 -28 61 -50 28 -21 52 -42 55 -45 3 -3 27 -23 55 -45
27 -22 65 -55 85 -72 19 -18 37 -33 41 -33 4 0 27 -16 51 -36 23 -19 51 -42
61 -50 11 -9 21 -13 24 -11 5 5 -42 159 -58 189 -5 10 -9 27 -9 38 0 11 -4 20
-10 20 -5 0 -10 8 -10 18 0 9 -8 37 -17 62 -9 25 -19 63 -24 85 -4 22 -14 66
-22 97 -8 32 -12 60 -9 62 5 6 137 -100 168 -135 11 -13 47 -46 79 -74 32 -27
101 -90 154 -139 53 -49 120 -107 149 -129 28 -22 52 -43 52 -48 0 -5 5 -9 11
-9 9 0 10 26 5 93 -3 50 -9 157 -12 235 -5 157 -5 157 50 93 17 -19 56 -62 87
-96 31 -33 75 -82 97 -110 22 -27 66 -77 98 -111 33 -33 81 -87 109 -120 27
-32 76 -87 108 -121 33 -34 66 -72 75 -85 9 -13 30 -38 47 -57 73 -82 80 -83
88 -16 6 47 17 88 47 170 23 62 50 103 50 75 0 -8 18 -53 41 -100 23 -47 53
-110 66 -140 14 -30 38 -82 54 -115 15 -33 35 -82 44 -110 9 -27 31 -81 50
-120 18 -38 45 -97 60 -130 15 -33 34 -73 41 -90 17 -35 55 -60 248 -165 147
-80 194 -118 251 -203 19 -29 58 -82 87 -119 53 -67 79 -126 118 -268 10 -36
28 -92 40 -125 24 -65 67 -215 80 -280 5 -22 11 -47 14 -55 4 -10 -13 -34 -49
-70 -30 -30 -55 -60 -55 -67 0 -9 17 -13 54 -13 94 0 111 -7 149 -64 19 -28
54 -73 78 -101 52 -59 93 -113 133 -175 16 -25 36 -52 45 -60 24 -21 51 -62
51 -77 0 -8 -13 -13 -32 -13 -18 0 -86 -8 -151 -17 -92 -13 -120 -14 -126 -4
-4 6 -62 67 -129 135 -67 67 -122 126 -122 130 0 10 30 49 76 98 19 20 34 42
34 48 0 8 -30 11 -91 9 -100 -2 -101 -2 -139 67 l-25 46 57 115 c31 63 62 121
69 129 7 8 9 17 7 20 -8 7 -134 -35 -192 -64 -46 -23 -49 -23 -59 -7 -5 10
-26 36 -46 58 -20 22 -58 72 -86 112 -100 146 -217 293 -238 300 -12 3 -49 12
-82 19 -66 15 -157 47 -166 59 -5 7 0 32 33 177 21 95 45 245 41 257 -5 13
-145 123 -181 142 -18 10 -23 9 -28 -3 -3 -8 -1 -23 5 -33 5 -11 11 -49 12
-86 2 -65 2 -67 -43 -119 -25 -29 -90 -98 -144 -154 -55 -55 -153 -158 -219
-228 -66 -71 -155 -163 -197 -206 l-78 -78 -10 -119 c-6 -65 -10 -198 -8 -296
l3 -179 47 -26 c26 -15 56 -34 65 -42 10 -8 36 -28 58 -44 22 -17 47 -37 55
-46 21 -22 116 -90 126 -90 5 0 20 -9 34 -20 14 -11 33 -20 43 -20 9 0 25 -4
35 -9 9 -5 71 -26 137 -46 66 -20 128 -41 137 -46 10 -5 25 -9 33 -9 8 0 23
-4 33 -9 9 -5 33 -17 52 -26 50 -23 133 -83 212 -152 59 -52 152 -123 162
-123 4 0 24 -15 44 -33 20 -19 54 -49 75 -68 37 -33 38 -36 47 -129 13 -135
13 -165 -2 -153 -7 6 -53 26 -103 46 -49 20 -128 52 -175 72 -47 20 -105 43
-129 52 -38 13 -124 48 -236 98 -16 7 -83 34 -148 59 -66 26 -126 51 -135 56
-10 5 -25 11 -34 14 -10 3 -18 10 -18 17 0 6 39 50 86 99 47 48 84 92 83 96
-2 4 -69 8 -149 9 -89 0 -153 4 -165 11 -26 15 -54 27 -145 60 -41 15 -93 35
-115 44 -22 10 -85 35 -140 55 -55 21 -104 42 -109 46 -6 5 -27 9 -48 9 -39 0
-51 13 -22 24 9 3 41 6 72 6 93 0 263 22 259 34 -3 11 -136 105 -150 105 -4 1
-17 9 -28 20 -11 10 -43 31 -72 46 -29 15 -100 61 -159 102 -59 40 -110 73
-113 73 -3 0 -15 9 -27 20 -11 10 -34 22 -49 25 -16 4 -32 11 -35 17 -3 5 -52
39 -108 76 -55 36 -102 69 -104 74 -2 4 -12 8 -22 8 -10 0 -22 5 -25 10 -4 6
-32 23 -63 39 -31 16 -87 51 -123 78 -36 26 -92 64 -123 83 -31 19 -82 53
-114 75 -31 22 -70 46 -85 54 -23 13 -25 16 -12 24 11 6 47 1 103 -13 97 -24
140 -33 227 -50 33 -7 68 -16 77 -21 10 -5 30 -9 45 -9 27 -1 189 -30 281 -50
71 -17 135 -30 174 -36 36 -6 38 -5 199 152 90 88 210 206 268 264 59 58 186
182 284 277 97 94 177 176 177 180 0 15 -40 63 -130 158 -147 154 -315 325
-320 325 -3 0 2 -120 10 -266 8 -146 11 -268 7 -271 -4 -3 -31 14 -60 36 -29
23 -119 93 -202 156 -82 63 -171 132 -197 153 -26 20 -60 46 -77 57 -16 11
-80 62 -141 113 -61 50 -115 92 -121 92 -12 0 23 -94 79 -210 52 -110 103
-240 93 -240 -3 0 -39 20 -79 45 -40 25 -74 45 -76 45 -2 0 -34 21 -72 46 -38
25 -96 60 -129 76 -33 17 -73 41 -90 53 -16 12 -46 29 -65 39 -19 9 -64 35
-100 58 -36 22 -103 61 -150 86 -47 24 -92 50 -100 57 -23 20 -132 76 -142 73
-9 -3 17 -38 83 -113 19 -22 46 -56 60 -75 13 -19 56 -72 96 -118 40 -45 88
-106 107 -135 20 -28 68 -89 108 -133 84 -94 164 -204 148 -204 -6 0 -36 11
-66 25 -30 14 -57 25 -60 25 -2 0 -37 15 -77 33 -148 69 -184 85 -267 117 -96
37 -121 47 -204 85 -129 58 -189 71 -143 30 15 -13 27 -29 27 -35 0 -5 4 -10
8 -10 4 0 30 -23 57 -51 28 -28 88 -87 134 -132 184 -179 231 -227 231 -233 0
-4 -225 -5 -500 -2 -365 4 -500 2 -500 -6 0 -11 145 -86 167 -86 6 0 38 -13
70 -30 64 -32 240 -114 336 -157 112 -49 112 -44 -10 -106 -59 -30 -121 -62
-138 -70 -16 -9 -43 -22 -60 -30 -16 -7 -52 -25 -80 -39 -27 -14 -85 -40 -127
-59 -43 -18 -78 -35 -78 -39 0 -3 35 -12 78 -19 42 -7 93 -17 112 -21 19 -5
58 -11 85 -15 28 -3 64 -10 80 -14 17 -5 70 -15 118 -22 48 -7 90 -16 92 -20
4 -6 -95 -59 -110 -59 -5 0 -242 -138 -275 -160 -8 -6 -44 -24 -80 -41 -35
-17 -103 -56 -150 -87 l-85 -57 50 -2 c48 -2 151 -11 425 -34 69 -6 131 -13
139 -15 8 -3 -10 -21 -47 -47 -174 -121 -372 -276 -372 -290 0 -5 12 -6 28 -2
30 7 103 18 232 34 47 6 117 15 155 20 134 20 143 13 63 -48 -29 -23 -78 -61
-108 -86 -167 -137 -235 -182 -290 -193 -96 -19 -115 -23 -135 -32 -11 -4 -47
-13 -80 -20 -33 -7 -71 -16 -85 -20 -14 -5 -43 -11 -65 -14 -22 -2 -71 -12
-110 -21 -38 -9 -85 -19 -103 -22 -18 -3 -35 -9 -38 -14 -3 -5 -20 -9 -39 -9
-19 0 -37 -4 -40 -10 -3 -5 -21 -10 -40 -10 -19 0 -37 -4 -40 -10 -3 -5 -17
-10 -31 -10 -13 0 -33 -5 -44 -12 -10 -7 -22 -9 -25 -6 -8 7 20 39 150 171
262 266 403 422 392 433 -2 3 -53 0 -113 -5 -60 -6 -176 -16 -259 -22 -82 -6
-179 -15 -215 -19 -36 -5 -96 -11 -135 -15 -69 -6 -70 -6 -47 12 13 10 56 50
95 88 86 83 495 457 531 486 38 30 33 46 -16 52 -24 3 -65 11 -93 17 -62 14
-127 24 -275 44 -63 9 -146 21 -183 27 -66 11 -68 12 -51 30 9 10 21 19 26 19
5 0 18 8 28 18 21 19 100 65 240 140 47 24 97 53 112 63 14 11 29 19 33 19 4
0 21 10 38 23 47 33 138 87 148 87 7 0 78 36 87 45 6 5 -11 35 -19 35 -5 0
-53 21 -107 46 -53 26 -115 54 -137 64 -22 10 -60 26 -85 37 -25 11 -76 33
-115 48 -97 39 -213 94 -219 104 -3 4 32 20 77 35 45 15 90 32 99 37 10 5 29
9 43 9 14 0 33 4 43 9 9 5 37 15 62 21 77 22 264 82 282 91 10 5 26 9 35 9 10
0 27 7 37 15 19 14 19 15 0 37 -10 13 -30 32 -43 43 -51 42 -125 111 -150 140
-14 17 -43 46 -63 65 -184 173 -192 182 -168 176 14 -4 54 -11 90 -17 36 -5
90 -13 120 -18 30 -5 84 -14 120 -20 75 -12 222 -37 295 -52 98 -19 124 -21
140 -15 14 5 14 10 -7 38 -12 18 -30 42 -40 52 -10 11 -18 23 -18 26 0 4 -12
20 -26 36 -14 16 -58 76 -99 134 -41 58 -88 121 -105 140 -17 19 -40 51 -50
71 -11 21 -25 43 -32 50 -8 8 -30 37 -51 66 -21 28 -41 53 -45 55 -12 5 -54
68 -45 68 13 0 82 -26 89 -33 4 -4 13 -7 21 -7 7 0 32 -9 56 -19 23 -10 65
-24 92 -31 50 -12 115 -34 147 -51 10 -5 27 -9 37 -9 11 0 23 -4 26 -10 3 -5
15 -10 26 -10 10 0 27 -4 37 -9 66 -34 187 -70 202 -61 9 6 8 16 -5 46 -9 22
-21 49 -26 62 -10 24 -18 44 -44 107 -10 22 -22 51 -27 65 -6 14 -14 33 -19
42 -5 10 -9 25 -9 33 0 8 -4 23 -9 33 -13 25 -37 79 -59 140 l-20 53 31 -21
c18 -11 65 -40 106 -63 40 -23 98 -58 130 -77 31 -20 72 -42 91 -50 19 -7 52
-24 72 -37 21 -13 42 -23 48 -23 5 0 10 -4 10 -8 0 -4 28 -24 63 -44 34 -19
80 -46 102 -59 22 -12 69 -38 105 -57 36 -19 77 -43 92 -53 14 -11 30 -19 35
-19 4 0 23 -13 42 -29 40 -34 108 -67 118 -57 4 4 1 17 -7 29 -25 40 -81 142
-91 167 -6 14 -15 33 -20 42 -5 10 -9 27 -9 37 0 11 -4 23 -10 26 -5 3 -10 15
-10 26 0 10 -4 27 -9 37 -6 9 -26 62 -46 117 -20 55 -45 118 -55 140 -10 22
-22 51 -25 64 -8 28 0 24 65 -29z m3971 -3583 c51 -26 117 -77 150 -115 86
-100 189 -261 189 -298 0 -8 5 -14 10 -14 6 0 10 -9 10 -20 0 -11 4 -28 9 -38
25 -50 31 -101 31 -277 0 -104 -4 -202 -9 -219 -5 -17 -15 -51 -21 -76 -16
-58 -21 -71 -62 -155 -46 -94 -76 -146 -98 -170 -10 -11 -25 -37 -35 -57 -9
-21 -21 -38 -26 -38 -5 0 -9 -7 -9 -15 0 -8 -4 -15 -10 -15 -12 0 -13 13 -2
25 31 35 69 187 93 375 5 41 11 80 13 86 7 18 -13 306 -23 339 -5 17 -14 57
-20 90 -16 79 -102 252 -160 318 -25 30 -66 79 -91 110 -25 31 -51 57 -58 57
-7 0 -28 11 -46 25 -18 14 -36 25 -40 25 -15 0 -67 42 -61 49 4 3 52 9 108 12
56 3 109 6 118 7 9 1 27 -4 40 -11z m-4451 -561 c0 -12 -88 -156 -117 -192
-18 -23 -33 -45 -33 -49 0 -5 -11 -23 -25 -41 -14 -18 -25 -36 -25 -40 0 -4
-7 -16 -17 -26 -30 -33 -3 -32 65 4 97 51 392 199 446 224 l46 21 0 -38 c0
-21 -4 -41 -10 -44 -5 -3 -10 -21 -10 -40 0 -19 -4 -44 -9 -57 -4 -13 -11 -47
-15 -75 -6 -48 -5 -53 12 -53 21 0 325 149 330 162 2 4 10 8 17 8 7 0 43 16
79 36 52 27 66 32 66 19 0 -8 4 -23 9 -33 17 -31 92 -224 89 -227 -23 -20
-216 -137 -253 -154 -83 -39 -185 -109 -232 -161 -24 -27 -44 -52 -44 -57 1
-4 36 -10 80 -13 l79 -5 -20 -45 c-11 -25 -36 -78 -55 -118 -18 -41 -43 -98
-54 -127 -23 -61 -39 -74 -129 -100 -36 -10 -69 -22 -74 -27 -6 -4 -19 -8 -30
-8 -21 0 -80 -17 -108 -31 -10 -5 -27 -9 -37 -9 -11 0 -23 -4 -26 -10 -3 -5
-15 -10 -26 -10 -11 0 -33 -7 -49 -15 -27 -14 -30 -14 -30 0 0 9 8 32 19 53
10 20 22 53 25 72 9 43 22 81 48 140 32 70 36 81 54 140 9 30 21 59 25 65 5 5
9 17 9 27 0 10 5 18 10 18 6 0 10 9 10 20 0 11 4 28 9 38 5 9 14 31 21 47 7
17 16 38 21 47 14 27 11 48 -7 48 -8 0 -57 -21 -107 -46 -183 -92 -243 -121
-282 -139 -22 -10 -90 -42 -152 -71 -62 -30 -114 -54 -115 -54 -2 0 -3 75 -3
167 l0 168 -33 -3 c-18 -2 -84 -22 -145 -44 -179 -63 -191 -68 -204 -68 -24 0
-13 25 57 132 39 59 70 110 70 114 0 3 17 31 39 62 36 53 87 139 120 205 10
19 27 30 55 37 23 6 73 26 111 45 67 32 107 43 308 85 49 10 91 21 94 24 7 7
53 8 53 2z"/>
</g>
</svg>
