%TF.GenerationSoftware,KiCad,Pcbnew,9.0.7+1*%
%TF.CreationDate,Date%
%TF.ProjectId,Cellule_de_force_V2,43656c6c-756c-4655-9f64-655f666f7263,+ (Unreleased)*%
%TF.SameCoordinates,Original*%
%TF.FileFunction,Legend,Top*%
%TF.FilePolarity,Positive*%
%FSLAX46Y46*%
G04 Gerber Fmt 4.6, Leading zero omitted, Abs format (unit mm)*
G04 Created by KiCad*
%MOMM*%
%LPD*%
G01*
G04 APERTURE LIST*
G04 Aperture macros list*
%AMRoundRect*
0 Rectangle with rounded corners*
0 $1 Rounding radius*
0 $2 $3 $4 $5 $6 $7 $8 $9 X,Y pos of 4 corners*
0 Add a 4 corners polygon primitive as box body*
4,1,4,$2,$3,$4,$5,$6,$7,$8,$9,$2,$3,0*
0 Add four circle primitives for the rounded corners*
1,1,$1+$1,$2,$3*
1,1,$1+$1,$4,$5*
1,1,$1+$1,$6,$7*
1,1,$1+$1,$8,$9*
0 Add four rect primitives between the rounded corners*
20,1,$1+$1,$2,$3,$4,$5,0*
20,1,$1+$1,$4,$5,$6,$7,0*
20,1,$1+$1,$6,$7,$8,$9,0*
20,1,$1+$1,$8,$9,$2,$3,0*%
G04 Aperture macros list end*
%ADD10C,0.150000*%
%ADD11C,0.200000*%
%ADD12C,0.254000*%
%ADD13C,0.120000*%
%ADD14C,0.100000*%
%ADD15C,0.223606*%
%ADD16C,0.141419*%
%ADD17C,0.127000*%
%ADD18C,0.400000*%
%ADD19C,0.010000*%
%ADD20RoundRect,0.225000X-0.300000X0.225000X-0.300000X-0.225000X0.300000X-0.225000X0.300000X0.225000X0*%
%ADD21RoundRect,0.250000X0.275000X-0.250000X0.275000X0.250000X-0.275000X0.250000X-0.275000X-0.250000X0*%
%ADD22RoundRect,0.050000X-0.925000X-0.950000X0.925000X-0.950000X0.925000X0.950000X-0.925000X0.950000X0*%
%ADD23RoundRect,0.050000X-0.120000X-0.300000X0.120000X-0.300000X0.120000X0.300000X-0.120000X0.300000X0*%
%ADD24RoundRect,0.050000X-1.200000X0.825000X-1.200000X-0.825000X1.200000X-0.825000X1.200000X0.825000X0*%
%ADD25RoundRect,0.050000X-0.250000X0.125000X-0.250000X-0.125000X0.250000X-0.125000X0.250000X0.125000X0*%
%ADD26RoundRect,0.250000X-0.275000X0.250000X-0.275000X-0.250000X0.275000X-0.250000X0.275000X0.250000X0*%
%ADD27C,0.900000*%
%ADD28C,6.500000*%
%ADD29RoundRect,0.250000X-0.250000X-0.275000X0.250000X-0.275000X0.250000X0.275000X-0.250000X0.275000X0*%
%ADD30RoundRect,0.175000X0.175000X-0.537500X0.175000X0.537500X-0.175000X0.537500X-0.175000X-0.537500X0*%
%ADD31RoundRect,0.102000X0.725000X0.225000X-0.725000X0.225000X-0.725000X-0.225000X0.725000X-0.225000X0*%
%ADD32RoundRect,0.225000X0.225000X0.300000X-0.225000X0.300000X-0.225000X-0.300000X0.225000X-0.300000X0*%
%ADD33RoundRect,0.225000X0.300000X-0.225000X0.300000X0.225000X-0.300000X0.225000X-0.300000X-0.225000X0*%
%ADD34C,1.300000*%
%ADD35RoundRect,0.264706X-0.635294X-0.760294X0.635294X-0.760294X0.635294X0.760294X-0.635294X0.760294X0*%
%ADD36O,1.800000X2.050000*%
%ADD37C,3.000000*%
%ADD38RoundRect,0.250000X0.250000X0.275000X-0.250000X0.275000X-0.250000X-0.275000X0.250000X-0.275000X0*%
%ADD39RoundRect,0.225000X-0.225000X-0.300000X0.225000X-0.300000X0.225000X0.300000X-0.225000X0.300000X0*%
%ADD40RoundRect,0.243750X0.281250X-0.243750X0.281250X0.243750X-0.281250X0.243750X-0.281250X-0.243750X0*%
%ADD41RoundRect,0.272727X-0.327273X0.327273X-0.327273X-0.327273X0.327273X-0.327273X0.327273X0.327273X0*%
%ADD42RoundRect,0.050000X-0.200000X0.450000X-0.200000X-0.450000X0.200000X-0.450000X0.200000X0.450000X0*%
%ADD43C,1.704000*%
%ADD44RoundRect,0.050000X-0.850000X0.650000X-0.850000X-0.650000X0.850000X-0.650000X0.850000X0.650000X0*%
%ADD45R,1.890000X1.830000*%
%ADD46RoundRect,0.100000X0.100000X-0.675000X0.100000X0.675000X-0.100000X0.675000X-0.100000X-0.675000X0*%
%ADD47C,2.004000*%
G04 APERTURE END LIST*
D10*
X132970000Y-108310000D02*
X134080000Y-108310000D01*
X134080000Y-108350000D01*
X132970000Y-108350000D01*
X132970000Y-108310000D01*
X131317500Y-104140000D02*
X135782500Y-104140000D01*
X135782500Y-114925000D01*
X131317500Y-114925000D01*
X131317500Y-104140000D01*
X131320000Y-108970000D02*
X131400000Y-104190000D01*
X124850000Y-93800000D02*
X130250000Y-93800000D01*
X130250000Y-99200000D01*
X124850000Y-99200000D01*
X124850000Y-93800000D01*
X131400000Y-104190000D02*
X131420000Y-108900000D01*
X134160000Y-104520000D02*
X134310000Y-104520000D01*
X134310000Y-108490000D01*
X134160000Y-108490000D01*
X134160000Y-104520000D01*
X132940000Y-104210000D02*
X135680000Y-104210000D01*
X135680000Y-104520000D01*
X132940000Y-104520000D01*
X132940000Y-104210000D01*
G36*
X132940000Y-104210000D02*
G01*
X135680000Y-104210000D01*
X135680000Y-104520000D01*
X132940000Y-104520000D01*
X132940000Y-104210000D01*
G37*
X132970000Y-104580000D02*
X134160000Y-104580000D01*
X134160000Y-104700000D01*
X132970000Y-104700000D01*
X132970000Y-104580000D01*
X132940000Y-108490000D02*
X135700000Y-108490000D01*
X135700000Y-108910000D01*
X132940000Y-108910000D01*
X132940000Y-108490000D01*
G36*
X132940000Y-108490000D02*
G01*
X135700000Y-108490000D01*
X135700000Y-108910000D01*
X132940000Y-108910000D01*
X132940000Y-108490000D01*
G37*
X131320000Y-104140000D02*
X135780000Y-104140000D01*
X135780000Y-108970000D01*
X131320000Y-108970000D01*
X131320000Y-104140000D01*
X135680000Y-104520000D02*
X135700000Y-104520000D01*
X135700000Y-108490000D01*
X135680000Y-108490000D01*
X135680000Y-104520000D01*
X132710000Y-104210000D02*
X132940000Y-104210000D01*
X132940000Y-108910000D01*
X132710000Y-108910000D01*
X132710000Y-104210000D01*
G36*
X132710000Y-104210000D02*
G01*
X132940000Y-104210000D01*
X132940000Y-108910000D01*
X132710000Y-108910000D01*
X132710000Y-104210000D01*
G37*
D11*
G36*
X132204842Y-105216426D02*
G01*
X131799094Y-105076353D01*
X132204842Y-104937012D01*
X132204842Y-105216426D01*
G37*
G36*
X132710650Y-109478017D02*
G01*
X131429391Y-109478017D01*
X131429391Y-108985765D01*
X131540502Y-108985765D01*
X131546466Y-109079031D01*
X131562985Y-109155395D01*
X131588535Y-109217767D01*
X131622384Y-109268537D01*
X131666611Y-109310769D01*
X131719107Y-109341174D01*
X131781538Y-109360174D01*
X131856308Y-109366906D01*
X131916426Y-109362073D01*
X131967658Y-109348368D01*
X132011581Y-109326453D01*
X132049382Y-109296258D01*
X132080229Y-109259439D01*
X132108208Y-109211423D01*
X132132949Y-109149996D01*
X132153735Y-109072532D01*
X132176266Y-108970744D01*
X132200848Y-108886520D01*
X132222916Y-108846729D01*
X132242204Y-108829778D01*
X132266389Y-108819365D01*
X132296983Y-108815650D01*
X132330136Y-108820817D01*
X132357043Y-108835761D01*
X132379293Y-108861445D01*
X132394241Y-108893331D01*
X132404288Y-108936263D01*
X132408053Y-108993275D01*
X132401600Y-109078350D01*
X132381491Y-109169191D01*
X132349254Y-109260114D01*
X132302540Y-109358052D01*
X132526083Y-109358052D01*
X132558161Y-109259803D01*
X132580976Y-109162719D01*
X132594926Y-109064903D01*
X132599539Y-108967996D01*
X132593309Y-108862964D01*
X132576312Y-108779521D01*
X132550522Y-108713734D01*
X132517046Y-108662326D01*
X132472435Y-108620057D01*
X132417266Y-108589073D01*
X132349271Y-108569346D01*
X132265293Y-108562248D01*
X132201209Y-108567281D01*
X132147982Y-108581389D01*
X132103631Y-108603659D01*
X132066662Y-108633994D01*
X132037155Y-108671046D01*
X132009578Y-108721544D01*
X131984422Y-108788586D01*
X131962554Y-108875794D01*
X131940022Y-108987780D01*
X131920184Y-109060758D01*
X131901065Y-109098116D01*
X131884004Y-109114956D01*
X131863273Y-109125006D01*
X131837684Y-109128525D01*
X131804143Y-109123327D01*
X131778126Y-109108552D01*
X131757756Y-109083462D01*
X131744652Y-109052088D01*
X131735507Y-109007021D01*
X131731988Y-108944060D01*
X131736504Y-108872204D01*
X131750734Y-108793118D01*
X131773564Y-108713315D01*
X131806238Y-108629170D01*
X131591304Y-108629170D01*
X131568857Y-108723663D01*
X131553203Y-108812963D01*
X131543626Y-108901251D01*
X131540502Y-108985765D01*
X131429391Y-108985765D01*
X131429391Y-108330705D01*
X131560041Y-108330705D01*
X132580000Y-108330705D01*
X132580000Y-108067717D01*
X131560041Y-108067717D01*
X131560041Y-108330705D01*
X131429391Y-108330705D01*
X131429391Y-107301710D01*
X131540502Y-107301710D01*
X131546876Y-107408594D01*
X131565012Y-107501795D01*
X131593829Y-107583247D01*
X131632814Y-107654591D01*
X131682041Y-107717106D01*
X131741417Y-107770601D01*
X131808622Y-107812390D01*
X131884769Y-107842948D01*
X131971396Y-107862037D01*
X132070387Y-107868720D01*
X132168248Y-107862176D01*
X132254220Y-107843454D01*
X132330095Y-107813445D01*
X132397339Y-107772374D01*
X132457023Y-107719793D01*
X132506874Y-107658145D01*
X132546157Y-107588294D01*
X132575064Y-107509064D01*
X132593187Y-107418927D01*
X132599539Y-107316060D01*
X132593485Y-107204558D01*
X132575542Y-107097462D01*
X132545521Y-106993561D01*
X132503429Y-106893214D01*
X132013356Y-106893214D01*
X132013356Y-107303115D01*
X132189211Y-107303115D01*
X132189211Y-107142586D01*
X132386926Y-107142586D01*
X132396233Y-107171724D01*
X132402984Y-107205784D01*
X132408053Y-107281927D01*
X132401929Y-107356771D01*
X132384722Y-107419097D01*
X132357443Y-107471226D01*
X132320064Y-107514873D01*
X132274015Y-107549219D01*
X132218425Y-107574714D01*
X132151364Y-107590988D01*
X132070387Y-107596817D01*
X131988804Y-107590773D01*
X131921426Y-107573906D01*
X131865709Y-107547462D01*
X131819672Y-107511759D01*
X131782597Y-107466724D01*
X131755382Y-107412671D01*
X131738140Y-107347768D01*
X131731988Y-107269592D01*
X131737996Y-107185344D01*
X131756229Y-107100515D01*
X131786189Y-107017102D01*
X131829685Y-106930766D01*
X131616706Y-106930766D01*
X131583755Y-107015591D01*
X131559736Y-107106682D01*
X131545389Y-107201265D01*
X131540502Y-107301710D01*
X131429391Y-107301710D01*
X131429391Y-105996354D01*
X131560041Y-105996354D01*
X132259614Y-105996354D01*
X131560041Y-106367298D01*
X131560041Y-106661061D01*
X132580000Y-106661061D01*
X132580000Y-106411689D01*
X131880427Y-106411689D01*
X132580000Y-106040745D01*
X132580000Y-105747043D01*
X131560041Y-105747043D01*
X131560041Y-105996354D01*
X131429391Y-105996354D01*
X131429391Y-104919915D01*
X131560041Y-104919915D01*
X131560041Y-105076353D01*
X131560041Y-105233462D01*
X132580000Y-105611244D01*
X132580000Y-105346913D01*
X132392421Y-105282005D01*
X132392421Y-104870761D01*
X132580000Y-104806525D01*
X132580000Y-104542193D01*
X131560041Y-104919915D01*
X131429391Y-104919915D01*
X131429391Y-104143223D01*
X131560041Y-104143223D01*
X131560041Y-104406211D01*
X132580000Y-104406211D01*
X132580000Y-103681421D01*
X132380697Y-103681421D01*
X132380697Y-104143223D01*
X131560041Y-104143223D01*
X131429391Y-104143223D01*
X131429391Y-103570310D01*
X132710650Y-103570310D01*
X132710650Y-109478017D01*
G37*
G36*
X135640650Y-108885545D02*
G01*
X134359391Y-108885545D01*
X134359391Y-108255296D01*
X134630725Y-108255296D01*
X134630725Y-108417840D01*
X134990251Y-108417840D01*
X134990251Y-108774434D01*
X135150474Y-108774434D01*
X135150474Y-108417840D01*
X135510000Y-108417840D01*
X135510000Y-108255296D01*
X135150474Y-108255296D01*
X135150474Y-107898701D01*
X134990251Y-107898701D01*
X134990251Y-108255296D01*
X134630725Y-108255296D01*
X134359391Y-108255296D01*
X134359391Y-107308366D01*
X134470502Y-107308366D01*
X134473399Y-107382375D01*
X134482226Y-107458637D01*
X134496775Y-107535019D01*
X134517397Y-107612998D01*
X134708883Y-107612998D01*
X134683314Y-107548160D01*
X134665102Y-107483916D01*
X134653933Y-107418985D01*
X134650265Y-107355444D01*
X134654414Y-107298770D01*
X134665614Y-107255312D01*
X134682566Y-107222271D01*
X134707159Y-107196016D01*
X134737023Y-107180527D01*
X134773913Y-107175132D01*
X134813891Y-107180832D01*
X134844879Y-107196895D01*
X134869106Y-107223675D01*
X134885158Y-107257629D01*
X134896172Y-107305409D01*
X134900369Y-107371198D01*
X134900369Y-107481840D01*
X135068408Y-107481840D01*
X135068408Y-107376632D01*
X135073158Y-107302786D01*
X135085733Y-107248093D01*
X135104251Y-107208288D01*
X135132023Y-107176509D01*
X135166455Y-107157798D01*
X135209764Y-107151257D01*
X135251822Y-107157603D01*
X135285741Y-107175849D01*
X135313567Y-107206945D01*
X135332427Y-107245821D01*
X135345055Y-107297988D01*
X135349776Y-107367107D01*
X135345165Y-107437484D01*
X135331031Y-107510233D01*
X135308100Y-107582375D01*
X135275526Y-107656718D01*
X135478736Y-107656718D01*
X135501000Y-107578954D01*
X135516838Y-107500647D01*
X135526378Y-107421631D01*
X135529539Y-107343171D01*
X135523607Y-107229013D01*
X135507349Y-107136864D01*
X135482642Y-107063036D01*
X135450710Y-107004345D01*
X135416123Y-106962415D01*
X135376608Y-106930436D01*
X135331559Y-106907441D01*
X135279909Y-106893193D01*
X135220205Y-106888208D01*
X135154280Y-106894596D01*
X135099141Y-106912692D01*
X135052594Y-106941880D01*
X135014224Y-106981512D01*
X134983271Y-107032940D01*
X134960026Y-107098623D01*
X134939671Y-107039780D01*
X134912752Y-106994114D01*
X134879609Y-106959282D01*
X134839126Y-106933686D01*
X134790825Y-106917775D01*
X134732697Y-106912143D01*
X134669020Y-106918775D01*
X134616413Y-106937527D01*
X134572512Y-106967872D01*
X134535898Y-107010879D01*
X134509711Y-107060518D01*
X134489186Y-107124438D01*
X134475528Y-107205829D01*
X134470502Y-107308366D01*
X134359391Y-107308366D01*
X134359391Y-106633523D01*
X135244263Y-106633523D01*
X135510000Y-106633523D01*
X135510000Y-106387571D01*
X135244263Y-106387571D01*
X135244263Y-106633523D01*
X134359391Y-106633523D01*
X134359391Y-105802853D01*
X134470502Y-105802853D01*
X134473399Y-105876862D01*
X134482226Y-105953124D01*
X134496775Y-106029506D01*
X134517397Y-106107485D01*
X134708883Y-106107485D01*
X134683314Y-106042647D01*
X134665102Y-105978403D01*
X134653933Y-105913472D01*
X134650265Y-105849931D01*
X134654414Y-105793257D01*
X134665614Y-105749799D01*
X134682566Y-105716758D01*
X134707159Y-105690503D01*
X134737023Y-105675014D01*
X134773913Y-105669619D01*
X134813891Y-105675319D01*
X134844879Y-105691382D01*
X134869106Y-105718162D01*
X134885158Y-105752117D01*
X134896172Y-105799896D01*
X134900369Y-105865685D01*
X134900369Y-105976327D01*
X135068408Y-105976327D01*
X135068408Y-105871119D01*
X135073158Y-105797273D01*
X135085733Y-105742580D01*
X135104251Y-105702775D01*
X135132023Y-105670996D01*
X135166455Y-105652285D01*
X135209764Y-105645744D01*
X135251822Y-105652090D01*
X135285741Y-105670336D01*
X135313567Y-105701432D01*
X135332427Y-105740308D01*
X135345055Y-105792475D01*
X135349776Y-105861594D01*
X135345165Y-105931971D01*
X135331031Y-106004720D01*
X135308100Y-106076862D01*
X135275526Y-106151205D01*
X135478736Y-106151205D01*
X135501000Y-106073441D01*
X135516838Y-105995134D01*
X135526378Y-105916118D01*
X135529539Y-105837658D01*
X135523607Y-105723500D01*
X135507349Y-105631351D01*
X135482642Y-105557523D01*
X135450710Y-105498832D01*
X135416123Y-105456902D01*
X135376608Y-105424923D01*
X135331559Y-105401928D01*
X135279909Y-105387680D01*
X135220205Y-105382695D01*
X135154280Y-105389083D01*
X135099141Y-105407179D01*
X135052594Y-105436367D01*
X135014224Y-105475999D01*
X134983271Y-105527427D01*
X134960026Y-105593110D01*
X134939671Y-105534268D01*
X134912752Y-105488601D01*
X134879609Y-105453769D01*
X134839126Y-105428173D01*
X134790825Y-105412263D01*
X134732697Y-105406631D01*
X134669020Y-105413262D01*
X134616413Y-105432015D01*
X134572512Y-105462359D01*
X134535898Y-105505366D01*
X134509711Y-105555005D01*
X134489186Y-105618925D01*
X134475528Y-105700316D01*
X134470502Y-105802853D01*
X134359391Y-105802853D01*
X134359391Y-104459213D01*
X134490041Y-104459213D01*
X135242859Y-104729040D01*
X134490041Y-104999600D01*
X134490041Y-105263932D01*
X135510000Y-104886149D01*
X135510000Y-104572602D01*
X134490041Y-104194881D01*
X134490041Y-104459213D01*
X134359391Y-104459213D01*
X134359391Y-104083770D01*
X135640650Y-104083770D01*
X135640650Y-108885545D01*
G37*
G36*
X133684842Y-105128010D02*
G01*
X133279094Y-104987937D01*
X133684842Y-104848596D01*
X133684842Y-105128010D01*
G37*
G36*
X134190650Y-108626647D02*
G01*
X132928930Y-108626647D01*
X132928930Y-107996398D01*
X133180725Y-107996398D01*
X133180725Y-108158942D01*
X133540251Y-108158942D01*
X133540251Y-108515536D01*
X133700474Y-108515536D01*
X133700474Y-108158942D01*
X134060000Y-108158942D01*
X134060000Y-107996398D01*
X133700474Y-107996398D01*
X133700474Y-107639803D01*
X133540251Y-107639803D01*
X133540251Y-107996398D01*
X133180725Y-107996398D01*
X132928930Y-107996398D01*
X132928930Y-106689454D01*
X133040041Y-106689454D01*
X133040041Y-107343170D01*
X133610593Y-107343170D01*
X133583979Y-107270067D01*
X133566324Y-107205234D01*
X133555427Y-107141732D01*
X133551974Y-107084273D01*
X133557722Y-107022119D01*
X133573606Y-106972842D01*
X133598564Y-106933697D01*
X133632892Y-106903449D01*
X133674572Y-106885131D01*
X133725875Y-106878682D01*
X133776742Y-106885104D01*
X133818348Y-106903400D01*
X133852882Y-106933697D01*
X133878013Y-106972865D01*
X133893996Y-107022143D01*
X133899776Y-107084273D01*
X133894160Y-107151166D01*
X133876329Y-107225323D01*
X133847929Y-107300208D01*
X133805987Y-107383470D01*
X134013105Y-107383470D01*
X134042483Y-107298751D01*
X134063053Y-107214393D01*
X134075417Y-107128931D01*
X134079539Y-107042630D01*
X134072844Y-106941585D01*
X134054139Y-106857384D01*
X134024900Y-106787212D01*
X133985750Y-106728778D01*
X133945738Y-106688403D01*
X133900649Y-106657222D01*
X133849783Y-106634625D01*
X133792092Y-106620592D01*
X133726242Y-106615693D01*
X133643855Y-106622800D01*
X133574485Y-106642897D01*
X133515684Y-106675048D01*
X133465696Y-106719557D01*
X133426476Y-106773679D01*
X133397379Y-106838583D01*
X133378838Y-106916405D01*
X133372212Y-107009840D01*
X133376669Y-107073038D01*
X133389309Y-107133488D01*
X133231528Y-107133488D01*
X133231528Y-106689454D01*
X133040041Y-106689454D01*
X132928930Y-106689454D01*
X132928930Y-105705827D01*
X133040041Y-105705827D01*
X133792859Y-105975655D01*
X133040041Y-106246215D01*
X133040041Y-106510547D01*
X134060000Y-106132764D01*
X134060000Y-105819217D01*
X133040041Y-105441496D01*
X133040041Y-105705827D01*
X132928930Y-105705827D01*
X132928930Y-104831499D01*
X133040041Y-104831499D01*
X133040041Y-104987937D01*
X133040041Y-105145046D01*
X134060000Y-105522828D01*
X134060000Y-105258497D01*
X133872421Y-105193589D01*
X133872421Y-104782345D01*
X134060000Y-104718109D01*
X134060000Y-104453778D01*
X133040041Y-104831499D01*
X132928930Y-104831499D01*
X132928930Y-104342667D01*
X134190650Y-104342667D01*
X134190650Y-108626647D01*
G37*
D10*
X204913571Y-81871009D02*
X204580238Y-81871009D01*
X204580238Y-82394819D02*
X204580238Y-81394819D01*
X204580238Y-81394819D02*
X205056428Y-81394819D01*
X205437381Y-82394819D02*
X205437381Y-81394819D01*
X205913571Y-82394819D02*
X205913571Y-81394819D01*
X205913571Y-81394819D02*
X206151666Y-81394819D01*
X206151666Y-81394819D02*
X206294523Y-81442438D01*
X206294523Y-81442438D02*
X206389761Y-81537676D01*
X206389761Y-81537676D02*
X206437380Y-81632914D01*
X206437380Y-81632914D02*
X206484999Y-81823390D01*
X206484999Y-81823390D02*
X206484999Y-81966247D01*
X206484999Y-81966247D02*
X206437380Y-82156723D01*
X206437380Y-82156723D02*
X206389761Y-82251961D01*
X206389761Y-82251961D02*
X206294523Y-82347200D01*
X206294523Y-82347200D02*
X206151666Y-82394819D01*
X206151666Y-82394819D02*
X205913571Y-82394819D01*
X206865952Y-81490057D02*
X206913571Y-81442438D01*
X206913571Y-81442438D02*
X207008809Y-81394819D01*
X207008809Y-81394819D02*
X207246904Y-81394819D01*
X207246904Y-81394819D02*
X207342142Y-81442438D01*
X207342142Y-81442438D02*
X207389761Y-81490057D01*
X207389761Y-81490057D02*
X207437380Y-81585295D01*
X207437380Y-81585295D02*
X207437380Y-81680533D01*
X207437380Y-81680533D02*
X207389761Y-81823390D01*
X207389761Y-81823390D02*
X206818333Y-82394819D01*
X206818333Y-82394819D02*
X207437380Y-82394819D01*
X204913571Y-77321009D02*
X204580238Y-77321009D01*
X204580238Y-77844819D02*
X204580238Y-76844819D01*
X204580238Y-76844819D02*
X205056428Y-76844819D01*
X205437381Y-77844819D02*
X205437381Y-76844819D01*
X205913571Y-77844819D02*
X205913571Y-76844819D01*
X205913571Y-76844819D02*
X206151666Y-76844819D01*
X206151666Y-76844819D02*
X206294523Y-76892438D01*
X206294523Y-76892438D02*
X206389761Y-76987676D01*
X206389761Y-76987676D02*
X206437380Y-77082914D01*
X206437380Y-77082914D02*
X206484999Y-77273390D01*
X206484999Y-77273390D02*
X206484999Y-77416247D01*
X206484999Y-77416247D02*
X206437380Y-77606723D01*
X206437380Y-77606723D02*
X206389761Y-77701961D01*
X206389761Y-77701961D02*
X206294523Y-77797200D01*
X206294523Y-77797200D02*
X206151666Y-77844819D01*
X206151666Y-77844819D02*
X205913571Y-77844819D01*
X207437380Y-77844819D02*
X206865952Y-77844819D01*
X207151666Y-77844819D02*
X207151666Y-76844819D01*
X207151666Y-76844819D02*
X207056428Y-76987676D01*
X207056428Y-76987676D02*
X206961190Y-77082914D01*
X206961190Y-77082914D02*
X206865952Y-77130533D01*
X209463571Y-81871009D02*
X209130238Y-81871009D01*
X209130238Y-82394819D02*
X209130238Y-81394819D01*
X209130238Y-81394819D02*
X209606428Y-81394819D01*
X209987381Y-82394819D02*
X209987381Y-81394819D01*
X210463571Y-82394819D02*
X210463571Y-81394819D01*
X210463571Y-81394819D02*
X210701666Y-81394819D01*
X210701666Y-81394819D02*
X210844523Y-81442438D01*
X210844523Y-81442438D02*
X210939761Y-81537676D01*
X210939761Y-81537676D02*
X210987380Y-81632914D01*
X210987380Y-81632914D02*
X211034999Y-81823390D01*
X211034999Y-81823390D02*
X211034999Y-81966247D01*
X211034999Y-81966247D02*
X210987380Y-82156723D01*
X210987380Y-82156723D02*
X210939761Y-82251961D01*
X210939761Y-82251961D02*
X210844523Y-82347200D01*
X210844523Y-82347200D02*
X210701666Y-82394819D01*
X210701666Y-82394819D02*
X210463571Y-82394819D01*
X211892142Y-81728152D02*
X211892142Y-82394819D01*
X211654047Y-81347200D02*
X211415952Y-82061485D01*
X211415952Y-82061485D02*
X212034999Y-82061485D01*
X214013571Y-81871009D02*
X213680238Y-81871009D01*
X213680238Y-82394819D02*
X213680238Y-81394819D01*
X213680238Y-81394819D02*
X214156428Y-81394819D01*
X214537381Y-82394819D02*
X214537381Y-81394819D01*
X215013571Y-82394819D02*
X215013571Y-81394819D01*
X215013571Y-81394819D02*
X215251666Y-81394819D01*
X215251666Y-81394819D02*
X215394523Y-81442438D01*
X215394523Y-81442438D02*
X215489761Y-81537676D01*
X215489761Y-81537676D02*
X215537380Y-81632914D01*
X215537380Y-81632914D02*
X215584999Y-81823390D01*
X215584999Y-81823390D02*
X215584999Y-81966247D01*
X215584999Y-81966247D02*
X215537380Y-82156723D01*
X215537380Y-82156723D02*
X215489761Y-82251961D01*
X215489761Y-82251961D02*
X215394523Y-82347200D01*
X215394523Y-82347200D02*
X215251666Y-82394819D01*
X215251666Y-82394819D02*
X215013571Y-82394819D01*
X216442142Y-81394819D02*
X216251666Y-81394819D01*
X216251666Y-81394819D02*
X216156428Y-81442438D01*
X216156428Y-81442438D02*
X216108809Y-81490057D01*
X216108809Y-81490057D02*
X216013571Y-81632914D01*
X216013571Y-81632914D02*
X215965952Y-81823390D01*
X215965952Y-81823390D02*
X215965952Y-82204342D01*
X215965952Y-82204342D02*
X216013571Y-82299580D01*
X216013571Y-82299580D02*
X216061190Y-82347200D01*
X216061190Y-82347200D02*
X216156428Y-82394819D01*
X216156428Y-82394819D02*
X216346904Y-82394819D01*
X216346904Y-82394819D02*
X216442142Y-82347200D01*
X216442142Y-82347200D02*
X216489761Y-82299580D01*
X216489761Y-82299580D02*
X216537380Y-82204342D01*
X216537380Y-82204342D02*
X216537380Y-81966247D01*
X216537380Y-81966247D02*
X216489761Y-81871009D01*
X216489761Y-81871009D02*
X216442142Y-81823390D01*
X216442142Y-81823390D02*
X216346904Y-81775771D01*
X216346904Y-81775771D02*
X216156428Y-81775771D01*
X216156428Y-81775771D02*
X216061190Y-81823390D01*
X216061190Y-81823390D02*
X216013571Y-81871009D01*
X216013571Y-81871009D02*
X215965952Y-81966247D01*
X209463571Y-77321009D02*
X209130238Y-77321009D01*
X209130238Y-77844819D02*
X209130238Y-76844819D01*
X209130238Y-76844819D02*
X209606428Y-76844819D01*
X209987381Y-77844819D02*
X209987381Y-76844819D01*
X210463571Y-77844819D02*
X210463571Y-76844819D01*
X210463571Y-76844819D02*
X210701666Y-76844819D01*
X210701666Y-76844819D02*
X210844523Y-76892438D01*
X210844523Y-76892438D02*
X210939761Y-76987676D01*
X210939761Y-76987676D02*
X210987380Y-77082914D01*
X210987380Y-77082914D02*
X211034999Y-77273390D01*
X211034999Y-77273390D02*
X211034999Y-77416247D01*
X211034999Y-77416247D02*
X210987380Y-77606723D01*
X210987380Y-77606723D02*
X210939761Y-77701961D01*
X210939761Y-77701961D02*
X210844523Y-77797200D01*
X210844523Y-77797200D02*
X210701666Y-77844819D01*
X210701666Y-77844819D02*
X210463571Y-77844819D01*
X211368333Y-76844819D02*
X211987380Y-76844819D01*
X211987380Y-76844819D02*
X211654047Y-77225771D01*
X211654047Y-77225771D02*
X211796904Y-77225771D01*
X211796904Y-77225771D02*
X211892142Y-77273390D01*
X211892142Y-77273390D02*
X211939761Y-77321009D01*
X211939761Y-77321009D02*
X211987380Y-77416247D01*
X211987380Y-77416247D02*
X211987380Y-77654342D01*
X211987380Y-77654342D02*
X211939761Y-77749580D01*
X211939761Y-77749580D02*
X211892142Y-77797200D01*
X211892142Y-77797200D02*
X211796904Y-77844819D01*
X211796904Y-77844819D02*
X211511190Y-77844819D01*
X211511190Y-77844819D02*
X211415952Y-77797200D01*
X211415952Y-77797200D02*
X211368333Y-77749580D01*
X214013571Y-77321009D02*
X213680238Y-77321009D01*
X213680238Y-77844819D02*
X213680238Y-76844819D01*
X213680238Y-76844819D02*
X214156428Y-76844819D01*
X214537381Y-77844819D02*
X214537381Y-76844819D01*
X215013571Y-77844819D02*
X215013571Y-76844819D01*
X215013571Y-76844819D02*
X215251666Y-76844819D01*
X215251666Y-76844819D02*
X215394523Y-76892438D01*
X215394523Y-76892438D02*
X215489761Y-76987676D01*
X215489761Y-76987676D02*
X215537380Y-77082914D01*
X215537380Y-77082914D02*
X215584999Y-77273390D01*
X215584999Y-77273390D02*
X215584999Y-77416247D01*
X215584999Y-77416247D02*
X215537380Y-77606723D01*
X215537380Y-77606723D02*
X215489761Y-77701961D01*
X215489761Y-77701961D02*
X215394523Y-77797200D01*
X215394523Y-77797200D02*
X215251666Y-77844819D01*
X215251666Y-77844819D02*
X215013571Y-77844819D01*
X216489761Y-76844819D02*
X216013571Y-76844819D01*
X216013571Y-76844819D02*
X215965952Y-77321009D01*
X215965952Y-77321009D02*
X216013571Y-77273390D01*
X216013571Y-77273390D02*
X216108809Y-77225771D01*
X216108809Y-77225771D02*
X216346904Y-77225771D01*
X216346904Y-77225771D02*
X216442142Y-77273390D01*
X216442142Y-77273390D02*
X216489761Y-77321009D01*
X216489761Y-77321009D02*
X216537380Y-77416247D01*
X216537380Y-77416247D02*
X216537380Y-77654342D01*
X216537380Y-77654342D02*
X216489761Y-77749580D01*
X216489761Y-77749580D02*
X216442142Y-77797200D01*
X216442142Y-77797200D02*
X216346904Y-77844819D01*
X216346904Y-77844819D02*
X216108809Y-77844819D01*
X216108809Y-77844819D02*
X216013571Y-77797200D01*
X216013571Y-77797200D02*
X215965952Y-77749580D01*
D12*
X125643571Y-80723365D02*
X125583095Y-80783842D01*
X125583095Y-80783842D02*
X125401666Y-80844318D01*
X125401666Y-80844318D02*
X125280714Y-80844318D01*
X125280714Y-80844318D02*
X125099285Y-80783842D01*
X125099285Y-80783842D02*
X124978333Y-80662889D01*
X124978333Y-80662889D02*
X124917856Y-80541937D01*
X124917856Y-80541937D02*
X124857380Y-80300032D01*
X124857380Y-80300032D02*
X124857380Y-80118603D01*
X124857380Y-80118603D02*
X124917856Y-79876699D01*
X124917856Y-79876699D02*
X124978333Y-79755746D01*
X124978333Y-79755746D02*
X125099285Y-79634794D01*
X125099285Y-79634794D02*
X125280714Y-79574318D01*
X125280714Y-79574318D02*
X125401666Y-79574318D01*
X125401666Y-79574318D02*
X125583095Y-79634794D01*
X125583095Y-79634794D02*
X125643571Y-79695270D01*
X126853095Y-80844318D02*
X126127380Y-80844318D01*
X126490237Y-80844318D02*
X126490237Y-79574318D01*
X126490237Y-79574318D02*
X126369285Y-79755746D01*
X126369285Y-79755746D02*
X126248333Y-79876699D01*
X126248333Y-79876699D02*
X126127380Y-79937175D01*
X127941666Y-79997651D02*
X127941666Y-80844318D01*
X127639285Y-79513842D02*
X127336904Y-80420984D01*
X127336904Y-80420984D02*
X128123095Y-80420984D01*
D10*
X156485714Y-70854819D02*
X155914286Y-70854819D01*
X156200000Y-70854819D02*
X156200000Y-69854819D01*
X156200000Y-69854819D02*
X156104762Y-69997676D01*
X156104762Y-69997676D02*
X156009524Y-70092914D01*
X156009524Y-70092914D02*
X155914286Y-70140533D01*
D13*
%TO.C,R2*%
X141777500Y-82162742D02*
X141777500Y-82637258D01*
X142822500Y-82162742D02*
X142822500Y-82637258D01*
%TO.C,C22*%
X130540000Y-100290580D02*
X130540000Y-100009420D01*
X131560000Y-100290580D02*
X131560000Y-100009420D01*
%TO.C,R11*%
X131527500Y-110212742D02*
X131527500Y-110687258D01*
X132572500Y-110212742D02*
X132572500Y-110687258D01*
D11*
%TO.C,L1*%
X123050000Y-100200000D02*
X129250000Y-100200000D01*
X123050000Y-101750000D02*
X123050000Y-100200000D01*
X123050000Y-106100000D02*
X123050000Y-104550000D01*
X129250000Y-100200000D02*
X129250000Y-101750000D01*
X129250000Y-104550000D02*
X129250000Y-106100000D01*
X129250000Y-106100000D02*
X123050000Y-106100000D01*
D14*
X129750000Y-103150000D02*
X129750000Y-103150000D01*
X129850000Y-103150000D02*
X129850000Y-103150000D01*
X129750000Y-103150000D02*
G75*
G02*
X129850000Y-103150000I50000J0D01*
G01*
X129850000Y-103150000D02*
G75*
G02*
X129750000Y-103150000I-50000J0D01*
G01*
D13*
%TO.C,R1*%
X143487500Y-82162742D02*
X143487500Y-82637258D01*
X144532500Y-82162742D02*
X144532500Y-82637258D01*
D14*
%TO.C,IC2*%
X128550000Y-94300000D02*
X128550000Y-94300000D01*
X128550000Y-94400000D02*
X128550000Y-94400000D01*
X128550000Y-94300000D02*
G75*
G02*
X128550000Y-94400000I0J-50000D01*
G01*
X128550000Y-94400000D02*
G75*
G02*
X128550000Y-94300000I0J50000D01*
G01*
D13*
%TO.C,C24*%
X153352500Y-93534420D02*
X153352500Y-93815580D01*
X154372500Y-93534420D02*
X154372500Y-93815580D01*
%TO.C,C25*%
X153352500Y-96815580D02*
X153352500Y-96534420D01*
X154372500Y-96815580D02*
X154372500Y-96534420D01*
%TO.C,C9*%
X154869420Y-83260000D02*
X155150580Y-83260000D01*
X154869420Y-84280000D02*
X155150580Y-84280000D01*
%TO.C,Q1*%
X152222500Y-88392500D02*
X152222500Y-87592500D01*
X152222500Y-88392500D02*
X152222500Y-89192500D01*
X155342500Y-88392500D02*
X155342500Y-87592500D01*
X155342500Y-88392500D02*
X155342500Y-89192500D01*
X152272500Y-89692500D02*
X151942500Y-89932500D01*
X151942500Y-89452500D01*
X152272500Y-89692500D01*
G36*
X152272500Y-89692500D02*
G01*
X151942500Y-89932500D01*
X151942500Y-89452500D01*
X152272500Y-89692500D01*
G37*
%TO.C,C5*%
X153269420Y-84660000D02*
X153550580Y-84660000D01*
X153269420Y-85680000D02*
X153550580Y-85680000D01*
D11*
%TO.C,U1*%
X146650000Y-87600000D02*
X150350000Y-87600000D01*
X146650000Y-95400000D02*
X146650000Y-87600000D01*
X150350000Y-87600000D02*
X150350000Y-95400000D01*
X150350000Y-95400000D02*
X146650000Y-95400000D01*
D15*
X151611803Y-95700000D02*
G75*
G02*
X151388197Y-95700000I-111803J0D01*
G01*
X151388197Y-95700000D02*
G75*
G02*
X151611803Y-95700000I111803J0D01*
G01*
D16*
X151570709Y-95700000D02*
G75*
G02*
X151429291Y-95700000I-70709J0D01*
G01*
X151429291Y-95700000D02*
G75*
G02*
X151570709Y-95700000I70709J0D01*
G01*
X151570709Y-95700000D02*
G75*
G02*
X151429291Y-95700000I-70709J0D01*
G01*
X151429291Y-95700000D02*
G75*
G02*
X151570709Y-95700000I70709J0D01*
G01*
D13*
%TO.C,R17*%
X127462258Y-91007500D02*
X126987742Y-91007500D01*
X127462258Y-92052500D02*
X126987742Y-92052500D01*
%TO.C,R13*%
X129537500Y-83007258D02*
X129537500Y-82532742D01*
X130582500Y-83007258D02*
X130582500Y-82532742D01*
%TO.C,J1*%
X138250000Y-108625000D02*
X138250000Y-109875000D01*
X138540000Y-108915000D02*
X138540000Y-114885000D01*
X138540000Y-114885000D02*
X158660000Y-114885000D01*
X138550000Y-108925000D02*
X138550000Y-109675000D01*
X138550000Y-109675000D02*
X140350000Y-109675000D01*
X138550000Y-111175000D02*
X139300000Y-111175000D01*
X139300000Y-111175000D02*
X139300000Y-112515000D01*
X139500000Y-108625000D02*
X138250000Y-108625000D01*
X140350000Y-108925000D02*
X138550000Y-108925000D01*
X140350000Y-109675000D02*
X140350000Y-108925000D01*
X141850000Y-108925000D02*
X141850000Y-109675000D01*
X141850000Y-109675000D02*
X155350000Y-109675000D01*
X148600000Y-114125000D02*
X140360000Y-114125000D01*
X155350000Y-108925000D02*
X141850000Y-108925000D01*
X155350000Y-109675000D02*
X155350000Y-108925000D01*
X156850000Y-108925000D02*
X156850000Y-109675000D01*
X156850000Y-109675000D02*
X158650000Y-109675000D01*
X157900000Y-111175000D02*
X157900000Y-114125000D01*
X157900000Y-114125000D02*
X148600000Y-114125000D01*
X158650000Y-108925000D02*
X156850000Y-108925000D01*
X158650000Y-109675000D02*
X158650000Y-108925000D01*
X158650000Y-111175000D02*
X157900000Y-111175000D01*
X158660000Y-108915000D02*
X138540000Y-108915000D01*
X158660000Y-114885000D02*
X158660000Y-108915000D01*
%TO.C,C20*%
X123440580Y-93490000D02*
X123159420Y-93490000D01*
X123440580Y-94510000D02*
X123159420Y-94510000D01*
%TO.C,R16*%
X133027500Y-110687258D02*
X133027500Y-110212742D01*
X134072500Y-110687258D02*
X134072500Y-110212742D01*
%TO.C,C4*%
X141140000Y-91359420D02*
X141140000Y-91640580D01*
X142160000Y-91359420D02*
X142160000Y-91640580D01*
%TO.C,R14*%
X126852742Y-88227500D02*
X127327258Y-88227500D01*
X126852742Y-89272500D02*
X127327258Y-89272500D01*
%TO.C,C15*%
X122850000Y-82879420D02*
X122850000Y-83160580D01*
X123870000Y-82879420D02*
X123870000Y-83160580D01*
%TO.C,R9*%
X130697258Y-79997500D02*
X130222742Y-79997500D01*
X130697258Y-81042500D02*
X130222742Y-81042500D01*
%TO.C,C26*%
X156881920Y-90700000D02*
X157163080Y-90700000D01*
X156881920Y-91720000D02*
X157163080Y-91720000D01*
%TO.C,D1*%
X134315000Y-112650000D02*
X134315000Y-114935000D01*
X134315000Y-114935000D02*
X135785000Y-114935000D01*
X135785000Y-114935000D02*
X135785000Y-112650000D01*
%TO.C,R15*%
X126987742Y-92477500D02*
X127462258Y-92477500D01*
X126987742Y-93522500D02*
X127462258Y-93522500D01*
%TO.C,C6*%
X143295580Y-85650000D02*
X143014420Y-85650000D01*
X143295580Y-86670000D02*
X143014420Y-86670000D01*
%TO.C,C21*%
X132050000Y-100290580D02*
X132050000Y-100009420D01*
X133070000Y-100290580D02*
X133070000Y-100009420D01*
%TO.C,R6*%
X145377500Y-105837258D02*
X145377500Y-105362742D01*
X146422500Y-105837258D02*
X146422500Y-105362742D01*
%TO.C,C23*%
X156881920Y-86190000D02*
X157163080Y-86190000D01*
X156881920Y-87210000D02*
X157163080Y-87210000D01*
%TO.C,C11*%
X156881920Y-87700000D02*
X157163080Y-87700000D01*
X156881920Y-88720000D02*
X157163080Y-88720000D01*
%TO.C,C17*%
X129040000Y-92390580D02*
X129040000Y-92109420D01*
X130060000Y-92390580D02*
X130060000Y-92109420D01*
%TO.C,R8*%
X143412742Y-104277500D02*
X143887258Y-104277500D01*
X143412742Y-105322500D02*
X143887258Y-105322500D01*
%TO.C,R12*%
X131037500Y-82532742D02*
X131037500Y-83007258D01*
X132082500Y-82532742D02*
X132082500Y-83007258D01*
%TO.C,C1*%
X141140000Y-94359420D02*
X141140000Y-94640580D01*
X142160000Y-94359420D02*
X142160000Y-94640580D01*
%TO.C,D3*%
X122650000Y-94740000D02*
X122650000Y-98600000D01*
X124650000Y-94740000D02*
X122650000Y-94740000D01*
X124650000Y-94740000D02*
X124650000Y-98600000D01*
%TO.C,C18*%
X131659420Y-97390000D02*
X131940580Y-97390000D01*
X131659420Y-98410000D02*
X131940580Y-98410000D01*
%TO.C,RN1*%
X146780000Y-106025000D02*
X146780000Y-105225000D01*
X150220000Y-106025000D02*
X150220000Y-105225000D01*
%TO.C,C7*%
X151669420Y-83260000D02*
X151950580Y-83260000D01*
X151669420Y-84280000D02*
X151950580Y-84280000D01*
%TO.C,C10*%
X144895580Y-84150000D02*
X144614420Y-84150000D01*
X144895580Y-85170000D02*
X144614420Y-85170000D01*
D11*
%TO.C,H5*%
X137900000Y-79400000D02*
X137900000Y-81300000D01*
X137900000Y-86300000D02*
X137900000Y-83500000D01*
X137900000Y-91400000D02*
X137900000Y-88600000D01*
X137900000Y-96500000D02*
X137900000Y-93700000D01*
X137900000Y-98700000D02*
X137900000Y-100600000D01*
X137900000Y-100600000D02*
X139800000Y-100600000D01*
X139800000Y-79400000D02*
X137900000Y-79400000D01*
X142000000Y-79400000D02*
X144800000Y-79400000D01*
X144800000Y-100600000D02*
X142000000Y-100600000D01*
X147100000Y-79400000D02*
X149900000Y-79400000D01*
X149900000Y-100600000D02*
X147100000Y-100600000D01*
X152200000Y-79400000D02*
X155000000Y-79400000D01*
X155000000Y-100600000D02*
X152200000Y-100600000D01*
X157200000Y-79400000D02*
X159100000Y-79400000D01*
X157200000Y-100600000D02*
X159100000Y-100600000D01*
X159100000Y-79400000D02*
X159100000Y-81300000D01*
X159100000Y-83500000D02*
X159100000Y-86300000D01*
X159100000Y-88600000D02*
X159100000Y-91400000D01*
X159100000Y-93700000D02*
X159100000Y-96500000D01*
X159100000Y-100600000D02*
X159100000Y-98700000D01*
D13*
%TO.C,C13*%
X124400000Y-82879420D02*
X124400000Y-83160580D01*
X125420000Y-82879420D02*
X125420000Y-83160580D01*
%TO.C,D2*%
X131315000Y-112650000D02*
X131315000Y-114935000D01*
X131315000Y-114935000D02*
X132785000Y-114935000D01*
X132785000Y-114935000D02*
X132785000Y-112650000D01*
D11*
%TO.C,C14*%
X124860000Y-81045000D02*
X128660000Y-81045000D01*
X128060000Y-79495000D02*
X124860000Y-79495000D01*
D13*
%TO.C,U2*%
X125900000Y-83167018D02*
X125900000Y-83020000D01*
X125900000Y-85872982D02*
X125900000Y-86020000D01*
X129120000Y-83167018D02*
X129120000Y-83020000D01*
X129120000Y-85872982D02*
X129120000Y-86020000D01*
X126100000Y-86707500D02*
X125770000Y-86947500D01*
X125770000Y-86467500D01*
X126100000Y-86707500D01*
G36*
X126100000Y-86707500D02*
G01*
X125770000Y-86947500D01*
X125770000Y-86467500D01*
X126100000Y-86707500D01*
G37*
%TO.C,C8*%
X141695580Y-84150000D02*
X141414420Y-84150000D01*
X141695580Y-85170000D02*
X141414420Y-85170000D01*
%TO.C,C2*%
X142640000Y-94359420D02*
X142640000Y-94640580D01*
X143660000Y-94359420D02*
X143660000Y-94640580D01*
%TO.C,R18*%
X130527500Y-93662742D02*
X130527500Y-94137258D01*
X131572500Y-93662742D02*
X131572500Y-94137258D01*
%TO.C,C3*%
X142640000Y-91359420D02*
X142640000Y-91640580D01*
X143660000Y-91359420D02*
X143660000Y-91640580D01*
%TO.C,R10*%
X154019758Y-90687500D02*
X153545242Y-90687500D01*
X154019758Y-91732500D02*
X153545242Y-91732500D01*
%TO.C,C12*%
X156881920Y-89200000D02*
X157163080Y-89200000D01*
X156881920Y-90220000D02*
X157163080Y-90220000D01*
D17*
%TO.C,Y2*%
X157200000Y-92850000D02*
X155200000Y-92850000D01*
X157200000Y-97350000D02*
X155200000Y-97350000D01*
D11*
X156400000Y-98280000D02*
G75*
G02*
X156200000Y-98280000I-100000J0D01*
G01*
X156200000Y-98280000D02*
G75*
G02*
X156400000Y-98280000I100000J0D01*
G01*
D13*
%TO.C,C19*%
X123440580Y-91980000D02*
X123159420Y-91980000D01*
X123440580Y-93000000D02*
X123159420Y-93000000D01*
D11*
%TO.C,J3*%
X137300000Y-64400000D02*
X159700000Y-64400000D01*
X137300000Y-78600000D02*
X137300000Y-64400000D01*
X159700000Y-64400000D02*
X159700000Y-78600000D01*
X159700000Y-78600000D02*
X137300000Y-78600000D01*
D18*
X157300000Y-75000000D02*
G75*
G02*
X156900000Y-75000000I-200000J0D01*
G01*
X156900000Y-75000000D02*
G75*
G02*
X157300000Y-75000000I200000J0D01*
G01*
D13*
%TO.C,R3*%
X134527500Y-110687258D02*
X134527500Y-110212742D01*
X135572500Y-110687258D02*
X135572500Y-110212742D01*
%TO.C,C16*%
X124400000Y-86210580D02*
X124400000Y-85929420D01*
X125420000Y-86210580D02*
X125420000Y-85929420D01*
%TO.C,D4*%
X132815000Y-112650000D02*
X132815000Y-114935000D01*
X132815000Y-114935000D02*
X134285000Y-114935000D01*
X134285000Y-114935000D02*
X134285000Y-112650000D01*
%TD*%
%LPC*%
D19*
%TO.C,Y2*%
X155500000Y-93300000D02*
X156900000Y-93300000D01*
X156900000Y-93100000D01*
X157600000Y-93100000D01*
X157600000Y-94100000D01*
X156900000Y-94100000D01*
X156900000Y-93900000D01*
X155500000Y-93900000D01*
X155500000Y-94100000D01*
X154800000Y-94100000D01*
X154800000Y-93100000D01*
X155500000Y-93100000D01*
X155500000Y-93300000D01*
G36*
X155500000Y-93300000D02*
G01*
X156900000Y-93300000D01*
X156900000Y-93100000D01*
X157600000Y-93100000D01*
X157600000Y-94100000D01*
X156900000Y-94100000D01*
X156900000Y-93900000D01*
X155500000Y-93900000D01*
X155500000Y-94100000D01*
X154800000Y-94100000D01*
X154800000Y-93100000D01*
X155500000Y-93100000D01*
X155500000Y-93300000D01*
G37*
X155500000Y-94800000D02*
X156900000Y-94800000D01*
X156900000Y-94600000D01*
X157600000Y-94600000D01*
X157600000Y-95600000D01*
X156900000Y-95600000D01*
X156900000Y-95400000D01*
X155500000Y-95400000D01*
X155500000Y-95600000D01*
X154800000Y-95600000D01*
X154800000Y-94600000D01*
X155500000Y-94600000D01*
X155500000Y-94800000D01*
G36*
X155500000Y-94800000D02*
G01*
X156900000Y-94800000D01*
X156900000Y-94600000D01*
X157600000Y-94600000D01*
X157600000Y-95600000D01*
X156900000Y-95600000D01*
X156900000Y-95400000D01*
X155500000Y-95400000D01*
X155500000Y-95600000D01*
X154800000Y-95600000D01*
X154800000Y-94600000D01*
X155500000Y-94600000D01*
X155500000Y-94800000D01*
G37*
X155500000Y-96300000D02*
X156900000Y-96300000D01*
X156900000Y-96100000D01*
X157600000Y-96100000D01*
X157600000Y-97100000D01*
X156900000Y-97100000D01*
X156900000Y-96900000D01*
X155500000Y-96900000D01*
X155500000Y-97100000D01*
X154800000Y-97100000D01*
X154800000Y-96100000D01*
X155500000Y-96100000D01*
X155500000Y-96300000D01*
G36*
X155500000Y-96300000D02*
G01*
X156900000Y-96300000D01*
X156900000Y-96100000D01*
X157600000Y-96100000D01*
X157600000Y-97100000D01*
X156900000Y-97100000D01*
X156900000Y-96900000D01*
X155500000Y-96900000D01*
X155500000Y-97100000D01*
X154800000Y-97100000D01*
X154800000Y-96100000D01*
X155500000Y-96100000D01*
X155500000Y-96300000D01*
G37*
%TD*%
D20*
%TO.C,R2*%
X142300000Y-81575000D03*
X142300000Y-83225000D03*
%TD*%
D21*
%TO.C,C22*%
X131050000Y-100925000D03*
X131050000Y-99375000D03*
%TD*%
D20*
%TO.C,R11*%
X132050000Y-109625000D03*
X132050000Y-111275000D03*
%TD*%
D22*
%TO.C,L1*%
X128325000Y-103150000D03*
X123975000Y-103150000D03*
%TD*%
D20*
%TO.C,R1*%
X144010000Y-81575000D03*
X144010000Y-83225000D03*
%TD*%
D23*
%TO.C,IC2*%
X128550000Y-95100000D03*
X128050000Y-95100000D03*
X127550000Y-95100000D03*
X127050000Y-95100000D03*
X126550000Y-95100000D03*
X126550000Y-97900000D03*
X127050000Y-97900000D03*
X127550000Y-97900000D03*
X128050000Y-97900000D03*
X128550000Y-97900000D03*
D24*
X127550000Y-96500000D03*
D25*
X126100000Y-96250000D03*
X126100000Y-96750000D03*
X129000000Y-96750000D03*
X129000000Y-96250000D03*
%TD*%
D26*
%TO.C,C24*%
X153862500Y-92900000D03*
X153862500Y-94450000D03*
%TD*%
D27*
%TO.C,H3*%
X121100000Y-111500000D03*
X121802944Y-109802944D03*
X121802944Y-113197056D03*
X123500000Y-109100000D03*
D28*
X123500000Y-111500000D03*
D27*
X123500000Y-113900000D03*
X125197056Y-109802944D03*
X125197056Y-113197056D03*
X125900000Y-111500000D03*
%TD*%
D21*
%TO.C,C25*%
X153862500Y-97450000D03*
X153862500Y-95900000D03*
%TD*%
D29*
%TO.C,C9*%
X154235000Y-83770000D03*
X155785000Y-83770000D03*
%TD*%
D30*
%TO.C,Q1*%
X152832500Y-89530000D03*
X154732500Y-89530000D03*
X153782500Y-87255000D03*
%TD*%
D29*
%TO.C,C5*%
X152635000Y-85170000D03*
X154185000Y-85170000D03*
%TD*%
D31*
%TO.C,U1*%
X151400000Y-95075000D03*
X151400000Y-94425000D03*
X151400000Y-93775000D03*
X151400000Y-93125000D03*
X151400000Y-92475000D03*
X151400000Y-91825000D03*
X151400000Y-91175000D03*
X151400000Y-90525000D03*
X151400000Y-89875000D03*
X151400000Y-89225000D03*
X151400000Y-88575000D03*
X151400000Y-87925000D03*
X145600000Y-87925000D03*
X145600000Y-88575000D03*
X145600000Y-89225000D03*
X145600000Y-89875000D03*
X145600000Y-90525000D03*
X145600000Y-91175000D03*
X145600000Y-91825000D03*
X145600000Y-92475000D03*
X145600000Y-93125000D03*
X145600000Y-93775000D03*
X145600000Y-94425000D03*
X145600000Y-95075000D03*
%TD*%
D32*
%TO.C,R17*%
X128050000Y-91530000D03*
X126400000Y-91530000D03*
%TD*%
D27*
%TO.C,H2*%
X121100000Y-67750000D03*
X121802944Y-66052944D03*
X121802944Y-69447056D03*
X123500000Y-65350000D03*
D28*
X123500000Y-67750000D03*
D27*
X123500000Y-70150000D03*
X125197056Y-66052944D03*
X125197056Y-69447056D03*
X125900000Y-67750000D03*
%TD*%
D33*
%TO.C,R13*%
X130060000Y-83595000D03*
X130060000Y-81945000D03*
%TD*%
D34*
%TO.C,J1*%
X139500000Y-113375000D03*
D35*
X141100000Y-111375000D03*
D36*
X143600000Y-111375000D03*
X146100000Y-111375000D03*
X148600000Y-111375000D03*
X151100000Y-111375000D03*
X153600000Y-111375000D03*
X156100000Y-111375000D03*
%TD*%
D37*
%TO.C,FID2*%
X205985000Y-84390000D03*
%TD*%
D38*
%TO.C,C20*%
X124075000Y-94000000D03*
X122525000Y-94000000D03*
%TD*%
D33*
%TO.C,R16*%
X133550000Y-111275000D03*
X133550000Y-109625000D03*
%TD*%
D26*
%TO.C,C4*%
X141650000Y-90725000D03*
X141650000Y-92275000D03*
%TD*%
D27*
%TO.C,H4*%
X171100000Y-111500000D03*
X171802944Y-109802944D03*
X171802944Y-113197056D03*
X173500000Y-109100000D03*
D28*
X173500000Y-111500000D03*
D27*
X173500000Y-113900000D03*
X175197056Y-109802944D03*
X175197056Y-113197056D03*
X175900000Y-111500000D03*
%TD*%
D39*
%TO.C,R14*%
X126265000Y-88750000D03*
X127915000Y-88750000D03*
%TD*%
D37*
%TO.C,FID1*%
X205985000Y-79840000D03*
%TD*%
D26*
%TO.C,C15*%
X123360000Y-82245000D03*
X123360000Y-83795000D03*
%TD*%
D32*
%TO.C,R9*%
X131285000Y-80520000D03*
X129635000Y-80520000D03*
%TD*%
D29*
%TO.C,C26*%
X156247500Y-91210000D03*
X157797500Y-91210000D03*
%TD*%
D27*
%TO.C,H1*%
X171100000Y-68000000D03*
X171802944Y-66302944D03*
X171802944Y-69697056D03*
X173500000Y-65600000D03*
D28*
X173500000Y-68000000D03*
D27*
X173500000Y-70400000D03*
X175197056Y-66302944D03*
X175197056Y-69697056D03*
X175900000Y-68000000D03*
%TD*%
D40*
%TO.C,D1*%
X135050000Y-114237500D03*
X135050000Y-112662500D03*
%TD*%
D39*
%TO.C,R15*%
X126400000Y-93000000D03*
X128050000Y-93000000D03*
%TD*%
D38*
%TO.C,C6*%
X143930000Y-86160000D03*
X142380000Y-86160000D03*
%TD*%
D21*
%TO.C,C21*%
X132560000Y-100925000D03*
X132560000Y-99375000D03*
%TD*%
D33*
%TO.C,R6*%
X145900000Y-106425000D03*
X145900000Y-104775000D03*
%TD*%
D29*
%TO.C,C23*%
X156247500Y-86700000D03*
X157797500Y-86700000D03*
%TD*%
%TO.C,C11*%
X156247500Y-88210000D03*
X157797500Y-88210000D03*
%TD*%
D21*
%TO.C,C17*%
X129550000Y-93025000D03*
X129550000Y-91475000D03*
%TD*%
D39*
%TO.C,R8*%
X142825000Y-104800000D03*
X144475000Y-104800000D03*
%TD*%
D20*
%TO.C,R12*%
X131560000Y-81945000D03*
X131560000Y-83595000D03*
%TD*%
D37*
%TO.C,FID4*%
X210535000Y-84390000D03*
%TD*%
%TO.C,FID6*%
X215085000Y-84390000D03*
%TD*%
D26*
%TO.C,C1*%
X141650000Y-93725000D03*
X141650000Y-95275000D03*
%TD*%
D41*
%TO.C,D3*%
X123650000Y-95550000D03*
X123650000Y-98350000D03*
%TD*%
D29*
%TO.C,C18*%
X131025000Y-97900000D03*
X132575000Y-97900000D03*
%TD*%
D37*
%TO.C,FID3*%
X210535000Y-79840000D03*
%TD*%
D42*
%TO.C,RN1*%
X149700000Y-104775000D03*
X148900000Y-104775000D03*
X148100000Y-104775000D03*
X147300000Y-104775000D03*
X147300000Y-106475000D03*
X148100000Y-106475000D03*
X148900000Y-106475000D03*
X149700000Y-106475000D03*
%TD*%
D29*
%TO.C,C7*%
X151035000Y-83770000D03*
X152585000Y-83770000D03*
%TD*%
D38*
%TO.C,C10*%
X145530000Y-84660000D03*
X143980000Y-84660000D03*
%TD*%
D43*
%TO.C,H5*%
X158750000Y-82380000D03*
X158750000Y-87460000D03*
X158750000Y-92540000D03*
X158750000Y-97620000D03*
X156120000Y-100250000D03*
X151040000Y-100250000D03*
X145960000Y-100250000D03*
X140880000Y-100250000D03*
X138250000Y-97620000D03*
X138250000Y-92540000D03*
X138250000Y-87460000D03*
X138250000Y-82380000D03*
X140880000Y-79750000D03*
X145960000Y-79750000D03*
X151040000Y-79750000D03*
X156120000Y-79750000D03*
%TD*%
D26*
%TO.C,C13*%
X124910000Y-82245000D03*
X124910000Y-83795000D03*
%TD*%
D40*
%TO.C,D2*%
X132050000Y-114237500D03*
X132050000Y-112662500D03*
%TD*%
D37*
%TO.C,FID5*%
X215085000Y-79840000D03*
%TD*%
D44*
%TO.C,C14*%
X127810000Y-80270000D03*
X125110000Y-80270000D03*
%TD*%
D45*
%TO.C,U2*%
X127510000Y-84520000D03*
D46*
X126510000Y-86670000D03*
X127010000Y-86670000D03*
X127510000Y-86670000D03*
X128010000Y-86670000D03*
X128510000Y-86670000D03*
X128510000Y-82370000D03*
X128010000Y-82370000D03*
X127510000Y-82370000D03*
X127010000Y-82370000D03*
X126510000Y-82370000D03*
%TD*%
D38*
%TO.C,C8*%
X142330000Y-84660000D03*
X140780000Y-84660000D03*
%TD*%
D26*
%TO.C,C2*%
X143150000Y-93725000D03*
X143150000Y-95275000D03*
%TD*%
D20*
%TO.C,R18*%
X131050000Y-93075000D03*
X131050000Y-94725000D03*
%TD*%
D26*
%TO.C,C3*%
X143150000Y-90725000D03*
X143150000Y-92275000D03*
%TD*%
D32*
%TO.C,R10*%
X154607500Y-91210000D03*
X152957500Y-91210000D03*
%TD*%
D29*
%TO.C,C12*%
X156247500Y-89710000D03*
X157797500Y-89710000D03*
%TD*%
D38*
%TO.C,C19*%
X124075000Y-92490000D03*
X122525000Y-92490000D03*
%TD*%
D47*
%TO.C,J3*%
X155900000Y-73500000D03*
X150900000Y-73500000D03*
X145900000Y-73500000D03*
X140900000Y-73500000D03*
X155900000Y-68500000D03*
X150900000Y-68500000D03*
X145900000Y-68500000D03*
X140900000Y-68500000D03*
%TD*%
D33*
%TO.C,R3*%
X135050000Y-111275000D03*
X135050000Y-109625000D03*
%TD*%
D21*
%TO.C,C16*%
X124910000Y-86845000D03*
X124910000Y-85295000D03*
%TD*%
D40*
%TO.C,D4*%
X133550000Y-114237500D03*
X133550000Y-112662500D03*
%TD*%
%LPD*%
M02*
