%TF.GenerationSoftware,KiCad,Pcbnew,9.0.7+1*%
%TF.CreationDate,Date%
%TF.ProjectId,Cellule_de_force_V2,43656c6c-756c-4655-9f64-655f666f7263,+ (Unreleased)*%
%TF.SameCoordinates,Original*%
%TF.FileFunction,Soldermask,Top*%
%TF.FilePolarity,Negative*%
%FSLAX46Y46*%
G04 Gerber Fmt 4.6, Leading zero omitted, Abs format (unit mm)*
G04 Created by KiCad*
%MOMM*%
%LPD*%
G01*
G04 APERTURE LIST*
G04 Aperture macros list*
%AMRoundRect*
0 Rectangle with rounded corners*
0 $1 Rounding radius*
0 $2 $3 $4 $5 $6 $7 $8 $9 X,Y pos of 4 corners*
0 Add a 4 corners polygon primitive as box body*
4,1,4,$2,$3,$4,$5,$6,$7,$8,$9,$2,$3,0*
0 Add four circle primitives for the rounded corners*
1,1,$1+$1,$2,$3*
1,1,$1+$1,$4,$5*
1,1,$1+$1,$6,$7*
1,1,$1+$1,$8,$9*
0 Add four rect primitives between the rounded corners*
20,1,$1+$1,$2,$3,$4,$5,0*
20,1,$1+$1,$4,$5,$6,$7,0*
20,1,$1+$1,$6,$7,$8,$9,0*
20,1,$1+$1,$8,$9,$2,$3,0*%
G04 Aperture macros list end*
%ADD10C,0.010000*%
%ADD11RoundRect,0.225000X-0.300000X0.225000X-0.300000X-0.225000X0.300000X-0.225000X0.300000X0.225000X0*%
%ADD12RoundRect,0.250000X0.275000X-0.250000X0.275000X0.250000X-0.275000X0.250000X-0.275000X-0.250000X0*%
%ADD13C,1.600000*%
%ADD14RoundRect,0.050000X-0.925000X-0.950000X0.925000X-0.950000X0.925000X0.950000X-0.925000X0.950000X0*%
%ADD15RoundRect,0.050000X-0.120000X-0.300000X0.120000X-0.300000X0.120000X0.300000X-0.120000X0.300000X0*%
%ADD16RoundRect,0.050000X-1.200000X0.825000X-1.200000X-0.825000X1.200000X-0.825000X1.200000X0.825000X0*%
%ADD17RoundRect,0.050000X-0.250000X0.125000X-0.250000X-0.125000X0.250000X-0.125000X0.250000X0.125000X0*%
%ADD18RoundRect,0.250000X-0.275000X0.250000X-0.275000X-0.250000X0.275000X-0.250000X0.275000X0.250000X0*%
%ADD19C,0.900000*%
%ADD20C,6.500000*%
%ADD21RoundRect,0.250000X-0.250000X-0.275000X0.250000X-0.275000X0.250000X0.275000X-0.250000X0.275000X0*%
%ADD22RoundRect,0.175000X0.175000X-0.537500X0.175000X0.537500X-0.175000X0.537500X-0.175000X-0.537500X0*%
%ADD23RoundRect,0.102000X0.725000X0.225000X-0.725000X0.225000X-0.725000X-0.225000X0.725000X-0.225000X0*%
%ADD24RoundRect,0.225000X0.225000X0.300000X-0.225000X0.300000X-0.225000X-0.300000X0.225000X-0.300000X0*%
%ADD25RoundRect,0.225000X0.300000X-0.225000X0.300000X0.225000X-0.300000X0.225000X-0.300000X-0.225000X0*%
%ADD26C,1.300000*%
%ADD27RoundRect,0.264706X-0.635294X-0.760294X0.635294X-0.760294X0.635294X0.760294X-0.635294X0.760294X0*%
%ADD28O,1.800000X2.050000*%
%ADD29RoundRect,0.250000X0.250000X0.275000X-0.250000X0.275000X-0.250000X-0.275000X0.250000X-0.275000X0*%
%ADD30RoundRect,0.225000X-0.225000X-0.300000X0.225000X-0.300000X0.225000X0.300000X-0.225000X0.300000X0*%
%ADD31RoundRect,0.243750X0.281250X-0.243750X0.281250X0.243750X-0.281250X0.243750X-0.281250X-0.243750X0*%
%ADD32RoundRect,0.272727X-0.327273X0.327273X-0.327273X-0.327273X0.327273X-0.327273X0.327273X0.327273X0*%
%ADD33RoundRect,0.050000X-0.200000X0.450000X-0.200000X-0.450000X0.200000X-0.450000X0.200000X0.450000X0*%
%ADD34C,1.704000*%
%ADD35RoundRect,0.050000X-0.850000X0.650000X-0.850000X-0.650000X0.850000X-0.650000X0.850000X0.650000X0*%
%ADD36R,1.890000X1.830000*%
%ADD37RoundRect,0.100000X0.100000X-0.675000X0.100000X0.675000X-0.100000X0.675000X-0.100000X-0.675000X0*%
%ADD38C,2.004000*%
G04 APERTURE END LIST*
D10*
%TO.C,Y2*%
X155500000Y-93300000D02*
X156900000Y-93300000D01*
X156900000Y-93100000D01*
X157600000Y-93100000D01*
X157600000Y-94100000D01*
X156900000Y-94100000D01*
X156900000Y-93900000D01*
X155500000Y-93900000D01*
X155500000Y-94100000D01*
X154800000Y-94100000D01*
X154800000Y-93100000D01*
X155500000Y-93100000D01*
X155500000Y-93300000D01*
G36*
X155500000Y-93300000D02*
G01*
X156900000Y-93300000D01*
X156900000Y-93100000D01*
X157600000Y-93100000D01*
X157600000Y-94100000D01*
X156900000Y-94100000D01*
X156900000Y-93900000D01*
X155500000Y-93900000D01*
X155500000Y-94100000D01*
X154800000Y-94100000D01*
X154800000Y-93100000D01*
X155500000Y-93100000D01*
X155500000Y-93300000D01*
G37*
X155500000Y-94800000D02*
X156900000Y-94800000D01*
X156900000Y-94600000D01*
X157600000Y-94600000D01*
X157600000Y-95600000D01*
X156900000Y-95600000D01*
X156900000Y-95400000D01*
X155500000Y-95400000D01*
X155500000Y-95600000D01*
X154800000Y-95600000D01*
X154800000Y-94600000D01*
X155500000Y-94600000D01*
X155500000Y-94800000D01*
G36*
X155500000Y-94800000D02*
G01*
X156900000Y-94800000D01*
X156900000Y-94600000D01*
X157600000Y-94600000D01*
X157600000Y-95600000D01*
X156900000Y-95600000D01*
X156900000Y-95400000D01*
X155500000Y-95400000D01*
X155500000Y-95600000D01*
X154800000Y-95600000D01*
X154800000Y-94600000D01*
X155500000Y-94600000D01*
X155500000Y-94800000D01*
G37*
X155500000Y-96300000D02*
X156900000Y-96300000D01*
X156900000Y-96100000D01*
X157600000Y-96100000D01*
X157600000Y-97100000D01*
X156900000Y-97100000D01*
X156900000Y-96900000D01*
X155500000Y-96900000D01*
X155500000Y-97100000D01*
X154800000Y-97100000D01*
X154800000Y-96100000D01*
X155500000Y-96100000D01*
X155500000Y-96300000D01*
G36*
X155500000Y-96300000D02*
G01*
X156900000Y-96300000D01*
X156900000Y-96100000D01*
X157600000Y-96100000D01*
X157600000Y-97100000D01*
X156900000Y-97100000D01*
X156900000Y-96900000D01*
X155500000Y-96900000D01*
X155500000Y-97100000D01*
X154800000Y-97100000D01*
X154800000Y-96100000D01*
X155500000Y-96100000D01*
X155500000Y-96300000D01*
G37*
%TD*%
D11*
%TO.C,R2*%
X142300000Y-81575000D03*
X142300000Y-83225000D03*
%TD*%
D12*
%TO.C,C22*%
X131050000Y-100925000D03*
X131050000Y-99375000D03*
%TD*%
D13*
%TO.C,TP12*%
X128100000Y-77920000D03*
%TD*%
%TO.C,TP4*%
X138270000Y-105000000D03*
%TD*%
D11*
%TO.C,R11*%
X132050000Y-109625000D03*
X132050000Y-111275000D03*
%TD*%
D14*
%TO.C,L1*%
X128325000Y-103150000D03*
X123975000Y-103150000D03*
%TD*%
D11*
%TO.C,R1*%
X144010000Y-81575000D03*
X144010000Y-83225000D03*
%TD*%
D15*
%TO.C,IC2*%
X128550000Y-95100000D03*
X128050000Y-95100000D03*
X127550000Y-95100000D03*
X127050000Y-95100000D03*
X126550000Y-95100000D03*
X126550000Y-97900000D03*
X127050000Y-97900000D03*
X127550000Y-97900000D03*
X128050000Y-97900000D03*
X128550000Y-97900000D03*
D16*
X127550000Y-96500000D03*
D17*
X126100000Y-96250000D03*
X126100000Y-96750000D03*
X129000000Y-96750000D03*
X129000000Y-96250000D03*
%TD*%
D18*
%TO.C,C24*%
X153862500Y-92900000D03*
X153862500Y-94450000D03*
%TD*%
D19*
%TO.C,H3*%
X121100000Y-111500000D03*
X121802944Y-109802944D03*
X121802944Y-113197056D03*
X123500000Y-109100000D03*
D20*
X123500000Y-111500000D03*
D19*
X123500000Y-113900000D03*
X125197056Y-109802944D03*
X125197056Y-113197056D03*
X125900000Y-111500000D03*
%TD*%
D12*
%TO.C,C25*%
X153862500Y-97450000D03*
X153862500Y-95900000D03*
%TD*%
D21*
%TO.C,C9*%
X154235000Y-83770000D03*
X155785000Y-83770000D03*
%TD*%
D13*
%TO.C,TP17*%
X129870000Y-88600000D03*
%TD*%
D22*
%TO.C,Q1*%
X152832500Y-89530000D03*
X154732500Y-89530000D03*
X153782500Y-87255000D03*
%TD*%
D21*
%TO.C,C5*%
X152635000Y-85170000D03*
X154185000Y-85170000D03*
%TD*%
D23*
%TO.C,U1*%
X151400000Y-95075000D03*
X151400000Y-94425000D03*
X151400000Y-93775000D03*
X151400000Y-93125000D03*
X151400000Y-92475000D03*
X151400000Y-91825000D03*
X151400000Y-91175000D03*
X151400000Y-90525000D03*
X151400000Y-89875000D03*
X151400000Y-89225000D03*
X151400000Y-88575000D03*
X151400000Y-87925000D03*
X145600000Y-87925000D03*
X145600000Y-88575000D03*
X145600000Y-89225000D03*
X145600000Y-89875000D03*
X145600000Y-90525000D03*
X145600000Y-91175000D03*
X145600000Y-91825000D03*
X145600000Y-92475000D03*
X145600000Y-93125000D03*
X145600000Y-93775000D03*
X145600000Y-94425000D03*
X145600000Y-95075000D03*
%TD*%
D24*
%TO.C,R17*%
X128050000Y-91530000D03*
X126400000Y-91530000D03*
%TD*%
D19*
%TO.C,H2*%
X121100000Y-67750000D03*
X121802944Y-66052944D03*
X121802944Y-69447056D03*
X123500000Y-65350000D03*
D20*
X123500000Y-67750000D03*
D19*
X123500000Y-70150000D03*
X125197056Y-66052944D03*
X125197056Y-69447056D03*
X125900000Y-67750000D03*
%TD*%
D25*
%TO.C,R13*%
X130060000Y-83595000D03*
X130060000Y-81945000D03*
%TD*%
D26*
%TO.C,J1*%
X139500000Y-113375000D03*
D27*
X141100000Y-111375000D03*
D28*
X143600000Y-111375000D03*
X146100000Y-111375000D03*
X148600000Y-111375000D03*
X151100000Y-111375000D03*
X153600000Y-111375000D03*
X156100000Y-111375000D03*
%TD*%
D29*
%TO.C,C20*%
X124075000Y-94000000D03*
X122525000Y-94000000D03*
%TD*%
D25*
%TO.C,R16*%
X133550000Y-111275000D03*
X133550000Y-109625000D03*
%TD*%
D18*
%TO.C,C4*%
X141650000Y-90725000D03*
X141650000Y-92275000D03*
%TD*%
D13*
%TO.C,TP5*%
X122860000Y-78040000D03*
%TD*%
D19*
%TO.C,H4*%
X171100000Y-111500000D03*
X171802944Y-109802944D03*
X171802944Y-113197056D03*
X173500000Y-109100000D03*
D20*
X173500000Y-111500000D03*
D19*
X173500000Y-113900000D03*
X175197056Y-109802944D03*
X175197056Y-113197056D03*
X175900000Y-111500000D03*
%TD*%
D30*
%TO.C,R14*%
X126265000Y-88750000D03*
X127915000Y-88750000D03*
%TD*%
D18*
%TO.C,C15*%
X123360000Y-82245000D03*
X123360000Y-83795000D03*
%TD*%
D24*
%TO.C,R9*%
X131285000Y-80520000D03*
X129635000Y-80520000D03*
%TD*%
D21*
%TO.C,C26*%
X156247500Y-91210000D03*
X157797500Y-91210000D03*
%TD*%
D19*
%TO.C,H1*%
X171100000Y-68000000D03*
X171802944Y-66302944D03*
X171802944Y-69697056D03*
X173500000Y-65600000D03*
D20*
X173500000Y-68000000D03*
D19*
X173500000Y-70400000D03*
X175197056Y-66302944D03*
X175197056Y-69697056D03*
X175900000Y-68000000D03*
%TD*%
D31*
%TO.C,D1*%
X135050000Y-114237500D03*
X135050000Y-112662500D03*
%TD*%
D30*
%TO.C,R15*%
X126400000Y-93000000D03*
X128050000Y-93000000D03*
%TD*%
D29*
%TO.C,C6*%
X143930000Y-86160000D03*
X142380000Y-86160000D03*
%TD*%
D12*
%TO.C,C21*%
X132560000Y-100925000D03*
X132560000Y-99375000D03*
%TD*%
D25*
%TO.C,R6*%
X145900000Y-106425000D03*
X145900000Y-104775000D03*
%TD*%
D21*
%TO.C,C23*%
X156247500Y-86700000D03*
X157797500Y-86700000D03*
%TD*%
D13*
%TO.C,TP13*%
X133580000Y-81930000D03*
%TD*%
D21*
%TO.C,C11*%
X156247500Y-88210000D03*
X157797500Y-88210000D03*
%TD*%
D12*
%TO.C,C17*%
X129550000Y-93025000D03*
X129550000Y-91475000D03*
%TD*%
D30*
%TO.C,R8*%
X142825000Y-104800000D03*
X144475000Y-104800000D03*
%TD*%
D11*
%TO.C,R12*%
X131560000Y-81945000D03*
X131560000Y-83595000D03*
%TD*%
D18*
%TO.C,C1*%
X141650000Y-93725000D03*
X141650000Y-95275000D03*
%TD*%
D32*
%TO.C,D3*%
X123650000Y-95550000D03*
X123650000Y-98350000D03*
%TD*%
D21*
%TO.C,C18*%
X131025000Y-97900000D03*
X132575000Y-97900000D03*
%TD*%
D33*
%TO.C,RN1*%
X149700000Y-104775000D03*
X148900000Y-104775000D03*
X148100000Y-104775000D03*
X147300000Y-104775000D03*
X147300000Y-106475000D03*
X148100000Y-106475000D03*
X148900000Y-106475000D03*
X149700000Y-106475000D03*
%TD*%
D21*
%TO.C,C7*%
X151035000Y-83770000D03*
X152585000Y-83770000D03*
%TD*%
D29*
%TO.C,C10*%
X145530000Y-84660000D03*
X143980000Y-84660000D03*
%TD*%
D34*
%TO.C,H5*%
X158750000Y-82380000D03*
X158750000Y-87460000D03*
X158750000Y-92540000D03*
X158750000Y-97620000D03*
X156120000Y-100250000D03*
X151040000Y-100250000D03*
X145960000Y-100250000D03*
X140880000Y-100250000D03*
X138250000Y-97620000D03*
X138250000Y-92540000D03*
X138250000Y-87460000D03*
X138250000Y-82380000D03*
X140880000Y-79750000D03*
X145960000Y-79750000D03*
X151040000Y-79750000D03*
X156120000Y-79750000D03*
%TD*%
D18*
%TO.C,C13*%
X124910000Y-82245000D03*
X124910000Y-83795000D03*
%TD*%
D31*
%TO.C,D2*%
X132050000Y-114237500D03*
X132050000Y-112662500D03*
%TD*%
D35*
%TO.C,C14*%
X127810000Y-80270000D03*
X125110000Y-80270000D03*
%TD*%
D36*
%TO.C,U2*%
X127510000Y-84520000D03*
D37*
X126510000Y-86670000D03*
X127010000Y-86670000D03*
X127510000Y-86670000D03*
X128010000Y-86670000D03*
X128510000Y-86670000D03*
X128510000Y-82370000D03*
X128010000Y-82370000D03*
X127510000Y-82370000D03*
X127010000Y-82370000D03*
X126510000Y-82370000D03*
%TD*%
D13*
%TO.C,TP11*%
X123490000Y-89040000D03*
%TD*%
D29*
%TO.C,C8*%
X142330000Y-84660000D03*
X140780000Y-84660000D03*
%TD*%
D18*
%TO.C,C2*%
X143150000Y-93725000D03*
X143150000Y-95275000D03*
%TD*%
D11*
%TO.C,R18*%
X131050000Y-93075000D03*
X131050000Y-94725000D03*
%TD*%
D18*
%TO.C,C3*%
X143150000Y-90725000D03*
X143150000Y-92275000D03*
%TD*%
D24*
%TO.C,R10*%
X154607500Y-91210000D03*
X152957500Y-91210000D03*
%TD*%
D21*
%TO.C,C12*%
X156247500Y-89710000D03*
X157797500Y-89710000D03*
%TD*%
D29*
%TO.C,C19*%
X124075000Y-92490000D03*
X122525000Y-92490000D03*
%TD*%
D38*
%TO.C,J3*%
X155900000Y-73500000D03*
X150900000Y-73500000D03*
X145900000Y-73500000D03*
X140900000Y-73500000D03*
X155900000Y-68500000D03*
X150900000Y-68500000D03*
X145900000Y-68500000D03*
X140900000Y-68500000D03*
%TD*%
D25*
%TO.C,R3*%
X135050000Y-111275000D03*
X135050000Y-109625000D03*
%TD*%
D12*
%TO.C,C16*%
X124910000Y-86845000D03*
X124910000Y-85295000D03*
%TD*%
D31*
%TO.C,D4*%
X133550000Y-114237500D03*
X133550000Y-112662500D03*
%TD*%
M02*
