M48
; DRILL file {KiCad 9.0.7+1} date 2026-03-16T18:10:52+0000
; FORMAT={-:-/ absolute / metric / decimal}
; #@! TF.CreationDate,2026-03-16T18:10:52+00:00
; #@! TF.GenerationSoftware,Kicad,Pcbnew,9.0.7+1
; #@! TF.FileFunction,Plated,1,4,PTH
FMAT,2
METRIC
; #@! TA.AperFunction,Plated,PTH,ComponentDrill
T1C0.200
; #@! TA.AperFunction,Plated,PTH,ViaDrill
T2C0.250
; #@! TA.AperFunction,Plated,PTH,ComponentDrill
T3C0.500
; #@! TA.AperFunction,Plated,PTH,ComponentDrill
T4C0.950
; #@! TA.AperFunction,Plated,PTH,ComponentDrill
T5C1.100
; #@! TA.AperFunction,Plated,PTH,ComponentDrill
T6C1.200
; #@! TA.AperFunction,Plated,PTH,ComponentDrill
T7C3.200
%
G90
G05
T1
X126.21Y-83.87
X126.21Y-85.17
X127.51Y-83.87
X127.51Y-85.17
X128.81Y-83.87
X128.81Y-85.17
T2
X125.0Y-75.0
X126.05Y-106.82
X126.13Y-100.28
X127.2Y-94.15
X127.775Y-98.925
X128.65Y-90.85
X129.53Y-97.9
X130.0Y-70.0
X130.0Y-75.0
X130.0Y-85.0
X130.0Y-90.0
X130.0Y-110.0
X131.05Y-94.725
X132.05Y-108.9
X135.0Y-70.0
X135.0Y-75.0
X135.0Y-80.0
X135.0Y-85.0
X135.0Y-90.0
X135.0Y-95.0
X135.0Y-100.0
X140.0Y-70.0
X140.0Y-75.0
X140.075Y-84.66
X141.63Y-95.92
X141.65Y-90.02
X143.15Y-90.02
X143.16Y-95.93
X145.0Y-70.0
X145.9Y-104.1
X146.235Y-84.66
X147.0Y-91.825
X147.035Y-91.175
X149.15Y-102.3
X149.576Y-103.251
X150.0Y-70.0
X150.0Y-75.0
X150.1Y-89.875
X150.33Y-83.77
X152.7Y-96.45
X154.525Y-91.825
X154.525Y-95.15
X155.0Y-70.0
X155.0Y-105.0
X156.49Y-83.77
X160.0Y-70.0
X160.0Y-75.0
X160.0Y-100.0
X160.0Y-105.0
X160.0Y-110.0
X165.0Y-70.0
X165.0Y-90.0
X165.0Y-95.0
X165.0Y-100.0
X165.0Y-105.0
X165.0Y-110.0
X170.0Y-70.0
X170.0Y-90.0
X170.0Y-95.0
X170.0Y-100.0
X170.0Y-105.0
X175.0Y-90.0
X175.0Y-95.0
X175.0Y-100.0
X175.0Y-105.0
T3
X121.1Y-67.75
X121.1Y-111.5
X121.803Y-66.053
X121.803Y-69.447
X121.803Y-109.803
X121.803Y-113.197
X123.5Y-65.35
X123.5Y-70.15
X123.5Y-109.1
X123.5Y-113.9
X125.197Y-66.053
X125.197Y-69.447
X125.197Y-109.803
X125.197Y-113.197
X125.9Y-67.75
X125.9Y-111.5
X171.1Y-68.0
X171.1Y-111.5
X171.803Y-66.303
X171.803Y-69.697
X171.803Y-109.803
X171.803Y-113.197
X173.5Y-65.6
X173.5Y-70.4
X173.5Y-109.1
X173.5Y-113.9
X175.197Y-66.303
X175.197Y-69.697
X175.197Y-109.803
X175.197Y-113.197
X175.9Y-68.0
X175.9Y-111.5
T4
X141.1Y-111.375
X143.6Y-111.375
X146.1Y-111.375
X148.6Y-111.375
X151.1Y-111.375
X153.6Y-111.375
X156.1Y-111.375
T5
X138.25Y-82.38
X138.25Y-87.46
X138.25Y-92.54
X138.25Y-97.62
X140.88Y-79.75
X140.88Y-100.25
X145.96Y-79.75
X145.96Y-100.25
X151.04Y-79.75
X151.04Y-100.25
X156.12Y-79.75
X156.12Y-100.25
X158.75Y-82.38
X158.75Y-87.46
X158.75Y-92.54
X158.75Y-97.62
T6
X140.9Y-68.5
X140.9Y-73.5
X145.9Y-68.5
X145.9Y-73.5
X150.9Y-68.5
X150.9Y-73.5
X155.9Y-68.5
X155.9Y-73.5
T7
X123.5Y-67.75
X123.5Y-111.5
X173.5Y-68.0
X173.5Y-111.5
M30
