%TF.GenerationSoftware,KiCad,Pcbnew,9.0.7+1*%
%TF.CreationDate,Date%
%TF.ProjectId,Cellule_de_force_V2,43656c6c-756c-4655-9f64-655f666f7263,+ (Unreleased)*%
%TF.SameCoordinates,Original*%
%TF.FileFunction,Copper,L3,Inr*%
%TF.FilePolarity,Positive*%
%FSLAX46Y46*%
G04 Gerber Fmt 4.6, Leading zero omitted, Abs format (unit mm)*
G04 Created by KiCad*
%MOMM*%
%LPD*%
G01*
G04 APERTURE LIST*
G04 Aperture macros list*
%AMRoundRect*
0 Rectangle with rounded corners*
0 $1 Rounding radius*
0 $2 $3 $4 $5 $6 $7 $8 $9 X,Y pos of 4 corners*
0 Add a 4 corners polygon primitive as box body*
4,1,4,$2,$3,$4,$5,$6,$7,$8,$9,$2,$3,0*
0 Add four circle primitives for the rounded corners*
1,1,$1+$1,$2,$3*
1,1,$1+$1,$4,$5*
1,1,$1+$1,$6,$7*
1,1,$1+$1,$8,$9*
0 Add four rect primitives between the rounded corners*
20,1,$1+$1,$2,$3,$4,$5,0*
20,1,$1+$1,$4,$5,$6,$7,0*
20,1,$1+$1,$6,$7,$8,$9,0*
20,1,$1+$1,$8,$9,$2,$3,0*%
G04 Aperture macros list end*
%TA.AperFunction,ComponentPad*%
%ADD10C,0.800000*%
%TD*%
%TA.AperFunction,ComponentPad*%
%ADD11C,6.400000*%
%TD*%
%TA.AperFunction,ComponentPad*%
%ADD12RoundRect,0.250000X-0.600000X-0.725000X0.600000X-0.725000X0.600000X0.725000X-0.600000X0.725000X0*%
%TD*%
%TA.AperFunction,ComponentPad*%
%ADD13O,1.700000X1.950000*%
%TD*%
%TA.AperFunction,ComponentPad*%
%ADD14C,1.500000*%
%TD*%
%TA.AperFunction,HeatsinkPad*%
%ADD15C,0.500000*%
%TD*%
%TA.AperFunction,ComponentPad*%
%ADD16C,1.800000*%
%TD*%
%TA.AperFunction,ViaPad*%
%ADD17C,0.550000*%
%TD*%
%TA.AperFunction,Conductor*%
%ADD18C,0.200000*%
%TD*%
G04 APERTURE END LIST*
D10*
%TO.N,GND*%
%TO.C,H3*%
X121100000Y-111500000D03*
X121802944Y-109802944D03*
X121802944Y-113197056D03*
X123500000Y-109100000D03*
D11*
X123500000Y-111500000D03*
D10*
X123500000Y-113900000D03*
X125197056Y-109802944D03*
X125197056Y-113197056D03*
X125900000Y-111500000D03*
%TD*%
%TO.N,GND*%
%TO.C,H2*%
X121100000Y-67750000D03*
X121802944Y-66052944D03*
X121802944Y-69447056D03*
X123500000Y-65350000D03*
D11*
X123500000Y-67750000D03*
D10*
X123500000Y-70150000D03*
X125197056Y-66052944D03*
X125197056Y-69447056D03*
X125900000Y-67750000D03*
%TD*%
D12*
%TO.N,GND*%
%TO.C,J1*%
X141100000Y-111375000D03*
D13*
%TO.N,DOUT*%
X143600000Y-111375000D03*
%TO.N,SCLK*%
X146100000Y-111375000D03*
%TO.N,DIN*%
X148600000Y-111375000D03*
%TO.N,SYNC*%
X151100000Y-111375000D03*
%TO.N,CS*%
X153600000Y-111375000D03*
%TO.N,+3.3V*%
X156100000Y-111375000D03*
%TD*%
D10*
%TO.N,GND*%
%TO.C,H4*%
X171100000Y-111500000D03*
X171802944Y-109802944D03*
X171802944Y-113197056D03*
X173500000Y-109100000D03*
D11*
X173500000Y-111500000D03*
D10*
X173500000Y-113900000D03*
X175197056Y-109802944D03*
X175197056Y-113197056D03*
X175900000Y-111500000D03*
%TD*%
%TO.N,GND*%
%TO.C,H1*%
X171100000Y-68000000D03*
X171802944Y-66302944D03*
X171802944Y-69697056D03*
X173500000Y-65600000D03*
D11*
X173500000Y-68000000D03*
D10*
X173500000Y-70400000D03*
X175197056Y-66302944D03*
X175197056Y-69697056D03*
X175900000Y-68000000D03*
%TD*%
D14*
%TO.N,GND*%
%TO.C,H5*%
X158750000Y-82380000D03*
X158750000Y-87460000D03*
X158750000Y-92540000D03*
X158750000Y-97620000D03*
X156120000Y-100250000D03*
X151040000Y-100250000D03*
X145960000Y-100250000D03*
X140880000Y-100250000D03*
X138250000Y-97620000D03*
X138250000Y-92540000D03*
X138250000Y-87460000D03*
X138250000Y-82380000D03*
X140880000Y-79750000D03*
X145960000Y-79750000D03*
X151040000Y-79750000D03*
X156120000Y-79750000D03*
%TD*%
D15*
%TO.N,GND*%
%TO.C,U2*%
X168500000Y-90100000D03*
X169800000Y-90100000D03*
X171100000Y-90100000D03*
X168500000Y-88800000D03*
X169800000Y-88800000D03*
X171100000Y-88800000D03*
%TD*%
D16*
%TO.N,SENSE-*%
%TO.C,J3*%
X155900000Y-73500000D03*
%TO.N,SENSE+*%
X150900000Y-73500000D03*
%TO.N,IN-OUT+*%
X145900000Y-73500000D03*
%TO.N,IN-OUT-*%
X140900000Y-73500000D03*
%TO.N,IN-SENSE-*%
X155900000Y-68500000D03*
%TO.N,IN-SENSE+*%
X150900000Y-68500000D03*
%TO.N,IN-OUT+*%
X145900000Y-68500000D03*
%TO.N,IN-OUT-*%
X140900000Y-68500000D03*
%TD*%
D17*
%TO.N,GND*%
X143150000Y-90020000D03*
X156490000Y-83770000D03*
X150330000Y-83770000D03*
X141650000Y-90020000D03*
X147000000Y-91825000D03*
X140075000Y-84660000D03*
X154525000Y-95150000D03*
X146235000Y-84660000D03*
X141650000Y-95980000D03*
X143150000Y-95980000D03*
X150100000Y-89875000D03*
X147035000Y-91175000D03*
%TO.N,Net-(U1-~{CS})*%
X151250000Y-103725000D03*
X149575735Y-103250735D03*
%TO.N,Net-(U1-P2)*%
X149150000Y-102300000D03*
X165300000Y-108700000D03*
%TO.N,Net-(IC2-SS)*%
X175260000Y-105120000D03*
X169370000Y-101760000D03*
%TO.N,SENSE+*%
X151500000Y-85550000D03*
X157400000Y-85550000D03*
X150300000Y-85550000D03*
X157400000Y-84950000D03*
X158000000Y-85550000D03*
X150900000Y-84950000D03*
X156200000Y-85550000D03*
X149700000Y-84950000D03*
X156800000Y-85550000D03*
X149700000Y-85550000D03*
X151500000Y-84950000D03*
X158000000Y-84950000D03*
X156200000Y-84950000D03*
X156800000Y-84950000D03*
X150300000Y-84950000D03*
X150900000Y-85550000D03*
%TO.N,+3.3V*%
X139600000Y-93750000D03*
X140650000Y-93725000D03*
X173050000Y-99990000D03*
%TO.N,+5VA*%
X164400000Y-85350000D03*
X165150000Y-84600000D03*
X163750000Y-108700000D03*
X165900000Y-85350000D03*
X139625000Y-92275000D03*
X156825000Y-92250000D03*
X164400000Y-86100000D03*
X165900000Y-86100000D03*
X156250000Y-92250000D03*
X140650000Y-92275000D03*
X165900000Y-84600000D03*
X157400000Y-92250000D03*
X174900000Y-88550000D03*
X165150000Y-85350000D03*
X165150000Y-86100000D03*
X164400000Y-84600000D03*
%TO.N,+6V*%
X168190000Y-96640000D03*
X175700000Y-98300000D03*
%TD*%
D18*
%TO.N,+3.3V*%
X139625000Y-93725000D02*
X139600000Y-93750000D01*
%TD*%
%TA.AperFunction,Conductor*%
%TO.N,SENSE+*%
G36*
X158243039Y-84669685D02*
G01*
X158288794Y-84722489D01*
X158300000Y-84774000D01*
X158300000Y-85726000D01*
X158280315Y-85793039D01*
X158227511Y-85838794D01*
X158176000Y-85850000D01*
X149524000Y-85850000D01*
X149456961Y-85830315D01*
X149411206Y-85777511D01*
X149400000Y-85726000D01*
X149400000Y-84774000D01*
X149419685Y-84706961D01*
X149472489Y-84661206D01*
X149524000Y-84650000D01*
X158176000Y-84650000D01*
X158243039Y-84669685D01*
G37*
%TD.AperFunction*%
%TD*%
%TA.AperFunction,Conductor*%
%TO.N,+5VA*%
G36*
X148436512Y-64650122D02*
G01*
X148437767Y-64650253D01*
X148449168Y-64650298D01*
X148449170Y-64650299D01*
X148499130Y-64650498D01*
X148548324Y-64650794D01*
X148548563Y-64650696D01*
X171883277Y-64744034D01*
X171950235Y-64763987D01*
X171995779Y-64816973D01*
X172005445Y-64886171D01*
X171976166Y-64949610D01*
X171941233Y-64977391D01*
X171749688Y-65079774D01*
X171749678Y-65079780D01*
X171471890Y-65265393D01*
X171471876Y-65265403D01*
X171213604Y-65477361D01*
X170977361Y-65713604D01*
X170765403Y-65971876D01*
X170765393Y-65971890D01*
X170579780Y-66249678D01*
X170579769Y-66249696D01*
X170422280Y-66544338D01*
X170422278Y-66544343D01*
X170294418Y-66853022D01*
X170197428Y-67172758D01*
X170197425Y-67172769D01*
X170132250Y-67500434D01*
X170132247Y-67500451D01*
X170112577Y-67700172D01*
X170101194Y-67815750D01*
X170099500Y-67832947D01*
X170099500Y-68167052D01*
X170132247Y-68499548D01*
X170132250Y-68499565D01*
X170197425Y-68827230D01*
X170197428Y-68827241D01*
X170294418Y-69146977D01*
X170422278Y-69455656D01*
X170422280Y-69455661D01*
X170579769Y-69750303D01*
X170579780Y-69750321D01*
X170765393Y-70028109D01*
X170765403Y-70028123D01*
X170977361Y-70286395D01*
X171213604Y-70522638D01*
X171213609Y-70522642D01*
X171213610Y-70522643D01*
X171471882Y-70734601D01*
X171749685Y-70920224D01*
X171749694Y-70920229D01*
X171749696Y-70920230D01*
X172044338Y-71077719D01*
X172044340Y-71077719D01*
X172044346Y-71077723D01*
X172353024Y-71205582D01*
X172672749Y-71302569D01*
X172672755Y-71302570D01*
X172672758Y-71302571D01*
X172672769Y-71302574D01*
X172878243Y-71343444D01*
X173000441Y-71367751D01*
X173332944Y-71400500D01*
X173332947Y-71400500D01*
X173667053Y-71400500D01*
X173667056Y-71400500D01*
X173999559Y-71367751D01*
X174161757Y-71335487D01*
X174327230Y-71302574D01*
X174327241Y-71302571D01*
X174327241Y-71302570D01*
X174327251Y-71302569D01*
X174646976Y-71205582D01*
X174955654Y-71077723D01*
X175250315Y-70920224D01*
X175528118Y-70734601D01*
X175786390Y-70522643D01*
X176022643Y-70286390D01*
X176234601Y-70028118D01*
X176420224Y-69750315D01*
X176516142Y-69570863D01*
X176565104Y-69521020D01*
X176633241Y-69505559D01*
X176698921Y-69529390D01*
X176741290Y-69584948D01*
X176749500Y-69629317D01*
X176749500Y-109870682D01*
X176729815Y-109937721D01*
X176677011Y-109983476D01*
X176607853Y-109993420D01*
X176544297Y-109964395D01*
X176516142Y-109929135D01*
X176420230Y-109749696D01*
X176420229Y-109749694D01*
X176420224Y-109749685D01*
X176234601Y-109471882D01*
X176022643Y-109213610D01*
X176022642Y-109213609D01*
X176022638Y-109213604D01*
X175786395Y-108977361D01*
X175528123Y-108765403D01*
X175528122Y-108765402D01*
X175528118Y-108765399D01*
X175250315Y-108579776D01*
X175250310Y-108579773D01*
X175250303Y-108579769D01*
X174955661Y-108422280D01*
X174955656Y-108422278D01*
X174921275Y-108408037D01*
X174707544Y-108319506D01*
X174646977Y-108294418D01*
X174327241Y-108197428D01*
X174327230Y-108197425D01*
X173999565Y-108132250D01*
X173999548Y-108132247D01*
X173748108Y-108107483D01*
X173667056Y-108099500D01*
X173332944Y-108099500D01*
X173257982Y-108106883D01*
X173000451Y-108132247D01*
X173000434Y-108132250D01*
X172672769Y-108197425D01*
X172672758Y-108197428D01*
X172353022Y-108294418D01*
X172044343Y-108422278D01*
X172044338Y-108422280D01*
X171749696Y-108579769D01*
X171749678Y-108579780D01*
X171471890Y-108765393D01*
X171471876Y-108765403D01*
X171213604Y-108977361D01*
X170977361Y-109213604D01*
X170765403Y-109471876D01*
X170765393Y-109471890D01*
X170579780Y-109749678D01*
X170579769Y-109749696D01*
X170422280Y-110044338D01*
X170422278Y-110044343D01*
X170294418Y-110353022D01*
X170197428Y-110672758D01*
X170197425Y-110672769D01*
X170132250Y-111000434D01*
X170132247Y-111000451D01*
X170106883Y-111257982D01*
X170099500Y-111332944D01*
X170099500Y-111667056D01*
X170109344Y-111767004D01*
X170132247Y-111999548D01*
X170132250Y-111999565D01*
X170197425Y-112327230D01*
X170197428Y-112327241D01*
X170294418Y-112646977D01*
X170422278Y-112955656D01*
X170422280Y-112955661D01*
X170579769Y-113250303D01*
X170579780Y-113250321D01*
X170765393Y-113528109D01*
X170765403Y-113528123D01*
X170977361Y-113786395D01*
X171213604Y-114022638D01*
X171213609Y-114022642D01*
X171213610Y-114022643D01*
X171471882Y-114234601D01*
X171749685Y-114420224D01*
X171749694Y-114420229D01*
X171749696Y-114420230D01*
X171929135Y-114516142D01*
X171978979Y-114565104D01*
X171994440Y-114633242D01*
X171970608Y-114698921D01*
X171915051Y-114741290D01*
X171870682Y-114749500D01*
X125129318Y-114749500D01*
X125062279Y-114729815D01*
X125016524Y-114677011D01*
X125006580Y-114607853D01*
X125035605Y-114544297D01*
X125070865Y-114516142D01*
X125150900Y-114473361D01*
X125250315Y-114420224D01*
X125528118Y-114234601D01*
X125786390Y-114022643D01*
X126022643Y-113786390D01*
X126234601Y-113528118D01*
X126389596Y-113296153D01*
X138699500Y-113296153D01*
X138699500Y-113453846D01*
X138730261Y-113608489D01*
X138730264Y-113608501D01*
X138790602Y-113754172D01*
X138790609Y-113754185D01*
X138878210Y-113885288D01*
X138878213Y-113885292D01*
X138989707Y-113996786D01*
X138989711Y-113996789D01*
X139120814Y-114084390D01*
X139120827Y-114084397D01*
X139266498Y-114144735D01*
X139266503Y-114144737D01*
X139421153Y-114175499D01*
X139421156Y-114175500D01*
X139421158Y-114175500D01*
X139578844Y-114175500D01*
X139578845Y-114175499D01*
X139733497Y-114144737D01*
X139879179Y-114084394D01*
X140010289Y-113996789D01*
X140121789Y-113885289D01*
X140209394Y-113754179D01*
X140269737Y-113608497D01*
X140300500Y-113453842D01*
X140300500Y-113296158D01*
X140300500Y-113296155D01*
X140300499Y-113296153D01*
X140287661Y-113231611D01*
X140269737Y-113141503D01*
X140269735Y-113141498D01*
X140209397Y-112995827D01*
X140209390Y-112995814D01*
X140121789Y-112864711D01*
X140121786Y-112864707D01*
X140010292Y-112753213D01*
X140010288Y-112753210D01*
X139879185Y-112665609D01*
X139879172Y-112665602D01*
X139733501Y-112605264D01*
X139733489Y-112605261D01*
X139578845Y-112574500D01*
X139578842Y-112574500D01*
X139421158Y-112574500D01*
X139421155Y-112574500D01*
X139266510Y-112605261D01*
X139266498Y-112605264D01*
X139120827Y-112665602D01*
X139120814Y-112665609D01*
X138989711Y-112753210D01*
X138989707Y-112753213D01*
X138878213Y-112864707D01*
X138878210Y-112864711D01*
X138790609Y-112995814D01*
X138790602Y-112995827D01*
X138730264Y-113141498D01*
X138730261Y-113141510D01*
X138699500Y-113296153D01*
X126389596Y-113296153D01*
X126420224Y-113250315D01*
X126424562Y-113242197D01*
X126430222Y-113231611D01*
X126430222Y-113231610D01*
X126577719Y-112955661D01*
X126577723Y-112955654D01*
X126705582Y-112646976D01*
X126802569Y-112327251D01*
X126802571Y-112327241D01*
X126802574Y-112327230D01*
X126836978Y-112154266D01*
X126867751Y-111999559D01*
X126900500Y-111667056D01*
X126900500Y-111332944D01*
X126867751Y-111000441D01*
X126843444Y-110878243D01*
X126802574Y-110672769D01*
X126802571Y-110672758D01*
X126802570Y-110672755D01*
X126802569Y-110672749D01*
X126779206Y-110595730D01*
X140049500Y-110595730D01*
X140049500Y-112154269D01*
X140052353Y-112184699D01*
X140052353Y-112184701D01*
X140097206Y-112312880D01*
X140097207Y-112312882D01*
X140177850Y-112422150D01*
X140287118Y-112502793D01*
X140308089Y-112510131D01*
X140415299Y-112547646D01*
X140445730Y-112550500D01*
X140445734Y-112550500D01*
X141754270Y-112550500D01*
X141784699Y-112547646D01*
X141784701Y-112547646D01*
X141848790Y-112525219D01*
X141912882Y-112502793D01*
X142022150Y-112422150D01*
X142102793Y-112312882D01*
X142125219Y-112248790D01*
X142147646Y-112184701D01*
X142147646Y-112184699D01*
X142150500Y-112154269D01*
X142150500Y-111146530D01*
X142549500Y-111146530D01*
X142549500Y-111603469D01*
X142589868Y-111806412D01*
X142589870Y-111806420D01*
X142669059Y-111997598D01*
X142704725Y-112050976D01*
X142784024Y-112169657D01*
X142930342Y-112315975D01*
X142930345Y-112315977D01*
X143102402Y-112430941D01*
X143293580Y-112510130D01*
X143482187Y-112547646D01*
X143496530Y-112550499D01*
X143496534Y-112550500D01*
X143496535Y-112550500D01*
X143703466Y-112550500D01*
X143703467Y-112550499D01*
X143906420Y-112510130D01*
X144097598Y-112430941D01*
X144269655Y-112315977D01*
X144415977Y-112169655D01*
X144530941Y-111997598D01*
X144610130Y-111806420D01*
X144650500Y-111603465D01*
X144650500Y-111146535D01*
X144650499Y-111146530D01*
X145049500Y-111146530D01*
X145049500Y-111603469D01*
X145089868Y-111806412D01*
X145089870Y-111806420D01*
X145169059Y-111997598D01*
X145204725Y-112050976D01*
X145284024Y-112169657D01*
X145430342Y-112315975D01*
X145430345Y-112315977D01*
X145602402Y-112430941D01*
X145793580Y-112510130D01*
X145982187Y-112547646D01*
X145996530Y-112550499D01*
X145996534Y-112550500D01*
X145996535Y-112550500D01*
X146203466Y-112550500D01*
X146203467Y-112550499D01*
X146406420Y-112510130D01*
X146597598Y-112430941D01*
X146769655Y-112315977D01*
X146915977Y-112169655D01*
X147030941Y-111997598D01*
X147110130Y-111806420D01*
X147150500Y-111603465D01*
X147150500Y-111146535D01*
X147150499Y-111146530D01*
X147549500Y-111146530D01*
X147549500Y-111603469D01*
X147589868Y-111806412D01*
X147589870Y-111806420D01*
X147669059Y-111997598D01*
X147704725Y-112050976D01*
X147784024Y-112169657D01*
X147930342Y-112315975D01*
X147930345Y-112315977D01*
X148102402Y-112430941D01*
X148293580Y-112510130D01*
X148482187Y-112547646D01*
X148496530Y-112550499D01*
X148496534Y-112550500D01*
X148496535Y-112550500D01*
X148703466Y-112550500D01*
X148703467Y-112550499D01*
X148906420Y-112510130D01*
X149097598Y-112430941D01*
X149269655Y-112315977D01*
X149415977Y-112169655D01*
X149530941Y-111997598D01*
X149610130Y-111806420D01*
X149650500Y-111603465D01*
X149650500Y-111146535D01*
X149650499Y-111146530D01*
X150049500Y-111146530D01*
X150049500Y-111603469D01*
X150089868Y-111806412D01*
X150089870Y-111806420D01*
X150169059Y-111997598D01*
X150204725Y-112050976D01*
X150284024Y-112169657D01*
X150430342Y-112315975D01*
X150430345Y-112315977D01*
X150602402Y-112430941D01*
X150793580Y-112510130D01*
X150982187Y-112547646D01*
X150996530Y-112550499D01*
X150996534Y-112550500D01*
X150996535Y-112550500D01*
X151203466Y-112550500D01*
X151203467Y-112550499D01*
X151406420Y-112510130D01*
X151597598Y-112430941D01*
X151769655Y-112315977D01*
X151915977Y-112169655D01*
X152030941Y-111997598D01*
X152110130Y-111806420D01*
X152150500Y-111603465D01*
X152150500Y-111146535D01*
X152150499Y-111146530D01*
X152549500Y-111146530D01*
X152549500Y-111603469D01*
X152589868Y-111806412D01*
X152589870Y-111806420D01*
X152669059Y-111997598D01*
X152704725Y-112050976D01*
X152784024Y-112169657D01*
X152930342Y-112315975D01*
X152930345Y-112315977D01*
X153102402Y-112430941D01*
X153293580Y-112510130D01*
X153482187Y-112547646D01*
X153496530Y-112550499D01*
X153496534Y-112550500D01*
X153496535Y-112550500D01*
X153703466Y-112550500D01*
X153703467Y-112550499D01*
X153906420Y-112510130D01*
X154097598Y-112430941D01*
X154269655Y-112315977D01*
X154415977Y-112169655D01*
X154530941Y-111997598D01*
X154610130Y-111806420D01*
X154650500Y-111603465D01*
X154650500Y-111146535D01*
X154650499Y-111146530D01*
X155049500Y-111146530D01*
X155049500Y-111603469D01*
X155089868Y-111806412D01*
X155089870Y-111806420D01*
X155169059Y-111997598D01*
X155204725Y-112050976D01*
X155284024Y-112169657D01*
X155430342Y-112315975D01*
X155430345Y-112315977D01*
X155602402Y-112430941D01*
X155793580Y-112510130D01*
X155982187Y-112547646D01*
X155996530Y-112550499D01*
X155996534Y-112550500D01*
X155996535Y-112550500D01*
X156203466Y-112550500D01*
X156203467Y-112550499D01*
X156406420Y-112510130D01*
X156597598Y-112430941D01*
X156769655Y-112315977D01*
X156915977Y-112169655D01*
X157030941Y-111997598D01*
X157110130Y-111806420D01*
X157150500Y-111603465D01*
X157150500Y-111146535D01*
X157110130Y-110943580D01*
X157030941Y-110752402D01*
X156915977Y-110580345D01*
X156915975Y-110580342D01*
X156769657Y-110434024D01*
X156683626Y-110376541D01*
X156597598Y-110319059D01*
X156406420Y-110239870D01*
X156406412Y-110239868D01*
X156203469Y-110199500D01*
X156203465Y-110199500D01*
X155996535Y-110199500D01*
X155996530Y-110199500D01*
X155793587Y-110239868D01*
X155793579Y-110239870D01*
X155602403Y-110319058D01*
X155430342Y-110434024D01*
X155284024Y-110580342D01*
X155169058Y-110752403D01*
X155089870Y-110943579D01*
X155089868Y-110943587D01*
X155049500Y-111146530D01*
X154650499Y-111146530D01*
X154610130Y-110943580D01*
X154530941Y-110752402D01*
X154415977Y-110580345D01*
X154415975Y-110580342D01*
X154269657Y-110434024D01*
X154183626Y-110376541D01*
X154097598Y-110319059D01*
X153906420Y-110239870D01*
X153906412Y-110239868D01*
X153703469Y-110199500D01*
X153703465Y-110199500D01*
X153496535Y-110199500D01*
X153496530Y-110199500D01*
X153293587Y-110239868D01*
X153293579Y-110239870D01*
X153102403Y-110319058D01*
X152930342Y-110434024D01*
X152784024Y-110580342D01*
X152669058Y-110752403D01*
X152589870Y-110943579D01*
X152589868Y-110943587D01*
X152549500Y-111146530D01*
X152150499Y-111146530D01*
X152110130Y-110943580D01*
X152030941Y-110752402D01*
X151915977Y-110580345D01*
X151915975Y-110580342D01*
X151769657Y-110434024D01*
X151683626Y-110376541D01*
X151597598Y-110319059D01*
X151406420Y-110239870D01*
X151406412Y-110239868D01*
X151203469Y-110199500D01*
X151203465Y-110199500D01*
X150996535Y-110199500D01*
X150996530Y-110199500D01*
X150793587Y-110239868D01*
X150793579Y-110239870D01*
X150602403Y-110319058D01*
X150430342Y-110434024D01*
X150284024Y-110580342D01*
X150169058Y-110752403D01*
X150089870Y-110943579D01*
X150089868Y-110943587D01*
X150049500Y-111146530D01*
X149650499Y-111146530D01*
X149610130Y-110943580D01*
X149530941Y-110752402D01*
X149415977Y-110580345D01*
X149415975Y-110580342D01*
X149269657Y-110434024D01*
X149183626Y-110376541D01*
X149097598Y-110319059D01*
X148906420Y-110239870D01*
X148906412Y-110239868D01*
X148703469Y-110199500D01*
X148703465Y-110199500D01*
X148496535Y-110199500D01*
X148496530Y-110199500D01*
X148293587Y-110239868D01*
X148293579Y-110239870D01*
X148102403Y-110319058D01*
X147930342Y-110434024D01*
X147784024Y-110580342D01*
X147669058Y-110752403D01*
X147589870Y-110943579D01*
X147589868Y-110943587D01*
X147549500Y-111146530D01*
X147150499Y-111146530D01*
X147110130Y-110943580D01*
X147030941Y-110752402D01*
X146915977Y-110580345D01*
X146915975Y-110580342D01*
X146769657Y-110434024D01*
X146683626Y-110376541D01*
X146597598Y-110319059D01*
X146406420Y-110239870D01*
X146406412Y-110239868D01*
X146203469Y-110199500D01*
X146203465Y-110199500D01*
X145996535Y-110199500D01*
X145996530Y-110199500D01*
X145793587Y-110239868D01*
X145793579Y-110239870D01*
X145602403Y-110319058D01*
X145430342Y-110434024D01*
X145284024Y-110580342D01*
X145169058Y-110752403D01*
X145089870Y-110943579D01*
X145089868Y-110943587D01*
X145049500Y-111146530D01*
X144650499Y-111146530D01*
X144610130Y-110943580D01*
X144530941Y-110752402D01*
X144415977Y-110580345D01*
X144415975Y-110580342D01*
X144269657Y-110434024D01*
X144183626Y-110376541D01*
X144097598Y-110319059D01*
X143906420Y-110239870D01*
X143906412Y-110239868D01*
X143703469Y-110199500D01*
X143703465Y-110199500D01*
X143496535Y-110199500D01*
X143496530Y-110199500D01*
X143293587Y-110239868D01*
X143293579Y-110239870D01*
X143102403Y-110319058D01*
X142930342Y-110434024D01*
X142784024Y-110580342D01*
X142669058Y-110752403D01*
X142589870Y-110943579D01*
X142589868Y-110943587D01*
X142549500Y-111146530D01*
X142150500Y-111146530D01*
X142150500Y-110595730D01*
X142147646Y-110565300D01*
X142147646Y-110565298D01*
X142102793Y-110437119D01*
X142102792Y-110437117D01*
X142022150Y-110327850D01*
X141912882Y-110247207D01*
X141912880Y-110247206D01*
X141784700Y-110202353D01*
X141754270Y-110199500D01*
X141754266Y-110199500D01*
X140445734Y-110199500D01*
X140445730Y-110199500D01*
X140415300Y-110202353D01*
X140415298Y-110202353D01*
X140287119Y-110247206D01*
X140287117Y-110247207D01*
X140177850Y-110327850D01*
X140097207Y-110437117D01*
X140097206Y-110437119D01*
X140052353Y-110565298D01*
X140052353Y-110565300D01*
X140049500Y-110595730D01*
X126779206Y-110595730D01*
X126705582Y-110353024D01*
X126577723Y-110044346D01*
X126545187Y-109983476D01*
X126420230Y-109749696D01*
X126420229Y-109749694D01*
X126420224Y-109749685D01*
X126234601Y-109471882D01*
X126022643Y-109213610D01*
X126022642Y-109213609D01*
X126022638Y-109213604D01*
X125786395Y-108977361D01*
X125528123Y-108765403D01*
X125528109Y-108765392D01*
X125478692Y-108732373D01*
X125336554Y-108637399D01*
X164824500Y-108637399D01*
X164824500Y-108762601D01*
X164856905Y-108883536D01*
X164919505Y-108991964D01*
X165008036Y-109080495D01*
X165116464Y-109143095D01*
X165237399Y-109175500D01*
X165237401Y-109175500D01*
X165362599Y-109175500D01*
X165362601Y-109175500D01*
X165483536Y-109143095D01*
X165591964Y-109080495D01*
X165680495Y-108991964D01*
X165743095Y-108883536D01*
X165775500Y-108762601D01*
X165775500Y-108637399D01*
X165743095Y-108516464D01*
X165680495Y-108408036D01*
X165591964Y-108319505D01*
X165483536Y-108256905D01*
X165483537Y-108256905D01*
X165443224Y-108246103D01*
X165362601Y-108224500D01*
X165237399Y-108224500D01*
X165156775Y-108246103D01*
X165116463Y-108256905D01*
X165008037Y-108319504D01*
X165008034Y-108319506D01*
X164919506Y-108408034D01*
X164919504Y-108408037D01*
X164856905Y-108516463D01*
X164856905Y-108516464D01*
X164824500Y-108637399D01*
X125336554Y-108637399D01*
X125250321Y-108579780D01*
X125250320Y-108579779D01*
X125250315Y-108579776D01*
X125250310Y-108579773D01*
X125250303Y-108579769D01*
X124955661Y-108422280D01*
X124955656Y-108422278D01*
X124921275Y-108408037D01*
X124707544Y-108319506D01*
X124646977Y-108294418D01*
X124327241Y-108197428D01*
X124327230Y-108197425D01*
X123999565Y-108132250D01*
X123999548Y-108132247D01*
X123748108Y-108107483D01*
X123667056Y-108099500D01*
X123332944Y-108099500D01*
X123257982Y-108106883D01*
X123000451Y-108132247D01*
X123000434Y-108132250D01*
X122672769Y-108197425D01*
X122672758Y-108197428D01*
X122353022Y-108294418D01*
X122044343Y-108422278D01*
X122044338Y-108422280D01*
X121749696Y-108579769D01*
X121749678Y-108579780D01*
X121471890Y-108765393D01*
X121471876Y-108765403D01*
X121213604Y-108977361D01*
X120977361Y-109213604D01*
X120765403Y-109471876D01*
X120765393Y-109471890D01*
X120579780Y-109749678D01*
X120579769Y-109749696D01*
X120483858Y-109929135D01*
X120434896Y-109978979D01*
X120366758Y-109994440D01*
X120301079Y-109970608D01*
X120258710Y-109915051D01*
X120250500Y-109870682D01*
X120250500Y-105057399D01*
X174784500Y-105057399D01*
X174784500Y-105182601D01*
X174816905Y-105303536D01*
X174879505Y-105411964D01*
X174968036Y-105500495D01*
X175076464Y-105563095D01*
X175197399Y-105595500D01*
X175197401Y-105595500D01*
X175322599Y-105595500D01*
X175322601Y-105595500D01*
X175443536Y-105563095D01*
X175551964Y-105500495D01*
X175640495Y-105411964D01*
X175703095Y-105303536D01*
X175735500Y-105182601D01*
X175735500Y-105057399D01*
X175703095Y-104936464D01*
X175640495Y-104828036D01*
X175551964Y-104739505D01*
X175443536Y-104676905D01*
X175443537Y-104676905D01*
X175403224Y-104666103D01*
X175322601Y-104644500D01*
X175197399Y-104644500D01*
X175116775Y-104666103D01*
X175076463Y-104676905D01*
X174968037Y-104739504D01*
X174968034Y-104739506D01*
X174879506Y-104828034D01*
X174879504Y-104828037D01*
X174816905Y-104936463D01*
X174816905Y-104936464D01*
X174784500Y-105057399D01*
X120250500Y-105057399D01*
X120250500Y-102237399D01*
X148674500Y-102237399D01*
X148674500Y-102362601D01*
X148706905Y-102483536D01*
X148769505Y-102591964D01*
X148858036Y-102680495D01*
X148966464Y-102743095D01*
X149087399Y-102775500D01*
X149087401Y-102775500D01*
X149095458Y-102776561D01*
X149095250Y-102778135D01*
X149153316Y-102795185D01*
X149199071Y-102847989D01*
X149209015Y-102917147D01*
X149193665Y-102961499D01*
X149132640Y-103067198D01*
X149132640Y-103067199D01*
X149100235Y-103188134D01*
X149100235Y-103313336D01*
X149132640Y-103434271D01*
X149195240Y-103542699D01*
X149283771Y-103631230D01*
X149392199Y-103693830D01*
X149513134Y-103726235D01*
X149513136Y-103726235D01*
X149638334Y-103726235D01*
X149638336Y-103726235D01*
X149759271Y-103693830D01*
X149813712Y-103662399D01*
X150774500Y-103662399D01*
X150774500Y-103787601D01*
X150806905Y-103908536D01*
X150869505Y-104016964D01*
X150958036Y-104105495D01*
X151066464Y-104168095D01*
X151187399Y-104200500D01*
X151187401Y-104200500D01*
X151312599Y-104200500D01*
X151312601Y-104200500D01*
X151433536Y-104168095D01*
X151541964Y-104105495D01*
X151630495Y-104016964D01*
X151693095Y-103908536D01*
X151725500Y-103787601D01*
X151725500Y-103662399D01*
X151693095Y-103541464D01*
X151630495Y-103433036D01*
X151541964Y-103344505D01*
X151433536Y-103281905D01*
X151433537Y-103281905D01*
X151393224Y-103271103D01*
X151312601Y-103249500D01*
X151187399Y-103249500D01*
X151106775Y-103271103D01*
X151066463Y-103281905D01*
X150958037Y-103344504D01*
X150958034Y-103344506D01*
X150869506Y-103433034D01*
X150869504Y-103433037D01*
X150806905Y-103541463D01*
X150806574Y-103542699D01*
X150774500Y-103662399D01*
X149813712Y-103662399D01*
X149867699Y-103631230D01*
X149956230Y-103542699D01*
X150018830Y-103434271D01*
X150051235Y-103313336D01*
X150051235Y-103188134D01*
X150018830Y-103067199D01*
X149956230Y-102958771D01*
X149867699Y-102870240D01*
X149759271Y-102807640D01*
X149759272Y-102807640D01*
X149638333Y-102775234D01*
X149630277Y-102774174D01*
X149630484Y-102772599D01*
X149572419Y-102755550D01*
X149526664Y-102702746D01*
X149516720Y-102633588D01*
X149532070Y-102589236D01*
X149532792Y-102587983D01*
X149593095Y-102483536D01*
X149625500Y-102362601D01*
X149625500Y-102237399D01*
X149593095Y-102116464D01*
X149530495Y-102008036D01*
X149441964Y-101919505D01*
X149333536Y-101856905D01*
X149333537Y-101856905D01*
X149293224Y-101846103D01*
X149212601Y-101824500D01*
X149087399Y-101824500D01*
X149006775Y-101846103D01*
X148966463Y-101856905D01*
X148858037Y-101919504D01*
X148858034Y-101919506D01*
X148769506Y-102008034D01*
X148769504Y-102008037D01*
X148706905Y-102116463D01*
X148706905Y-102116464D01*
X148674500Y-102237399D01*
X120250500Y-102237399D01*
X120250500Y-101697399D01*
X168894500Y-101697399D01*
X168894500Y-101822601D01*
X168926905Y-101943536D01*
X168989505Y-102051964D01*
X169078036Y-102140495D01*
X169186464Y-102203095D01*
X169307399Y-102235500D01*
X169307401Y-102235500D01*
X169432599Y-102235500D01*
X169432601Y-102235500D01*
X169553536Y-102203095D01*
X169661964Y-102140495D01*
X169750495Y-102051964D01*
X169813095Y-101943536D01*
X169845500Y-101822601D01*
X169845500Y-101697399D01*
X169813095Y-101576464D01*
X169750495Y-101468036D01*
X169661964Y-101379505D01*
X169553536Y-101316905D01*
X169553537Y-101316905D01*
X169513224Y-101306103D01*
X169432601Y-101284500D01*
X169307399Y-101284500D01*
X169226775Y-101306103D01*
X169186463Y-101316905D01*
X169078037Y-101379504D01*
X169078034Y-101379506D01*
X168989506Y-101468034D01*
X168989504Y-101468037D01*
X168926905Y-101576463D01*
X168926905Y-101576464D01*
X168894500Y-101697399D01*
X120250500Y-101697399D01*
X120250500Y-100156379D01*
X139929500Y-100156379D01*
X139929500Y-100343620D01*
X139966025Y-100527243D01*
X139966027Y-100527251D01*
X140037676Y-100700228D01*
X140037681Y-100700237D01*
X140141697Y-100855907D01*
X140141700Y-100855911D01*
X140274088Y-100988299D01*
X140274092Y-100988302D01*
X140429762Y-101092318D01*
X140429768Y-101092321D01*
X140429769Y-101092322D01*
X140602749Y-101163973D01*
X140786379Y-101200499D01*
X140786383Y-101200500D01*
X140786384Y-101200500D01*
X140973617Y-101200500D01*
X140973618Y-101200499D01*
X141157251Y-101163973D01*
X141330231Y-101092322D01*
X141485908Y-100988302D01*
X141618302Y-100855908D01*
X141722322Y-100700231D01*
X141793973Y-100527251D01*
X141830500Y-100343616D01*
X141830500Y-100156384D01*
X141830499Y-100156379D01*
X145009500Y-100156379D01*
X145009500Y-100343620D01*
X145046025Y-100527243D01*
X145046027Y-100527251D01*
X145117676Y-100700228D01*
X145117681Y-100700237D01*
X145221697Y-100855907D01*
X145221700Y-100855911D01*
X145354088Y-100988299D01*
X145354092Y-100988302D01*
X145509762Y-101092318D01*
X145509768Y-101092321D01*
X145509769Y-101092322D01*
X145682749Y-101163973D01*
X145866379Y-101200499D01*
X145866383Y-101200500D01*
X145866384Y-101200500D01*
X146053617Y-101200500D01*
X146053618Y-101200499D01*
X146237251Y-101163973D01*
X146410231Y-101092322D01*
X146565908Y-100988302D01*
X146698302Y-100855908D01*
X146802322Y-100700231D01*
X146873973Y-100527251D01*
X146910500Y-100343616D01*
X146910500Y-100156384D01*
X146910499Y-100156379D01*
X150089500Y-100156379D01*
X150089500Y-100343620D01*
X150126025Y-100527243D01*
X150126027Y-100527251D01*
X150197676Y-100700228D01*
X150197681Y-100700237D01*
X150301697Y-100855907D01*
X150301700Y-100855911D01*
X150434088Y-100988299D01*
X150434092Y-100988302D01*
X150589762Y-101092318D01*
X150589768Y-101092321D01*
X150589769Y-101092322D01*
X150762749Y-101163973D01*
X150946379Y-101200499D01*
X150946383Y-101200500D01*
X150946384Y-101200500D01*
X151133617Y-101200500D01*
X151133618Y-101200499D01*
X151317251Y-101163973D01*
X151490231Y-101092322D01*
X151645908Y-100988302D01*
X151778302Y-100855908D01*
X151882322Y-100700231D01*
X151953973Y-100527251D01*
X151990500Y-100343616D01*
X151990500Y-100156384D01*
X151990499Y-100156379D01*
X155169500Y-100156379D01*
X155169500Y-100343620D01*
X155206025Y-100527243D01*
X155206027Y-100527251D01*
X155277676Y-100700228D01*
X155277681Y-100700237D01*
X155381697Y-100855907D01*
X155381700Y-100855911D01*
X155514088Y-100988299D01*
X155514092Y-100988302D01*
X155669762Y-101092318D01*
X155669768Y-101092321D01*
X155669769Y-101092322D01*
X155842749Y-101163973D01*
X156026379Y-101200499D01*
X156026383Y-101200500D01*
X156026384Y-101200500D01*
X156213617Y-101200500D01*
X156213618Y-101200499D01*
X156397251Y-101163973D01*
X156570231Y-101092322D01*
X156725908Y-100988302D01*
X156858302Y-100855908D01*
X156962322Y-100700231D01*
X157033973Y-100527251D01*
X157070500Y-100343616D01*
X157070500Y-100156384D01*
X157033973Y-99972749D01*
X157015188Y-99927399D01*
X172574500Y-99927399D01*
X172574500Y-100052601D01*
X172606905Y-100173536D01*
X172669505Y-100281964D01*
X172758036Y-100370495D01*
X172866464Y-100433095D01*
X172987399Y-100465500D01*
X172987401Y-100465500D01*
X173112599Y-100465500D01*
X173112601Y-100465500D01*
X173233536Y-100433095D01*
X173341964Y-100370495D01*
X173430495Y-100281964D01*
X173493095Y-100173536D01*
X173525500Y-100052601D01*
X173525500Y-99927399D01*
X173493095Y-99806464D01*
X173430495Y-99698036D01*
X173341964Y-99609505D01*
X173233536Y-99546905D01*
X173233537Y-99546905D01*
X173193224Y-99536103D01*
X173112601Y-99514500D01*
X172987399Y-99514500D01*
X172906775Y-99536103D01*
X172866463Y-99546905D01*
X172758037Y-99609504D01*
X172758034Y-99609506D01*
X172669506Y-99698034D01*
X172669504Y-99698037D01*
X172606905Y-99806463D01*
X172606905Y-99806464D01*
X172574500Y-99927399D01*
X157015188Y-99927399D01*
X156962322Y-99799769D01*
X156962321Y-99799768D01*
X156962318Y-99799762D01*
X156858302Y-99644092D01*
X156858299Y-99644088D01*
X156725911Y-99511700D01*
X156725907Y-99511697D01*
X156570237Y-99407681D01*
X156570228Y-99407676D01*
X156397251Y-99336027D01*
X156397243Y-99336025D01*
X156213620Y-99299500D01*
X156213616Y-99299500D01*
X156026384Y-99299500D01*
X156026379Y-99299500D01*
X155842756Y-99336025D01*
X155842748Y-99336027D01*
X155669771Y-99407676D01*
X155669762Y-99407681D01*
X155514092Y-99511697D01*
X155514088Y-99511700D01*
X155381700Y-99644088D01*
X155381697Y-99644092D01*
X155277681Y-99799762D01*
X155277676Y-99799771D01*
X155206027Y-99972748D01*
X155206025Y-99972756D01*
X155169500Y-100156379D01*
X151990499Y-100156379D01*
X151953973Y-99972749D01*
X151882322Y-99799769D01*
X151882321Y-99799768D01*
X151882318Y-99799762D01*
X151778302Y-99644092D01*
X151778299Y-99644088D01*
X151645911Y-99511700D01*
X151645907Y-99511697D01*
X151490237Y-99407681D01*
X151490228Y-99407676D01*
X151317251Y-99336027D01*
X151317243Y-99336025D01*
X151133620Y-99299500D01*
X151133616Y-99299500D01*
X150946384Y-99299500D01*
X150946379Y-99299500D01*
X150762756Y-99336025D01*
X150762748Y-99336027D01*
X150589771Y-99407676D01*
X150589762Y-99407681D01*
X150434092Y-99511697D01*
X150434088Y-99511700D01*
X150301700Y-99644088D01*
X150301697Y-99644092D01*
X150197681Y-99799762D01*
X150197676Y-99799771D01*
X150126027Y-99972748D01*
X150126025Y-99972756D01*
X150089500Y-100156379D01*
X146910499Y-100156379D01*
X146873973Y-99972749D01*
X146802322Y-99799769D01*
X146802321Y-99799768D01*
X146802318Y-99799762D01*
X146698302Y-99644092D01*
X146698299Y-99644088D01*
X146565911Y-99511700D01*
X146565907Y-99511697D01*
X146410237Y-99407681D01*
X146410228Y-99407676D01*
X146237251Y-99336027D01*
X146237243Y-99336025D01*
X146053620Y-99299500D01*
X146053616Y-99299500D01*
X145866384Y-99299500D01*
X145866379Y-99299500D01*
X145682756Y-99336025D01*
X145682748Y-99336027D01*
X145509771Y-99407676D01*
X145509762Y-99407681D01*
X145354092Y-99511697D01*
X145354088Y-99511700D01*
X145221700Y-99644088D01*
X145221697Y-99644092D01*
X145117681Y-99799762D01*
X145117676Y-99799771D01*
X145046027Y-99972748D01*
X145046025Y-99972756D01*
X145009500Y-100156379D01*
X141830499Y-100156379D01*
X141793973Y-99972749D01*
X141722322Y-99799769D01*
X141722321Y-99799768D01*
X141722318Y-99799762D01*
X141618302Y-99644092D01*
X141618299Y-99644088D01*
X141485911Y-99511700D01*
X141485907Y-99511697D01*
X141330237Y-99407681D01*
X141330228Y-99407676D01*
X141157251Y-99336027D01*
X141157243Y-99336025D01*
X140973620Y-99299500D01*
X140973616Y-99299500D01*
X140786384Y-99299500D01*
X140786379Y-99299500D01*
X140602756Y-99336025D01*
X140602748Y-99336027D01*
X140429771Y-99407676D01*
X140429762Y-99407681D01*
X140274092Y-99511697D01*
X140274088Y-99511700D01*
X140141700Y-99644088D01*
X140141697Y-99644092D01*
X140037681Y-99799762D01*
X140037676Y-99799771D01*
X139966027Y-99972748D01*
X139966025Y-99972756D01*
X139929500Y-100156379D01*
X120250500Y-100156379D01*
X120250500Y-97526379D01*
X137299500Y-97526379D01*
X137299500Y-97713620D01*
X137336025Y-97897243D01*
X137336027Y-97897251D01*
X137407676Y-98070228D01*
X137407681Y-98070237D01*
X137511697Y-98225907D01*
X137511700Y-98225911D01*
X137644088Y-98358299D01*
X137644092Y-98358302D01*
X137799762Y-98462318D01*
X137799768Y-98462321D01*
X137799769Y-98462322D01*
X137972749Y-98533973D01*
X138156379Y-98570499D01*
X138156383Y-98570500D01*
X138156384Y-98570500D01*
X138343617Y-98570500D01*
X138343618Y-98570499D01*
X138527251Y-98533973D01*
X138700231Y-98462322D01*
X138855908Y-98358302D01*
X138988302Y-98225908D01*
X139092322Y-98070231D01*
X139163973Y-97897251D01*
X139200500Y-97713616D01*
X139200500Y-97526384D01*
X139200499Y-97526379D01*
X157799500Y-97526379D01*
X157799500Y-97713620D01*
X157836025Y-97897243D01*
X157836027Y-97897251D01*
X157907676Y-98070228D01*
X157907681Y-98070237D01*
X158011697Y-98225907D01*
X158011700Y-98225911D01*
X158144088Y-98358299D01*
X158144092Y-98358302D01*
X158299762Y-98462318D01*
X158299768Y-98462321D01*
X158299769Y-98462322D01*
X158472749Y-98533973D01*
X158656379Y-98570499D01*
X158656383Y-98570500D01*
X158656384Y-98570500D01*
X158843617Y-98570500D01*
X158843618Y-98570499D01*
X159027251Y-98533973D01*
X159200231Y-98462322D01*
X159355908Y-98358302D01*
X159476811Y-98237399D01*
X175224500Y-98237399D01*
X175224500Y-98362601D01*
X175256905Y-98483536D01*
X175319505Y-98591964D01*
X175408036Y-98680495D01*
X175516464Y-98743095D01*
X175637399Y-98775500D01*
X175637401Y-98775500D01*
X175762599Y-98775500D01*
X175762601Y-98775500D01*
X175883536Y-98743095D01*
X175991964Y-98680495D01*
X176080495Y-98591964D01*
X176143095Y-98483536D01*
X176175500Y-98362601D01*
X176175500Y-98237399D01*
X176143095Y-98116464D01*
X176080495Y-98008036D01*
X175991964Y-97919505D01*
X175883536Y-97856905D01*
X175883537Y-97856905D01*
X175843224Y-97846103D01*
X175762601Y-97824500D01*
X175637399Y-97824500D01*
X175556775Y-97846103D01*
X175516463Y-97856905D01*
X175408037Y-97919504D01*
X175408034Y-97919506D01*
X175319506Y-98008034D01*
X175319504Y-98008037D01*
X175256905Y-98116463D01*
X175240702Y-98176931D01*
X175224500Y-98237399D01*
X159476811Y-98237399D01*
X159488302Y-98225908D01*
X159511199Y-98191638D01*
X159532087Y-98160380D01*
X159592318Y-98070237D01*
X159592318Y-98070236D01*
X159592322Y-98070231D01*
X159663973Y-97897251D01*
X159700500Y-97713616D01*
X159700500Y-97526384D01*
X159663973Y-97342749D01*
X159592322Y-97169769D01*
X159592321Y-97169768D01*
X159592318Y-97169762D01*
X159488302Y-97014092D01*
X159488299Y-97014088D01*
X159355911Y-96881700D01*
X159355907Y-96881697D01*
X159200237Y-96777681D01*
X159200228Y-96777676D01*
X159027251Y-96706027D01*
X159027243Y-96706025D01*
X158951144Y-96690888D01*
X158843620Y-96669500D01*
X158843616Y-96669500D01*
X158656384Y-96669500D01*
X158656379Y-96669500D01*
X158472756Y-96706025D01*
X158472748Y-96706027D01*
X158299771Y-96777676D01*
X158299762Y-96777681D01*
X158144092Y-96881697D01*
X158144088Y-96881700D01*
X158011700Y-97014088D01*
X158011697Y-97014092D01*
X157907681Y-97169762D01*
X157907676Y-97169771D01*
X157836027Y-97342748D01*
X157836025Y-97342756D01*
X157799500Y-97526379D01*
X139200499Y-97526379D01*
X139163973Y-97342749D01*
X139092322Y-97169769D01*
X139092321Y-97169768D01*
X139092318Y-97169762D01*
X138988302Y-97014092D01*
X138988299Y-97014088D01*
X138855911Y-96881700D01*
X138855907Y-96881697D01*
X138700237Y-96777681D01*
X138700228Y-96777676D01*
X138527251Y-96706027D01*
X138527243Y-96706025D01*
X138343620Y-96669500D01*
X138343616Y-96669500D01*
X138156384Y-96669500D01*
X138156379Y-96669500D01*
X137972756Y-96706025D01*
X137972748Y-96706027D01*
X137799771Y-96777676D01*
X137799762Y-96777681D01*
X137644092Y-96881697D01*
X137644088Y-96881700D01*
X137511700Y-97014088D01*
X137511697Y-97014092D01*
X137407681Y-97169762D01*
X137407676Y-97169771D01*
X137336027Y-97342748D01*
X137336025Y-97342756D01*
X137299500Y-97526379D01*
X120250500Y-97526379D01*
X120250500Y-96577399D01*
X167714500Y-96577399D01*
X167714500Y-96702601D01*
X167746905Y-96823536D01*
X167809505Y-96931964D01*
X167898036Y-97020495D01*
X168006464Y-97083095D01*
X168127399Y-97115500D01*
X168127401Y-97115500D01*
X168252599Y-97115500D01*
X168252601Y-97115500D01*
X168373536Y-97083095D01*
X168481964Y-97020495D01*
X168570495Y-96931964D01*
X168633095Y-96823536D01*
X168665500Y-96702601D01*
X168665500Y-96577399D01*
X168633095Y-96456464D01*
X168570495Y-96348036D01*
X168481964Y-96259505D01*
X168373536Y-96196905D01*
X168373537Y-96196905D01*
X168333224Y-96186103D01*
X168252601Y-96164500D01*
X168127399Y-96164500D01*
X168046775Y-96186103D01*
X168006463Y-96196905D01*
X167898037Y-96259504D01*
X167898034Y-96259506D01*
X167809506Y-96348034D01*
X167809504Y-96348037D01*
X167746905Y-96456463D01*
X167746905Y-96456464D01*
X167714500Y-96577399D01*
X120250500Y-96577399D01*
X120250500Y-95917399D01*
X141174500Y-95917399D01*
X141174500Y-96042601D01*
X141206905Y-96163536D01*
X141269505Y-96271964D01*
X141358036Y-96360495D01*
X141466464Y-96423095D01*
X141587399Y-96455500D01*
X141587401Y-96455500D01*
X141712599Y-96455500D01*
X141712601Y-96455500D01*
X141833536Y-96423095D01*
X141941964Y-96360495D01*
X142030495Y-96271964D01*
X142093095Y-96163536D01*
X142125500Y-96042601D01*
X142125500Y-95917399D01*
X142674500Y-95917399D01*
X142674500Y-96042601D01*
X142706905Y-96163536D01*
X142769505Y-96271964D01*
X142858036Y-96360495D01*
X142966464Y-96423095D01*
X143087399Y-96455500D01*
X143087401Y-96455500D01*
X143212599Y-96455500D01*
X143212601Y-96455500D01*
X143333536Y-96423095D01*
X143441964Y-96360495D01*
X143530495Y-96271964D01*
X143593095Y-96163536D01*
X143625500Y-96042601D01*
X143625500Y-95917399D01*
X143593095Y-95796464D01*
X143530495Y-95688036D01*
X143441964Y-95599505D01*
X143333536Y-95536905D01*
X143333537Y-95536905D01*
X143293224Y-95526103D01*
X143212601Y-95504500D01*
X143087399Y-95504500D01*
X143006775Y-95526103D01*
X142966463Y-95536905D01*
X142858037Y-95599504D01*
X142858034Y-95599506D01*
X142769506Y-95688034D01*
X142769504Y-95688037D01*
X142706905Y-95796463D01*
X142706905Y-95796464D01*
X142674500Y-95917399D01*
X142125500Y-95917399D01*
X142093095Y-95796464D01*
X142030495Y-95688036D01*
X141941964Y-95599505D01*
X141833536Y-95536905D01*
X141833537Y-95536905D01*
X141793224Y-95526103D01*
X141712601Y-95504500D01*
X141587399Y-95504500D01*
X141506775Y-95526103D01*
X141466463Y-95536905D01*
X141358037Y-95599504D01*
X141358034Y-95599506D01*
X141269506Y-95688034D01*
X141269504Y-95688037D01*
X141206905Y-95796463D01*
X141206905Y-95796464D01*
X141174500Y-95917399D01*
X120250500Y-95917399D01*
X120250500Y-95087399D01*
X154049500Y-95087399D01*
X154049500Y-95212601D01*
X154081905Y-95333536D01*
X154144505Y-95441964D01*
X154233036Y-95530495D01*
X154341464Y-95593095D01*
X154462399Y-95625500D01*
X154462401Y-95625500D01*
X154587599Y-95625500D01*
X154587601Y-95625500D01*
X154708536Y-95593095D01*
X154816964Y-95530495D01*
X154905495Y-95441964D01*
X154968095Y-95333536D01*
X155000500Y-95212601D01*
X155000500Y-95087399D01*
X154968095Y-94966464D01*
X154905495Y-94858036D01*
X154816964Y-94769505D01*
X154708536Y-94706905D01*
X154708537Y-94706905D01*
X154668224Y-94696103D01*
X154587601Y-94674500D01*
X154462399Y-94674500D01*
X154381775Y-94696103D01*
X154341463Y-94706905D01*
X154233037Y-94769504D01*
X154233034Y-94769506D01*
X154144506Y-94858034D01*
X154144504Y-94858037D01*
X154081905Y-94966463D01*
X154081905Y-94966464D01*
X154049500Y-95087399D01*
X120250500Y-95087399D01*
X120250500Y-93687399D01*
X139124500Y-93687399D01*
X139124500Y-93812601D01*
X139156905Y-93933536D01*
X139219505Y-94041964D01*
X139308036Y-94130495D01*
X139416464Y-94193095D01*
X139537399Y-94225500D01*
X139537401Y-94225500D01*
X139662599Y-94225500D01*
X139662601Y-94225500D01*
X139783536Y-94193095D01*
X139891964Y-94130495D01*
X139980495Y-94041964D01*
X140024829Y-93965173D01*
X140075394Y-93916958D01*
X140144001Y-93903734D01*
X140208866Y-93929701D01*
X140239603Y-93965173D01*
X140269502Y-94016960D01*
X140269504Y-94016962D01*
X140269505Y-94016964D01*
X140358036Y-94105495D01*
X140466464Y-94168095D01*
X140587399Y-94200500D01*
X140587401Y-94200500D01*
X140712599Y-94200500D01*
X140712601Y-94200500D01*
X140833536Y-94168095D01*
X140941964Y-94105495D01*
X141030495Y-94016964D01*
X141093095Y-93908536D01*
X141125500Y-93787601D01*
X141125500Y-93662399D01*
X141093095Y-93541464D01*
X141030495Y-93433036D01*
X140941964Y-93344505D01*
X140833536Y-93281905D01*
X140833537Y-93281905D01*
X140793224Y-93271103D01*
X140712601Y-93249500D01*
X140587399Y-93249500D01*
X140506775Y-93271103D01*
X140466463Y-93281905D01*
X140358037Y-93344504D01*
X140358034Y-93344506D01*
X140269506Y-93433034D01*
X140269502Y-93433039D01*
X140225170Y-93509826D01*
X140174603Y-93558042D01*
X140105996Y-93571265D01*
X140041131Y-93545297D01*
X140010396Y-93509826D01*
X139980497Y-93458039D01*
X139980496Y-93458037D01*
X139980495Y-93458036D01*
X139891964Y-93369505D01*
X139783536Y-93306905D01*
X139783537Y-93306905D01*
X139743224Y-93296103D01*
X139662601Y-93274500D01*
X139537399Y-93274500D01*
X139456775Y-93296103D01*
X139416463Y-93306905D01*
X139308037Y-93369504D01*
X139308034Y-93369506D01*
X139219506Y-93458034D01*
X139219504Y-93458037D01*
X139156905Y-93566463D01*
X139140702Y-93626931D01*
X139124500Y-93687399D01*
X120250500Y-93687399D01*
X120250500Y-92446379D01*
X137299500Y-92446379D01*
X137299500Y-92633620D01*
X137336025Y-92817243D01*
X137336027Y-92817251D01*
X137407676Y-92990228D01*
X137407681Y-92990237D01*
X137511697Y-93145907D01*
X137511700Y-93145911D01*
X137644088Y-93278299D01*
X137644092Y-93278302D01*
X137799762Y-93382318D01*
X137799768Y-93382321D01*
X137799769Y-93382322D01*
X137972749Y-93453973D01*
X138156379Y-93490499D01*
X138156383Y-93490500D01*
X138156384Y-93490500D01*
X138343617Y-93490500D01*
X138343618Y-93490499D01*
X138527251Y-93453973D01*
X138700231Y-93382322D01*
X138855908Y-93278302D01*
X138988302Y-93145908D01*
X139092322Y-92990231D01*
X139163973Y-92817251D01*
X139200500Y-92633616D01*
X139200500Y-92446384D01*
X139200499Y-92446379D01*
X157799500Y-92446379D01*
X157799500Y-92633620D01*
X157836025Y-92817243D01*
X157836027Y-92817251D01*
X157907676Y-92990228D01*
X157907681Y-92990237D01*
X158011697Y-93145907D01*
X158011700Y-93145911D01*
X158144088Y-93278299D01*
X158144092Y-93278302D01*
X158299762Y-93382318D01*
X158299768Y-93382321D01*
X158299769Y-93382322D01*
X158472749Y-93453973D01*
X158656379Y-93490499D01*
X158656383Y-93490500D01*
X158656384Y-93490500D01*
X158843617Y-93490500D01*
X158843618Y-93490499D01*
X159027251Y-93453973D01*
X159200231Y-93382322D01*
X159355908Y-93278302D01*
X159488302Y-93145908D01*
X159592322Y-92990231D01*
X159663973Y-92817251D01*
X159700500Y-92633616D01*
X159700500Y-92446384D01*
X159663973Y-92262749D01*
X159592322Y-92089769D01*
X159592321Y-92089768D01*
X159592318Y-92089762D01*
X159488302Y-91934092D01*
X159488299Y-91934088D01*
X159355911Y-91801700D01*
X159355907Y-91801697D01*
X159200237Y-91697681D01*
X159200228Y-91697676D01*
X159027251Y-91626027D01*
X159027243Y-91626025D01*
X158843620Y-91589500D01*
X158843616Y-91589500D01*
X158656384Y-91589500D01*
X158656379Y-91589500D01*
X158472756Y-91626025D01*
X158472748Y-91626027D01*
X158299771Y-91697676D01*
X158299762Y-91697681D01*
X158144092Y-91801697D01*
X158144088Y-91801700D01*
X158011700Y-91934088D01*
X158011697Y-91934092D01*
X157907681Y-92089762D01*
X157907676Y-92089771D01*
X157836027Y-92262748D01*
X157836025Y-92262756D01*
X157799500Y-92446379D01*
X139200499Y-92446379D01*
X139163973Y-92262749D01*
X139092322Y-92089769D01*
X139092321Y-92089768D01*
X139092318Y-92089762D01*
X138988302Y-91934092D01*
X138988299Y-91934088D01*
X138855911Y-91801700D01*
X138855907Y-91801697D01*
X138797094Y-91762399D01*
X146524500Y-91762399D01*
X146524500Y-91887601D01*
X146556905Y-92008536D01*
X146619505Y-92116964D01*
X146708036Y-92205495D01*
X146816464Y-92268095D01*
X146937399Y-92300500D01*
X146937401Y-92300500D01*
X147062599Y-92300500D01*
X147062601Y-92300500D01*
X147183536Y-92268095D01*
X147291964Y-92205495D01*
X147380495Y-92116964D01*
X147443095Y-92008536D01*
X147475500Y-91887601D01*
X147475500Y-91762399D01*
X147443095Y-91641464D01*
X147414715Y-91592308D01*
X147398244Y-91524410D01*
X147414717Y-91468311D01*
X147415495Y-91466964D01*
X147478095Y-91358536D01*
X147510500Y-91237601D01*
X147510500Y-91112399D01*
X147478095Y-90991464D01*
X147415495Y-90883036D01*
X147326964Y-90794505D01*
X147218536Y-90731905D01*
X147218537Y-90731905D01*
X147178224Y-90721103D01*
X147097601Y-90699500D01*
X146972399Y-90699500D01*
X146891775Y-90721103D01*
X146851463Y-90731905D01*
X146743037Y-90794504D01*
X146743034Y-90794506D01*
X146654506Y-90883034D01*
X146654504Y-90883037D01*
X146591905Y-90991463D01*
X146591905Y-90991464D01*
X146559500Y-91112399D01*
X146559500Y-91237601D01*
X146591905Y-91358536D01*
X146620283Y-91407689D01*
X146636754Y-91475590D01*
X146620283Y-91531687D01*
X146556905Y-91641463D01*
X146556905Y-91641464D01*
X146524500Y-91762399D01*
X138797094Y-91762399D01*
X138700237Y-91697681D01*
X138700228Y-91697676D01*
X138527251Y-91626027D01*
X138527243Y-91626025D01*
X138343620Y-91589500D01*
X138343616Y-91589500D01*
X138156384Y-91589500D01*
X138156379Y-91589500D01*
X137972756Y-91626025D01*
X137972748Y-91626027D01*
X137799771Y-91697676D01*
X137799762Y-91697681D01*
X137644092Y-91801697D01*
X137644088Y-91801700D01*
X137511700Y-91934088D01*
X137511697Y-91934092D01*
X137407681Y-92089762D01*
X137407676Y-92089771D01*
X137336027Y-92262748D01*
X137336025Y-92262756D01*
X137299500Y-92446379D01*
X120250500Y-92446379D01*
X120250500Y-89957399D01*
X141174500Y-89957399D01*
X141174500Y-90082601D01*
X141206905Y-90203536D01*
X141269505Y-90311964D01*
X141358036Y-90400495D01*
X141466464Y-90463095D01*
X141587399Y-90495500D01*
X141587401Y-90495500D01*
X141712599Y-90495500D01*
X141712601Y-90495500D01*
X141833536Y-90463095D01*
X141941964Y-90400495D01*
X142030495Y-90311964D01*
X142093095Y-90203536D01*
X142125500Y-90082601D01*
X142125500Y-89957399D01*
X142674500Y-89957399D01*
X142674500Y-90082601D01*
X142706905Y-90203536D01*
X142769505Y-90311964D01*
X142858036Y-90400495D01*
X142966464Y-90463095D01*
X143087399Y-90495500D01*
X143087401Y-90495500D01*
X143212599Y-90495500D01*
X143212601Y-90495500D01*
X143333536Y-90463095D01*
X143441964Y-90400495D01*
X143530495Y-90311964D01*
X143593095Y-90203536D01*
X143625500Y-90082601D01*
X143625500Y-89957399D01*
X143593095Y-89836464D01*
X143579201Y-89812399D01*
X149624500Y-89812399D01*
X149624500Y-89937601D01*
X149656905Y-90058536D01*
X149719505Y-90166964D01*
X149808036Y-90255495D01*
X149916464Y-90318095D01*
X150037399Y-90350500D01*
X150037401Y-90350500D01*
X150162599Y-90350500D01*
X150162601Y-90350500D01*
X150283536Y-90318095D01*
X150391964Y-90255495D01*
X150480495Y-90166964D01*
X150543095Y-90058536D01*
X150547876Y-90040691D01*
X168049500Y-90040691D01*
X168049500Y-90159309D01*
X168080201Y-90273886D01*
X168139511Y-90376613D01*
X168223387Y-90460489D01*
X168326114Y-90519799D01*
X168440691Y-90550500D01*
X168440694Y-90550500D01*
X168559306Y-90550500D01*
X168559309Y-90550500D01*
X168673886Y-90519799D01*
X168776613Y-90460489D01*
X168860489Y-90376613D01*
X168919799Y-90273886D01*
X168950500Y-90159309D01*
X168950500Y-90040691D01*
X169349500Y-90040691D01*
X169349500Y-90159309D01*
X169380201Y-90273886D01*
X169439511Y-90376613D01*
X169523387Y-90460489D01*
X169626114Y-90519799D01*
X169740691Y-90550500D01*
X169740694Y-90550500D01*
X169859306Y-90550500D01*
X169859309Y-90550500D01*
X169973886Y-90519799D01*
X170076613Y-90460489D01*
X170160489Y-90376613D01*
X170219799Y-90273886D01*
X170250500Y-90159309D01*
X170250500Y-90040691D01*
X170649500Y-90040691D01*
X170649500Y-90159309D01*
X170680201Y-90273886D01*
X170739511Y-90376613D01*
X170823387Y-90460489D01*
X170926114Y-90519799D01*
X171040691Y-90550500D01*
X171040694Y-90550500D01*
X171159306Y-90550500D01*
X171159309Y-90550500D01*
X171273886Y-90519799D01*
X171376613Y-90460489D01*
X171460489Y-90376613D01*
X171519799Y-90273886D01*
X171550500Y-90159309D01*
X171550500Y-90040691D01*
X171519799Y-89926114D01*
X171460489Y-89823387D01*
X171376613Y-89739511D01*
X171273886Y-89680201D01*
X171159309Y-89649500D01*
X171040691Y-89649500D01*
X170926114Y-89680201D01*
X170926112Y-89680201D01*
X170926112Y-89680202D01*
X170823387Y-89739511D01*
X170823384Y-89739513D01*
X170739513Y-89823384D01*
X170739511Y-89823387D01*
X170680201Y-89926114D01*
X170649500Y-90040691D01*
X170250500Y-90040691D01*
X170219799Y-89926114D01*
X170160489Y-89823387D01*
X170076613Y-89739511D01*
X169973886Y-89680201D01*
X169859309Y-89649500D01*
X169740691Y-89649500D01*
X169626114Y-89680201D01*
X169626112Y-89680201D01*
X169626112Y-89680202D01*
X169523387Y-89739511D01*
X169523384Y-89739513D01*
X169439513Y-89823384D01*
X169439511Y-89823387D01*
X169380201Y-89926114D01*
X169349500Y-90040691D01*
X168950500Y-90040691D01*
X168919799Y-89926114D01*
X168860489Y-89823387D01*
X168776613Y-89739511D01*
X168673886Y-89680201D01*
X168559309Y-89649500D01*
X168440691Y-89649500D01*
X168326114Y-89680201D01*
X168326112Y-89680201D01*
X168326112Y-89680202D01*
X168223387Y-89739511D01*
X168223384Y-89739513D01*
X168139513Y-89823384D01*
X168139511Y-89823387D01*
X168080201Y-89926114D01*
X168049500Y-90040691D01*
X150547876Y-90040691D01*
X150548069Y-90039972D01*
X150558655Y-90000469D01*
X150565724Y-89974083D01*
X150575500Y-89937601D01*
X150575500Y-89812399D01*
X150543095Y-89691464D01*
X150480495Y-89583036D01*
X150391964Y-89494505D01*
X150283536Y-89431905D01*
X150283537Y-89431905D01*
X150243224Y-89421103D01*
X150162601Y-89399500D01*
X150037399Y-89399500D01*
X149956775Y-89421103D01*
X149916463Y-89431905D01*
X149808037Y-89494504D01*
X149808034Y-89494506D01*
X149719506Y-89583034D01*
X149719504Y-89583037D01*
X149656905Y-89691463D01*
X149656905Y-89691464D01*
X149624500Y-89812399D01*
X143579201Y-89812399D01*
X143530495Y-89728036D01*
X143441964Y-89639505D01*
X143333536Y-89576905D01*
X143333537Y-89576905D01*
X143293224Y-89566103D01*
X143212601Y-89544500D01*
X143087399Y-89544500D01*
X143006775Y-89566103D01*
X142966463Y-89576905D01*
X142858037Y-89639504D01*
X142858034Y-89639506D01*
X142769506Y-89728034D01*
X142769504Y-89728037D01*
X142706905Y-89836463D01*
X142706905Y-89836464D01*
X142674500Y-89957399D01*
X142125500Y-89957399D01*
X142093095Y-89836464D01*
X142030495Y-89728036D01*
X141941964Y-89639505D01*
X141833536Y-89576905D01*
X141833537Y-89576905D01*
X141793224Y-89566103D01*
X141712601Y-89544500D01*
X141587399Y-89544500D01*
X141506775Y-89566103D01*
X141466463Y-89576905D01*
X141358037Y-89639504D01*
X141358034Y-89639506D01*
X141269506Y-89728034D01*
X141269504Y-89728037D01*
X141206905Y-89836463D01*
X141206905Y-89836464D01*
X141174500Y-89957399D01*
X120250500Y-89957399D01*
X120250500Y-88740691D01*
X168049500Y-88740691D01*
X168049500Y-88859309D01*
X168080201Y-88973886D01*
X168139511Y-89076613D01*
X168223387Y-89160489D01*
X168326114Y-89219799D01*
X168440691Y-89250500D01*
X168440694Y-89250500D01*
X168559306Y-89250500D01*
X168559309Y-89250500D01*
X168673886Y-89219799D01*
X168776613Y-89160489D01*
X168860489Y-89076613D01*
X168919799Y-88973886D01*
X168950500Y-88859309D01*
X168950500Y-88740691D01*
X169349500Y-88740691D01*
X169349500Y-88859309D01*
X169380201Y-88973886D01*
X169439511Y-89076613D01*
X169523387Y-89160489D01*
X169626114Y-89219799D01*
X169740691Y-89250500D01*
X169740694Y-89250500D01*
X169859306Y-89250500D01*
X169859309Y-89250500D01*
X169973886Y-89219799D01*
X170076613Y-89160489D01*
X170160489Y-89076613D01*
X170219799Y-88973886D01*
X170250500Y-88859309D01*
X170250500Y-88740691D01*
X170649500Y-88740691D01*
X170649500Y-88859309D01*
X170680201Y-88973886D01*
X170739511Y-89076613D01*
X170823387Y-89160489D01*
X170926114Y-89219799D01*
X171040691Y-89250500D01*
X171040694Y-89250500D01*
X171159306Y-89250500D01*
X171159309Y-89250500D01*
X171273886Y-89219799D01*
X171376613Y-89160489D01*
X171460489Y-89076613D01*
X171519799Y-88973886D01*
X171550500Y-88859309D01*
X171550500Y-88740691D01*
X171519799Y-88626114D01*
X171460489Y-88523387D01*
X171376613Y-88439511D01*
X171273886Y-88380201D01*
X171159309Y-88349500D01*
X171040691Y-88349500D01*
X170926114Y-88380201D01*
X170926112Y-88380201D01*
X170926112Y-88380202D01*
X170823387Y-88439511D01*
X170823384Y-88439513D01*
X170739513Y-88523384D01*
X170739511Y-88523387D01*
X170680201Y-88626114D01*
X170649500Y-88740691D01*
X170250500Y-88740691D01*
X170219799Y-88626114D01*
X170160489Y-88523387D01*
X170076613Y-88439511D01*
X169973886Y-88380201D01*
X169859309Y-88349500D01*
X169740691Y-88349500D01*
X169626114Y-88380201D01*
X169626112Y-88380201D01*
X169626112Y-88380202D01*
X169523387Y-88439511D01*
X169523384Y-88439513D01*
X169439513Y-88523384D01*
X169439511Y-88523387D01*
X169380201Y-88626114D01*
X169349500Y-88740691D01*
X168950500Y-88740691D01*
X168919799Y-88626114D01*
X168860489Y-88523387D01*
X168776613Y-88439511D01*
X168673886Y-88380201D01*
X168559309Y-88349500D01*
X168440691Y-88349500D01*
X168326114Y-88380201D01*
X168326112Y-88380201D01*
X168326112Y-88380202D01*
X168223387Y-88439511D01*
X168223384Y-88439513D01*
X168139513Y-88523384D01*
X168139511Y-88523387D01*
X168080201Y-88626114D01*
X168049500Y-88740691D01*
X120250500Y-88740691D01*
X120250500Y-87366379D01*
X137299500Y-87366379D01*
X137299500Y-87553620D01*
X137336025Y-87737243D01*
X137336027Y-87737251D01*
X137407676Y-87910228D01*
X137407681Y-87910237D01*
X137511697Y-88065907D01*
X137511700Y-88065911D01*
X137644088Y-88198299D01*
X137644092Y-88198302D01*
X137799762Y-88302318D01*
X137799768Y-88302321D01*
X137799769Y-88302322D01*
X137972749Y-88373973D01*
X138156379Y-88410499D01*
X138156383Y-88410500D01*
X138156384Y-88410500D01*
X138343617Y-88410500D01*
X138343618Y-88410499D01*
X138527251Y-88373973D01*
X138700231Y-88302322D01*
X138855908Y-88198302D01*
X138988302Y-88065908D01*
X139092322Y-87910231D01*
X139163973Y-87737251D01*
X139200500Y-87553616D01*
X139200500Y-87366384D01*
X139200499Y-87366379D01*
X157799500Y-87366379D01*
X157799500Y-87553620D01*
X157836025Y-87737243D01*
X157836027Y-87737251D01*
X157907676Y-87910228D01*
X157907681Y-87910237D01*
X158011697Y-88065907D01*
X158011700Y-88065911D01*
X158144088Y-88198299D01*
X158144092Y-88198302D01*
X158299762Y-88302318D01*
X158299768Y-88302321D01*
X158299769Y-88302322D01*
X158472749Y-88373973D01*
X158656379Y-88410499D01*
X158656383Y-88410500D01*
X158656384Y-88410500D01*
X158843617Y-88410500D01*
X158843618Y-88410499D01*
X159027251Y-88373973D01*
X159200231Y-88302322D01*
X159355908Y-88198302D01*
X159488302Y-88065908D01*
X159592322Y-87910231D01*
X159663973Y-87737251D01*
X159700500Y-87553616D01*
X159700500Y-87366384D01*
X159663973Y-87182749D01*
X159592322Y-87009769D01*
X159592321Y-87009768D01*
X159592318Y-87009762D01*
X159488302Y-86854092D01*
X159488299Y-86854088D01*
X159355911Y-86721700D01*
X159355907Y-86721697D01*
X159200237Y-86617681D01*
X159200228Y-86617676D01*
X159027251Y-86546027D01*
X159027243Y-86546025D01*
X158843620Y-86509500D01*
X158843616Y-86509500D01*
X158656384Y-86509500D01*
X158656379Y-86509500D01*
X158472756Y-86546025D01*
X158472748Y-86546027D01*
X158299771Y-86617676D01*
X158299762Y-86617681D01*
X158144092Y-86721697D01*
X158144088Y-86721700D01*
X158011700Y-86854088D01*
X158011697Y-86854092D01*
X157907681Y-87009762D01*
X157907676Y-87009771D01*
X157836027Y-87182748D01*
X157836025Y-87182756D01*
X157799500Y-87366379D01*
X139200499Y-87366379D01*
X139163973Y-87182749D01*
X139092322Y-87009769D01*
X139092321Y-87009768D01*
X139092318Y-87009762D01*
X138988302Y-86854092D01*
X138988299Y-86854088D01*
X138855911Y-86721700D01*
X138855907Y-86721697D01*
X138700237Y-86617681D01*
X138700228Y-86617676D01*
X138527251Y-86546027D01*
X138527243Y-86546025D01*
X138343620Y-86509500D01*
X138343616Y-86509500D01*
X138156384Y-86509500D01*
X138156379Y-86509500D01*
X137972756Y-86546025D01*
X137972748Y-86546027D01*
X137799771Y-86617676D01*
X137799762Y-86617681D01*
X137644092Y-86721697D01*
X137644088Y-86721700D01*
X137511700Y-86854088D01*
X137511697Y-86854092D01*
X137407681Y-87009762D01*
X137407676Y-87009771D01*
X137336027Y-87182748D01*
X137336025Y-87182756D01*
X137299500Y-87366379D01*
X120250500Y-87366379D01*
X120250500Y-84597399D01*
X139599500Y-84597399D01*
X139599500Y-84722601D01*
X139631905Y-84843536D01*
X139694505Y-84951964D01*
X139783036Y-85040495D01*
X139891464Y-85103095D01*
X140012399Y-85135500D01*
X140012401Y-85135500D01*
X140137599Y-85135500D01*
X140137601Y-85135500D01*
X140258536Y-85103095D01*
X140366964Y-85040495D01*
X140455495Y-84951964D01*
X140518095Y-84843536D01*
X140550500Y-84722601D01*
X140550500Y-84597399D01*
X145759500Y-84597399D01*
X145759500Y-84722601D01*
X145791905Y-84843536D01*
X145854505Y-84951964D01*
X145943036Y-85040495D01*
X146051464Y-85103095D01*
X146172399Y-85135500D01*
X146172401Y-85135500D01*
X146297599Y-85135500D01*
X146297601Y-85135500D01*
X146418536Y-85103095D01*
X146526964Y-85040495D01*
X146615495Y-84951964D01*
X146678095Y-84843536D01*
X146696727Y-84774003D01*
X149194500Y-84774003D01*
X149194500Y-85726007D01*
X149199197Y-85769686D01*
X149210397Y-85821174D01*
X149212890Y-85831372D01*
X149212891Y-85831375D01*
X149255899Y-85912083D01*
X149255901Y-85912086D01*
X149301660Y-85964895D01*
X149319242Y-85982839D01*
X149319246Y-85982843D01*
X149319247Y-85982844D01*
X149319249Y-85982845D01*
X149399059Y-86027488D01*
X149399063Y-86027490D01*
X149466102Y-86047175D01*
X149524000Y-86055500D01*
X149524004Y-86055500D01*
X158175991Y-86055500D01*
X158176000Y-86055500D01*
X158219684Y-86050803D01*
X158248875Y-86044452D01*
X158271174Y-86039602D01*
X158271190Y-86039598D01*
X158271195Y-86039597D01*
X158281373Y-86037110D01*
X158362085Y-85994100D01*
X158414889Y-85948345D01*
X158432843Y-85930754D01*
X158477490Y-85850937D01*
X158497175Y-85783898D01*
X158505500Y-85726000D01*
X158505500Y-84774000D01*
X158500803Y-84730316D01*
X158496897Y-84712364D01*
X158489602Y-84678825D01*
X158489348Y-84677789D01*
X158487110Y-84668627D01*
X158444100Y-84587915D01*
X158398345Y-84535111D01*
X158398339Y-84535104D01*
X158380757Y-84517160D01*
X158380756Y-84517159D01*
X158380754Y-84517157D01*
X158380752Y-84517156D01*
X158380750Y-84517154D01*
X158300940Y-84472511D01*
X158300935Y-84472509D01*
X158233903Y-84452826D01*
X158233899Y-84452825D01*
X158233898Y-84452825D01*
X158176000Y-84444500D01*
X156735505Y-84444500D01*
X156668466Y-84424815D01*
X156622711Y-84372011D01*
X156612767Y-84302853D01*
X156641792Y-84239297D01*
X156673506Y-84213112D01*
X156673534Y-84213095D01*
X156673536Y-84213095D01*
X156781964Y-84150495D01*
X156870495Y-84061964D01*
X156933095Y-83953536D01*
X156965500Y-83832601D01*
X156965500Y-83707399D01*
X156933095Y-83586464D01*
X156870495Y-83478036D01*
X156781964Y-83389505D01*
X156673536Y-83326905D01*
X156673537Y-83326905D01*
X156633224Y-83316103D01*
X156552601Y-83294500D01*
X156427399Y-83294500D01*
X156346775Y-83316103D01*
X156306463Y-83326905D01*
X156198037Y-83389504D01*
X156198034Y-83389506D01*
X156109506Y-83478034D01*
X156109504Y-83478037D01*
X156046905Y-83586463D01*
X156046905Y-83586464D01*
X156014500Y-83707399D01*
X156014500Y-83832601D01*
X156046905Y-83953536D01*
X156109505Y-84061964D01*
X156198036Y-84150495D01*
X156306464Y-84213095D01*
X156306465Y-84213095D01*
X156306494Y-84213112D01*
X156354710Y-84263679D01*
X156367934Y-84332286D01*
X156341966Y-84397151D01*
X156285052Y-84437680D01*
X156244495Y-84444500D01*
X150575505Y-84444500D01*
X150508466Y-84424815D01*
X150462711Y-84372011D01*
X150452767Y-84302853D01*
X150481792Y-84239297D01*
X150513506Y-84213112D01*
X150513534Y-84213095D01*
X150513536Y-84213095D01*
X150621964Y-84150495D01*
X150710495Y-84061964D01*
X150773095Y-83953536D01*
X150805500Y-83832601D01*
X150805500Y-83707399D01*
X150773095Y-83586464D01*
X150710495Y-83478036D01*
X150621964Y-83389505D01*
X150513536Y-83326905D01*
X150513537Y-83326905D01*
X150473224Y-83316103D01*
X150392601Y-83294500D01*
X150267399Y-83294500D01*
X150186775Y-83316103D01*
X150146463Y-83326905D01*
X150038037Y-83389504D01*
X150038034Y-83389506D01*
X149949506Y-83478034D01*
X149949504Y-83478037D01*
X149886905Y-83586463D01*
X149886905Y-83586464D01*
X149854500Y-83707399D01*
X149854500Y-83832601D01*
X149886905Y-83953536D01*
X149949505Y-84061964D01*
X150038036Y-84150495D01*
X150146464Y-84213095D01*
X150146465Y-84213095D01*
X150146494Y-84213112D01*
X150194710Y-84263679D01*
X150207934Y-84332286D01*
X150181966Y-84397151D01*
X150125052Y-84437680D01*
X150084495Y-84444500D01*
X149523992Y-84444500D01*
X149480313Y-84449197D01*
X149428825Y-84460397D01*
X149418627Y-84462890D01*
X149418624Y-84462891D01*
X149337916Y-84505899D01*
X149337913Y-84505901D01*
X149285104Y-84551660D01*
X149267160Y-84569242D01*
X149267154Y-84569249D01*
X149222511Y-84649059D01*
X149222509Y-84649064D01*
X149202826Y-84716096D01*
X149202825Y-84716101D01*
X149202825Y-84716102D01*
X149194502Y-84773992D01*
X149194500Y-84774003D01*
X146696727Y-84774003D01*
X146710500Y-84722601D01*
X146710500Y-84597399D01*
X146678095Y-84476464D01*
X146615495Y-84368036D01*
X146526964Y-84279505D01*
X146418536Y-84216905D01*
X146418537Y-84216905D01*
X146378224Y-84206103D01*
X146297601Y-84184500D01*
X146172399Y-84184500D01*
X146091775Y-84206103D01*
X146051463Y-84216905D01*
X145943037Y-84279504D01*
X145943034Y-84279506D01*
X145854506Y-84368034D01*
X145854504Y-84368037D01*
X145791905Y-84476463D01*
X145784017Y-84505901D01*
X145759500Y-84597399D01*
X140550500Y-84597399D01*
X140518095Y-84476464D01*
X140455495Y-84368036D01*
X140366964Y-84279505D01*
X140258536Y-84216905D01*
X140258537Y-84216905D01*
X140218224Y-84206103D01*
X140137601Y-84184500D01*
X140012399Y-84184500D01*
X139931775Y-84206103D01*
X139891463Y-84216905D01*
X139783037Y-84279504D01*
X139783034Y-84279506D01*
X139694506Y-84368034D01*
X139694504Y-84368037D01*
X139631905Y-84476463D01*
X139624017Y-84505901D01*
X139599500Y-84597399D01*
X120250500Y-84597399D01*
X120250500Y-82286379D01*
X137299500Y-82286379D01*
X137299500Y-82473620D01*
X137336025Y-82657243D01*
X137336027Y-82657251D01*
X137407676Y-82830228D01*
X137407681Y-82830237D01*
X137511697Y-82985907D01*
X137511700Y-82985911D01*
X137644088Y-83118299D01*
X137644092Y-83118302D01*
X137799762Y-83222318D01*
X137799768Y-83222321D01*
X137799769Y-83222322D01*
X137972749Y-83293973D01*
X138138311Y-83326905D01*
X138156379Y-83330499D01*
X138156383Y-83330500D01*
X138156384Y-83330500D01*
X138343617Y-83330500D01*
X138343618Y-83330499D01*
X138527251Y-83293973D01*
X138700231Y-83222322D01*
X138855908Y-83118302D01*
X138988302Y-82985908D01*
X139092322Y-82830231D01*
X139163973Y-82657251D01*
X139200500Y-82473616D01*
X139200500Y-82286384D01*
X139200499Y-82286379D01*
X157799500Y-82286379D01*
X157799500Y-82473620D01*
X157836025Y-82657243D01*
X157836027Y-82657251D01*
X157907676Y-82830228D01*
X157907681Y-82830237D01*
X158011697Y-82985907D01*
X158011700Y-82985911D01*
X158144088Y-83118299D01*
X158144092Y-83118302D01*
X158299762Y-83222318D01*
X158299768Y-83222321D01*
X158299769Y-83222322D01*
X158472749Y-83293973D01*
X158638311Y-83326905D01*
X158656379Y-83330499D01*
X158656383Y-83330500D01*
X158656384Y-83330500D01*
X158843617Y-83330500D01*
X158843618Y-83330499D01*
X159027251Y-83293973D01*
X159200231Y-83222322D01*
X159355908Y-83118302D01*
X159488302Y-82985908D01*
X159592322Y-82830231D01*
X159663973Y-82657251D01*
X159700500Y-82473616D01*
X159700500Y-82286384D01*
X159663973Y-82102749D01*
X159592322Y-81929769D01*
X159592321Y-81929768D01*
X159592318Y-81929762D01*
X159488302Y-81774092D01*
X159488299Y-81774088D01*
X159355911Y-81641700D01*
X159355907Y-81641697D01*
X159200237Y-81537681D01*
X159200228Y-81537676D01*
X159027251Y-81466027D01*
X159027243Y-81466025D01*
X158843620Y-81429500D01*
X158843616Y-81429500D01*
X158656384Y-81429500D01*
X158656379Y-81429500D01*
X158472756Y-81466025D01*
X158472748Y-81466027D01*
X158299771Y-81537676D01*
X158299762Y-81537681D01*
X158144092Y-81641697D01*
X158144088Y-81641700D01*
X158011700Y-81774088D01*
X158011697Y-81774092D01*
X157907681Y-81929762D01*
X157907676Y-81929771D01*
X157836027Y-82102748D01*
X157836025Y-82102756D01*
X157799500Y-82286379D01*
X139200499Y-82286379D01*
X139163973Y-82102749D01*
X139092322Y-81929769D01*
X139092321Y-81929768D01*
X139092318Y-81929762D01*
X138988302Y-81774092D01*
X138988299Y-81774088D01*
X138855911Y-81641700D01*
X138855907Y-81641697D01*
X138700237Y-81537681D01*
X138700228Y-81537676D01*
X138527251Y-81466027D01*
X138527243Y-81466025D01*
X138343620Y-81429500D01*
X138343616Y-81429500D01*
X138156384Y-81429500D01*
X138156379Y-81429500D01*
X137972756Y-81466025D01*
X137972748Y-81466027D01*
X137799771Y-81537676D01*
X137799762Y-81537681D01*
X137644092Y-81641697D01*
X137644088Y-81641700D01*
X137511700Y-81774088D01*
X137511697Y-81774092D01*
X137407681Y-81929762D01*
X137407676Y-81929771D01*
X137336027Y-82102748D01*
X137336025Y-82102756D01*
X137299500Y-82286379D01*
X120250500Y-82286379D01*
X120250500Y-79656379D01*
X139929500Y-79656379D01*
X139929500Y-79843620D01*
X139966025Y-80027243D01*
X139966027Y-80027251D01*
X140037676Y-80200228D01*
X140037681Y-80200237D01*
X140141697Y-80355907D01*
X140141700Y-80355911D01*
X140274088Y-80488299D01*
X140274092Y-80488302D01*
X140429762Y-80592318D01*
X140429768Y-80592321D01*
X140429769Y-80592322D01*
X140602749Y-80663973D01*
X140786379Y-80700499D01*
X140786383Y-80700500D01*
X140786384Y-80700500D01*
X140973617Y-80700500D01*
X140973618Y-80700499D01*
X141157251Y-80663973D01*
X141330231Y-80592322D01*
X141485908Y-80488302D01*
X141618302Y-80355908D01*
X141722322Y-80200231D01*
X141793973Y-80027251D01*
X141830500Y-79843616D01*
X141830500Y-79656384D01*
X141830499Y-79656379D01*
X145009500Y-79656379D01*
X145009500Y-79843620D01*
X145046025Y-80027243D01*
X145046027Y-80027251D01*
X145117676Y-80200228D01*
X145117681Y-80200237D01*
X145221697Y-80355907D01*
X145221700Y-80355911D01*
X145354088Y-80488299D01*
X145354092Y-80488302D01*
X145509762Y-80592318D01*
X145509768Y-80592321D01*
X145509769Y-80592322D01*
X145682749Y-80663973D01*
X145866379Y-80700499D01*
X145866383Y-80700500D01*
X145866384Y-80700500D01*
X146053617Y-80700500D01*
X146053618Y-80700499D01*
X146237251Y-80663973D01*
X146410231Y-80592322D01*
X146565908Y-80488302D01*
X146698302Y-80355908D01*
X146802322Y-80200231D01*
X146873973Y-80027251D01*
X146910500Y-79843616D01*
X146910500Y-79656384D01*
X146910499Y-79656379D01*
X150089500Y-79656379D01*
X150089500Y-79843620D01*
X150126025Y-80027243D01*
X150126027Y-80027251D01*
X150197676Y-80200228D01*
X150197681Y-80200237D01*
X150301697Y-80355907D01*
X150301700Y-80355911D01*
X150434088Y-80488299D01*
X150434092Y-80488302D01*
X150589762Y-80592318D01*
X150589768Y-80592321D01*
X150589769Y-80592322D01*
X150762749Y-80663973D01*
X150946379Y-80700499D01*
X150946383Y-80700500D01*
X150946384Y-80700500D01*
X151133617Y-80700500D01*
X151133618Y-80700499D01*
X151317251Y-80663973D01*
X151490231Y-80592322D01*
X151645908Y-80488302D01*
X151778302Y-80355908D01*
X151882322Y-80200231D01*
X151953973Y-80027251D01*
X151990500Y-79843616D01*
X151990500Y-79656384D01*
X151990499Y-79656379D01*
X155169500Y-79656379D01*
X155169500Y-79843620D01*
X155206025Y-80027243D01*
X155206027Y-80027251D01*
X155277676Y-80200228D01*
X155277681Y-80200237D01*
X155381697Y-80355907D01*
X155381700Y-80355911D01*
X155514088Y-80488299D01*
X155514092Y-80488302D01*
X155669762Y-80592318D01*
X155669768Y-80592321D01*
X155669769Y-80592322D01*
X155842749Y-80663973D01*
X156026379Y-80700499D01*
X156026383Y-80700500D01*
X156026384Y-80700500D01*
X156213617Y-80700500D01*
X156213618Y-80700499D01*
X156397251Y-80663973D01*
X156570231Y-80592322D01*
X156725908Y-80488302D01*
X156858302Y-80355908D01*
X156962322Y-80200231D01*
X157033973Y-80027251D01*
X157070500Y-79843616D01*
X157070500Y-79656384D01*
X157033973Y-79472749D01*
X156962322Y-79299769D01*
X156962321Y-79299768D01*
X156962318Y-79299762D01*
X156858302Y-79144092D01*
X156858299Y-79144088D01*
X156725911Y-79011700D01*
X156725907Y-79011697D01*
X156570237Y-78907681D01*
X156570228Y-78907676D01*
X156397251Y-78836027D01*
X156397243Y-78836025D01*
X156213620Y-78799500D01*
X156213616Y-78799500D01*
X156026384Y-78799500D01*
X156026379Y-78799500D01*
X155842756Y-78836025D01*
X155842748Y-78836027D01*
X155669771Y-78907676D01*
X155669762Y-78907681D01*
X155514092Y-79011697D01*
X155514088Y-79011700D01*
X155381700Y-79144088D01*
X155381697Y-79144092D01*
X155277681Y-79299762D01*
X155277676Y-79299771D01*
X155206027Y-79472748D01*
X155206025Y-79472756D01*
X155169500Y-79656379D01*
X151990499Y-79656379D01*
X151953973Y-79472749D01*
X151882322Y-79299769D01*
X151882321Y-79299768D01*
X151882318Y-79299762D01*
X151778302Y-79144092D01*
X151778299Y-79144088D01*
X151645911Y-79011700D01*
X151645907Y-79011697D01*
X151490237Y-78907681D01*
X151490228Y-78907676D01*
X151317251Y-78836027D01*
X151317243Y-78836025D01*
X151133620Y-78799500D01*
X151133616Y-78799500D01*
X150946384Y-78799500D01*
X150946379Y-78799500D01*
X150762756Y-78836025D01*
X150762748Y-78836027D01*
X150589771Y-78907676D01*
X150589762Y-78907681D01*
X150434092Y-79011697D01*
X150434088Y-79011700D01*
X150301700Y-79144088D01*
X150301697Y-79144092D01*
X150197681Y-79299762D01*
X150197676Y-79299771D01*
X150126027Y-79472748D01*
X150126025Y-79472756D01*
X150089500Y-79656379D01*
X146910499Y-79656379D01*
X146873973Y-79472749D01*
X146802322Y-79299769D01*
X146802321Y-79299768D01*
X146802318Y-79299762D01*
X146698302Y-79144092D01*
X146698299Y-79144088D01*
X146565911Y-79011700D01*
X146565907Y-79011697D01*
X146410237Y-78907681D01*
X146410228Y-78907676D01*
X146237251Y-78836027D01*
X146237243Y-78836025D01*
X146053620Y-78799500D01*
X146053616Y-78799500D01*
X145866384Y-78799500D01*
X145866379Y-78799500D01*
X145682756Y-78836025D01*
X145682748Y-78836027D01*
X145509771Y-78907676D01*
X145509762Y-78907681D01*
X145354092Y-79011697D01*
X145354088Y-79011700D01*
X145221700Y-79144088D01*
X145221697Y-79144092D01*
X145117681Y-79299762D01*
X145117676Y-79299771D01*
X145046027Y-79472748D01*
X145046025Y-79472756D01*
X145009500Y-79656379D01*
X141830499Y-79656379D01*
X141793973Y-79472749D01*
X141722322Y-79299769D01*
X141722321Y-79299768D01*
X141722318Y-79299762D01*
X141618302Y-79144092D01*
X141618299Y-79144088D01*
X141485911Y-79011700D01*
X141485907Y-79011697D01*
X141330237Y-78907681D01*
X141330228Y-78907676D01*
X141157251Y-78836027D01*
X141157243Y-78836025D01*
X140973620Y-78799500D01*
X140973616Y-78799500D01*
X140786384Y-78799500D01*
X140786379Y-78799500D01*
X140602756Y-78836025D01*
X140602748Y-78836027D01*
X140429771Y-78907676D01*
X140429762Y-78907681D01*
X140274092Y-79011697D01*
X140274088Y-79011700D01*
X140141700Y-79144088D01*
X140141697Y-79144092D01*
X140037681Y-79299762D01*
X140037676Y-79299771D01*
X139966027Y-79472748D01*
X139966025Y-79472756D01*
X139929500Y-79656379D01*
X120250500Y-79656379D01*
X120250500Y-73413389D01*
X139799500Y-73413389D01*
X139799500Y-73586611D01*
X139826598Y-73757701D01*
X139880127Y-73922445D01*
X139958768Y-74076788D01*
X140060586Y-74216928D01*
X140183072Y-74339414D01*
X140323212Y-74441232D01*
X140477555Y-74519873D01*
X140642299Y-74573402D01*
X140813389Y-74600500D01*
X140813390Y-74600500D01*
X140986610Y-74600500D01*
X140986611Y-74600500D01*
X141157701Y-74573402D01*
X141322445Y-74519873D01*
X141476788Y-74441232D01*
X141616928Y-74339414D01*
X141739414Y-74216928D01*
X141841232Y-74076788D01*
X141919873Y-73922445D01*
X141973402Y-73757701D01*
X142000500Y-73586611D01*
X142000500Y-73413389D01*
X144799500Y-73413389D01*
X144799500Y-73586611D01*
X144826598Y-73757701D01*
X144880127Y-73922445D01*
X144958768Y-74076788D01*
X145060586Y-74216928D01*
X145183072Y-74339414D01*
X145323212Y-74441232D01*
X145477555Y-74519873D01*
X145642299Y-74573402D01*
X145813389Y-74600500D01*
X145813390Y-74600500D01*
X145986610Y-74600500D01*
X145986611Y-74600500D01*
X146157701Y-74573402D01*
X146322445Y-74519873D01*
X146476788Y-74441232D01*
X146616928Y-74339414D01*
X146739414Y-74216928D01*
X146841232Y-74076788D01*
X146919873Y-73922445D01*
X146973402Y-73757701D01*
X147000500Y-73586611D01*
X147000500Y-73413389D01*
X149799500Y-73413389D01*
X149799500Y-73586611D01*
X149826598Y-73757701D01*
X149880127Y-73922445D01*
X149958768Y-74076788D01*
X150060586Y-74216928D01*
X150183072Y-74339414D01*
X150323212Y-74441232D01*
X150477555Y-74519873D01*
X150642299Y-74573402D01*
X150813389Y-74600500D01*
X150813390Y-74600500D01*
X150986610Y-74600500D01*
X150986611Y-74600500D01*
X151157701Y-74573402D01*
X151322445Y-74519873D01*
X151476788Y-74441232D01*
X151616928Y-74339414D01*
X151739414Y-74216928D01*
X151841232Y-74076788D01*
X151919873Y-73922445D01*
X151973402Y-73757701D01*
X152000500Y-73586611D01*
X152000500Y-73413389D01*
X154799500Y-73413389D01*
X154799500Y-73586611D01*
X154826598Y-73757701D01*
X154880127Y-73922445D01*
X154958768Y-74076788D01*
X155060586Y-74216928D01*
X155183072Y-74339414D01*
X155323212Y-74441232D01*
X155477555Y-74519873D01*
X155642299Y-74573402D01*
X155813389Y-74600500D01*
X155813390Y-74600500D01*
X155986610Y-74600500D01*
X155986611Y-74600500D01*
X156157701Y-74573402D01*
X156322445Y-74519873D01*
X156476788Y-74441232D01*
X156616928Y-74339414D01*
X156739414Y-74216928D01*
X156841232Y-74076788D01*
X156919873Y-73922445D01*
X156973402Y-73757701D01*
X157000500Y-73586611D01*
X157000500Y-73413389D01*
X156973402Y-73242299D01*
X156919873Y-73077555D01*
X156841232Y-72923212D01*
X156739414Y-72783072D01*
X156616928Y-72660586D01*
X156476788Y-72558768D01*
X156322445Y-72480127D01*
X156157701Y-72426598D01*
X156157699Y-72426597D01*
X156157698Y-72426597D01*
X156026271Y-72405781D01*
X155986611Y-72399500D01*
X155813389Y-72399500D01*
X155773728Y-72405781D01*
X155642302Y-72426597D01*
X155477552Y-72480128D01*
X155323211Y-72558768D01*
X155243256Y-72616859D01*
X155183072Y-72660586D01*
X155183070Y-72660588D01*
X155183069Y-72660588D01*
X155060588Y-72783069D01*
X155060588Y-72783070D01*
X155060586Y-72783072D01*
X155016859Y-72843256D01*
X154958768Y-72923211D01*
X154880128Y-73077552D01*
X154826597Y-73242302D01*
X154799500Y-73413389D01*
X152000500Y-73413389D01*
X151973402Y-73242299D01*
X151919873Y-73077555D01*
X151841232Y-72923212D01*
X151739414Y-72783072D01*
X151616928Y-72660586D01*
X151476788Y-72558768D01*
X151322445Y-72480127D01*
X151157701Y-72426598D01*
X151157699Y-72426597D01*
X151157698Y-72426597D01*
X151026271Y-72405781D01*
X150986611Y-72399500D01*
X150813389Y-72399500D01*
X150773728Y-72405781D01*
X150642302Y-72426597D01*
X150477552Y-72480128D01*
X150323211Y-72558768D01*
X150243256Y-72616859D01*
X150183072Y-72660586D01*
X150183070Y-72660588D01*
X150183069Y-72660588D01*
X150060588Y-72783069D01*
X150060588Y-72783070D01*
X150060586Y-72783072D01*
X150016859Y-72843256D01*
X149958768Y-72923211D01*
X149880128Y-73077552D01*
X149826597Y-73242302D01*
X149799500Y-73413389D01*
X147000500Y-73413389D01*
X146973402Y-73242299D01*
X146919873Y-73077555D01*
X146841232Y-72923212D01*
X146739414Y-72783072D01*
X146616928Y-72660586D01*
X146476788Y-72558768D01*
X146322445Y-72480127D01*
X146157701Y-72426598D01*
X146157699Y-72426597D01*
X146157698Y-72426597D01*
X146026271Y-72405781D01*
X145986611Y-72399500D01*
X145813389Y-72399500D01*
X145773728Y-72405781D01*
X145642302Y-72426597D01*
X145477552Y-72480128D01*
X145323211Y-72558768D01*
X145243256Y-72616859D01*
X145183072Y-72660586D01*
X145183070Y-72660588D01*
X145183069Y-72660588D01*
X145060588Y-72783069D01*
X145060588Y-72783070D01*
X145060586Y-72783072D01*
X145016859Y-72843256D01*
X144958768Y-72923211D01*
X144880128Y-73077552D01*
X144826597Y-73242302D01*
X144799500Y-73413389D01*
X142000500Y-73413389D01*
X141973402Y-73242299D01*
X141919873Y-73077555D01*
X141841232Y-72923212D01*
X141739414Y-72783072D01*
X141616928Y-72660586D01*
X141476788Y-72558768D01*
X141322445Y-72480127D01*
X141157701Y-72426598D01*
X141157699Y-72426597D01*
X141157698Y-72426597D01*
X141026271Y-72405781D01*
X140986611Y-72399500D01*
X140813389Y-72399500D01*
X140773728Y-72405781D01*
X140642302Y-72426597D01*
X140477552Y-72480128D01*
X140323211Y-72558768D01*
X140243256Y-72616859D01*
X140183072Y-72660586D01*
X140183070Y-72660588D01*
X140183069Y-72660588D01*
X140060588Y-72783069D01*
X140060588Y-72783070D01*
X140060586Y-72783072D01*
X140016859Y-72843256D01*
X139958768Y-72923211D01*
X139880128Y-73077552D01*
X139826597Y-73242302D01*
X139799500Y-73413389D01*
X120250500Y-73413389D01*
X120250500Y-69379317D01*
X120270185Y-69312278D01*
X120322989Y-69266523D01*
X120392147Y-69256579D01*
X120455703Y-69285604D01*
X120483858Y-69320864D01*
X120579769Y-69500303D01*
X120579780Y-69500321D01*
X120765393Y-69778109D01*
X120765403Y-69778123D01*
X120977361Y-70036395D01*
X121213604Y-70272638D01*
X121213609Y-70272642D01*
X121213610Y-70272643D01*
X121471882Y-70484601D01*
X121749685Y-70670224D01*
X121749694Y-70670229D01*
X121749696Y-70670230D01*
X122044338Y-70827719D01*
X122044340Y-70827719D01*
X122044346Y-70827723D01*
X122353024Y-70955582D01*
X122672749Y-71052569D01*
X122672755Y-71052570D01*
X122672758Y-71052571D01*
X122672769Y-71052574D01*
X122878243Y-71093444D01*
X123000441Y-71117751D01*
X123332944Y-71150500D01*
X123332947Y-71150500D01*
X123667053Y-71150500D01*
X123667056Y-71150500D01*
X123999559Y-71117751D01*
X124161757Y-71085487D01*
X124327230Y-71052574D01*
X124327241Y-71052571D01*
X124327241Y-71052570D01*
X124327251Y-71052569D01*
X124646976Y-70955582D01*
X124955654Y-70827723D01*
X125250315Y-70670224D01*
X125528118Y-70484601D01*
X125786390Y-70272643D01*
X126022643Y-70036390D01*
X126234601Y-69778118D01*
X126420224Y-69500315D01*
X126577723Y-69205654D01*
X126705582Y-68896976D01*
X126802569Y-68577251D01*
X126802571Y-68577241D01*
X126802574Y-68577230D01*
X126835164Y-68413389D01*
X139799500Y-68413389D01*
X139799500Y-68586611D01*
X139826598Y-68757701D01*
X139880127Y-68922445D01*
X139958768Y-69076788D01*
X140060586Y-69216928D01*
X140183072Y-69339414D01*
X140323212Y-69441232D01*
X140477555Y-69519873D01*
X140642299Y-69573402D01*
X140813389Y-69600500D01*
X140813390Y-69600500D01*
X140986610Y-69600500D01*
X140986611Y-69600500D01*
X141157701Y-69573402D01*
X141322445Y-69519873D01*
X141476788Y-69441232D01*
X141616928Y-69339414D01*
X141739414Y-69216928D01*
X141841232Y-69076788D01*
X141919873Y-68922445D01*
X141973402Y-68757701D01*
X142000500Y-68586611D01*
X142000500Y-68413389D01*
X144799500Y-68413389D01*
X144799500Y-68586611D01*
X144826598Y-68757701D01*
X144880127Y-68922445D01*
X144958768Y-69076788D01*
X145060586Y-69216928D01*
X145183072Y-69339414D01*
X145323212Y-69441232D01*
X145477555Y-69519873D01*
X145642299Y-69573402D01*
X145813389Y-69600500D01*
X145813390Y-69600500D01*
X145986610Y-69600500D01*
X145986611Y-69600500D01*
X146157701Y-69573402D01*
X146322445Y-69519873D01*
X146476788Y-69441232D01*
X146616928Y-69339414D01*
X146739414Y-69216928D01*
X146841232Y-69076788D01*
X146919873Y-68922445D01*
X146973402Y-68757701D01*
X147000500Y-68586611D01*
X147000500Y-68413389D01*
X149799500Y-68413389D01*
X149799500Y-68586611D01*
X149826598Y-68757701D01*
X149880127Y-68922445D01*
X149958768Y-69076788D01*
X150060586Y-69216928D01*
X150183072Y-69339414D01*
X150323212Y-69441232D01*
X150477555Y-69519873D01*
X150642299Y-69573402D01*
X150813389Y-69600500D01*
X150813390Y-69600500D01*
X150986610Y-69600500D01*
X150986611Y-69600500D01*
X151157701Y-69573402D01*
X151322445Y-69519873D01*
X151476788Y-69441232D01*
X151616928Y-69339414D01*
X151739414Y-69216928D01*
X151841232Y-69076788D01*
X151919873Y-68922445D01*
X151973402Y-68757701D01*
X152000500Y-68586611D01*
X152000500Y-68413389D01*
X154799500Y-68413389D01*
X154799500Y-68586611D01*
X154826598Y-68757701D01*
X154880127Y-68922445D01*
X154958768Y-69076788D01*
X155060586Y-69216928D01*
X155183072Y-69339414D01*
X155323212Y-69441232D01*
X155477555Y-69519873D01*
X155642299Y-69573402D01*
X155813389Y-69600500D01*
X155813390Y-69600500D01*
X155986610Y-69600500D01*
X155986611Y-69600500D01*
X156157701Y-69573402D01*
X156322445Y-69519873D01*
X156476788Y-69441232D01*
X156616928Y-69339414D01*
X156739414Y-69216928D01*
X156841232Y-69076788D01*
X156919873Y-68922445D01*
X156973402Y-68757701D01*
X157000500Y-68586611D01*
X157000500Y-68413389D01*
X156973402Y-68242299D01*
X156919873Y-68077555D01*
X156841232Y-67923212D01*
X156739414Y-67783072D01*
X156616928Y-67660586D01*
X156476788Y-67558768D01*
X156322445Y-67480127D01*
X156157701Y-67426598D01*
X156157699Y-67426597D01*
X156157698Y-67426597D01*
X156026271Y-67405781D01*
X155986611Y-67399500D01*
X155813389Y-67399500D01*
X155773728Y-67405781D01*
X155642302Y-67426597D01*
X155477552Y-67480128D01*
X155323211Y-67558768D01*
X155243256Y-67616859D01*
X155183072Y-67660586D01*
X155183070Y-67660588D01*
X155183069Y-67660588D01*
X155060588Y-67783069D01*
X155060588Y-67783070D01*
X155060586Y-67783072D01*
X155036844Y-67815750D01*
X154958768Y-67923211D01*
X154880128Y-68077552D01*
X154826597Y-68242302D01*
X154825448Y-68249559D01*
X154799500Y-68413389D01*
X152000500Y-68413389D01*
X151973402Y-68242299D01*
X151919873Y-68077555D01*
X151841232Y-67923212D01*
X151739414Y-67783072D01*
X151616928Y-67660586D01*
X151476788Y-67558768D01*
X151322445Y-67480127D01*
X151157701Y-67426598D01*
X151157699Y-67426597D01*
X151157698Y-67426597D01*
X151026271Y-67405781D01*
X150986611Y-67399500D01*
X150813389Y-67399500D01*
X150773728Y-67405781D01*
X150642302Y-67426597D01*
X150477552Y-67480128D01*
X150323211Y-67558768D01*
X150243256Y-67616859D01*
X150183072Y-67660586D01*
X150183070Y-67660588D01*
X150183069Y-67660588D01*
X150060588Y-67783069D01*
X150060588Y-67783070D01*
X150060586Y-67783072D01*
X150036844Y-67815750D01*
X149958768Y-67923211D01*
X149880128Y-68077552D01*
X149826597Y-68242302D01*
X149825448Y-68249559D01*
X149799500Y-68413389D01*
X147000500Y-68413389D01*
X146973402Y-68242299D01*
X146919873Y-68077555D01*
X146841232Y-67923212D01*
X146739414Y-67783072D01*
X146616928Y-67660586D01*
X146476788Y-67558768D01*
X146322445Y-67480127D01*
X146157701Y-67426598D01*
X146157699Y-67426597D01*
X146157698Y-67426597D01*
X146026271Y-67405781D01*
X145986611Y-67399500D01*
X145813389Y-67399500D01*
X145773728Y-67405781D01*
X145642302Y-67426597D01*
X145477552Y-67480128D01*
X145323211Y-67558768D01*
X145243256Y-67616859D01*
X145183072Y-67660586D01*
X145183070Y-67660588D01*
X145183069Y-67660588D01*
X145060588Y-67783069D01*
X145060588Y-67783070D01*
X145060586Y-67783072D01*
X145036844Y-67815750D01*
X144958768Y-67923211D01*
X144880128Y-68077552D01*
X144826597Y-68242302D01*
X144825448Y-68249559D01*
X144799500Y-68413389D01*
X142000500Y-68413389D01*
X141973402Y-68242299D01*
X141919873Y-68077555D01*
X141841232Y-67923212D01*
X141739414Y-67783072D01*
X141616928Y-67660586D01*
X141476788Y-67558768D01*
X141322445Y-67480127D01*
X141157701Y-67426598D01*
X141157699Y-67426597D01*
X141157698Y-67426597D01*
X141026271Y-67405781D01*
X140986611Y-67399500D01*
X140813389Y-67399500D01*
X140773728Y-67405781D01*
X140642302Y-67426597D01*
X140477552Y-67480128D01*
X140323211Y-67558768D01*
X140243256Y-67616859D01*
X140183072Y-67660586D01*
X140183070Y-67660588D01*
X140183069Y-67660588D01*
X140060588Y-67783069D01*
X140060588Y-67783070D01*
X140060586Y-67783072D01*
X140036844Y-67815750D01*
X139958768Y-67923211D01*
X139880128Y-68077552D01*
X139826597Y-68242302D01*
X139825448Y-68249559D01*
X139799500Y-68413389D01*
X126835164Y-68413389D01*
X126840945Y-68384326D01*
X126854511Y-68316120D01*
X126867751Y-68249559D01*
X126900500Y-67917056D01*
X126900500Y-67582944D01*
X126867751Y-67250441D01*
X126835361Y-67087604D01*
X126802574Y-66922769D01*
X126802571Y-66922758D01*
X126802570Y-66922755D01*
X126802569Y-66922749D01*
X126705582Y-66603024D01*
X126577723Y-66294346D01*
X126553851Y-66249685D01*
X126420230Y-65999696D01*
X126420229Y-65999694D01*
X126420224Y-65999685D01*
X126234601Y-65721882D01*
X126022643Y-65463610D01*
X126022642Y-65463609D01*
X126022638Y-65463604D01*
X125786395Y-65227361D01*
X125528123Y-65015403D01*
X125528122Y-65015402D01*
X125528118Y-65015399D01*
X125250315Y-64829776D01*
X125250310Y-64829773D01*
X125250303Y-64829769D01*
X125089374Y-64743751D01*
X125039529Y-64694789D01*
X125024069Y-64626651D01*
X125047901Y-64560971D01*
X125103458Y-64518603D01*
X125148566Y-64510395D01*
X148436512Y-64650122D01*
G37*
%TD.AperFunction*%
%TD*%
M02*
