%TF.GenerationSoftware,KiCad,Pcbnew,9.0.7+1*%
%TF.CreationDate,Date%
%TF.ProjectId,Cellule_de_force_V2,43656c6c-756c-4655-9f64-655f666f7263,+ (Unreleased)*%
%TF.SameCoordinates,Original*%
%TF.FileFunction,Legend,Bot*%
%TF.FilePolarity,Positive*%
%FSLAX46Y46*%
G04 Gerber Fmt 4.6, Leading zero omitted, Abs format (unit mm)*
G04 Created by KiCad*
%MOMM*%
%LPD*%
G01*
G04 APERTURE LIST*
G04 Aperture macros list*
%AMRoundRect*
0 Rectangle with rounded corners*
0 $1 Rounding radius*
0 $2 $3 $4 $5 $6 $7 $8 $9 X,Y pos of 4 corners*
0 Add a 4 corners polygon primitive as box body*
4,1,4,$2,$3,$4,$5,$6,$7,$8,$9,$2,$3,0*
0 Add four circle primitives for the rounded corners*
1,1,$1+$1,$2,$3*
1,1,$1+$1,$4,$5*
1,1,$1+$1,$6,$7*
1,1,$1+$1,$8,$9*
0 Add four rect primitives between the rounded corners*
20,1,$1+$1,$2,$3,$4,$5,0*
20,1,$1+$1,$4,$5,$6,$7,0*
20,1,$1+$1,$6,$7,$8,$9,0*
20,1,$1+$1,$8,$9,$2,$3,0*%
G04 Aperture macros list end*
%ADD10C,0.150000*%
%ADD11C,0.200000*%
%ADD12C,0.000000*%
%ADD13C,0.120000*%
%ADD14C,0.900000*%
%ADD15C,6.500000*%
%ADD16C,1.300000*%
%ADD17RoundRect,0.264706X-0.635294X-0.760294X0.635294X-0.760294X0.635294X0.760294X-0.635294X0.760294X0*%
%ADD18O,1.800000X2.050000*%
%ADD19C,1.704000*%
%ADD20C,2.004000*%
%ADD21C,1.600000*%
G04 APERTURE END LIST*
D10*
X138540000Y-108925000D02*
X158650000Y-108925000D01*
X158650000Y-114885000D01*
X138540000Y-114885000D01*
X138540000Y-108925000D01*
G36*
X138540000Y-108925000D02*
G01*
X158650000Y-108925000D01*
X158650000Y-114885000D01*
X138540000Y-114885000D01*
X138540000Y-108925000D01*
G37*
D11*
G36*
X156176418Y-106109653D02*
G01*
X156238402Y-106126373D01*
X156289477Y-106152669D01*
X156331521Y-106188415D01*
X156364456Y-106232673D01*
X156389093Y-106287018D01*
X156404943Y-106353565D01*
X156410655Y-106434979D01*
X156410655Y-106529256D01*
X155789302Y-106529256D01*
X155789302Y-106434979D01*
X155795041Y-106353997D01*
X155810988Y-106287608D01*
X155835828Y-106233204D01*
X155869108Y-106188721D01*
X155911514Y-106152836D01*
X155962949Y-106126443D01*
X156025285Y-106109669D01*
X156101017Y-106103663D01*
X156176418Y-106109653D01*
G37*
G36*
X156740608Y-109282403D02*
G01*
X155459349Y-109282403D01*
X155459349Y-108618632D01*
X155570460Y-108618632D01*
X155576812Y-108721499D01*
X155594935Y-108811637D01*
X155623842Y-108890866D01*
X155663125Y-108960718D01*
X155712976Y-109022365D01*
X155772660Y-109074946D01*
X155839904Y-109116017D01*
X155915779Y-109146027D01*
X156001751Y-109164748D01*
X156099612Y-109171292D01*
X156198603Y-109164610D01*
X156285230Y-109145521D01*
X156361377Y-109114963D01*
X156428582Y-109073173D01*
X156487958Y-109019678D01*
X156537185Y-108957163D01*
X156576170Y-108885819D01*
X156604987Y-108804367D01*
X156623123Y-108711167D01*
X156629497Y-108604282D01*
X156624610Y-108503837D01*
X156610263Y-108409255D01*
X156586244Y-108318163D01*
X156553293Y-108233339D01*
X156340314Y-108233339D01*
X156383810Y-108319674D01*
X156413770Y-108403087D01*
X156432003Y-108487916D01*
X156438011Y-108572165D01*
X156431859Y-108650341D01*
X156414617Y-108715243D01*
X156387402Y-108769297D01*
X156350327Y-108814331D01*
X156304290Y-108850034D01*
X156248573Y-108876478D01*
X156181195Y-108893346D01*
X156099612Y-108899389D01*
X156018635Y-108893560D01*
X155951574Y-108877286D01*
X155895984Y-108851791D01*
X155849935Y-108817445D01*
X155812556Y-108773799D01*
X155785277Y-108721670D01*
X155768070Y-108659343D01*
X155761946Y-108584499D01*
X155767015Y-108508356D01*
X155773766Y-108474296D01*
X155783073Y-108445158D01*
X155980788Y-108445158D01*
X155980788Y-108605687D01*
X156156643Y-108605687D01*
X156156643Y-108195786D01*
X155666570Y-108195786D01*
X155624478Y-108296134D01*
X155594457Y-108400034D01*
X155576514Y-108507131D01*
X155570460Y-108618632D01*
X155459349Y-108618632D01*
X155459349Y-107343318D01*
X155590000Y-107343318D01*
X156289572Y-107714262D01*
X155590000Y-107714262D01*
X155590000Y-107963633D01*
X156609958Y-107963633D01*
X156609958Y-107669870D01*
X155910385Y-107298927D01*
X156609958Y-107298927D01*
X156609958Y-107049616D01*
X155590000Y-107049616D01*
X155590000Y-107343318D01*
X155459349Y-107343318D01*
X155459349Y-106514907D01*
X155590000Y-106514907D01*
X155590000Y-106792245D01*
X156609958Y-106792245D01*
X156609958Y-106514907D01*
X156605366Y-106358448D01*
X156593479Y-106246308D01*
X156576802Y-106168876D01*
X156549313Y-106096021D01*
X156511953Y-106031343D01*
X156464450Y-105973848D01*
X156415769Y-105929866D01*
X156362866Y-105894509D01*
X156305265Y-105867297D01*
X156244202Y-105848337D01*
X156176442Y-105836532D01*
X156101017Y-105832431D01*
X156024641Y-105836544D01*
X155956306Y-105848361D01*
X155894998Y-105867297D01*
X155837200Y-105894525D01*
X155784199Y-105929885D01*
X155735507Y-105973848D01*
X155688025Y-106031822D01*
X155650637Y-106097085D01*
X155623094Y-106170647D01*
X155606399Y-106248644D01*
X155594556Y-106360373D01*
X155592356Y-106434979D01*
X155590000Y-106514907D01*
X155459349Y-106514907D01*
X155459349Y-105721320D01*
X156740608Y-105721320D01*
X156740608Y-109282403D01*
G37*
G36*
X148706418Y-108490141D02*
G01*
X148768402Y-108506861D01*
X148819477Y-108533157D01*
X148861521Y-108568903D01*
X148894456Y-108613161D01*
X148919093Y-108667506D01*
X148934943Y-108734053D01*
X148940655Y-108815467D01*
X148940655Y-108909744D01*
X148319302Y-108909744D01*
X148319302Y-108815467D01*
X148325041Y-108734485D01*
X148340988Y-108668096D01*
X148365828Y-108613692D01*
X148399108Y-108569209D01*
X148441514Y-108533324D01*
X148492949Y-108506931D01*
X148555285Y-108490157D01*
X148631017Y-108484151D01*
X148706418Y-108490141D01*
G37*
G36*
X148711300Y-107296589D02*
G01*
X148778633Y-107309989D01*
X148833968Y-107330695D01*
X148879289Y-107358008D01*
X148917983Y-107394407D01*
X148945304Y-107436834D01*
X148962112Y-107486478D01*
X148968011Y-107545221D01*
X148962126Y-107603570D01*
X148945340Y-107652978D01*
X148918023Y-107695299D01*
X148879289Y-107731700D01*
X148833968Y-107759014D01*
X148778633Y-107779720D01*
X148711300Y-107793120D01*
X148629612Y-107797951D01*
X148548336Y-107793129D01*
X148481227Y-107779744D01*
X148425967Y-107759039D01*
X148380607Y-107731700D01*
X148341902Y-107695302D01*
X148314604Y-107652983D01*
X148297828Y-107603574D01*
X148291946Y-107545221D01*
X148297842Y-107486474D01*
X148314640Y-107436829D01*
X148341943Y-107394404D01*
X148380607Y-107358008D01*
X148425967Y-107330669D01*
X148481227Y-107309965D01*
X148548336Y-107296580D01*
X148629612Y-107291758D01*
X148711300Y-107296589D01*
G37*
G36*
X149270608Y-109283844D02*
G01*
X147989349Y-109283844D01*
X147989349Y-108895395D01*
X148120000Y-108895395D01*
X148120000Y-109172733D01*
X149139958Y-109172733D01*
X149139958Y-108895395D01*
X149135366Y-108738936D01*
X149123479Y-108626796D01*
X149106802Y-108549364D01*
X149079313Y-108476509D01*
X149041953Y-108411831D01*
X148994450Y-108354336D01*
X148945769Y-108310354D01*
X148892866Y-108274997D01*
X148835265Y-108247785D01*
X148774202Y-108228825D01*
X148706442Y-108217020D01*
X148631017Y-108212919D01*
X148554641Y-108217032D01*
X148486306Y-108228849D01*
X148424998Y-108247785D01*
X148367200Y-108275013D01*
X148314199Y-108310373D01*
X148265507Y-108354336D01*
X148218025Y-108412310D01*
X148180637Y-108477573D01*
X148153094Y-108551135D01*
X148136399Y-108629132D01*
X148124556Y-108740861D01*
X148122356Y-108815467D01*
X148120000Y-108895395D01*
X147989349Y-108895395D01*
X147989349Y-107545221D01*
X148100460Y-107545221D01*
X148106748Y-107644148D01*
X148124659Y-107730403D01*
X148153198Y-107805851D01*
X148191984Y-107872042D01*
X148241266Y-107930147D01*
X148299727Y-107978951D01*
X148366418Y-108017429D01*
X148442530Y-108045783D01*
X148529636Y-108063597D01*
X148629612Y-108069854D01*
X148729925Y-108063589D01*
X148817249Y-108045759D01*
X148893480Y-108017394D01*
X148960205Y-107978921D01*
X149018630Y-107930147D01*
X149067936Y-107872039D01*
X149106739Y-107805845D01*
X149135289Y-107730398D01*
X149153207Y-107644145D01*
X149159497Y-107545221D01*
X149153195Y-107445949D01*
X149135256Y-107359511D01*
X149106692Y-107284012D01*
X149067897Y-107217880D01*
X149018630Y-107159928D01*
X148960225Y-107111295D01*
X148893511Y-107072924D01*
X148817280Y-107044628D01*
X148729946Y-107026839D01*
X148629612Y-107020587D01*
X148529615Y-107026831D01*
X148442499Y-107044604D01*
X148366387Y-107072889D01*
X148299708Y-107111266D01*
X148241266Y-107159928D01*
X148192023Y-107217877D01*
X148153245Y-107284007D01*
X148124692Y-107359505D01*
X148106759Y-107445946D01*
X148100460Y-107545221D01*
X147989349Y-107545221D01*
X147989349Y-106381892D01*
X148100460Y-106381892D01*
X148105502Y-106473534D01*
X148119572Y-106550335D01*
X148141425Y-106614544D01*
X148170301Y-106668095D01*
X148205973Y-106712536D01*
X148249514Y-106749503D01*
X148301777Y-106779244D01*
X148364217Y-106801644D01*
X148438694Y-106816021D01*
X148527397Y-106821163D01*
X149139958Y-106821163D01*
X149139958Y-106558174D01*
X148527397Y-106558174D01*
X148443281Y-106552470D01*
X148385194Y-106537803D01*
X148346352Y-106516836D01*
X148317303Y-106485346D01*
X148298797Y-106441769D01*
X148291946Y-106381953D01*
X148295902Y-106334962D01*
X148306757Y-106297985D01*
X148323593Y-106268940D01*
X148346352Y-106246337D01*
X148385194Y-106225370D01*
X148443281Y-106210703D01*
X148527397Y-106204999D01*
X149139958Y-106204999D01*
X149139958Y-105941950D01*
X148527397Y-105941950D01*
X148438694Y-105947091D01*
X148364217Y-105961468D01*
X148301777Y-105983868D01*
X148249514Y-106013609D01*
X148205973Y-106050577D01*
X148170323Y-106095006D01*
X148141452Y-106148603D01*
X148119591Y-106212929D01*
X148105508Y-106289935D01*
X148100460Y-106381892D01*
X147989349Y-106381892D01*
X147989349Y-105204702D01*
X148120000Y-105204702D01*
X148120000Y-105467691D01*
X148940655Y-105467691D01*
X148940655Y-105806517D01*
X149139958Y-105806517D01*
X149139958Y-104866548D01*
X148940655Y-104866548D01*
X148940655Y-105204702D01*
X148120000Y-105204702D01*
X147989349Y-105204702D01*
X147989349Y-104755437D01*
X149270608Y-104755437D01*
X149270608Y-109283844D01*
G37*
G36*
X151710608Y-109190435D02*
G01*
X150429349Y-109190435D01*
X150429349Y-108680414D01*
X150540460Y-108680414D01*
X150545073Y-108777321D01*
X150559023Y-108875137D01*
X150581838Y-108972221D01*
X150613916Y-109070470D01*
X150837459Y-109070470D01*
X150790745Y-108972532D01*
X150758508Y-108881609D01*
X150738399Y-108790768D01*
X150731946Y-108705693D01*
X150735711Y-108648681D01*
X150745758Y-108605749D01*
X150760706Y-108573863D01*
X150782956Y-108548179D01*
X150809863Y-108533235D01*
X150843016Y-108528068D01*
X150873610Y-108531783D01*
X150897795Y-108542196D01*
X150917083Y-108559147D01*
X150939151Y-108598938D01*
X150963733Y-108683162D01*
X150986264Y-108784950D01*
X151007050Y-108862414D01*
X151031791Y-108923841D01*
X151059770Y-108971857D01*
X151090617Y-109008676D01*
X151128418Y-109038871D01*
X151172341Y-109060786D01*
X151223573Y-109074491D01*
X151283691Y-109079324D01*
X151358461Y-109072592D01*
X151420892Y-109053592D01*
X151473388Y-109023187D01*
X151517615Y-108980955D01*
X151551464Y-108930185D01*
X151577014Y-108867813D01*
X151593533Y-108791449D01*
X151599497Y-108698183D01*
X151596373Y-108613669D01*
X151586796Y-108525381D01*
X151571142Y-108436081D01*
X151548695Y-108341588D01*
X151333761Y-108341588D01*
X151366435Y-108425733D01*
X151389265Y-108505536D01*
X151403495Y-108584622D01*
X151408011Y-108656478D01*
X151404492Y-108719439D01*
X151395347Y-108764506D01*
X151382243Y-108795880D01*
X151361873Y-108820970D01*
X151335856Y-108835745D01*
X151302315Y-108840943D01*
X151276726Y-108837424D01*
X151255995Y-108827374D01*
X151238934Y-108810534D01*
X151219815Y-108773176D01*
X151199977Y-108700198D01*
X151177445Y-108588212D01*
X151155577Y-108501004D01*
X151130421Y-108433962D01*
X151102844Y-108383464D01*
X151073337Y-108346412D01*
X151036368Y-108316077D01*
X150992017Y-108293807D01*
X150938790Y-108279699D01*
X150874706Y-108274666D01*
X150790728Y-108281764D01*
X150722733Y-108301491D01*
X150667564Y-108332475D01*
X150622953Y-108374744D01*
X150589477Y-108426152D01*
X150563687Y-108491939D01*
X150546690Y-108575382D01*
X150540460Y-108680414D01*
X150429349Y-108680414D01*
X150429349Y-107533511D01*
X150560000Y-107533511D01*
X150560000Y-107796499D01*
X150989684Y-107796499D01*
X151579958Y-108185212D01*
X151579958Y-107897616D01*
X151216524Y-107665341D01*
X151579958Y-107433066D01*
X151579958Y-107144798D01*
X150989684Y-107533511D01*
X150560000Y-107533511D01*
X150429349Y-107533511D01*
X150429349Y-106409688D01*
X150560000Y-106409688D01*
X151259572Y-106780632D01*
X150560000Y-106780632D01*
X150560000Y-107030004D01*
X151579958Y-107030004D01*
X151579958Y-106736241D01*
X150880385Y-106365297D01*
X151579958Y-106365297D01*
X151579958Y-106115986D01*
X150560000Y-106115986D01*
X150560000Y-106409688D01*
X150429349Y-106409688D01*
X150429349Y-105364695D01*
X150540460Y-105364695D01*
X150546812Y-105467562D01*
X150564935Y-105557700D01*
X150593842Y-105636930D01*
X150633125Y-105706781D01*
X150682976Y-105768429D01*
X150742660Y-105821010D01*
X150809904Y-105862081D01*
X150885779Y-105892090D01*
X150971751Y-105910812D01*
X151069612Y-105917356D01*
X151167807Y-105910803D01*
X151253998Y-105892065D01*
X151329992Y-105862044D01*
X151397272Y-105820978D01*
X151456920Y-105768429D01*
X151506794Y-105706778D01*
X151546095Y-105636924D01*
X151575013Y-105557695D01*
X151593143Y-105467559D01*
X151599497Y-105364695D01*
X151594625Y-105280504D01*
X151580263Y-105200808D01*
X151556435Y-105123849D01*
X151523293Y-105049805D01*
X151310314Y-105049805D01*
X151354926Y-105123955D01*
X151384441Y-105193969D01*
X151402049Y-105266425D01*
X151408011Y-105343507D01*
X151401910Y-105412692D01*
X151384585Y-105471422D01*
X151356724Y-105521675D01*
X151317946Y-105564852D01*
X151270986Y-105598783D01*
X151215170Y-105623862D01*
X151148771Y-105639782D01*
X151069612Y-105645452D01*
X150990856Y-105639792D01*
X150924694Y-105623888D01*
X150868978Y-105598811D01*
X150822011Y-105564852D01*
X150783234Y-105521675D01*
X150755372Y-105471422D01*
X150738047Y-105412692D01*
X150731946Y-105343507D01*
X150737908Y-105266425D01*
X150755516Y-105193969D01*
X150785032Y-105123955D01*
X150829644Y-105049805D01*
X150616664Y-105049805D01*
X150583522Y-105123849D01*
X150559694Y-105200808D01*
X150545332Y-105280504D01*
X150540460Y-105364695D01*
X150429349Y-105364695D01*
X150429349Y-104938694D01*
X151710608Y-104938694D01*
X151710608Y-109190435D01*
G37*
G36*
X155959584Y-75724842D02*
G01*
X155680170Y-75724842D01*
X155819510Y-75319094D01*
X155959584Y-75724842D01*
G37*
G36*
X157928669Y-75920237D02*
G01*
X157774247Y-75920237D01*
X157722321Y-75915932D01*
X157683612Y-75904401D01*
X157655056Y-75886959D01*
X157633519Y-75862086D01*
X157619987Y-75829376D01*
X157615062Y-75786331D01*
X157619923Y-75744215D01*
X157633314Y-75712062D01*
X157654690Y-75687473D01*
X157683042Y-75670238D01*
X157721829Y-75658791D01*
X157774247Y-75654501D01*
X157928669Y-75654501D01*
X157928669Y-75920237D01*
G37*
G36*
X157928669Y-75474738D02*
G01*
X157783162Y-75474738D01*
X157742528Y-75471260D01*
X157711859Y-75461880D01*
X157688884Y-75447566D01*
X157671524Y-75427339D01*
X157660685Y-75401191D01*
X157656766Y-75367271D01*
X157660661Y-75333797D01*
X157671479Y-75307737D01*
X157688884Y-75287342D01*
X157711889Y-75272821D01*
X157742560Y-75263323D01*
X157783162Y-75259804D01*
X157928669Y-75259804D01*
X157928669Y-75474738D01*
G37*
G36*
X158302769Y-76230650D02*
G01*
X153182806Y-76230650D01*
X153182806Y-76100000D01*
X153293917Y-76100000D01*
X153590428Y-76100000D01*
X153888954Y-75780652D01*
X153888954Y-76100000D01*
X154133502Y-76100000D01*
X154133502Y-75136706D01*
X154340559Y-75136706D01*
X154340559Y-75349685D01*
X154414708Y-75305073D01*
X154484723Y-75275558D01*
X154557178Y-75257950D01*
X154634261Y-75251988D01*
X154703446Y-75258089D01*
X154762176Y-75275414D01*
X154812429Y-75303275D01*
X154855606Y-75342053D01*
X154889536Y-75389013D01*
X154914616Y-75444829D01*
X154930536Y-75511228D01*
X154936206Y-75590387D01*
X154930546Y-75669143D01*
X154914642Y-75735305D01*
X154889565Y-75791021D01*
X154855606Y-75837988D01*
X154812429Y-75876765D01*
X154762176Y-75904627D01*
X154703446Y-75921952D01*
X154634261Y-75928053D01*
X154557178Y-75922091D01*
X154484723Y-75904483D01*
X154414708Y-75874967D01*
X154340559Y-75830355D01*
X154340559Y-76043335D01*
X154414602Y-76076477D01*
X154491562Y-76100305D01*
X154571258Y-76114667D01*
X154655449Y-76119539D01*
X154758316Y-76113187D01*
X154823904Y-76100000D01*
X155285351Y-76100000D01*
X155549683Y-76100000D01*
X155613919Y-75912421D01*
X156025163Y-75912421D01*
X156090070Y-76100000D01*
X156354402Y-76100000D01*
X156280582Y-75900697D01*
X156400014Y-75900697D01*
X156400014Y-76100000D01*
X157124805Y-76100000D01*
X157124805Y-75807702D01*
X157352073Y-75807702D01*
X157358951Y-75879991D01*
X157378235Y-75939092D01*
X157409000Y-75987715D01*
X157451846Y-76027643D01*
X157502399Y-76056733D01*
X157567502Y-76079411D01*
X157650459Y-76094463D01*
X157755135Y-76100000D01*
X158191658Y-76100000D01*
X158191658Y-75080041D01*
X157796778Y-75080041D01*
X157686214Y-75085157D01*
X157601181Y-75098852D01*
X157536865Y-75119045D01*
X157489093Y-75144277D01*
X157448335Y-75180129D01*
X157418970Y-75224937D01*
X157400439Y-75280586D01*
X157393778Y-75349991D01*
X157395244Y-75367271D01*
X157397902Y-75398605D01*
X157409669Y-75440446D01*
X157428643Y-75476753D01*
X157454833Y-75508113D01*
X157488139Y-75533901D01*
X157529699Y-75554300D01*
X157476589Y-75575814D01*
X157433360Y-75605977D01*
X157398540Y-75645158D01*
X157373262Y-75691353D01*
X157357580Y-75744962D01*
X157353949Y-75786331D01*
X157352073Y-75807702D01*
X157124805Y-75807702D01*
X157124805Y-75080041D01*
X156861817Y-75080041D01*
X156861817Y-75900697D01*
X156400014Y-75900697D01*
X156280582Y-75900697D01*
X155976619Y-75080041D01*
X155663073Y-75080041D01*
X155424283Y-75724842D01*
X155285351Y-76100000D01*
X154823904Y-76100000D01*
X154848454Y-76095064D01*
X154927683Y-76066157D01*
X154997535Y-76026874D01*
X155059182Y-75977023D01*
X155111764Y-75917339D01*
X155152834Y-75850095D01*
X155182844Y-75774220D01*
X155201565Y-75688248D01*
X155208109Y-75590387D01*
X155201557Y-75492192D01*
X155182819Y-75406001D01*
X155152798Y-75330007D01*
X155111732Y-75262727D01*
X155059182Y-75203079D01*
X154997531Y-75153205D01*
X154927678Y-75113904D01*
X154848449Y-75084986D01*
X154758313Y-75066856D01*
X154655449Y-75060502D01*
X154571258Y-75065374D01*
X154491562Y-75079736D01*
X154414602Y-75103564D01*
X154340559Y-75136706D01*
X154133502Y-75136706D01*
X154133502Y-75037055D01*
X153888954Y-75037055D01*
X153888954Y-75615116D01*
X153607464Y-75334054D01*
X153323287Y-75334054D01*
X153696979Y-75685580D01*
X153293917Y-76100000D01*
X153182806Y-76100000D01*
X153182806Y-74925944D01*
X158302769Y-74925944D01*
X158302769Y-76230650D01*
G37*
G36*
X134400643Y-93213335D02*
G01*
X134474686Y-93246477D01*
X134551646Y-93270305D01*
X134631341Y-93284667D01*
X134715533Y-93289539D01*
X134818400Y-93283187D01*
X134908538Y-93265064D01*
X134987767Y-93236157D01*
X135057619Y-93196874D01*
X135119266Y-93147023D01*
X135171847Y-93087339D01*
X135212918Y-93020095D01*
X135242928Y-92944220D01*
X135261649Y-92858248D01*
X135268193Y-92760387D01*
X135261641Y-92662192D01*
X135242902Y-92576001D01*
X135212882Y-92500007D01*
X135171816Y-92432727D01*
X135119266Y-92373079D01*
X135057615Y-92323205D01*
X134987762Y-92283904D01*
X134908532Y-92254986D01*
X134818397Y-92236856D01*
X134715533Y-92230502D01*
X134631341Y-92235374D01*
X134551646Y-92249736D01*
X134474686Y-92273564D01*
X134400643Y-92306706D01*
X134400643Y-92519685D01*
X134474792Y-92475073D01*
X134544807Y-92445558D01*
X134617262Y-92427950D01*
X134694345Y-92421988D01*
X134763530Y-92428089D01*
X134822259Y-92445414D01*
X134872513Y-92473275D01*
X134915690Y-92512053D01*
X134949620Y-92559013D01*
X134974700Y-92614829D01*
X134990620Y-92681228D01*
X134996290Y-92760387D01*
X134990630Y-92839143D01*
X134974726Y-92905305D01*
X134949648Y-92961021D01*
X134915690Y-93007988D01*
X134872513Y-93046765D01*
X134822259Y-93074627D01*
X134763530Y-93091952D01*
X134694345Y-93098053D01*
X134617262Y-93092091D01*
X134544807Y-93074483D01*
X134474792Y-93044967D01*
X134400643Y-93000355D01*
X134400643Y-93213335D01*
G37*
G36*
X133815687Y-92236792D02*
G01*
X133901940Y-92254710D01*
X133977388Y-92283260D01*
X134043581Y-92322063D01*
X134101689Y-92371369D01*
X134150463Y-92429794D01*
X134188936Y-92496519D01*
X134217301Y-92572750D01*
X134235131Y-92660074D01*
X134241396Y-92760387D01*
X134235139Y-92860363D01*
X134217325Y-92947469D01*
X134188971Y-93023581D01*
X134150493Y-93090272D01*
X134101689Y-93148733D01*
X134043584Y-93198015D01*
X133977393Y-93236801D01*
X133901945Y-93265340D01*
X133815690Y-93283251D01*
X133716763Y-93289539D01*
X133617488Y-93283240D01*
X133531047Y-93265307D01*
X133455549Y-93236754D01*
X133389419Y-93197976D01*
X133331470Y-93148733D01*
X133282808Y-93090291D01*
X133244431Y-93023612D01*
X133216146Y-92947500D01*
X133198373Y-92860384D01*
X133192129Y-92760387D01*
X133463300Y-92760387D01*
X133468122Y-92841663D01*
X133481507Y-92908772D01*
X133502211Y-92964032D01*
X133529551Y-93009392D01*
X133565946Y-93048056D01*
X133608371Y-93075359D01*
X133658016Y-93092157D01*
X133716763Y-93098053D01*
X133775116Y-93092171D01*
X133824525Y-93075395D01*
X133866845Y-93048097D01*
X133903242Y-93009392D01*
X133930581Y-92964032D01*
X133951286Y-92908772D01*
X133964671Y-92841663D01*
X133969493Y-92760387D01*
X133964662Y-92678699D01*
X133951262Y-92611366D01*
X133930556Y-92556031D01*
X133903242Y-92510710D01*
X133866841Y-92471976D01*
X133824520Y-92444659D01*
X133775112Y-92427873D01*
X133716763Y-92421988D01*
X133658020Y-92427887D01*
X133608376Y-92444695D01*
X133565949Y-92472016D01*
X133529551Y-92510710D01*
X133502237Y-92556031D01*
X133481531Y-92611366D01*
X133468131Y-92678699D01*
X133463300Y-92760387D01*
X133192129Y-92760387D01*
X133198381Y-92660053D01*
X133216170Y-92572719D01*
X133244466Y-92496488D01*
X133282838Y-92429774D01*
X133331470Y-92371369D01*
X133389422Y-92322102D01*
X133455554Y-92283307D01*
X133531053Y-92254743D01*
X133617491Y-92236804D01*
X133716763Y-92230502D01*
X133815687Y-92236792D01*
G37*
G36*
X132992705Y-92250041D02*
G01*
X132657970Y-92250041D01*
X132425695Y-92796352D01*
X132192077Y-92250041D01*
X131858014Y-92250041D01*
X131858014Y-93270000D01*
X132106714Y-93270000D01*
X132106714Y-92524204D01*
X132341675Y-93074605D01*
X132508371Y-93074605D01*
X132743333Y-92524204D01*
X132743333Y-93270000D01*
X132992705Y-93270000D01*
X132992705Y-92250041D01*
G37*
G36*
X131599544Y-93270000D02*
G01*
X131336555Y-93270000D01*
X131336555Y-92914382D01*
X131163021Y-92914382D01*
X131064525Y-92908108D01*
X130983823Y-92890728D01*
X130917861Y-92863841D01*
X130864128Y-92828225D01*
X130819375Y-92781589D01*
X130787182Y-92726275D01*
X130767079Y-92660536D01*
X130759959Y-92581845D01*
X131031190Y-92581845D01*
X131036211Y-92625005D01*
X131050234Y-92659063D01*
X131072895Y-92686137D01*
X131102740Y-92705719D01*
X131141298Y-92718299D01*
X131191047Y-92722896D01*
X131336555Y-92722896D01*
X131336555Y-92441528D01*
X131191047Y-92441528D01*
X131141273Y-92446091D01*
X131102716Y-92458573D01*
X131072895Y-92477981D01*
X131050244Y-92504832D01*
X131036219Y-92538737D01*
X131031190Y-92581845D01*
X130759959Y-92581845D01*
X130767067Y-92503551D01*
X130787152Y-92438059D01*
X130819341Y-92382870D01*
X130864128Y-92336259D01*
X130917865Y-92300616D01*
X130983828Y-92273711D01*
X131064529Y-92256319D01*
X131163021Y-92250041D01*
X131599544Y-92250041D01*
X131599544Y-93270000D01*
G37*
G36*
X154250608Y-109086388D02*
G01*
X152969349Y-109086388D01*
X152969349Y-108576367D01*
X153080460Y-108576367D01*
X153085073Y-108673274D01*
X153099023Y-108771090D01*
X153121838Y-108868174D01*
X153153916Y-108966423D01*
X153377459Y-108966423D01*
X153330745Y-108868485D01*
X153298508Y-108777562D01*
X153278399Y-108686721D01*
X153271946Y-108601646D01*
X153275711Y-108544634D01*
X153285758Y-108501702D01*
X153300706Y-108469816D01*
X153322956Y-108444132D01*
X153349863Y-108429188D01*
X153383016Y-108424021D01*
X153413610Y-108427736D01*
X153437795Y-108438149D01*
X153457083Y-108455100D01*
X153479151Y-108494891D01*
X153503733Y-108579115D01*
X153526264Y-108680903D01*
X153547050Y-108758367D01*
X153571791Y-108819794D01*
X153599770Y-108867810D01*
X153630617Y-108904629D01*
X153668418Y-108934824D01*
X153712341Y-108956739D01*
X153763573Y-108970444D01*
X153823691Y-108975277D01*
X153898461Y-108968545D01*
X153960892Y-108949545D01*
X154013388Y-108919140D01*
X154057615Y-108876908D01*
X154091464Y-108826138D01*
X154117014Y-108763766D01*
X154133533Y-108687402D01*
X154139497Y-108594136D01*
X154136373Y-108509622D01*
X154126796Y-108421334D01*
X154111142Y-108332034D01*
X154088695Y-108237541D01*
X153873761Y-108237541D01*
X153906435Y-108321686D01*
X153929265Y-108401489D01*
X153943495Y-108480575D01*
X153948011Y-108552431D01*
X153944492Y-108615392D01*
X153935347Y-108660459D01*
X153922243Y-108691833D01*
X153901873Y-108716923D01*
X153875856Y-108731698D01*
X153842315Y-108736896D01*
X153816726Y-108733377D01*
X153795995Y-108723327D01*
X153778934Y-108706487D01*
X153759815Y-108669129D01*
X153739977Y-108596151D01*
X153717445Y-108484165D01*
X153695577Y-108396957D01*
X153670421Y-108329915D01*
X153642844Y-108279417D01*
X153613337Y-108242365D01*
X153576368Y-108212030D01*
X153532017Y-108189760D01*
X153478790Y-108175652D01*
X153414706Y-108170619D01*
X153330728Y-108177717D01*
X153262733Y-108197444D01*
X153207564Y-108228428D01*
X153162953Y-108270697D01*
X153129477Y-108322105D01*
X153103687Y-108387892D01*
X153086690Y-108471335D01*
X153080460Y-108576367D01*
X152969349Y-108576367D01*
X152969349Y-107445156D01*
X153080460Y-107445156D01*
X153086812Y-107548023D01*
X153104935Y-107638161D01*
X153133842Y-107717391D01*
X153173125Y-107787242D01*
X153222976Y-107848890D01*
X153282660Y-107901471D01*
X153349904Y-107942542D01*
X153425779Y-107972551D01*
X153511751Y-107991273D01*
X153609612Y-107997817D01*
X153707807Y-107991264D01*
X153793998Y-107972526D01*
X153869992Y-107942505D01*
X153937272Y-107901439D01*
X153996920Y-107848890D01*
X154046794Y-107787239D01*
X154086095Y-107717386D01*
X154115013Y-107638156D01*
X154133143Y-107548020D01*
X154139497Y-107445156D01*
X154134625Y-107360965D01*
X154120263Y-107281269D01*
X154096435Y-107204310D01*
X154063293Y-107130266D01*
X153850314Y-107130266D01*
X153894926Y-107204416D01*
X153924441Y-107274431D01*
X153942049Y-107346886D01*
X153948011Y-107423968D01*
X153941910Y-107493153D01*
X153924585Y-107551883D01*
X153896724Y-107602136D01*
X153857946Y-107645313D01*
X153810986Y-107679244D01*
X153755170Y-107704323D01*
X153688771Y-107720243D01*
X153609612Y-107725913D01*
X153530856Y-107720253D01*
X153464694Y-107704349D01*
X153408978Y-107679272D01*
X153362011Y-107645313D01*
X153323234Y-107602136D01*
X153295372Y-107551883D01*
X153278047Y-107493153D01*
X153271946Y-107423968D01*
X153277908Y-107346886D01*
X153295516Y-107274431D01*
X153325032Y-107204416D01*
X153369644Y-107130266D01*
X153156664Y-107130266D01*
X153123522Y-107204310D01*
X153099694Y-107281269D01*
X153085332Y-107360965D01*
X153080460Y-107445156D01*
X152969349Y-107445156D01*
X152969349Y-106912279D01*
X153100000Y-106912279D01*
X154119958Y-106912279D01*
X154119958Y-106649291D01*
X153299302Y-106649291D01*
X153299302Y-106187489D01*
X153100000Y-106187489D01*
X153100000Y-106912279D01*
X152969349Y-106912279D01*
X152969349Y-105351507D01*
X153100000Y-105351507D01*
X153501718Y-105757316D01*
X153100000Y-105757316D01*
X153100000Y-106020305D01*
X154119958Y-106020305D01*
X154119958Y-105757316D01*
X153747609Y-105757316D01*
X154119958Y-105378190D01*
X154119958Y-105072825D01*
X153636967Y-105563937D01*
X153100000Y-105022267D01*
X153100000Y-105351507D01*
X152969349Y-105351507D01*
X152969349Y-104911156D01*
X154250608Y-104911156D01*
X154250608Y-109086388D01*
G37*
G36*
X146236418Y-108385863D02*
G01*
X146298402Y-108402583D01*
X146349477Y-108428879D01*
X146391521Y-108464625D01*
X146424456Y-108508883D01*
X146449093Y-108563228D01*
X146464943Y-108629775D01*
X146470655Y-108711189D01*
X146470655Y-108805466D01*
X145849302Y-108805466D01*
X145849302Y-108711189D01*
X145855041Y-108630207D01*
X145870988Y-108563818D01*
X145895828Y-108509414D01*
X145929108Y-108464931D01*
X145971514Y-108429046D01*
X146022949Y-108402653D01*
X146085285Y-108385879D01*
X146161017Y-108379873D01*
X146236418Y-108385863D01*
G37*
G36*
X146781069Y-109179566D02*
G01*
X145538889Y-109179566D01*
X145538889Y-108791117D01*
X145650000Y-108791117D01*
X145650000Y-109068455D01*
X146669958Y-109068455D01*
X146669958Y-108791117D01*
X146665366Y-108634658D01*
X146653479Y-108522518D01*
X146636802Y-108445086D01*
X146609313Y-108372231D01*
X146571953Y-108307553D01*
X146524450Y-108250058D01*
X146475769Y-108206076D01*
X146422866Y-108170719D01*
X146365265Y-108143507D01*
X146304202Y-108124547D01*
X146236442Y-108112742D01*
X146161017Y-108108641D01*
X146084641Y-108112754D01*
X146016306Y-108124571D01*
X145954998Y-108143507D01*
X145897200Y-108170735D01*
X145844199Y-108206095D01*
X145795507Y-108250058D01*
X145748025Y-108308032D01*
X145710637Y-108373295D01*
X145683094Y-108446857D01*
X145666399Y-108524854D01*
X145654556Y-108636583D01*
X145652356Y-108711189D01*
X145650000Y-108791117D01*
X145538889Y-108791117D01*
X145538889Y-107906836D01*
X145650000Y-107906836D01*
X146669958Y-107906836D01*
X146669958Y-107643847D01*
X145650000Y-107643847D01*
X145650000Y-107906836D01*
X145538889Y-107906836D01*
X145538889Y-106765794D01*
X145650000Y-106765794D01*
X146349572Y-107136738D01*
X145650000Y-107136738D01*
X145650000Y-107386110D01*
X146669958Y-107386110D01*
X146669958Y-107092347D01*
X145970385Y-106721403D01*
X146669958Y-106721403D01*
X146669958Y-106472092D01*
X145650000Y-106472092D01*
X145650000Y-106765794D01*
X145538889Y-106765794D01*
X145538889Y-106360981D01*
X146781069Y-106360981D01*
X146781069Y-109179566D01*
G37*
G36*
X175725406Y-86263023D02*
G01*
X175794577Y-86286523D01*
X175853826Y-86324766D01*
X175904788Y-86378994D01*
X175943027Y-86442444D01*
X175972016Y-86519913D01*
X175990775Y-86614179D01*
X175997539Y-86728542D01*
X175990789Y-86842328D01*
X175972050Y-86936281D01*
X175943063Y-87013645D01*
X175904788Y-87077150D01*
X175853832Y-87131335D01*
X175794585Y-87169553D01*
X175725411Y-87193039D01*
X175643717Y-87201274D01*
X175561472Y-87193020D01*
X175491968Y-87169502D01*
X175432573Y-87131279D01*
X175381620Y-87077150D01*
X175343345Y-87013645D01*
X175314359Y-86936281D01*
X175295620Y-86842328D01*
X175288869Y-86728542D01*
X175295633Y-86614179D01*
X175314392Y-86519913D01*
X175343381Y-86442444D01*
X175381620Y-86378994D01*
X175432579Y-86324822D01*
X175491976Y-86286574D01*
X175561477Y-86263042D01*
X175643717Y-86254784D01*
X175725406Y-86263023D01*
G37*
G36*
X174261852Y-86676054D02*
G01*
X174058141Y-86676054D01*
X173988493Y-86669619D01*
X173934511Y-86652007D01*
X173892728Y-86624592D01*
X173861002Y-86586688D01*
X173841371Y-86539008D01*
X173834342Y-86478584D01*
X173841381Y-86418231D01*
X173861017Y-86370766D01*
X173892728Y-86333174D01*
X173934477Y-86306002D01*
X173988458Y-86288527D01*
X174058141Y-86282139D01*
X174261852Y-86282139D01*
X174261852Y-86676054D01*
G37*
G36*
X176533760Y-88057123D02*
G01*
X160459471Y-88057123D01*
X160459471Y-87901567D01*
X169416733Y-87901567D01*
X170396050Y-87901567D01*
X170396050Y-87721023D01*
X169416733Y-87721023D01*
X169416733Y-87901567D01*
X160459471Y-87901567D01*
X160459471Y-86293081D01*
X160615027Y-86293081D01*
X161088443Y-86293081D01*
X161088443Y-87442000D01*
X161456627Y-87442000D01*
X162121102Y-87442000D01*
X162489286Y-87442000D01*
X162489286Y-86834714D01*
X163032543Y-86834714D01*
X163032543Y-87442000D01*
X163400727Y-87442000D01*
X163400727Y-86648699D01*
X163725741Y-86648699D01*
X163725741Y-87334801D01*
X163866227Y-87393729D01*
X164011688Y-87435759D01*
X164161623Y-87460880D01*
X164317724Y-87469355D01*
X164461738Y-87460462D01*
X164553563Y-87442000D01*
X165370045Y-87442000D01*
X165738229Y-87442000D01*
X165738229Y-87162976D01*
X166061191Y-87162976D01*
X166061191Y-87442000D01*
X167075898Y-87442000D01*
X167075898Y-86014058D01*
X167317478Y-86014058D01*
X167654118Y-87442000D01*
X168078808Y-87442000D01*
X168337913Y-86356426D01*
X168594282Y-87442000D01*
X169018886Y-87442000D01*
X170576594Y-87442000D01*
X170987777Y-87442000D01*
X171507098Y-86462598D01*
X171507098Y-87442000D01*
X171856219Y-87442000D01*
X171856219Y-87162976D01*
X172179181Y-87162976D01*
X172179181Y-87442000D01*
X173193888Y-87442000D01*
X173193888Y-86478584D01*
X173454617Y-86478584D01*
X173464585Y-86588751D01*
X173492730Y-86680785D01*
X173537800Y-86758224D01*
X173600455Y-86823516D01*
X173675680Y-86873378D01*
X173768027Y-86911019D01*
X173881010Y-86935352D01*
X174018904Y-86944135D01*
X174261852Y-86944135D01*
X174261852Y-87442000D01*
X174630036Y-87442000D01*
X174630036Y-86728542D01*
X174909230Y-86728542D01*
X174917971Y-86868537D01*
X174942854Y-86990500D01*
X174982453Y-87097057D01*
X175036180Y-87190408D01*
X175104307Y-87272226D01*
X175185435Y-87341166D01*
X175278018Y-87395456D01*
X175383716Y-87435430D01*
X175504733Y-87460536D01*
X175643717Y-87469355D01*
X175782216Y-87460552D01*
X175902973Y-87435476D01*
X176008599Y-87395521D01*
X176101268Y-87341221D01*
X176182614Y-87272226D01*
X176250939Y-87190381D01*
X176304808Y-87097014D01*
X176344504Y-86990456D01*
X176369444Y-86868509D01*
X176378204Y-86728542D01*
X176369432Y-86588103D01*
X176344471Y-86465850D01*
X176304760Y-86359126D01*
X176250898Y-86265711D01*
X176182614Y-86183917D01*
X176101263Y-86114889D01*
X176008592Y-86060565D01*
X175902966Y-86020594D01*
X175782211Y-85995509D01*
X175643717Y-85986703D01*
X175504737Y-85995525D01*
X175383723Y-86020640D01*
X175278025Y-86060630D01*
X175185440Y-86114944D01*
X175104307Y-86183917D01*
X175036222Y-86265684D01*
X174982502Y-86359083D01*
X174942887Y-86465806D01*
X174917983Y-86588075D01*
X174909230Y-86728542D01*
X174630036Y-86728542D01*
X174630036Y-86014058D01*
X174018904Y-86014058D01*
X173881016Y-86022846D01*
X173768035Y-86047195D01*
X173675686Y-86084863D01*
X173600455Y-86134763D01*
X173537752Y-86200018D01*
X173492687Y-86277283D01*
X173464569Y-86368972D01*
X173454617Y-86478584D01*
X173193888Y-86478584D01*
X173193888Y-86014058D01*
X172200210Y-86014058D01*
X172200210Y-86293081D01*
X172825704Y-86293081D01*
X172825704Y-86555691D01*
X172237482Y-86555691D01*
X172237482Y-86834714D01*
X172825704Y-86834714D01*
X172825704Y-87162976D01*
X172179181Y-87162976D01*
X171856219Y-87162976D01*
X171856219Y-86014058D01*
X171444950Y-86014058D01*
X170925629Y-86993460D01*
X170925629Y-86014058D01*
X170576594Y-86014058D01*
X170576594Y-87442000D01*
X169018886Y-87442000D01*
X169358433Y-86014058D01*
X169005465Y-86014058D01*
X168758755Y-87051760D01*
X168513926Y-86014058D01*
X168159078Y-86014058D01*
X167914249Y-87051760D01*
X167667539Y-86014058D01*
X167317478Y-86014058D01*
X167075898Y-86014058D01*
X166082220Y-86014058D01*
X166082220Y-86293081D01*
X166707714Y-86293081D01*
X166707714Y-86555691D01*
X166119492Y-86555691D01*
X166119492Y-86834714D01*
X166707714Y-86834714D01*
X166707714Y-87162976D01*
X166061191Y-87162976D01*
X165738229Y-87162976D01*
X165738229Y-86014058D01*
X165370045Y-86014058D01*
X165370045Y-87442000D01*
X164553563Y-87442000D01*
X164587931Y-87435090D01*
X164698852Y-87394620D01*
X164796644Y-87339623D01*
X164882951Y-87269833D01*
X164956565Y-87186275D01*
X165014064Y-87092133D01*
X165056077Y-86985909D01*
X165082287Y-86865547D01*
X165091449Y-86728542D01*
X165082094Y-86589954D01*
X165055369Y-86468677D01*
X165012588Y-86362071D01*
X164954082Y-86267984D01*
X164879190Y-86184857D01*
X164791668Y-86115939D01*
X164691787Y-86061361D01*
X164577754Y-86021017D01*
X164447273Y-85995627D01*
X164297635Y-85986703D01*
X164157012Y-85993545D01*
X164024596Y-86013631D01*
X163897069Y-86047257D01*
X163778314Y-86093388D01*
X163778314Y-86391560D01*
X163899184Y-86330664D01*
X164015962Y-86288721D01*
X164134722Y-86263195D01*
X164252670Y-86254784D01*
X164362117Y-86263397D01*
X164452981Y-86287535D01*
X164528655Y-86325636D01*
X164591704Y-86377540D01*
X164641688Y-86441993D01*
X164678709Y-86519997D01*
X164702324Y-86614325D01*
X164710784Y-86728542D01*
X164702625Y-86841910D01*
X164679841Y-86935795D01*
X164644147Y-87013621D01*
X164596064Y-87078090D01*
X164534958Y-87130420D01*
X164461978Y-87168611D01*
X164374720Y-87192700D01*
X164269938Y-87201274D01*
X164163338Y-87194178D01*
X164115655Y-87184726D01*
X164074861Y-87171696D01*
X164074861Y-86894896D01*
X164299602Y-86894896D01*
X164299602Y-86648699D01*
X163725741Y-86648699D01*
X163400727Y-86648699D01*
X163400727Y-86014058D01*
X163032543Y-86014058D01*
X163032543Y-86555691D01*
X162489286Y-86555691D01*
X162489286Y-86014058D01*
X162121102Y-86014058D01*
X162121102Y-87442000D01*
X161456627Y-87442000D01*
X161456627Y-86293081D01*
X161930983Y-86293081D01*
X161930983Y-86014058D01*
X160615027Y-86014058D01*
X160615027Y-86293081D01*
X160459471Y-86293081D01*
X160459471Y-85831147D01*
X176533760Y-85831147D01*
X176533760Y-88057123D01*
G37*
G36*
X141700608Y-109230545D02*
G01*
X140419349Y-109230545D01*
X140419349Y-108600296D01*
X140550000Y-108600296D01*
X140550000Y-108762840D01*
X140909525Y-108762840D01*
X140909525Y-109119434D01*
X141069748Y-109119434D01*
X141069748Y-108762840D01*
X141429274Y-108762840D01*
X141429274Y-108600296D01*
X141069748Y-108600296D01*
X141069748Y-108243701D01*
X140909525Y-108243701D01*
X140909525Y-108600296D01*
X140550000Y-108600296D01*
X140419349Y-108600296D01*
X140419349Y-107688171D01*
X140530460Y-107688171D01*
X140533621Y-107766631D01*
X140543161Y-107845647D01*
X140558999Y-107923954D01*
X140581263Y-108001718D01*
X140784473Y-108001718D01*
X140751899Y-107927375D01*
X140728968Y-107855233D01*
X140714834Y-107782484D01*
X140710223Y-107712107D01*
X140714944Y-107642988D01*
X140727572Y-107590821D01*
X140746432Y-107551945D01*
X140774258Y-107520849D01*
X140808177Y-107502603D01*
X140850235Y-107496257D01*
X140893544Y-107502798D01*
X140927976Y-107521509D01*
X140955748Y-107553288D01*
X140974266Y-107593093D01*
X140986841Y-107647786D01*
X140991591Y-107721632D01*
X140991591Y-107826840D01*
X141159630Y-107826840D01*
X141159630Y-107716198D01*
X141163827Y-107650409D01*
X141174841Y-107602629D01*
X141190893Y-107568675D01*
X141215120Y-107541895D01*
X141246108Y-107525832D01*
X141286086Y-107520132D01*
X141322976Y-107525527D01*
X141352840Y-107541016D01*
X141377433Y-107567271D01*
X141394385Y-107600312D01*
X141405585Y-107643770D01*
X141409734Y-107700444D01*
X141406066Y-107763985D01*
X141394897Y-107828916D01*
X141376685Y-107893160D01*
X141351116Y-107957998D01*
X141542602Y-107957998D01*
X141563224Y-107880019D01*
X141577773Y-107803637D01*
X141586600Y-107727375D01*
X141589497Y-107653366D01*
X141584471Y-107550829D01*
X141570813Y-107469438D01*
X141550288Y-107405518D01*
X141524101Y-107355879D01*
X141487487Y-107312872D01*
X141443586Y-107282527D01*
X141390979Y-107263775D01*
X141327302Y-107257143D01*
X141269174Y-107262775D01*
X141220873Y-107278686D01*
X141180390Y-107304282D01*
X141147247Y-107339114D01*
X141120328Y-107384780D01*
X141099973Y-107443623D01*
X141076728Y-107377940D01*
X141045775Y-107326512D01*
X141007405Y-107286880D01*
X140960858Y-107257692D01*
X140905719Y-107239596D01*
X140839794Y-107233208D01*
X140780090Y-107238193D01*
X140728440Y-107252441D01*
X140683391Y-107275436D01*
X140643876Y-107307415D01*
X140609289Y-107349345D01*
X140577357Y-107408036D01*
X140552650Y-107481864D01*
X140536392Y-107574013D01*
X140530460Y-107688171D01*
X140419349Y-107688171D01*
X140419349Y-106978523D01*
X140550000Y-106978523D01*
X140815736Y-106978523D01*
X140815736Y-106732571D01*
X140550000Y-106732571D01*
X140550000Y-106978523D01*
X140419349Y-106978523D01*
X140419349Y-106182658D01*
X140530460Y-106182658D01*
X140533621Y-106261118D01*
X140543161Y-106340134D01*
X140558999Y-106418441D01*
X140581263Y-106496205D01*
X140784473Y-106496205D01*
X140751899Y-106421862D01*
X140728968Y-106349720D01*
X140714834Y-106276971D01*
X140710223Y-106206594D01*
X140714944Y-106137475D01*
X140727572Y-106085308D01*
X140746432Y-106046432D01*
X140774258Y-106015336D01*
X140808177Y-105997090D01*
X140850235Y-105990744D01*
X140893544Y-105997285D01*
X140927976Y-106015996D01*
X140955748Y-106047775D01*
X140974266Y-106087580D01*
X140986841Y-106142273D01*
X140991591Y-106216119D01*
X140991591Y-106321327D01*
X141159630Y-106321327D01*
X141159630Y-106210685D01*
X141163827Y-106144896D01*
X141174841Y-106097117D01*
X141190893Y-106063162D01*
X141215120Y-106036382D01*
X141246108Y-106020319D01*
X141286086Y-106014619D01*
X141322976Y-106020014D01*
X141352840Y-106035503D01*
X141377433Y-106061758D01*
X141394385Y-106094799D01*
X141405585Y-106138257D01*
X141409734Y-106194931D01*
X141406066Y-106258472D01*
X141394897Y-106323403D01*
X141376685Y-106387647D01*
X141351116Y-106452485D01*
X141542602Y-106452485D01*
X141563224Y-106374506D01*
X141577773Y-106298124D01*
X141586600Y-106221862D01*
X141589497Y-106147853D01*
X141584471Y-106045316D01*
X141570813Y-105963925D01*
X141550288Y-105900005D01*
X141524101Y-105850366D01*
X141487487Y-105807359D01*
X141443586Y-105777015D01*
X141390979Y-105758262D01*
X141327302Y-105751631D01*
X141269174Y-105757263D01*
X141220873Y-105773173D01*
X141180390Y-105798769D01*
X141147247Y-105833601D01*
X141120328Y-105879268D01*
X141099973Y-105938110D01*
X141076728Y-105872427D01*
X141045775Y-105820999D01*
X141007405Y-105781367D01*
X140960858Y-105752179D01*
X140905719Y-105734083D01*
X140839794Y-105727695D01*
X140780090Y-105732680D01*
X140728440Y-105746928D01*
X140683391Y-105769923D01*
X140643876Y-105801902D01*
X140609289Y-105843832D01*
X140577357Y-105902523D01*
X140552650Y-105976351D01*
X140536392Y-106068500D01*
X140530460Y-106182658D01*
X140419349Y-106182658D01*
X140419349Y-104917602D01*
X140550000Y-104917602D01*
X140550000Y-105231149D01*
X141569958Y-105608932D01*
X141569958Y-105344600D01*
X140817140Y-105074040D01*
X141569958Y-104804213D01*
X141569958Y-104539881D01*
X140550000Y-104917602D01*
X140419349Y-104917602D01*
X140419349Y-104428770D01*
X141700608Y-104428770D01*
X141700608Y-109230545D01*
G37*
G36*
X156341519Y-89930000D02*
G01*
X156078530Y-89930000D01*
X156078530Y-89574382D01*
X155904996Y-89574382D01*
X155806500Y-89568108D01*
X155725798Y-89550728D01*
X155659836Y-89523841D01*
X155606104Y-89488225D01*
X155561350Y-89441589D01*
X155529158Y-89386275D01*
X155509054Y-89320536D01*
X155501934Y-89241845D01*
X155773166Y-89241845D01*
X155778187Y-89285005D01*
X155792209Y-89319063D01*
X155814870Y-89346137D01*
X155844715Y-89365719D01*
X155883274Y-89378299D01*
X155933023Y-89382896D01*
X156078530Y-89382896D01*
X156078530Y-89101528D01*
X155933023Y-89101528D01*
X155883249Y-89106091D01*
X155844691Y-89118573D01*
X155814870Y-89137981D01*
X155792220Y-89164832D01*
X155778194Y-89198737D01*
X155773166Y-89241845D01*
X155501934Y-89241845D01*
X155509042Y-89163551D01*
X155529127Y-89098059D01*
X155561316Y-89042870D01*
X155606104Y-88996259D01*
X155659840Y-88960616D01*
X155725804Y-88933711D01*
X155806505Y-88916319D01*
X155904996Y-88910041D01*
X156341519Y-88910041D01*
X156341519Y-89930000D01*
G37*
G36*
X154792409Y-89380026D02*
G01*
X154726725Y-89403271D01*
X154675297Y-89434224D01*
X154635666Y-89472594D01*
X154606478Y-89519141D01*
X154588382Y-89574280D01*
X154581993Y-89640205D01*
X154586979Y-89699909D01*
X154601226Y-89751559D01*
X154624221Y-89796608D01*
X154656200Y-89836123D01*
X154698131Y-89870710D01*
X154756822Y-89902642D01*
X154830650Y-89927349D01*
X154922798Y-89943607D01*
X155036957Y-89949539D01*
X155115417Y-89946378D01*
X155194432Y-89936838D01*
X155272740Y-89921000D01*
X155350503Y-89898736D01*
X155350503Y-89695526D01*
X155276161Y-89728100D01*
X155204019Y-89751031D01*
X155131270Y-89765165D01*
X155060893Y-89769776D01*
X154991773Y-89765055D01*
X154939606Y-89752427D01*
X154900730Y-89733567D01*
X154869635Y-89705741D01*
X154851388Y-89671822D01*
X154845043Y-89629764D01*
X154851584Y-89586455D01*
X154870294Y-89552023D01*
X154902074Y-89524251D01*
X154941879Y-89505733D01*
X154996572Y-89493158D01*
X155070418Y-89488408D01*
X155175626Y-89488408D01*
X155175626Y-89320369D01*
X155064984Y-89320369D01*
X154999194Y-89316172D01*
X154951415Y-89305158D01*
X154917461Y-89289106D01*
X154890681Y-89264879D01*
X154874618Y-89233891D01*
X154868918Y-89193913D01*
X154874312Y-89157023D01*
X154889802Y-89127159D01*
X154916057Y-89102566D01*
X154949098Y-89085614D01*
X154992555Y-89074414D01*
X155049230Y-89070265D01*
X155112771Y-89073933D01*
X155177702Y-89085102D01*
X155241946Y-89103314D01*
X155306784Y-89128883D01*
X155306784Y-88937397D01*
X155228805Y-88916775D01*
X155152423Y-88902226D01*
X155076161Y-88893399D01*
X155002152Y-88890502D01*
X154899615Y-88895528D01*
X154818224Y-88909186D01*
X154754303Y-88929711D01*
X154704664Y-88955898D01*
X154661657Y-88992512D01*
X154631313Y-89036413D01*
X154612561Y-89089020D01*
X154605929Y-89152697D01*
X154611561Y-89210825D01*
X154627471Y-89259126D01*
X154653068Y-89299609D01*
X154687899Y-89332752D01*
X154733566Y-89359671D01*
X154792409Y-89380026D01*
G37*
G36*
X150152871Y-75900697D02*
G01*
X150058593Y-75900697D01*
X149977611Y-75894958D01*
X149911222Y-75879011D01*
X149856818Y-75854171D01*
X149812335Y-75820891D01*
X149776450Y-75778485D01*
X149750058Y-75727050D01*
X149733284Y-75664714D01*
X149727278Y-75588982D01*
X149733268Y-75513581D01*
X149749988Y-75451597D01*
X149776284Y-75400522D01*
X149812030Y-75358478D01*
X149856287Y-75325543D01*
X149910632Y-75300906D01*
X149977179Y-75285056D01*
X150058593Y-75279344D01*
X150152871Y-75279344D01*
X150152871Y-75900697D01*
G37*
G36*
X152185948Y-75529448D02*
G01*
X152075245Y-75529448D01*
X152020692Y-75525333D01*
X151982633Y-75514663D01*
X151956787Y-75499162D01*
X151937849Y-75476376D01*
X151925511Y-75444224D01*
X151920884Y-75399450D01*
X151925513Y-75355194D01*
X151937846Y-75323536D01*
X151956787Y-75301203D01*
X151982578Y-75286037D01*
X152020633Y-75275570D01*
X152075245Y-75271528D01*
X152185948Y-75271528D01*
X152185948Y-75529448D01*
G37*
G36*
X152560048Y-76211111D02*
G01*
X149344935Y-76211111D01*
X149344935Y-75588982D01*
X149456046Y-75588982D01*
X149460159Y-75665358D01*
X149471975Y-75733693D01*
X149490912Y-75795001D01*
X149518139Y-75852799D01*
X149553499Y-75905800D01*
X149597463Y-75954492D01*
X149655436Y-76001974D01*
X149720700Y-76039362D01*
X149794261Y-76066905D01*
X149872259Y-76083600D01*
X149983988Y-76095443D01*
X150138522Y-76100000D01*
X150415859Y-76100000D01*
X150415859Y-75900697D01*
X150646547Y-75900697D01*
X150646547Y-76100000D01*
X151371337Y-76100000D01*
X151528080Y-76100000D01*
X151808166Y-76100000D01*
X151932485Y-75845987D01*
X151960305Y-75796061D01*
X151985589Y-75762410D01*
X152008628Y-75741207D01*
X152035724Y-75726200D01*
X152069448Y-75716592D01*
X152111454Y-75713119D01*
X152185948Y-75713119D01*
X152185948Y-76100000D01*
X152448937Y-76100000D01*
X152448937Y-75080041D01*
X152047218Y-75080041D01*
X151943036Y-75085302D01*
X151861794Y-75099490D01*
X151799262Y-75120641D01*
X151751807Y-75147452D01*
X151711844Y-75184675D01*
X151682863Y-75231123D01*
X151664503Y-75288772D01*
X151657895Y-75360554D01*
X151661384Y-75399450D01*
X151663777Y-75426131D01*
X151680331Y-75480538D01*
X151706744Y-75525968D01*
X151743160Y-75563965D01*
X151791402Y-75595811D01*
X151853900Y-75621284D01*
X151819612Y-75632821D01*
X151787545Y-75651282D01*
X151757241Y-75677337D01*
X151717056Y-75728070D01*
X151670840Y-75809656D01*
X151528080Y-76100000D01*
X151371337Y-76100000D01*
X151371337Y-75080041D01*
X150661568Y-75080041D01*
X150661568Y-75279344D01*
X151108349Y-75279344D01*
X151108349Y-75466922D01*
X150688190Y-75466922D01*
X150688190Y-75666224D01*
X151108349Y-75666224D01*
X151108349Y-75900697D01*
X150646547Y-75900697D01*
X150415859Y-75900697D01*
X150415859Y-75080041D01*
X150138522Y-75080041D01*
X149982063Y-75084633D01*
X149869922Y-75096520D01*
X149792491Y-75113197D01*
X149719636Y-75140686D01*
X149654957Y-75178046D01*
X149597463Y-75225549D01*
X149553481Y-75274230D01*
X149518124Y-75327133D01*
X149490912Y-75384734D01*
X149471951Y-75445797D01*
X149460147Y-75513557D01*
X149456046Y-75588982D01*
X149344935Y-75588982D01*
X149344935Y-74968930D01*
X152560048Y-74968930D01*
X152560048Y-76211111D01*
G37*
G36*
X143660276Y-76211111D02*
G01*
X138247039Y-76211111D01*
X138247039Y-76100000D01*
X138358150Y-76100000D01*
X138621138Y-76100000D01*
X138621138Y-75666224D01*
X139009179Y-75666224D01*
X139009179Y-76100000D01*
X139272168Y-76100000D01*
X139272168Y-75279344D01*
X139408272Y-75279344D01*
X139746426Y-75279344D01*
X139746426Y-76100000D01*
X140009415Y-76100000D01*
X140484406Y-76100000D01*
X140747394Y-76100000D01*
X141004765Y-76100000D01*
X141267754Y-76100000D01*
X141267754Y-75666224D01*
X141655795Y-75666224D01*
X141655795Y-76100000D01*
X141918783Y-76100000D01*
X141918783Y-75080041D01*
X142091341Y-75080041D01*
X142331798Y-76100000D01*
X142635147Y-76100000D01*
X142820222Y-75324590D01*
X143003343Y-76100000D01*
X143306632Y-76100000D01*
X143549165Y-75080041D01*
X143297045Y-75080041D01*
X143120824Y-75821257D01*
X142945946Y-75080041D01*
X142692483Y-75080041D01*
X142517605Y-75821257D01*
X142341384Y-75080041D01*
X142091341Y-75080041D01*
X141918783Y-75080041D01*
X141655795Y-75080041D01*
X141655795Y-75466922D01*
X141267754Y-75466922D01*
X141267754Y-75080041D01*
X141004765Y-75080041D01*
X141004765Y-76100000D01*
X140747394Y-76100000D01*
X140747394Y-75080041D01*
X140484406Y-75080041D01*
X140484406Y-76100000D01*
X140009415Y-76100000D01*
X140009415Y-75279344D01*
X140348240Y-75279344D01*
X140348240Y-75080041D01*
X139408272Y-75080041D01*
X139408272Y-75279344D01*
X139272168Y-75279344D01*
X139272168Y-75080041D01*
X139009179Y-75080041D01*
X139009179Y-75466922D01*
X138621138Y-75466922D01*
X138621138Y-75080041D01*
X138358150Y-75080041D01*
X138358150Y-76100000D01*
X138247039Y-76100000D01*
X138247039Y-74968930D01*
X143660276Y-74968930D01*
X143660276Y-76211111D01*
G37*
G36*
X144210608Y-109012144D02*
G01*
X142929349Y-109012144D01*
X142929349Y-108348373D01*
X143040460Y-108348373D01*
X143046812Y-108451240D01*
X143064935Y-108541378D01*
X143093842Y-108620607D01*
X143133125Y-108690459D01*
X143182976Y-108752106D01*
X143242660Y-108804687D01*
X143309904Y-108845758D01*
X143385779Y-108875768D01*
X143471751Y-108894489D01*
X143569612Y-108901033D01*
X143667807Y-108894481D01*
X143753998Y-108875742D01*
X143829992Y-108845722D01*
X143897272Y-108804656D01*
X143956920Y-108752106D01*
X144006794Y-108690455D01*
X144046095Y-108620602D01*
X144075013Y-108541372D01*
X144093143Y-108451237D01*
X144099497Y-108348373D01*
X144094625Y-108264181D01*
X144080263Y-108184486D01*
X144056435Y-108107526D01*
X144023293Y-108033483D01*
X143810314Y-108033483D01*
X143854926Y-108107632D01*
X143884441Y-108177647D01*
X143902049Y-108250102D01*
X143908011Y-108327185D01*
X143901910Y-108396370D01*
X143884585Y-108455099D01*
X143856724Y-108505353D01*
X143817946Y-108548530D01*
X143770986Y-108582460D01*
X143715170Y-108607540D01*
X143648771Y-108623460D01*
X143569612Y-108629130D01*
X143490856Y-108623470D01*
X143424694Y-108607566D01*
X143368978Y-108582488D01*
X143322011Y-108548530D01*
X143283234Y-108505353D01*
X143255372Y-108455099D01*
X143238047Y-108396370D01*
X143231946Y-108327185D01*
X143237908Y-108250102D01*
X143255516Y-108177647D01*
X143285032Y-108107632D01*
X143329644Y-108033483D01*
X143116664Y-108033483D01*
X143083522Y-108107526D01*
X143059694Y-108184486D01*
X143045332Y-108264181D01*
X143040460Y-108348373D01*
X142929349Y-108348373D01*
X142929349Y-107418174D01*
X143040460Y-107418174D01*
X143045073Y-107515080D01*
X143059023Y-107612896D01*
X143081838Y-107709981D01*
X143113916Y-107808230D01*
X143337459Y-107808230D01*
X143290745Y-107710292D01*
X143258508Y-107619369D01*
X143238399Y-107528528D01*
X143231946Y-107443453D01*
X143235711Y-107386441D01*
X143245758Y-107343509D01*
X143260706Y-107311623D01*
X143282956Y-107285939D01*
X143309863Y-107270995D01*
X143343016Y-107265827D01*
X143373610Y-107269543D01*
X143397795Y-107279955D01*
X143417083Y-107296907D01*
X143439151Y-107336698D01*
X143463733Y-107420922D01*
X143486264Y-107522710D01*
X143507050Y-107600174D01*
X143531791Y-107661601D01*
X143559770Y-107709616D01*
X143590617Y-107746436D01*
X143628418Y-107776630D01*
X143672341Y-107798546D01*
X143723573Y-107812251D01*
X143783691Y-107817083D01*
X143858461Y-107810352D01*
X143920892Y-107791352D01*
X143973388Y-107760947D01*
X144017615Y-107718715D01*
X144051464Y-107667945D01*
X144077014Y-107605573D01*
X144093533Y-107529209D01*
X144099497Y-107435943D01*
X144096373Y-107351429D01*
X144086796Y-107263141D01*
X144071142Y-107173841D01*
X144048695Y-107079348D01*
X143833761Y-107079348D01*
X143866435Y-107163493D01*
X143889265Y-107243296D01*
X143903495Y-107322382D01*
X143908011Y-107394238D01*
X143904492Y-107457199D01*
X143895347Y-107502266D01*
X143882243Y-107533640D01*
X143861873Y-107558729D01*
X143835856Y-107573505D01*
X143802315Y-107578702D01*
X143776726Y-107575184D01*
X143755995Y-107565134D01*
X143738934Y-107548294D01*
X143719815Y-107510936D01*
X143699977Y-107437958D01*
X143677445Y-107325972D01*
X143655577Y-107238764D01*
X143630421Y-107171722D01*
X143602844Y-107121224D01*
X143573337Y-107084172D01*
X143536368Y-107053836D01*
X143492017Y-107031567D01*
X143438790Y-107017459D01*
X143374706Y-107012425D01*
X143290728Y-107019524D01*
X143222733Y-107039251D01*
X143167564Y-107070235D01*
X143122953Y-107112504D01*
X143089477Y-107163912D01*
X143063687Y-107229699D01*
X143046690Y-107313142D01*
X143040460Y-107418174D01*
X142929349Y-107418174D01*
X142929349Y-106901314D01*
X144210608Y-106901314D01*
X144210608Y-109012144D01*
G37*
G36*
X154198213Y-93560041D02*
G01*
X153863478Y-93560041D01*
X153631203Y-94106352D01*
X153397585Y-93560041D01*
X153063522Y-93560041D01*
X153063522Y-94580000D01*
X153312222Y-94580000D01*
X153312222Y-93834204D01*
X153547184Y-94384605D01*
X153713879Y-94384605D01*
X153948841Y-93834204D01*
X153948841Y-94580000D01*
X154198213Y-94580000D01*
X154198213Y-93560041D01*
G37*
G36*
X151996241Y-94523335D02*
G01*
X152070285Y-94556477D01*
X152147245Y-94580305D01*
X152226940Y-94594667D01*
X152311132Y-94599539D01*
X152413999Y-94593187D01*
X152504136Y-94575064D01*
X152583366Y-94546157D01*
X152653217Y-94506874D01*
X152714865Y-94457023D01*
X152767446Y-94397339D01*
X152808517Y-94330095D01*
X152838526Y-94254220D01*
X152857248Y-94168248D01*
X152863792Y-94070387D01*
X152857239Y-93972192D01*
X152838501Y-93886001D01*
X152808480Y-93810007D01*
X152767415Y-93742727D01*
X152714865Y-93683079D01*
X152653214Y-93633205D01*
X152583361Y-93593904D01*
X152504131Y-93564986D01*
X152413995Y-93546856D01*
X152311132Y-93540502D01*
X152226940Y-93545374D01*
X152147245Y-93559736D01*
X152070285Y-93583564D01*
X151996241Y-93616706D01*
X151996241Y-93829685D01*
X152070391Y-93785073D01*
X152140406Y-93755558D01*
X152212861Y-93737950D01*
X152289943Y-93731988D01*
X152359128Y-93738089D01*
X152417858Y-93755414D01*
X152468111Y-93783275D01*
X152511289Y-93822053D01*
X152545219Y-93869013D01*
X152570299Y-93924829D01*
X152586218Y-93991228D01*
X152591889Y-94070387D01*
X152586229Y-94149143D01*
X152570325Y-94215305D01*
X152545247Y-94271021D01*
X152511289Y-94317988D01*
X152468111Y-94356765D01*
X152417858Y-94384627D01*
X152359128Y-94401952D01*
X152289943Y-94408053D01*
X152212861Y-94402091D01*
X152140406Y-94384483D01*
X152070391Y-94354967D01*
X151996241Y-94310355D01*
X151996241Y-94523335D01*
G37*
G36*
X151778255Y-93560041D02*
G01*
X151515266Y-93560041D01*
X151515266Y-94380697D01*
X151053464Y-94380697D01*
X151053464Y-94580000D01*
X151778255Y-94580000D01*
X151778255Y-93560041D01*
G37*
G36*
X150886280Y-93560041D02*
G01*
X150623291Y-93560041D01*
X150623291Y-93932390D01*
X150244165Y-93560041D01*
X149938801Y-93560041D01*
X150429912Y-94043032D01*
X149888242Y-94580000D01*
X150217482Y-94580000D01*
X150623291Y-94178281D01*
X150623291Y-94580000D01*
X150886280Y-94580000D01*
X150886280Y-93560041D01*
G37*
G36*
X149766304Y-94396329D02*
G01*
X149534029Y-94396329D01*
X149534029Y-93739804D01*
X149772471Y-93790607D01*
X149772471Y-93610844D01*
X149535434Y-93560041D01*
X149285390Y-93560041D01*
X149285390Y-94396329D01*
X149053115Y-94396329D01*
X149053115Y-94580000D01*
X149766304Y-94580000D01*
X149766304Y-94396329D01*
G37*
G36*
X130998301Y-95791304D02*
G01*
X130998301Y-96006238D01*
X131082446Y-95973564D01*
X131162249Y-95950734D01*
X131241335Y-95936504D01*
X131313191Y-95931988D01*
X131376152Y-95935507D01*
X131421219Y-95944652D01*
X131452593Y-95957756D01*
X131477683Y-95978126D01*
X131492458Y-96004143D01*
X131497656Y-96037684D01*
X131494137Y-96063273D01*
X131484087Y-96084004D01*
X131467247Y-96101065D01*
X131429889Y-96120184D01*
X131356911Y-96140022D01*
X131244925Y-96162554D01*
X131157717Y-96184422D01*
X131090675Y-96209578D01*
X131040177Y-96237155D01*
X131003125Y-96266662D01*
X130972790Y-96303631D01*
X130950520Y-96347982D01*
X130936412Y-96401209D01*
X130931379Y-96465293D01*
X130938477Y-96549271D01*
X130958204Y-96617266D01*
X130989188Y-96672435D01*
X131031457Y-96717046D01*
X131082865Y-96750522D01*
X131148652Y-96776312D01*
X131232095Y-96793309D01*
X131337127Y-96799539D01*
X131434034Y-96794926D01*
X131531850Y-96780976D01*
X131628934Y-96758161D01*
X131727183Y-96726083D01*
X131727183Y-96502540D01*
X131629245Y-96549254D01*
X131538322Y-96581491D01*
X131447481Y-96601600D01*
X131362406Y-96608053D01*
X131305394Y-96604288D01*
X131262462Y-96594241D01*
X131230576Y-96579293D01*
X131204892Y-96557043D01*
X131189948Y-96530136D01*
X131184781Y-96496983D01*
X131188496Y-96466389D01*
X131198909Y-96442204D01*
X131215860Y-96422916D01*
X131255651Y-96400848D01*
X131339875Y-96376266D01*
X131441663Y-96353735D01*
X131519127Y-96332949D01*
X131580554Y-96308208D01*
X131628570Y-96280229D01*
X131665389Y-96249382D01*
X131695584Y-96211581D01*
X131717499Y-96167658D01*
X131731204Y-96116426D01*
X131736037Y-96056308D01*
X131729305Y-95981538D01*
X131710305Y-95919107D01*
X131679900Y-95866611D01*
X131637668Y-95822384D01*
X131586898Y-95788535D01*
X131524526Y-95762985D01*
X131448162Y-95746466D01*
X131354896Y-95740502D01*
X131270382Y-95743626D01*
X131182094Y-95753203D01*
X131092794Y-95768857D01*
X130998301Y-95791304D01*
G37*
G36*
X130053570Y-95791304D02*
G01*
X130053570Y-96006238D01*
X130137715Y-95973564D01*
X130217518Y-95950734D01*
X130296604Y-95936504D01*
X130368460Y-95931988D01*
X130431421Y-95935507D01*
X130476488Y-95944652D01*
X130507861Y-95957756D01*
X130532951Y-95978126D01*
X130547726Y-96004143D01*
X130552924Y-96037684D01*
X130549406Y-96063273D01*
X130539356Y-96084004D01*
X130522516Y-96101065D01*
X130485158Y-96120184D01*
X130412179Y-96140022D01*
X130300194Y-96162554D01*
X130212986Y-96184422D01*
X130145943Y-96209578D01*
X130095446Y-96237155D01*
X130058394Y-96266662D01*
X130028058Y-96303631D01*
X130005789Y-96347982D01*
X129991681Y-96401209D01*
X129986647Y-96465293D01*
X129993746Y-96549271D01*
X130013472Y-96617266D01*
X130044457Y-96672435D01*
X130086726Y-96717046D01*
X130138134Y-96750522D01*
X130203920Y-96776312D01*
X130287363Y-96793309D01*
X130392396Y-96799539D01*
X130489302Y-96794926D01*
X130587118Y-96780976D01*
X130684203Y-96758161D01*
X130782451Y-96726083D01*
X130782451Y-96502540D01*
X130684514Y-96549254D01*
X130593591Y-96581491D01*
X130502750Y-96601600D01*
X130417675Y-96608053D01*
X130360663Y-96604288D01*
X130317731Y-96594241D01*
X130285845Y-96579293D01*
X130260161Y-96557043D01*
X130245217Y-96530136D01*
X130240049Y-96496983D01*
X130243764Y-96466389D01*
X130254177Y-96442204D01*
X130271129Y-96422916D01*
X130310920Y-96400848D01*
X130395143Y-96376266D01*
X130496932Y-96353735D01*
X130574395Y-96332949D01*
X130635823Y-96308208D01*
X130683838Y-96280229D01*
X130720658Y-96249382D01*
X130750852Y-96211581D01*
X130772768Y-96167658D01*
X130786473Y-96116426D01*
X130791305Y-96056308D01*
X130784574Y-95981538D01*
X130765574Y-95919107D01*
X130735169Y-95866611D01*
X130692936Y-95822384D01*
X130642167Y-95788535D01*
X130579795Y-95762985D01*
X130503430Y-95746466D01*
X130410164Y-95740502D01*
X130325650Y-95743626D01*
X130237363Y-95753203D01*
X130148063Y-95768857D01*
X130053570Y-95791304D01*
G37*
G36*
X147084113Y-75529448D02*
G01*
X146973410Y-75529448D01*
X146918857Y-75525333D01*
X146880797Y-75514663D01*
X146854952Y-75499162D01*
X146836013Y-75476376D01*
X146823675Y-75444224D01*
X146819048Y-75399450D01*
X146823677Y-75355194D01*
X146836010Y-75323536D01*
X146854952Y-75301203D01*
X146880743Y-75286037D01*
X146918798Y-75275570D01*
X146973410Y-75271528D01*
X147084113Y-75271528D01*
X147084113Y-75529448D01*
G37*
G36*
X148665871Y-76230650D02*
G01*
X143333417Y-76230650D01*
X143333417Y-76100000D01*
X143444528Y-76100000D01*
X143738230Y-76100000D01*
X144109174Y-75400427D01*
X144109174Y-76100000D01*
X144358546Y-76100000D01*
X144358546Y-75900697D01*
X144589233Y-75900697D01*
X144589233Y-76100000D01*
X145314024Y-76100000D01*
X145314024Y-75900697D01*
X145544711Y-75900697D01*
X145544711Y-76100000D01*
X146269502Y-76100000D01*
X146426245Y-76100000D01*
X146706330Y-76100000D01*
X146830650Y-75845987D01*
X146858469Y-75796061D01*
X146883753Y-75762410D01*
X146906793Y-75741207D01*
X146933888Y-75726200D01*
X146967612Y-75716592D01*
X147009619Y-75713119D01*
X147084113Y-75713119D01*
X147084113Y-76100000D01*
X147347101Y-76100000D01*
X147347101Y-75533356D01*
X147579254Y-75533356D01*
X147579254Y-76023429D01*
X147679602Y-76065521D01*
X147783502Y-76095542D01*
X147890599Y-76113485D01*
X148002100Y-76119539D01*
X148104967Y-76113187D01*
X148195105Y-76095064D01*
X148274334Y-76066157D01*
X148344186Y-76026874D01*
X148405833Y-75977023D01*
X148458414Y-75917339D01*
X148499485Y-75850095D01*
X148529495Y-75774220D01*
X148548216Y-75688248D01*
X148554760Y-75590387D01*
X148548078Y-75491396D01*
X148528989Y-75404769D01*
X148498431Y-75328622D01*
X148456641Y-75261417D01*
X148403146Y-75202041D01*
X148340631Y-75152814D01*
X148269287Y-75113829D01*
X148187835Y-75085012D01*
X148094635Y-75066876D01*
X147987750Y-75060502D01*
X147887305Y-75065389D01*
X147792723Y-75079736D01*
X147701631Y-75103755D01*
X147616807Y-75136706D01*
X147616807Y-75349685D01*
X147703142Y-75306189D01*
X147786555Y-75276229D01*
X147871384Y-75257996D01*
X147955633Y-75251988D01*
X148033809Y-75258140D01*
X148098711Y-75275382D01*
X148152765Y-75302597D01*
X148197799Y-75339672D01*
X148233502Y-75385709D01*
X148259946Y-75441426D01*
X148276814Y-75508804D01*
X148282857Y-75590387D01*
X148277028Y-75671364D01*
X148260754Y-75738425D01*
X148235259Y-75794015D01*
X148200913Y-75840064D01*
X148157267Y-75877443D01*
X148105138Y-75904722D01*
X148042811Y-75921929D01*
X147967967Y-75928053D01*
X147891824Y-75922984D01*
X147857764Y-75916233D01*
X147828626Y-75906926D01*
X147828626Y-75709211D01*
X147989155Y-75709211D01*
X147989155Y-75533356D01*
X147579254Y-75533356D01*
X147347101Y-75533356D01*
X147347101Y-75080041D01*
X146945383Y-75080041D01*
X146841201Y-75085302D01*
X146759959Y-75099490D01*
X146697427Y-75120641D01*
X146649971Y-75147452D01*
X146610009Y-75184675D01*
X146581028Y-75231123D01*
X146562668Y-75288772D01*
X146556060Y-75360554D01*
X146559549Y-75399450D01*
X146561942Y-75426131D01*
X146578495Y-75480538D01*
X146604909Y-75525968D01*
X146641325Y-75563965D01*
X146689567Y-75595811D01*
X146752065Y-75621284D01*
X146717777Y-75632821D01*
X146685709Y-75651282D01*
X146655406Y-75677337D01*
X146615221Y-75728070D01*
X146569005Y-75809656D01*
X146426245Y-76100000D01*
X146269502Y-76100000D01*
X146269502Y-75080041D01*
X145559732Y-75080041D01*
X145559732Y-75279344D01*
X146006514Y-75279344D01*
X146006514Y-75466922D01*
X145586355Y-75466922D01*
X145586355Y-75666224D01*
X146006514Y-75666224D01*
X146006514Y-75900697D01*
X145544711Y-75900697D01*
X145314024Y-75900697D01*
X145314024Y-75080041D01*
X144604254Y-75080041D01*
X144604254Y-75279344D01*
X145051036Y-75279344D01*
X145051036Y-75466922D01*
X144630877Y-75466922D01*
X144630877Y-75666224D01*
X145051036Y-75666224D01*
X145051036Y-75900697D01*
X144589233Y-75900697D01*
X144358546Y-75900697D01*
X144358546Y-75080041D01*
X144064783Y-75080041D01*
X143693839Y-75779614D01*
X143693839Y-75080041D01*
X143444528Y-75080041D01*
X143444528Y-76100000D01*
X143333417Y-76100000D01*
X143333417Y-74949391D01*
X148665871Y-74949391D01*
X148665871Y-76230650D01*
G37*
G36*
X130412754Y-89390041D02*
G01*
X129702984Y-89390041D01*
X129702984Y-89589344D01*
X130149765Y-89589344D01*
X130149765Y-89776922D01*
X129729607Y-89776922D01*
X129729607Y-89976224D01*
X130149765Y-89976224D01*
X130149765Y-90410000D01*
X130412754Y-90410000D01*
X130412754Y-89390041D01*
G37*
G36*
X129457276Y-90410000D02*
G01*
X129020753Y-90410000D01*
X128916077Y-90404463D01*
X128833120Y-90389411D01*
X128768017Y-90366733D01*
X128717464Y-90337643D01*
X128674618Y-90297715D01*
X128643853Y-90249092D01*
X128624569Y-90189991D01*
X128617691Y-90117702D01*
X128619567Y-90096331D01*
X128880680Y-90096331D01*
X128885605Y-90139376D01*
X128899137Y-90172086D01*
X128920674Y-90196959D01*
X128949230Y-90214401D01*
X128987939Y-90225932D01*
X129039865Y-90230237D01*
X129194287Y-90230237D01*
X129194287Y-89964501D01*
X129039865Y-89964501D01*
X128987447Y-89968791D01*
X128948660Y-89980238D01*
X128920308Y-89997473D01*
X128898932Y-90022062D01*
X128885541Y-90054215D01*
X128880680Y-90096331D01*
X128619567Y-90096331D01*
X128623198Y-90054962D01*
X128638880Y-90001353D01*
X128664158Y-89955158D01*
X128698978Y-89915977D01*
X128742207Y-89885814D01*
X128795317Y-89864300D01*
X128753757Y-89843901D01*
X128720451Y-89818113D01*
X128694261Y-89786753D01*
X128675287Y-89750446D01*
X128663520Y-89708605D01*
X128660861Y-89677271D01*
X128922384Y-89677271D01*
X128926303Y-89711191D01*
X128937141Y-89737339D01*
X128954502Y-89757566D01*
X128977477Y-89771880D01*
X129008146Y-89781260D01*
X129048780Y-89784738D01*
X129194287Y-89784738D01*
X129194287Y-89569804D01*
X129048780Y-89569804D01*
X129008178Y-89573323D01*
X128977507Y-89582821D01*
X128954502Y-89597342D01*
X128937097Y-89617737D01*
X128926279Y-89643797D01*
X128922384Y-89677271D01*
X128660861Y-89677271D01*
X128659395Y-89659991D01*
X128666057Y-89590586D01*
X128684588Y-89534937D01*
X128713953Y-89490129D01*
X128754711Y-89454277D01*
X128802483Y-89429045D01*
X128866799Y-89408852D01*
X128951832Y-89395157D01*
X129062396Y-89390041D01*
X129457276Y-89390041D01*
X129457276Y-90410000D01*
G37*
D12*
%TO.C,G\u002A\u002A\u002A*%
G36*
X164244590Y-73685623D02*
G01*
X164244590Y-74367720D01*
X163562492Y-74367720D01*
X162880395Y-74367720D01*
X162880395Y-73685623D01*
X162880395Y-73003525D01*
X163562492Y-73003525D01*
X164244590Y-73003525D01*
X164244590Y-73685623D01*
G37*
G36*
X163789858Y-80051863D02*
G01*
X163789858Y-80279229D01*
X163562492Y-80279229D01*
X163335127Y-80279229D01*
X163335127Y-80051863D01*
X163335127Y-79824497D01*
X163562492Y-79824497D01*
X163789858Y-79824497D01*
X163789858Y-80051863D01*
G37*
G36*
X165154053Y-82325520D02*
G01*
X165154053Y-82552886D01*
X164926687Y-82552886D01*
X164699321Y-82552886D01*
X164699321Y-82325520D01*
X164699321Y-82098154D01*
X164926687Y-82098154D01*
X165154053Y-82098154D01*
X165154053Y-82325520D01*
G37*
G36*
X167427710Y-72321428D02*
G01*
X167427710Y-72548794D01*
X166745613Y-72548794D01*
X166063515Y-72548794D01*
X166063515Y-72321428D01*
X166063515Y-72094062D01*
X166745613Y-72094062D01*
X167427710Y-72094062D01*
X167427710Y-72321428D01*
G37*
G36*
X166972978Y-82780252D02*
G01*
X166972978Y-83007617D01*
X166745613Y-83007617D01*
X166518247Y-83007617D01*
X166518247Y-82780252D01*
X166518247Y-82552886D01*
X166745613Y-82552886D01*
X166972978Y-82552886D01*
X166972978Y-82780252D01*
G37*
G36*
X167882441Y-84144446D02*
G01*
X167882441Y-84371812D01*
X167655076Y-84371812D01*
X167427710Y-84371812D01*
X167427710Y-84144446D01*
X167427710Y-83917080D01*
X167655076Y-83917080D01*
X167882441Y-83917080D01*
X167882441Y-84144446D01*
G37*
G36*
X168337173Y-78232937D02*
G01*
X168337173Y-78460303D01*
X168109807Y-78460303D01*
X167882441Y-78460303D01*
X167882441Y-78232937D01*
X167882441Y-78005571D01*
X168109807Y-78005571D01*
X168337173Y-78005571D01*
X168337173Y-78232937D01*
G37*
G36*
X169701367Y-75049817D02*
G01*
X169701367Y-75277183D01*
X169474001Y-75277183D01*
X169246636Y-75277183D01*
X169246636Y-75049817D01*
X169246636Y-74822451D01*
X169474001Y-74822451D01*
X169701367Y-74822451D01*
X169701367Y-75049817D01*
G37*
G36*
X171520293Y-83689715D02*
G01*
X171520293Y-83917080D01*
X171065561Y-83917080D01*
X170610830Y-83917080D01*
X170610830Y-83689715D01*
X170610830Y-83462349D01*
X171065561Y-83462349D01*
X171520293Y-83462349D01*
X171520293Y-83689715D01*
G37*
G36*
X171520293Y-85053909D02*
G01*
X171520293Y-85281275D01*
X171292927Y-85281275D01*
X171065561Y-85281275D01*
X171065561Y-85053909D01*
X171065561Y-84826543D01*
X171292927Y-84826543D01*
X171520293Y-84826543D01*
X171520293Y-85053909D01*
G37*
G36*
X174248682Y-73685623D02*
G01*
X174248682Y-74367720D01*
X173566584Y-74367720D01*
X172884487Y-74367720D01*
X172884487Y-73685623D01*
X172884487Y-73003525D01*
X173566584Y-73003525D01*
X174248682Y-73003525D01*
X174248682Y-73685623D01*
G37*
G36*
X174248682Y-83689715D02*
G01*
X174248682Y-84371812D01*
X173566584Y-84371812D01*
X172884487Y-84371812D01*
X172884487Y-83689715D01*
X172884487Y-83007617D01*
X173566584Y-83007617D01*
X174248682Y-83007617D01*
X174248682Y-83689715D01*
G37*
G36*
X174248682Y-80961326D02*
G01*
X174248682Y-81643423D01*
X174021316Y-81643423D01*
X173793950Y-81643423D01*
X173793950Y-80961326D01*
X173793950Y-80279229D01*
X174021316Y-80279229D01*
X174248682Y-80279229D01*
X174248682Y-80961326D01*
G37*
G36*
X175158145Y-76186646D02*
G01*
X175158145Y-76641377D01*
X174930779Y-76641377D01*
X174703413Y-76641377D01*
X174703413Y-76186646D01*
X174703413Y-75731914D01*
X174930779Y-75731914D01*
X175158145Y-75731914D01*
X175158145Y-76186646D01*
G37*
G36*
X175158145Y-81416057D02*
G01*
X175158145Y-81643423D01*
X174930779Y-81643423D01*
X174703413Y-81643423D01*
X174703413Y-81416057D01*
X174703413Y-81188692D01*
X174930779Y-81188692D01*
X175158145Y-81188692D01*
X175158145Y-81416057D01*
G37*
G36*
X169928733Y-82552886D02*
G01*
X170156099Y-82552886D01*
X170156099Y-83007617D01*
X170156099Y-83462349D01*
X169928733Y-83462349D01*
X169701367Y-83462349D01*
X169701367Y-83007617D01*
X169701367Y-82552886D01*
X169928733Y-82552886D01*
G37*
G36*
X169701367Y-81643423D02*
G01*
X169701367Y-82552886D01*
X169474001Y-82552886D01*
X169246636Y-82552886D01*
X169246636Y-81643423D01*
X169246636Y-80733960D01*
X169474001Y-80733960D01*
X169701367Y-80733960D01*
X169701367Y-81643423D01*
G37*
G36*
X165154053Y-75277183D02*
G01*
X163562492Y-75277183D01*
X161970932Y-75277183D01*
X161970932Y-73685623D01*
X161970932Y-72574779D01*
X162451648Y-72574779D01*
X162451648Y-73685623D01*
X162451648Y-74796467D01*
X163562492Y-74796467D01*
X164673336Y-74796467D01*
X164673336Y-73685623D01*
X164673336Y-72574779D01*
X163562492Y-72574779D01*
X162451648Y-72574779D01*
X161970932Y-72574779D01*
X161970932Y-72094062D01*
X163562492Y-72094062D01*
X165154053Y-72094062D01*
X165154053Y-73685623D01*
X165154053Y-75277183D01*
G37*
G36*
X175158145Y-75277183D02*
G01*
X173566584Y-75277183D01*
X171975024Y-75277183D01*
X171975024Y-73685623D01*
X171975024Y-72574779D01*
X172455740Y-72574779D01*
X172455740Y-73685623D01*
X172455740Y-74796467D01*
X173566584Y-74796467D01*
X174677428Y-74796467D01*
X174677428Y-73685623D01*
X174677428Y-72574779D01*
X173566584Y-72574779D01*
X172455740Y-72574779D01*
X171975024Y-72574779D01*
X171975024Y-72094062D01*
X173566584Y-72094062D01*
X175158145Y-72094062D01*
X175158145Y-73685623D01*
X175158145Y-75277183D01*
G37*
G36*
X175158145Y-85281275D02*
G01*
X173566584Y-85281275D01*
X171975024Y-85281275D01*
X171975024Y-83689715D01*
X171975024Y-82578871D01*
X172455740Y-82578871D01*
X172455740Y-83689715D01*
X172455740Y-84800559D01*
X173566584Y-84800559D01*
X174677428Y-84800559D01*
X174677428Y-83689715D01*
X174677428Y-82578871D01*
X173566584Y-82578871D01*
X172455740Y-82578871D01*
X171975024Y-82578871D01*
X171975024Y-82098154D01*
X173566584Y-82098154D01*
X175158145Y-82098154D01*
X175158145Y-83689715D01*
X175158145Y-85281275D01*
G37*
G36*
X171292927Y-82552886D02*
G01*
X171520293Y-82552886D01*
X171520293Y-82780252D01*
X171520293Y-83007617D01*
X171292927Y-83007617D01*
X171065561Y-83007617D01*
X171065561Y-82780252D01*
X171065561Y-82552886D01*
X171292927Y-82552886D01*
G37*
G36*
X172429756Y-81416057D02*
G01*
X172429756Y-81643423D01*
X171975024Y-81643423D01*
X171520293Y-81643423D01*
X171520293Y-81870789D01*
X171520293Y-82098154D01*
X171292927Y-82098154D01*
X171065561Y-82098154D01*
X171065561Y-82325520D01*
X171065561Y-82552886D01*
X170838196Y-82552886D01*
X170610830Y-82552886D01*
X170610830Y-82098154D01*
X170610830Y-81643423D01*
X170383464Y-81643423D01*
X170156099Y-81643423D01*
X170156099Y-81416057D01*
X170156099Y-81188692D01*
X171292927Y-81188692D01*
X172429756Y-81188692D01*
X172429756Y-81416057D01*
G37*
G36*
X164244590Y-77550840D02*
G01*
X164017224Y-77550840D01*
X163789858Y-77550840D01*
X163789858Y-77778206D01*
X163789858Y-78005571D01*
X163562492Y-78005571D01*
X163335127Y-78005571D01*
X163335127Y-77778206D01*
X163335127Y-77550840D01*
X163107761Y-77550840D01*
X162880395Y-77550840D01*
X162880395Y-77778206D01*
X162880395Y-78005571D01*
X162425664Y-78005571D01*
X161970932Y-78005571D01*
X161970932Y-77778206D01*
X161970932Y-77550840D01*
X162198298Y-77550840D01*
X162425664Y-77550840D01*
X162425664Y-77096108D01*
X163335127Y-77096108D01*
X163335127Y-77323474D01*
X163335127Y-77550840D01*
X163562492Y-77550840D01*
X163789858Y-77550840D01*
X163789858Y-77323474D01*
X163789858Y-77096108D01*
X163562492Y-77096108D01*
X163335127Y-77096108D01*
X162425664Y-77096108D01*
X162425664Y-76641377D01*
X162198298Y-76641377D01*
X161970932Y-76641377D01*
X161970932Y-76414011D01*
X161970932Y-76186646D01*
X162198298Y-76186646D01*
X162425664Y-76186646D01*
X162425664Y-76414011D01*
X162425664Y-76641377D01*
X162880395Y-76641377D01*
X163335127Y-76641377D01*
X163335127Y-76414011D01*
X163335127Y-76186646D01*
X163562492Y-76186646D01*
X163789858Y-76186646D01*
X163789858Y-76414011D01*
X163789858Y-76641377D01*
X164017224Y-76641377D01*
X164244590Y-76641377D01*
X164244590Y-77096108D01*
X164244590Y-77323474D01*
X164244590Y-77550840D01*
G37*
G36*
X167882441Y-75959280D02*
G01*
X167882441Y-76186646D01*
X168109807Y-76186646D01*
X168337173Y-76186646D01*
X168337173Y-75959280D01*
X168337173Y-75731914D01*
X168564538Y-75731914D01*
X168791904Y-75731914D01*
X168791904Y-75959280D01*
X168791904Y-76186646D01*
X169019270Y-76186646D01*
X169246636Y-76186646D01*
X169246636Y-75959280D01*
X169246636Y-75731914D01*
X169474001Y-75731914D01*
X169701367Y-75731914D01*
X169701367Y-75959280D01*
X169701367Y-76186646D01*
X169474001Y-76186646D01*
X169246636Y-76186646D01*
X169246636Y-76414011D01*
X169246636Y-76641377D01*
X169474001Y-76641377D01*
X169701367Y-76641377D01*
X169701367Y-76868743D01*
X169701367Y-77096108D01*
X169474001Y-77096108D01*
X169246636Y-77096108D01*
X169246636Y-77323474D01*
X169246636Y-77550840D01*
X169019270Y-77550840D01*
X168791904Y-77550840D01*
X168791904Y-77778206D01*
X168791904Y-78005571D01*
X168564538Y-78005571D01*
X168337173Y-78005571D01*
X168337173Y-77550840D01*
X168337173Y-77096108D01*
X168564538Y-77096108D01*
X168791904Y-77096108D01*
X168791904Y-76868743D01*
X168791904Y-76641377D01*
X168337173Y-76641377D01*
X167882441Y-76641377D01*
X167882441Y-77096108D01*
X167882441Y-77550840D01*
X167655076Y-77550840D01*
X167427710Y-77550840D01*
X167427710Y-77096108D01*
X167427710Y-76641377D01*
X166972978Y-76641377D01*
X166518247Y-76641377D01*
X166518247Y-76414011D01*
X166518247Y-76186646D01*
X166972978Y-76186646D01*
X167427710Y-76186646D01*
X167427710Y-75959280D01*
X167427710Y-75731914D01*
X167655076Y-75731914D01*
X167882441Y-75731914D01*
X167882441Y-75959280D01*
G37*
G36*
X168337173Y-75504548D02*
G01*
X168337173Y-75731914D01*
X168109807Y-75731914D01*
X167882441Y-75731914D01*
X167882441Y-75504548D01*
X167882441Y-75277183D01*
X168109807Y-75277183D01*
X168337173Y-75277183D01*
X168337173Y-75504548D01*
G37*
G36*
X168791904Y-81188692D02*
G01*
X168564538Y-81188692D01*
X168337173Y-81188692D01*
X168337173Y-81416057D01*
X168337173Y-81643423D01*
X168564538Y-81643423D01*
X168791904Y-81643423D01*
X168791904Y-81870789D01*
X168791904Y-82098154D01*
X168337173Y-82098154D01*
X167882441Y-82098154D01*
X167882441Y-82325520D01*
X167882441Y-82552886D01*
X168337173Y-82552886D01*
X168791904Y-82552886D01*
X168791904Y-82780252D01*
X168791904Y-83007617D01*
X168337173Y-83007617D01*
X167882441Y-83007617D01*
X167882441Y-83234983D01*
X167882441Y-83462349D01*
X167655076Y-83462349D01*
X167427710Y-83462349D01*
X167427710Y-83007617D01*
X167427710Y-82552886D01*
X167200344Y-82552886D01*
X166972978Y-82552886D01*
X166972978Y-82325520D01*
X166972978Y-82098154D01*
X167200344Y-82098154D01*
X167427710Y-82098154D01*
X167427710Y-81643423D01*
X167427710Y-81188692D01*
X167200344Y-81188692D01*
X166972978Y-81188692D01*
X166972978Y-81416057D01*
X166972978Y-81643423D01*
X166745613Y-81643423D01*
X166518247Y-81643423D01*
X166518247Y-81870789D01*
X166518247Y-82098154D01*
X166290881Y-82098154D01*
X166063515Y-82098154D01*
X166063515Y-82325520D01*
X166063515Y-82780252D01*
X166063515Y-83462349D01*
X166290881Y-83462349D01*
X166518247Y-83462349D01*
X166518247Y-83917080D01*
X166518247Y-84371812D01*
X166972978Y-84371812D01*
X167427710Y-84371812D01*
X167427710Y-84599178D01*
X167427710Y-84826543D01*
X167655076Y-84826543D01*
X167882441Y-84826543D01*
X167882441Y-84599178D01*
X167882441Y-84371812D01*
X168109807Y-84371812D01*
X168337173Y-84371812D01*
X168337173Y-84599178D01*
X168337173Y-84826543D01*
X168109807Y-84826543D01*
X167882441Y-84826543D01*
X167882441Y-85053909D01*
X167882441Y-85281275D01*
X167655076Y-85281275D01*
X167427710Y-85281275D01*
X167427710Y-85053909D01*
X167427710Y-84826543D01*
X166745613Y-84826543D01*
X166063515Y-84826543D01*
X166063515Y-85053909D01*
X166063515Y-85281275D01*
X164699321Y-85281275D01*
X163335127Y-85281275D01*
X163335127Y-85053909D01*
X163335127Y-84826543D01*
X163562492Y-84826543D01*
X163789858Y-84826543D01*
X163789858Y-84599178D01*
X163789858Y-84371812D01*
X163335127Y-84371812D01*
X162880395Y-84371812D01*
X162880395Y-84826543D01*
X162880395Y-85281275D01*
X162653029Y-85281275D01*
X162425664Y-85281275D01*
X162425664Y-84826543D01*
X162425664Y-84371812D01*
X162198298Y-84371812D01*
X161970932Y-84371812D01*
X161970932Y-84144446D01*
X161970932Y-83917080D01*
X162198298Y-83917080D01*
X162425664Y-83917080D01*
X162425664Y-84144446D01*
X162425664Y-84371812D01*
X162653029Y-84371812D01*
X162880395Y-84371812D01*
X162880395Y-84144446D01*
X162880395Y-83917080D01*
X164244590Y-83917080D01*
X164244590Y-84371812D01*
X164244590Y-84826543D01*
X164699321Y-84826543D01*
X165154053Y-84826543D01*
X165154053Y-84599178D01*
X165154053Y-84371812D01*
X165381418Y-84371812D01*
X165608784Y-84371812D01*
X165608784Y-83917080D01*
X165608784Y-83462349D01*
X165381418Y-83462349D01*
X165154053Y-83462349D01*
X165154053Y-83689715D01*
X165154053Y-83917080D01*
X164699321Y-83917080D01*
X164244590Y-83917080D01*
X162880395Y-83917080D01*
X162653029Y-83917080D01*
X162425664Y-83917080D01*
X162425664Y-83689715D01*
X162425664Y-83462349D01*
X162198298Y-83462349D01*
X161970932Y-83462349D01*
X161970932Y-83234983D01*
X162880395Y-83234983D01*
X162880395Y-83462349D01*
X163335127Y-83462349D01*
X163789858Y-83462349D01*
X163789858Y-83234983D01*
X163789858Y-83007617D01*
X163335127Y-83007617D01*
X162880395Y-83007617D01*
X162880395Y-83234983D01*
X161970932Y-83234983D01*
X161970932Y-83007617D01*
X161970932Y-82552886D01*
X162198298Y-82552886D01*
X162425664Y-82552886D01*
X162425664Y-82780252D01*
X162425664Y-83007617D01*
X162653029Y-83007617D01*
X162880395Y-83007617D01*
X162880395Y-82780252D01*
X162880395Y-82552886D01*
X162653029Y-82552886D01*
X162425664Y-82552886D01*
X162425664Y-82325520D01*
X162425664Y-82098154D01*
X162198298Y-82098154D01*
X161970932Y-82098154D01*
X161970932Y-81870789D01*
X161970932Y-81643423D01*
X162425664Y-81643423D01*
X162880395Y-81643423D01*
X162880395Y-81416057D01*
X162880395Y-81188692D01*
X163107761Y-81188692D01*
X163335127Y-81188692D01*
X163335127Y-81643423D01*
X163335127Y-82098154D01*
X163107761Y-82098154D01*
X162880395Y-82098154D01*
X162880395Y-82325520D01*
X162880395Y-82552886D01*
X163335127Y-82552886D01*
X163789858Y-82552886D01*
X163789858Y-81643423D01*
X164244590Y-81643423D01*
X164244590Y-82325520D01*
X164244590Y-83007617D01*
X164926687Y-83007617D01*
X165608784Y-83007617D01*
X165608784Y-82325520D01*
X165608784Y-81643423D01*
X164926687Y-81643423D01*
X164244590Y-81643423D01*
X163789858Y-81643423D01*
X163789858Y-81416057D01*
X163789858Y-80279229D01*
X164017224Y-80279229D01*
X164244590Y-80279229D01*
X164699321Y-80279229D01*
X164699321Y-80733960D01*
X164699321Y-81188692D01*
X164926687Y-81188692D01*
X165154053Y-81188692D01*
X165154053Y-80733960D01*
X165154053Y-80279229D01*
X164926687Y-80279229D01*
X164699321Y-80279229D01*
X164244590Y-80279229D01*
X164244590Y-79824497D01*
X164244590Y-79369766D01*
X164471955Y-79369766D01*
X164699321Y-79369766D01*
X164699321Y-79597131D01*
X164699321Y-79824497D01*
X165154053Y-79824497D01*
X165608784Y-79824497D01*
X165608784Y-79597131D01*
X165608784Y-79369766D01*
X165154053Y-79369766D01*
X164699321Y-79369766D01*
X164699321Y-79142400D01*
X164699321Y-78915034D01*
X164244590Y-78915034D01*
X163789858Y-78915034D01*
X163789858Y-79142400D01*
X163789858Y-79369766D01*
X163562492Y-79369766D01*
X163335127Y-79369766D01*
X163335127Y-79142400D01*
X163335127Y-78915034D01*
X163107761Y-78915034D01*
X162880395Y-78915034D01*
X162880395Y-79369766D01*
X162880395Y-79824497D01*
X162653029Y-79824497D01*
X162425664Y-79824497D01*
X162425664Y-79369766D01*
X162425664Y-78915034D01*
X162198298Y-78915034D01*
X161970932Y-78915034D01*
X161970932Y-78687669D01*
X161970932Y-78460303D01*
X163562492Y-78460303D01*
X165154053Y-78460303D01*
X165154053Y-78687669D01*
X165154053Y-78915034D01*
X165381418Y-78915034D01*
X165608784Y-78915034D01*
X165608784Y-78687669D01*
X165608784Y-78460303D01*
X165381418Y-78460303D01*
X165154053Y-78460303D01*
X165154053Y-78232937D01*
X165154053Y-78005571D01*
X164926687Y-78005571D01*
X164699321Y-78005571D01*
X164699321Y-77778206D01*
X164699321Y-77550840D01*
X165381418Y-77550840D01*
X166063515Y-77550840D01*
X166063515Y-77778206D01*
X166063515Y-78005571D01*
X166290881Y-78005571D01*
X166518247Y-78005571D01*
X166518247Y-78232937D01*
X166518247Y-78460303D01*
X166290881Y-78460303D01*
X166063515Y-78460303D01*
X166063515Y-79369766D01*
X166063515Y-80279229D01*
X165836150Y-80279229D01*
X165608784Y-80279229D01*
X165608784Y-80506594D01*
X165608784Y-80733960D01*
X165836150Y-80733960D01*
X166063515Y-80733960D01*
X166063515Y-80961326D01*
X166063515Y-81188692D01*
X166290881Y-81188692D01*
X166518247Y-81188692D01*
X166518247Y-80733960D01*
X166518247Y-80279229D01*
X166745613Y-80279229D01*
X166972978Y-80279229D01*
X166972978Y-80506594D01*
X166972978Y-80733960D01*
X167200344Y-80733960D01*
X167427710Y-80733960D01*
X167427710Y-80961326D01*
X167427710Y-81188692D01*
X167882441Y-81188692D01*
X168337173Y-81188692D01*
X168337173Y-80733960D01*
X168337173Y-80279229D01*
X168109807Y-80279229D01*
X167882441Y-80279229D01*
X167882441Y-80506594D01*
X167882441Y-80733960D01*
X167655076Y-80733960D01*
X167427710Y-80733960D01*
X167427710Y-80279229D01*
X167427710Y-79824497D01*
X167200344Y-79824497D01*
X166972978Y-79824497D01*
X166972978Y-78687669D01*
X166972978Y-77550840D01*
X167200344Y-77550840D01*
X167427710Y-77550840D01*
X167427710Y-78232937D01*
X167427710Y-78915034D01*
X167655076Y-78915034D01*
X167882441Y-78915034D01*
X167882441Y-79142400D01*
X167882441Y-79369766D01*
X168109807Y-79369766D01*
X168337173Y-79369766D01*
X168337173Y-79597131D01*
X168337173Y-79824497D01*
X168564538Y-79824497D01*
X168791904Y-79824497D01*
X168791904Y-79597131D01*
X168791904Y-79369766D01*
X169019270Y-79369766D01*
X169246636Y-79369766D01*
X169246636Y-79824497D01*
X169246636Y-80279229D01*
X169019270Y-80279229D01*
X168791904Y-80279229D01*
X168791904Y-80733960D01*
X168791904Y-81188692D01*
G37*
G36*
X169019270Y-83917080D02*
G01*
X169701367Y-83917080D01*
X169701367Y-84144446D01*
X169701367Y-84371812D01*
X169928733Y-84371812D01*
X170156099Y-84371812D01*
X170156099Y-84826543D01*
X170156099Y-85281275D01*
X169474001Y-85281275D01*
X168791904Y-85281275D01*
X168791904Y-84826543D01*
X168791904Y-84371812D01*
X168564538Y-84371812D01*
X168337173Y-84371812D01*
X168337173Y-84144446D01*
X168337173Y-83917080D01*
X169019270Y-83917080D01*
G37*
G36*
X168109807Y-83462349D02*
G01*
X168337173Y-83462349D01*
X168337173Y-83689715D01*
X168337173Y-83917080D01*
X168109807Y-83917080D01*
X167882441Y-83917080D01*
X167882441Y-83689715D01*
X167882441Y-83462349D01*
X168109807Y-83462349D01*
G37*
G36*
X162425664Y-80051863D02*
G01*
X162425664Y-80279229D01*
X162653029Y-80279229D01*
X162880395Y-80279229D01*
X162880395Y-80733960D01*
X162880395Y-81188692D01*
X162425664Y-81188692D01*
X161970932Y-81188692D01*
X161970932Y-80506594D01*
X161970932Y-79824497D01*
X162198298Y-79824497D01*
X162425664Y-79824497D01*
X162425664Y-80051863D01*
G37*
G36*
X166745613Y-77096108D02*
G01*
X166972978Y-77096108D01*
X166972978Y-77323474D01*
X166972978Y-77550840D01*
X166745613Y-77550840D01*
X166518247Y-77550840D01*
X166518247Y-77323474D01*
X166518247Y-77096108D01*
X166745613Y-77096108D01*
G37*
G36*
X164699321Y-75959280D02*
G01*
X164699321Y-76186646D01*
X164926687Y-76186646D01*
X165154053Y-76186646D01*
X165154053Y-75959280D01*
X165154053Y-75731914D01*
X165381418Y-75731914D01*
X165608784Y-75731914D01*
X165608784Y-75959280D01*
X165608784Y-76186646D01*
X165381418Y-76186646D01*
X165154053Y-76186646D01*
X165154053Y-76414011D01*
X165154053Y-76641377D01*
X165381418Y-76641377D01*
X165608784Y-76641377D01*
X165608784Y-76414011D01*
X165608784Y-76186646D01*
X165836150Y-76186646D01*
X166063515Y-76186646D01*
X166063515Y-76414011D01*
X166063515Y-76641377D01*
X166290881Y-76641377D01*
X166518247Y-76641377D01*
X166518247Y-76868743D01*
X166518247Y-77096108D01*
X165836150Y-77096108D01*
X165154053Y-77096108D01*
X165154053Y-76868743D01*
X165154053Y-76641377D01*
X164926687Y-76641377D01*
X164699321Y-76641377D01*
X164699321Y-76414011D01*
X164699321Y-76186646D01*
X164471955Y-76186646D01*
X164244590Y-76186646D01*
X164244590Y-75959280D01*
X164244590Y-75731914D01*
X164471955Y-75731914D01*
X164699321Y-75731914D01*
X164699321Y-75959280D01*
G37*
G36*
X173793950Y-79369766D02*
G01*
X174021316Y-79369766D01*
X174248682Y-79369766D01*
X174248682Y-79597131D01*
X174248682Y-79824497D01*
X174476047Y-79824497D01*
X174703413Y-79824497D01*
X174703413Y-79597131D01*
X174703413Y-79369766D01*
X174930779Y-79369766D01*
X175158145Y-79369766D01*
X175158145Y-79597131D01*
X175158145Y-79824497D01*
X174930779Y-79824497D01*
X174703413Y-79824497D01*
X174703413Y-80051863D01*
X174703413Y-80279229D01*
X174476047Y-80279229D01*
X174248682Y-80279229D01*
X174248682Y-80051863D01*
X174248682Y-79824497D01*
X173566584Y-79824497D01*
X172884487Y-79824497D01*
X172884487Y-80051863D01*
X172884487Y-80279229D01*
X173111853Y-80279229D01*
X173339219Y-80279229D01*
X173339219Y-80961326D01*
X173339219Y-81643423D01*
X173111853Y-81643423D01*
X172884487Y-81643423D01*
X172884487Y-81416057D01*
X172884487Y-81188692D01*
X172657122Y-81188692D01*
X172429756Y-81188692D01*
X172429756Y-80961326D01*
X172429756Y-80733960D01*
X171975024Y-80733960D01*
X171520293Y-80733960D01*
X171520293Y-80279229D01*
X171520293Y-79824497D01*
X171747659Y-79824497D01*
X171975024Y-79824497D01*
X171975024Y-80051863D01*
X171975024Y-80279229D01*
X172202390Y-80279229D01*
X172429756Y-80279229D01*
X172429756Y-80051863D01*
X172429756Y-79824497D01*
X172202390Y-79824497D01*
X171975024Y-79824497D01*
X171975024Y-79597131D01*
X171975024Y-79369766D01*
X171520293Y-79369766D01*
X171065561Y-79369766D01*
X171065561Y-80051863D01*
X171065561Y-80733960D01*
X170383464Y-80733960D01*
X169701367Y-80733960D01*
X169701367Y-80506594D01*
X169701367Y-80279229D01*
X169928733Y-80279229D01*
X170156099Y-80279229D01*
X170156099Y-79824497D01*
X170156099Y-79369766D01*
X170383464Y-79369766D01*
X170610830Y-79369766D01*
X170610830Y-79142400D01*
X170610830Y-78915034D01*
X171292927Y-78915034D01*
X171975024Y-78915034D01*
X171975024Y-79142400D01*
X171975024Y-79369766D01*
X172202390Y-79369766D01*
X172429756Y-79369766D01*
X172429756Y-79142400D01*
X172429756Y-78915034D01*
X172884487Y-78915034D01*
X172884487Y-79142400D01*
X172884487Y-79369766D01*
X173111853Y-79369766D01*
X173339219Y-79369766D01*
X173339219Y-79142400D01*
X173339219Y-78915034D01*
X173566584Y-78915034D01*
X173793950Y-78915034D01*
X173793950Y-78687669D01*
X173793950Y-78460303D01*
X174021316Y-78460303D01*
X174248682Y-78460303D01*
X174248682Y-78232937D01*
X174248682Y-78005571D01*
X173793950Y-78005571D01*
X173339219Y-78005571D01*
X173339219Y-78460303D01*
X173339219Y-78915034D01*
X173111853Y-78915034D01*
X172884487Y-78915034D01*
X172429756Y-78915034D01*
X172202390Y-78915034D01*
X171975024Y-78915034D01*
X171975024Y-78687669D01*
X171975024Y-78460303D01*
X170838196Y-78460303D01*
X169701367Y-78460303D01*
X169701367Y-78915034D01*
X169701367Y-79369766D01*
X169474001Y-79369766D01*
X169246636Y-79369766D01*
X169246636Y-79142400D01*
X169246636Y-78915034D01*
X168791904Y-78915034D01*
X168337173Y-78915034D01*
X168337173Y-78687669D01*
X168337173Y-78460303D01*
X168564538Y-78460303D01*
X168791904Y-78460303D01*
X168791904Y-78232937D01*
X168791904Y-78005571D01*
X169019270Y-78005571D01*
X169246636Y-78005571D01*
X169246636Y-78232937D01*
X169246636Y-78460303D01*
X169474001Y-78460303D01*
X169701367Y-78460303D01*
X169701367Y-78232937D01*
X171975024Y-78232937D01*
X171975024Y-78460303D01*
X172202390Y-78460303D01*
X172429756Y-78460303D01*
X172429756Y-78232937D01*
X172429756Y-78005571D01*
X172202390Y-78005571D01*
X171975024Y-78005571D01*
X171975024Y-78232937D01*
X169701367Y-78232937D01*
X169701367Y-78005571D01*
X169474001Y-78005571D01*
X169246636Y-78005571D01*
X169246636Y-77778206D01*
X169246636Y-77550840D01*
X169701367Y-77550840D01*
X170156099Y-77550840D01*
X170156099Y-77096108D01*
X170156099Y-76641377D01*
X170610830Y-76641377D01*
X171065561Y-76641377D01*
X171065561Y-76186646D01*
X171065561Y-75731914D01*
X171292927Y-75731914D01*
X171520293Y-75731914D01*
X171520293Y-76186646D01*
X171520293Y-76641377D01*
X171975024Y-76641377D01*
X172429756Y-76641377D01*
X172429756Y-76414011D01*
X172429756Y-76186646D01*
X172202390Y-76186646D01*
X171975024Y-76186646D01*
X171975024Y-75959280D01*
X171975024Y-75731914D01*
X172429756Y-75731914D01*
X172884487Y-75731914D01*
X172884487Y-75959280D01*
X172884487Y-76186646D01*
X173111853Y-76186646D01*
X173339219Y-76186646D01*
X173339219Y-75959280D01*
X173339219Y-75731914D01*
X173566584Y-75731914D01*
X173793950Y-75731914D01*
X173793950Y-75959280D01*
X173793950Y-76186646D01*
X174021316Y-76186646D01*
X174248682Y-76186646D01*
X174248682Y-76414011D01*
X174248682Y-76641377D01*
X174021316Y-76641377D01*
X173793950Y-76641377D01*
X173793950Y-76868743D01*
X173793950Y-77096108D01*
X173566584Y-77096108D01*
X173339219Y-77096108D01*
X173339219Y-76868743D01*
X173339219Y-76641377D01*
X172884487Y-76641377D01*
X172429756Y-76641377D01*
X172429756Y-76868743D01*
X172429756Y-77096108D01*
X171975024Y-77096108D01*
X171520293Y-77096108D01*
X171520293Y-77323474D01*
X171520293Y-77550840D01*
X171292927Y-77550840D01*
X171065561Y-77550840D01*
X171065561Y-77778206D01*
X171065561Y-78005571D01*
X171520293Y-78005571D01*
X171975024Y-78005571D01*
X171975024Y-77778206D01*
X171975024Y-77550840D01*
X172429756Y-77550840D01*
X172884487Y-77550840D01*
X172884487Y-77323474D01*
X172884487Y-77096108D01*
X173111853Y-77096108D01*
X173339219Y-77096108D01*
X173339219Y-77323474D01*
X173339219Y-77550840D01*
X174021316Y-77550840D01*
X174703413Y-77550840D01*
X174703413Y-77778206D01*
X174703413Y-78005571D01*
X174930779Y-78005571D01*
X175158145Y-78005571D01*
X175158145Y-78460303D01*
X175158145Y-78915034D01*
X174930779Y-78915034D01*
X174703413Y-78915034D01*
X174703413Y-79142400D01*
X174703413Y-79369766D01*
X174476047Y-79369766D01*
X174248682Y-79369766D01*
X174248682Y-79142400D01*
X174248682Y-78915034D01*
X174021316Y-78915034D01*
X173793950Y-78915034D01*
X173793950Y-79142400D01*
X173793950Y-79369766D01*
G37*
G36*
X174930779Y-80279229D02*
G01*
X175158145Y-80279229D01*
X175158145Y-80506594D01*
X175158145Y-80733960D01*
X174930779Y-80733960D01*
X174703413Y-80733960D01*
X174703413Y-80506594D01*
X174703413Y-80279229D01*
X174930779Y-80279229D01*
G37*
G36*
X168791904Y-72321428D02*
G01*
X168791904Y-72548794D01*
X169019270Y-72548794D01*
X169246636Y-72548794D01*
X169246636Y-72321428D01*
X169246636Y-72094062D01*
X169474001Y-72094062D01*
X169701367Y-72094062D01*
X169701367Y-72321428D01*
X169701367Y-72548794D01*
X169474001Y-72548794D01*
X169246636Y-72548794D01*
X169246636Y-72776160D01*
X169246636Y-73003525D01*
X169019270Y-73003525D01*
X168791904Y-73003525D01*
X168791904Y-73230891D01*
X168791904Y-73458257D01*
X169019270Y-73458257D01*
X169246636Y-73458257D01*
X169246636Y-73685623D01*
X169246636Y-73912988D01*
X169019270Y-73912988D01*
X168791904Y-73912988D01*
X168791904Y-74140354D01*
X168791904Y-74367720D01*
X169019270Y-74367720D01*
X169246636Y-74367720D01*
X169246636Y-74595085D01*
X169246636Y-74822451D01*
X169019270Y-74822451D01*
X168791904Y-74822451D01*
X168791904Y-75049817D01*
X168791904Y-75277183D01*
X168564538Y-75277183D01*
X168337173Y-75277183D01*
X168337173Y-75049817D01*
X168337173Y-74822451D01*
X168109807Y-74822451D01*
X167882441Y-74822451D01*
X167882441Y-75049817D01*
X167882441Y-75277183D01*
X167655076Y-75277183D01*
X167427710Y-75277183D01*
X167427710Y-75049817D01*
X167427710Y-74822451D01*
X167200344Y-74822451D01*
X166972978Y-74822451D01*
X166972978Y-75049817D01*
X166972978Y-75277183D01*
X167200344Y-75277183D01*
X167427710Y-75277183D01*
X167427710Y-75504548D01*
X167427710Y-75731914D01*
X166972978Y-75731914D01*
X166518247Y-75731914D01*
X166518247Y-75959280D01*
X166518247Y-76186646D01*
X166290881Y-76186646D01*
X166063515Y-76186646D01*
X166063515Y-75959280D01*
X166063515Y-75731914D01*
X165836150Y-75731914D01*
X165608784Y-75731914D01*
X165608784Y-75277183D01*
X165608784Y-74822451D01*
X165836150Y-74822451D01*
X166063515Y-74822451D01*
X166063515Y-75049817D01*
X166063515Y-75277183D01*
X166290881Y-75277183D01*
X166518247Y-75277183D01*
X166518247Y-75049817D01*
X166518247Y-74822451D01*
X166290881Y-74822451D01*
X166063515Y-74822451D01*
X166063515Y-74595085D01*
X166063515Y-74367720D01*
X166290881Y-74367720D01*
X166518247Y-74367720D01*
X166518247Y-74140354D01*
X166518247Y-73912988D01*
X166063515Y-73912988D01*
X165608784Y-73912988D01*
X165608784Y-73230891D01*
X165608784Y-72548794D01*
X165836150Y-72548794D01*
X166063515Y-72548794D01*
X166063515Y-73003525D01*
X166063515Y-73458257D01*
X166518247Y-73458257D01*
X166972978Y-73458257D01*
X166972978Y-73230891D01*
X166972978Y-73003525D01*
X167427710Y-73003525D01*
X167882441Y-73003525D01*
X167882441Y-73230891D01*
X167882441Y-73458257D01*
X167427710Y-73458257D01*
X166972978Y-73458257D01*
X166972978Y-73685623D01*
X166972978Y-73912988D01*
X167427710Y-73912988D01*
X167882441Y-73912988D01*
X167882441Y-74140354D01*
X167882441Y-74367720D01*
X168109807Y-74367720D01*
X168337173Y-74367720D01*
X168337173Y-73685623D01*
X168337173Y-73003525D01*
X168109807Y-73003525D01*
X167882441Y-73003525D01*
X167882441Y-72776160D01*
X167882441Y-72548794D01*
X168109807Y-72548794D01*
X168337173Y-72548794D01*
X168337173Y-72321428D01*
X168337173Y-72094062D01*
X168564538Y-72094062D01*
X168791904Y-72094062D01*
X168791904Y-72321428D01*
G37*
G36*
X171065561Y-73003525D02*
G01*
X171065561Y-73912988D01*
X170838196Y-73912988D01*
X170610830Y-73912988D01*
X170610830Y-74595085D01*
X170610830Y-75277183D01*
X170838196Y-75277183D01*
X171065561Y-75277183D01*
X171065561Y-74822451D01*
X171065561Y-74367720D01*
X171292927Y-74367720D01*
X171520293Y-74367720D01*
X171520293Y-74822451D01*
X171520293Y-75277183D01*
X171292927Y-75277183D01*
X171065561Y-75277183D01*
X171065561Y-75504548D01*
X171065561Y-75731914D01*
X170838196Y-75731914D01*
X170610830Y-75731914D01*
X170610830Y-75959280D01*
X170610830Y-76186646D01*
X170383464Y-76186646D01*
X170156099Y-76186646D01*
X170156099Y-75959280D01*
X170156099Y-75731914D01*
X169928733Y-75731914D01*
X169701367Y-75731914D01*
X169701367Y-75504548D01*
X169701367Y-75277183D01*
X169928733Y-75277183D01*
X170156099Y-75277183D01*
X170156099Y-75049817D01*
X170156099Y-74822451D01*
X169928733Y-74822451D01*
X169701367Y-74822451D01*
X169701367Y-74140354D01*
X169701367Y-73458257D01*
X169928733Y-73458257D01*
X170156099Y-73458257D01*
X170156099Y-73685623D01*
X170156099Y-73912988D01*
X170383464Y-73912988D01*
X170610830Y-73912988D01*
X170610830Y-73685623D01*
X170610830Y-73458257D01*
X170383464Y-73458257D01*
X170156099Y-73458257D01*
X170156099Y-73230891D01*
X170156099Y-73003525D01*
X169928733Y-73003525D01*
X169701367Y-73003525D01*
X169701367Y-72776160D01*
X169701367Y-72548794D01*
X169928733Y-72548794D01*
X170156099Y-72548794D01*
X170156099Y-72776160D01*
X170156099Y-73003525D01*
X170383464Y-73003525D01*
X170610830Y-73003525D01*
X170610830Y-72548794D01*
X170610830Y-72094062D01*
X170838196Y-72094062D01*
X171065561Y-72094062D01*
X171065561Y-73003525D01*
G37*
D13*
%TO.C,TP15*%
X131810000Y-97900000D02*
G75*
G02*
X129910000Y-97900000I-950000J0D01*
G01*
X129910000Y-97900000D02*
G75*
G02*
X131810000Y-97900000I950000J0D01*
G01*
%TO.C,TP2*%
X152591419Y-95700000D02*
G75*
G02*
X150691419Y-95700000I-950000J0D01*
G01*
X150691419Y-95700000D02*
G75*
G02*
X152591419Y-95700000I950000J0D01*
G01*
%TO.C,TP16*%
X133970000Y-94390000D02*
G75*
G02*
X132070000Y-94390000I-950000J0D01*
G01*
X132070000Y-94390000D02*
G75*
G02*
X133970000Y-94390000I950000J0D01*
G01*
%TO.C,TP14*%
X130480000Y-91530000D02*
G75*
G02*
X128580000Y-91530000I-950000J0D01*
G01*
X128580000Y-91530000D02*
G75*
G02*
X130480000Y-91530000I950000J0D01*
G01*
%TO.C,TP18*%
X156420000Y-91050000D02*
G75*
G02*
X154520000Y-91050000I-950000J0D01*
G01*
X154520000Y-91050000D02*
G75*
G02*
X156420000Y-91050000I950000J0D01*
G01*
%TD*%
%LPC*%
D14*
%TO.C,H3*%
X121100000Y-111500000D03*
X121802944Y-109802944D03*
X121802944Y-113197056D03*
X123500000Y-109100000D03*
D15*
X123500000Y-111500000D03*
D14*
X123500000Y-113900000D03*
X125197056Y-109802944D03*
X125197056Y-113197056D03*
X125900000Y-111500000D03*
%TD*%
%TO.C,H2*%
X121100000Y-67750000D03*
X121802944Y-66052944D03*
X121802944Y-69447056D03*
X123500000Y-65350000D03*
D15*
X123500000Y-67750000D03*
D14*
X123500000Y-70150000D03*
X125197056Y-66052944D03*
X125197056Y-69447056D03*
X125900000Y-67750000D03*
%TD*%
D16*
%TO.C,J1*%
X139500000Y-113375000D03*
D17*
X141100000Y-111375000D03*
D18*
X143600000Y-111375000D03*
X146100000Y-111375000D03*
X148600000Y-111375000D03*
X151100000Y-111375000D03*
X153600000Y-111375000D03*
X156100000Y-111375000D03*
%TD*%
D14*
%TO.C,H4*%
X171100000Y-111500000D03*
X171802944Y-109802944D03*
X171802944Y-113197056D03*
X173500000Y-109100000D03*
D15*
X173500000Y-111500000D03*
D14*
X173500000Y-113900000D03*
X175197056Y-109802944D03*
X175197056Y-113197056D03*
X175900000Y-111500000D03*
%TD*%
%TO.C,H1*%
X171100000Y-68000000D03*
X171802944Y-66302944D03*
X171802944Y-69697056D03*
X173500000Y-65600000D03*
D15*
X173500000Y-68000000D03*
D14*
X173500000Y-70400000D03*
X175197056Y-66302944D03*
X175197056Y-69697056D03*
X175900000Y-68000000D03*
%TD*%
D19*
%TO.C,H5*%
X158750000Y-82380000D03*
X158750000Y-87460000D03*
X158750000Y-92540000D03*
X158750000Y-97620000D03*
X156120000Y-100250000D03*
X151040000Y-100250000D03*
X145960000Y-100250000D03*
X140880000Y-100250000D03*
X138250000Y-97620000D03*
X138250000Y-92540000D03*
X138250000Y-87460000D03*
X138250000Y-82380000D03*
X140880000Y-79750000D03*
X145960000Y-79750000D03*
X151040000Y-79750000D03*
X156120000Y-79750000D03*
%TD*%
D20*
%TO.C,J3*%
X155900000Y-73500000D03*
X150900000Y-73500000D03*
X145900000Y-73500000D03*
X140900000Y-73500000D03*
X155900000Y-68500000D03*
X150900000Y-68500000D03*
X145900000Y-68500000D03*
X140900000Y-68500000D03*
%TD*%
D21*
%TO.C,TP15*%
X130860000Y-97900000D03*
%TD*%
%TO.C,TP2*%
X151641419Y-95700000D03*
%TD*%
%TO.C,TP16*%
X133020000Y-94390000D03*
%TD*%
%TO.C,TP14*%
X129530000Y-91530000D03*
%TD*%
%TO.C,TP18*%
X155470000Y-91050000D03*
%TD*%
%LPD*%
M02*
