M48
; DRILL file {KiCad 9.0.7+1} date 2026-02-27T16:45:22+0000
; FORMAT={-:-/ absolute / metric / decimal}
; #@! TF.CreationDate,2026-02-27T16:45:22+00:00
; #@! TF.GenerationSoftware,Kicad,Pcbnew,9.0.7+1
; #@! TF.FileFunction,Plated,1,2,PTH
FMAT,2
METRIC
; #@! TA.AperFunction,Plated,PTH,ComponentDrill
T1C0.200
; #@! TA.AperFunction,Plated,PTH,ViaDrill
T2C0.250
; #@! TA.AperFunction,Plated,PTH,ComponentDrill
T3C0.500
; #@! TA.AperFunction,Plated,PTH,ComponentDrill
T4C1.000
; #@! TA.AperFunction,Plated,PTH,ComponentDrill
T5C3.200
%
G90
G05
T1
X149.1Y-113.2
X149.1Y-114.5
X149.1Y-115.8
X150.4Y-113.2
X150.4Y-114.5
X150.4Y-115.8
T2
X141.4Y-94.1
X141.925Y-90.825
X148.1Y-88.5
X150.4Y-88.5
X151.425Y-88.5
X151.45Y-118.25
X151.9Y-112.1
X157.3Y-87.2
T3
X136.2Y-78.8
X136.2Y-139.9
X136.903Y-77.103
X136.903Y-80.497
X136.903Y-138.203
X136.903Y-141.597
X138.6Y-76.4
X138.6Y-81.2
X138.6Y-137.5
X138.6Y-142.3
X140.297Y-77.103
X140.297Y-80.497
X140.297Y-138.203
X140.297Y-141.597
X141.0Y-78.8
X141.0Y-139.9
X156.1Y-78.8
X156.1Y-139.9
X156.803Y-77.103
X156.803Y-80.497
X156.803Y-138.203
X156.803Y-141.597
X158.5Y-76.4
X158.5Y-81.2
X158.5Y-137.5
X158.5Y-142.3
X160.197Y-77.103
X160.197Y-80.497
X160.197Y-138.203
X160.197Y-141.597
X160.9Y-78.8
X160.9Y-139.9
T4
X136.2Y-84.04
X136.2Y-86.58
X136.2Y-89.12
X136.2Y-91.66
X136.2Y-94.2
X140.1Y-118.635
X140.1Y-121.175
X144.72Y-76.6
X147.26Y-76.6
X149.8Y-76.6
X152.34Y-76.6
X155.3Y-98.6
X155.3Y-101.14
X158.9Y-98.625
X158.9Y-101.165
X160.2Y-127.3
X160.2Y-129.84
T5
X138.6Y-78.8
X138.6Y-139.9
X158.5Y-78.8
X158.5Y-139.9
M30
