%TF.GenerationSoftware,KiCad,Pcbnew,9.0.7+1*%
%TF.CreationDate,Date%
%TF.ProjectId,Cellule_de_force_V2,43656c6c-756c-4655-9f64-655f666f7263,+ (Unreleased)*%
%TF.SameCoordinates,Original*%
%TF.FileFunction,Copper,L1,Top*%
%TF.FilePolarity,Positive*%
%FSLAX46Y46*%
G04 Gerber Fmt 4.6, Leading zero omitted, Abs format (unit mm)*
G04 Created by KiCad*
%MOMM*%
%LPD*%
G01*
G04 APERTURE LIST*
G04 Aperture macros list*
%AMRoundRect*
0 Rectangle with rounded corners*
0 $1 Rounding radius*
0 $2 $3 $4 $5 $6 $7 $8 $9 X,Y pos of 4 corners*
0 Add a 4 corners polygon primitive as box body*
4,1,4,$2,$3,$4,$5,$6,$7,$8,$9,$2,$3,0*
0 Add four circle primitives for the rounded corners*
1,1,$1+$1,$2,$3*
1,1,$1+$1,$4,$5*
1,1,$1+$1,$6,$7*
1,1,$1+$1,$8,$9*
0 Add four rect primitives between the rounded corners*
20,1,$1+$1,$2,$3,$4,$5,0*
20,1,$1+$1,$4,$5,$6,$7,0*
20,1,$1+$1,$6,$7,$8,$9,0*
20,1,$1+$1,$8,$9,$2,$3,0*%
G04 Aperture macros list end*
%TA.AperFunction,SMDPad,CuDef*%
%ADD10RoundRect,0.225000X0.225000X0.250000X-0.225000X0.250000X-0.225000X-0.250000X0.225000X-0.250000X0*%
%TD*%
%TA.AperFunction,SMDPad,CuDef*%
%ADD11RoundRect,0.218750X0.218750X0.256250X-0.218750X0.256250X-0.218750X-0.256250X0.218750X-0.256250X0*%
%TD*%
%TA.AperFunction,SMDPad,CuDef*%
%ADD12C,2.000000*%
%TD*%
%TA.AperFunction,SMDPad,CuDef*%
%ADD13RoundRect,0.225000X-0.225000X-0.250000X0.225000X-0.250000X0.225000X0.250000X-0.225000X0.250000X0*%
%TD*%
%TA.AperFunction,ComponentPad*%
%ADD14C,0.800000*%
%TD*%
%TA.AperFunction,ComponentPad*%
%ADD15C,6.400000*%
%TD*%
%TA.AperFunction,SMDPad,CuDef*%
%ADD16RoundRect,0.075000X-0.650000X-0.075000X0.650000X-0.075000X0.650000X0.075000X-0.650000X0.075000X0*%
%TD*%
%TA.AperFunction,HeatsinkPad*%
%ADD17C,0.500000*%
%TD*%
%TA.AperFunction,HeatsinkPad*%
%ADD18R,2.200000X3.100000*%
%TD*%
%TA.AperFunction,SMDPad,CuDef*%
%ADD19RoundRect,0.225000X-0.250000X0.225000X-0.250000X-0.225000X0.250000X-0.225000X0.250000X0.225000X0*%
%TD*%
%TA.AperFunction,ComponentPad*%
%ADD20R,1.700000X1.700000*%
%TD*%
%TA.AperFunction,ComponentPad*%
%ADD21C,1.700000*%
%TD*%
%TA.AperFunction,SMDPad,CuDef*%
%ADD22RoundRect,0.200000X-0.200000X-0.275000X0.200000X-0.275000X0.200000X0.275000X-0.200000X0.275000X0*%
%TD*%
%TA.AperFunction,SMDPad,CuDef*%
%ADD23RoundRect,0.225000X0.250000X-0.225000X0.250000X0.225000X-0.250000X0.225000X-0.250000X-0.225000X0*%
%TD*%
%TA.AperFunction,SMDPad,CuDef*%
%ADD24RoundRect,0.200000X0.200000X0.275000X-0.200000X0.275000X-0.200000X-0.275000X0.200000X-0.275000X0*%
%TD*%
%TA.AperFunction,SMDPad,CuDef*%
%ADD25RoundRect,0.200000X-0.275000X0.200000X-0.275000X-0.200000X0.275000X-0.200000X0.275000X0.200000X0*%
%TD*%
%TA.AperFunction,SMDPad,CuDef*%
%ADD26RoundRect,0.250000X-0.300000X-0.300000X0.300000X-0.300000X0.300000X0.300000X-0.300000X0.300000X0*%
%TD*%
%TA.AperFunction,SMDPad,CuDef*%
%ADD27R,2.400000X2.300000*%
%TD*%
%TA.AperFunction,SMDPad,CuDef*%
%ADD28R,1.300000X1.700000*%
%TD*%
%TA.AperFunction,SMDPad,CuDef*%
%ADD29R,0.240000X0.600000*%
%TD*%
%TA.AperFunction,SMDPad,CuDef*%
%ADD30R,2.400000X1.650000*%
%TD*%
%TA.AperFunction,SMDPad,CuDef*%
%ADD31R,0.500000X0.250000*%
%TD*%
%TA.AperFunction,SMDPad,CuDef*%
%ADD32RoundRect,0.200000X0.275000X-0.200000X0.275000X0.200000X-0.275000X0.200000X-0.275000X-0.200000X0*%
%TD*%
%TA.AperFunction,SMDPad,CuDef*%
%ADD33R,1.850000X1.900000*%
%TD*%
%TA.AperFunction,SMDPad,CuDef*%
%ADD34R,0.450000X1.450000*%
%TD*%
%TA.AperFunction,ViaPad*%
%ADD35C,0.550000*%
%TD*%
%TA.AperFunction,Conductor*%
%ADD36C,0.250000*%
%TD*%
%TA.AperFunction,Conductor*%
%ADD37C,0.200000*%
%TD*%
%TA.AperFunction,Conductor*%
%ADD38C,0.400000*%
%TD*%
%TA.AperFunction,Conductor*%
%ADD39C,0.300000*%
%TD*%
G04 APERTURE END LIST*
D10*
%TO.P,C15,1*%
%TO.N,+5VA_OUT*%
X151940000Y-110460000D03*
%TO.P,C15,2*%
%TO.N,GND*%
X150390000Y-110460000D03*
%TD*%
D11*
%TO.P,D2,1,K*%
%TO.N,GND*%
X161275000Y-91300000D03*
%TO.P,D2,2,A*%
%TO.N,Net-(D2-A)*%
X159700000Y-91300000D03*
%TD*%
D12*
%TO.P,TP17,1,1*%
%TO.N,/Project Architecture/LT3042_6V_5VA/SET*%
X157500000Y-113600000D03*
%TD*%
D13*
%TO.P,C16,1*%
%TO.N,+6V_IN*%
X147375000Y-111900000D03*
%TO.P,C16,2*%
%TO.N,GND*%
X148925000Y-111900000D03*
%TD*%
D14*
%TO.P,H4,1,1*%
%TO.N,GND*%
X156100000Y-139900000D03*
X156802944Y-138202944D03*
X156802944Y-141597056D03*
X158500000Y-137500000D03*
D15*
X158500000Y-139900000D03*
D14*
X158500000Y-142300000D03*
X160197056Y-138202944D03*
X160197056Y-141597056D03*
X160900000Y-139900000D03*
%TD*%
D16*
%TO.P,U2,1,IN*%
%TO.N,+6V_IN*%
X147600000Y-113500000D03*
%TO.P,U2,2,IN*%
X147600000Y-114000000D03*
%TO.P,U2,3,EN/UV*%
X147600000Y-114500000D03*
%TO.P,U2,4,PG*%
%TO.N,Net-(U2-PG)*%
X147600000Y-115000000D03*
%TO.P,U2,5,ILIM*%
%TO.N,GND*%
X147600000Y-115500000D03*
%TO.P,U2,6,PGFB*%
%TO.N,/Project Architecture/LT3042_6V_5VA/PGFB*%
X151900000Y-115500000D03*
%TO.P,U2,7,SET*%
%TO.N,/Project Architecture/LT3042_6V_5VA/SET*%
X151900000Y-115000000D03*
%TO.P,U2,8,GND*%
%TO.N,GND*%
X151900000Y-114500000D03*
%TO.P,U2,9,OUTS*%
%TO.N,+5VA_OUT*%
X151900000Y-114000000D03*
%TO.P,U2,10,OUT*%
X151900000Y-113500000D03*
D17*
%TO.P,U2,11,GND*%
%TO.N,GND*%
X149100000Y-113200000D03*
X149100000Y-114500000D03*
X149100000Y-115800000D03*
D18*
X149750000Y-114500000D03*
D17*
X150400000Y-113200000D03*
X150400000Y-114500000D03*
X150400000Y-115800000D03*
%TD*%
D19*
%TO.P,C3,1*%
%TO.N,GND*%
X153500000Y-85525000D03*
%TO.P,C3,2*%
%TO.N,IN-SENSE+*%
X153500000Y-87075000D03*
%TD*%
D20*
%TO.P,J2,1,Pin_1*%
%TO.N,+6V_OUT*%
X140100000Y-121175000D03*
D21*
%TO.P,J2,2,Pin_2*%
%TO.N,+6V_IN*%
X140100000Y-118635000D03*
%TD*%
D10*
%TO.P,C5,1*%
%TO.N,IN-SENSE+*%
X146175000Y-83800000D03*
%TO.P,C5,2*%
%TO.N,IN-SENSE-*%
X144625000Y-83800000D03*
%TD*%
D22*
%TO.P,R10,1*%
%TO.N,Net-(U1-P3)*%
X156662500Y-89800000D03*
%TO.P,R10,2*%
%TO.N,Net-(D1-A)*%
X158312500Y-89800000D03*
%TD*%
D10*
%TO.P,C13,1*%
%TO.N,+5VA_OUT*%
X151940000Y-111970000D03*
%TO.P,C13,2*%
%TO.N,GND*%
X150390000Y-111970000D03*
%TD*%
D20*
%TO.P,J4,1,Pin_1*%
%TO.N,IN-SENSE+*%
X158900000Y-98625000D03*
D21*
%TO.P,J4,2,Pin_2*%
%TO.N,+5VA_OUT*%
X158900000Y-101165000D03*
%TD*%
D23*
%TO.P,C22,1*%
%TO.N,+3.3V_IN*%
X151825000Y-131575000D03*
%TO.P,C22,2*%
%TO.N,GND*%
X151825000Y-130025000D03*
%TD*%
D10*
%TO.P,C9,1*%
%TO.N,IN-SENSE-*%
X144575000Y-82300000D03*
%TO.P,C9,2*%
%TO.N,GND*%
X143025000Y-82300000D03*
%TD*%
D22*
%TO.P,R7,1*%
%TO.N,DOUT*%
X138675000Y-86600000D03*
%TO.P,R7,2*%
%TO.N,Net-(U1-DOUT{slash}~{RDY})*%
X140325000Y-86600000D03*
%TD*%
D23*
%TO.P,C19,1*%
%TO.N,+6V_OUT*%
X144100000Y-134400000D03*
%TO.P,C19,2*%
%TO.N,GND*%
X144100000Y-132850000D03*
%TD*%
D24*
%TO.P,R16,1*%
%TO.N,Net-(D4-A)*%
X158325000Y-105400000D03*
%TO.P,R16,2*%
%TO.N,+5VA_OUT*%
X156675000Y-105400000D03*
%TD*%
D22*
%TO.P,R3,1*%
%TO.N,DIN*%
X138675000Y-89200000D03*
%TO.P,R3,2*%
%TO.N,Net-(U1-DIN)*%
X140325000Y-89200000D03*
%TD*%
D20*
%TO.P,J3,1,Pin_1*%
%TO.N,+3.3V_IN*%
X155300000Y-98600000D03*
D21*
%TO.P,J3,2,Pin_2*%
X155300000Y-101140000D03*
%TD*%
D10*
%TO.P,C7,1*%
%TO.N,GND*%
X147775000Y-82300000D03*
%TO.P,C7,2*%
%TO.N,IN-SENSE+*%
X146225000Y-82300000D03*
%TD*%
D23*
%TO.P,C4,1*%
%TO.N,GND*%
X153500000Y-90075000D03*
%TO.P,C4,2*%
%TO.N,IN-SENSE+*%
X153500000Y-88525000D03*
%TD*%
D19*
%TO.P,C17,1*%
%TO.N,Net-(C17-Pad1)*%
X151825000Y-127050000D03*
%TO.P,C17,2*%
%TO.N,GND*%
X151825000Y-128600000D03*
%TD*%
D13*
%TO.P,C11,1*%
%TO.N,MCLK2*%
X146025000Y-94700000D03*
%TO.P,C11,2*%
%TO.N,GND*%
X147575000Y-94700000D03*
%TD*%
D25*
%TO.P,R1,1*%
%TO.N,IN-OUT+*%
X152400000Y-79175000D03*
%TO.P,R1,2*%
%TO.N,OUT+*%
X152400000Y-80825000D03*
%TD*%
%TO.P,R8,1*%
%TO.N,+3.3V_IN*%
X143300000Y-89175000D03*
%TO.P,R8,2*%
%TO.N,Net-(U1-~{CS})*%
X143300000Y-90825000D03*
%TD*%
D10*
%TO.P,C8,1*%
%TO.N,OUT-*%
X150775000Y-82300000D03*
%TO.P,C8,2*%
%TO.N,GND*%
X149225000Y-82300000D03*
%TD*%
D19*
%TO.P,C18,1*%
%TO.N,Net-(IC2-SS)*%
X153325000Y-127050000D03*
%TO.P,C18,2*%
%TO.N,GND*%
X153325000Y-128600000D03*
%TD*%
D10*
%TO.P,C6,1*%
%TO.N,OUT+*%
X152375000Y-83800000D03*
%TO.P,C6,2*%
%TO.N,OUT-*%
X150825000Y-83800000D03*
%TD*%
D22*
%TO.P,R4,1*%
%TO.N,SYNC*%
X138675000Y-84000000D03*
%TO.P,R4,2*%
%TO.N,Net-(U1-~{SYNC})*%
X140325000Y-84000000D03*
%TD*%
D20*
%TO.P,J1,1,Pin_1*%
%TO.N,+3.3V_IN*%
X160200000Y-129840000D03*
D21*
%TO.P,J1,2,Pin_2*%
%TO.N,GND*%
X160200000Y-127300000D03*
%TD*%
D25*
%TO.P,R14,1*%
%TO.N,+6V_IN*%
X145850000Y-113375000D03*
%TO.P,R14,2*%
%TO.N,Net-(U2-PG)*%
X145850000Y-115025000D03*
%TD*%
D13*
%TO.P,C2,1*%
%TO.N,+3.3V_IN*%
X155125000Y-95900000D03*
%TO.P,C2,2*%
%TO.N,GND*%
X156675000Y-95900000D03*
%TD*%
D26*
%TO.P,D3,1,K*%
%TO.N,+6V_OUT*%
X142525000Y-136300000D03*
%TO.P,D3,2,A*%
%TO.N,Net-(D3-A)*%
X145325000Y-136300000D03*
%TD*%
D23*
%TO.P,C20,1*%
%TO.N,+6V_OUT*%
X142600000Y-134400000D03*
%TO.P,C20,2*%
%TO.N,GND*%
X142600000Y-132850000D03*
%TD*%
D12*
%TO.P,TP15,1,1*%
%TO.N,MCLK2*%
X147800000Y-105700000D03*
%TD*%
D22*
%TO.P,R11,1*%
%TO.N,Net-(U1-P2)*%
X156662500Y-91300000D03*
%TO.P,R11,2*%
%TO.N,Net-(D2-A)*%
X158312500Y-91300000D03*
%TD*%
%TO.P,R6,1*%
%TO.N,CS*%
X138675000Y-94100000D03*
%TO.P,R6,2*%
%TO.N,Net-(U1-~{CS})*%
X140325000Y-94100000D03*
%TD*%
D27*
%TO.P,Y1,1,1*%
%TO.N,MCLK1*%
X142720000Y-102000000D03*
%TO.P,Y1,2,2*%
%TO.N,MCLK2*%
X147800000Y-102000000D03*
%TO.P,Y1,3,3*%
X147800000Y-97600000D03*
%TO.P,Y1,4,4*%
%TO.N,MCLK1*%
X142720000Y-97600000D03*
%TD*%
D12*
%TO.P,TP16,1,1*%
%TO.N,+6V_IN*%
X143800000Y-111170000D03*
%TD*%
D11*
%TO.P,D1,1,K*%
%TO.N,GND*%
X161287500Y-89790000D03*
%TO.P,D1,2,A*%
%TO.N,Net-(D1-A)*%
X159712500Y-89790000D03*
%TD*%
D10*
%TO.P,C10,1*%
%TO.N,GND*%
X153975000Y-82300000D03*
%TO.P,C10,2*%
%TO.N,OUT+*%
X152425000Y-82300000D03*
%TD*%
D12*
%TO.P,TP20,1,1*%
%TO.N,+6V_OUT*%
X139400000Y-134100000D03*
%TD*%
D14*
%TO.P,H3,1,1*%
%TO.N,GND*%
X136200000Y-139900000D03*
X136902944Y-138202944D03*
X136902944Y-141597056D03*
X138600000Y-137500000D03*
D15*
X138600000Y-139900000D03*
D14*
X138600000Y-142300000D03*
X140297056Y-138202944D03*
X140297056Y-141597056D03*
X141000000Y-139900000D03*
%TD*%
D25*
%TO.P,R2,1*%
%TO.N,IN-OUT-*%
X150800000Y-79175000D03*
%TO.P,R2,2*%
%TO.N,OUT-*%
X150800000Y-80825000D03*
%TD*%
D12*
%TO.P,TP14,1,1*%
%TO.N,MCLK1*%
X142700000Y-105700000D03*
%TD*%
D13*
%TO.P,C1,1*%
%TO.N,+3.3V_IN*%
X155125000Y-94400000D03*
%TO.P,C1,2*%
%TO.N,GND*%
X156675000Y-94400000D03*
%TD*%
D24*
%TO.P,R9,1*%
%TO.N,GND*%
X155305000Y-115170000D03*
%TO.P,R9,2*%
%TO.N,/Project Architecture/LT3042_6V_5VA/SET*%
X153655000Y-115170000D03*
%TD*%
D12*
%TO.P,TP19,1,1*%
%TO.N,/Project Architecture/TPS61086_3.3V_to_6V/FB*%
X150800000Y-122200000D03*
%TD*%
%TO.P,TP8,1,1*%
%TO.N,+5VA_OUT*%
X153300000Y-107300000D03*
%TD*%
D22*
%TO.P,R5,1*%
%TO.N,SCLK*%
X138650000Y-91700000D03*
%TO.P,R5,2*%
%TO.N,Net-(U1-SCLK)*%
X140300000Y-91700000D03*
%TD*%
D24*
%TO.P,R17,1*%
%TO.N,/Project Architecture/TPS61086_3.3V_to_6V/FB*%
X148850000Y-124600000D03*
%TO.P,R17,2*%
%TO.N,+6V_OUT*%
X147200000Y-124600000D03*
%TD*%
D28*
%TO.P,C14,1,+*%
%TO.N,/Project Architecture/LT3042_6V_5VA/SET*%
X153990000Y-113320000D03*
%TO.P,C14,2,-*%
%TO.N,GND*%
X153990000Y-110620000D03*
%TD*%
D12*
%TO.P,TP3,1,1*%
%TO.N,OUT+*%
X157300000Y-84100000D03*
%TD*%
D11*
%TO.P,D4,1,K*%
%TO.N,GND*%
X161287500Y-105400000D03*
%TO.P,D4,2,A*%
%TO.N,Net-(D4-A)*%
X159712500Y-105400000D03*
%TD*%
D20*
%TO.P,J5,1,Pin_1*%
%TO.N,IN-SENSE-*%
X144720000Y-76600000D03*
D21*
%TO.P,J5,2,Pin_2*%
%TO.N,IN-SENSE+*%
X147260000Y-76600000D03*
%TO.P,J5,3,Pin_3*%
%TO.N,IN-OUT-*%
X149800000Y-76600000D03*
%TO.P,J5,4,Pin_4*%
%TO.N,IN-OUT+*%
X152340000Y-76600000D03*
%TD*%
D12*
%TO.P,TP18,1,1*%
%TO.N,/Project Architecture/LT3042_6V_5VA/PGFB*%
X156200000Y-117600000D03*
%TD*%
D20*
%TO.P,J6,1,Pin_1*%
%TO.N,SYNC*%
X136200000Y-84040000D03*
D21*
%TO.P,J6,2,Pin_2*%
%TO.N,DOUT*%
X136200000Y-86580000D03*
%TO.P,J6,3,Pin_3*%
%TO.N,DIN*%
X136200000Y-89120000D03*
%TO.P,J6,4,Pin_4*%
%TO.N,SCLK*%
X136200000Y-91660000D03*
%TO.P,J6,5,Pin_5*%
%TO.N,CS*%
X136200000Y-94200000D03*
%TD*%
D12*
%TO.P,TP6,1,1*%
%TO.N,+3.3V_IN*%
X156300000Y-134000000D03*
%TD*%
D22*
%TO.P,R15,1*%
%TO.N,GND*%
X147200000Y-126100000D03*
%TO.P,R15,2*%
%TO.N,/Project Architecture/TPS61086_3.3V_to_6V/FB*%
X148850000Y-126100000D03*
%TD*%
D29*
%TO.P,IC2,1,COMP*%
%TO.N,Net-(IC2-COMP)*%
X149325000Y-128200000D03*
%TO.P,IC2,2,FB*%
%TO.N,/Project Architecture/TPS61086_3.3V_to_6V/FB*%
X148825000Y-128200000D03*
%TO.P,IC2,3,EN*%
%TO.N,+3.3V_IN*%
X148325000Y-128200000D03*
%TO.P,IC2,4,AGND*%
%TO.N,GND*%
X147825000Y-128200000D03*
%TO.P,IC2,5,PGND*%
X147325000Y-128200000D03*
%TO.P,IC2,6,SW_1*%
%TO.N,Net-(D3-A)*%
X147325000Y-131000000D03*
%TO.P,IC2,7,SW_2*%
X147825000Y-131000000D03*
%TO.P,IC2,8,IN*%
%TO.N,+3.3V_IN*%
X148325000Y-131000000D03*
%TO.P,IC2,9,MODE*%
%TO.N,GND*%
X148825000Y-131000000D03*
%TO.P,IC2,10,SS*%
%TO.N,Net-(IC2-SS)*%
X149325000Y-131000000D03*
D30*
%TO.P,IC2,11,EP*%
%TO.N,GND*%
X148325000Y-129600000D03*
D31*
%TO.P,IC2,12,EP_2*%
X146875000Y-129350000D03*
%TO.P,IC2,13,EP_3*%
X146875000Y-129850000D03*
%TO.P,IC2,14,EP_4*%
X149775000Y-129850000D03*
%TO.P,IC2,15,EP_5*%
X149775000Y-129350000D03*
%TD*%
D23*
%TO.P,C21,1*%
%TO.N,+3.3V_IN*%
X153325000Y-131575000D03*
%TO.P,C21,2*%
%TO.N,GND*%
X153325000Y-130025000D03*
%TD*%
D32*
%TO.P,R13,1*%
%TO.N,GND*%
X153750000Y-118250000D03*
%TO.P,R13,2*%
%TO.N,/Project Architecture/LT3042_6V_5VA/PGFB*%
X153750000Y-116600000D03*
%TD*%
D14*
%TO.P,H1,1,1*%
%TO.N,GND*%
X156100000Y-78800000D03*
X156802944Y-77102944D03*
X156802944Y-80497056D03*
X158500000Y-76400000D03*
D15*
X158500000Y-78800000D03*
D14*
X158500000Y-81200000D03*
X160197056Y-77102944D03*
X160197056Y-80497056D03*
X160900000Y-78800000D03*
%TD*%
D24*
%TO.P,R18,1*%
%TO.N,Net-(C17-Pad1)*%
X151850000Y-125600000D03*
%TO.P,R18,2*%
%TO.N,Net-(IC2-COMP)*%
X150200000Y-125600000D03*
%TD*%
D33*
%TO.P,L1,1,1*%
%TO.N,+3.3V_IN*%
X152475000Y-136300000D03*
%TO.P,L1,2,2*%
%TO.N,Net-(D3-A)*%
X148125000Y-136300000D03*
%TD*%
D34*
%TO.P,U1,1,MCLK1*%
%TO.N,MCLK1*%
X144925000Y-92900000D03*
%TO.P,U1,2,MCLK2*%
%TO.N,MCLK2*%
X145575000Y-92900000D03*
%TO.P,U1,3,SCLK*%
%TO.N,Net-(U1-SCLK)*%
X146225000Y-92900000D03*
%TO.P,U1,4,~{CS}*%
%TO.N,Net-(U1-~{CS})*%
X146875000Y-92900000D03*
%TO.P,U1,5,P3*%
%TO.N,Net-(U1-P3)*%
X147525000Y-92900000D03*
%TO.P,U1,6,P2*%
%TO.N,Net-(U1-P2)*%
X148175000Y-92900000D03*
%TO.P,U1,7,P1/REFIN2(+)*%
%TO.N,unconnected-(U1-P1{slash}REFIN2(+)-Pad7)*%
X148825000Y-92900000D03*
%TO.P,U1,8,P0/REFIN2(-)*%
%TO.N,unconnected-(U1-P0{slash}REFIN2(-)-Pad8)*%
X149475000Y-92900000D03*
%TO.P,U1,9*%
%TO.N,N/C*%
X150125000Y-92900000D03*
%TO.P,U1,10,AINCOM*%
%TO.N,unconnected-(U1-AINCOM-Pad10)*%
X150775000Y-92900000D03*
%TO.P,U1,11,AIN1*%
%TO.N,unconnected-(U1-AIN1-Pad11)*%
X151425000Y-92900000D03*
%TO.P,U1,12,AIN2*%
%TO.N,unconnected-(U1-AIN2-Pad12)*%
X152075000Y-92900000D03*
%TO.P,U1,13,AIN3*%
%TO.N,OUT+*%
X152075000Y-87100000D03*
%TO.P,U1,14,AIN4*%
%TO.N,OUT-*%
X151425000Y-87100000D03*
%TO.P,U1,15,REFIN1(+)*%
%TO.N,IN-SENSE+*%
X150775000Y-87100000D03*
%TO.P,U1,16,REFIN1(-)*%
%TO.N,IN-SENSE-*%
X150125000Y-87100000D03*
%TO.P,U1,17,BPDSW*%
%TO.N,OUT-*%
X149475000Y-87100000D03*
%TO.P,U1,18,AGND*%
%TO.N,GND*%
X148825000Y-87100000D03*
%TO.P,U1,19,DGND*%
X148175000Y-87100000D03*
%TO.P,U1,20,AVDD*%
%TO.N,IN-SENSE+*%
X147525000Y-87100000D03*
%TO.P,U1,21,DVDD*%
%TO.N,+3.3V_IN*%
X146875000Y-87100000D03*
%TO.P,U1,22,~{SYNC}*%
%TO.N,Net-(U1-~{SYNC})*%
X146225000Y-87100000D03*
%TO.P,U1,23,DOUT/~{RDY}*%
%TO.N,Net-(U1-DOUT{slash}~{RDY})*%
X145575000Y-87100000D03*
%TO.P,U1,24,DIN*%
%TO.N,Net-(U1-DIN)*%
X144925000Y-87100000D03*
%TD*%
D12*
%TO.P,TP4,1,1*%
%TO.N,OUT-*%
X157300000Y-87200000D03*
%TD*%
D14*
%TO.P,H2,1,1*%
%TO.N,GND*%
X136200000Y-78800000D03*
X136902944Y-77102944D03*
X136902944Y-80497056D03*
X138600000Y-76400000D03*
D15*
X138600000Y-78800000D03*
D14*
X138600000Y-81200000D03*
X140297056Y-77102944D03*
X140297056Y-80497056D03*
X141000000Y-78800000D03*
%TD*%
D25*
%TO.P,R12,1*%
%TO.N,/Project Architecture/LT3042_6V_5VA/PGFB*%
X152250000Y-116575000D03*
%TO.P,R12,2*%
%TO.N,+5VA_OUT*%
X152250000Y-118225000D03*
%TD*%
D10*
%TO.P,C12,1*%
%TO.N,MCLK1*%
X144475000Y-94700000D03*
%TO.P,C12,2*%
%TO.N,GND*%
X142925000Y-94700000D03*
%TD*%
D35*
%TO.N,IN-SENSE+*%
X148100000Y-88500000D03*
X150400000Y-88500000D03*
%TO.N,OUT-*%
X151425000Y-88500000D03*
X157300000Y-87200000D03*
%TO.N,+5VA_OUT*%
X151450000Y-118250000D03*
X151900000Y-112100000D03*
%TO.N,Net-(U1-~{CS})*%
X141925000Y-90825000D03*
X141400000Y-94100000D03*
%TD*%
D36*
%TO.N,+3.3V_IN*%
X145925000Y-89175000D02*
X146875000Y-88225000D01*
X143300000Y-89175000D02*
X145925000Y-89175000D01*
X146875000Y-88225000D02*
X146875000Y-87100000D01*
D37*
%TO.N,GND*%
X142720000Y-94715000D02*
X142735000Y-94700000D01*
D38*
%TO.N,IN-SENSE+*%
X146175000Y-83800000D02*
X146175000Y-82350000D01*
X151900000Y-89700000D02*
X153075000Y-88525000D01*
X146225000Y-77635000D02*
X147260000Y-76600000D01*
X149200000Y-89700000D02*
X151900000Y-89700000D01*
X148100000Y-88600000D02*
X149200000Y-89700000D01*
X150400000Y-88500000D02*
X150775000Y-88125000D01*
X150775000Y-85875000D02*
X148700000Y-83800000D01*
X146175000Y-82350000D02*
X146225000Y-82300000D01*
X153075000Y-88525000D02*
X153500000Y-88525000D01*
X146225000Y-82300000D02*
X146225000Y-77635000D01*
X148000000Y-88500000D02*
X147525000Y-88025000D01*
X148100000Y-88500000D02*
X148000000Y-88500000D01*
X148100000Y-88500000D02*
X148100000Y-88600000D01*
X150775000Y-88125000D02*
X150775000Y-87100000D01*
X150775000Y-87100000D02*
X150775000Y-85875000D01*
X147525000Y-88025000D02*
X147525000Y-87100000D01*
D39*
X153500000Y-87075000D02*
X153500000Y-88525000D01*
D38*
X148700000Y-83800000D02*
X146175000Y-83800000D01*
%TO.N,IN-SENSE-*%
X144575000Y-82300000D02*
X144575000Y-76745000D01*
X150125000Y-87100000D02*
X150125000Y-86125000D01*
X148800000Y-84800000D02*
X145100000Y-84800000D01*
X150125000Y-86125000D02*
X148800000Y-84800000D01*
X144625000Y-82350000D02*
X144575000Y-82300000D01*
X145100000Y-84800000D02*
X144625000Y-84325000D01*
X144575000Y-76745000D02*
X144720000Y-76600000D01*
X144625000Y-84325000D02*
X144625000Y-83800000D01*
X144625000Y-83800000D02*
X144625000Y-82350000D01*
D37*
%TO.N,OUT-*%
X150800000Y-84500000D02*
X150800000Y-83825000D01*
X149475000Y-87100000D02*
X149475000Y-88675000D01*
X151425000Y-88575000D02*
X151425000Y-88500000D01*
X150800000Y-80825000D02*
X150800000Y-83775000D01*
X151425000Y-88500000D02*
X151425000Y-87100000D01*
X150900000Y-89100000D02*
X151425000Y-88575000D01*
X151425000Y-85125000D02*
X150800000Y-84500000D01*
X149900000Y-89100000D02*
X150900000Y-89100000D01*
X151425000Y-87100000D02*
X151425000Y-85125000D01*
X150800000Y-83825000D02*
X150825000Y-83800000D01*
X150800000Y-83775000D02*
X150825000Y-83800000D01*
X149475000Y-88675000D02*
X149900000Y-89100000D01*
%TO.N,OUT+*%
X152400000Y-83825000D02*
X152400000Y-84500000D01*
X152400000Y-84500000D02*
X152075000Y-84825000D01*
X152375000Y-81525000D02*
X152375000Y-83800000D01*
X152400000Y-81500000D02*
X152375000Y-81525000D01*
X152375000Y-83800000D02*
X152400000Y-83825000D01*
X152375000Y-83800000D02*
X157000000Y-83800000D01*
X157000000Y-83800000D02*
X157300000Y-84100000D01*
X152075000Y-84825000D02*
X152075000Y-87100000D01*
X152400000Y-80825000D02*
X152400000Y-81500000D01*
%TO.N,MCLK2*%
X147800000Y-97600000D02*
X147800000Y-102000000D01*
X146400000Y-97600000D02*
X147800000Y-97600000D01*
X145575000Y-94250000D02*
X146025000Y-94700000D01*
X146025000Y-94700000D02*
X146025000Y-97225000D01*
X145575000Y-92900000D02*
X145575000Y-94250000D01*
X146025000Y-97225000D02*
X146400000Y-97600000D01*
X147800000Y-102000000D02*
X147800000Y-105700000D01*
%TO.N,MCLK1*%
X142720000Y-102180000D02*
X142700000Y-102200000D01*
X144100000Y-97600000D02*
X142720000Y-97600000D01*
X144500000Y-97200000D02*
X144100000Y-97600000D01*
X142720000Y-97600000D02*
X142720000Y-102000000D01*
X144925000Y-92900000D02*
X144925000Y-94250000D01*
X142700000Y-102200000D02*
X142700000Y-105700000D01*
X142720000Y-102000000D02*
X142720000Y-102180000D01*
X144475000Y-97175000D02*
X144500000Y-97200000D01*
X144925000Y-94250000D02*
X144475000Y-94700000D01*
X144475000Y-94700000D02*
X144475000Y-97175000D01*
%TO.N,+5VA_OUT*%
X151900000Y-113500000D02*
X151900000Y-112100000D01*
X152225000Y-118250000D02*
X152250000Y-118225000D01*
D36*
X151940000Y-110460000D02*
X151940000Y-111970000D01*
D37*
X151900000Y-114000000D02*
X151900000Y-113500000D01*
X151450000Y-118250000D02*
X152225000Y-118250000D01*
X151900000Y-112100000D02*
X151900000Y-112050000D01*
%TO.N,+6V_IN*%
X147600000Y-114500000D02*
X147375000Y-114275000D01*
X147375000Y-114275000D02*
X147375000Y-111900000D01*
X145850000Y-113375000D02*
X145900000Y-113375000D01*
X145900000Y-113375000D02*
X147375000Y-111900000D01*
D36*
%TO.N,Net-(D1-A)*%
X158312500Y-89800000D02*
X159702500Y-89800000D01*
X159702500Y-89800000D02*
X159712500Y-89790000D01*
%TO.N,Net-(D2-A)*%
X158162500Y-91300000D02*
X159562500Y-91300000D01*
%TO.N,CS*%
X138675000Y-94100000D02*
X136300000Y-94100000D01*
X136300000Y-94100000D02*
X136200000Y-94200000D01*
%TO.N,SCLK*%
X136240000Y-91700000D02*
X136200000Y-91660000D01*
X138650000Y-91700000D02*
X136240000Y-91700000D01*
%TO.N,DIN*%
X136280000Y-89200000D02*
X136200000Y-89120000D01*
X138675000Y-89200000D02*
X136280000Y-89200000D01*
%TO.N,SYNC*%
X136240000Y-84000000D02*
X136200000Y-84040000D01*
X138675000Y-84000000D02*
X136240000Y-84000000D01*
%TO.N,DOUT*%
X136220000Y-86600000D02*
X136200000Y-86580000D01*
X138675000Y-86600000D02*
X136220000Y-86600000D01*
D37*
%TO.N,IN-OUT+*%
X152400000Y-79175000D02*
X152400000Y-76660000D01*
D36*
X152400000Y-76800000D02*
X152500000Y-76700000D01*
X152400000Y-76660000D02*
X152340000Y-76600000D01*
D37*
%TO.N,IN-OUT-*%
X150800000Y-79175000D02*
X150800000Y-77600000D01*
X150800000Y-77600000D02*
X149800000Y-76600000D01*
D36*
%TO.N,Net-(U1-DIN)*%
X144925000Y-87100000D02*
X143600000Y-87100000D01*
X141500000Y-89200000D02*
X140325000Y-89200000D01*
X143600000Y-87100000D02*
X141500000Y-89200000D01*
%TO.N,Net-(U1-~{SYNC})*%
X144882124Y-85326000D02*
X144856124Y-85300000D01*
X142600000Y-84000000D02*
X140325000Y-84000000D01*
X146225000Y-86125000D02*
X145426000Y-85326000D01*
X146225000Y-87100000D02*
X146225000Y-86125000D01*
X145426000Y-85326000D02*
X144882124Y-85326000D01*
X144856124Y-85300000D02*
X143900000Y-85300000D01*
X143900000Y-85300000D02*
X142600000Y-84000000D01*
%TO.N,Net-(U1-SCLK)*%
X145977000Y-91700000D02*
X140300000Y-91700000D01*
X146225000Y-92900000D02*
X146225000Y-91948000D01*
X146225000Y-91948000D02*
X145977000Y-91700000D01*
%TO.N,Net-(U1-~{CS})*%
X141400000Y-94100000D02*
X140325000Y-94100000D01*
X146875000Y-91925000D02*
X145775000Y-90825000D01*
X146875000Y-92900000D02*
X146875000Y-91925000D01*
X145775000Y-90825000D02*
X143300000Y-90825000D01*
X143300000Y-90825000D02*
X141925000Y-90825000D01*
%TO.N,Net-(U1-DOUT{slash}~{RDY})*%
X140876000Y-86049000D02*
X140325000Y-86600000D01*
X145575000Y-87100000D02*
X145575000Y-86148000D01*
X145575000Y-86148000D02*
X145476000Y-86049000D01*
X145476000Y-86049000D02*
X140876000Y-86049000D01*
%TO.N,Net-(U1-P3)*%
X148485190Y-91000000D02*
X148636190Y-90849000D01*
X147525000Y-91948000D02*
X148473000Y-91000000D01*
X148636190Y-90849000D02*
X155613500Y-90849000D01*
X147525000Y-92900000D02*
X147525000Y-91948000D01*
X155613500Y-90849000D02*
X156662500Y-89800000D01*
X148473000Y-91000000D02*
X148485190Y-91000000D01*
%TO.N,Net-(U1-P2)*%
X156662500Y-91300000D02*
X148823000Y-91300000D01*
X148175000Y-91948000D02*
X148175000Y-92900000D01*
X148823000Y-91300000D02*
X148175000Y-91948000D01*
D37*
%TO.N,/Project Architecture/LT3042_6V_5VA/PGFB*%
X151900000Y-116225000D02*
X152250000Y-116575000D01*
X151900000Y-115500000D02*
X151900000Y-116225000D01*
X153750000Y-116600000D02*
X152275000Y-116600000D01*
X152275000Y-116600000D02*
X152250000Y-116575000D01*
%TO.N,Net-(U2-PG)*%
X147600000Y-115000000D02*
X145875000Y-115000000D01*
X145875000Y-115000000D02*
X145850000Y-115025000D01*
%TD*%
M02*
