%TF.GenerationSoftware,KiCad,Pcbnew,9.0.7+1*%
%TF.CreationDate,Date%
%TF.ProjectId,Cellule_de_force_V2,43656c6c-756c-4655-9f64-655f666f7263,+ (Unreleased)*%
%TF.SameCoordinates,Original*%
%TF.FileFunction,Copper,L1,Top*%
%TF.FilePolarity,Positive*%
%FSLAX46Y46*%
G04 Gerber Fmt 4.6, Leading zero omitted, Abs format (unit mm)*
G04 Created by KiCad*
%MOMM*%
%LPD*%
G01*
G04 APERTURE LIST*
G04 Aperture macros list*
%AMRoundRect*
0 Rectangle with rounded corners*
0 $1 Rounding radius*
0 $2 $3 $4 $5 $6 $7 $8 $9 X,Y pos of 4 corners*
0 Add a 4 corners polygon primitive as box body*
4,1,4,$2,$3,$4,$5,$6,$7,$8,$9,$2,$3,0*
0 Add four circle primitives for the rounded corners*
1,1,$1+$1,$2,$3*
1,1,$1+$1,$4,$5*
1,1,$1+$1,$6,$7*
1,1,$1+$1,$8,$9*
0 Add four rect primitives between the rounded corners*
20,1,$1+$1,$2,$3,$4,$5,0*
20,1,$1+$1,$4,$5,$6,$7,0*
20,1,$1+$1,$6,$7,$8,$9,0*
20,1,$1+$1,$8,$9,$2,$3,0*%
%AMFreePoly0*
4,1,29,0.403536,1.303536,0.405000,1.300000,0.405000,0.800000,0.403536,0.796464,0.400000,0.795000,0.205000,0.795000,0.205000,-0.795000,0.400000,-0.795000,0.403536,-0.796464,0.405000,-0.800000,0.405000,-1.300000,0.403536,-1.303536,0.400000,-1.305000,-0.400000,-1.305000,-0.403536,-1.303536,-0.405000,-1.300000,-0.405000,-0.800000,-0.403536,-0.796464,-0.400000,-0.795000,-0.205000,-0.795000,
-0.205000,0.795000,-0.400000,0.795000,-0.403536,0.796464,-0.405000,0.800000,-0.405000,1.300000,-0.403536,1.303536,-0.400000,1.305000,0.400000,1.305000,0.403536,1.303536,0.403536,1.303536,$1*%
G04 Aperture macros list end*
%TA.AperFunction,SMDPad,CuDef*%
%ADD10RoundRect,0.200000X-0.275000X0.200000X-0.275000X-0.200000X0.275000X-0.200000X0.275000X0.200000X0*%
%TD*%
%TA.AperFunction,SMDPad,CuDef*%
%ADD11RoundRect,0.225000X-0.225000X-0.250000X0.225000X-0.250000X0.225000X0.250000X-0.225000X0.250000X0*%
%TD*%
%TA.AperFunction,SMDPad,CuDef*%
%ADD12R,1.900000X1.850000*%
%TD*%
%TA.AperFunction,SMDPad,CuDef*%
%ADD13R,0.600000X0.240000*%
%TD*%
%TA.AperFunction,SMDPad,CuDef*%
%ADD14R,1.650000X2.400000*%
%TD*%
%TA.AperFunction,SMDPad,CuDef*%
%ADD15R,0.250000X0.500000*%
%TD*%
%TA.AperFunction,SMDPad,CuDef*%
%ADD16RoundRect,0.225000X-0.250000X0.225000X-0.250000X-0.225000X0.250000X-0.225000X0.250000X0.225000X0*%
%TD*%
%TA.AperFunction,ComponentPad*%
%ADD17C,0.800000*%
%TD*%
%TA.AperFunction,ComponentPad*%
%ADD18C,6.400000*%
%TD*%
%TA.AperFunction,SMDPad,CuDef*%
%ADD19RoundRect,0.225000X0.250000X-0.225000X0.250000X0.225000X-0.250000X0.225000X-0.250000X-0.225000X0*%
%TD*%
%TA.AperFunction,SMDPad,CuDef*%
%ADD20RoundRect,0.150000X0.150000X-0.512500X0.150000X0.512500X-0.150000X0.512500X-0.150000X-0.512500X0*%
%TD*%
%TA.AperFunction,SMDPad,CuDef*%
%ADD21R,1.450000X0.450000*%
%TD*%
%TA.AperFunction,SMDPad,CuDef*%
%ADD22RoundRect,0.200000X0.275000X-0.200000X0.275000X0.200000X-0.275000X0.200000X-0.275000X-0.200000X0*%
%TD*%
%TA.AperFunction,ComponentPad*%
%ADD23RoundRect,0.250000X-0.600000X-0.725000X0.600000X-0.725000X0.600000X0.725000X-0.600000X0.725000X0*%
%TD*%
%TA.AperFunction,ComponentPad*%
%ADD24O,1.700000X1.950000*%
%TD*%
%TA.AperFunction,SMDPad,CuDef*%
%ADD25RoundRect,0.200000X-0.200000X-0.275000X0.200000X-0.275000X0.200000X0.275000X-0.200000X0.275000X0*%
%TD*%
%TA.AperFunction,SMDPad,CuDef*%
%ADD26RoundRect,0.200000X0.200000X0.275000X-0.200000X0.275000X-0.200000X-0.275000X0.200000X-0.275000X0*%
%TD*%
%TA.AperFunction,SMDPad,CuDef*%
%ADD27RoundRect,0.218750X0.256250X-0.218750X0.256250X0.218750X-0.256250X0.218750X-0.256250X-0.218750X0*%
%TD*%
%TA.AperFunction,SMDPad,CuDef*%
%ADD28RoundRect,0.225000X0.225000X0.250000X-0.225000X0.250000X-0.225000X-0.250000X0.225000X-0.250000X0*%
%TD*%
%TA.AperFunction,SMDPad,CuDef*%
%ADD29RoundRect,0.250000X-0.300000X0.300000X-0.300000X-0.300000X0.300000X-0.300000X0.300000X0.300000X0*%
%TD*%
%TA.AperFunction,SMDPad,CuDef*%
%ADD30R,0.400000X0.900000*%
%TD*%
%TA.AperFunction,ComponentPad*%
%ADD31C,1.500000*%
%TD*%
%TA.AperFunction,SMDPad,CuDef*%
%ADD32R,1.700000X1.300000*%
%TD*%
%TA.AperFunction,SMDPad,CuDef*%
%ADD33RoundRect,0.075000X0.075000X-0.650000X0.075000X0.650000X-0.075000X0.650000X-0.075000X-0.650000X0*%
%TD*%
%TA.AperFunction,HeatsinkPad*%
%ADD34C,0.500000*%
%TD*%
%TA.AperFunction,HeatsinkPad*%
%ADD35R,3.100000X2.200000*%
%TD*%
%TA.AperFunction,SMDPad,CuDef*%
%ADD36FreePoly0,90.000000*%
%TD*%
%TA.AperFunction,ComponentPad*%
%ADD37C,1.800000*%
%TD*%
%TA.AperFunction,ViaPad*%
%ADD38C,0.550000*%
%TD*%
%TA.AperFunction,Conductor*%
%ADD39C,0.200000*%
%TD*%
%TA.AperFunction,Conductor*%
%ADD40C,0.250000*%
%TD*%
%TA.AperFunction,Conductor*%
%ADD41C,0.300000*%
%TD*%
%TA.AperFunction,Conductor*%
%ADD42C,0.400000*%
%TD*%
%TA.AperFunction,Conductor*%
%ADD43C,0.500000*%
%TD*%
%TA.AperFunction,Conductor*%
%ADD44C,0.600000*%
%TD*%
G04 APERTURE END LIST*
D10*
%TO.P,R2,1*%
%TO.N,IN-OUT-*%
X142300000Y-81575000D03*
%TO.P,R2,2*%
%TO.N,OUT-*%
X142300000Y-83225000D03*
%TD*%
D11*
%TO.P,C22,1*%
%TO.N,+3.3V*%
X168795000Y-103650000D03*
%TO.P,C22,2*%
%TO.N,GND*%
X170345000Y-103650000D03*
%TD*%
D10*
%TO.P,R11,1*%
%TO.N,Net-(U1-P2)*%
X165300000Y-109600000D03*
%TO.P,R11,2*%
%TO.N,Net-(D2-A)*%
X165300000Y-111250000D03*
%TD*%
D12*
%TO.P,L1,1,1*%
%TO.N,+3.3V*%
X164070000Y-105635000D03*
%TO.P,L1,2,2*%
%TO.N,Net-(D3-A)*%
X164070000Y-101285000D03*
%TD*%
D10*
%TO.P,R1,1*%
%TO.N,IN-OUT+*%
X144010000Y-81575000D03*
%TO.P,R1,2*%
%TO.N,OUT+*%
X144010000Y-83225000D03*
%TD*%
D13*
%TO.P,IC2,1,COMP*%
%TO.N,Net-(IC2-COMP)*%
X172170000Y-101140000D03*
%TO.P,IC2,2,FB*%
%TO.N,/Project Architecture/TPS61086_3.3V_to_6V/FB*%
X172170000Y-100640000D03*
%TO.P,IC2,3,EN*%
%TO.N,+3.3V*%
X172170000Y-100140000D03*
%TO.P,IC2,4,AGND*%
%TO.N,GND*%
X172170000Y-99640000D03*
%TO.P,IC2,5,PGND*%
X172170000Y-99140000D03*
%TO.P,IC2,6,SW_1*%
%TO.N,Net-(D3-A)*%
X169370000Y-99140000D03*
%TO.P,IC2,7,SW_2*%
X169370000Y-99640000D03*
%TO.P,IC2,8,IN*%
%TO.N,+3.3V*%
X169370000Y-100140000D03*
%TO.P,IC2,9,MODE*%
%TO.N,GND*%
X169370000Y-100640000D03*
%TO.P,IC2,10,SS*%
%TO.N,Net-(IC2-SS)*%
X169370000Y-101140000D03*
D14*
%TO.P,IC2,11,EP*%
%TO.N,GND*%
X170770000Y-100140000D03*
D15*
%TO.P,IC2,12,EP_2*%
X171020000Y-98690000D03*
%TO.P,IC2,13,EP_3*%
X170520000Y-98690000D03*
%TO.P,IC2,14,EP_4*%
X170520000Y-101590000D03*
%TO.P,IC2,15,EP_5*%
X171020000Y-101590000D03*
%TD*%
D16*
%TO.P,C24,1*%
%TO.N,MCLK2*%
X153862500Y-92900000D03*
%TO.P,C24,2*%
%TO.N,GND*%
X153862500Y-94450000D03*
%TD*%
D17*
%TO.P,H3,1,1*%
%TO.N,GND*%
X121100000Y-111500000D03*
X121802944Y-109802944D03*
X121802944Y-113197056D03*
X123500000Y-109100000D03*
D18*
X123500000Y-111500000D03*
D17*
X123500000Y-113900000D03*
X125197056Y-109802944D03*
X125197056Y-113197056D03*
X125900000Y-111500000D03*
%TD*%
D19*
%TO.P,C25,1*%
%TO.N,MCLK1*%
X153862500Y-97450000D03*
%TO.P,C25,2*%
%TO.N,GND*%
X153862500Y-95900000D03*
%TD*%
D11*
%TO.P,C9,1*%
%TO.N,SENSE-*%
X154235000Y-83770000D03*
%TO.P,C9,2*%
%TO.N,GND*%
X155785000Y-83770000D03*
%TD*%
D20*
%TO.P,Q1,1,G*%
%TO.N,Net-(Q1-G)*%
X152832500Y-89530000D03*
%TO.P,Q1,2,S*%
%TO.N,+5VA*%
X154732500Y-89530000D03*
%TO.P,Q1,3,D*%
%TO.N,SENSE+*%
X153782500Y-87255000D03*
%TD*%
D11*
%TO.P,C5,1*%
%TO.N,SENSE+*%
X152635000Y-85170000D03*
%TO.P,C5,2*%
%TO.N,SENSE-*%
X154185000Y-85170000D03*
%TD*%
D21*
%TO.P,U1,1,MCLK1*%
%TO.N,MCLK1*%
X151400000Y-95075000D03*
%TO.P,U1,2,MCLK2*%
%TO.N,MCLK2*%
X151400000Y-94425000D03*
%TO.P,U1,3,SCLK*%
%TO.N,Net-(RN1-R1.1)*%
X151400000Y-93775000D03*
%TO.P,U1,4,~{CS}*%
%TO.N,Net-(U1-~{CS})*%
X151400000Y-93125000D03*
%TO.P,U1,5,P3*%
%TO.N,P3*%
X151400000Y-92475000D03*
%TO.P,U1,6,P2*%
%TO.N,Net-(U1-P2)*%
X151400000Y-91825000D03*
%TO.P,U1,7,P1/REFIN2(+)*%
%TO.N,unconnected-(U1-P1{slash}REFIN2(+)-Pad7)*%
X151400000Y-91175000D03*
%TO.P,U1,8,P0/REFIN2(-)*%
%TO.N,unconnected-(U1-P0{slash}REFIN2(-)-Pad8)*%
X151400000Y-90525000D03*
%TO.P,U1,9,NC*%
%TO.N,GND*%
X151400000Y-89875000D03*
%TO.P,U1,10,AINCOM*%
%TO.N,unconnected-(U1-AINCOM-Pad10)*%
X151400000Y-89225000D03*
%TO.P,U1,11,AIN1*%
%TO.N,unconnected-(U1-AIN1-Pad11)*%
X151400000Y-88575000D03*
%TO.P,U1,12,AIN2*%
%TO.N,unconnected-(U1-AIN2-Pad12)*%
X151400000Y-87925000D03*
%TO.P,U1,13,AIN3*%
%TO.N,OUT+*%
X145600000Y-87925000D03*
%TO.P,U1,14,AIN4*%
%TO.N,OUT-*%
X145600000Y-88575000D03*
%TO.P,U1,15,REFIN1(+)*%
%TO.N,SENSE+*%
X145600000Y-89225000D03*
%TO.P,U1,16,REFIN1(-)*%
%TO.N,SENSE-*%
X145600000Y-89875000D03*
%TO.P,U1,17,BPDSW*%
%TO.N,OUT-*%
X145600000Y-90525000D03*
%TO.P,U1,18,AGND*%
%TO.N,GND*%
X145600000Y-91175000D03*
%TO.P,U1,19,DGND*%
X145600000Y-91825000D03*
%TO.P,U1,20,AVDD*%
%TO.N,+5VA*%
X145600000Y-92475000D03*
%TO.P,U1,21,DVDD*%
%TO.N,+3.3V*%
X145600000Y-93125000D03*
%TO.P,U1,22,~{SYNC}*%
%TO.N,Net-(RN1-R2.1)*%
X145600000Y-93775000D03*
%TO.P,U1,23,DOUT/~{RDY}*%
%TO.N,Net-(RN1-R3.1)*%
X145600000Y-94425000D03*
%TO.P,U1,24,DIN*%
%TO.N,Net-(RN1-R4.1)*%
X145600000Y-95075000D03*
%TD*%
D22*
%TO.P,R17,1*%
%TO.N,/Project Architecture/TPS61086_3.3V_to_6V/FB*%
X175720000Y-100615000D03*
%TO.P,R17,2*%
%TO.N,+6V*%
X175720000Y-98965000D03*
%TD*%
D17*
%TO.P,H2,1,1*%
%TO.N,GND*%
X121100000Y-67750000D03*
X121802944Y-66052944D03*
X121802944Y-69447056D03*
X123500000Y-65350000D03*
D18*
X123500000Y-67750000D03*
D17*
X123500000Y-70150000D03*
X125197056Y-66052944D03*
X125197056Y-69447056D03*
X125900000Y-67750000D03*
%TD*%
D22*
%TO.P,R13,1*%
%TO.N,GND*%
X172350000Y-88525000D03*
%TO.P,R13,2*%
%TO.N,/Project Architecture/LT3042_6V_5VA/PGFB*%
X172350000Y-86875000D03*
%TD*%
D23*
%TO.P,J1,1,Pin_1*%
%TO.N,GND*%
X141100000Y-111375000D03*
D24*
%TO.P,J1,2,Pin_2*%
%TO.N,DOUT*%
X143600000Y-111375000D03*
%TO.P,J1,3,Pin_3*%
%TO.N,SCLK*%
X146100000Y-111375000D03*
%TO.P,J1,4,Pin_4*%
%TO.N,DIN*%
X148600000Y-111375000D03*
%TO.P,J1,5,Pin_5*%
%TO.N,SYNC*%
X151100000Y-111375000D03*
%TO.P,J1,6,Pin_6*%
%TO.N,CS*%
X153600000Y-111375000D03*
%TO.P,J1,7,Pin_7*%
%TO.N,+3.3V*%
X156100000Y-111375000D03*
%TD*%
D11*
%TO.P,C20,1*%
%TO.N,+6V*%
X168745000Y-95130000D03*
%TO.P,C20,2*%
%TO.N,GND*%
X170295000Y-95130000D03*
%TD*%
D22*
%TO.P,R16,1*%
%TO.N,Net-(D4-A)*%
X163725000Y-111250000D03*
%TO.P,R16,2*%
%TO.N,+5VA*%
X163725000Y-109600000D03*
%TD*%
D16*
%TO.P,C4,1*%
%TO.N,GND*%
X141650000Y-90725000D03*
%TO.P,C4,2*%
%TO.N,+5VA*%
X141650000Y-92275000D03*
%TD*%
D17*
%TO.P,H4,1,1*%
%TO.N,GND*%
X171100000Y-111500000D03*
X171802944Y-109802944D03*
X171802944Y-113197056D03*
X173500000Y-109100000D03*
D18*
X173500000Y-111500000D03*
D17*
X173500000Y-113900000D03*
X175197056Y-109802944D03*
X175197056Y-113197056D03*
X175900000Y-111500000D03*
%TD*%
D25*
%TO.P,R14,1*%
%TO.N,+6V*%
X168695000Y-93610000D03*
%TO.P,R14,2*%
%TO.N,Net-(U2-PG)*%
X170345000Y-93610000D03*
%TD*%
D16*
%TO.P,C15,1*%
%TO.N,+5VA*%
X165650000Y-87175000D03*
%TO.P,C15,2*%
%TO.N,GND*%
X165650000Y-88725000D03*
%TD*%
D26*
%TO.P,R9,1*%
%TO.N,GND*%
X173575000Y-85450000D03*
%TO.P,R9,2*%
%TO.N,/Project Architecture/LT3042_6V_5VA/SET*%
X171925000Y-85450000D03*
%TD*%
D11*
%TO.P,C26,1*%
%TO.N,+5VA*%
X156247500Y-91210000D03*
%TO.P,C26,2*%
%TO.N,GND*%
X157797500Y-91210000D03*
%TD*%
D17*
%TO.P,H1,1,1*%
%TO.N,GND*%
X171100000Y-68000000D03*
X171802944Y-66302944D03*
X171802944Y-69697056D03*
X173500000Y-65600000D03*
D18*
X173500000Y-68000000D03*
D17*
X173500000Y-70400000D03*
X175197056Y-66302944D03*
X175197056Y-69697056D03*
X175900000Y-68000000D03*
%TD*%
D27*
%TO.P,D1,1,K*%
%TO.N,GND*%
X162150000Y-114237500D03*
%TO.P,D1,2,A*%
%TO.N,Net-(D1-A)*%
X162150000Y-112662500D03*
%TD*%
D10*
%TO.P,R15,1*%
%TO.N,GND*%
X174250000Y-98965000D03*
%TO.P,R15,2*%
%TO.N,/Project Architecture/TPS61086_3.3V_to_6V/FB*%
X174250000Y-100615000D03*
%TD*%
D28*
%TO.P,C6,1*%
%TO.N,OUT+*%
X143930000Y-86160000D03*
%TO.P,C6,2*%
%TO.N,OUT-*%
X142380000Y-86160000D03*
%TD*%
D11*
%TO.P,C21,1*%
%TO.N,+3.3V*%
X168795000Y-105160000D03*
%TO.P,C21,2*%
%TO.N,GND*%
X170345000Y-105160000D03*
%TD*%
D22*
%TO.P,R6,1*%
%TO.N,CS*%
X151250000Y-106425000D03*
%TO.P,R6,2*%
%TO.N,Net-(U1-~{CS})*%
X151250000Y-104775000D03*
%TD*%
D11*
%TO.P,C23,1*%
%TO.N,SENSE+*%
X156247500Y-86700000D03*
%TO.P,C23,2*%
%TO.N,GND*%
X157797500Y-86700000D03*
%TD*%
%TO.P,C11,1*%
%TO.N,SENSE+*%
X156247500Y-88210000D03*
%TO.P,C11,2*%
%TO.N,GND*%
X157797500Y-88210000D03*
%TD*%
D28*
%TO.P,C17,1*%
%TO.N,Net-(C17-Pad1)*%
X174245000Y-103620000D03*
%TO.P,C17,2*%
%TO.N,GND*%
X172695000Y-103620000D03*
%TD*%
D26*
%TO.P,R8,1*%
%TO.N,+3.3V*%
X154300000Y-104850000D03*
%TO.P,R8,2*%
%TO.N,Net-(U1-~{CS})*%
X152650000Y-104850000D03*
%TD*%
D10*
%TO.P,R12,1*%
%TO.N,/Project Architecture/LT3042_6V_5VA/PGFB*%
X173850000Y-86875000D03*
%TO.P,R12,2*%
%TO.N,+5VA*%
X173850000Y-88525000D03*
%TD*%
D16*
%TO.P,C1,1*%
%TO.N,+3.3V*%
X141650000Y-93725000D03*
%TO.P,C1,2*%
%TO.N,GND*%
X141650000Y-95275000D03*
%TD*%
D29*
%TO.P,D3,1,K*%
%TO.N,+6V*%
X166860000Y-95680000D03*
%TO.P,D3,2,A*%
%TO.N,Net-(D3-A)*%
X166860000Y-98480000D03*
%TD*%
D28*
%TO.P,C18,1*%
%TO.N,Net-(IC2-SS)*%
X174255000Y-105130000D03*
%TO.P,C18,2*%
%TO.N,GND*%
X172705000Y-105130000D03*
%TD*%
D30*
%TO.P,RN1,1,R1.1*%
%TO.N,Net-(RN1-R1.1)*%
X149700000Y-104775000D03*
%TO.P,RN1,2,R2.1*%
%TO.N,Net-(RN1-R2.1)*%
X148900000Y-104775000D03*
%TO.P,RN1,3,R3.1*%
%TO.N,Net-(RN1-R3.1)*%
X148100000Y-104775000D03*
%TO.P,RN1,4,R4.1*%
%TO.N,Net-(RN1-R4.1)*%
X147300000Y-104775000D03*
%TO.P,RN1,5,R4.2*%
%TO.N,DIN*%
X147300000Y-106475000D03*
%TO.P,RN1,6,R3.2*%
%TO.N,DOUT*%
X148100000Y-106475000D03*
%TO.P,RN1,7,R2.2*%
%TO.N,SYNC*%
X148900000Y-106475000D03*
%TO.P,RN1,8,R1.2*%
%TO.N,SCLK*%
X149700000Y-106475000D03*
%TD*%
D11*
%TO.P,C7,1*%
%TO.N,GND*%
X151035000Y-83770000D03*
%TO.P,C7,2*%
%TO.N,SENSE+*%
X152585000Y-83770000D03*
%TD*%
D28*
%TO.P,C10,1*%
%TO.N,GND*%
X145530000Y-84660000D03*
%TO.P,C10,2*%
%TO.N,OUT+*%
X143980000Y-84660000D03*
%TD*%
D31*
%TO.P,H5,1*%
%TO.N,GND*%
X158750000Y-82380000D03*
%TO.P,H5,2*%
X158750000Y-87460000D03*
%TO.P,H5,3*%
X158750000Y-92540000D03*
%TO.P,H5,4*%
X158750000Y-97620000D03*
%TO.P,H5,5*%
X156120000Y-100250000D03*
%TO.P,H5,6*%
X151040000Y-100250000D03*
%TO.P,H5,7*%
X145960000Y-100250000D03*
%TO.P,H5,9*%
X140880000Y-100250000D03*
%TO.P,H5,10*%
X138250000Y-97620000D03*
%TO.P,H5,11*%
X138250000Y-92540000D03*
%TO.P,H5,12*%
X138250000Y-87460000D03*
%TO.P,H5,13*%
X138250000Y-82380000D03*
%TO.P,H5,14*%
X140880000Y-79750000D03*
%TO.P,H5,15*%
X145960000Y-79750000D03*
%TO.P,H5,16*%
X151040000Y-79750000D03*
%TO.P,H5,17*%
X156120000Y-79750000D03*
%TD*%
D16*
%TO.P,C13,1*%
%TO.N,+5VA*%
X167200000Y-87175000D03*
%TO.P,C13,2*%
%TO.N,GND*%
X167200000Y-88725000D03*
%TD*%
D27*
%TO.P,D2,1,K*%
%TO.N,GND*%
X165300000Y-114237500D03*
%TO.P,D2,2,A*%
%TO.N,Net-(D2-A)*%
X165300000Y-112662500D03*
%TD*%
D32*
%TO.P,C14,1,+*%
%TO.N,/Project Architecture/LT3042_6V_5VA/SET*%
X170100000Y-85200000D03*
%TO.P,C14,2,-*%
%TO.N,GND*%
X167400000Y-85200000D03*
%TD*%
D33*
%TO.P,U2,1,IN*%
%TO.N,+6V*%
X168800000Y-91600000D03*
%TO.P,U2,2,IN*%
X169300000Y-91600000D03*
%TO.P,U2,3,EN/UV*%
X169800000Y-91600000D03*
%TO.P,U2,4,PG*%
%TO.N,Net-(U2-PG)*%
X170300000Y-91600000D03*
%TO.P,U2,5,ILIM*%
%TO.N,GND*%
X170800000Y-91600000D03*
%TO.P,U2,6,PGFB*%
%TO.N,/Project Architecture/LT3042_6V_5VA/PGFB*%
X170800000Y-87300000D03*
%TO.P,U2,7,SET*%
%TO.N,/Project Architecture/LT3042_6V_5VA/SET*%
X170300000Y-87300000D03*
%TO.P,U2,8,GND*%
%TO.N,GND*%
X169800000Y-87300000D03*
%TO.P,U2,9,OUTS*%
%TO.N,+5VA*%
X169300000Y-87300000D03*
%TO.P,U2,10,OUT*%
X168800000Y-87300000D03*
D34*
%TO.P,U2,11,GND*%
%TO.N,GND*%
X168500000Y-90100000D03*
X169800000Y-90100000D03*
X171100000Y-90100000D03*
D35*
X169800000Y-89450000D03*
D34*
X168500000Y-88800000D03*
X169800000Y-88800000D03*
X171100000Y-88800000D03*
%TD*%
D28*
%TO.P,C8,1*%
%TO.N,OUT-*%
X142330000Y-84660000D03*
%TO.P,C8,2*%
%TO.N,GND*%
X140780000Y-84660000D03*
%TD*%
D16*
%TO.P,C2,1*%
%TO.N,+3.3V*%
X143150000Y-93725000D03*
%TO.P,C2,2*%
%TO.N,GND*%
X143150000Y-95275000D03*
%TD*%
D22*
%TO.P,R18,1*%
%TO.N,Net-(C17-Pad1)*%
X175730000Y-103695000D03*
%TO.P,R18,2*%
%TO.N,Net-(IC2-COMP)*%
X175730000Y-102045000D03*
%TD*%
D16*
%TO.P,C3,1*%
%TO.N,GND*%
X143150000Y-90725000D03*
%TO.P,C3,2*%
%TO.N,+5VA*%
X143150000Y-92275000D03*
%TD*%
D26*
%TO.P,R10,1*%
%TO.N,P3*%
X154607500Y-91210000D03*
%TO.P,R10,2*%
%TO.N,Net-(Q1-G)*%
X152957500Y-91210000D03*
%TD*%
D11*
%TO.P,C12,1*%
%TO.N,+5VA*%
X156247500Y-89710000D03*
%TO.P,C12,2*%
%TO.N,GND*%
X157797500Y-89710000D03*
%TD*%
D36*
%TO.P,Y2,1*%
%TO.N,MCLK1*%
X156200000Y-96600000D03*
%TO.P,Y2,2*%
%TO.N,GND*%
X156200000Y-95100000D03*
%TO.P,Y2,3*%
%TO.N,MCLK2*%
X156200000Y-93600000D03*
%TD*%
D11*
%TO.P,C19,1*%
%TO.N,+6V*%
X168745000Y-96640000D03*
%TO.P,C19,2*%
%TO.N,GND*%
X170295000Y-96640000D03*
%TD*%
D37*
%TO.P,J3,1*%
%TO.N,SENSE-*%
X155900000Y-73500000D03*
%TO.P,J3,2*%
%TO.N,SENSE+*%
X150900000Y-73500000D03*
%TO.P,J3,3*%
%TO.N,IN-OUT+*%
X145900000Y-73500000D03*
%TO.P,J3,4*%
%TO.N,IN-OUT-*%
X140900000Y-73500000D03*
%TO.P,J3,A1*%
%TO.N,IN-SENSE-*%
X155900000Y-68500000D03*
%TO.P,J3,A2*%
%TO.N,IN-SENSE+*%
X150900000Y-68500000D03*
%TO.P,J3,A3*%
%TO.N,IN-OUT+*%
X145900000Y-68500000D03*
%TO.P,J3,A4*%
%TO.N,IN-OUT-*%
X140900000Y-68500000D03*
%TD*%
D22*
%TO.P,R3,1*%
%TO.N,Net-(D1-A)*%
X162150000Y-111250000D03*
%TO.P,R3,2*%
%TO.N,+3.3V*%
X162150000Y-109600000D03*
%TD*%
D19*
%TO.P,C16,1*%
%TO.N,+6V*%
X167200000Y-91775000D03*
%TO.P,C16,2*%
%TO.N,GND*%
X167200000Y-90225000D03*
%TD*%
D27*
%TO.P,D4,1,K*%
%TO.N,GND*%
X163725000Y-114237500D03*
%TO.P,D4,2,A*%
%TO.N,Net-(D4-A)*%
X163725000Y-112662500D03*
%TD*%
D38*
%TO.N,GND*%
X143150000Y-90020000D03*
X156490000Y-83770000D03*
X150330000Y-83770000D03*
X141650000Y-90020000D03*
X147000000Y-91825000D03*
X140075000Y-84660000D03*
X154525000Y-95150000D03*
X146235000Y-84660000D03*
X141650000Y-95980000D03*
X143150000Y-95980000D03*
X150100000Y-89875000D03*
X147035000Y-91175000D03*
%TO.N,Net-(U1-~{CS})*%
X151250000Y-103725000D03*
X149575735Y-103250735D03*
%TO.N,Net-(U1-P2)*%
X149150000Y-102300000D03*
X165300000Y-108700000D03*
%TO.N,Net-(IC2-SS)*%
X175260000Y-105120000D03*
X169370000Y-101760000D03*
%TO.N,SENSE+*%
X151500000Y-85550000D03*
X157400000Y-85550000D03*
X150300000Y-85550000D03*
X157400000Y-84950000D03*
X158000000Y-85550000D03*
X150900000Y-84950000D03*
X156200000Y-85550000D03*
X149700000Y-84950000D03*
X156800000Y-85550000D03*
X149700000Y-85550000D03*
X151500000Y-84950000D03*
X158000000Y-84950000D03*
X156200000Y-84950000D03*
X156800000Y-84950000D03*
X150300000Y-84950000D03*
X150900000Y-85550000D03*
%TO.N,+3.3V*%
X139600000Y-93750000D03*
X140650000Y-93725000D03*
X173050000Y-99990000D03*
%TO.N,+5VA*%
X164400000Y-85350000D03*
X165150000Y-84600000D03*
X163750000Y-108700000D03*
X165900000Y-85350000D03*
X139625000Y-92275000D03*
X156825000Y-92250000D03*
X164400000Y-86100000D03*
X165900000Y-86100000D03*
X156250000Y-92250000D03*
X140650000Y-92275000D03*
X165900000Y-84600000D03*
X157400000Y-92250000D03*
X174900000Y-88550000D03*
X165150000Y-85350000D03*
X165150000Y-86100000D03*
X164400000Y-84600000D03*
%TO.N,+6V*%
X168190000Y-96640000D03*
X175700000Y-98300000D03*
%TD*%
D39*
%TO.N,GND*%
X157950000Y-83700000D02*
X157950000Y-83180000D01*
X141650000Y-90725000D02*
X140065000Y-90725000D01*
X147035000Y-91175000D02*
X145600000Y-91175000D01*
X140780000Y-84660000D02*
X140075000Y-84660000D01*
X145600000Y-91825000D02*
X147000000Y-91825000D01*
X145600000Y-91825000D02*
X145600000Y-91175000D01*
X157880000Y-83770000D02*
X157950000Y-83700000D01*
X147125000Y-83770000D02*
X150330000Y-83770000D01*
X145600000Y-91175000D02*
X144550000Y-91175000D01*
X140065000Y-90725000D02*
X138250000Y-92540000D01*
X169409824Y-86151000D02*
X168351000Y-86151000D01*
X155785000Y-83770000D02*
X156490000Y-83770000D01*
X143150000Y-95275000D02*
X141650000Y-95275000D01*
X169800000Y-86541176D02*
X169409824Y-86151000D01*
X168351000Y-86151000D02*
X167400000Y-85200000D01*
X144550000Y-91175000D02*
X144100000Y-90725000D01*
X140595000Y-95275000D02*
X138250000Y-97620000D01*
X147000000Y-91825000D02*
X147025000Y-91825000D01*
X149950000Y-89875000D02*
X150100000Y-89875000D01*
X140075000Y-84660000D02*
X139010000Y-84660000D01*
X170800000Y-90450000D02*
X169800000Y-89450000D01*
X141650000Y-90725000D02*
X141650000Y-90020000D01*
X170800000Y-91600000D02*
X170800000Y-90450000D01*
X145530000Y-84660000D02*
X146235000Y-84660000D01*
X151035000Y-83770000D02*
X150330000Y-83770000D01*
X146235000Y-84660000D02*
X147125000Y-83770000D01*
X143150000Y-90725000D02*
X143150000Y-90020000D01*
X144100000Y-90725000D02*
X141650000Y-90725000D01*
X169800000Y-87300000D02*
X169800000Y-86541176D01*
X169800000Y-87300000D02*
X169800000Y-89450000D01*
D40*
X158750000Y-92540000D02*
X158750000Y-92162500D01*
D39*
X156490000Y-83770000D02*
X157880000Y-83770000D01*
X150100000Y-89875000D02*
X151400000Y-89875000D01*
X170270000Y-100640000D02*
X170770000Y-100140000D01*
X138250000Y-83900000D02*
X138250000Y-82380000D01*
X169370000Y-100640000D02*
X170270000Y-100640000D01*
X141650000Y-95275000D02*
X141650000Y-95980000D01*
X139010000Y-84660000D02*
X138250000Y-83900000D01*
X141650000Y-95275000D02*
X140595000Y-95275000D01*
X157950000Y-83180000D02*
X158750000Y-82380000D01*
X143150000Y-95275000D02*
X143150000Y-95980000D01*
X147040000Y-91180000D02*
X147035000Y-91175000D01*
%TO.N,OUT-*%
X145600000Y-90525000D02*
X144698000Y-90525000D01*
X145600000Y-88575000D02*
X143975000Y-88575000D01*
X144100000Y-88700000D02*
X143975000Y-88575000D01*
X143975000Y-88575000D02*
X142300000Y-86900000D01*
X144698000Y-90525000D02*
X144100000Y-89927000D01*
X144100000Y-89927000D02*
X144100000Y-88700000D01*
X142300000Y-86900000D02*
X142300000Y-83225000D01*
%TO.N,OUT+*%
X145600000Y-87925000D02*
X144625000Y-87925000D01*
X144000000Y-87300000D02*
X144010000Y-87290000D01*
X144625000Y-87925000D02*
X144000000Y-87300000D01*
X144010000Y-87290000D02*
X144010000Y-83225000D01*
%TO.N,MCLK2*%
X153862500Y-92900000D02*
X154100000Y-92900000D01*
X153200000Y-92900000D02*
X153862500Y-92900000D01*
X154800000Y-93600000D02*
X156200000Y-93600000D01*
X152700000Y-93400000D02*
X153200000Y-92900000D01*
X151400000Y-94425000D02*
X152375000Y-94425000D01*
X154100000Y-92900000D02*
X154800000Y-93600000D01*
X152700000Y-94100000D02*
X152700000Y-93400000D01*
X152375000Y-94425000D02*
X152700000Y-94100000D01*
%TO.N,MCLK1*%
X153200000Y-97450000D02*
X153862500Y-97450000D01*
X155100000Y-96600000D02*
X156200000Y-96600000D01*
X152425000Y-95075000D02*
X152700000Y-95350000D01*
X151400000Y-95075000D02*
X152425000Y-95075000D01*
X152700000Y-95350000D02*
X152700000Y-96950000D01*
X152700000Y-96950000D02*
X153200000Y-97450000D01*
X154250000Y-97450000D02*
X155100000Y-96600000D01*
X153862500Y-97450000D02*
X154250000Y-97450000D01*
%TO.N,/Project Architecture/LT3042_6V_5VA/SET*%
X170300000Y-85400000D02*
X170100000Y-85200000D01*
X170300000Y-87300000D02*
X170300000Y-85400000D01*
X171675000Y-85200000D02*
X171925000Y-85450000D01*
X170100000Y-85200000D02*
X171675000Y-85200000D01*
%TO.N,Net-(C17-Pad1)*%
X174320000Y-103695000D02*
X174245000Y-103620000D01*
X175730000Y-103695000D02*
X174320000Y-103695000D01*
D41*
%TO.N,Net-(D2-A)*%
X165300000Y-111050000D02*
X165300000Y-112462500D01*
%TO.N,Net-(D4-A)*%
X163725000Y-111050000D02*
X163725000Y-112462500D01*
D40*
%TO.N,CS*%
X151250000Y-107100000D02*
X153600000Y-109450000D01*
X151250000Y-106425000D02*
X151250000Y-107100000D01*
X153600000Y-109450000D02*
X153600000Y-111375000D01*
D39*
%TO.N,IN-OUT+*%
X144010000Y-75390000D02*
X145900000Y-73500000D01*
X144010000Y-81575000D02*
X144010000Y-75390000D01*
%TO.N,IN-OUT-*%
X142300000Y-81575000D02*
X142300000Y-75400000D01*
X140900000Y-74000000D02*
X140900000Y-73500000D01*
X142300000Y-75400000D02*
X140900000Y-74000000D01*
D41*
%TO.N,Net-(U1-~{CS})*%
X151325000Y-104850000D02*
X151250000Y-104775000D01*
D40*
X149351000Y-100720504D02*
X149351000Y-96575000D01*
X149575735Y-103224265D02*
X149824000Y-102976000D01*
X151400000Y-93125000D02*
X150425000Y-93125000D01*
X149824000Y-101193504D02*
X149351000Y-100720504D01*
X149351000Y-96575000D02*
X149351000Y-96751000D01*
X150425000Y-93125000D02*
X149351000Y-94199000D01*
X149351000Y-94199000D02*
X149351000Y-96575000D01*
X149824000Y-102976000D02*
X149824000Y-101193504D01*
D41*
X151250000Y-103725000D02*
X151250000Y-104775000D01*
X152650000Y-104850000D02*
X151325000Y-104850000D01*
D40*
X149575735Y-103250735D02*
X149575735Y-103224265D01*
%TO.N,Net-(U1-P2)*%
X151400000Y-91825000D02*
X150425000Y-91825000D01*
X149150000Y-102300000D02*
X149150000Y-102400000D01*
X149150000Y-101400000D02*
X149150000Y-102300000D01*
X148900000Y-93350000D02*
X148900000Y-101150000D01*
X149000000Y-101250000D02*
X149150000Y-101400000D01*
D39*
X165300000Y-108700000D02*
X165300000Y-109600000D01*
D40*
X148900000Y-101150000D02*
X149000000Y-101250000D01*
X150425000Y-91825000D02*
X148900000Y-93350000D01*
D39*
%TO.N,/Project Architecture/LT3042_6V_5VA/PGFB*%
X172350000Y-86875000D02*
X173850000Y-86875000D01*
X170800000Y-87300000D02*
X171575000Y-87300000D01*
X171575000Y-87300000D02*
X171925000Y-86950000D01*
%TO.N,Net-(U2-PG)*%
X170325000Y-91625000D02*
X170300000Y-91600000D01*
X170345000Y-93610000D02*
X170325000Y-93590000D01*
X170325000Y-93590000D02*
X170325000Y-91625000D01*
%TO.N,/Project Architecture/TPS61086_3.3V_to_6V/FB*%
X172170000Y-100640000D02*
X175695000Y-100640000D01*
X175695000Y-100640000D02*
X175720000Y-100615000D01*
%TO.N,Net-(IC2-SS)*%
X169370000Y-101140000D02*
X169370000Y-101760000D01*
X174265000Y-105120000D02*
X174255000Y-105130000D01*
X175260000Y-105120000D02*
X174265000Y-105120000D01*
%TO.N,Net-(IC2-COMP)*%
X172730000Y-101140000D02*
X173635000Y-102045000D01*
X173635000Y-102045000D02*
X175730000Y-102045000D01*
X172170000Y-101140000D02*
X172730000Y-101140000D01*
D42*
%TO.N,SENSE+*%
X152635000Y-75235000D02*
X150900000Y-73500000D01*
X145600000Y-89225000D02*
X147100058Y-89225000D01*
X152635000Y-84300000D02*
X152635000Y-83820000D01*
X148250000Y-88075058D02*
X148250000Y-85950000D01*
X148975000Y-85225000D02*
X149875000Y-85225000D01*
X147100058Y-89225000D02*
X148250000Y-88075058D01*
X152635000Y-85170000D02*
X152635000Y-84300000D01*
D39*
X152635000Y-83820000D02*
X152585000Y-83770000D01*
D42*
X148250000Y-85950000D02*
X148975000Y-85225000D01*
X152635000Y-84300000D02*
X152635000Y-75235000D01*
%TO.N,SENSE-*%
X154235000Y-75165000D02*
X155900000Y-73500000D01*
X145600000Y-89875000D02*
X147300000Y-89875000D01*
X154185000Y-83820000D02*
X154235000Y-83770000D01*
X154185000Y-85170000D02*
X154185000Y-83820000D01*
X154235000Y-83770000D02*
X154235000Y-75165000D01*
X150950000Y-86225000D02*
X153300000Y-86225000D01*
X147300000Y-89875000D02*
X150950000Y-86225000D01*
X153300000Y-86225000D02*
X154185000Y-85340000D01*
X154185000Y-85340000D02*
X154185000Y-85170000D01*
D41*
%TO.N,Net-(D1-A)*%
X162150000Y-111050000D02*
X162150000Y-112462500D01*
%TO.N,Net-(Q1-G)*%
X152957500Y-89655000D02*
X152832500Y-89530000D01*
X152957500Y-91210000D02*
X152957500Y-89655000D01*
D39*
%TO.N,P3*%
X154300000Y-92050000D02*
X154607500Y-91742500D01*
X154607500Y-91742500D02*
X154607500Y-91210000D01*
X151400000Y-92475000D02*
X152595000Y-92475000D01*
X153020000Y-92050000D02*
X154300000Y-92050000D01*
X152595000Y-92475000D02*
X153020000Y-92050000D01*
D40*
%TO.N,Net-(RN1-R1.1)*%
X149802000Y-96937810D02*
X149802000Y-96750000D01*
X151400000Y-93775000D02*
X150448000Y-93775000D01*
X150448000Y-93775000D02*
X149802000Y-94421000D01*
X150275000Y-103400000D02*
X150275000Y-101006694D01*
X149700000Y-103975000D02*
X150275000Y-103400000D01*
X149802000Y-100533694D02*
X149802000Y-96937810D01*
X149802000Y-94421000D02*
X149802000Y-96937810D01*
X149700000Y-104650000D02*
X149700000Y-103975000D01*
X150275000Y-101006694D02*
X149802000Y-100533694D01*
%TO.N,Net-(RN1-R2.1)*%
X146650000Y-93775000D02*
X148449000Y-95574000D01*
X145600000Y-93775000D02*
X146650000Y-93775000D01*
X148449000Y-103174000D02*
X148900000Y-103625000D01*
X148900000Y-103625000D02*
X148900000Y-104650000D01*
X148449000Y-95574000D02*
X148449000Y-103174000D01*
%TO.N,Net-(RN1-R3.1)*%
X146587190Y-94425000D02*
X147998000Y-95835810D01*
X147998000Y-103623000D02*
X148125000Y-103750000D01*
X147998000Y-95835810D02*
X147998000Y-103623000D01*
X148125000Y-104625000D02*
X148100000Y-104650000D01*
X145600000Y-94425000D02*
X146587190Y-94425000D01*
X148125000Y-103750000D02*
X148125000Y-104625000D01*
%TO.N,Net-(RN1-R4.1)*%
X145698000Y-95173000D02*
X146697380Y-95173000D01*
X147547000Y-103878000D02*
X147300000Y-104125000D01*
X145600000Y-95075000D02*
X145698000Y-95173000D01*
X147300000Y-104125000D02*
X147300000Y-104650000D01*
X146697380Y-95173000D02*
X147547000Y-96022620D01*
X147547000Y-103809810D02*
X147547000Y-103878000D01*
X147547000Y-96022620D02*
X147547000Y-103809810D01*
D39*
%TO.N,+3.3V*%
X162150000Y-109600000D02*
X162150000Y-106400000D01*
X162915000Y-105635000D02*
X164070000Y-105635000D01*
D41*
X141625000Y-93750000D02*
X141650000Y-93725000D01*
D43*
X143925000Y-93725000D02*
X141650000Y-93725000D01*
D39*
X162150000Y-106400000D02*
X162915000Y-105635000D01*
X172900000Y-100140000D02*
X173050000Y-99990000D01*
X169370000Y-100140000D02*
X168960000Y-100140000D01*
X168960000Y-100140000D02*
X168950000Y-100150000D01*
D43*
X139600000Y-93750000D02*
X141625000Y-93750000D01*
X145600000Y-93125000D02*
X144525000Y-93125000D01*
X144525000Y-93125000D02*
X143925000Y-93725000D01*
D39*
X172170000Y-100140000D02*
X172900000Y-100140000D01*
D44*
%TO.N,+5VA*%
X156247500Y-92247500D02*
X156250000Y-92250000D01*
X156250000Y-92250000D02*
X157400000Y-92250000D01*
D41*
X163750000Y-108700000D02*
X163750000Y-109575000D01*
D43*
X144025000Y-92275000D02*
X141650000Y-92275000D01*
X139625000Y-92275000D02*
X141650000Y-92275000D01*
D44*
X156247500Y-91210000D02*
X156247500Y-92247500D01*
X155360000Y-89710000D02*
X156247500Y-89710000D01*
D43*
X145600000Y-92475000D02*
X144225000Y-92475000D01*
D44*
X155180000Y-89530000D02*
X155360000Y-89710000D01*
D39*
X174900000Y-88550000D02*
X173875000Y-88550000D01*
D41*
X163750000Y-109575000D02*
X163725000Y-109600000D01*
D44*
X154732500Y-89530000D02*
X155180000Y-89530000D01*
X156247500Y-91210000D02*
X156247500Y-89710000D01*
D43*
X144225000Y-92475000D02*
X144025000Y-92275000D01*
D39*
X173875000Y-88550000D02*
X173850000Y-88525000D01*
D43*
%TO.N,+6V*%
X175700000Y-98300000D02*
X175700000Y-98945000D01*
X168745000Y-96640000D02*
X168190000Y-96640000D01*
D39*
X175700000Y-98945000D02*
X175720000Y-98965000D01*
%TD*%
%TA.AperFunction,Conductor*%
%TO.N,Net-(D3-A)*%
G36*
X169613039Y-97879685D02*
G01*
X169658794Y-97932489D01*
X169670000Y-97984000D01*
X169670000Y-99636000D01*
X169650315Y-99703039D01*
X169597511Y-99748794D01*
X169546000Y-99760000D01*
X165220000Y-99760000D01*
X165220000Y-102086000D01*
X165200315Y-102153039D01*
X165147511Y-102198794D01*
X165096000Y-102210000D01*
X163049000Y-102210000D01*
X162981961Y-102190315D01*
X162936206Y-102137511D01*
X162925000Y-102086000D01*
X162925000Y-97984000D01*
X162944685Y-97916961D01*
X162997489Y-97871206D01*
X163049000Y-97860000D01*
X169546000Y-97860000D01*
X169613039Y-97879685D01*
G37*
%TD.AperFunction*%
%TD*%
%TA.AperFunction,Conductor*%
%TO.N,GND*%
G36*
X159075000Y-91925000D02*
G01*
X158000000Y-91925000D01*
X158000000Y-91940751D01*
X157748981Y-91891167D01*
X157707316Y-91849502D01*
X157707314Y-91849500D01*
X157650250Y-91816554D01*
X157593187Y-91783608D01*
X157529539Y-91766554D01*
X157465892Y-91749500D01*
X157465891Y-91749500D01*
X157457832Y-91748439D01*
X157458299Y-91744889D01*
X157406961Y-91729815D01*
X157361206Y-91677011D01*
X157350000Y-91625500D01*
X157350000Y-86349000D01*
X157369685Y-86281961D01*
X157422489Y-86236206D01*
X157474000Y-86225000D01*
X157728246Y-86225000D01*
X159075000Y-86225000D01*
X159075000Y-91925000D01*
G37*
%TD.AperFunction*%
%TD*%
%TA.AperFunction,Conductor*%
%TO.N,+3.3V*%
G36*
X169643039Y-100019685D02*
G01*
X169688794Y-100072489D01*
X169700000Y-100124000D01*
X169700000Y-100176000D01*
X169680315Y-100243039D01*
X169627511Y-100288794D01*
X169576000Y-100300000D01*
X168999999Y-100300000D01*
X168800000Y-100499999D01*
X168800000Y-100500000D01*
X168800000Y-102200000D01*
X169530691Y-102883244D01*
X169566214Y-102943409D01*
X169570000Y-102973816D01*
X169570000Y-106727502D01*
X169550315Y-106794541D01*
X169497511Y-106840296D01*
X169447512Y-106851493D01*
X165471090Y-106899986D01*
X165468880Y-106899993D01*
X162149879Y-106881318D01*
X162123127Y-106881168D01*
X162123126Y-106881168D01*
X156960000Y-109913379D01*
X156960000Y-112276000D01*
X156940315Y-112343039D01*
X156887511Y-112388794D01*
X156836000Y-112400000D01*
X155374000Y-112400000D01*
X155306961Y-112380315D01*
X155261206Y-112327511D01*
X155250000Y-112276000D01*
X155250000Y-109773212D01*
X153908646Y-106371923D01*
X153900000Y-106326431D01*
X153900000Y-104224000D01*
X153919685Y-104156961D01*
X153972489Y-104111206D01*
X154024000Y-104100000D01*
X165650000Y-104100000D01*
X167914472Y-100063333D01*
X167964439Y-100014496D01*
X168022618Y-100000000D01*
X169576000Y-100000000D01*
X169643039Y-100019685D01*
G37*
%TD.AperFunction*%
%TD*%
%TA.AperFunction,Conductor*%
%TO.N,SENSE+*%
G36*
X158243039Y-84669685D02*
G01*
X158288794Y-84722489D01*
X158300000Y-84774000D01*
X158300000Y-85726000D01*
X158280315Y-85793039D01*
X158227511Y-85838794D01*
X158176000Y-85850000D01*
X156700000Y-85850000D01*
X156700000Y-88576000D01*
X156680315Y-88643039D01*
X156627511Y-88688794D01*
X156576000Y-88700000D01*
X155633205Y-88700000D01*
X155571239Y-88683407D01*
X154300000Y-87950000D01*
X153624000Y-87950000D01*
X153556961Y-87930315D01*
X153511206Y-87877511D01*
X153500000Y-87826000D01*
X153500000Y-86724000D01*
X153519685Y-86656961D01*
X153572489Y-86611206D01*
X153624000Y-86600000D01*
X154300000Y-86600000D01*
X155802238Y-84697164D01*
X155859228Y-84656743D01*
X155899563Y-84650000D01*
X158176000Y-84650000D01*
X158243039Y-84669685D01*
G37*
%TD.AperFunction*%
%TD*%
%TA.AperFunction,Conductor*%
%TO.N,SENSE+*%
G36*
X153143705Y-84659675D02*
G01*
X153210694Y-84679533D01*
X153256312Y-84732455D01*
X153267368Y-84785698D01*
X153253163Y-85656085D01*
X153244328Y-85684453D01*
X153238013Y-85713487D01*
X153233344Y-85719723D01*
X153232388Y-85722795D01*
X153216863Y-85741741D01*
X153170427Y-85788179D01*
X153109105Y-85821666D01*
X153082744Y-85824500D01*
X151010339Y-85824500D01*
X151010323Y-85824499D01*
X151002727Y-85824499D01*
X150897274Y-85824499D01*
X150817871Y-85845775D01*
X150785778Y-85850000D01*
X149524000Y-85850000D01*
X149456961Y-85830315D01*
X149411206Y-85777511D01*
X149400000Y-85726000D01*
X149400000Y-84774321D01*
X149419685Y-84707282D01*
X149472489Y-84661527D01*
X149524318Y-84650321D01*
X153143705Y-84659675D01*
G37*
%TD.AperFunction*%
%TD*%
%TA.AperFunction,Conductor*%
%TO.N,+5VA*%
G36*
X166193039Y-84319685D02*
G01*
X166238794Y-84372489D01*
X166250000Y-84424000D01*
X166250000Y-86700000D01*
X169325500Y-86700000D01*
X169392539Y-86719685D01*
X169438294Y-86772489D01*
X169449500Y-86824000D01*
X169449501Y-87776000D01*
X169429817Y-87843039D01*
X169377013Y-87888794D01*
X169325501Y-87900000D01*
X164174000Y-87900000D01*
X164106961Y-87880315D01*
X164061206Y-87827511D01*
X164050000Y-87776000D01*
X164050000Y-84424000D01*
X164069685Y-84356961D01*
X164122489Y-84311206D01*
X164174000Y-84300000D01*
X166126000Y-84300000D01*
X166193039Y-84319685D01*
G37*
%TD.AperFunction*%
%TD*%
%TA.AperFunction,Conductor*%
%TO.N,GND*%
G36*
X159100000Y-98225000D02*
G01*
X158000000Y-98225000D01*
X158000000Y-96000000D01*
X157500000Y-95500000D01*
X157124000Y-95500000D01*
X157056961Y-95480315D01*
X157011206Y-95427511D01*
X157000000Y-95376000D01*
X157000000Y-94824000D01*
X157019685Y-94756961D01*
X157072489Y-94711206D01*
X157124000Y-94700000D01*
X157500000Y-94700000D01*
X158000000Y-94250000D01*
X158000000Y-91925000D01*
X159075000Y-91925000D01*
X159100000Y-98225000D01*
G37*
%TD.AperFunction*%
%TD*%
%TA.AperFunction,Conductor*%
%TO.N,GND*%
G36*
X154403226Y-94019685D02*
G01*
X154437090Y-94051926D01*
X154900000Y-94700000D01*
X155276000Y-94700000D01*
X155343039Y-94719685D01*
X155388794Y-94772489D01*
X155400000Y-94824000D01*
X155400000Y-95376000D01*
X155380315Y-95443039D01*
X155327511Y-95488794D01*
X155276000Y-95500000D01*
X154899998Y-95500000D01*
X154408876Y-96291385D01*
X154356801Y-96337968D01*
X154303516Y-96350000D01*
X153474000Y-96350000D01*
X153406961Y-96330315D01*
X153361206Y-96277511D01*
X153350000Y-96226000D01*
X153350000Y-94124000D01*
X153369685Y-94056961D01*
X153422489Y-94011206D01*
X153474000Y-94000000D01*
X154336187Y-94000000D01*
X154403226Y-94019685D01*
G37*
%TD.AperFunction*%
%TD*%
%TA.AperFunction,Conductor*%
%TO.N,GND*%
G36*
X138926748Y-64593064D02*
G01*
X138993664Y-64613150D01*
X139039101Y-64666227D01*
X139050000Y-64717061D01*
X139050000Y-99350000D01*
X147097500Y-99350000D01*
X147164539Y-99369685D01*
X147210294Y-99422489D01*
X147221500Y-99474000D01*
X147221500Y-103691811D01*
X147201815Y-103758850D01*
X147185181Y-103779492D01*
X147039537Y-103925135D01*
X147039535Y-103925138D01*
X146996681Y-103999361D01*
X146996681Y-103999362D01*
X146988826Y-104028678D01*
X146974500Y-104082143D01*
X146974500Y-104114319D01*
X146954815Y-104181358D01*
X146953602Y-104183210D01*
X146911132Y-104246769D01*
X146911131Y-104246770D01*
X146899500Y-104305247D01*
X146899500Y-105244752D01*
X146911131Y-105303229D01*
X146911132Y-105303230D01*
X146955447Y-105369552D01*
X147021769Y-105413867D01*
X147021770Y-105413868D01*
X147080247Y-105425499D01*
X147080250Y-105425500D01*
X147080252Y-105425500D01*
X147519750Y-105425500D01*
X147519751Y-105425499D01*
X147534568Y-105422552D01*
X147578229Y-105413868D01*
X147578231Y-105413867D01*
X147631108Y-105378535D01*
X147697785Y-105357656D01*
X147765165Y-105376140D01*
X147768892Y-105378535D01*
X147821768Y-105413867D01*
X147821770Y-105413868D01*
X147880247Y-105425499D01*
X147880250Y-105425500D01*
X147880252Y-105425500D01*
X148319750Y-105425500D01*
X148319751Y-105425499D01*
X148334568Y-105422552D01*
X148378229Y-105413868D01*
X148378231Y-105413867D01*
X148431108Y-105378535D01*
X148497785Y-105357656D01*
X148565165Y-105376140D01*
X148568892Y-105378535D01*
X148621768Y-105413867D01*
X148621770Y-105413868D01*
X148680247Y-105425499D01*
X148680250Y-105425500D01*
X148680252Y-105425500D01*
X149119750Y-105425500D01*
X149119751Y-105425499D01*
X149134568Y-105422552D01*
X149178229Y-105413868D01*
X149178231Y-105413867D01*
X149231108Y-105378535D01*
X149297785Y-105357656D01*
X149365165Y-105376140D01*
X149368892Y-105378535D01*
X149421768Y-105413867D01*
X149421770Y-105413868D01*
X149480247Y-105425499D01*
X149480250Y-105425500D01*
X149480252Y-105425500D01*
X149919750Y-105425500D01*
X149919751Y-105425499D01*
X149934568Y-105422552D01*
X149978229Y-105413868D01*
X149978229Y-105413867D01*
X149978231Y-105413867D01*
X150044552Y-105369552D01*
X150088867Y-105303231D01*
X150088867Y-105303229D01*
X150088868Y-105303229D01*
X150100499Y-105244752D01*
X150100500Y-105244750D01*
X150100500Y-104543475D01*
X150574500Y-104543475D01*
X150574500Y-105006517D01*
X150582559Y-105057399D01*
X150589354Y-105100304D01*
X150646950Y-105213342D01*
X150646952Y-105213344D01*
X150646954Y-105213347D01*
X150736652Y-105303045D01*
X150736654Y-105303046D01*
X150736658Y-105303050D01*
X150843828Y-105357656D01*
X150849698Y-105360647D01*
X150943475Y-105375499D01*
X150943481Y-105375500D01*
X151556518Y-105375499D01*
X151650304Y-105360646D01*
X151763342Y-105303050D01*
X151829574Y-105236817D01*
X151856505Y-105222111D01*
X151882319Y-105205523D01*
X151888518Y-105204631D01*
X151890895Y-105203334D01*
X151917254Y-105200500D01*
X151962990Y-105200500D01*
X152030029Y-105220185D01*
X152073474Y-105268204D01*
X152121949Y-105363340D01*
X152121954Y-105363347D01*
X152211652Y-105453045D01*
X152211654Y-105453046D01*
X152211658Y-105453050D01*
X152304770Y-105500493D01*
X152324698Y-105510647D01*
X152418475Y-105525499D01*
X152418481Y-105525500D01*
X152881518Y-105525499D01*
X152975304Y-105510646D01*
X153088342Y-105453050D01*
X153178050Y-105363342D01*
X153235646Y-105250304D01*
X153235646Y-105250302D01*
X153235647Y-105250301D01*
X153250499Y-105156524D01*
X153250500Y-105156519D01*
X153250499Y-104543482D01*
X153235646Y-104449696D01*
X153178050Y-104336658D01*
X153178046Y-104336654D01*
X153178045Y-104336652D01*
X153088347Y-104246954D01*
X153088344Y-104246952D01*
X153088342Y-104246950D01*
X153043306Y-104224003D01*
X153694500Y-104224003D01*
X153694500Y-106326433D01*
X153698113Y-106364794D01*
X153706761Y-106410300D01*
X153717472Y-106447305D01*
X153717475Y-106447314D01*
X154868306Y-109365490D01*
X155035854Y-109790344D01*
X155044500Y-109835836D01*
X155044500Y-112276007D01*
X155049197Y-112319686D01*
X155060397Y-112371174D01*
X155062890Y-112381372D01*
X155062891Y-112381375D01*
X155105899Y-112462083D01*
X155105901Y-112462086D01*
X155151660Y-112514895D01*
X155169242Y-112532839D01*
X155169246Y-112532843D01*
X155169247Y-112532844D01*
X155169249Y-112532845D01*
X155249059Y-112577488D01*
X155249063Y-112577490D01*
X155316102Y-112597175D01*
X155374000Y-112605500D01*
X155374004Y-112605500D01*
X156835991Y-112605500D01*
X156836000Y-112605500D01*
X156879684Y-112600803D01*
X156908875Y-112594452D01*
X156931174Y-112589602D01*
X156931190Y-112589598D01*
X156931195Y-112589597D01*
X156941373Y-112587110D01*
X157022085Y-112544100D01*
X157074889Y-112498345D01*
X157092843Y-112480754D01*
X157137490Y-112400937D01*
X157157175Y-112333898D01*
X157165500Y-112276000D01*
X157165500Y-111018475D01*
X161474500Y-111018475D01*
X161474500Y-111481517D01*
X161484974Y-111547646D01*
X161489354Y-111575304D01*
X161546950Y-111688342D01*
X161546952Y-111688344D01*
X161546954Y-111688347D01*
X161636652Y-111778045D01*
X161636656Y-111778048D01*
X161636658Y-111778050D01*
X161731797Y-111826526D01*
X161742859Y-111836973D01*
X161756703Y-111843296D01*
X161767744Y-111860476D01*
X161782591Y-111874499D01*
X161786832Y-111890178D01*
X161794477Y-111902074D01*
X161799500Y-111937009D01*
X161799500Y-111945250D01*
X161779815Y-112012289D01*
X161731796Y-112055734D01*
X161644250Y-112100341D01*
X161644243Y-112100346D01*
X161550346Y-112194243D01*
X161550343Y-112194248D01*
X161490047Y-112312582D01*
X161474500Y-112410748D01*
X161474500Y-112914251D01*
X161490047Y-113012417D01*
X161490049Y-113012420D01*
X161550342Y-113130751D01*
X161550344Y-113130753D01*
X161550346Y-113130756D01*
X161644243Y-113224653D01*
X161644245Y-113224654D01*
X161644249Y-113224658D01*
X161762580Y-113284951D01*
X161762581Y-113284951D01*
X161762583Y-113284952D01*
X161762582Y-113284952D01*
X161860749Y-113300500D01*
X161860754Y-113300500D01*
X162439251Y-113300500D01*
X162537417Y-113284952D01*
X162537418Y-113284951D01*
X162537420Y-113284951D01*
X162655751Y-113224658D01*
X162749658Y-113130751D01*
X162809951Y-113012420D01*
X162809951Y-113012418D01*
X162809952Y-113012417D01*
X162815027Y-112980375D01*
X162844956Y-112917241D01*
X162904267Y-112880309D01*
X162974130Y-112881307D01*
X163032363Y-112919917D01*
X163059973Y-112980375D01*
X163065047Y-113012417D01*
X163065049Y-113012420D01*
X163125342Y-113130751D01*
X163125344Y-113130753D01*
X163125346Y-113130756D01*
X163219243Y-113224653D01*
X163219245Y-113224654D01*
X163219249Y-113224658D01*
X163337580Y-113284951D01*
X163337581Y-113284951D01*
X163337583Y-113284952D01*
X163337582Y-113284952D01*
X163435749Y-113300500D01*
X163435754Y-113300500D01*
X164014251Y-113300500D01*
X164112417Y-113284952D01*
X164112418Y-113284951D01*
X164112420Y-113284951D01*
X164230751Y-113224658D01*
X164324658Y-113130751D01*
X164384951Y-113012420D01*
X164384951Y-113012418D01*
X164384952Y-113012417D01*
X164390027Y-112980375D01*
X164419956Y-112917241D01*
X164479267Y-112880309D01*
X164549130Y-112881307D01*
X164607363Y-112919917D01*
X164634973Y-112980375D01*
X164640047Y-113012417D01*
X164640049Y-113012420D01*
X164700342Y-113130751D01*
X164700344Y-113130753D01*
X164700346Y-113130756D01*
X164794243Y-113224653D01*
X164794245Y-113224654D01*
X164794249Y-113224658D01*
X164912580Y-113284951D01*
X164912581Y-113284951D01*
X164912583Y-113284952D01*
X164912582Y-113284952D01*
X165010749Y-113300500D01*
X165010754Y-113300500D01*
X165589251Y-113300500D01*
X165687417Y-113284952D01*
X165687418Y-113284951D01*
X165687420Y-113284951D01*
X165805751Y-113224658D01*
X165899658Y-113130751D01*
X165959951Y-113012420D01*
X165959951Y-113012418D01*
X165959952Y-113012417D01*
X165975500Y-112914251D01*
X165975500Y-112410748D01*
X165959952Y-112312582D01*
X165941310Y-112275996D01*
X165899658Y-112194249D01*
X165899654Y-112194245D01*
X165899653Y-112194243D01*
X165805756Y-112100346D01*
X165805752Y-112100343D01*
X165805751Y-112100342D01*
X165800842Y-112097840D01*
X165718204Y-112055734D01*
X165707140Y-112045285D01*
X165693297Y-112038963D01*
X165682255Y-112021782D01*
X165667409Y-112007760D01*
X165663167Y-111992080D01*
X165655523Y-111980185D01*
X165650500Y-111945250D01*
X165650500Y-111937009D01*
X165670185Y-111869970D01*
X165718202Y-111826526D01*
X165813342Y-111778050D01*
X165903050Y-111688342D01*
X165960646Y-111575304D01*
X165960646Y-111575302D01*
X165960647Y-111575301D01*
X165975499Y-111481524D01*
X165975500Y-111481519D01*
X165975499Y-111018482D01*
X165960646Y-110924696D01*
X165903050Y-110811658D01*
X165903046Y-110811654D01*
X165903045Y-110811652D01*
X165813347Y-110721954D01*
X165813344Y-110721952D01*
X165813342Y-110721950D01*
X165736517Y-110682805D01*
X165700301Y-110664352D01*
X165606524Y-110649500D01*
X164993482Y-110649500D01*
X164912519Y-110662323D01*
X164899696Y-110664354D01*
X164786658Y-110721950D01*
X164786657Y-110721951D01*
X164786652Y-110721954D01*
X164696954Y-110811652D01*
X164696951Y-110811657D01*
X164639353Y-110924698D01*
X164634972Y-110952356D01*
X164605041Y-111015490D01*
X164545729Y-111052420D01*
X164475866Y-111051420D01*
X164417634Y-111012809D01*
X164390025Y-110952352D01*
X164385646Y-110924696D01*
X164328050Y-110811658D01*
X164328046Y-110811654D01*
X164328045Y-110811652D01*
X164238347Y-110721954D01*
X164238344Y-110721952D01*
X164238342Y-110721950D01*
X164161517Y-110682805D01*
X164125301Y-110664352D01*
X164031524Y-110649500D01*
X163418482Y-110649500D01*
X163337519Y-110662323D01*
X163324696Y-110664354D01*
X163211658Y-110721950D01*
X163211657Y-110721951D01*
X163211652Y-110721954D01*
X163121954Y-110811652D01*
X163121951Y-110811657D01*
X163064353Y-110924698D01*
X163059972Y-110952356D01*
X163030041Y-111015490D01*
X162970729Y-111052420D01*
X162900866Y-111051420D01*
X162842634Y-111012809D01*
X162815025Y-110952352D01*
X162810646Y-110924696D01*
X162753050Y-110811658D01*
X162753046Y-110811654D01*
X162753045Y-110811652D01*
X162663347Y-110721954D01*
X162663344Y-110721952D01*
X162663342Y-110721950D01*
X162586517Y-110682805D01*
X162550301Y-110664352D01*
X162456524Y-110649500D01*
X161843482Y-110649500D01*
X161762519Y-110662323D01*
X161749696Y-110664354D01*
X161636658Y-110721950D01*
X161636657Y-110721951D01*
X161636652Y-110721954D01*
X161546954Y-110811652D01*
X161546951Y-110811657D01*
X161489352Y-110924698D01*
X161474500Y-111018475D01*
X157165500Y-111018475D01*
X157165500Y-110101989D01*
X157185185Y-110034950D01*
X157226703Y-109995066D01*
X161662706Y-107389880D01*
X161730481Y-107372905D01*
X161796676Y-107395267D01*
X161840273Y-107449866D01*
X161849500Y-107496805D01*
X161849500Y-108892640D01*
X161829815Y-108959679D01*
X161777011Y-109005434D01*
X161758842Y-109010911D01*
X161758981Y-109011337D01*
X161749699Y-109014352D01*
X161733402Y-109022656D01*
X161636658Y-109071950D01*
X161636657Y-109071951D01*
X161636652Y-109071954D01*
X161546954Y-109161652D01*
X161546951Y-109161657D01*
X161489352Y-109274698D01*
X161474500Y-109368475D01*
X161474500Y-109831517D01*
X161484974Y-109897646D01*
X161489354Y-109925304D01*
X161546950Y-110038342D01*
X161546952Y-110038344D01*
X161546954Y-110038347D01*
X161636652Y-110128045D01*
X161636654Y-110128046D01*
X161636658Y-110128050D01*
X161717704Y-110169345D01*
X161749698Y-110185647D01*
X161843475Y-110200499D01*
X161843481Y-110200500D01*
X162456518Y-110200499D01*
X162550304Y-110185646D01*
X162663342Y-110128050D01*
X162753050Y-110038342D01*
X162810646Y-109925304D01*
X162810646Y-109925302D01*
X162810647Y-109925301D01*
X162810647Y-109925300D01*
X162815027Y-109897647D01*
X162844956Y-109834512D01*
X162904267Y-109797580D01*
X162974129Y-109798578D01*
X163032362Y-109837187D01*
X163059973Y-109897646D01*
X163064352Y-109925300D01*
X163064353Y-109925303D01*
X163064354Y-109925304D01*
X163121950Y-110038342D01*
X163121952Y-110038344D01*
X163121954Y-110038347D01*
X163211652Y-110128045D01*
X163211654Y-110128046D01*
X163211658Y-110128050D01*
X163292704Y-110169345D01*
X163324698Y-110185647D01*
X163418475Y-110200499D01*
X163418481Y-110200500D01*
X164031518Y-110200499D01*
X164125304Y-110185646D01*
X164238342Y-110128050D01*
X164328050Y-110038342D01*
X164385646Y-109925304D01*
X164385646Y-109925302D01*
X164385647Y-109925301D01*
X164385647Y-109925300D01*
X164390027Y-109897647D01*
X164419956Y-109834512D01*
X164479267Y-109797580D01*
X164549129Y-109798578D01*
X164607362Y-109837187D01*
X164634973Y-109897646D01*
X164639352Y-109925300D01*
X164639353Y-109925303D01*
X164639354Y-109925304D01*
X164696950Y-110038342D01*
X164696952Y-110038344D01*
X164696954Y-110038347D01*
X164786652Y-110128045D01*
X164786654Y-110128046D01*
X164786658Y-110128050D01*
X164867704Y-110169345D01*
X164899698Y-110185647D01*
X164993475Y-110200499D01*
X164993481Y-110200500D01*
X165606518Y-110200499D01*
X165700304Y-110185646D01*
X165813342Y-110128050D01*
X165903050Y-110038342D01*
X165960646Y-109925304D01*
X165960646Y-109925302D01*
X165960647Y-109925301D01*
X165975499Y-109831524D01*
X165975500Y-109831519D01*
X165975499Y-109368482D01*
X165960646Y-109274696D01*
X165903050Y-109161658D01*
X165903046Y-109161654D01*
X165903045Y-109161652D01*
X165813347Y-109071954D01*
X165813343Y-109071951D01*
X165813342Y-109071950D01*
X165791432Y-109060786D01*
X165740638Y-109012813D01*
X165723843Y-108944993D01*
X165740344Y-108888300D01*
X165743095Y-108883536D01*
X165775500Y-108762601D01*
X165775500Y-108637399D01*
X165743095Y-108516464D01*
X165680495Y-108408036D01*
X165591964Y-108319505D01*
X165483536Y-108256905D01*
X165483537Y-108256905D01*
X165443224Y-108246103D01*
X165362601Y-108224500D01*
X165237399Y-108224500D01*
X165156775Y-108246103D01*
X165116463Y-108256905D01*
X165008037Y-108319504D01*
X165008034Y-108319506D01*
X164919506Y-108408034D01*
X164919504Y-108408037D01*
X164856905Y-108516463D01*
X164856905Y-108516464D01*
X164824500Y-108637399D01*
X164824500Y-108762601D01*
X164856905Y-108883536D01*
X164859654Y-108888298D01*
X164859658Y-108888304D01*
X164876129Y-108956205D01*
X164853277Y-109022231D01*
X164808566Y-109060787D01*
X164786659Y-109071949D01*
X164786652Y-109071954D01*
X164696954Y-109161652D01*
X164696951Y-109161657D01*
X164696950Y-109161658D01*
X164639354Y-109274696D01*
X164639353Y-109274698D01*
X164634972Y-109302356D01*
X164605041Y-109365490D01*
X164545729Y-109402420D01*
X164475866Y-109401420D01*
X164417634Y-109362809D01*
X164390025Y-109302352D01*
X164385646Y-109274696D01*
X164328050Y-109161658D01*
X164328046Y-109161654D01*
X164328045Y-109161652D01*
X164238347Y-109071954D01*
X164238344Y-109071952D01*
X164238342Y-109071950D01*
X164235750Y-109070629D01*
X164233173Y-109068195D01*
X164230450Y-109066217D01*
X164230705Y-109065864D01*
X164184956Y-109022656D01*
X164168161Y-108954835D01*
X164184660Y-108898146D01*
X164187839Y-108892640D01*
X164193095Y-108883536D01*
X164225500Y-108762601D01*
X164225500Y-108637399D01*
X164193095Y-108516464D01*
X164130495Y-108408036D01*
X164041964Y-108319505D01*
X163933536Y-108256905D01*
X163933537Y-108256905D01*
X163893224Y-108246103D01*
X163812601Y-108224500D01*
X163687399Y-108224500D01*
X163606775Y-108246103D01*
X163566463Y-108256905D01*
X163458037Y-108319504D01*
X163458034Y-108319506D01*
X163369506Y-108408034D01*
X163369504Y-108408037D01*
X163306905Y-108516463D01*
X163306905Y-108516464D01*
X163274500Y-108637399D01*
X163274500Y-108762601D01*
X163296103Y-108843224D01*
X163306905Y-108883537D01*
X163310016Y-108891046D01*
X163307302Y-108892169D01*
X163320446Y-108946376D01*
X163297585Y-109012400D01*
X163252884Y-109050944D01*
X163211657Y-109071950D01*
X163211652Y-109071954D01*
X163121954Y-109161652D01*
X163121951Y-109161657D01*
X163121950Y-109161658D01*
X163064354Y-109274696D01*
X163064353Y-109274698D01*
X163059972Y-109302356D01*
X163030041Y-109365490D01*
X162970729Y-109402420D01*
X162900866Y-109401420D01*
X162842634Y-109362809D01*
X162815025Y-109302352D01*
X162810646Y-109274696D01*
X162753050Y-109161658D01*
X162753046Y-109161654D01*
X162753045Y-109161652D01*
X162663347Y-109071954D01*
X162663344Y-109071952D01*
X162663342Y-109071950D01*
X162566598Y-109022656D01*
X162550301Y-109014352D01*
X162541020Y-109011337D01*
X162541836Y-109008825D01*
X162491963Y-108985180D01*
X162455034Y-108925866D01*
X162450500Y-108892640D01*
X162450500Y-107213211D01*
X162470185Y-107146172D01*
X162522989Y-107100417D01*
X162575194Y-107089213D01*
X164846512Y-107101994D01*
X165467691Y-107105490D01*
X165467751Y-107105490D01*
X165469531Y-107105492D01*
X165470509Y-107105488D01*
X165471672Y-107105486D01*
X165472344Y-107105480D01*
X165473596Y-107105471D01*
X169450018Y-107056978D01*
X169492420Y-107052026D01*
X169542419Y-107040829D01*
X169551373Y-107038612D01*
X169632085Y-106995602D01*
X169684889Y-106949847D01*
X169702843Y-106932256D01*
X169747490Y-106852439D01*
X169767175Y-106785400D01*
X169775500Y-106727502D01*
X169775500Y-103336506D01*
X173594500Y-103336506D01*
X173594500Y-103903493D01*
X173610279Y-104003121D01*
X173610280Y-104003124D01*
X173610281Y-104003126D01*
X173666937Y-104114319D01*
X173671473Y-104123221D01*
X173671476Y-104123225D01*
X173766774Y-104218523D01*
X173766777Y-104218525D01*
X173766780Y-104218528D01*
X173862037Y-104267063D01*
X173912831Y-104315036D01*
X173929627Y-104382857D01*
X173907090Y-104448992D01*
X173862036Y-104488031D01*
X173776780Y-104531472D01*
X173776779Y-104531473D01*
X173776774Y-104531476D01*
X173681476Y-104626774D01*
X173681473Y-104626778D01*
X173620279Y-104746878D01*
X173604500Y-104846506D01*
X173604500Y-105413493D01*
X173620279Y-105513121D01*
X173620280Y-105513124D01*
X173620281Y-105513126D01*
X173681472Y-105633220D01*
X173681473Y-105633221D01*
X173681476Y-105633225D01*
X173776774Y-105728523D01*
X173776778Y-105728526D01*
X173776780Y-105728528D01*
X173896874Y-105789719D01*
X173896876Y-105789719D01*
X173896878Y-105789720D01*
X173996507Y-105805500D01*
X173996512Y-105805500D01*
X174513493Y-105805500D01*
X174613121Y-105789720D01*
X174613121Y-105789719D01*
X174613126Y-105789719D01*
X174733220Y-105728528D01*
X174828528Y-105633220D01*
X174853172Y-105584852D01*
X174901145Y-105534058D01*
X174968966Y-105517262D01*
X175025654Y-105533760D01*
X175076464Y-105563095D01*
X175197399Y-105595500D01*
X175197401Y-105595500D01*
X175322599Y-105595500D01*
X175322601Y-105595500D01*
X175443536Y-105563095D01*
X175551964Y-105500495D01*
X175640495Y-105411964D01*
X175703095Y-105303536D01*
X175735500Y-105182601D01*
X175735500Y-105057399D01*
X175703095Y-104936464D01*
X175640495Y-104828036D01*
X175551964Y-104739505D01*
X175443536Y-104676905D01*
X175443537Y-104676905D01*
X175403224Y-104666103D01*
X175322601Y-104644500D01*
X175197399Y-104644500D01*
X175140710Y-104659690D01*
X175076462Y-104676905D01*
X175076459Y-104676907D01*
X175017779Y-104710785D01*
X174949879Y-104727256D01*
X174883852Y-104704403D01*
X174845298Y-104659694D01*
X174828528Y-104626780D01*
X174828526Y-104626778D01*
X174828523Y-104626774D01*
X174733225Y-104531476D01*
X174733221Y-104531473D01*
X174733220Y-104531472D01*
X174637960Y-104482935D01*
X174587167Y-104434963D01*
X174570372Y-104367142D01*
X174592909Y-104301007D01*
X174637960Y-104261969D01*
X174723220Y-104218528D01*
X174818528Y-104123220D01*
X174840280Y-104080530D01*
X174849108Y-104063205D01*
X174859556Y-104052142D01*
X174865879Y-104038297D01*
X174883060Y-104027255D01*
X174897082Y-104012409D01*
X174912761Y-104008167D01*
X174924657Y-104000523D01*
X174959592Y-103995500D01*
X174980728Y-103995500D01*
X175047767Y-104015185D01*
X175091212Y-104063204D01*
X175126949Y-104133340D01*
X175126954Y-104133347D01*
X175216652Y-104223045D01*
X175216654Y-104223046D01*
X175216658Y-104223050D01*
X175327877Y-104279719D01*
X175329698Y-104280647D01*
X175423475Y-104295499D01*
X175423481Y-104295500D01*
X176036518Y-104295499D01*
X176130304Y-104280646D01*
X176243342Y-104223050D01*
X176333050Y-104133342D01*
X176390646Y-104020304D01*
X176390646Y-104020302D01*
X176390647Y-104020301D01*
X176401282Y-103953147D01*
X176405500Y-103926519D01*
X176405499Y-103463482D01*
X176390646Y-103369696D01*
X176333050Y-103256658D01*
X176333046Y-103256654D01*
X176333045Y-103256652D01*
X176243347Y-103166954D01*
X176243344Y-103166952D01*
X176243342Y-103166950D01*
X176166517Y-103127805D01*
X176130301Y-103109352D01*
X176036524Y-103094500D01*
X175423482Y-103094500D01*
X175342519Y-103107323D01*
X175329696Y-103109354D01*
X175216658Y-103166950D01*
X175216657Y-103166951D01*
X175216652Y-103166954D01*
X175126954Y-103256652D01*
X175126950Y-103256658D01*
X175113993Y-103282087D01*
X175066017Y-103332882D01*
X174998196Y-103349676D01*
X174932061Y-103327137D01*
X174888611Y-103272421D01*
X174881035Y-103245185D01*
X174879719Y-103236878D01*
X174879719Y-103236874D01*
X174818528Y-103116780D01*
X174818526Y-103116778D01*
X174818523Y-103116774D01*
X174723225Y-103021476D01*
X174723221Y-103021473D01*
X174723220Y-103021472D01*
X174603126Y-102960281D01*
X174603124Y-102960280D01*
X174603121Y-102960279D01*
X174503493Y-102944500D01*
X174503488Y-102944500D01*
X173986512Y-102944500D01*
X173986507Y-102944500D01*
X173886878Y-102960279D01*
X173766778Y-103021473D01*
X173766774Y-103021476D01*
X173671476Y-103116774D01*
X173671473Y-103116778D01*
X173610279Y-103236878D01*
X173594500Y-103336506D01*
X169775500Y-103336506D01*
X169775500Y-102973816D01*
X169773925Y-102948425D01*
X169770139Y-102918018D01*
X169743172Y-102838928D01*
X169707649Y-102778763D01*
X169671046Y-102733142D01*
X169366802Y-102448653D01*
X169331280Y-102388489D01*
X169333924Y-102318669D01*
X169373896Y-102261363D01*
X169425243Y-102239442D01*
X169424751Y-102237603D01*
X169432599Y-102235500D01*
X169432601Y-102235500D01*
X169553536Y-102203095D01*
X169661964Y-102140495D01*
X169750495Y-102051964D01*
X169813095Y-101943536D01*
X169845500Y-101822601D01*
X169845500Y-101697399D01*
X169813095Y-101576464D01*
X169798278Y-101550801D01*
X169781805Y-101482902D01*
X169804657Y-101416875D01*
X169812564Y-101407527D01*
X169814552Y-101404552D01*
X169858867Y-101338231D01*
X169858867Y-101338229D01*
X169858868Y-101338229D01*
X169870499Y-101279752D01*
X169870500Y-101279750D01*
X169870500Y-101000249D01*
X169870499Y-101000247D01*
X169858868Y-100941770D01*
X169858867Y-100941769D01*
X169814552Y-100875447D01*
X169748230Y-100831132D01*
X169748229Y-100831131D01*
X169689752Y-100819500D01*
X169689748Y-100819500D01*
X169129500Y-100819500D01*
X169120814Y-100816949D01*
X169111853Y-100818238D01*
X169087812Y-100807259D01*
X169062461Y-100799815D01*
X169056533Y-100792974D01*
X169048297Y-100789213D01*
X169034007Y-100766978D01*
X169016706Y-100747011D01*
X169014418Y-100736496D01*
X169010523Y-100730435D01*
X169005500Y-100695500D01*
X169005500Y-100636482D01*
X169025185Y-100569443D01*
X169041819Y-100548801D01*
X169048801Y-100541819D01*
X169071145Y-100529617D01*
X169077989Y-100523688D01*
X169083440Y-100522904D01*
X169110124Y-100508334D01*
X169136482Y-100505500D01*
X169575991Y-100505500D01*
X169576000Y-100505500D01*
X169619684Y-100500803D01*
X169648875Y-100494452D01*
X169671174Y-100489602D01*
X169671190Y-100489598D01*
X169671195Y-100489597D01*
X169681373Y-100487110D01*
X169762085Y-100444100D01*
X169784726Y-100424481D01*
X169814552Y-100404552D01*
X169825923Y-100387533D01*
X169832843Y-100380754D01*
X169842742Y-100363054D01*
X169847830Y-100354747D01*
X169858867Y-100338231D01*
X169858868Y-100338225D01*
X169862468Y-100329536D01*
X169868804Y-100316464D01*
X169877490Y-100300937D01*
X169897175Y-100233898D01*
X169905500Y-100176000D01*
X169905500Y-100124000D01*
X169900803Y-100080316D01*
X169889597Y-100028805D01*
X169887110Y-100018627D01*
X169877316Y-100000247D01*
X171669500Y-100000247D01*
X171669500Y-100279752D01*
X171681131Y-100338229D01*
X171682921Y-100342549D01*
X171690388Y-100412019D01*
X171682921Y-100437451D01*
X171681131Y-100441770D01*
X171669500Y-100500247D01*
X171669500Y-100779752D01*
X171681131Y-100838229D01*
X171682921Y-100842549D01*
X171690388Y-100912019D01*
X171682921Y-100937451D01*
X171681131Y-100941770D01*
X171669500Y-101000247D01*
X171669500Y-101279752D01*
X171681131Y-101338229D01*
X171681132Y-101338230D01*
X171725447Y-101404552D01*
X171791769Y-101448867D01*
X171791770Y-101448868D01*
X171850247Y-101460499D01*
X171850250Y-101460500D01*
X171850252Y-101460500D01*
X172489749Y-101460500D01*
X172537995Y-101450903D01*
X172607586Y-101457130D01*
X172649868Y-101484839D01*
X173394540Y-102229511D01*
X173450489Y-102285460D01*
X173450491Y-102285461D01*
X173450495Y-102285464D01*
X173490127Y-102308345D01*
X173519011Y-102325021D01*
X173595438Y-102345500D01*
X173674562Y-102345500D01*
X174980728Y-102345500D01*
X175047767Y-102365185D01*
X175091212Y-102413204D01*
X175126949Y-102483340D01*
X175126954Y-102483347D01*
X175216652Y-102573045D01*
X175216654Y-102573046D01*
X175216658Y-102573050D01*
X175316572Y-102623959D01*
X175329698Y-102630647D01*
X175423475Y-102645499D01*
X175423481Y-102645500D01*
X176036518Y-102645499D01*
X176130304Y-102630646D01*
X176243342Y-102573050D01*
X176333050Y-102483342D01*
X176390646Y-102370304D01*
X176390646Y-102370302D01*
X176390647Y-102370301D01*
X176405499Y-102276524D01*
X176405500Y-102276519D01*
X176405499Y-101813482D01*
X176390646Y-101719696D01*
X176333050Y-101606658D01*
X176333046Y-101606654D01*
X176333045Y-101606652D01*
X176243347Y-101516954D01*
X176243344Y-101516952D01*
X176243342Y-101516950D01*
X176166517Y-101477805D01*
X176130301Y-101459352D01*
X176081860Y-101451680D01*
X176018725Y-101421750D01*
X175981795Y-101362438D01*
X175982793Y-101292575D01*
X176021404Y-101234343D01*
X176081861Y-101206734D01*
X176120304Y-101200646D01*
X176233342Y-101143050D01*
X176323050Y-101053342D01*
X176380646Y-100940304D01*
X176380646Y-100940302D01*
X176380647Y-100940301D01*
X176395499Y-100846524D01*
X176395500Y-100846519D01*
X176395499Y-100383482D01*
X176380646Y-100289696D01*
X176323050Y-100176658D01*
X176323046Y-100176654D01*
X176323045Y-100176652D01*
X176233347Y-100086954D01*
X176233344Y-100086952D01*
X176233342Y-100086950D01*
X176156517Y-100047805D01*
X176120301Y-100029352D01*
X176026524Y-100014500D01*
X175413482Y-100014500D01*
X175332519Y-100027323D01*
X175319696Y-100029354D01*
X175206658Y-100086950D01*
X175206657Y-100086951D01*
X175206652Y-100086954D01*
X175116954Y-100176652D01*
X175116947Y-100176661D01*
X175095484Y-100218786D01*
X175047510Y-100269582D01*
X174979689Y-100286377D01*
X174913554Y-100263839D01*
X174874516Y-100218786D01*
X174853052Y-100176661D01*
X174853045Y-100176652D01*
X174763347Y-100086954D01*
X174763344Y-100086952D01*
X174763342Y-100086950D01*
X174686517Y-100047805D01*
X174650301Y-100029352D01*
X174556524Y-100014500D01*
X173943482Y-100014500D01*
X173862519Y-100027323D01*
X173849696Y-100029354D01*
X173736658Y-100086950D01*
X173736657Y-100086951D01*
X173728759Y-100092689D01*
X173727893Y-100091497D01*
X173675858Y-100119911D01*
X173606166Y-100114927D01*
X173550233Y-100073055D01*
X173525816Y-100007591D01*
X173525500Y-99998745D01*
X173525500Y-99927400D01*
X173525500Y-99927399D01*
X173493095Y-99806464D01*
X173430495Y-99698036D01*
X173341964Y-99609505D01*
X173233536Y-99546905D01*
X173233537Y-99546905D01*
X173193224Y-99536103D01*
X173112601Y-99514500D01*
X172987399Y-99514500D01*
X172906775Y-99536103D01*
X172866463Y-99546905D01*
X172758037Y-99609504D01*
X172758034Y-99609506D01*
X172669506Y-99698034D01*
X172669502Y-99698039D01*
X172632513Y-99762107D01*
X172581946Y-99810323D01*
X172513339Y-99823545D01*
X172500938Y-99821725D01*
X172489750Y-99819500D01*
X172489748Y-99819500D01*
X171850252Y-99819500D01*
X171850247Y-99819500D01*
X171791770Y-99831131D01*
X171791769Y-99831132D01*
X171725447Y-99875447D01*
X171681132Y-99941769D01*
X171681131Y-99941770D01*
X171669500Y-100000247D01*
X169877316Y-100000247D01*
X169872616Y-99991428D01*
X169870577Y-99986688D01*
X169869985Y-99981812D01*
X169862866Y-99961874D01*
X169858867Y-99941769D01*
X169858867Y-99941768D01*
X169857081Y-99937457D01*
X169849609Y-99867988D01*
X169857081Y-99842543D01*
X169858868Y-99838228D01*
X169870499Y-99779752D01*
X169870500Y-99779750D01*
X169870500Y-99679643D01*
X169871762Y-99661995D01*
X169875500Y-99635997D01*
X169875500Y-98733475D01*
X175044500Y-98733475D01*
X175044500Y-99196517D01*
X175055292Y-99264657D01*
X175059354Y-99290304D01*
X175116950Y-99403342D01*
X175116952Y-99403344D01*
X175116954Y-99403347D01*
X175206652Y-99493045D01*
X175206654Y-99493046D01*
X175206658Y-99493050D01*
X175312354Y-99546905D01*
X175319698Y-99550647D01*
X175413475Y-99565499D01*
X175413481Y-99565500D01*
X176026518Y-99565499D01*
X176120304Y-99550646D01*
X176233342Y-99493050D01*
X176323050Y-99403342D01*
X176380646Y-99290304D01*
X176380646Y-99290302D01*
X176380647Y-99290301D01*
X176395499Y-99196524D01*
X176395500Y-99196519D01*
X176395499Y-98733482D01*
X176380646Y-98639696D01*
X176323050Y-98526658D01*
X176323046Y-98526654D01*
X176323045Y-98526652D01*
X176233344Y-98436951D01*
X176226611Y-98432059D01*
X176183947Y-98376727D01*
X176175500Y-98331743D01*
X176175500Y-98237400D01*
X176175500Y-98237399D01*
X176143095Y-98116464D01*
X176080495Y-98008036D01*
X175991964Y-97919505D01*
X175883536Y-97856905D01*
X175883537Y-97856905D01*
X175843224Y-97846103D01*
X175762601Y-97824500D01*
X175637399Y-97824500D01*
X175556775Y-97846103D01*
X175516463Y-97856905D01*
X175408037Y-97919504D01*
X175408034Y-97919506D01*
X175319506Y-98008034D01*
X175319504Y-98008037D01*
X175256905Y-98116463D01*
X175224500Y-98237400D01*
X175224500Y-98367745D01*
X175204815Y-98434784D01*
X175188181Y-98455426D01*
X175116954Y-98526652D01*
X175116951Y-98526657D01*
X175059352Y-98639698D01*
X175044500Y-98733475D01*
X169875500Y-98733475D01*
X169875500Y-97984008D01*
X169875499Y-97983992D01*
X169870803Y-97940316D01*
X169866275Y-97919504D01*
X169859602Y-97888825D01*
X169859348Y-97887789D01*
X169857110Y-97878627D01*
X169814100Y-97797915D01*
X169768345Y-97745111D01*
X169768339Y-97745104D01*
X169750757Y-97727160D01*
X169750756Y-97727159D01*
X169750754Y-97727157D01*
X169750752Y-97727156D01*
X169750750Y-97727154D01*
X169670940Y-97682511D01*
X169670935Y-97682509D01*
X169603903Y-97662826D01*
X169603899Y-97662825D01*
X169603898Y-97662825D01*
X169546000Y-97654500D01*
X163049000Y-97654500D01*
X163048992Y-97654500D01*
X163005313Y-97659197D01*
X162953825Y-97670397D01*
X162943627Y-97672890D01*
X162943624Y-97672891D01*
X162862916Y-97715899D01*
X162862913Y-97715901D01*
X162810104Y-97761660D01*
X162792160Y-97779242D01*
X162792154Y-97779249D01*
X162747511Y-97859059D01*
X162747509Y-97859064D01*
X162727826Y-97926096D01*
X162727825Y-97926101D01*
X162727825Y-97926102D01*
X162719502Y-97983992D01*
X162719500Y-97984003D01*
X162719500Y-102086007D01*
X162724197Y-102129686D01*
X162735397Y-102181174D01*
X162737342Y-102189133D01*
X162737890Y-102191373D01*
X162780900Y-102272085D01*
X162792488Y-102285458D01*
X162826660Y-102324895D01*
X162844242Y-102342839D01*
X162844246Y-102342843D01*
X162844247Y-102342844D01*
X162844249Y-102342845D01*
X162893339Y-102370304D01*
X162924063Y-102387490D01*
X162991102Y-102407175D01*
X163049000Y-102415500D01*
X163049004Y-102415500D01*
X165095991Y-102415500D01*
X165096000Y-102415500D01*
X165139684Y-102410803D01*
X165168875Y-102404452D01*
X165191174Y-102399602D01*
X165191190Y-102399598D01*
X165191195Y-102399597D01*
X165201373Y-102397110D01*
X165282085Y-102354100D01*
X165334889Y-102308345D01*
X165352843Y-102290754D01*
X165397490Y-102210937D01*
X165417175Y-102143898D01*
X165425500Y-102086000D01*
X165425500Y-100089500D01*
X165445185Y-100022461D01*
X165497989Y-99976706D01*
X165549500Y-99965500D01*
X167521988Y-99965500D01*
X167589027Y-99985185D01*
X167634782Y-100037989D01*
X167644726Y-100107147D01*
X167630134Y-100150167D01*
X165565182Y-103831167D01*
X165515215Y-103880004D01*
X165457036Y-103894500D01*
X154023992Y-103894500D01*
X153980313Y-103899197D01*
X153928825Y-103910397D01*
X153918627Y-103912890D01*
X153918624Y-103912891D01*
X153837916Y-103955899D01*
X153837913Y-103955901D01*
X153785104Y-104001660D01*
X153767160Y-104019242D01*
X153767154Y-104019249D01*
X153722511Y-104099059D01*
X153722509Y-104099064D01*
X153702826Y-104166096D01*
X153702825Y-104166101D01*
X153702825Y-104166102D01*
X153694638Y-104223045D01*
X153694500Y-104224003D01*
X153043306Y-104224003D01*
X152994165Y-104198964D01*
X152975301Y-104189352D01*
X152881524Y-104174500D01*
X152418482Y-104174500D01*
X152337519Y-104187323D01*
X152324696Y-104189354D01*
X152211658Y-104246950D01*
X152211657Y-104246951D01*
X152211652Y-104246954D01*
X152121954Y-104336652D01*
X152121949Y-104336659D01*
X152097984Y-104383693D01*
X152050009Y-104434488D01*
X151982188Y-104451283D01*
X151916054Y-104428745D01*
X151877016Y-104383693D01*
X151867071Y-104364176D01*
X151853050Y-104336658D01*
X151853047Y-104336655D01*
X151853045Y-104336652D01*
X151763347Y-104246954D01*
X151763344Y-104246952D01*
X151763342Y-104246950D01*
X151673805Y-104201328D01*
X151623011Y-104153355D01*
X151606216Y-104085534D01*
X151627061Y-104024366D01*
X151626431Y-104024003D01*
X151628271Y-104020815D01*
X151628754Y-104019399D01*
X151630311Y-104017282D01*
X151631522Y-104015185D01*
X151693095Y-103908536D01*
X151725500Y-103787601D01*
X151725500Y-103662399D01*
X151693095Y-103541464D01*
X151630495Y-103433036D01*
X151541964Y-103344505D01*
X151433536Y-103281905D01*
X151433537Y-103281905D01*
X151393224Y-103271103D01*
X151312601Y-103249500D01*
X151187399Y-103249500D01*
X151106775Y-103271103D01*
X151066463Y-103281905D01*
X150958037Y-103344504D01*
X150958034Y-103344506D01*
X150869506Y-103433034D01*
X150869502Y-103433039D01*
X150831887Y-103498192D01*
X150781320Y-103546407D01*
X150732615Y-103555794D01*
X150735545Y-103559909D01*
X150746237Y-103566981D01*
X150755427Y-103587826D01*
X150768642Y-103606382D01*
X150770149Y-103621218D01*
X150774423Y-103630913D01*
X150772424Y-103643622D01*
X150773506Y-103654271D01*
X150774500Y-103654271D01*
X150774500Y-103662399D01*
X150774500Y-103787601D01*
X150806905Y-103908536D01*
X150860666Y-104001655D01*
X150873569Y-104024003D01*
X150871971Y-104024925D01*
X150893467Y-104080530D01*
X150879427Y-104148975D01*
X150830612Y-104198964D01*
X150826193Y-104201329D01*
X150736659Y-104246949D01*
X150736652Y-104246954D01*
X150646954Y-104336652D01*
X150646951Y-104336657D01*
X150646950Y-104336658D01*
X150631418Y-104367142D01*
X150589352Y-104449698D01*
X150574500Y-104543475D01*
X150100500Y-104543475D01*
X150100500Y-104305249D01*
X150100499Y-104305247D01*
X150088868Y-104246770D01*
X150088867Y-104246768D01*
X150065171Y-104211306D01*
X150044292Y-104144629D01*
X150062776Y-104077249D01*
X150080583Y-104054741D01*
X150474859Y-103660466D01*
X150474862Y-103660465D01*
X150535465Y-103599862D01*
X150550411Y-103573973D01*
X150558827Y-103564516D01*
X150578151Y-103552452D01*
X150594639Y-103536731D01*
X150607224Y-103534304D01*
X150618097Y-103527518D01*
X150640874Y-103527817D01*
X150643347Y-103527340D01*
X150607320Y-103476749D01*
X150600500Y-103436192D01*
X150600500Y-100963843D01*
X150600499Y-100963839D01*
X150599582Y-100960417D01*
X150583271Y-100899540D01*
X150583271Y-100899539D01*
X150583271Y-100899538D01*
X150578318Y-100881056D01*
X150578318Y-100881055D01*
X150549495Y-100831133D01*
X150535465Y-100806832D01*
X150163819Y-100435186D01*
X150130334Y-100373863D01*
X150127500Y-100347505D01*
X150127500Y-99474000D01*
X150147185Y-99406961D01*
X150199989Y-99361206D01*
X150251500Y-99350000D01*
X157657300Y-99350000D01*
X157669117Y-97163761D01*
X157689163Y-97096831D01*
X157691968Y-97092703D01*
X157696927Y-97085715D01*
X157699856Y-97078644D01*
X157715500Y-97000000D01*
X157715500Y-96200000D01*
X157715500Y-96199997D01*
X157699857Y-96121360D01*
X157699856Y-96121358D01*
X157699856Y-96121356D01*
X157696927Y-96114285D01*
X157694178Y-96109911D01*
X157675174Y-96043269D01*
X157677152Y-95677152D01*
X158000000Y-96000000D01*
X158000000Y-98225000D01*
X159100000Y-98225000D01*
X159075000Y-91925000D01*
X159075000Y-91026663D01*
X165795514Y-91026663D01*
X165843514Y-96978654D01*
X165848382Y-97021486D01*
X165848384Y-97021498D01*
X165859586Y-97072013D01*
X165861892Y-97081369D01*
X165861894Y-97081374D01*
X165904903Y-97162083D01*
X165904905Y-97162086D01*
X165950664Y-97214895D01*
X165968246Y-97232839D01*
X165968250Y-97232843D01*
X165968251Y-97232844D01*
X165968253Y-97232845D01*
X166048063Y-97277488D01*
X166048067Y-97277490D01*
X166115106Y-97297175D01*
X166173004Y-97305500D01*
X168413616Y-97305500D01*
X168433015Y-97307027D01*
X168486508Y-97315500D01*
X168486512Y-97315500D01*
X169003492Y-97315500D01*
X169056985Y-97307027D01*
X169072681Y-97305791D01*
X169072675Y-97305678D01*
X169075988Y-97305500D01*
X169076000Y-97305500D01*
X169119684Y-97300803D01*
X169148875Y-97294452D01*
X169171174Y-97289602D01*
X169171190Y-97289598D01*
X169171195Y-97289597D01*
X169181373Y-97287110D01*
X169262085Y-97244100D01*
X169314889Y-97198345D01*
X169332843Y-97180754D01*
X169377490Y-97100937D01*
X169397175Y-97033898D01*
X169405500Y-96976000D01*
X169405500Y-93100456D01*
X169425185Y-93033417D01*
X169448289Y-93006751D01*
X169452533Y-93003073D01*
X169819289Y-92685217D01*
X169882842Y-92656187D01*
X169952001Y-92666124D01*
X170004809Y-92711874D01*
X170024500Y-92778912D01*
X170024500Y-92870919D01*
X170004815Y-92937958D01*
X169956796Y-92981403D01*
X169906659Y-93006949D01*
X169906652Y-93006954D01*
X169816954Y-93096652D01*
X169816951Y-93096657D01*
X169759352Y-93209698D01*
X169744500Y-93303475D01*
X169744500Y-93916517D01*
X169747196Y-93933536D01*
X169759354Y-94010304D01*
X169816950Y-94123342D01*
X169816952Y-94123344D01*
X169816954Y-94123347D01*
X169906652Y-94213045D01*
X169906654Y-94213046D01*
X169906658Y-94213050D01*
X170019694Y-94270645D01*
X170019698Y-94270647D01*
X170113475Y-94285499D01*
X170113481Y-94285500D01*
X170576518Y-94285499D01*
X170670304Y-94270646D01*
X170783342Y-94213050D01*
X170873050Y-94123342D01*
X170930646Y-94010304D01*
X170930646Y-94010302D01*
X170930647Y-94010301D01*
X170945499Y-93916524D01*
X170945500Y-93916519D01*
X170945499Y-93303482D01*
X170930646Y-93209696D01*
X170873050Y-93096658D01*
X170873046Y-93096654D01*
X170873045Y-93096652D01*
X170783347Y-93006954D01*
X170783344Y-93006952D01*
X170783342Y-93006950D01*
X170693204Y-92961022D01*
X170642409Y-92913048D01*
X170625500Y-92850538D01*
X170625500Y-92403924D01*
X170632344Y-92369516D01*
X170632133Y-92369474D01*
X170650499Y-92277137D01*
X170650500Y-92277133D01*
X170650499Y-90922868D01*
X170634515Y-90842505D01*
X170612593Y-90809696D01*
X170573624Y-90751375D01*
X170513196Y-90710999D01*
X170482495Y-90690485D01*
X170482493Y-90690484D01*
X170482490Y-90690483D01*
X170402135Y-90674500D01*
X170197870Y-90674500D01*
X170137867Y-90686434D01*
X170117505Y-90690485D01*
X170117504Y-90690485D01*
X170117501Y-90690486D01*
X170106220Y-90695159D01*
X170105621Y-90693714D01*
X170052204Y-90710436D01*
X169994061Y-90694481D01*
X169993781Y-90695159D01*
X169988383Y-90692923D01*
X169984825Y-90691947D01*
X169982648Y-90690547D01*
X169982494Y-90690484D01*
X169902135Y-90674500D01*
X169697870Y-90674500D01*
X169655212Y-90682984D01*
X169617505Y-90690485D01*
X169617503Y-90690485D01*
X169609298Y-90692118D01*
X169585108Y-90694500D01*
X169514893Y-90694500D01*
X169490702Y-90692117D01*
X169402135Y-90674500D01*
X169197870Y-90674500D01*
X169155212Y-90682984D01*
X169117505Y-90690485D01*
X169117503Y-90690485D01*
X169109298Y-90692118D01*
X169085108Y-90694500D01*
X169014893Y-90694500D01*
X168990702Y-90692117D01*
X168902135Y-90674500D01*
X168697870Y-90674500D01*
X168655212Y-90682984D01*
X168617505Y-90690485D01*
X168617503Y-90690485D01*
X168609298Y-90692118D01*
X168585108Y-90694500D01*
X166125001Y-90694500D01*
X166080508Y-90699374D01*
X166028078Y-90711001D01*
X166017133Y-90713747D01*
X166017129Y-90713749D01*
X165936761Y-90757409D01*
X165884344Y-90803573D01*
X165884339Y-90803577D01*
X165866516Y-90821324D01*
X165822514Y-90901501D01*
X165803371Y-90968696D01*
X165795514Y-91026663D01*
X159075000Y-91026663D01*
X159075000Y-88293475D01*
X173174500Y-88293475D01*
X173174500Y-88756517D01*
X173178339Y-88780754D01*
X173189354Y-88850304D01*
X173246950Y-88963342D01*
X173246952Y-88963344D01*
X173246954Y-88963347D01*
X173336652Y-89053045D01*
X173336654Y-89053046D01*
X173336658Y-89053050D01*
X173449694Y-89110645D01*
X173449698Y-89110647D01*
X173543475Y-89125499D01*
X173543481Y-89125500D01*
X174156518Y-89125499D01*
X174250304Y-89110646D01*
X174363342Y-89053050D01*
X174390892Y-89025500D01*
X174459951Y-88956442D01*
X174461874Y-88958365D01*
X174505344Y-88924832D01*
X174574956Y-88918840D01*
X174612351Y-88932986D01*
X174716464Y-88993095D01*
X174837399Y-89025500D01*
X174837401Y-89025500D01*
X174962599Y-89025500D01*
X174962601Y-89025500D01*
X175083536Y-88993095D01*
X175191964Y-88930495D01*
X175280495Y-88841964D01*
X175343095Y-88733536D01*
X175375500Y-88612601D01*
X175375500Y-88487399D01*
X175343095Y-88366464D01*
X175280495Y-88258036D01*
X175191964Y-88169505D01*
X175083536Y-88106905D01*
X175083537Y-88106905D01*
X175043224Y-88096103D01*
X174962601Y-88074500D01*
X174837399Y-88074500D01*
X174756775Y-88096103D01*
X174716463Y-88106905D01*
X174634058Y-88154481D01*
X174566157Y-88170952D01*
X174500131Y-88148100D01*
X174461575Y-88103389D01*
X174458408Y-88097173D01*
X174453050Y-88086658D01*
X174453047Y-88086655D01*
X174453045Y-88086652D01*
X174363347Y-87996954D01*
X174363344Y-87996952D01*
X174363342Y-87996950D01*
X174286517Y-87957805D01*
X174250301Y-87939352D01*
X174156524Y-87924500D01*
X173543482Y-87924500D01*
X173462519Y-87937323D01*
X173449696Y-87939354D01*
X173336658Y-87996950D01*
X173336657Y-87996951D01*
X173336652Y-87996954D01*
X173246954Y-88086652D01*
X173246951Y-88086657D01*
X173246950Y-88086658D01*
X173236634Y-88106905D01*
X173189352Y-88199698D01*
X173174500Y-88293475D01*
X159075000Y-88293475D01*
X159075000Y-86225000D01*
X157728246Y-86225000D01*
X157728496Y-86178830D01*
X157748542Y-86111898D01*
X157801593Y-86066429D01*
X157852494Y-86055500D01*
X158175991Y-86055500D01*
X158176000Y-86055500D01*
X158219684Y-86050803D01*
X158248875Y-86044452D01*
X158271174Y-86039602D01*
X158271190Y-86039598D01*
X158271195Y-86039597D01*
X158281373Y-86037110D01*
X158362085Y-85994100D01*
X158414889Y-85948345D01*
X158432843Y-85930754D01*
X158477490Y-85850937D01*
X158497175Y-85783898D01*
X158505500Y-85726000D01*
X158505500Y-84774000D01*
X158500803Y-84730316D01*
X158492179Y-84690674D01*
X158489602Y-84678825D01*
X158489348Y-84677789D01*
X158487110Y-84668627D01*
X158444100Y-84587915D01*
X158398345Y-84535111D01*
X158398339Y-84535104D01*
X158380756Y-84517159D01*
X158380755Y-84517158D01*
X158380754Y-84517157D01*
X158360049Y-84505575D01*
X158300940Y-84472511D01*
X158300935Y-84472509D01*
X158233903Y-84452826D01*
X158233899Y-84452825D01*
X158233898Y-84452825D01*
X158176000Y-84444500D01*
X157862542Y-84444500D01*
X157795503Y-84424815D01*
X157794799Y-84424003D01*
X163844500Y-84424003D01*
X163844500Y-87776007D01*
X163849197Y-87819686D01*
X163860397Y-87871174D01*
X163862890Y-87881372D01*
X163862891Y-87881375D01*
X163905899Y-87962083D01*
X163905901Y-87962086D01*
X163951660Y-88014895D01*
X163969242Y-88032839D01*
X163969246Y-88032843D01*
X163969247Y-88032844D01*
X163969249Y-88032845D01*
X164049059Y-88077488D01*
X164049063Y-88077490D01*
X164116102Y-88097175D01*
X164174000Y-88105500D01*
X168431889Y-88105500D01*
X168498928Y-88125185D01*
X168519567Y-88141816D01*
X168526373Y-88148622D01*
X168617505Y-88209515D01*
X168617509Y-88209516D01*
X168644533Y-88214891D01*
X168697867Y-88225500D01*
X168902132Y-88225499D01*
X168982495Y-88209515D01*
X168982498Y-88209512D01*
X168993778Y-88204841D01*
X168994376Y-88206286D01*
X169047782Y-88189563D01*
X169105943Y-88205516D01*
X169106223Y-88204842D01*
X169111590Y-88207065D01*
X169115162Y-88208045D01*
X169117351Y-88209451D01*
X169117506Y-88209516D01*
X169170957Y-88220147D01*
X169197867Y-88225500D01*
X169402132Y-88225499D01*
X169482495Y-88209515D01*
X169573624Y-88148624D01*
X169634515Y-88057495D01*
X169650500Y-87977133D01*
X169650499Y-87816173D01*
X169651762Y-87798520D01*
X169655001Y-87776000D01*
X169655000Y-86824000D01*
X169651210Y-86788751D01*
X169650499Y-86775495D01*
X169650499Y-86622870D01*
X169650499Y-86622868D01*
X169634515Y-86542505D01*
X169589286Y-86474815D01*
X169573624Y-86451375D01*
X169518995Y-86414874D01*
X169482495Y-86390485D01*
X169482493Y-86390484D01*
X169482490Y-86390483D01*
X169402135Y-86374500D01*
X169197870Y-86374500D01*
X169137867Y-86386434D01*
X169117505Y-86390485D01*
X169117504Y-86390485D01*
X169117501Y-86390486D01*
X169106220Y-86395159D01*
X169105621Y-86393714D01*
X169052204Y-86410436D01*
X168994061Y-86394481D01*
X168993781Y-86395159D01*
X168988383Y-86392923D01*
X168984825Y-86391947D01*
X168982648Y-86390547D01*
X168982494Y-86390484D01*
X168902135Y-86374500D01*
X168697870Y-86374500D01*
X168617504Y-86390485D01*
X168526373Y-86451377D01*
X168519567Y-86458184D01*
X168458243Y-86491667D01*
X168431889Y-86494500D01*
X166579500Y-86494500D01*
X166512461Y-86474815D01*
X166466706Y-86422011D01*
X166455500Y-86370500D01*
X166455500Y-84530247D01*
X169049500Y-84530247D01*
X169049500Y-85869752D01*
X169061131Y-85928229D01*
X169061132Y-85928230D01*
X169105447Y-85994552D01*
X169171769Y-86038867D01*
X169171770Y-86038868D01*
X169230247Y-86050499D01*
X169230250Y-86050500D01*
X169230252Y-86050500D01*
X169875500Y-86050500D01*
X169942539Y-86070185D01*
X169988294Y-86122989D01*
X169999500Y-86174500D01*
X169999500Y-86453983D01*
X169979815Y-86521022D01*
X169978603Y-86522873D01*
X169965484Y-86542507D01*
X169965483Y-86542507D01*
X169949500Y-86622862D01*
X169949500Y-87977129D01*
X169965485Y-88057495D01*
X170026375Y-88148624D01*
X170057625Y-88169504D01*
X170117505Y-88209515D01*
X170117508Y-88209515D01*
X170117509Y-88209516D01*
X170144533Y-88214891D01*
X170197867Y-88225500D01*
X170402132Y-88225499D01*
X170482495Y-88209515D01*
X170482498Y-88209512D01*
X170493778Y-88204841D01*
X170494376Y-88206286D01*
X170547782Y-88189563D01*
X170605943Y-88205516D01*
X170606223Y-88204842D01*
X170611590Y-88207065D01*
X170615162Y-88208045D01*
X170617351Y-88209451D01*
X170617506Y-88209516D01*
X170670957Y-88220147D01*
X170697867Y-88225500D01*
X170902132Y-88225499D01*
X170982495Y-88209515D01*
X171073624Y-88148624D01*
X171134515Y-88057495D01*
X171150500Y-87977133D01*
X171150500Y-87724500D01*
X171170185Y-87657461D01*
X171222989Y-87611706D01*
X171274500Y-87600500D01*
X171614560Y-87600500D01*
X171614562Y-87600500D01*
X171690989Y-87580021D01*
X171759511Y-87540460D01*
X171812876Y-87487095D01*
X171874199Y-87453610D01*
X171940193Y-87458329D01*
X171940420Y-87457632D01*
X171943236Y-87458547D01*
X171943891Y-87458594D01*
X171945337Y-87459230D01*
X171949694Y-87460645D01*
X171949696Y-87460646D01*
X172043481Y-87475500D01*
X172656518Y-87475499D01*
X172750304Y-87460646D01*
X172863342Y-87403050D01*
X172953050Y-87313342D01*
X172988787Y-87243203D01*
X172999235Y-87232140D01*
X173005558Y-87218297D01*
X173022738Y-87207255D01*
X173036761Y-87192409D01*
X173052440Y-87188167D01*
X173064336Y-87180523D01*
X173099271Y-87175500D01*
X173100728Y-87175500D01*
X173167767Y-87195185D01*
X173211212Y-87243204D01*
X173246949Y-87313340D01*
X173246954Y-87313347D01*
X173336652Y-87403045D01*
X173336654Y-87403046D01*
X173336658Y-87403050D01*
X173445669Y-87458594D01*
X173449698Y-87460647D01*
X173543475Y-87475499D01*
X173543481Y-87475500D01*
X174156518Y-87475499D01*
X174250304Y-87460646D01*
X174363342Y-87403050D01*
X174453050Y-87313342D01*
X174510646Y-87200304D01*
X174510646Y-87200302D01*
X174510647Y-87200301D01*
X174525499Y-87106524D01*
X174525500Y-87106519D01*
X174525499Y-86643482D01*
X174510646Y-86549696D01*
X174453050Y-86436658D01*
X174453046Y-86436654D01*
X174453045Y-86436652D01*
X174363347Y-86346954D01*
X174363344Y-86346952D01*
X174363342Y-86346950D01*
X174275145Y-86302011D01*
X174250301Y-86289352D01*
X174156524Y-86274500D01*
X173543482Y-86274500D01*
X173462519Y-86287323D01*
X173449696Y-86289354D01*
X173336658Y-86346950D01*
X173336657Y-86346951D01*
X173336652Y-86346954D01*
X173246954Y-86436652D01*
X173246951Y-86436657D01*
X173246950Y-86436658D01*
X173211212Y-86506796D01*
X173200764Y-86517859D01*
X173194442Y-86531703D01*
X173177261Y-86542744D01*
X173163239Y-86557591D01*
X173147559Y-86561832D01*
X173135664Y-86569477D01*
X173100729Y-86574500D01*
X173099272Y-86574500D01*
X173032233Y-86554815D01*
X172988788Y-86506796D01*
X172964018Y-86458184D01*
X172953050Y-86436658D01*
X172953047Y-86436655D01*
X172953045Y-86436652D01*
X172863347Y-86346954D01*
X172863344Y-86346952D01*
X172863342Y-86346950D01*
X172775145Y-86302011D01*
X172750301Y-86289352D01*
X172656524Y-86274500D01*
X172440174Y-86274500D01*
X172373135Y-86254815D01*
X172327380Y-86202011D01*
X172317436Y-86132853D01*
X172346461Y-86069297D01*
X172356539Y-86060048D01*
X172356442Y-86059951D01*
X172453045Y-85963347D01*
X172453050Y-85963342D01*
X172510646Y-85850304D01*
X172510646Y-85850302D01*
X172510647Y-85850301D01*
X172525499Y-85756524D01*
X172525500Y-85756519D01*
X172525499Y-85143482D01*
X172510646Y-85049696D01*
X172453050Y-84936658D01*
X172453046Y-84936654D01*
X172453045Y-84936652D01*
X172363347Y-84846954D01*
X172363344Y-84846952D01*
X172363342Y-84846950D01*
X172286517Y-84807805D01*
X172250301Y-84789352D01*
X172156524Y-84774500D01*
X171693482Y-84774500D01*
X171615355Y-84786874D01*
X171599696Y-84789354D01*
X171486658Y-84846950D01*
X171486657Y-84846951D01*
X171486652Y-84846954D01*
X171470426Y-84863181D01*
X171443498Y-84877884D01*
X171417680Y-84894477D01*
X171411479Y-84895368D01*
X171409103Y-84896666D01*
X171382745Y-84899500D01*
X171274500Y-84899500D01*
X171207461Y-84879815D01*
X171161706Y-84827011D01*
X171150500Y-84775500D01*
X171150500Y-84530249D01*
X171150499Y-84530247D01*
X171138868Y-84471770D01*
X171138867Y-84471769D01*
X171094552Y-84405447D01*
X171028230Y-84361132D01*
X171028229Y-84361131D01*
X170969752Y-84349500D01*
X170969748Y-84349500D01*
X169230252Y-84349500D01*
X169230247Y-84349500D01*
X169171770Y-84361131D01*
X169171769Y-84361132D01*
X169105447Y-84405447D01*
X169061132Y-84471769D01*
X169061131Y-84471770D01*
X169049500Y-84530247D01*
X166455500Y-84530247D01*
X166455500Y-84424008D01*
X166455499Y-84423992D01*
X166451054Y-84382652D01*
X166450803Y-84380316D01*
X166444099Y-84349500D01*
X166439602Y-84328825D01*
X166439348Y-84327789D01*
X166437110Y-84318627D01*
X166394100Y-84237915D01*
X166348345Y-84185111D01*
X166348339Y-84185104D01*
X166330757Y-84167160D01*
X166330756Y-84167159D01*
X166330754Y-84167157D01*
X166330752Y-84167156D01*
X166330750Y-84167154D01*
X166250940Y-84122511D01*
X166250935Y-84122509D01*
X166183903Y-84102826D01*
X166183899Y-84102825D01*
X166183898Y-84102825D01*
X166126000Y-84094500D01*
X164174000Y-84094500D01*
X164173992Y-84094500D01*
X164130313Y-84099197D01*
X164078825Y-84110397D01*
X164068627Y-84112890D01*
X164068624Y-84112891D01*
X163987916Y-84155899D01*
X163987913Y-84155901D01*
X163935104Y-84201660D01*
X163917160Y-84219242D01*
X163917154Y-84219249D01*
X163872511Y-84299059D01*
X163872509Y-84299064D01*
X163852826Y-84366096D01*
X163852825Y-84366101D01*
X163852825Y-84366102D01*
X163844502Y-84423992D01*
X163844500Y-84424003D01*
X157794799Y-84424003D01*
X157749748Y-84372011D01*
X157738544Y-84319830D01*
X157749940Y-82211508D01*
X157843992Y-64811698D01*
X157864037Y-64744772D01*
X157917088Y-64699303D01*
X157968482Y-64688375D01*
X173447382Y-64750291D01*
X173455347Y-64750324D01*
X173455830Y-64750500D01*
X173497053Y-64750500D01*
X173497291Y-64750501D01*
X173497337Y-64750514D01*
X173503260Y-64750670D01*
X173833178Y-64767961D01*
X173846086Y-64769318D01*
X174169191Y-64820492D01*
X174181874Y-64823187D01*
X174497881Y-64907861D01*
X174510219Y-64911871D01*
X174815627Y-65029106D01*
X174827470Y-65034378D01*
X175118977Y-65182908D01*
X175130183Y-65189378D01*
X175404565Y-65367564D01*
X175415055Y-65375186D01*
X175669293Y-65581064D01*
X175678938Y-65589749D01*
X175910250Y-65821061D01*
X175918935Y-65830706D01*
X176124813Y-66084944D01*
X176132438Y-66095438D01*
X176310617Y-66369810D01*
X176317098Y-66381035D01*
X176465616Y-66672519D01*
X176470895Y-66684377D01*
X176588128Y-66989781D01*
X176592139Y-67002124D01*
X176676810Y-67318119D01*
X176679508Y-67330815D01*
X176730681Y-67653913D01*
X176732038Y-67666821D01*
X176749330Y-67996756D01*
X176749500Y-68003246D01*
X176749500Y-111496753D01*
X176749330Y-111503243D01*
X176732038Y-111833178D01*
X176730681Y-111846086D01*
X176679508Y-112169184D01*
X176676810Y-112181880D01*
X176592139Y-112497875D01*
X176588128Y-112510218D01*
X176470895Y-112815622D01*
X176465616Y-112827480D01*
X176317098Y-113118964D01*
X176310612Y-113130197D01*
X176202839Y-113296153D01*
X176132442Y-113404555D01*
X176124813Y-113415055D01*
X175918935Y-113669293D01*
X175910250Y-113678938D01*
X175678938Y-113910250D01*
X175669293Y-113918935D01*
X175415055Y-114124813D01*
X175404555Y-114132442D01*
X175385621Y-114144738D01*
X175130197Y-114310612D01*
X175118964Y-114317098D01*
X174827480Y-114465616D01*
X174815622Y-114470895D01*
X174510218Y-114588128D01*
X174497875Y-114592139D01*
X174181880Y-114676810D01*
X174169184Y-114679508D01*
X173846086Y-114730681D01*
X173833178Y-114732038D01*
X173503244Y-114749330D01*
X173496754Y-114749500D01*
X123503246Y-114749500D01*
X123496756Y-114749330D01*
X123166821Y-114732038D01*
X123153913Y-114730681D01*
X122830815Y-114679508D01*
X122818119Y-114676810D01*
X122502124Y-114592139D01*
X122489781Y-114588128D01*
X122184377Y-114470895D01*
X122172519Y-114465616D01*
X121881029Y-114317094D01*
X121869810Y-114310617D01*
X121595438Y-114132438D01*
X121584944Y-114124813D01*
X121330706Y-113918935D01*
X121321061Y-113910250D01*
X121089749Y-113678938D01*
X121081064Y-113669293D01*
X120875186Y-113415055D01*
X120867564Y-113404565D01*
X120797160Y-113296153D01*
X138699500Y-113296153D01*
X138699500Y-113453846D01*
X138730261Y-113608489D01*
X138730264Y-113608501D01*
X138790602Y-113754172D01*
X138790609Y-113754185D01*
X138878210Y-113885288D01*
X138878213Y-113885292D01*
X138989707Y-113996786D01*
X138989711Y-113996789D01*
X139120814Y-114084390D01*
X139120827Y-114084397D01*
X139228271Y-114128901D01*
X139266503Y-114144737D01*
X139421153Y-114175499D01*
X139421156Y-114175500D01*
X139421158Y-114175500D01*
X139578844Y-114175500D01*
X139578845Y-114175499D01*
X139733497Y-114144737D01*
X139879179Y-114084394D01*
X140010289Y-113996789D01*
X140121789Y-113885289D01*
X140209394Y-113754179D01*
X140269737Y-113608497D01*
X140300500Y-113453842D01*
X140300500Y-113296158D01*
X140300500Y-113296155D01*
X140300499Y-113296153D01*
X140298271Y-113284951D01*
X140269737Y-113141503D01*
X140269735Y-113141498D01*
X140209397Y-112995827D01*
X140209390Y-112995814D01*
X140121789Y-112864711D01*
X140121786Y-112864707D01*
X140010292Y-112753213D01*
X140010288Y-112753210D01*
X139879185Y-112665609D01*
X139879172Y-112665602D01*
X139733501Y-112605264D01*
X139733489Y-112605261D01*
X139578845Y-112574500D01*
X139578842Y-112574500D01*
X139421158Y-112574500D01*
X139421155Y-112574500D01*
X139266510Y-112605261D01*
X139266498Y-112605264D01*
X139120827Y-112665602D01*
X139120814Y-112665609D01*
X138989711Y-112753210D01*
X138989707Y-112753213D01*
X138878213Y-112864707D01*
X138878210Y-112864711D01*
X138790609Y-112995814D01*
X138790602Y-112995827D01*
X138730264Y-113141498D01*
X138730261Y-113141510D01*
X138699500Y-113296153D01*
X120797160Y-113296153D01*
X120689383Y-113130191D01*
X120682908Y-113118977D01*
X120534378Y-112827470D01*
X120529104Y-112815622D01*
X120509683Y-112765029D01*
X120411871Y-112510218D01*
X120407860Y-112497875D01*
X120403273Y-112480757D01*
X120323187Y-112181874D01*
X120320491Y-112169184D01*
X120309588Y-112100346D01*
X120269318Y-111846086D01*
X120267961Y-111833178D01*
X120250670Y-111503243D01*
X120250500Y-111496753D01*
X120250500Y-111146530D01*
X142549500Y-111146530D01*
X142549500Y-111603469D01*
X142589868Y-111806412D01*
X142589870Y-111806420D01*
X142669058Y-111997596D01*
X142784024Y-112169657D01*
X142930342Y-112315975D01*
X142930345Y-112315977D01*
X143102402Y-112430941D01*
X143293580Y-112510130D01*
X143464350Y-112544098D01*
X143496530Y-112550499D01*
X143496534Y-112550500D01*
X143496535Y-112550500D01*
X143703466Y-112550500D01*
X143703467Y-112550499D01*
X143906420Y-112510130D01*
X144097598Y-112430941D01*
X144269655Y-112315977D01*
X144415977Y-112169655D01*
X144530941Y-111997598D01*
X144610130Y-111806420D01*
X144650500Y-111603465D01*
X144650500Y-111146535D01*
X144650499Y-111146530D01*
X145049500Y-111146530D01*
X145049500Y-111603469D01*
X145089868Y-111806412D01*
X145089870Y-111806420D01*
X145169058Y-111997596D01*
X145284024Y-112169657D01*
X145430342Y-112315975D01*
X145430345Y-112315977D01*
X145602402Y-112430941D01*
X145793580Y-112510130D01*
X145964350Y-112544098D01*
X145996530Y-112550499D01*
X145996534Y-112550500D01*
X145996535Y-112550500D01*
X146203466Y-112550500D01*
X146203467Y-112550499D01*
X146406420Y-112510130D01*
X146597598Y-112430941D01*
X146769655Y-112315977D01*
X146915977Y-112169655D01*
X147030941Y-111997598D01*
X147110130Y-111806420D01*
X147150500Y-111603465D01*
X147150500Y-111146535D01*
X147150499Y-111146530D01*
X147549500Y-111146530D01*
X147549500Y-111603469D01*
X147589868Y-111806412D01*
X147589870Y-111806420D01*
X147669058Y-111997596D01*
X147784024Y-112169657D01*
X147930342Y-112315975D01*
X147930345Y-112315977D01*
X148102402Y-112430941D01*
X148293580Y-112510130D01*
X148464350Y-112544098D01*
X148496530Y-112550499D01*
X148496534Y-112550500D01*
X148496535Y-112550500D01*
X148703466Y-112550500D01*
X148703467Y-112550499D01*
X148906420Y-112510130D01*
X149097598Y-112430941D01*
X149269655Y-112315977D01*
X149415977Y-112169655D01*
X149530941Y-111997598D01*
X149610130Y-111806420D01*
X149650500Y-111603465D01*
X149650500Y-111146535D01*
X149650499Y-111146530D01*
X150049500Y-111146530D01*
X150049500Y-111603469D01*
X150089868Y-111806412D01*
X150089870Y-111806420D01*
X150169058Y-111997596D01*
X150284024Y-112169657D01*
X150430342Y-112315975D01*
X150430345Y-112315977D01*
X150602402Y-112430941D01*
X150793580Y-112510130D01*
X150964350Y-112544098D01*
X150996530Y-112550499D01*
X150996534Y-112550500D01*
X150996535Y-112550500D01*
X151203466Y-112550500D01*
X151203467Y-112550499D01*
X151406420Y-112510130D01*
X151597598Y-112430941D01*
X151769655Y-112315977D01*
X151915977Y-112169655D01*
X152030941Y-111997598D01*
X152110130Y-111806420D01*
X152150500Y-111603465D01*
X152150500Y-111146535D01*
X152110130Y-110943580D01*
X152030941Y-110752402D01*
X151915977Y-110580345D01*
X151915975Y-110580342D01*
X151769657Y-110434024D01*
X151683626Y-110376541D01*
X151597598Y-110319059D01*
X151597593Y-110319057D01*
X151406420Y-110239870D01*
X151406412Y-110239868D01*
X151203469Y-110199500D01*
X151203465Y-110199500D01*
X150996535Y-110199500D01*
X150996530Y-110199500D01*
X150793587Y-110239868D01*
X150793579Y-110239870D01*
X150602403Y-110319058D01*
X150430342Y-110434024D01*
X150284024Y-110580342D01*
X150169058Y-110752403D01*
X150089870Y-110943579D01*
X150089868Y-110943587D01*
X150049500Y-111146530D01*
X149650499Y-111146530D01*
X149610130Y-110943580D01*
X149530941Y-110752402D01*
X149415977Y-110580345D01*
X149415975Y-110580342D01*
X149269657Y-110434024D01*
X149183626Y-110376541D01*
X149097598Y-110319059D01*
X149097593Y-110319057D01*
X148906420Y-110239870D01*
X148906412Y-110239868D01*
X148703469Y-110199500D01*
X148703465Y-110199500D01*
X148496535Y-110199500D01*
X148496530Y-110199500D01*
X148293587Y-110239868D01*
X148293579Y-110239870D01*
X148102403Y-110319058D01*
X147930342Y-110434024D01*
X147784024Y-110580342D01*
X147669058Y-110752403D01*
X147589870Y-110943579D01*
X147589868Y-110943587D01*
X147549500Y-111146530D01*
X147150499Y-111146530D01*
X147110130Y-110943580D01*
X147030941Y-110752402D01*
X146915977Y-110580345D01*
X146915975Y-110580342D01*
X146769657Y-110434024D01*
X146683626Y-110376541D01*
X146597598Y-110319059D01*
X146597593Y-110319057D01*
X146406420Y-110239870D01*
X146406412Y-110239868D01*
X146203469Y-110199500D01*
X146203465Y-110199500D01*
X145996535Y-110199500D01*
X145996530Y-110199500D01*
X145793587Y-110239868D01*
X145793579Y-110239870D01*
X145602403Y-110319058D01*
X145430342Y-110434024D01*
X145284024Y-110580342D01*
X145169058Y-110752403D01*
X145089870Y-110943579D01*
X145089868Y-110943587D01*
X145049500Y-111146530D01*
X144650499Y-111146530D01*
X144610130Y-110943580D01*
X144530941Y-110752402D01*
X144415977Y-110580345D01*
X144415975Y-110580342D01*
X144269657Y-110434024D01*
X144183626Y-110376541D01*
X144097598Y-110319059D01*
X144097593Y-110319057D01*
X143906420Y-110239870D01*
X143906412Y-110239868D01*
X143703469Y-110199500D01*
X143703465Y-110199500D01*
X143496535Y-110199500D01*
X143496530Y-110199500D01*
X143293587Y-110239868D01*
X143293579Y-110239870D01*
X143102403Y-110319058D01*
X142930342Y-110434024D01*
X142784024Y-110580342D01*
X142669058Y-110752403D01*
X142589870Y-110943579D01*
X142589868Y-110943587D01*
X142549500Y-111146530D01*
X120250500Y-111146530D01*
X120250500Y-106005247D01*
X146899500Y-106005247D01*
X146899500Y-106944752D01*
X146911131Y-107003229D01*
X146911132Y-107003230D01*
X146955447Y-107069552D01*
X147021769Y-107113867D01*
X147021770Y-107113868D01*
X147080247Y-107125499D01*
X147080250Y-107125500D01*
X147080252Y-107125500D01*
X147519750Y-107125500D01*
X147519751Y-107125499D01*
X147534568Y-107122552D01*
X147578229Y-107113868D01*
X147578231Y-107113867D01*
X147631108Y-107078535D01*
X147697785Y-107057656D01*
X147765165Y-107076140D01*
X147768892Y-107078535D01*
X147821768Y-107113867D01*
X147821770Y-107113868D01*
X147880247Y-107125499D01*
X147880250Y-107125500D01*
X147880252Y-107125500D01*
X148319750Y-107125500D01*
X148319751Y-107125499D01*
X148334568Y-107122552D01*
X148378229Y-107113868D01*
X148378231Y-107113867D01*
X148431108Y-107078535D01*
X148497785Y-107057656D01*
X148565165Y-107076140D01*
X148568892Y-107078535D01*
X148621768Y-107113867D01*
X148621770Y-107113868D01*
X148680247Y-107125499D01*
X148680250Y-107125500D01*
X148680252Y-107125500D01*
X149119750Y-107125500D01*
X149119751Y-107125499D01*
X149134568Y-107122552D01*
X149178229Y-107113868D01*
X149178231Y-107113867D01*
X149231108Y-107078535D01*
X149297785Y-107057656D01*
X149365165Y-107076140D01*
X149368892Y-107078535D01*
X149421768Y-107113867D01*
X149421770Y-107113868D01*
X149480247Y-107125499D01*
X149480250Y-107125500D01*
X149480252Y-107125500D01*
X149919750Y-107125500D01*
X149919751Y-107125499D01*
X149934568Y-107122552D01*
X149978229Y-107113868D01*
X149978229Y-107113867D01*
X149978231Y-107113867D01*
X150044552Y-107069552D01*
X150088867Y-107003231D01*
X150088867Y-107003229D01*
X150088868Y-107003229D01*
X150100499Y-106944752D01*
X150100500Y-106944750D01*
X150100500Y-106193475D01*
X150574500Y-106193475D01*
X150574500Y-106656517D01*
X150585292Y-106724657D01*
X150589354Y-106750304D01*
X150646950Y-106863342D01*
X150646952Y-106863344D01*
X150646954Y-106863347D01*
X150736652Y-106953045D01*
X150736656Y-106953048D01*
X150736658Y-106953050D01*
X150849696Y-107010646D01*
X150849699Y-107010646D01*
X150856795Y-107014262D01*
X150907591Y-107062236D01*
X150924500Y-107124747D01*
X150924500Y-107142853D01*
X150935591Y-107184246D01*
X150946682Y-107225640D01*
X150968108Y-107262750D01*
X150989535Y-107299862D01*
X150989537Y-107299864D01*
X153238181Y-109548508D01*
X153271666Y-109609831D01*
X153274500Y-109636189D01*
X153274500Y-110164919D01*
X153254815Y-110231958D01*
X153202011Y-110277713D01*
X153197953Y-110279480D01*
X153102403Y-110319057D01*
X152930342Y-110434024D01*
X152784024Y-110580342D01*
X152669058Y-110752403D01*
X152589870Y-110943579D01*
X152589868Y-110943587D01*
X152549500Y-111146530D01*
X152549500Y-111603469D01*
X152589868Y-111806412D01*
X152589870Y-111806420D01*
X152669058Y-111997596D01*
X152784024Y-112169657D01*
X152930342Y-112315975D01*
X152930345Y-112315977D01*
X153102402Y-112430941D01*
X153293580Y-112510130D01*
X153464350Y-112544098D01*
X153496530Y-112550499D01*
X153496534Y-112550500D01*
X153496535Y-112550500D01*
X153703466Y-112550500D01*
X153703467Y-112550499D01*
X153906420Y-112510130D01*
X154097598Y-112430941D01*
X154269655Y-112315977D01*
X154415977Y-112169655D01*
X154530941Y-111997598D01*
X154610130Y-111806420D01*
X154650500Y-111603465D01*
X154650500Y-111146535D01*
X154610130Y-110943580D01*
X154530941Y-110752402D01*
X154415977Y-110580345D01*
X154415975Y-110580342D01*
X154269657Y-110434024D01*
X154097596Y-110319057D01*
X154002047Y-110279480D01*
X153947644Y-110235639D01*
X153925579Y-110169345D01*
X153925500Y-110164919D01*
X153925500Y-109407149D01*
X153925500Y-109407147D01*
X153903318Y-109324362D01*
X153903318Y-109324361D01*
X153860465Y-109250138D01*
X151750185Y-107139858D01*
X151716700Y-107078535D01*
X151721684Y-107008843D01*
X151757496Y-106961005D01*
X151756442Y-106959951D01*
X151853045Y-106863347D01*
X151853050Y-106863342D01*
X151910646Y-106750304D01*
X151910646Y-106750302D01*
X151910647Y-106750301D01*
X151925499Y-106656524D01*
X151925500Y-106656519D01*
X151925499Y-106193482D01*
X151910646Y-106099696D01*
X151853050Y-105986658D01*
X151853046Y-105986654D01*
X151853045Y-105986652D01*
X151763347Y-105896954D01*
X151763344Y-105896952D01*
X151763342Y-105896950D01*
X151686517Y-105857805D01*
X151650301Y-105839352D01*
X151556524Y-105824500D01*
X150943482Y-105824500D01*
X150870034Y-105836133D01*
X150849696Y-105839354D01*
X150736658Y-105896950D01*
X150736657Y-105896951D01*
X150736652Y-105896954D01*
X150646954Y-105986652D01*
X150646951Y-105986657D01*
X150646950Y-105986658D01*
X150637476Y-106005252D01*
X150589352Y-106099698D01*
X150574500Y-106193475D01*
X150100500Y-106193475D01*
X150100500Y-106005249D01*
X150100499Y-106005247D01*
X150088868Y-105946770D01*
X150088867Y-105946769D01*
X150044552Y-105880447D01*
X149978230Y-105836132D01*
X149978229Y-105836131D01*
X149919752Y-105824500D01*
X149919748Y-105824500D01*
X149480252Y-105824500D01*
X149480247Y-105824500D01*
X149421770Y-105836131D01*
X149421769Y-105836132D01*
X149368891Y-105871465D01*
X149302214Y-105892343D01*
X149234834Y-105873859D01*
X149231109Y-105871465D01*
X149178230Y-105836132D01*
X149178229Y-105836131D01*
X149119752Y-105824500D01*
X149119748Y-105824500D01*
X148680252Y-105824500D01*
X148680247Y-105824500D01*
X148621770Y-105836131D01*
X148621769Y-105836132D01*
X148568891Y-105871465D01*
X148502214Y-105892343D01*
X148434834Y-105873859D01*
X148431109Y-105871465D01*
X148378230Y-105836132D01*
X148378229Y-105836131D01*
X148319752Y-105824500D01*
X148319748Y-105824500D01*
X147880252Y-105824500D01*
X147880247Y-105824500D01*
X147821770Y-105836131D01*
X147821769Y-105836132D01*
X147768891Y-105871465D01*
X147702214Y-105892343D01*
X147634834Y-105873859D01*
X147631109Y-105871465D01*
X147578230Y-105836132D01*
X147578229Y-105836131D01*
X147519752Y-105824500D01*
X147519748Y-105824500D01*
X147080252Y-105824500D01*
X147080247Y-105824500D01*
X147021770Y-105836131D01*
X147021769Y-105836132D01*
X146955447Y-105880447D01*
X146911132Y-105946769D01*
X146911131Y-105946770D01*
X146899500Y-106005247D01*
X120250500Y-106005247D01*
X120250500Y-67753246D01*
X120250670Y-67746756D01*
X120267961Y-67416821D01*
X120269318Y-67403913D01*
X120270017Y-67399500D01*
X120320493Y-67080804D01*
X120323186Y-67068129D01*
X120407863Y-66752113D01*
X120411871Y-66739781D01*
X120529109Y-66434365D01*
X120534375Y-66422536D01*
X120682912Y-66131014D01*
X120689373Y-66119824D01*
X120867570Y-65845425D01*
X120875179Y-65834953D01*
X121081072Y-65580696D01*
X121089739Y-65571071D01*
X121321071Y-65339739D01*
X121330696Y-65331072D01*
X121584953Y-65125179D01*
X121595425Y-65117570D01*
X121869824Y-64939373D01*
X121881014Y-64932912D01*
X122172536Y-64784375D01*
X122184365Y-64779109D01*
X122489785Y-64661869D01*
X122502113Y-64657863D01*
X122818129Y-64573186D01*
X122830804Y-64570493D01*
X123153915Y-64519317D01*
X123166819Y-64517961D01*
X123496318Y-64500692D01*
X123503504Y-64500525D01*
X138926748Y-64593064D01*
G37*
%TD.AperFunction*%
%TA.AperFunction,Conductor*%
G36*
X158000000Y-91940751D02*
G01*
X158000000Y-94250000D01*
X157683326Y-94535006D01*
X157685476Y-94137353D01*
X157694915Y-94090569D01*
X157696923Y-94085719D01*
X157696927Y-94085715D01*
X157699856Y-94078644D01*
X157704976Y-94052903D01*
X157715500Y-94000002D01*
X157715500Y-93199997D01*
X157699857Y-93121360D01*
X157698088Y-93115528D01*
X157699078Y-93115227D01*
X157691217Y-93075168D01*
X157693162Y-92715340D01*
X157713207Y-92648415D01*
X157729478Y-92628336D01*
X157758314Y-92599500D01*
X157800500Y-92557314D01*
X157866392Y-92443186D01*
X157900500Y-92315892D01*
X157900500Y-92184108D01*
X157866392Y-92056814D01*
X157800500Y-91942686D01*
X157748981Y-91891167D01*
X158000000Y-91940751D01*
G37*
%TD.AperFunction*%
%TD*%
%TA.AperFunction,Conductor*%
%TO.N,+6V*%
G36*
X169892539Y-90919685D02*
G01*
X169938294Y-90972489D01*
X169949500Y-91024000D01*
X169949500Y-92243811D01*
X169929815Y-92310850D01*
X169906711Y-92337516D01*
X169200000Y-92949999D01*
X169200000Y-96976000D01*
X169180315Y-97043039D01*
X169127511Y-97088794D01*
X169076000Y-97100000D01*
X166173004Y-97100000D01*
X166105965Y-97080315D01*
X166060210Y-97027511D01*
X166049008Y-96977000D01*
X166001008Y-91025000D01*
X166020151Y-90957804D01*
X166072585Y-90911625D01*
X166125004Y-90900000D01*
X169825500Y-90900000D01*
X169892539Y-90919685D01*
G37*
%TD.AperFunction*%
%TD*%
M02*
