%TF.GenerationSoftware,KiCad,Pcbnew,9.0.7+1*%
%TF.CreationDate,Date%
%TF.ProjectId,Cellule_de_force_V2,43656c6c-756c-4655-9f64-655f666f7263,+ (Unreleased)*%
%TF.SameCoordinates,Original*%
%TF.FileFunction,Soldermask,Top*%
%TF.FilePolarity,Negative*%
%FSLAX46Y46*%
G04 Gerber Fmt 4.6, Leading zero omitted, Abs format (unit mm)*
G04 Created by KiCad*
%MOMM*%
%LPD*%
G01*
G04 APERTURE LIST*
G04 Aperture macros list*
%AMRoundRect*
0 Rectangle with rounded corners*
0 $1 Rounding radius*
0 $2 $3 $4 $5 $6 $7 $8 $9 X,Y pos of 4 corners*
0 Add a 4 corners polygon primitive as box body*
4,1,4,$2,$3,$4,$5,$6,$7,$8,$9,$2,$3,0*
0 Add four circle primitives for the rounded corners*
1,1,$1+$1,$2,$3*
1,1,$1+$1,$4,$5*
1,1,$1+$1,$6,$7*
1,1,$1+$1,$8,$9*
0 Add four rect primitives between the rounded corners*
20,1,$1+$1,$2,$3,$4,$5,0*
20,1,$1+$1,$4,$5,$6,$7,0*
20,1,$1+$1,$6,$7,$8,$9,0*
20,1,$1+$1,$8,$9,$2,$3,0*%
G04 Aperture macros list end*
%ADD10C,0.010000*%
%ADD11RoundRect,0.225000X-0.300000X0.225000X-0.300000X-0.225000X0.300000X-0.225000X0.300000X0.225000X0*%
%ADD12RoundRect,0.250000X-0.250000X-0.275000X0.250000X-0.275000X0.250000X0.275000X-0.250000X0.275000X0*%
%ADD13RoundRect,0.050000X-0.950000X0.925000X-0.950000X-0.925000X0.950000X-0.925000X0.950000X0.925000X0*%
%ADD14RoundRect,0.050000X-0.300000X0.120000X-0.300000X-0.120000X0.300000X-0.120000X0.300000X0.120000X0*%
%ADD15RoundRect,0.050000X0.825000X1.200000X-0.825000X1.200000X-0.825000X-1.200000X0.825000X-1.200000X0*%
%ADD16RoundRect,0.050000X0.125000X0.250000X-0.125000X0.250000X-0.125000X-0.250000X0.125000X-0.250000X0*%
%ADD17RoundRect,0.250000X-0.275000X0.250000X-0.275000X-0.250000X0.275000X-0.250000X0.275000X0.250000X0*%
%ADD18C,0.900000*%
%ADD19C,6.500000*%
%ADD20RoundRect,0.250000X0.275000X-0.250000X0.275000X0.250000X-0.275000X0.250000X-0.275000X-0.250000X0*%
%ADD21RoundRect,0.175000X0.175000X-0.537500X0.175000X0.537500X-0.175000X0.537500X-0.175000X-0.537500X0*%
%ADD22RoundRect,0.102000X0.725000X0.225000X-0.725000X0.225000X-0.725000X-0.225000X0.725000X-0.225000X0*%
%ADD23RoundRect,0.225000X0.300000X-0.225000X0.300000X0.225000X-0.300000X0.225000X-0.300000X-0.225000X0*%
%ADD24C,1.300000*%
%ADD25RoundRect,0.264706X-0.635294X-0.760294X0.635294X-0.760294X0.635294X0.760294X-0.635294X0.760294X0*%
%ADD26O,1.800000X2.050000*%
%ADD27RoundRect,0.225000X-0.225000X-0.300000X0.225000X-0.300000X0.225000X0.300000X-0.225000X0.300000X0*%
%ADD28RoundRect,0.225000X0.225000X0.300000X-0.225000X0.300000X-0.225000X-0.300000X0.225000X-0.300000X0*%
%ADD29RoundRect,0.243750X0.281250X-0.243750X0.281250X0.243750X-0.281250X0.243750X-0.281250X-0.243750X0*%
%ADD30RoundRect,0.250000X0.250000X0.275000X-0.250000X0.275000X-0.250000X-0.275000X0.250000X-0.275000X0*%
%ADD31RoundRect,0.272727X-0.327273X0.327273X-0.327273X-0.327273X0.327273X-0.327273X0.327273X0.327273X0*%
%ADD32RoundRect,0.050000X-0.200000X0.450000X-0.200000X-0.450000X0.200000X-0.450000X0.200000X0.450000X0*%
%ADD33C,1.704000*%
%ADD34RoundRect,0.050000X-0.850000X0.650000X-0.850000X-0.650000X0.850000X-0.650000X0.850000X0.650000X0*%
%ADD35R,1.890000X1.830000*%
%ADD36RoundRect,0.100000X0.100000X-0.675000X0.100000X0.675000X-0.100000X0.675000X-0.100000X-0.675000X0*%
%ADD37C,2.004000*%
G04 APERTURE END LIST*
D10*
%TO.C,Y2*%
X155500000Y-93300000D02*
X156900000Y-93300000D01*
X156900000Y-93100000D01*
X157600000Y-93100000D01*
X157600000Y-94100000D01*
X156900000Y-94100000D01*
X156900000Y-93900000D01*
X155500000Y-93900000D01*
X155500000Y-94100000D01*
X154800000Y-94100000D01*
X154800000Y-93100000D01*
X155500000Y-93100000D01*
X155500000Y-93300000D01*
G36*
X155500000Y-93300000D02*
G01*
X156900000Y-93300000D01*
X156900000Y-93100000D01*
X157600000Y-93100000D01*
X157600000Y-94100000D01*
X156900000Y-94100000D01*
X156900000Y-93900000D01*
X155500000Y-93900000D01*
X155500000Y-94100000D01*
X154800000Y-94100000D01*
X154800000Y-93100000D01*
X155500000Y-93100000D01*
X155500000Y-93300000D01*
G37*
X155500000Y-94800000D02*
X156900000Y-94800000D01*
X156900000Y-94600000D01*
X157600000Y-94600000D01*
X157600000Y-95600000D01*
X156900000Y-95600000D01*
X156900000Y-95400000D01*
X155500000Y-95400000D01*
X155500000Y-95600000D01*
X154800000Y-95600000D01*
X154800000Y-94600000D01*
X155500000Y-94600000D01*
X155500000Y-94800000D01*
G36*
X155500000Y-94800000D02*
G01*
X156900000Y-94800000D01*
X156900000Y-94600000D01*
X157600000Y-94600000D01*
X157600000Y-95600000D01*
X156900000Y-95600000D01*
X156900000Y-95400000D01*
X155500000Y-95400000D01*
X155500000Y-95600000D01*
X154800000Y-95600000D01*
X154800000Y-94600000D01*
X155500000Y-94600000D01*
X155500000Y-94800000D01*
G37*
X155500000Y-96300000D02*
X156900000Y-96300000D01*
X156900000Y-96100000D01*
X157600000Y-96100000D01*
X157600000Y-97100000D01*
X156900000Y-97100000D01*
X156900000Y-96900000D01*
X155500000Y-96900000D01*
X155500000Y-97100000D01*
X154800000Y-97100000D01*
X154800000Y-96100000D01*
X155500000Y-96100000D01*
X155500000Y-96300000D01*
G36*
X155500000Y-96300000D02*
G01*
X156900000Y-96300000D01*
X156900000Y-96100000D01*
X157600000Y-96100000D01*
X157600000Y-97100000D01*
X156900000Y-97100000D01*
X156900000Y-96900000D01*
X155500000Y-96900000D01*
X155500000Y-97100000D01*
X154800000Y-97100000D01*
X154800000Y-96100000D01*
X155500000Y-96100000D01*
X155500000Y-96300000D01*
G37*
%TD*%
D11*
%TO.C,R2*%
X142300000Y-81575000D03*
X142300000Y-83225000D03*
%TD*%
D12*
%TO.C,C22*%
X168795000Y-103650000D03*
X170345000Y-103650000D03*
%TD*%
D11*
%TO.C,R11*%
X165300000Y-109600000D03*
X165300000Y-111250000D03*
%TD*%
D13*
%TO.C,L1*%
X164070000Y-105635000D03*
X164070000Y-101285000D03*
%TD*%
D11*
%TO.C,R1*%
X144010000Y-81575000D03*
X144010000Y-83225000D03*
%TD*%
D14*
%TO.C,IC2*%
X172170000Y-101140000D03*
X172170000Y-100640000D03*
X172170000Y-100140000D03*
X172170000Y-99640000D03*
X172170000Y-99140000D03*
X169370000Y-99140000D03*
X169370000Y-99640000D03*
X169370000Y-100140000D03*
X169370000Y-100640000D03*
X169370000Y-101140000D03*
D15*
X170770000Y-100140000D03*
D16*
X171020000Y-98690000D03*
X170520000Y-98690000D03*
X170520000Y-101590000D03*
X171020000Y-101590000D03*
%TD*%
D17*
%TO.C,C24*%
X153862500Y-92900000D03*
X153862500Y-94450000D03*
%TD*%
D18*
%TO.C,H3*%
X121100000Y-111500000D03*
X121802944Y-109802944D03*
X121802944Y-113197056D03*
X123500000Y-109100000D03*
D19*
X123500000Y-111500000D03*
D18*
X123500000Y-113900000D03*
X125197056Y-109802944D03*
X125197056Y-113197056D03*
X125900000Y-111500000D03*
%TD*%
D20*
%TO.C,C25*%
X153862500Y-97450000D03*
X153862500Y-95900000D03*
%TD*%
D12*
%TO.C,C9*%
X154235000Y-83770000D03*
X155785000Y-83770000D03*
%TD*%
D21*
%TO.C,Q1*%
X152832500Y-89530000D03*
X154732500Y-89530000D03*
X153782500Y-87255000D03*
%TD*%
D12*
%TO.C,C5*%
X152635000Y-85170000D03*
X154185000Y-85170000D03*
%TD*%
D22*
%TO.C,U1*%
X151400000Y-95075000D03*
X151400000Y-94425000D03*
X151400000Y-93775000D03*
X151400000Y-93125000D03*
X151400000Y-92475000D03*
X151400000Y-91825000D03*
X151400000Y-91175000D03*
X151400000Y-90525000D03*
X151400000Y-89875000D03*
X151400000Y-89225000D03*
X151400000Y-88575000D03*
X151400000Y-87925000D03*
X145600000Y-87925000D03*
X145600000Y-88575000D03*
X145600000Y-89225000D03*
X145600000Y-89875000D03*
X145600000Y-90525000D03*
X145600000Y-91175000D03*
X145600000Y-91825000D03*
X145600000Y-92475000D03*
X145600000Y-93125000D03*
X145600000Y-93775000D03*
X145600000Y-94425000D03*
X145600000Y-95075000D03*
%TD*%
D23*
%TO.C,R17*%
X175720000Y-100615000D03*
X175720000Y-98965000D03*
%TD*%
D18*
%TO.C,H2*%
X121100000Y-67750000D03*
X121802944Y-66052944D03*
X121802944Y-69447056D03*
X123500000Y-65350000D03*
D19*
X123500000Y-67750000D03*
D18*
X123500000Y-70150000D03*
X125197056Y-66052944D03*
X125197056Y-69447056D03*
X125900000Y-67750000D03*
%TD*%
D23*
%TO.C,R13*%
X172350000Y-88525000D03*
X172350000Y-86875000D03*
%TD*%
D24*
%TO.C,J1*%
X139500000Y-113375000D03*
D25*
X141100000Y-111375000D03*
D26*
X143600000Y-111375000D03*
X146100000Y-111375000D03*
X148600000Y-111375000D03*
X151100000Y-111375000D03*
X153600000Y-111375000D03*
X156100000Y-111375000D03*
%TD*%
D12*
%TO.C,C20*%
X168745000Y-95130000D03*
X170295000Y-95130000D03*
%TD*%
D23*
%TO.C,R16*%
X163725000Y-111250000D03*
X163725000Y-109600000D03*
%TD*%
D17*
%TO.C,C4*%
X141650000Y-90725000D03*
X141650000Y-92275000D03*
%TD*%
D18*
%TO.C,H4*%
X171100000Y-111500000D03*
X171802944Y-109802944D03*
X171802944Y-113197056D03*
X173500000Y-109100000D03*
D19*
X173500000Y-111500000D03*
D18*
X173500000Y-113900000D03*
X175197056Y-109802944D03*
X175197056Y-113197056D03*
X175900000Y-111500000D03*
%TD*%
D27*
%TO.C,R14*%
X168695000Y-93610000D03*
X170345000Y-93610000D03*
%TD*%
D17*
%TO.C,C15*%
X165650000Y-87175000D03*
X165650000Y-88725000D03*
%TD*%
D28*
%TO.C,R9*%
X173575000Y-85450000D03*
X171925000Y-85450000D03*
%TD*%
D12*
%TO.C,C26*%
X156247500Y-91210000D03*
X157797500Y-91210000D03*
%TD*%
D18*
%TO.C,H1*%
X171100000Y-68000000D03*
X171802944Y-66302944D03*
X171802944Y-69697056D03*
X173500000Y-65600000D03*
D19*
X173500000Y-68000000D03*
D18*
X173500000Y-70400000D03*
X175197056Y-66302944D03*
X175197056Y-69697056D03*
X175900000Y-68000000D03*
%TD*%
D29*
%TO.C,D1*%
X162150000Y-114237500D03*
X162150000Y-112662500D03*
%TD*%
D11*
%TO.C,R15*%
X174250000Y-98965000D03*
X174250000Y-100615000D03*
%TD*%
D30*
%TO.C,C6*%
X143930000Y-86160000D03*
X142380000Y-86160000D03*
%TD*%
D12*
%TO.C,C21*%
X168795000Y-105160000D03*
X170345000Y-105160000D03*
%TD*%
D23*
%TO.C,R6*%
X151250000Y-106425000D03*
X151250000Y-104775000D03*
%TD*%
D12*
%TO.C,C23*%
X156247500Y-86700000D03*
X157797500Y-86700000D03*
%TD*%
%TO.C,C11*%
X156247500Y-88210000D03*
X157797500Y-88210000D03*
%TD*%
D30*
%TO.C,C17*%
X174245000Y-103620000D03*
X172695000Y-103620000D03*
%TD*%
D28*
%TO.C,R8*%
X154300000Y-104850000D03*
X152650000Y-104850000D03*
%TD*%
D11*
%TO.C,R12*%
X173850000Y-86875000D03*
X173850000Y-88525000D03*
%TD*%
D17*
%TO.C,C1*%
X141650000Y-93725000D03*
X141650000Y-95275000D03*
%TD*%
D31*
%TO.C,D3*%
X166860000Y-95680000D03*
X166860000Y-98480000D03*
%TD*%
D30*
%TO.C,C18*%
X174255000Y-105130000D03*
X172705000Y-105130000D03*
%TD*%
D32*
%TO.C,RN1*%
X149700000Y-104775000D03*
X148900000Y-104775000D03*
X148100000Y-104775000D03*
X147300000Y-104775000D03*
X147300000Y-106475000D03*
X148100000Y-106475000D03*
X148900000Y-106475000D03*
X149700000Y-106475000D03*
%TD*%
D12*
%TO.C,C7*%
X151035000Y-83770000D03*
X152585000Y-83770000D03*
%TD*%
D30*
%TO.C,C10*%
X145530000Y-84660000D03*
X143980000Y-84660000D03*
%TD*%
D33*
%TO.C,H5*%
X158750000Y-82380000D03*
X158750000Y-87460000D03*
X158750000Y-92540000D03*
X158750000Y-97620000D03*
X156120000Y-100250000D03*
X151040000Y-100250000D03*
X145960000Y-100250000D03*
X140880000Y-100250000D03*
X138250000Y-97620000D03*
X138250000Y-92540000D03*
X138250000Y-87460000D03*
X138250000Y-82380000D03*
X140880000Y-79750000D03*
X145960000Y-79750000D03*
X151040000Y-79750000D03*
X156120000Y-79750000D03*
%TD*%
D17*
%TO.C,C13*%
X167200000Y-87175000D03*
X167200000Y-88725000D03*
%TD*%
D29*
%TO.C,D2*%
X165300000Y-114237500D03*
X165300000Y-112662500D03*
%TD*%
D34*
%TO.C,C14*%
X170100000Y-85200000D03*
X167400000Y-85200000D03*
%TD*%
D35*
%TO.C,U2*%
X169800000Y-89450000D03*
D36*
X168800000Y-91600000D03*
X169300000Y-91600000D03*
X169800000Y-91600000D03*
X170300000Y-91600000D03*
X170800000Y-91600000D03*
X170800000Y-87300000D03*
X170300000Y-87300000D03*
X169800000Y-87300000D03*
X169300000Y-87300000D03*
X168800000Y-87300000D03*
%TD*%
D30*
%TO.C,C8*%
X142330000Y-84660000D03*
X140780000Y-84660000D03*
%TD*%
D17*
%TO.C,C2*%
X143150000Y-93725000D03*
X143150000Y-95275000D03*
%TD*%
D23*
%TO.C,R18*%
X175730000Y-103695000D03*
X175730000Y-102045000D03*
%TD*%
D17*
%TO.C,C3*%
X143150000Y-90725000D03*
X143150000Y-92275000D03*
%TD*%
D28*
%TO.C,R10*%
X154607500Y-91210000D03*
X152957500Y-91210000D03*
%TD*%
D12*
%TO.C,C12*%
X156247500Y-89710000D03*
X157797500Y-89710000D03*
%TD*%
%TO.C,C19*%
X168745000Y-96640000D03*
X170295000Y-96640000D03*
%TD*%
D37*
%TO.C,J3*%
X155900000Y-73500000D03*
X150900000Y-73500000D03*
X145900000Y-73500000D03*
X140900000Y-73500000D03*
X155900000Y-68500000D03*
X150900000Y-68500000D03*
X145900000Y-68500000D03*
X140900000Y-68500000D03*
%TD*%
D23*
%TO.C,R3*%
X162150000Y-111250000D03*
X162150000Y-109600000D03*
%TD*%
D20*
%TO.C,C16*%
X167200000Y-91775000D03*
X167200000Y-90225000D03*
%TD*%
D29*
%TO.C,D4*%
X163725000Y-114237500D03*
X163725000Y-112662500D03*
%TD*%
M02*
