M48
; DRILL file {KiCad 9.0.7+1} date 2026-03-10T17:19:23+0000
; FORMAT={-:-/ absolute / metric / decimal}
; #@! TF.CreationDate,2026-03-10T17:19:23+00:00
; #@! TF.GenerationSoftware,Kicad,Pcbnew,9.0.7+1
; #@! TF.FileFunction,Plated,1,3,Blind
FMAT,2
METRIC
; #@! TA.AperFunction,Plated,Buried,ViaDrill
T1C0.250
%
G90
G05
T1
X139.625Y-92.275
X140.65Y-92.275
X149.7Y-84.95
X149.7Y-85.55
X150.3Y-84.95
X150.3Y-85.55
X150.9Y-84.95
X150.9Y-85.55
X151.5Y-84.95
X151.5Y-85.55
X156.2Y-84.95
X156.2Y-85.55
X156.25Y-92.25
X156.8Y-84.95
X156.8Y-85.55
X156.825Y-92.25
X157.4Y-84.95
X157.4Y-85.55
X157.4Y-92.25
X158.0Y-84.95
X158.0Y-85.55
X163.75Y-108.7
X164.4Y-84.6
X164.4Y-85.35
X164.4Y-86.1
X165.15Y-84.6
X165.15Y-85.35
X165.15Y-86.1
X165.9Y-84.6
X165.9Y-85.35
X165.9Y-86.1
X174.9Y-88.55
M30
