%TF.GenerationSoftware,KiCad,Pcbnew,9.0.7+1*%
%TF.CreationDate,Date%
%TF.ProjectId,Cellule_de_force_V2,43656c6c-756c-4655-9f64-655f666f7263,+ (Unreleased)*%
%TF.SameCoordinates,Original*%
%TF.FileFunction,Copper,L3,Inr*%
%TF.FilePolarity,Positive*%
%FSLAX46Y46*%
G04 Gerber Fmt 4.6, Leading zero omitted, Abs format (unit mm)*
G04 Created by KiCad*
%MOMM*%
%LPD*%
G01*
G04 APERTURE LIST*
G04 Aperture macros list*
%AMRoundRect*
0 Rectangle with rounded corners*
0 $1 Rounding radius*
0 $2 $3 $4 $5 $6 $7 $8 $9 X,Y pos of 4 corners*
0 Add a 4 corners polygon primitive as box body*
4,1,4,$2,$3,$4,$5,$6,$7,$8,$9,$2,$3,0*
0 Add four circle primitives for the rounded corners*
1,1,$1+$1,$2,$3*
1,1,$1+$1,$4,$5*
1,1,$1+$1,$6,$7*
1,1,$1+$1,$8,$9*
0 Add four rect primitives between the rounded corners*
20,1,$1+$1,$2,$3,$4,$5,0*
20,1,$1+$1,$4,$5,$6,$7,0*
20,1,$1+$1,$6,$7,$8,$9,0*
20,1,$1+$1,$8,$9,$2,$3,0*%
G04 Aperture macros list end*
%TA.AperFunction,ComponentPad*%
%ADD10C,0.800000*%
%TD*%
%TA.AperFunction,ComponentPad*%
%ADD11C,6.400000*%
%TD*%
%TA.AperFunction,ComponentPad*%
%ADD12RoundRect,0.250000X-0.600000X-0.725000X0.600000X-0.725000X0.600000X0.725000X-0.600000X0.725000X0*%
%TD*%
%TA.AperFunction,ComponentPad*%
%ADD13O,1.700000X1.950000*%
%TD*%
%TA.AperFunction,ComponentPad*%
%ADD14C,1.500000*%
%TD*%
%TA.AperFunction,HeatsinkPad*%
%ADD15C,0.500000*%
%TD*%
%TA.AperFunction,ComponentPad*%
%ADD16C,1.800000*%
%TD*%
%TA.AperFunction,ViaPad*%
%ADD17C,0.550000*%
%TD*%
%TA.AperFunction,Conductor*%
%ADD18C,0.200000*%
%TD*%
G04 APERTURE END LIST*
D10*
%TO.N,GND*%
%TO.C,H3*%
X121100000Y-111500000D03*
X121802944Y-109802944D03*
X121802944Y-113197056D03*
X123500000Y-109100000D03*
D11*
X123500000Y-111500000D03*
D10*
X123500000Y-113900000D03*
X125197056Y-109802944D03*
X125197056Y-113197056D03*
X125900000Y-111500000D03*
%TD*%
%TO.N,GND*%
%TO.C,H2*%
X121100000Y-67750000D03*
X121802944Y-66052944D03*
X121802944Y-69447056D03*
X123500000Y-65350000D03*
D11*
X123500000Y-67750000D03*
D10*
X123500000Y-70150000D03*
X125197056Y-66052944D03*
X125197056Y-69447056D03*
X125900000Y-67750000D03*
%TD*%
D12*
%TO.N,+3.3V*%
%TO.C,J1*%
X141100000Y-111375000D03*
D13*
%TO.N,CS*%
X143600000Y-111375000D03*
%TO.N,DIN*%
X146100000Y-111375000D03*
%TO.N,DOUT*%
X148600000Y-111375000D03*
%TO.N,SYNC*%
X151100000Y-111375000D03*
%TO.N,SCLK*%
X153600000Y-111375000D03*
%TO.N,GND*%
X156100000Y-111375000D03*
%TD*%
D10*
%TO.N,GND*%
%TO.C,H4*%
X171100000Y-111500000D03*
X171802944Y-109802944D03*
X171802944Y-113197056D03*
X173500000Y-109100000D03*
D11*
X173500000Y-111500000D03*
D10*
X173500000Y-113900000D03*
X175197056Y-109802944D03*
X175197056Y-113197056D03*
X175900000Y-111500000D03*
%TD*%
%TO.N,GND*%
%TO.C,H1*%
X171100000Y-68000000D03*
X171802944Y-66302944D03*
X171802944Y-69697056D03*
X173500000Y-65600000D03*
D11*
X173500000Y-68000000D03*
D10*
X173500000Y-70400000D03*
X175197056Y-66302944D03*
X175197056Y-69697056D03*
X175900000Y-68000000D03*
%TD*%
D14*
%TO.N,GND*%
%TO.C,H5*%
X158750000Y-82380000D03*
X158750000Y-87460000D03*
X158750000Y-92540000D03*
X158750000Y-97620000D03*
X156120000Y-100250000D03*
X151040000Y-100250000D03*
X145960000Y-100250000D03*
X140880000Y-100250000D03*
X138250000Y-97620000D03*
X138250000Y-92540000D03*
X138250000Y-87460000D03*
X138250000Y-82380000D03*
X140880000Y-79750000D03*
X145960000Y-79750000D03*
X151040000Y-79750000D03*
X156120000Y-79750000D03*
%TD*%
D15*
%TO.N,GND*%
%TO.C,U2*%
X126210000Y-85170000D03*
X127510000Y-85170000D03*
X128810000Y-85170000D03*
X126210000Y-83870000D03*
X127510000Y-83870000D03*
X128810000Y-83870000D03*
%TD*%
D16*
%TO.N,IN-SENSE-*%
%TO.C,J3*%
X155900000Y-73500000D03*
%TO.N,IN-SENSE+*%
X150900000Y-73500000D03*
%TO.N,IN-OUT+*%
X145900000Y-73500000D03*
%TO.N,IN-OUT-*%
X140900000Y-73500000D03*
%TO.N,IN-SENSE-*%
X155900000Y-68500000D03*
%TO.N,IN-SENSE+*%
X150900000Y-68500000D03*
%TO.N,IN-OUT+*%
X145900000Y-68500000D03*
%TO.N,IN-OUT-*%
X140900000Y-68500000D03*
%TD*%
D17*
%TO.N,GND*%
X140000000Y-70000000D03*
X170000000Y-100000000D03*
X160000000Y-75000000D03*
X165000000Y-105000000D03*
X135000000Y-90000000D03*
X143150000Y-90020000D03*
X126050000Y-106820000D03*
X175000000Y-105000000D03*
X130000000Y-70000000D03*
X125000000Y-75000000D03*
X155000000Y-105000000D03*
X126130000Y-100280000D03*
X130000000Y-75000000D03*
X170000000Y-90000000D03*
X156490000Y-83770000D03*
X175000000Y-95000000D03*
X143160000Y-95930000D03*
X160000000Y-100000000D03*
X150330000Y-83770000D03*
X130000000Y-85000000D03*
X141650000Y-90020000D03*
X130000000Y-110000000D03*
X175000000Y-90000000D03*
X147000000Y-91825000D03*
X135000000Y-70000000D03*
X160000000Y-110000000D03*
X165000000Y-70000000D03*
X140075000Y-84660000D03*
X170000000Y-105000000D03*
X155000000Y-70000000D03*
X154525000Y-95150000D03*
X135000000Y-80000000D03*
X175000000Y-100000000D03*
X135000000Y-95000000D03*
X165000000Y-110000000D03*
X160000000Y-105000000D03*
X160000000Y-70000000D03*
X141630000Y-95920000D03*
X130000000Y-90000000D03*
X150000000Y-70000000D03*
X165000000Y-90000000D03*
X146235000Y-84660000D03*
X135000000Y-100000000D03*
X170000000Y-70000000D03*
X150000000Y-75000000D03*
X140000000Y-75000000D03*
X165000000Y-100000000D03*
X135000000Y-85000000D03*
X170000000Y-95000000D03*
X150100000Y-89875000D03*
X145000000Y-70000000D03*
X135000000Y-75000000D03*
X147035000Y-91175000D03*
X165000000Y-95000000D03*
%TO.N,MCLK1*%
X152700000Y-96450000D03*
%TO.N,Net-(U1-~{CS})*%
X145900000Y-104100000D03*
X149575735Y-103250735D03*
%TO.N,Net-(U1-P2)*%
X149150000Y-102300000D03*
X132050000Y-108900000D03*
%TO.N,/Project Architecture/TPS61086_3.3V_to_6V/SS*%
X129530000Y-97900000D03*
%TO.N,/Project Architecture/TPS61086_3.3V_to_6V/FB*%
X128650000Y-90850000D03*
%TO.N,/Project Architecture/TPS61086_3.3V_to_6V/COMP*%
X131050000Y-94725000D03*
%TO.N,SENSE+*%
X151500000Y-85550000D03*
X157400000Y-85550000D03*
X150300000Y-85550000D03*
X157400000Y-84950000D03*
X158000000Y-85550000D03*
X150900000Y-84950000D03*
X156200000Y-85550000D03*
X149700000Y-84950000D03*
X156800000Y-85550000D03*
X149700000Y-85550000D03*
X151500000Y-84950000D03*
X158000000Y-84950000D03*
X156200000Y-84950000D03*
X156800000Y-84950000D03*
X150300000Y-84950000D03*
X150900000Y-85550000D03*
%TO.N,P3*%
X154525000Y-91825000D03*
%TO.N,+3.3V*%
X127200000Y-94150000D03*
X127775000Y-98925000D03*
%TO.N,+5VA*%
X122110000Y-80420000D03*
X122860000Y-79670000D03*
X133550000Y-108900000D03*
X123610000Y-80420000D03*
X139625000Y-92275000D03*
X156825000Y-92250000D03*
X122110000Y-81170000D03*
X123610000Y-81170000D03*
X156250000Y-92250000D03*
X140650000Y-92275000D03*
X123610000Y-79670000D03*
X157400000Y-92250000D03*
X132330000Y-83620000D03*
X122860000Y-80420000D03*
X122860000Y-81170000D03*
X122110000Y-79670000D03*
%TD*%
D18*
%TO.N,+3.3V*%
X139625000Y-93725000D02*
X139600000Y-93750000D01*
%TD*%
%TA.AperFunction,Conductor*%
%TO.N,SENSE+*%
G36*
X158243039Y-84669685D02*
G01*
X158288794Y-84722489D01*
X158300000Y-84774000D01*
X158300000Y-85726000D01*
X158280315Y-85793039D01*
X158227511Y-85838794D01*
X158176000Y-85850000D01*
X149524000Y-85850000D01*
X149456961Y-85830315D01*
X149411206Y-85777511D01*
X149400000Y-85726000D01*
X149400000Y-84774000D01*
X149419685Y-84706961D01*
X149472489Y-84661206D01*
X149524000Y-84650000D01*
X158176000Y-84650000D01*
X158243039Y-84669685D01*
G37*
%TD.AperFunction*%
%TD*%
%TA.AperFunction,Conductor*%
%TO.N,+5VA*%
G36*
X148436512Y-64650122D02*
G01*
X148437767Y-64650253D01*
X148449168Y-64650298D01*
X148449170Y-64650299D01*
X148499130Y-64650498D01*
X148548324Y-64650794D01*
X148548563Y-64650696D01*
X171883277Y-64744034D01*
X171950235Y-64763987D01*
X171995779Y-64816973D01*
X172005445Y-64886171D01*
X171976166Y-64949610D01*
X171941233Y-64977391D01*
X171749688Y-65079774D01*
X171749678Y-65079780D01*
X171471890Y-65265393D01*
X171471876Y-65265403D01*
X171213604Y-65477361D01*
X170977361Y-65713604D01*
X170765403Y-65971876D01*
X170765393Y-65971890D01*
X170579780Y-66249678D01*
X170579769Y-66249696D01*
X170422280Y-66544338D01*
X170422278Y-66544343D01*
X170294418Y-66853022D01*
X170197428Y-67172758D01*
X170197425Y-67172769D01*
X170132250Y-67500434D01*
X170132247Y-67500451D01*
X170112577Y-67700172D01*
X170101194Y-67815750D01*
X170099500Y-67832947D01*
X170099500Y-68167052D01*
X170132247Y-68499548D01*
X170132250Y-68499565D01*
X170197425Y-68827230D01*
X170197428Y-68827241D01*
X170294418Y-69146977D01*
X170412646Y-69432403D01*
X170420115Y-69501873D01*
X170388840Y-69564352D01*
X170328751Y-69600004D01*
X170258926Y-69597510D01*
X170236087Y-69587244D01*
X170183540Y-69556907D01*
X170183537Y-69556905D01*
X170110844Y-69537427D01*
X170062601Y-69524500D01*
X169937399Y-69524500D01*
X169889156Y-69537427D01*
X169816463Y-69556905D01*
X169708037Y-69619504D01*
X169708034Y-69619506D01*
X169619506Y-69708034D01*
X169619504Y-69708037D01*
X169556905Y-69816463D01*
X169540702Y-69876931D01*
X169524500Y-69937399D01*
X169524500Y-70062601D01*
X169556905Y-70183536D01*
X169619505Y-70291964D01*
X169708036Y-70380495D01*
X169816464Y-70443095D01*
X169937399Y-70475500D01*
X169937401Y-70475500D01*
X170062599Y-70475500D01*
X170062601Y-70475500D01*
X170183536Y-70443095D01*
X170291964Y-70380495D01*
X170380495Y-70291964D01*
X170443095Y-70183536D01*
X170475500Y-70062601D01*
X170475500Y-70003027D01*
X170495185Y-69935988D01*
X170547989Y-69890233D01*
X170617147Y-69880289D01*
X170680703Y-69909314D01*
X170702602Y-69934136D01*
X170765393Y-70028109D01*
X170765403Y-70028123D01*
X170977361Y-70286395D01*
X171213604Y-70522638D01*
X171213609Y-70522642D01*
X171213610Y-70522643D01*
X171471882Y-70734601D01*
X171749685Y-70920224D01*
X171749694Y-70920229D01*
X171749696Y-70920230D01*
X172044338Y-71077719D01*
X172044340Y-71077719D01*
X172044346Y-71077723D01*
X172353024Y-71205582D01*
X172672749Y-71302569D01*
X172672755Y-71302570D01*
X172672758Y-71302571D01*
X172672769Y-71302574D01*
X172878243Y-71343444D01*
X173000441Y-71367751D01*
X173332944Y-71400500D01*
X173332947Y-71400500D01*
X173667053Y-71400500D01*
X173667056Y-71400500D01*
X173999559Y-71367751D01*
X174161757Y-71335487D01*
X174327230Y-71302574D01*
X174327241Y-71302571D01*
X174327241Y-71302570D01*
X174327251Y-71302569D01*
X174646976Y-71205582D01*
X174955654Y-71077723D01*
X175250315Y-70920224D01*
X175528118Y-70734601D01*
X175786390Y-70522643D01*
X176022643Y-70286390D01*
X176234601Y-70028118D01*
X176420224Y-69750315D01*
X176516142Y-69570863D01*
X176565104Y-69521020D01*
X176633241Y-69505559D01*
X176698921Y-69529390D01*
X176741290Y-69584948D01*
X176749500Y-69629317D01*
X176749500Y-109870682D01*
X176729815Y-109937721D01*
X176677011Y-109983476D01*
X176607853Y-109993420D01*
X176544297Y-109964395D01*
X176516142Y-109929135D01*
X176420230Y-109749696D01*
X176420229Y-109749694D01*
X176420224Y-109749685D01*
X176234601Y-109471882D01*
X176022643Y-109213610D01*
X176022642Y-109213609D01*
X176022638Y-109213604D01*
X175786395Y-108977361D01*
X175528123Y-108765403D01*
X175528122Y-108765402D01*
X175528118Y-108765399D01*
X175250315Y-108579776D01*
X175250310Y-108579773D01*
X175250303Y-108579769D01*
X174955661Y-108422280D01*
X174955656Y-108422278D01*
X174646977Y-108294418D01*
X174327241Y-108197428D01*
X174327230Y-108197425D01*
X173999565Y-108132250D01*
X173999548Y-108132247D01*
X173748108Y-108107483D01*
X173667056Y-108099500D01*
X173332944Y-108099500D01*
X173257982Y-108106883D01*
X173000451Y-108132247D01*
X173000434Y-108132250D01*
X172672769Y-108197425D01*
X172672758Y-108197428D01*
X172353022Y-108294418D01*
X172044343Y-108422278D01*
X172044338Y-108422280D01*
X171749696Y-108579769D01*
X171749678Y-108579780D01*
X171471890Y-108765393D01*
X171471876Y-108765403D01*
X171213604Y-108977361D01*
X170977361Y-109213604D01*
X170765403Y-109471876D01*
X170765393Y-109471890D01*
X170579780Y-109749678D01*
X170579769Y-109749696D01*
X170422280Y-110044338D01*
X170422278Y-110044343D01*
X170294418Y-110353022D01*
X170197428Y-110672758D01*
X170197425Y-110672769D01*
X170132250Y-111000434D01*
X170132247Y-111000451D01*
X170106883Y-111257982D01*
X170099500Y-111332944D01*
X170099500Y-111667056D01*
X170109344Y-111767004D01*
X170132247Y-111999548D01*
X170132250Y-111999565D01*
X170197425Y-112327230D01*
X170197428Y-112327241D01*
X170294418Y-112646977D01*
X170422278Y-112955656D01*
X170422280Y-112955661D01*
X170579769Y-113250303D01*
X170579780Y-113250321D01*
X170765393Y-113528109D01*
X170765403Y-113528123D01*
X170977361Y-113786395D01*
X171213604Y-114022638D01*
X171213609Y-114022642D01*
X171213610Y-114022643D01*
X171471882Y-114234601D01*
X171749685Y-114420224D01*
X171749694Y-114420229D01*
X171749696Y-114420230D01*
X171929135Y-114516142D01*
X171978979Y-114565104D01*
X171994440Y-114633242D01*
X171970608Y-114698921D01*
X171915051Y-114741290D01*
X171870682Y-114749500D01*
X125129318Y-114749500D01*
X125062279Y-114729815D01*
X125016524Y-114677011D01*
X125006580Y-114607853D01*
X125035605Y-114544297D01*
X125070865Y-114516142D01*
X125150900Y-114473361D01*
X125250315Y-114420224D01*
X125528118Y-114234601D01*
X125786390Y-114022643D01*
X126022643Y-113786390D01*
X126234601Y-113528118D01*
X126389596Y-113296153D01*
X138699500Y-113296153D01*
X138699500Y-113453846D01*
X138730261Y-113608489D01*
X138730264Y-113608501D01*
X138790602Y-113754172D01*
X138790609Y-113754185D01*
X138878210Y-113885288D01*
X138878213Y-113885292D01*
X138989707Y-113996786D01*
X138989711Y-113996789D01*
X139120814Y-114084390D01*
X139120827Y-114084397D01*
X139266498Y-114144735D01*
X139266503Y-114144737D01*
X139421153Y-114175499D01*
X139421156Y-114175500D01*
X139421158Y-114175500D01*
X139578844Y-114175500D01*
X139578845Y-114175499D01*
X139733497Y-114144737D01*
X139879179Y-114084394D01*
X140010289Y-113996789D01*
X140121789Y-113885289D01*
X140209394Y-113754179D01*
X140269737Y-113608497D01*
X140300500Y-113453842D01*
X140300500Y-113296158D01*
X140300500Y-113296155D01*
X140300499Y-113296153D01*
X140287661Y-113231611D01*
X140269737Y-113141503D01*
X140269735Y-113141498D01*
X140209397Y-112995827D01*
X140209390Y-112995814D01*
X140121789Y-112864711D01*
X140121786Y-112864707D01*
X140010292Y-112753213D01*
X140010288Y-112753210D01*
X139879185Y-112665609D01*
X139879172Y-112665602D01*
X139733501Y-112605264D01*
X139733489Y-112605261D01*
X139578845Y-112574500D01*
X139578842Y-112574500D01*
X139421158Y-112574500D01*
X139421155Y-112574500D01*
X139266510Y-112605261D01*
X139266498Y-112605264D01*
X139120827Y-112665602D01*
X139120814Y-112665609D01*
X138989711Y-112753210D01*
X138989707Y-112753213D01*
X138878213Y-112864707D01*
X138878210Y-112864711D01*
X138790609Y-112995814D01*
X138790602Y-112995827D01*
X138730264Y-113141498D01*
X138730261Y-113141510D01*
X138699500Y-113296153D01*
X126389596Y-113296153D01*
X126420224Y-113250315D01*
X126424562Y-113242197D01*
X126430222Y-113231611D01*
X126430222Y-113231610D01*
X126577719Y-112955661D01*
X126577723Y-112955654D01*
X126705582Y-112646976D01*
X126802569Y-112327251D01*
X126802571Y-112327241D01*
X126802574Y-112327230D01*
X126836978Y-112154266D01*
X126867751Y-111999559D01*
X126900500Y-111667056D01*
X126900500Y-111332944D01*
X126867751Y-111000441D01*
X126843444Y-110878243D01*
X126802574Y-110672769D01*
X126802571Y-110672758D01*
X126802570Y-110672755D01*
X126802569Y-110672749D01*
X126779206Y-110595730D01*
X140049500Y-110595730D01*
X140049500Y-112154269D01*
X140052353Y-112184699D01*
X140052353Y-112184701D01*
X140097206Y-112312880D01*
X140097207Y-112312882D01*
X140177850Y-112422150D01*
X140287118Y-112502793D01*
X140308089Y-112510131D01*
X140415299Y-112547646D01*
X140445730Y-112550500D01*
X140445734Y-112550500D01*
X141754270Y-112550500D01*
X141784699Y-112547646D01*
X141784701Y-112547646D01*
X141848790Y-112525219D01*
X141912882Y-112502793D01*
X142022150Y-112422150D01*
X142102793Y-112312882D01*
X142125219Y-112248790D01*
X142147646Y-112184701D01*
X142147646Y-112184699D01*
X142150500Y-112154269D01*
X142150500Y-111146530D01*
X142549500Y-111146530D01*
X142549500Y-111603469D01*
X142589868Y-111806412D01*
X142589870Y-111806420D01*
X142669059Y-111997598D01*
X142704725Y-112050976D01*
X142784024Y-112169657D01*
X142930342Y-112315975D01*
X142930345Y-112315977D01*
X143102402Y-112430941D01*
X143293580Y-112510130D01*
X143482187Y-112547646D01*
X143496530Y-112550499D01*
X143496534Y-112550500D01*
X143496535Y-112550500D01*
X143703466Y-112550500D01*
X143703467Y-112550499D01*
X143906420Y-112510130D01*
X144097598Y-112430941D01*
X144269655Y-112315977D01*
X144415977Y-112169655D01*
X144530941Y-111997598D01*
X144610130Y-111806420D01*
X144650500Y-111603465D01*
X144650500Y-111146535D01*
X144650499Y-111146530D01*
X145049500Y-111146530D01*
X145049500Y-111603469D01*
X145089868Y-111806412D01*
X145089870Y-111806420D01*
X145169059Y-111997598D01*
X145204725Y-112050976D01*
X145284024Y-112169657D01*
X145430342Y-112315975D01*
X145430345Y-112315977D01*
X145602402Y-112430941D01*
X145793580Y-112510130D01*
X145982187Y-112547646D01*
X145996530Y-112550499D01*
X145996534Y-112550500D01*
X145996535Y-112550500D01*
X146203466Y-112550500D01*
X146203467Y-112550499D01*
X146406420Y-112510130D01*
X146597598Y-112430941D01*
X146769655Y-112315977D01*
X146915977Y-112169655D01*
X147030941Y-111997598D01*
X147110130Y-111806420D01*
X147150500Y-111603465D01*
X147150500Y-111146535D01*
X147150499Y-111146530D01*
X147549500Y-111146530D01*
X147549500Y-111603469D01*
X147589868Y-111806412D01*
X147589870Y-111806420D01*
X147669059Y-111997598D01*
X147704725Y-112050976D01*
X147784024Y-112169657D01*
X147930342Y-112315975D01*
X147930345Y-112315977D01*
X148102402Y-112430941D01*
X148293580Y-112510130D01*
X148482187Y-112547646D01*
X148496530Y-112550499D01*
X148496534Y-112550500D01*
X148496535Y-112550500D01*
X148703466Y-112550500D01*
X148703467Y-112550499D01*
X148906420Y-112510130D01*
X149097598Y-112430941D01*
X149269655Y-112315977D01*
X149415977Y-112169655D01*
X149530941Y-111997598D01*
X149610130Y-111806420D01*
X149650500Y-111603465D01*
X149650500Y-111146535D01*
X149650499Y-111146530D01*
X150049500Y-111146530D01*
X150049500Y-111603469D01*
X150089868Y-111806412D01*
X150089870Y-111806420D01*
X150169059Y-111997598D01*
X150204725Y-112050976D01*
X150284024Y-112169657D01*
X150430342Y-112315975D01*
X150430345Y-112315977D01*
X150602402Y-112430941D01*
X150793580Y-112510130D01*
X150982187Y-112547646D01*
X150996530Y-112550499D01*
X150996534Y-112550500D01*
X150996535Y-112550500D01*
X151203466Y-112550500D01*
X151203467Y-112550499D01*
X151406420Y-112510130D01*
X151597598Y-112430941D01*
X151769655Y-112315977D01*
X151915977Y-112169655D01*
X152030941Y-111997598D01*
X152110130Y-111806420D01*
X152150500Y-111603465D01*
X152150500Y-111146535D01*
X152150499Y-111146530D01*
X152549500Y-111146530D01*
X152549500Y-111603469D01*
X152589868Y-111806412D01*
X152589870Y-111806420D01*
X152669059Y-111997598D01*
X152704725Y-112050976D01*
X152784024Y-112169657D01*
X152930342Y-112315975D01*
X152930345Y-112315977D01*
X153102402Y-112430941D01*
X153293580Y-112510130D01*
X153482187Y-112547646D01*
X153496530Y-112550499D01*
X153496534Y-112550500D01*
X153496535Y-112550500D01*
X153703466Y-112550500D01*
X153703467Y-112550499D01*
X153906420Y-112510130D01*
X154097598Y-112430941D01*
X154269655Y-112315977D01*
X154415977Y-112169655D01*
X154530941Y-111997598D01*
X154610130Y-111806420D01*
X154650500Y-111603465D01*
X154650500Y-111146535D01*
X154650499Y-111146530D01*
X155049500Y-111146530D01*
X155049500Y-111603469D01*
X155089868Y-111806412D01*
X155089870Y-111806420D01*
X155169059Y-111997598D01*
X155204725Y-112050976D01*
X155284024Y-112169657D01*
X155430342Y-112315975D01*
X155430345Y-112315977D01*
X155602402Y-112430941D01*
X155793580Y-112510130D01*
X155982187Y-112547646D01*
X155996530Y-112550499D01*
X155996534Y-112550500D01*
X155996535Y-112550500D01*
X156203466Y-112550500D01*
X156203467Y-112550499D01*
X156406420Y-112510130D01*
X156597598Y-112430941D01*
X156769655Y-112315977D01*
X156915977Y-112169655D01*
X157030941Y-111997598D01*
X157110130Y-111806420D01*
X157150500Y-111603465D01*
X157150500Y-111146535D01*
X157110130Y-110943580D01*
X157030941Y-110752402D01*
X156915977Y-110580345D01*
X156915975Y-110580342D01*
X156769657Y-110434024D01*
X156683626Y-110376541D01*
X156597598Y-110319059D01*
X156532185Y-110291964D01*
X156406420Y-110239870D01*
X156406412Y-110239868D01*
X156203469Y-110199500D01*
X156203465Y-110199500D01*
X155996535Y-110199500D01*
X155996530Y-110199500D01*
X155793587Y-110239868D01*
X155793579Y-110239870D01*
X155602403Y-110319058D01*
X155430342Y-110434024D01*
X155284024Y-110580342D01*
X155169058Y-110752403D01*
X155089870Y-110943579D01*
X155089868Y-110943587D01*
X155049500Y-111146530D01*
X154650499Y-111146530D01*
X154610130Y-110943580D01*
X154530941Y-110752402D01*
X154415977Y-110580345D01*
X154415975Y-110580342D01*
X154269657Y-110434024D01*
X154183626Y-110376541D01*
X154097598Y-110319059D01*
X154032185Y-110291964D01*
X153906420Y-110239870D01*
X153906412Y-110239868D01*
X153703469Y-110199500D01*
X153703465Y-110199500D01*
X153496535Y-110199500D01*
X153496530Y-110199500D01*
X153293587Y-110239868D01*
X153293579Y-110239870D01*
X153102403Y-110319058D01*
X152930342Y-110434024D01*
X152784024Y-110580342D01*
X152669058Y-110752403D01*
X152589870Y-110943579D01*
X152589868Y-110943587D01*
X152549500Y-111146530D01*
X152150499Y-111146530D01*
X152110130Y-110943580D01*
X152030941Y-110752402D01*
X151915977Y-110580345D01*
X151915975Y-110580342D01*
X151769657Y-110434024D01*
X151683626Y-110376541D01*
X151597598Y-110319059D01*
X151532185Y-110291964D01*
X151406420Y-110239870D01*
X151406412Y-110239868D01*
X151203469Y-110199500D01*
X151203465Y-110199500D01*
X150996535Y-110199500D01*
X150996530Y-110199500D01*
X150793587Y-110239868D01*
X150793579Y-110239870D01*
X150602403Y-110319058D01*
X150430342Y-110434024D01*
X150284024Y-110580342D01*
X150169058Y-110752403D01*
X150089870Y-110943579D01*
X150089868Y-110943587D01*
X150049500Y-111146530D01*
X149650499Y-111146530D01*
X149610130Y-110943580D01*
X149530941Y-110752402D01*
X149415977Y-110580345D01*
X149415975Y-110580342D01*
X149269657Y-110434024D01*
X149183626Y-110376541D01*
X149097598Y-110319059D01*
X149032185Y-110291964D01*
X148906420Y-110239870D01*
X148906412Y-110239868D01*
X148703469Y-110199500D01*
X148703465Y-110199500D01*
X148496535Y-110199500D01*
X148496530Y-110199500D01*
X148293587Y-110239868D01*
X148293579Y-110239870D01*
X148102403Y-110319058D01*
X147930342Y-110434024D01*
X147784024Y-110580342D01*
X147669058Y-110752403D01*
X147589870Y-110943579D01*
X147589868Y-110943587D01*
X147549500Y-111146530D01*
X147150499Y-111146530D01*
X147110130Y-110943580D01*
X147030941Y-110752402D01*
X146915977Y-110580345D01*
X146915975Y-110580342D01*
X146769657Y-110434024D01*
X146683626Y-110376541D01*
X146597598Y-110319059D01*
X146532185Y-110291964D01*
X146406420Y-110239870D01*
X146406412Y-110239868D01*
X146203469Y-110199500D01*
X146203465Y-110199500D01*
X145996535Y-110199500D01*
X145996530Y-110199500D01*
X145793587Y-110239868D01*
X145793579Y-110239870D01*
X145602403Y-110319058D01*
X145430342Y-110434024D01*
X145284024Y-110580342D01*
X145169058Y-110752403D01*
X145089870Y-110943579D01*
X145089868Y-110943587D01*
X145049500Y-111146530D01*
X144650499Y-111146530D01*
X144610130Y-110943580D01*
X144530941Y-110752402D01*
X144415977Y-110580345D01*
X144415975Y-110580342D01*
X144269657Y-110434024D01*
X144183626Y-110376541D01*
X144097598Y-110319059D01*
X144032185Y-110291964D01*
X143906420Y-110239870D01*
X143906412Y-110239868D01*
X143703469Y-110199500D01*
X143703465Y-110199500D01*
X143496535Y-110199500D01*
X143496530Y-110199500D01*
X143293587Y-110239868D01*
X143293579Y-110239870D01*
X143102403Y-110319058D01*
X142930342Y-110434024D01*
X142784024Y-110580342D01*
X142669058Y-110752403D01*
X142589870Y-110943579D01*
X142589868Y-110943587D01*
X142549500Y-111146530D01*
X142150500Y-111146530D01*
X142150500Y-110595730D01*
X142147646Y-110565300D01*
X142147646Y-110565298D01*
X142102793Y-110437119D01*
X142102792Y-110437117D01*
X142022150Y-110327850D01*
X141912882Y-110247207D01*
X141912880Y-110247206D01*
X141784700Y-110202353D01*
X141754270Y-110199500D01*
X141754266Y-110199500D01*
X140445734Y-110199500D01*
X140445730Y-110199500D01*
X140415300Y-110202353D01*
X140415298Y-110202353D01*
X140287119Y-110247206D01*
X140287117Y-110247207D01*
X140177850Y-110327850D01*
X140097207Y-110437117D01*
X140097206Y-110437119D01*
X140052353Y-110565298D01*
X140052353Y-110565300D01*
X140049500Y-110595730D01*
X126779206Y-110595730D01*
X126705582Y-110353024D01*
X126577723Y-110044346D01*
X126520559Y-109937399D01*
X129524500Y-109937399D01*
X129524500Y-110062601D01*
X129556905Y-110183536D01*
X129619505Y-110291964D01*
X129708036Y-110380495D01*
X129816464Y-110443095D01*
X129937399Y-110475500D01*
X129937401Y-110475500D01*
X130062600Y-110475500D01*
X130062601Y-110475500D01*
X130183536Y-110443095D01*
X130291964Y-110380495D01*
X130380495Y-110291964D01*
X130443095Y-110183536D01*
X130475500Y-110062601D01*
X130475500Y-109937399D01*
X159524500Y-109937399D01*
X159524500Y-110062601D01*
X159556905Y-110183536D01*
X159619505Y-110291964D01*
X159708036Y-110380495D01*
X159816464Y-110443095D01*
X159937399Y-110475500D01*
X159937401Y-110475500D01*
X160062599Y-110475500D01*
X160062601Y-110475500D01*
X160183536Y-110443095D01*
X160291964Y-110380495D01*
X160380495Y-110291964D01*
X160443095Y-110183536D01*
X160475500Y-110062601D01*
X160475500Y-109937399D01*
X164524500Y-109937399D01*
X164524500Y-110062601D01*
X164556905Y-110183536D01*
X164619505Y-110291964D01*
X164708036Y-110380495D01*
X164816464Y-110443095D01*
X164937399Y-110475500D01*
X164937401Y-110475500D01*
X165062599Y-110475500D01*
X165062601Y-110475500D01*
X165183536Y-110443095D01*
X165291964Y-110380495D01*
X165380495Y-110291964D01*
X165443095Y-110183536D01*
X165475500Y-110062601D01*
X165475500Y-109937399D01*
X165443095Y-109816464D01*
X165380495Y-109708036D01*
X165291964Y-109619505D01*
X165183536Y-109556905D01*
X165183537Y-109556905D01*
X165143224Y-109546103D01*
X165062601Y-109524500D01*
X164937399Y-109524500D01*
X164856775Y-109546103D01*
X164816463Y-109556905D01*
X164708037Y-109619504D01*
X164708034Y-109619506D01*
X164619506Y-109708034D01*
X164619504Y-109708037D01*
X164556905Y-109816463D01*
X164556905Y-109816464D01*
X164524500Y-109937399D01*
X160475500Y-109937399D01*
X160443095Y-109816464D01*
X160380495Y-109708036D01*
X160291964Y-109619505D01*
X160183536Y-109556905D01*
X160183537Y-109556905D01*
X160143224Y-109546103D01*
X160062601Y-109524500D01*
X159937399Y-109524500D01*
X159856775Y-109546103D01*
X159816463Y-109556905D01*
X159708037Y-109619504D01*
X159708034Y-109619506D01*
X159619506Y-109708034D01*
X159619504Y-109708037D01*
X159556905Y-109816463D01*
X159556905Y-109816464D01*
X159524500Y-109937399D01*
X130475500Y-109937399D01*
X130443095Y-109816464D01*
X130380495Y-109708036D01*
X130291964Y-109619505D01*
X130183536Y-109556905D01*
X130183537Y-109556905D01*
X130143224Y-109546103D01*
X130062601Y-109524500D01*
X129937399Y-109524500D01*
X129856775Y-109546103D01*
X129816463Y-109556905D01*
X129708037Y-109619504D01*
X129708034Y-109619506D01*
X129619506Y-109708034D01*
X129619504Y-109708037D01*
X129556905Y-109816463D01*
X129556905Y-109816464D01*
X129524500Y-109937399D01*
X126520559Y-109937399D01*
X126420224Y-109749685D01*
X126234601Y-109471882D01*
X126022643Y-109213610D01*
X126022642Y-109213609D01*
X126022638Y-109213604D01*
X125786395Y-108977361D01*
X125722744Y-108925124D01*
X125615851Y-108837399D01*
X131574500Y-108837399D01*
X131574500Y-108962601D01*
X131606905Y-109083536D01*
X131669505Y-109191964D01*
X131758036Y-109280495D01*
X131866464Y-109343095D01*
X131987399Y-109375500D01*
X131987401Y-109375500D01*
X132112599Y-109375500D01*
X132112601Y-109375500D01*
X132233536Y-109343095D01*
X132341964Y-109280495D01*
X132430495Y-109191964D01*
X132493095Y-109083536D01*
X132525500Y-108962601D01*
X132525500Y-108837399D01*
X132493095Y-108716464D01*
X132430495Y-108608036D01*
X132341964Y-108519505D01*
X132233536Y-108456905D01*
X132233537Y-108456905D01*
X132193224Y-108446103D01*
X132112601Y-108424500D01*
X131987399Y-108424500D01*
X131906775Y-108446103D01*
X131866463Y-108456905D01*
X131758037Y-108519504D01*
X131758034Y-108519506D01*
X131669506Y-108608034D01*
X131669504Y-108608037D01*
X131606905Y-108716463D01*
X131606905Y-108716464D01*
X131574500Y-108837399D01*
X125615851Y-108837399D01*
X125528123Y-108765403D01*
X125528122Y-108765402D01*
X125528118Y-108765399D01*
X125250315Y-108579776D01*
X125250310Y-108579773D01*
X125250303Y-108579769D01*
X124955661Y-108422280D01*
X124955656Y-108422278D01*
X124646977Y-108294418D01*
X124327241Y-108197428D01*
X124327230Y-108197425D01*
X123999565Y-108132250D01*
X123999548Y-108132247D01*
X123748108Y-108107483D01*
X123667056Y-108099500D01*
X123332944Y-108099500D01*
X123257982Y-108106883D01*
X123000451Y-108132247D01*
X123000434Y-108132250D01*
X122672769Y-108197425D01*
X122672758Y-108197428D01*
X122353022Y-108294418D01*
X122044343Y-108422278D01*
X122044338Y-108422280D01*
X121749696Y-108579769D01*
X121749678Y-108579780D01*
X121471890Y-108765393D01*
X121471876Y-108765403D01*
X121213604Y-108977361D01*
X120977361Y-109213604D01*
X120765403Y-109471876D01*
X120765393Y-109471890D01*
X120579780Y-109749678D01*
X120579769Y-109749696D01*
X120483858Y-109929135D01*
X120434896Y-109978979D01*
X120366758Y-109994440D01*
X120301079Y-109970608D01*
X120258710Y-109915051D01*
X120250500Y-109870682D01*
X120250500Y-106757399D01*
X125574500Y-106757399D01*
X125574500Y-106882601D01*
X125606905Y-107003536D01*
X125669505Y-107111964D01*
X125758036Y-107200495D01*
X125866464Y-107263095D01*
X125987399Y-107295500D01*
X125987401Y-107295500D01*
X126112599Y-107295500D01*
X126112601Y-107295500D01*
X126233536Y-107263095D01*
X126341964Y-107200495D01*
X126430495Y-107111964D01*
X126493095Y-107003536D01*
X126525500Y-106882601D01*
X126525500Y-106757399D01*
X126493095Y-106636464D01*
X126430495Y-106528036D01*
X126341964Y-106439505D01*
X126233536Y-106376905D01*
X126233537Y-106376905D01*
X126193224Y-106366103D01*
X126112601Y-106344500D01*
X125987399Y-106344500D01*
X125906775Y-106366103D01*
X125866463Y-106376905D01*
X125758037Y-106439504D01*
X125758034Y-106439506D01*
X125669506Y-106528034D01*
X125669504Y-106528037D01*
X125606905Y-106636463D01*
X125606905Y-106636464D01*
X125574500Y-106757399D01*
X120250500Y-106757399D01*
X120250500Y-104937399D01*
X154524500Y-104937399D01*
X154524500Y-105062601D01*
X154556905Y-105183536D01*
X154619505Y-105291964D01*
X154708036Y-105380495D01*
X154816464Y-105443095D01*
X154937399Y-105475500D01*
X154937401Y-105475500D01*
X155062599Y-105475500D01*
X155062601Y-105475500D01*
X155183536Y-105443095D01*
X155291964Y-105380495D01*
X155380495Y-105291964D01*
X155443095Y-105183536D01*
X155475500Y-105062601D01*
X155475500Y-104937399D01*
X159524500Y-104937399D01*
X159524500Y-105062601D01*
X159556905Y-105183536D01*
X159619505Y-105291964D01*
X159708036Y-105380495D01*
X159816464Y-105443095D01*
X159937399Y-105475500D01*
X159937401Y-105475500D01*
X160062599Y-105475500D01*
X160062601Y-105475500D01*
X160183536Y-105443095D01*
X160291964Y-105380495D01*
X160380495Y-105291964D01*
X160443095Y-105183536D01*
X160475500Y-105062601D01*
X160475500Y-104937399D01*
X164524500Y-104937399D01*
X164524500Y-105062601D01*
X164556905Y-105183536D01*
X164619505Y-105291964D01*
X164708036Y-105380495D01*
X164816464Y-105443095D01*
X164937399Y-105475500D01*
X164937401Y-105475500D01*
X165062599Y-105475500D01*
X165062601Y-105475500D01*
X165183536Y-105443095D01*
X165291964Y-105380495D01*
X165380495Y-105291964D01*
X165443095Y-105183536D01*
X165475500Y-105062601D01*
X165475500Y-104937399D01*
X169524500Y-104937399D01*
X169524500Y-105062601D01*
X169556905Y-105183536D01*
X169619505Y-105291964D01*
X169708036Y-105380495D01*
X169816464Y-105443095D01*
X169937399Y-105475500D01*
X169937401Y-105475500D01*
X170062599Y-105475500D01*
X170062601Y-105475500D01*
X170183536Y-105443095D01*
X170291964Y-105380495D01*
X170380495Y-105291964D01*
X170443095Y-105183536D01*
X170475500Y-105062601D01*
X170475500Y-104937399D01*
X174524500Y-104937399D01*
X174524500Y-105062601D01*
X174556905Y-105183536D01*
X174619505Y-105291964D01*
X174708036Y-105380495D01*
X174816464Y-105443095D01*
X174937399Y-105475500D01*
X174937401Y-105475500D01*
X175062599Y-105475500D01*
X175062601Y-105475500D01*
X175183536Y-105443095D01*
X175291964Y-105380495D01*
X175380495Y-105291964D01*
X175443095Y-105183536D01*
X175475500Y-105062601D01*
X175475500Y-104937399D01*
X175443095Y-104816464D01*
X175380495Y-104708036D01*
X175291964Y-104619505D01*
X175183536Y-104556905D01*
X175183537Y-104556905D01*
X175131997Y-104543095D01*
X175062601Y-104524500D01*
X174937399Y-104524500D01*
X174868003Y-104543095D01*
X174816463Y-104556905D01*
X174708037Y-104619504D01*
X174708034Y-104619506D01*
X174619506Y-104708034D01*
X174619504Y-104708037D01*
X174556905Y-104816463D01*
X174556905Y-104816464D01*
X174524500Y-104937399D01*
X170475500Y-104937399D01*
X170443095Y-104816464D01*
X170380495Y-104708036D01*
X170291964Y-104619505D01*
X170183536Y-104556905D01*
X170183537Y-104556905D01*
X170131997Y-104543095D01*
X170062601Y-104524500D01*
X169937399Y-104524500D01*
X169868003Y-104543095D01*
X169816463Y-104556905D01*
X169708037Y-104619504D01*
X169708034Y-104619506D01*
X169619506Y-104708034D01*
X169619504Y-104708037D01*
X169556905Y-104816463D01*
X169556905Y-104816464D01*
X169524500Y-104937399D01*
X165475500Y-104937399D01*
X165443095Y-104816464D01*
X165380495Y-104708036D01*
X165291964Y-104619505D01*
X165183536Y-104556905D01*
X165183537Y-104556905D01*
X165131997Y-104543095D01*
X165062601Y-104524500D01*
X164937399Y-104524500D01*
X164868003Y-104543095D01*
X164816463Y-104556905D01*
X164708037Y-104619504D01*
X164708034Y-104619506D01*
X164619506Y-104708034D01*
X164619504Y-104708037D01*
X164556905Y-104816463D01*
X164556905Y-104816464D01*
X164524500Y-104937399D01*
X160475500Y-104937399D01*
X160443095Y-104816464D01*
X160380495Y-104708036D01*
X160291964Y-104619505D01*
X160183536Y-104556905D01*
X160183537Y-104556905D01*
X160131997Y-104543095D01*
X160062601Y-104524500D01*
X159937399Y-104524500D01*
X159868003Y-104543095D01*
X159816463Y-104556905D01*
X159708037Y-104619504D01*
X159708034Y-104619506D01*
X159619506Y-104708034D01*
X159619504Y-104708037D01*
X159556905Y-104816463D01*
X159556905Y-104816464D01*
X159524500Y-104937399D01*
X155475500Y-104937399D01*
X155443095Y-104816464D01*
X155380495Y-104708036D01*
X155291964Y-104619505D01*
X155183536Y-104556905D01*
X155183537Y-104556905D01*
X155131997Y-104543095D01*
X155062601Y-104524500D01*
X154937399Y-104524500D01*
X154868003Y-104543095D01*
X154816463Y-104556905D01*
X154708037Y-104619504D01*
X154708034Y-104619506D01*
X154619506Y-104708034D01*
X154619504Y-104708037D01*
X154556905Y-104816463D01*
X154556905Y-104816464D01*
X154524500Y-104937399D01*
X120250500Y-104937399D01*
X120250500Y-104037399D01*
X145424500Y-104037399D01*
X145424500Y-104162601D01*
X145456905Y-104283536D01*
X145519505Y-104391964D01*
X145608036Y-104480495D01*
X145716464Y-104543095D01*
X145837399Y-104575500D01*
X145837401Y-104575500D01*
X145962599Y-104575500D01*
X145962601Y-104575500D01*
X146083536Y-104543095D01*
X146191964Y-104480495D01*
X146280495Y-104391964D01*
X146343095Y-104283536D01*
X146375500Y-104162601D01*
X146375500Y-104037399D01*
X146343095Y-103916464D01*
X146280495Y-103808036D01*
X146191964Y-103719505D01*
X146083536Y-103656905D01*
X146083537Y-103656905D01*
X146043224Y-103646103D01*
X145962601Y-103624500D01*
X145837399Y-103624500D01*
X145756775Y-103646103D01*
X145716463Y-103656905D01*
X145608037Y-103719504D01*
X145608034Y-103719506D01*
X145519506Y-103808034D01*
X145519504Y-103808037D01*
X145456905Y-103916463D01*
X145456905Y-103916464D01*
X145424500Y-104037399D01*
X120250500Y-104037399D01*
X120250500Y-102237399D01*
X148674500Y-102237399D01*
X148674500Y-102362601D01*
X148706905Y-102483536D01*
X148769505Y-102591964D01*
X148858036Y-102680495D01*
X148966464Y-102743095D01*
X149087399Y-102775500D01*
X149087401Y-102775500D01*
X149095458Y-102776561D01*
X149095250Y-102778135D01*
X149153316Y-102795185D01*
X149199071Y-102847989D01*
X149209015Y-102917147D01*
X149193665Y-102961499D01*
X149132640Y-103067198D01*
X149132640Y-103067199D01*
X149100235Y-103188134D01*
X149100235Y-103313336D01*
X149132640Y-103434271D01*
X149195240Y-103542699D01*
X149283771Y-103631230D01*
X149392199Y-103693830D01*
X149513134Y-103726235D01*
X149513136Y-103726235D01*
X149638334Y-103726235D01*
X149638336Y-103726235D01*
X149759271Y-103693830D01*
X149867699Y-103631230D01*
X149956230Y-103542699D01*
X150018830Y-103434271D01*
X150051235Y-103313336D01*
X150051235Y-103188134D01*
X150018830Y-103067199D01*
X149956230Y-102958771D01*
X149867699Y-102870240D01*
X149759271Y-102807640D01*
X149759272Y-102807640D01*
X149638333Y-102775234D01*
X149630277Y-102774174D01*
X149630484Y-102772599D01*
X149572419Y-102755550D01*
X149526664Y-102702746D01*
X149516720Y-102633588D01*
X149532070Y-102589236D01*
X149532792Y-102587983D01*
X149593095Y-102483536D01*
X149625500Y-102362601D01*
X149625500Y-102237399D01*
X149593095Y-102116464D01*
X149530495Y-102008036D01*
X149441964Y-101919505D01*
X149333536Y-101856905D01*
X149333537Y-101856905D01*
X149293224Y-101846103D01*
X149212601Y-101824500D01*
X149087399Y-101824500D01*
X149006775Y-101846103D01*
X148966463Y-101856905D01*
X148858037Y-101919504D01*
X148858034Y-101919506D01*
X148769506Y-102008034D01*
X148769504Y-102008037D01*
X148706905Y-102116463D01*
X148706905Y-102116464D01*
X148674500Y-102237399D01*
X120250500Y-102237399D01*
X120250500Y-100217399D01*
X125654500Y-100217399D01*
X125654500Y-100342601D01*
X125686905Y-100463536D01*
X125749505Y-100571964D01*
X125838036Y-100660495D01*
X125946464Y-100723095D01*
X126067399Y-100755500D01*
X126067401Y-100755500D01*
X126192599Y-100755500D01*
X126192601Y-100755500D01*
X126313536Y-100723095D01*
X126421964Y-100660495D01*
X126510495Y-100571964D01*
X126573095Y-100463536D01*
X126605500Y-100342601D01*
X126605500Y-100217399D01*
X126573095Y-100096464D01*
X126510495Y-99988036D01*
X126459858Y-99937399D01*
X134524500Y-99937399D01*
X134524500Y-100062601D01*
X134556905Y-100183536D01*
X134619505Y-100291964D01*
X134708036Y-100380495D01*
X134816464Y-100443095D01*
X134937399Y-100475500D01*
X134937401Y-100475500D01*
X135062599Y-100475500D01*
X135062601Y-100475500D01*
X135183536Y-100443095D01*
X135291964Y-100380495D01*
X135380495Y-100291964D01*
X135443095Y-100183536D01*
X135450372Y-100156379D01*
X139929500Y-100156379D01*
X139929500Y-100343620D01*
X139966025Y-100527243D01*
X139966027Y-100527251D01*
X140037676Y-100700228D01*
X140037681Y-100700237D01*
X140141697Y-100855907D01*
X140141700Y-100855911D01*
X140274088Y-100988299D01*
X140274092Y-100988302D01*
X140429762Y-101092318D01*
X140429768Y-101092321D01*
X140429769Y-101092322D01*
X140602749Y-101163973D01*
X140786379Y-101200499D01*
X140786383Y-101200500D01*
X140786384Y-101200500D01*
X140973617Y-101200500D01*
X140973618Y-101200499D01*
X141157251Y-101163973D01*
X141330231Y-101092322D01*
X141485908Y-100988302D01*
X141618302Y-100855908D01*
X141722322Y-100700231D01*
X141793973Y-100527251D01*
X141830500Y-100343616D01*
X141830500Y-100156384D01*
X141830499Y-100156379D01*
X145009500Y-100156379D01*
X145009500Y-100343620D01*
X145046025Y-100527243D01*
X145046027Y-100527251D01*
X145117676Y-100700228D01*
X145117681Y-100700237D01*
X145221697Y-100855907D01*
X145221700Y-100855911D01*
X145354088Y-100988299D01*
X145354092Y-100988302D01*
X145509762Y-101092318D01*
X145509768Y-101092321D01*
X145509769Y-101092322D01*
X145682749Y-101163973D01*
X145866379Y-101200499D01*
X145866383Y-101200500D01*
X145866384Y-101200500D01*
X146053617Y-101200500D01*
X146053618Y-101200499D01*
X146237251Y-101163973D01*
X146410231Y-101092322D01*
X146565908Y-100988302D01*
X146698302Y-100855908D01*
X146802322Y-100700231D01*
X146873973Y-100527251D01*
X146910500Y-100343616D01*
X146910500Y-100156384D01*
X146910499Y-100156379D01*
X150089500Y-100156379D01*
X150089500Y-100343620D01*
X150126025Y-100527243D01*
X150126027Y-100527251D01*
X150197676Y-100700228D01*
X150197681Y-100700237D01*
X150301697Y-100855907D01*
X150301700Y-100855911D01*
X150434088Y-100988299D01*
X150434092Y-100988302D01*
X150589762Y-101092318D01*
X150589768Y-101092321D01*
X150589769Y-101092322D01*
X150762749Y-101163973D01*
X150946379Y-101200499D01*
X150946383Y-101200500D01*
X150946384Y-101200500D01*
X151133617Y-101200500D01*
X151133618Y-101200499D01*
X151317251Y-101163973D01*
X151490231Y-101092322D01*
X151645908Y-100988302D01*
X151778302Y-100855908D01*
X151882322Y-100700231D01*
X151953973Y-100527251D01*
X151990500Y-100343616D01*
X151990500Y-100156384D01*
X151990499Y-100156379D01*
X155169500Y-100156379D01*
X155169500Y-100343620D01*
X155206025Y-100527243D01*
X155206027Y-100527251D01*
X155277676Y-100700228D01*
X155277681Y-100700237D01*
X155381697Y-100855907D01*
X155381700Y-100855911D01*
X155514088Y-100988299D01*
X155514092Y-100988302D01*
X155669762Y-101092318D01*
X155669768Y-101092321D01*
X155669769Y-101092322D01*
X155842749Y-101163973D01*
X156026379Y-101200499D01*
X156026383Y-101200500D01*
X156026384Y-101200500D01*
X156213617Y-101200500D01*
X156213618Y-101200499D01*
X156397251Y-101163973D01*
X156570231Y-101092322D01*
X156725908Y-100988302D01*
X156858302Y-100855908D01*
X156962322Y-100700231D01*
X157033973Y-100527251D01*
X157070500Y-100343616D01*
X157070500Y-100156384D01*
X157033973Y-99972749D01*
X157019330Y-99937399D01*
X159524500Y-99937399D01*
X159524500Y-100062601D01*
X159556905Y-100183536D01*
X159619505Y-100291964D01*
X159708036Y-100380495D01*
X159816464Y-100443095D01*
X159937399Y-100475500D01*
X159937401Y-100475500D01*
X160062599Y-100475500D01*
X160062601Y-100475500D01*
X160183536Y-100443095D01*
X160291964Y-100380495D01*
X160380495Y-100291964D01*
X160443095Y-100183536D01*
X160475500Y-100062601D01*
X160475500Y-99937399D01*
X164524500Y-99937399D01*
X164524500Y-100062601D01*
X164556905Y-100183536D01*
X164619505Y-100291964D01*
X164708036Y-100380495D01*
X164816464Y-100443095D01*
X164937399Y-100475500D01*
X164937401Y-100475500D01*
X165062599Y-100475500D01*
X165062601Y-100475500D01*
X165183536Y-100443095D01*
X165291964Y-100380495D01*
X165380495Y-100291964D01*
X165443095Y-100183536D01*
X165475500Y-100062601D01*
X165475500Y-99937399D01*
X169524500Y-99937399D01*
X169524500Y-100062601D01*
X169556905Y-100183536D01*
X169619505Y-100291964D01*
X169708036Y-100380495D01*
X169816464Y-100443095D01*
X169937399Y-100475500D01*
X169937401Y-100475500D01*
X170062599Y-100475500D01*
X170062601Y-100475500D01*
X170183536Y-100443095D01*
X170291964Y-100380495D01*
X170380495Y-100291964D01*
X170443095Y-100183536D01*
X170475500Y-100062601D01*
X170475500Y-99937399D01*
X174524500Y-99937399D01*
X174524500Y-100062601D01*
X174556905Y-100183536D01*
X174619505Y-100291964D01*
X174708036Y-100380495D01*
X174816464Y-100443095D01*
X174937399Y-100475500D01*
X174937401Y-100475500D01*
X175062599Y-100475500D01*
X175062601Y-100475500D01*
X175183536Y-100443095D01*
X175291964Y-100380495D01*
X175380495Y-100291964D01*
X175443095Y-100183536D01*
X175475500Y-100062601D01*
X175475500Y-99937399D01*
X175443095Y-99816464D01*
X175380495Y-99708036D01*
X175291964Y-99619505D01*
X175183536Y-99556905D01*
X175183537Y-99556905D01*
X175143224Y-99546103D01*
X175062601Y-99524500D01*
X174937399Y-99524500D01*
X174856775Y-99546103D01*
X174816463Y-99556905D01*
X174708037Y-99619504D01*
X174708034Y-99619506D01*
X174619506Y-99708034D01*
X174619504Y-99708037D01*
X174556905Y-99816463D01*
X174556905Y-99816464D01*
X174524500Y-99937399D01*
X170475500Y-99937399D01*
X170443095Y-99816464D01*
X170380495Y-99708036D01*
X170291964Y-99619505D01*
X170183536Y-99556905D01*
X170183537Y-99556905D01*
X170143224Y-99546103D01*
X170062601Y-99524500D01*
X169937399Y-99524500D01*
X169856775Y-99546103D01*
X169816463Y-99556905D01*
X169708037Y-99619504D01*
X169708034Y-99619506D01*
X169619506Y-99708034D01*
X169619504Y-99708037D01*
X169556905Y-99816463D01*
X169556905Y-99816464D01*
X169524500Y-99937399D01*
X165475500Y-99937399D01*
X165443095Y-99816464D01*
X165380495Y-99708036D01*
X165291964Y-99619505D01*
X165183536Y-99556905D01*
X165183537Y-99556905D01*
X165143224Y-99546103D01*
X165062601Y-99524500D01*
X164937399Y-99524500D01*
X164856775Y-99546103D01*
X164816463Y-99556905D01*
X164708037Y-99619504D01*
X164708034Y-99619506D01*
X164619506Y-99708034D01*
X164619504Y-99708037D01*
X164556905Y-99816463D01*
X164556905Y-99816464D01*
X164524500Y-99937399D01*
X160475500Y-99937399D01*
X160443095Y-99816464D01*
X160380495Y-99708036D01*
X160291964Y-99619505D01*
X160183536Y-99556905D01*
X160183537Y-99556905D01*
X160143224Y-99546103D01*
X160062601Y-99524500D01*
X159937399Y-99524500D01*
X159856775Y-99546103D01*
X159816463Y-99556905D01*
X159708037Y-99619504D01*
X159708034Y-99619506D01*
X159619506Y-99708034D01*
X159619504Y-99708037D01*
X159556905Y-99816463D01*
X159556905Y-99816464D01*
X159524500Y-99937399D01*
X157019330Y-99937399D01*
X156962322Y-99799769D01*
X156962321Y-99799768D01*
X156962318Y-99799762D01*
X156858302Y-99644092D01*
X156858299Y-99644088D01*
X156725911Y-99511700D01*
X156725907Y-99511697D01*
X156570237Y-99407681D01*
X156570228Y-99407676D01*
X156397251Y-99336027D01*
X156397243Y-99336025D01*
X156213620Y-99299500D01*
X156213616Y-99299500D01*
X156026384Y-99299500D01*
X156026379Y-99299500D01*
X155842756Y-99336025D01*
X155842748Y-99336027D01*
X155669771Y-99407676D01*
X155669762Y-99407681D01*
X155514092Y-99511697D01*
X155514088Y-99511700D01*
X155381700Y-99644088D01*
X155381697Y-99644092D01*
X155277681Y-99799762D01*
X155277676Y-99799771D01*
X155206027Y-99972748D01*
X155206025Y-99972756D01*
X155169500Y-100156379D01*
X151990499Y-100156379D01*
X151953973Y-99972749D01*
X151882322Y-99799769D01*
X151882321Y-99799768D01*
X151882318Y-99799762D01*
X151778302Y-99644092D01*
X151778299Y-99644088D01*
X151645911Y-99511700D01*
X151645907Y-99511697D01*
X151490237Y-99407681D01*
X151490228Y-99407676D01*
X151317251Y-99336027D01*
X151317243Y-99336025D01*
X151133620Y-99299500D01*
X151133616Y-99299500D01*
X150946384Y-99299500D01*
X150946379Y-99299500D01*
X150762756Y-99336025D01*
X150762748Y-99336027D01*
X150589771Y-99407676D01*
X150589762Y-99407681D01*
X150434092Y-99511697D01*
X150434088Y-99511700D01*
X150301700Y-99644088D01*
X150301697Y-99644092D01*
X150197681Y-99799762D01*
X150197676Y-99799771D01*
X150126027Y-99972748D01*
X150126025Y-99972756D01*
X150089500Y-100156379D01*
X146910499Y-100156379D01*
X146873973Y-99972749D01*
X146802322Y-99799769D01*
X146802321Y-99799768D01*
X146802318Y-99799762D01*
X146698302Y-99644092D01*
X146698299Y-99644088D01*
X146565911Y-99511700D01*
X146565907Y-99511697D01*
X146410237Y-99407681D01*
X146410228Y-99407676D01*
X146237251Y-99336027D01*
X146237243Y-99336025D01*
X146053620Y-99299500D01*
X146053616Y-99299500D01*
X145866384Y-99299500D01*
X145866379Y-99299500D01*
X145682756Y-99336025D01*
X145682748Y-99336027D01*
X145509771Y-99407676D01*
X145509762Y-99407681D01*
X145354092Y-99511697D01*
X145354088Y-99511700D01*
X145221700Y-99644088D01*
X145221697Y-99644092D01*
X145117681Y-99799762D01*
X145117676Y-99799771D01*
X145046027Y-99972748D01*
X145046025Y-99972756D01*
X145009500Y-100156379D01*
X141830499Y-100156379D01*
X141793973Y-99972749D01*
X141722322Y-99799769D01*
X141722321Y-99799768D01*
X141722318Y-99799762D01*
X141618302Y-99644092D01*
X141618299Y-99644088D01*
X141485911Y-99511700D01*
X141485907Y-99511697D01*
X141330237Y-99407681D01*
X141330228Y-99407676D01*
X141157251Y-99336027D01*
X141157243Y-99336025D01*
X140973620Y-99299500D01*
X140973616Y-99299500D01*
X140786384Y-99299500D01*
X140786379Y-99299500D01*
X140602756Y-99336025D01*
X140602748Y-99336027D01*
X140429771Y-99407676D01*
X140429762Y-99407681D01*
X140274092Y-99511697D01*
X140274088Y-99511700D01*
X140141700Y-99644088D01*
X140141697Y-99644092D01*
X140037681Y-99799762D01*
X140037676Y-99799771D01*
X139966027Y-99972748D01*
X139966025Y-99972756D01*
X139929500Y-100156379D01*
X135450372Y-100156379D01*
X135475500Y-100062601D01*
X135475500Y-99937399D01*
X135443095Y-99816464D01*
X135380495Y-99708036D01*
X135291964Y-99619505D01*
X135183536Y-99556905D01*
X135183537Y-99556905D01*
X135143224Y-99546103D01*
X135062601Y-99524500D01*
X134937399Y-99524500D01*
X134856775Y-99546103D01*
X134816463Y-99556905D01*
X134708037Y-99619504D01*
X134708034Y-99619506D01*
X134619506Y-99708034D01*
X134619504Y-99708037D01*
X134556905Y-99816463D01*
X134556905Y-99816464D01*
X134524500Y-99937399D01*
X126459858Y-99937399D01*
X126421964Y-99899505D01*
X126313536Y-99836905D01*
X126313537Y-99836905D01*
X126237250Y-99816464D01*
X126192601Y-99804500D01*
X126067399Y-99804500D01*
X126022750Y-99816464D01*
X125946463Y-99836905D01*
X125838037Y-99899504D01*
X125838034Y-99899506D01*
X125749506Y-99988034D01*
X125749504Y-99988037D01*
X125686905Y-100096463D01*
X125686905Y-100096464D01*
X125654500Y-100217399D01*
X120250500Y-100217399D01*
X120250500Y-98862399D01*
X127299500Y-98862399D01*
X127299500Y-98987601D01*
X127331905Y-99108536D01*
X127394505Y-99216964D01*
X127483036Y-99305495D01*
X127591464Y-99368095D01*
X127712399Y-99400500D01*
X127712401Y-99400500D01*
X127837599Y-99400500D01*
X127837601Y-99400500D01*
X127958536Y-99368095D01*
X128066964Y-99305495D01*
X128155495Y-99216964D01*
X128218095Y-99108536D01*
X128250500Y-98987601D01*
X128250500Y-98862399D01*
X128218095Y-98741464D01*
X128155495Y-98633036D01*
X128066964Y-98544505D01*
X127958536Y-98481905D01*
X127958537Y-98481905D01*
X127918224Y-98471103D01*
X127837601Y-98449500D01*
X127712399Y-98449500D01*
X127631775Y-98471103D01*
X127591463Y-98481905D01*
X127483037Y-98544504D01*
X127483034Y-98544506D01*
X127394506Y-98633034D01*
X127394504Y-98633037D01*
X127331905Y-98741463D01*
X127331905Y-98741464D01*
X127299500Y-98862399D01*
X120250500Y-98862399D01*
X120250500Y-97837399D01*
X129054500Y-97837399D01*
X129054500Y-97962601D01*
X129086905Y-98083536D01*
X129149505Y-98191964D01*
X129238036Y-98280495D01*
X129346464Y-98343095D01*
X129467399Y-98375500D01*
X129467401Y-98375500D01*
X129592599Y-98375500D01*
X129592601Y-98375500D01*
X129713536Y-98343095D01*
X129821964Y-98280495D01*
X129910495Y-98191964D01*
X129973095Y-98083536D01*
X130005500Y-97962601D01*
X130005500Y-97837399D01*
X129973095Y-97716464D01*
X129910495Y-97608036D01*
X129828838Y-97526379D01*
X137299500Y-97526379D01*
X137299500Y-97713620D01*
X137336025Y-97897243D01*
X137336027Y-97897251D01*
X137407676Y-98070228D01*
X137407681Y-98070237D01*
X137511697Y-98225907D01*
X137511700Y-98225911D01*
X137644088Y-98358299D01*
X137644092Y-98358302D01*
X137799762Y-98462318D01*
X137799768Y-98462321D01*
X137799769Y-98462322D01*
X137972749Y-98533973D01*
X138156379Y-98570499D01*
X138156383Y-98570500D01*
X138156384Y-98570500D01*
X138343617Y-98570500D01*
X138343618Y-98570499D01*
X138527251Y-98533973D01*
X138700231Y-98462322D01*
X138855908Y-98358302D01*
X138988302Y-98225908D01*
X139092322Y-98070231D01*
X139163973Y-97897251D01*
X139200500Y-97713616D01*
X139200500Y-97526384D01*
X139200499Y-97526379D01*
X157799500Y-97526379D01*
X157799500Y-97713620D01*
X157836025Y-97897243D01*
X157836027Y-97897251D01*
X157907676Y-98070228D01*
X157907681Y-98070237D01*
X158011697Y-98225907D01*
X158011700Y-98225911D01*
X158144088Y-98358299D01*
X158144092Y-98358302D01*
X158299762Y-98462318D01*
X158299768Y-98462321D01*
X158299769Y-98462322D01*
X158472749Y-98533973D01*
X158656379Y-98570499D01*
X158656383Y-98570500D01*
X158656384Y-98570500D01*
X158843617Y-98570500D01*
X158843618Y-98570499D01*
X159027251Y-98533973D01*
X159200231Y-98462322D01*
X159355908Y-98358302D01*
X159488302Y-98225908D01*
X159592322Y-98070231D01*
X159663973Y-97897251D01*
X159700500Y-97713616D01*
X159700500Y-97526384D01*
X159663973Y-97342749D01*
X159592322Y-97169769D01*
X159592321Y-97169768D01*
X159592318Y-97169762D01*
X159488302Y-97014092D01*
X159488299Y-97014088D01*
X159355911Y-96881700D01*
X159355907Y-96881697D01*
X159200237Y-96777681D01*
X159200228Y-96777676D01*
X159027251Y-96706027D01*
X159027243Y-96706025D01*
X158843620Y-96669500D01*
X158843616Y-96669500D01*
X158656384Y-96669500D01*
X158656379Y-96669500D01*
X158472756Y-96706025D01*
X158472748Y-96706027D01*
X158299771Y-96777676D01*
X158299762Y-96777681D01*
X158144092Y-96881697D01*
X158144088Y-96881700D01*
X158011700Y-97014088D01*
X158011697Y-97014092D01*
X157907681Y-97169762D01*
X157907676Y-97169771D01*
X157836027Y-97342748D01*
X157836025Y-97342756D01*
X157799500Y-97526379D01*
X139200499Y-97526379D01*
X139163973Y-97342749D01*
X139092322Y-97169769D01*
X139092321Y-97169768D01*
X139092318Y-97169762D01*
X138988302Y-97014092D01*
X138988299Y-97014088D01*
X138855911Y-96881700D01*
X138855907Y-96881697D01*
X138700237Y-96777681D01*
X138700228Y-96777676D01*
X138527251Y-96706027D01*
X138527243Y-96706025D01*
X138343620Y-96669500D01*
X138343616Y-96669500D01*
X138156384Y-96669500D01*
X138156379Y-96669500D01*
X137972756Y-96706025D01*
X137972748Y-96706027D01*
X137799771Y-96777676D01*
X137799762Y-96777681D01*
X137644092Y-96881697D01*
X137644088Y-96881700D01*
X137511700Y-97014088D01*
X137511697Y-97014092D01*
X137407681Y-97169762D01*
X137407676Y-97169771D01*
X137336027Y-97342748D01*
X137336025Y-97342756D01*
X137299500Y-97526379D01*
X129828838Y-97526379D01*
X129821964Y-97519505D01*
X129713536Y-97456905D01*
X129713537Y-97456905D01*
X129673224Y-97446103D01*
X129592601Y-97424500D01*
X129467399Y-97424500D01*
X129386775Y-97446103D01*
X129346463Y-97456905D01*
X129238037Y-97519504D01*
X129238034Y-97519506D01*
X129149506Y-97608034D01*
X129149504Y-97608037D01*
X129086905Y-97716463D01*
X129086905Y-97716464D01*
X129054500Y-97837399D01*
X120250500Y-97837399D01*
X120250500Y-95857399D01*
X141154500Y-95857399D01*
X141154500Y-95982601D01*
X141186905Y-96103536D01*
X141249505Y-96211964D01*
X141338036Y-96300495D01*
X141446464Y-96363095D01*
X141567399Y-96395500D01*
X141567401Y-96395500D01*
X141692599Y-96395500D01*
X141692601Y-96395500D01*
X141813536Y-96363095D01*
X141921964Y-96300495D01*
X142010495Y-96211964D01*
X142073095Y-96103536D01*
X142105500Y-95982601D01*
X142105500Y-95867399D01*
X142684500Y-95867399D01*
X142684500Y-95992601D01*
X142716905Y-96113536D01*
X142779505Y-96221964D01*
X142868036Y-96310495D01*
X142976464Y-96373095D01*
X143097399Y-96405500D01*
X143097401Y-96405500D01*
X143222599Y-96405500D01*
X143222601Y-96405500D01*
X143290154Y-96387399D01*
X152224500Y-96387399D01*
X152224500Y-96512601D01*
X152256905Y-96633536D01*
X152319505Y-96741964D01*
X152408036Y-96830495D01*
X152516464Y-96893095D01*
X152637399Y-96925500D01*
X152637401Y-96925500D01*
X152762599Y-96925500D01*
X152762601Y-96925500D01*
X152883536Y-96893095D01*
X152991964Y-96830495D01*
X153080495Y-96741964D01*
X153143095Y-96633536D01*
X153175500Y-96512601D01*
X153175500Y-96387399D01*
X153143095Y-96266464D01*
X153080495Y-96158036D01*
X152991964Y-96069505D01*
X152883536Y-96006905D01*
X152883537Y-96006905D01*
X152843224Y-95996103D01*
X152762601Y-95974500D01*
X152637399Y-95974500D01*
X152556775Y-95996103D01*
X152516463Y-96006905D01*
X152408037Y-96069504D01*
X152408034Y-96069506D01*
X152319506Y-96158034D01*
X152319504Y-96158037D01*
X152256905Y-96266463D01*
X152256905Y-96266464D01*
X152224500Y-96387399D01*
X143290154Y-96387399D01*
X143343536Y-96373095D01*
X143451964Y-96310495D01*
X143540495Y-96221964D01*
X143603095Y-96113536D01*
X143635500Y-95992601D01*
X143635500Y-95867399D01*
X143603095Y-95746464D01*
X143540495Y-95638036D01*
X143451964Y-95549505D01*
X143343536Y-95486905D01*
X143343537Y-95486905D01*
X143300973Y-95475500D01*
X143222601Y-95454500D01*
X143097399Y-95454500D01*
X143019027Y-95475500D01*
X142976463Y-95486905D01*
X142868037Y-95549504D01*
X142868034Y-95549506D01*
X142779506Y-95638034D01*
X142779504Y-95638037D01*
X142716905Y-95746463D01*
X142716905Y-95746464D01*
X142684500Y-95867399D01*
X142105500Y-95867399D01*
X142105500Y-95857399D01*
X142073095Y-95736464D01*
X142010495Y-95628036D01*
X141921964Y-95539505D01*
X141813536Y-95476905D01*
X141813537Y-95476905D01*
X141773224Y-95466103D01*
X141692601Y-95444500D01*
X141567399Y-95444500D01*
X141486775Y-95466103D01*
X141446463Y-95476905D01*
X141338037Y-95539504D01*
X141338034Y-95539506D01*
X141249506Y-95628034D01*
X141249504Y-95628037D01*
X141186905Y-95736463D01*
X141186905Y-95736464D01*
X141154500Y-95857399D01*
X120250500Y-95857399D01*
X120250500Y-94662399D01*
X130574500Y-94662399D01*
X130574500Y-94787601D01*
X130606905Y-94908536D01*
X130669505Y-95016964D01*
X130758036Y-95105495D01*
X130866464Y-95168095D01*
X130987399Y-95200500D01*
X130987401Y-95200500D01*
X131112599Y-95200500D01*
X131112601Y-95200500D01*
X131233536Y-95168095D01*
X131341964Y-95105495D01*
X131430495Y-95016964D01*
X131476431Y-94937399D01*
X134524500Y-94937399D01*
X134524500Y-95062601D01*
X134556905Y-95183536D01*
X134619505Y-95291964D01*
X134708036Y-95380495D01*
X134816464Y-95443095D01*
X134937399Y-95475500D01*
X134937401Y-95475500D01*
X135062599Y-95475500D01*
X135062601Y-95475500D01*
X135183536Y-95443095D01*
X135291964Y-95380495D01*
X135380495Y-95291964D01*
X135443095Y-95183536D01*
X135468855Y-95087399D01*
X154049500Y-95087399D01*
X154049500Y-95212601D01*
X154081905Y-95333536D01*
X154144505Y-95441964D01*
X154233036Y-95530495D01*
X154341464Y-95593095D01*
X154462399Y-95625500D01*
X154462401Y-95625500D01*
X154587599Y-95625500D01*
X154587601Y-95625500D01*
X154708536Y-95593095D01*
X154816964Y-95530495D01*
X154905495Y-95441964D01*
X154968095Y-95333536D01*
X155000500Y-95212601D01*
X155000500Y-95087399D01*
X154968095Y-94966464D01*
X154951315Y-94937399D01*
X164524500Y-94937399D01*
X164524500Y-95062601D01*
X164556905Y-95183536D01*
X164619505Y-95291964D01*
X164708036Y-95380495D01*
X164816464Y-95443095D01*
X164937399Y-95475500D01*
X164937401Y-95475500D01*
X165062599Y-95475500D01*
X165062601Y-95475500D01*
X165183536Y-95443095D01*
X165291964Y-95380495D01*
X165380495Y-95291964D01*
X165443095Y-95183536D01*
X165475500Y-95062601D01*
X165475500Y-94937399D01*
X169524500Y-94937399D01*
X169524500Y-95062601D01*
X169556905Y-95183536D01*
X169619505Y-95291964D01*
X169708036Y-95380495D01*
X169816464Y-95443095D01*
X169937399Y-95475500D01*
X169937401Y-95475500D01*
X170062599Y-95475500D01*
X170062601Y-95475500D01*
X170183536Y-95443095D01*
X170291964Y-95380495D01*
X170380495Y-95291964D01*
X170443095Y-95183536D01*
X170475500Y-95062601D01*
X170475500Y-94937399D01*
X174524500Y-94937399D01*
X174524500Y-95062601D01*
X174556905Y-95183536D01*
X174619505Y-95291964D01*
X174708036Y-95380495D01*
X174816464Y-95443095D01*
X174937399Y-95475500D01*
X174937401Y-95475500D01*
X175062599Y-95475500D01*
X175062601Y-95475500D01*
X175183536Y-95443095D01*
X175291964Y-95380495D01*
X175380495Y-95291964D01*
X175443095Y-95183536D01*
X175475500Y-95062601D01*
X175475500Y-94937399D01*
X175443095Y-94816464D01*
X175380495Y-94708036D01*
X175291964Y-94619505D01*
X175183536Y-94556905D01*
X175183537Y-94556905D01*
X175125910Y-94541464D01*
X175062601Y-94524500D01*
X174937399Y-94524500D01*
X174874090Y-94541464D01*
X174816463Y-94556905D01*
X174708037Y-94619504D01*
X174708034Y-94619506D01*
X174619506Y-94708034D01*
X174619504Y-94708037D01*
X174556905Y-94816463D01*
X174556905Y-94816464D01*
X174524500Y-94937399D01*
X170475500Y-94937399D01*
X170443095Y-94816464D01*
X170380495Y-94708036D01*
X170291964Y-94619505D01*
X170183536Y-94556905D01*
X170183537Y-94556905D01*
X170125910Y-94541464D01*
X170062601Y-94524500D01*
X169937399Y-94524500D01*
X169874090Y-94541464D01*
X169816463Y-94556905D01*
X169708037Y-94619504D01*
X169708034Y-94619506D01*
X169619506Y-94708034D01*
X169619504Y-94708037D01*
X169556905Y-94816463D01*
X169556905Y-94816464D01*
X169524500Y-94937399D01*
X165475500Y-94937399D01*
X165443095Y-94816464D01*
X165380495Y-94708036D01*
X165291964Y-94619505D01*
X165183536Y-94556905D01*
X165183537Y-94556905D01*
X165125910Y-94541464D01*
X165062601Y-94524500D01*
X164937399Y-94524500D01*
X164874090Y-94541464D01*
X164816463Y-94556905D01*
X164708037Y-94619504D01*
X164708034Y-94619506D01*
X164619506Y-94708034D01*
X164619504Y-94708037D01*
X164556905Y-94816463D01*
X164556905Y-94816464D01*
X164524500Y-94937399D01*
X154951315Y-94937399D01*
X154905495Y-94858036D01*
X154816964Y-94769505D01*
X154708536Y-94706905D01*
X154708537Y-94706905D01*
X154668224Y-94696103D01*
X154587601Y-94674500D01*
X154462399Y-94674500D01*
X154381775Y-94696103D01*
X154341463Y-94706905D01*
X154233037Y-94769504D01*
X154233034Y-94769506D01*
X154144506Y-94858034D01*
X154144504Y-94858037D01*
X154081905Y-94966463D01*
X154081905Y-94966464D01*
X154049500Y-95087399D01*
X135468855Y-95087399D01*
X135475500Y-95062601D01*
X135475500Y-94937399D01*
X135443095Y-94816464D01*
X135380495Y-94708036D01*
X135291964Y-94619505D01*
X135183536Y-94556905D01*
X135183537Y-94556905D01*
X135125910Y-94541464D01*
X135062601Y-94524500D01*
X134937399Y-94524500D01*
X134874090Y-94541464D01*
X134816463Y-94556905D01*
X134708037Y-94619504D01*
X134708034Y-94619506D01*
X134619506Y-94708034D01*
X134619504Y-94708037D01*
X134556905Y-94816463D01*
X134556905Y-94816464D01*
X134524500Y-94937399D01*
X131476431Y-94937399D01*
X131493095Y-94908536D01*
X131525500Y-94787601D01*
X131525500Y-94662399D01*
X131493095Y-94541464D01*
X131430495Y-94433036D01*
X131341964Y-94344505D01*
X131233536Y-94281905D01*
X131233537Y-94281905D01*
X131193224Y-94271103D01*
X131112601Y-94249500D01*
X130987399Y-94249500D01*
X130906775Y-94271103D01*
X130866463Y-94281905D01*
X130758037Y-94344504D01*
X130758034Y-94344506D01*
X130669506Y-94433034D01*
X130669504Y-94433037D01*
X130606905Y-94541463D01*
X130593071Y-94593094D01*
X130574500Y-94662399D01*
X120250500Y-94662399D01*
X120250500Y-94087399D01*
X126724500Y-94087399D01*
X126724500Y-94212601D01*
X126756905Y-94333536D01*
X126819505Y-94441964D01*
X126908036Y-94530495D01*
X127016464Y-94593095D01*
X127137399Y-94625500D01*
X127137401Y-94625500D01*
X127262599Y-94625500D01*
X127262601Y-94625500D01*
X127383536Y-94593095D01*
X127491964Y-94530495D01*
X127580495Y-94441964D01*
X127643095Y-94333536D01*
X127675500Y-94212601D01*
X127675500Y-94087399D01*
X127643095Y-93966464D01*
X127580495Y-93858036D01*
X127491964Y-93769505D01*
X127389655Y-93710438D01*
X139299500Y-93710438D01*
X139299500Y-93789562D01*
X139319979Y-93865987D01*
X139319979Y-93865988D01*
X139345106Y-93909511D01*
X139359540Y-93934511D01*
X139415489Y-93990460D01*
X139484012Y-94030021D01*
X139560438Y-94050500D01*
X139560440Y-94050500D01*
X139639560Y-94050500D01*
X139639562Y-94050500D01*
X139715988Y-94030021D01*
X139784511Y-93990460D01*
X139865460Y-93909511D01*
X139905021Y-93840988D01*
X139925500Y-93764562D01*
X139925500Y-93685438D01*
X139905021Y-93609012D01*
X139865460Y-93540489D01*
X139809511Y-93484540D01*
X139809510Y-93484539D01*
X139780548Y-93467818D01*
X139740988Y-93444979D01*
X139664562Y-93424500D01*
X139585438Y-93424500D01*
X139509012Y-93444979D01*
X139509011Y-93444979D01*
X139440489Y-93484539D01*
X139359539Y-93565489D01*
X139319979Y-93634011D01*
X139319979Y-93634012D01*
X139299500Y-93710438D01*
X127389655Y-93710438D01*
X127383536Y-93706905D01*
X127383537Y-93706905D01*
X127343224Y-93696103D01*
X127262601Y-93674500D01*
X127137399Y-93674500D01*
X127056775Y-93696103D01*
X127016463Y-93706905D01*
X126908037Y-93769504D01*
X126908034Y-93769506D01*
X126819506Y-93858034D01*
X126819504Y-93858037D01*
X126756905Y-93966463D01*
X126756905Y-93966464D01*
X126724500Y-94087399D01*
X120250500Y-94087399D01*
X120250500Y-92446379D01*
X137299500Y-92446379D01*
X137299500Y-92633620D01*
X137336025Y-92817243D01*
X137336027Y-92817251D01*
X137407676Y-92990228D01*
X137407681Y-92990237D01*
X137511697Y-93145907D01*
X137511700Y-93145911D01*
X137644088Y-93278299D01*
X137644092Y-93278302D01*
X137799762Y-93382318D01*
X137799768Y-93382321D01*
X137799769Y-93382322D01*
X137972749Y-93453973D01*
X138126416Y-93484539D01*
X138156379Y-93490499D01*
X138156383Y-93490500D01*
X138156384Y-93490500D01*
X138343617Y-93490500D01*
X138343618Y-93490499D01*
X138527251Y-93453973D01*
X138700231Y-93382322D01*
X138855908Y-93278302D01*
X138988302Y-93145908D01*
X139092322Y-92990231D01*
X139163973Y-92817251D01*
X139200500Y-92633616D01*
X139200500Y-92446384D01*
X139200499Y-92446379D01*
X157799500Y-92446379D01*
X157799500Y-92633620D01*
X157836025Y-92817243D01*
X157836027Y-92817251D01*
X157907676Y-92990228D01*
X157907681Y-92990237D01*
X158011697Y-93145907D01*
X158011700Y-93145911D01*
X158144088Y-93278299D01*
X158144092Y-93278302D01*
X158299762Y-93382318D01*
X158299768Y-93382321D01*
X158299769Y-93382322D01*
X158472749Y-93453973D01*
X158626416Y-93484539D01*
X158656379Y-93490499D01*
X158656383Y-93490500D01*
X158656384Y-93490500D01*
X158843617Y-93490500D01*
X158843618Y-93490499D01*
X159027251Y-93453973D01*
X159200231Y-93382322D01*
X159355908Y-93278302D01*
X159488302Y-93145908D01*
X159592322Y-92990231D01*
X159663973Y-92817251D01*
X159700500Y-92633616D01*
X159700500Y-92446384D01*
X159663973Y-92262749D01*
X159592322Y-92089769D01*
X159592321Y-92089768D01*
X159592318Y-92089762D01*
X159488302Y-91934092D01*
X159488299Y-91934088D01*
X159355911Y-91801700D01*
X159355907Y-91801697D01*
X159200237Y-91697681D01*
X159200228Y-91697676D01*
X159027251Y-91626027D01*
X159027243Y-91626025D01*
X158843620Y-91589500D01*
X158843616Y-91589500D01*
X158656384Y-91589500D01*
X158656379Y-91589500D01*
X158472756Y-91626025D01*
X158472748Y-91626027D01*
X158299771Y-91697676D01*
X158299762Y-91697681D01*
X158144092Y-91801697D01*
X158144088Y-91801700D01*
X158011700Y-91934088D01*
X158011697Y-91934092D01*
X157907681Y-92089762D01*
X157907676Y-92089771D01*
X157836027Y-92262748D01*
X157836025Y-92262756D01*
X157799500Y-92446379D01*
X139200499Y-92446379D01*
X139163973Y-92262749D01*
X139092322Y-92089769D01*
X139092321Y-92089768D01*
X139092318Y-92089762D01*
X138988302Y-91934092D01*
X138988299Y-91934088D01*
X138855911Y-91801700D01*
X138855907Y-91801697D01*
X138797094Y-91762399D01*
X146524500Y-91762399D01*
X146524500Y-91887601D01*
X146556905Y-92008536D01*
X146619505Y-92116964D01*
X146708036Y-92205495D01*
X146816464Y-92268095D01*
X146937399Y-92300500D01*
X146937401Y-92300500D01*
X147062599Y-92300500D01*
X147062601Y-92300500D01*
X147183536Y-92268095D01*
X147291964Y-92205495D01*
X147380495Y-92116964D01*
X147443095Y-92008536D01*
X147475500Y-91887601D01*
X147475500Y-91762399D01*
X154049500Y-91762399D01*
X154049500Y-91887601D01*
X154081905Y-92008536D01*
X154144505Y-92116964D01*
X154233036Y-92205495D01*
X154341464Y-92268095D01*
X154462399Y-92300500D01*
X154462401Y-92300500D01*
X154587599Y-92300500D01*
X154587601Y-92300500D01*
X154708536Y-92268095D01*
X154816964Y-92205495D01*
X154905495Y-92116964D01*
X154968095Y-92008536D01*
X155000500Y-91887601D01*
X155000500Y-91762399D01*
X154968095Y-91641464D01*
X154905495Y-91533036D01*
X154816964Y-91444505D01*
X154708536Y-91381905D01*
X154708537Y-91381905D01*
X154668224Y-91371103D01*
X154587601Y-91349500D01*
X154462399Y-91349500D01*
X154381775Y-91371103D01*
X154341463Y-91381905D01*
X154233037Y-91444504D01*
X154233034Y-91444506D01*
X154144506Y-91533034D01*
X154144504Y-91533037D01*
X154081905Y-91641463D01*
X154081905Y-91641464D01*
X154049500Y-91762399D01*
X147475500Y-91762399D01*
X147443095Y-91641464D01*
X147408781Y-91582030D01*
X147404905Y-91570813D01*
X147403795Y-91547294D01*
X147398244Y-91524410D01*
X147402097Y-91511287D01*
X147401613Y-91501021D01*
X147408725Y-91488714D01*
X147414717Y-91468311D01*
X147428461Y-91444506D01*
X147478095Y-91358536D01*
X147510500Y-91237601D01*
X147510500Y-91112399D01*
X147478095Y-90991464D01*
X147415495Y-90883036D01*
X147326964Y-90794505D01*
X147218536Y-90731905D01*
X147218537Y-90731905D01*
X147178224Y-90721103D01*
X147097601Y-90699500D01*
X146972399Y-90699500D01*
X146891775Y-90721103D01*
X146851463Y-90731905D01*
X146743037Y-90794504D01*
X146743034Y-90794506D01*
X146654506Y-90883034D01*
X146654504Y-90883037D01*
X146591905Y-90991463D01*
X146591905Y-90991464D01*
X146559500Y-91112399D01*
X146559500Y-91237601D01*
X146574370Y-91293094D01*
X146591905Y-91358536D01*
X146620283Y-91407689D01*
X146636754Y-91475590D01*
X146620283Y-91531687D01*
X146556905Y-91641463D01*
X146556905Y-91641464D01*
X146524500Y-91762399D01*
X138797094Y-91762399D01*
X138700237Y-91697681D01*
X138700228Y-91697676D01*
X138527251Y-91626027D01*
X138527243Y-91626025D01*
X138343620Y-91589500D01*
X138343616Y-91589500D01*
X138156384Y-91589500D01*
X138156379Y-91589500D01*
X137972756Y-91626025D01*
X137972748Y-91626027D01*
X137799771Y-91697676D01*
X137799762Y-91697681D01*
X137644092Y-91801697D01*
X137644088Y-91801700D01*
X137511700Y-91934088D01*
X137511697Y-91934092D01*
X137407681Y-92089762D01*
X137407676Y-92089771D01*
X137336027Y-92262748D01*
X137336025Y-92262756D01*
X137299500Y-92446379D01*
X120250500Y-92446379D01*
X120250500Y-90787399D01*
X128174500Y-90787399D01*
X128174500Y-90912601D01*
X128206905Y-91033536D01*
X128269505Y-91141964D01*
X128358036Y-91230495D01*
X128466464Y-91293095D01*
X128587399Y-91325500D01*
X128587401Y-91325500D01*
X128712599Y-91325500D01*
X128712601Y-91325500D01*
X128833536Y-91293095D01*
X128941964Y-91230495D01*
X129030495Y-91141964D01*
X129093095Y-91033536D01*
X129125500Y-90912601D01*
X129125500Y-90787399D01*
X129093095Y-90666464D01*
X129030495Y-90558036D01*
X128941964Y-90469505D01*
X128833536Y-90406905D01*
X128833537Y-90406905D01*
X128793224Y-90396103D01*
X128712601Y-90374500D01*
X128587399Y-90374500D01*
X128506775Y-90396103D01*
X128466463Y-90406905D01*
X128358037Y-90469504D01*
X128358034Y-90469506D01*
X128269506Y-90558034D01*
X128269504Y-90558037D01*
X128206905Y-90666463D01*
X128206905Y-90666464D01*
X128174500Y-90787399D01*
X120250500Y-90787399D01*
X120250500Y-89937399D01*
X129524500Y-89937399D01*
X129524500Y-90062601D01*
X129556905Y-90183536D01*
X129619505Y-90291964D01*
X129708036Y-90380495D01*
X129816464Y-90443095D01*
X129937399Y-90475500D01*
X129937401Y-90475500D01*
X130062599Y-90475500D01*
X130062601Y-90475500D01*
X130183536Y-90443095D01*
X130291964Y-90380495D01*
X130380495Y-90291964D01*
X130443095Y-90183536D01*
X130475500Y-90062601D01*
X130475500Y-89937399D01*
X134524500Y-89937399D01*
X134524500Y-90062601D01*
X134556905Y-90183536D01*
X134619505Y-90291964D01*
X134708036Y-90380495D01*
X134816464Y-90443095D01*
X134937399Y-90475500D01*
X134937401Y-90475500D01*
X135062599Y-90475500D01*
X135062601Y-90475500D01*
X135183536Y-90443095D01*
X135291964Y-90380495D01*
X135380495Y-90291964D01*
X135443095Y-90183536D01*
X135475500Y-90062601D01*
X135475500Y-89957399D01*
X141174500Y-89957399D01*
X141174500Y-90082601D01*
X141206905Y-90203536D01*
X141269505Y-90311964D01*
X141358036Y-90400495D01*
X141466464Y-90463095D01*
X141587399Y-90495500D01*
X141587401Y-90495500D01*
X141712599Y-90495500D01*
X141712601Y-90495500D01*
X141833536Y-90463095D01*
X141941964Y-90400495D01*
X142030495Y-90311964D01*
X142093095Y-90203536D01*
X142125500Y-90082601D01*
X142125500Y-89957399D01*
X142674500Y-89957399D01*
X142674500Y-90082601D01*
X142706905Y-90203536D01*
X142769505Y-90311964D01*
X142858036Y-90400495D01*
X142966464Y-90463095D01*
X143087399Y-90495500D01*
X143087401Y-90495500D01*
X143212599Y-90495500D01*
X143212601Y-90495500D01*
X143333536Y-90463095D01*
X143441964Y-90400495D01*
X143530495Y-90311964D01*
X143593095Y-90203536D01*
X143625500Y-90082601D01*
X143625500Y-89957399D01*
X143593095Y-89836464D01*
X143579201Y-89812399D01*
X149624500Y-89812399D01*
X149624500Y-89937601D01*
X149656905Y-90058536D01*
X149719505Y-90166964D01*
X149808036Y-90255495D01*
X149916464Y-90318095D01*
X150037399Y-90350500D01*
X150037401Y-90350500D01*
X150162599Y-90350500D01*
X150162601Y-90350500D01*
X150283536Y-90318095D01*
X150391964Y-90255495D01*
X150480495Y-90166964D01*
X150543095Y-90058536D01*
X150575500Y-89937601D01*
X150575500Y-89937399D01*
X164524500Y-89937399D01*
X164524500Y-90062601D01*
X164556905Y-90183536D01*
X164619505Y-90291964D01*
X164708036Y-90380495D01*
X164816464Y-90443095D01*
X164937399Y-90475500D01*
X164937401Y-90475500D01*
X165062599Y-90475500D01*
X165062601Y-90475500D01*
X165183536Y-90443095D01*
X165291964Y-90380495D01*
X165380495Y-90291964D01*
X165443095Y-90183536D01*
X165475500Y-90062601D01*
X165475500Y-89937399D01*
X169524500Y-89937399D01*
X169524500Y-90062601D01*
X169556905Y-90183536D01*
X169619505Y-90291964D01*
X169708036Y-90380495D01*
X169816464Y-90443095D01*
X169937399Y-90475500D01*
X169937401Y-90475500D01*
X170062599Y-90475500D01*
X170062601Y-90475500D01*
X170183536Y-90443095D01*
X170291964Y-90380495D01*
X170380495Y-90291964D01*
X170443095Y-90183536D01*
X170475500Y-90062601D01*
X170475500Y-89937399D01*
X174524500Y-89937399D01*
X174524500Y-90062601D01*
X174556905Y-90183536D01*
X174619505Y-90291964D01*
X174708036Y-90380495D01*
X174816464Y-90443095D01*
X174937399Y-90475500D01*
X174937401Y-90475500D01*
X175062599Y-90475500D01*
X175062601Y-90475500D01*
X175183536Y-90443095D01*
X175291964Y-90380495D01*
X175380495Y-90291964D01*
X175443095Y-90183536D01*
X175475500Y-90062601D01*
X175475500Y-89937399D01*
X175443095Y-89816464D01*
X175380495Y-89708036D01*
X175291964Y-89619505D01*
X175183536Y-89556905D01*
X175183537Y-89556905D01*
X175137241Y-89544500D01*
X175062601Y-89524500D01*
X174937399Y-89524500D01*
X174862759Y-89544500D01*
X174816463Y-89556905D01*
X174708037Y-89619504D01*
X174708034Y-89619506D01*
X174619506Y-89708034D01*
X174619504Y-89708037D01*
X174556905Y-89816463D01*
X174556905Y-89816464D01*
X174524500Y-89937399D01*
X170475500Y-89937399D01*
X170443095Y-89816464D01*
X170380495Y-89708036D01*
X170291964Y-89619505D01*
X170183536Y-89556905D01*
X170183537Y-89556905D01*
X170137241Y-89544500D01*
X170062601Y-89524500D01*
X169937399Y-89524500D01*
X169862759Y-89544500D01*
X169816463Y-89556905D01*
X169708037Y-89619504D01*
X169708034Y-89619506D01*
X169619506Y-89708034D01*
X169619504Y-89708037D01*
X169556905Y-89816463D01*
X169556905Y-89816464D01*
X169524500Y-89937399D01*
X165475500Y-89937399D01*
X165443095Y-89816464D01*
X165380495Y-89708036D01*
X165291964Y-89619505D01*
X165183536Y-89556905D01*
X165183537Y-89556905D01*
X165137241Y-89544500D01*
X165062601Y-89524500D01*
X164937399Y-89524500D01*
X164862759Y-89544500D01*
X164816463Y-89556905D01*
X164708037Y-89619504D01*
X164708034Y-89619506D01*
X164619506Y-89708034D01*
X164619504Y-89708037D01*
X164556905Y-89816463D01*
X164556905Y-89816464D01*
X164524500Y-89937399D01*
X150575500Y-89937399D01*
X150575500Y-89812399D01*
X150543095Y-89691464D01*
X150480495Y-89583036D01*
X150391964Y-89494505D01*
X150283536Y-89431905D01*
X150283537Y-89431905D01*
X150243224Y-89421103D01*
X150162601Y-89399500D01*
X150037399Y-89399500D01*
X149956775Y-89421103D01*
X149916463Y-89431905D01*
X149808037Y-89494504D01*
X149808034Y-89494506D01*
X149719506Y-89583034D01*
X149719504Y-89583037D01*
X149656905Y-89691463D01*
X149656905Y-89691464D01*
X149624500Y-89812399D01*
X143579201Y-89812399D01*
X143530495Y-89728036D01*
X143441964Y-89639505D01*
X143333536Y-89576905D01*
X143333537Y-89576905D01*
X143293224Y-89566103D01*
X143212601Y-89544500D01*
X143087399Y-89544500D01*
X143006775Y-89566103D01*
X142966463Y-89576905D01*
X142858037Y-89639504D01*
X142858034Y-89639506D01*
X142769506Y-89728034D01*
X142769504Y-89728037D01*
X142706905Y-89836463D01*
X142706905Y-89836464D01*
X142674500Y-89957399D01*
X142125500Y-89957399D01*
X142093095Y-89836464D01*
X142030495Y-89728036D01*
X141941964Y-89639505D01*
X141833536Y-89576905D01*
X141833537Y-89576905D01*
X141793224Y-89566103D01*
X141712601Y-89544500D01*
X141587399Y-89544500D01*
X141506775Y-89566103D01*
X141466463Y-89576905D01*
X141358037Y-89639504D01*
X141358034Y-89639506D01*
X141269506Y-89728034D01*
X141269504Y-89728037D01*
X141206905Y-89836463D01*
X141206905Y-89836464D01*
X141174500Y-89957399D01*
X135475500Y-89957399D01*
X135475500Y-89937399D01*
X135443095Y-89816464D01*
X135380495Y-89708036D01*
X135291964Y-89619505D01*
X135183536Y-89556905D01*
X135183537Y-89556905D01*
X135137241Y-89544500D01*
X135062601Y-89524500D01*
X134937399Y-89524500D01*
X134862759Y-89544500D01*
X134816463Y-89556905D01*
X134708037Y-89619504D01*
X134708034Y-89619506D01*
X134619506Y-89708034D01*
X134619504Y-89708037D01*
X134556905Y-89816463D01*
X134556905Y-89816464D01*
X134524500Y-89937399D01*
X130475500Y-89937399D01*
X130443095Y-89816464D01*
X130380495Y-89708036D01*
X130291964Y-89619505D01*
X130183536Y-89556905D01*
X130183537Y-89556905D01*
X130137241Y-89544500D01*
X130062601Y-89524500D01*
X129937399Y-89524500D01*
X129862759Y-89544500D01*
X129816463Y-89556905D01*
X129708037Y-89619504D01*
X129708034Y-89619506D01*
X129619506Y-89708034D01*
X129619504Y-89708037D01*
X129556905Y-89816463D01*
X129556905Y-89816464D01*
X129524500Y-89937399D01*
X120250500Y-89937399D01*
X120250500Y-87366379D01*
X137299500Y-87366379D01*
X137299500Y-87553620D01*
X137336025Y-87737243D01*
X137336027Y-87737251D01*
X137407676Y-87910228D01*
X137407681Y-87910237D01*
X137511697Y-88065907D01*
X137511700Y-88065911D01*
X137644088Y-88198299D01*
X137644092Y-88198302D01*
X137799762Y-88302318D01*
X137799768Y-88302321D01*
X137799769Y-88302322D01*
X137972749Y-88373973D01*
X138156379Y-88410499D01*
X138156383Y-88410500D01*
X138156384Y-88410500D01*
X138343617Y-88410500D01*
X138343618Y-88410499D01*
X138527251Y-88373973D01*
X138700231Y-88302322D01*
X138855908Y-88198302D01*
X138988302Y-88065908D01*
X139092322Y-87910231D01*
X139163973Y-87737251D01*
X139200500Y-87553616D01*
X139200500Y-87366384D01*
X139200499Y-87366379D01*
X157799500Y-87366379D01*
X157799500Y-87553620D01*
X157836025Y-87737243D01*
X157836027Y-87737251D01*
X157907676Y-87910228D01*
X157907681Y-87910237D01*
X158011697Y-88065907D01*
X158011700Y-88065911D01*
X158144088Y-88198299D01*
X158144092Y-88198302D01*
X158299762Y-88302318D01*
X158299768Y-88302321D01*
X158299769Y-88302322D01*
X158472749Y-88373973D01*
X158656379Y-88410499D01*
X158656383Y-88410500D01*
X158656384Y-88410500D01*
X158843617Y-88410500D01*
X158843618Y-88410499D01*
X159027251Y-88373973D01*
X159200231Y-88302322D01*
X159355908Y-88198302D01*
X159488302Y-88065908D01*
X159592322Y-87910231D01*
X159663973Y-87737251D01*
X159700500Y-87553616D01*
X159700500Y-87366384D01*
X159663973Y-87182749D01*
X159592322Y-87009769D01*
X159592321Y-87009768D01*
X159592318Y-87009762D01*
X159488302Y-86854092D01*
X159488299Y-86854088D01*
X159355911Y-86721700D01*
X159355907Y-86721697D01*
X159200237Y-86617681D01*
X159200228Y-86617676D01*
X159027251Y-86546027D01*
X159027243Y-86546025D01*
X158843620Y-86509500D01*
X158843616Y-86509500D01*
X158656384Y-86509500D01*
X158656379Y-86509500D01*
X158472756Y-86546025D01*
X158472748Y-86546027D01*
X158299771Y-86617676D01*
X158299762Y-86617681D01*
X158144092Y-86721697D01*
X158144088Y-86721700D01*
X158011700Y-86854088D01*
X158011697Y-86854092D01*
X157907681Y-87009762D01*
X157907676Y-87009771D01*
X157836027Y-87182748D01*
X157836025Y-87182756D01*
X157799500Y-87366379D01*
X139200499Y-87366379D01*
X139163973Y-87182749D01*
X139092322Y-87009769D01*
X139092321Y-87009768D01*
X139092318Y-87009762D01*
X138988302Y-86854092D01*
X138988299Y-86854088D01*
X138855911Y-86721700D01*
X138855907Y-86721697D01*
X138700237Y-86617681D01*
X138700228Y-86617676D01*
X138527251Y-86546027D01*
X138527243Y-86546025D01*
X138343620Y-86509500D01*
X138343616Y-86509500D01*
X138156384Y-86509500D01*
X138156379Y-86509500D01*
X137972756Y-86546025D01*
X137972748Y-86546027D01*
X137799771Y-86617676D01*
X137799762Y-86617681D01*
X137644092Y-86721697D01*
X137644088Y-86721700D01*
X137511700Y-86854088D01*
X137511697Y-86854092D01*
X137407681Y-87009762D01*
X137407676Y-87009771D01*
X137336027Y-87182748D01*
X137336025Y-87182756D01*
X137299500Y-87366379D01*
X120250500Y-87366379D01*
X120250500Y-85110691D01*
X125759500Y-85110691D01*
X125759500Y-85229309D01*
X125790201Y-85343886D01*
X125849511Y-85446613D01*
X125933387Y-85530489D01*
X126036114Y-85589799D01*
X126150691Y-85620500D01*
X126150694Y-85620500D01*
X126269306Y-85620500D01*
X126269309Y-85620500D01*
X126383886Y-85589799D01*
X126486613Y-85530489D01*
X126570489Y-85446613D01*
X126629799Y-85343886D01*
X126660500Y-85229309D01*
X126660500Y-85110691D01*
X127059500Y-85110691D01*
X127059500Y-85229309D01*
X127090201Y-85343886D01*
X127149511Y-85446613D01*
X127233387Y-85530489D01*
X127336114Y-85589799D01*
X127450691Y-85620500D01*
X127450694Y-85620500D01*
X127569306Y-85620500D01*
X127569309Y-85620500D01*
X127683886Y-85589799D01*
X127786613Y-85530489D01*
X127870489Y-85446613D01*
X127929799Y-85343886D01*
X127960500Y-85229309D01*
X127960500Y-85110691D01*
X128359500Y-85110691D01*
X128359500Y-85229309D01*
X128390201Y-85343886D01*
X128449511Y-85446613D01*
X128533387Y-85530489D01*
X128636114Y-85589799D01*
X128750691Y-85620500D01*
X128750694Y-85620500D01*
X128869306Y-85620500D01*
X128869309Y-85620500D01*
X128983886Y-85589799D01*
X129086613Y-85530489D01*
X129170489Y-85446613D01*
X129229799Y-85343886D01*
X129260500Y-85229309D01*
X129260500Y-85110691D01*
X129229799Y-84996114D01*
X129195900Y-84937399D01*
X129524500Y-84937399D01*
X129524500Y-85062601D01*
X129556905Y-85183536D01*
X129619505Y-85291964D01*
X129708036Y-85380495D01*
X129816464Y-85443095D01*
X129937399Y-85475500D01*
X129937401Y-85475500D01*
X130062599Y-85475500D01*
X130062601Y-85475500D01*
X130183536Y-85443095D01*
X130291964Y-85380495D01*
X130380495Y-85291964D01*
X130443095Y-85183536D01*
X130475500Y-85062601D01*
X130475500Y-84937399D01*
X134524500Y-84937399D01*
X134524500Y-85062601D01*
X134556905Y-85183536D01*
X134619505Y-85291964D01*
X134708036Y-85380495D01*
X134816464Y-85443095D01*
X134937399Y-85475500D01*
X134937401Y-85475500D01*
X135062599Y-85475500D01*
X135062601Y-85475500D01*
X135183536Y-85443095D01*
X135291964Y-85380495D01*
X135380495Y-85291964D01*
X135443095Y-85183536D01*
X135475500Y-85062601D01*
X135475500Y-84937399D01*
X135443095Y-84816464D01*
X135380495Y-84708036D01*
X135291964Y-84619505D01*
X135253675Y-84597399D01*
X139599500Y-84597399D01*
X139599500Y-84722601D01*
X139631905Y-84843536D01*
X139694505Y-84951964D01*
X139783036Y-85040495D01*
X139891464Y-85103095D01*
X140012399Y-85135500D01*
X140012401Y-85135500D01*
X140137599Y-85135500D01*
X140137601Y-85135500D01*
X140258536Y-85103095D01*
X140366964Y-85040495D01*
X140455495Y-84951964D01*
X140518095Y-84843536D01*
X140550500Y-84722601D01*
X140550500Y-84597399D01*
X145759500Y-84597399D01*
X145759500Y-84722601D01*
X145791905Y-84843536D01*
X145854505Y-84951964D01*
X145943036Y-85040495D01*
X146051464Y-85103095D01*
X146172399Y-85135500D01*
X146172401Y-85135500D01*
X146297599Y-85135500D01*
X146297601Y-85135500D01*
X146418536Y-85103095D01*
X146526964Y-85040495D01*
X146615495Y-84951964D01*
X146678095Y-84843536D01*
X146696727Y-84774003D01*
X149194500Y-84774003D01*
X149194500Y-85726007D01*
X149199197Y-85769686D01*
X149210397Y-85821174D01*
X149212890Y-85831372D01*
X149212891Y-85831375D01*
X149255899Y-85912083D01*
X149255901Y-85912086D01*
X149301660Y-85964895D01*
X149319242Y-85982839D01*
X149319246Y-85982843D01*
X149319247Y-85982844D01*
X149319249Y-85982845D01*
X149399059Y-86027488D01*
X149399063Y-86027490D01*
X149466102Y-86047175D01*
X149524000Y-86055500D01*
X149524004Y-86055500D01*
X158175991Y-86055500D01*
X158176000Y-86055500D01*
X158219684Y-86050803D01*
X158248875Y-86044452D01*
X158271174Y-86039602D01*
X158271190Y-86039598D01*
X158271195Y-86039597D01*
X158281373Y-86037110D01*
X158362085Y-85994100D01*
X158414889Y-85948345D01*
X158432843Y-85930754D01*
X158477490Y-85850937D01*
X158497175Y-85783898D01*
X158505500Y-85726000D01*
X158505500Y-84774000D01*
X158500803Y-84730316D01*
X158495956Y-84708034D01*
X158489602Y-84678825D01*
X158489348Y-84677789D01*
X158487110Y-84668627D01*
X158444100Y-84587915D01*
X158398345Y-84535111D01*
X158398339Y-84535104D01*
X158380757Y-84517160D01*
X158380756Y-84517159D01*
X158380754Y-84517157D01*
X158380752Y-84517156D01*
X158380750Y-84517154D01*
X158300940Y-84472511D01*
X158300935Y-84472509D01*
X158233903Y-84452826D01*
X158233899Y-84452825D01*
X158233898Y-84452825D01*
X158176000Y-84444500D01*
X156735505Y-84444500D01*
X156668466Y-84424815D01*
X156622711Y-84372011D01*
X156612767Y-84302853D01*
X156641792Y-84239297D01*
X156673506Y-84213112D01*
X156673534Y-84213095D01*
X156673536Y-84213095D01*
X156781964Y-84150495D01*
X156870495Y-84061964D01*
X156933095Y-83953536D01*
X156965500Y-83832601D01*
X156965500Y-83707399D01*
X156933095Y-83586464D01*
X156870495Y-83478036D01*
X156781964Y-83389505D01*
X156673536Y-83326905D01*
X156673537Y-83326905D01*
X156633224Y-83316103D01*
X156552601Y-83294500D01*
X156427399Y-83294500D01*
X156346775Y-83316103D01*
X156306463Y-83326905D01*
X156198037Y-83389504D01*
X156198034Y-83389506D01*
X156109506Y-83478034D01*
X156109504Y-83478037D01*
X156046905Y-83586463D01*
X156046905Y-83586464D01*
X156014500Y-83707399D01*
X156014500Y-83832601D01*
X156046905Y-83953536D01*
X156109505Y-84061964D01*
X156198036Y-84150495D01*
X156306464Y-84213095D01*
X156306465Y-84213095D01*
X156306494Y-84213112D01*
X156354710Y-84263679D01*
X156367934Y-84332286D01*
X156341966Y-84397151D01*
X156285052Y-84437680D01*
X156244495Y-84444500D01*
X150575505Y-84444500D01*
X150508466Y-84424815D01*
X150462711Y-84372011D01*
X150452767Y-84302853D01*
X150481792Y-84239297D01*
X150513506Y-84213112D01*
X150513534Y-84213095D01*
X150513536Y-84213095D01*
X150621964Y-84150495D01*
X150710495Y-84061964D01*
X150773095Y-83953536D01*
X150805500Y-83832601D01*
X150805500Y-83707399D01*
X150773095Y-83586464D01*
X150710495Y-83478036D01*
X150621964Y-83389505D01*
X150513536Y-83326905D01*
X150513537Y-83326905D01*
X150473224Y-83316103D01*
X150392601Y-83294500D01*
X150267399Y-83294500D01*
X150186775Y-83316103D01*
X150146463Y-83326905D01*
X150038037Y-83389504D01*
X150038034Y-83389506D01*
X149949506Y-83478034D01*
X149949504Y-83478037D01*
X149886905Y-83586463D01*
X149886905Y-83586464D01*
X149854500Y-83707399D01*
X149854500Y-83832601D01*
X149886905Y-83953536D01*
X149949505Y-84061964D01*
X150038036Y-84150495D01*
X150146464Y-84213095D01*
X150146465Y-84213095D01*
X150146494Y-84213112D01*
X150194710Y-84263679D01*
X150207934Y-84332286D01*
X150181966Y-84397151D01*
X150125052Y-84437680D01*
X150084495Y-84444500D01*
X149523992Y-84444500D01*
X149480313Y-84449197D01*
X149428825Y-84460397D01*
X149418627Y-84462890D01*
X149418624Y-84462891D01*
X149337916Y-84505899D01*
X149337913Y-84505901D01*
X149285104Y-84551660D01*
X149267160Y-84569242D01*
X149267154Y-84569249D01*
X149222511Y-84649059D01*
X149222509Y-84649064D01*
X149202826Y-84716096D01*
X149202825Y-84716101D01*
X149202825Y-84716102D01*
X149194502Y-84773992D01*
X149194500Y-84774003D01*
X146696727Y-84774003D01*
X146710500Y-84722601D01*
X146710500Y-84597399D01*
X146678095Y-84476464D01*
X146615495Y-84368036D01*
X146526964Y-84279505D01*
X146418536Y-84216905D01*
X146418537Y-84216905D01*
X146378224Y-84206103D01*
X146297601Y-84184500D01*
X146172399Y-84184500D01*
X146091775Y-84206103D01*
X146051463Y-84216905D01*
X145943037Y-84279504D01*
X145943034Y-84279506D01*
X145854506Y-84368034D01*
X145854504Y-84368037D01*
X145791905Y-84476463D01*
X145784017Y-84505901D01*
X145759500Y-84597399D01*
X140550500Y-84597399D01*
X140518095Y-84476464D01*
X140455495Y-84368036D01*
X140366964Y-84279505D01*
X140258536Y-84216905D01*
X140258537Y-84216905D01*
X140218224Y-84206103D01*
X140137601Y-84184500D01*
X140012399Y-84184500D01*
X139931775Y-84206103D01*
X139891463Y-84216905D01*
X139783037Y-84279504D01*
X139783034Y-84279506D01*
X139694506Y-84368034D01*
X139694504Y-84368037D01*
X139631905Y-84476463D01*
X139624017Y-84505901D01*
X139599500Y-84597399D01*
X135253675Y-84597399D01*
X135183536Y-84556905D01*
X135183537Y-84556905D01*
X135143224Y-84546103D01*
X135062601Y-84524500D01*
X134937399Y-84524500D01*
X134856775Y-84546103D01*
X134816463Y-84556905D01*
X134708037Y-84619504D01*
X134708034Y-84619506D01*
X134619506Y-84708034D01*
X134619504Y-84708037D01*
X134556905Y-84816463D01*
X134556905Y-84816464D01*
X134524500Y-84937399D01*
X130475500Y-84937399D01*
X130443095Y-84816464D01*
X130380495Y-84708036D01*
X130291964Y-84619505D01*
X130183536Y-84556905D01*
X130183537Y-84556905D01*
X130143224Y-84546103D01*
X130062601Y-84524500D01*
X129937399Y-84524500D01*
X129856775Y-84546103D01*
X129816463Y-84556905D01*
X129708037Y-84619504D01*
X129708034Y-84619506D01*
X129619506Y-84708034D01*
X129619504Y-84708037D01*
X129556905Y-84816463D01*
X129556905Y-84816464D01*
X129524500Y-84937399D01*
X129195900Y-84937399D01*
X129170489Y-84893387D01*
X129086613Y-84809511D01*
X128983886Y-84750201D01*
X128869309Y-84719500D01*
X128750691Y-84719500D01*
X128636114Y-84750201D01*
X128636112Y-84750201D01*
X128636112Y-84750202D01*
X128533387Y-84809511D01*
X128533384Y-84809513D01*
X128449513Y-84893384D01*
X128449511Y-84893387D01*
X128392997Y-84991272D01*
X128390201Y-84996114D01*
X128359500Y-85110691D01*
X127960500Y-85110691D01*
X127929799Y-84996114D01*
X127870489Y-84893387D01*
X127786613Y-84809511D01*
X127683886Y-84750201D01*
X127569309Y-84719500D01*
X127450691Y-84719500D01*
X127336114Y-84750201D01*
X127336112Y-84750201D01*
X127336112Y-84750202D01*
X127233387Y-84809511D01*
X127233384Y-84809513D01*
X127149513Y-84893384D01*
X127149511Y-84893387D01*
X127092997Y-84991272D01*
X127090201Y-84996114D01*
X127059500Y-85110691D01*
X126660500Y-85110691D01*
X126629799Y-84996114D01*
X126570489Y-84893387D01*
X126486613Y-84809511D01*
X126383886Y-84750201D01*
X126269309Y-84719500D01*
X126150691Y-84719500D01*
X126036114Y-84750201D01*
X126036112Y-84750201D01*
X126036112Y-84750202D01*
X125933387Y-84809511D01*
X125933384Y-84809513D01*
X125849513Y-84893384D01*
X125849511Y-84893387D01*
X125792997Y-84991272D01*
X125790201Y-84996114D01*
X125759500Y-85110691D01*
X120250500Y-85110691D01*
X120250500Y-83810691D01*
X125759500Y-83810691D01*
X125759500Y-83929309D01*
X125790201Y-84043886D01*
X125849511Y-84146613D01*
X125933387Y-84230489D01*
X126036114Y-84289799D01*
X126150691Y-84320500D01*
X126150694Y-84320500D01*
X126269306Y-84320500D01*
X126269309Y-84320500D01*
X126383886Y-84289799D01*
X126486613Y-84230489D01*
X126570489Y-84146613D01*
X126629799Y-84043886D01*
X126660500Y-83929309D01*
X126660500Y-83810691D01*
X127059500Y-83810691D01*
X127059500Y-83929309D01*
X127090201Y-84043886D01*
X127149511Y-84146613D01*
X127233387Y-84230489D01*
X127336114Y-84289799D01*
X127450691Y-84320500D01*
X127450694Y-84320500D01*
X127569306Y-84320500D01*
X127569309Y-84320500D01*
X127683886Y-84289799D01*
X127786613Y-84230489D01*
X127870489Y-84146613D01*
X127929799Y-84043886D01*
X127960500Y-83929309D01*
X127960500Y-83810691D01*
X128359500Y-83810691D01*
X128359500Y-83929309D01*
X128390201Y-84043886D01*
X128449511Y-84146613D01*
X128533387Y-84230489D01*
X128636114Y-84289799D01*
X128750691Y-84320500D01*
X128750694Y-84320500D01*
X128869306Y-84320500D01*
X128869309Y-84320500D01*
X128983886Y-84289799D01*
X129086613Y-84230489D01*
X129170489Y-84146613D01*
X129229799Y-84043886D01*
X129260500Y-83929309D01*
X129260500Y-83810691D01*
X129229799Y-83696114D01*
X129170489Y-83593387D01*
X129086613Y-83509511D01*
X128983886Y-83450201D01*
X128869309Y-83419500D01*
X128750691Y-83419500D01*
X128636114Y-83450201D01*
X128636112Y-83450201D01*
X128636112Y-83450202D01*
X128533387Y-83509511D01*
X128533384Y-83509513D01*
X128449513Y-83593384D01*
X128449511Y-83593387D01*
X128390201Y-83696114D01*
X128359500Y-83810691D01*
X127960500Y-83810691D01*
X127929799Y-83696114D01*
X127870489Y-83593387D01*
X127786613Y-83509511D01*
X127683886Y-83450201D01*
X127569309Y-83419500D01*
X127450691Y-83419500D01*
X127336114Y-83450201D01*
X127336112Y-83450201D01*
X127336112Y-83450202D01*
X127233387Y-83509511D01*
X127233384Y-83509513D01*
X127149513Y-83593384D01*
X127149511Y-83593387D01*
X127090201Y-83696114D01*
X127059500Y-83810691D01*
X126660500Y-83810691D01*
X126629799Y-83696114D01*
X126570489Y-83593387D01*
X126486613Y-83509511D01*
X126383886Y-83450201D01*
X126269309Y-83419500D01*
X126150691Y-83419500D01*
X126036114Y-83450201D01*
X126036112Y-83450201D01*
X126036112Y-83450202D01*
X125933387Y-83509511D01*
X125933384Y-83509513D01*
X125849513Y-83593384D01*
X125849511Y-83593387D01*
X125790201Y-83696114D01*
X125759500Y-83810691D01*
X120250500Y-83810691D01*
X120250500Y-82286379D01*
X137299500Y-82286379D01*
X137299500Y-82473620D01*
X137336025Y-82657243D01*
X137336027Y-82657251D01*
X137407676Y-82830228D01*
X137407681Y-82830237D01*
X137511697Y-82985907D01*
X137511700Y-82985911D01*
X137644088Y-83118299D01*
X137644092Y-83118302D01*
X137799762Y-83222318D01*
X137799768Y-83222321D01*
X137799769Y-83222322D01*
X137972749Y-83293973D01*
X138138311Y-83326905D01*
X138156379Y-83330499D01*
X138156383Y-83330500D01*
X138156384Y-83330500D01*
X138343617Y-83330500D01*
X138343618Y-83330499D01*
X138527251Y-83293973D01*
X138700231Y-83222322D01*
X138855908Y-83118302D01*
X138988302Y-82985908D01*
X139092322Y-82830231D01*
X139163973Y-82657251D01*
X139200500Y-82473616D01*
X139200500Y-82286384D01*
X139200499Y-82286379D01*
X157799500Y-82286379D01*
X157799500Y-82473620D01*
X157836025Y-82657243D01*
X157836027Y-82657251D01*
X157907676Y-82830228D01*
X157907681Y-82830237D01*
X158011697Y-82985907D01*
X158011700Y-82985911D01*
X158144088Y-83118299D01*
X158144092Y-83118302D01*
X158299762Y-83222318D01*
X158299768Y-83222321D01*
X158299769Y-83222322D01*
X158472749Y-83293973D01*
X158638311Y-83326905D01*
X158656379Y-83330499D01*
X158656383Y-83330500D01*
X158656384Y-83330500D01*
X158843617Y-83330500D01*
X158843618Y-83330499D01*
X159027251Y-83293973D01*
X159200231Y-83222322D01*
X159355908Y-83118302D01*
X159488302Y-82985908D01*
X159592322Y-82830231D01*
X159663973Y-82657251D01*
X159700500Y-82473616D01*
X159700500Y-82286384D01*
X159663973Y-82102749D01*
X159592322Y-81929769D01*
X159592321Y-81929768D01*
X159592318Y-81929762D01*
X159488302Y-81774092D01*
X159488299Y-81774088D01*
X159355911Y-81641700D01*
X159355907Y-81641697D01*
X159200237Y-81537681D01*
X159200228Y-81537676D01*
X159027251Y-81466027D01*
X159027243Y-81466025D01*
X158843620Y-81429500D01*
X158843616Y-81429500D01*
X158656384Y-81429500D01*
X158656379Y-81429500D01*
X158472756Y-81466025D01*
X158472748Y-81466027D01*
X158299771Y-81537676D01*
X158299762Y-81537681D01*
X158144092Y-81641697D01*
X158144088Y-81641700D01*
X158011700Y-81774088D01*
X158011697Y-81774092D01*
X157907681Y-81929762D01*
X157907676Y-81929771D01*
X157836027Y-82102748D01*
X157836025Y-82102756D01*
X157799500Y-82286379D01*
X139200499Y-82286379D01*
X139163973Y-82102749D01*
X139092322Y-81929769D01*
X139092321Y-81929768D01*
X139092318Y-81929762D01*
X138988302Y-81774092D01*
X138988299Y-81774088D01*
X138855911Y-81641700D01*
X138855907Y-81641697D01*
X138700237Y-81537681D01*
X138700228Y-81537676D01*
X138527251Y-81466027D01*
X138527243Y-81466025D01*
X138343620Y-81429500D01*
X138343616Y-81429500D01*
X138156384Y-81429500D01*
X138156379Y-81429500D01*
X137972756Y-81466025D01*
X137972748Y-81466027D01*
X137799771Y-81537676D01*
X137799762Y-81537681D01*
X137644092Y-81641697D01*
X137644088Y-81641700D01*
X137511700Y-81774088D01*
X137511697Y-81774092D01*
X137407681Y-81929762D01*
X137407676Y-81929771D01*
X137336027Y-82102748D01*
X137336025Y-82102756D01*
X137299500Y-82286379D01*
X120250500Y-82286379D01*
X120250500Y-79937399D01*
X134524500Y-79937399D01*
X134524500Y-80062601D01*
X134556905Y-80183536D01*
X134619505Y-80291964D01*
X134708036Y-80380495D01*
X134816464Y-80443095D01*
X134937399Y-80475500D01*
X134937401Y-80475500D01*
X135062599Y-80475500D01*
X135062601Y-80475500D01*
X135183536Y-80443095D01*
X135291964Y-80380495D01*
X135380495Y-80291964D01*
X135443095Y-80183536D01*
X135475500Y-80062601D01*
X135475500Y-79937399D01*
X135443095Y-79816464D01*
X135443094Y-79816462D01*
X135443092Y-79816457D01*
X135382952Y-79712291D01*
X135382951Y-79712290D01*
X135380495Y-79708036D01*
X135328838Y-79656379D01*
X139929500Y-79656379D01*
X139929500Y-79843620D01*
X139966025Y-80027243D01*
X139966027Y-80027251D01*
X140037676Y-80200228D01*
X140037681Y-80200237D01*
X140141697Y-80355907D01*
X140141700Y-80355911D01*
X140274088Y-80488299D01*
X140274092Y-80488302D01*
X140429762Y-80592318D01*
X140429768Y-80592321D01*
X140429769Y-80592322D01*
X140602749Y-80663973D01*
X140786379Y-80700499D01*
X140786383Y-80700500D01*
X140786384Y-80700500D01*
X140973617Y-80700500D01*
X140973618Y-80700499D01*
X141157251Y-80663973D01*
X141330231Y-80592322D01*
X141485908Y-80488302D01*
X141618302Y-80355908D01*
X141722322Y-80200231D01*
X141793973Y-80027251D01*
X141830500Y-79843616D01*
X141830500Y-79656384D01*
X141830499Y-79656379D01*
X145009500Y-79656379D01*
X145009500Y-79843620D01*
X145046025Y-80027243D01*
X145046027Y-80027251D01*
X145117676Y-80200228D01*
X145117681Y-80200237D01*
X145221697Y-80355907D01*
X145221700Y-80355911D01*
X145354088Y-80488299D01*
X145354092Y-80488302D01*
X145509762Y-80592318D01*
X145509768Y-80592321D01*
X145509769Y-80592322D01*
X145682749Y-80663973D01*
X145866379Y-80700499D01*
X145866383Y-80700500D01*
X145866384Y-80700500D01*
X146053617Y-80700500D01*
X146053618Y-80700499D01*
X146237251Y-80663973D01*
X146410231Y-80592322D01*
X146565908Y-80488302D01*
X146698302Y-80355908D01*
X146802322Y-80200231D01*
X146873973Y-80027251D01*
X146910500Y-79843616D01*
X146910500Y-79656384D01*
X146910499Y-79656379D01*
X150089500Y-79656379D01*
X150089500Y-79843620D01*
X150126025Y-80027243D01*
X150126027Y-80027251D01*
X150197676Y-80200228D01*
X150197681Y-80200237D01*
X150301697Y-80355907D01*
X150301700Y-80355911D01*
X150434088Y-80488299D01*
X150434092Y-80488302D01*
X150589762Y-80592318D01*
X150589768Y-80592321D01*
X150589769Y-80592322D01*
X150762749Y-80663973D01*
X150946379Y-80700499D01*
X150946383Y-80700500D01*
X150946384Y-80700500D01*
X151133617Y-80700500D01*
X151133618Y-80700499D01*
X151317251Y-80663973D01*
X151490231Y-80592322D01*
X151645908Y-80488302D01*
X151778302Y-80355908D01*
X151882322Y-80200231D01*
X151953973Y-80027251D01*
X151990500Y-79843616D01*
X151990500Y-79656384D01*
X151990499Y-79656379D01*
X155169500Y-79656379D01*
X155169500Y-79843620D01*
X155206025Y-80027243D01*
X155206027Y-80027251D01*
X155277676Y-80200228D01*
X155277681Y-80200237D01*
X155381697Y-80355907D01*
X155381700Y-80355911D01*
X155514088Y-80488299D01*
X155514092Y-80488302D01*
X155669762Y-80592318D01*
X155669768Y-80592321D01*
X155669769Y-80592322D01*
X155842749Y-80663973D01*
X156026379Y-80700499D01*
X156026383Y-80700500D01*
X156026384Y-80700500D01*
X156213617Y-80700500D01*
X156213618Y-80700499D01*
X156397251Y-80663973D01*
X156570231Y-80592322D01*
X156725908Y-80488302D01*
X156858302Y-80355908D01*
X156962322Y-80200231D01*
X157033973Y-80027251D01*
X157070500Y-79843616D01*
X157070500Y-79656384D01*
X157033973Y-79472749D01*
X156962322Y-79299769D01*
X156962321Y-79299768D01*
X156962318Y-79299762D01*
X156858302Y-79144092D01*
X156858299Y-79144088D01*
X156725911Y-79011700D01*
X156725907Y-79011697D01*
X156570237Y-78907681D01*
X156570228Y-78907676D01*
X156397251Y-78836027D01*
X156397243Y-78836025D01*
X156213620Y-78799500D01*
X156213616Y-78799500D01*
X156026384Y-78799500D01*
X156026379Y-78799500D01*
X155842756Y-78836025D01*
X155842748Y-78836027D01*
X155669771Y-78907676D01*
X155669762Y-78907681D01*
X155514092Y-79011697D01*
X155514088Y-79011700D01*
X155381700Y-79144088D01*
X155381697Y-79144092D01*
X155277681Y-79299762D01*
X155277676Y-79299771D01*
X155206027Y-79472748D01*
X155206025Y-79472756D01*
X155169500Y-79656379D01*
X151990499Y-79656379D01*
X151953973Y-79472749D01*
X151882322Y-79299769D01*
X151882321Y-79299768D01*
X151882318Y-79299762D01*
X151778302Y-79144092D01*
X151778299Y-79144088D01*
X151645911Y-79011700D01*
X151645907Y-79011697D01*
X151490237Y-78907681D01*
X151490228Y-78907676D01*
X151317251Y-78836027D01*
X151317243Y-78836025D01*
X151133620Y-78799500D01*
X151133616Y-78799500D01*
X150946384Y-78799500D01*
X150946379Y-78799500D01*
X150762756Y-78836025D01*
X150762748Y-78836027D01*
X150589771Y-78907676D01*
X150589762Y-78907681D01*
X150434092Y-79011697D01*
X150434088Y-79011700D01*
X150301700Y-79144088D01*
X150301697Y-79144092D01*
X150197681Y-79299762D01*
X150197676Y-79299771D01*
X150126027Y-79472748D01*
X150126025Y-79472756D01*
X150089500Y-79656379D01*
X146910499Y-79656379D01*
X146873973Y-79472749D01*
X146802322Y-79299769D01*
X146802321Y-79299768D01*
X146802318Y-79299762D01*
X146698302Y-79144092D01*
X146698299Y-79144088D01*
X146565911Y-79011700D01*
X146565907Y-79011697D01*
X146410237Y-78907681D01*
X146410228Y-78907676D01*
X146237251Y-78836027D01*
X146237243Y-78836025D01*
X146053620Y-78799500D01*
X146053616Y-78799500D01*
X145866384Y-78799500D01*
X145866379Y-78799500D01*
X145682756Y-78836025D01*
X145682748Y-78836027D01*
X145509771Y-78907676D01*
X145509762Y-78907681D01*
X145354092Y-79011697D01*
X145354088Y-79011700D01*
X145221700Y-79144088D01*
X145221697Y-79144092D01*
X145117681Y-79299762D01*
X145117676Y-79299771D01*
X145046027Y-79472748D01*
X145046025Y-79472756D01*
X145009500Y-79656379D01*
X141830499Y-79656379D01*
X141793973Y-79472749D01*
X141722322Y-79299769D01*
X141722321Y-79299768D01*
X141722318Y-79299762D01*
X141618302Y-79144092D01*
X141618299Y-79144088D01*
X141485911Y-79011700D01*
X141485907Y-79011697D01*
X141330237Y-78907681D01*
X141330228Y-78907676D01*
X141157251Y-78836027D01*
X141157243Y-78836025D01*
X140973620Y-78799500D01*
X140973616Y-78799500D01*
X140786384Y-78799500D01*
X140786379Y-78799500D01*
X140602756Y-78836025D01*
X140602748Y-78836027D01*
X140429771Y-78907676D01*
X140429762Y-78907681D01*
X140274092Y-79011697D01*
X140274088Y-79011700D01*
X140141700Y-79144088D01*
X140141697Y-79144092D01*
X140037681Y-79299762D01*
X140037676Y-79299771D01*
X139966027Y-79472748D01*
X139966025Y-79472756D01*
X139929500Y-79656379D01*
X135328838Y-79656379D01*
X135291964Y-79619505D01*
X135183536Y-79556905D01*
X135183537Y-79556905D01*
X135143224Y-79546103D01*
X135062601Y-79524500D01*
X134937399Y-79524500D01*
X134856775Y-79546103D01*
X134816463Y-79556905D01*
X134708037Y-79619504D01*
X134708034Y-79619506D01*
X134619506Y-79708034D01*
X134619504Y-79708037D01*
X134556905Y-79816463D01*
X134549629Y-79843617D01*
X134524500Y-79937399D01*
X120250500Y-79937399D01*
X120250500Y-74937399D01*
X124524500Y-74937399D01*
X124524500Y-75062601D01*
X124556905Y-75183536D01*
X124619505Y-75291964D01*
X124708036Y-75380495D01*
X124816464Y-75443095D01*
X124937399Y-75475500D01*
X124937401Y-75475500D01*
X125062599Y-75475500D01*
X125062601Y-75475500D01*
X125183536Y-75443095D01*
X125291964Y-75380495D01*
X125380495Y-75291964D01*
X125443095Y-75183536D01*
X125475500Y-75062601D01*
X125475500Y-74937399D01*
X129524500Y-74937399D01*
X129524500Y-75062601D01*
X129556905Y-75183536D01*
X129619505Y-75291964D01*
X129708036Y-75380495D01*
X129816464Y-75443095D01*
X129937399Y-75475500D01*
X129937401Y-75475500D01*
X130062599Y-75475500D01*
X130062601Y-75475500D01*
X130183536Y-75443095D01*
X130291964Y-75380495D01*
X130380495Y-75291964D01*
X130443095Y-75183536D01*
X130475500Y-75062601D01*
X130475500Y-74937399D01*
X134524500Y-74937399D01*
X134524500Y-75062601D01*
X134556905Y-75183536D01*
X134619505Y-75291964D01*
X134708036Y-75380495D01*
X134816464Y-75443095D01*
X134937399Y-75475500D01*
X134937401Y-75475500D01*
X135062599Y-75475500D01*
X135062601Y-75475500D01*
X135183536Y-75443095D01*
X135291964Y-75380495D01*
X135380495Y-75291964D01*
X135443095Y-75183536D01*
X135475500Y-75062601D01*
X135475500Y-74937399D01*
X139524500Y-74937399D01*
X139524500Y-75062601D01*
X139556905Y-75183536D01*
X139619505Y-75291964D01*
X139708036Y-75380495D01*
X139816464Y-75443095D01*
X139937399Y-75475500D01*
X139937401Y-75475500D01*
X140062599Y-75475500D01*
X140062601Y-75475500D01*
X140183536Y-75443095D01*
X140291964Y-75380495D01*
X140380495Y-75291964D01*
X140443095Y-75183536D01*
X140475500Y-75062601D01*
X140475500Y-74937399D01*
X149524500Y-74937399D01*
X149524500Y-75062601D01*
X149556905Y-75183536D01*
X149619505Y-75291964D01*
X149708036Y-75380495D01*
X149816464Y-75443095D01*
X149937399Y-75475500D01*
X149937401Y-75475500D01*
X150062599Y-75475500D01*
X150062601Y-75475500D01*
X150183536Y-75443095D01*
X150291964Y-75380495D01*
X150380495Y-75291964D01*
X150443095Y-75183536D01*
X150475500Y-75062601D01*
X150475500Y-74937399D01*
X159524500Y-74937399D01*
X159524500Y-75062601D01*
X159556905Y-75183536D01*
X159619505Y-75291964D01*
X159708036Y-75380495D01*
X159816464Y-75443095D01*
X159937399Y-75475500D01*
X159937401Y-75475500D01*
X160062599Y-75475500D01*
X160062601Y-75475500D01*
X160183536Y-75443095D01*
X160291964Y-75380495D01*
X160380495Y-75291964D01*
X160443095Y-75183536D01*
X160475500Y-75062601D01*
X160475500Y-74937399D01*
X160443095Y-74816464D01*
X160380495Y-74708036D01*
X160291964Y-74619505D01*
X160183536Y-74556905D01*
X160183537Y-74556905D01*
X160110844Y-74537427D01*
X160062601Y-74524500D01*
X159937399Y-74524500D01*
X159889156Y-74537427D01*
X159816463Y-74556905D01*
X159708037Y-74619504D01*
X159708034Y-74619506D01*
X159619506Y-74708034D01*
X159619504Y-74708037D01*
X159556905Y-74816463D01*
X159556905Y-74816464D01*
X159524500Y-74937399D01*
X150475500Y-74937399D01*
X150443095Y-74816464D01*
X150385875Y-74717355D01*
X150369404Y-74649457D01*
X150392257Y-74583430D01*
X150447179Y-74540240D01*
X150516732Y-74533599D01*
X150531569Y-74537423D01*
X150642299Y-74573402D01*
X150813389Y-74600500D01*
X150813390Y-74600500D01*
X150986610Y-74600500D01*
X150986611Y-74600500D01*
X151157701Y-74573402D01*
X151322445Y-74519873D01*
X151476788Y-74441232D01*
X151616928Y-74339414D01*
X151739414Y-74216928D01*
X151841232Y-74076788D01*
X151919873Y-73922445D01*
X151973402Y-73757701D01*
X152000500Y-73586611D01*
X152000500Y-73413389D01*
X154799500Y-73413389D01*
X154799500Y-73586611D01*
X154826598Y-73757701D01*
X154880127Y-73922445D01*
X154958768Y-74076788D01*
X155060586Y-74216928D01*
X155183072Y-74339414D01*
X155323212Y-74441232D01*
X155477555Y-74519873D01*
X155642299Y-74573402D01*
X155813389Y-74600500D01*
X155813390Y-74600500D01*
X155986610Y-74600500D01*
X155986611Y-74600500D01*
X156157701Y-74573402D01*
X156322445Y-74519873D01*
X156476788Y-74441232D01*
X156616928Y-74339414D01*
X156739414Y-74216928D01*
X156841232Y-74076788D01*
X156919873Y-73922445D01*
X156973402Y-73757701D01*
X157000500Y-73586611D01*
X157000500Y-73413389D01*
X156973402Y-73242299D01*
X156919873Y-73077555D01*
X156841232Y-72923212D01*
X156739414Y-72783072D01*
X156616928Y-72660586D01*
X156476788Y-72558768D01*
X156322445Y-72480127D01*
X156157701Y-72426598D01*
X156157699Y-72426597D01*
X156157698Y-72426597D01*
X156026271Y-72405781D01*
X155986611Y-72399500D01*
X155813389Y-72399500D01*
X155773728Y-72405781D01*
X155642302Y-72426597D01*
X155477552Y-72480128D01*
X155323211Y-72558768D01*
X155243256Y-72616859D01*
X155183072Y-72660586D01*
X155183070Y-72660588D01*
X155183069Y-72660588D01*
X155060588Y-72783069D01*
X155060588Y-72783070D01*
X155060586Y-72783072D01*
X155016859Y-72843256D01*
X154958768Y-72923211D01*
X154880128Y-73077552D01*
X154826597Y-73242302D01*
X154799500Y-73413389D01*
X152000500Y-73413389D01*
X151973402Y-73242299D01*
X151919873Y-73077555D01*
X151841232Y-72923212D01*
X151739414Y-72783072D01*
X151616928Y-72660586D01*
X151476788Y-72558768D01*
X151322445Y-72480127D01*
X151157701Y-72426598D01*
X151157699Y-72426597D01*
X151157698Y-72426597D01*
X151026271Y-72405781D01*
X150986611Y-72399500D01*
X150813389Y-72399500D01*
X150773728Y-72405781D01*
X150642302Y-72426597D01*
X150477552Y-72480128D01*
X150323211Y-72558768D01*
X150243256Y-72616859D01*
X150183072Y-72660586D01*
X150183070Y-72660588D01*
X150183069Y-72660588D01*
X150060588Y-72783069D01*
X150060588Y-72783070D01*
X150060586Y-72783072D01*
X150016859Y-72843256D01*
X149958768Y-72923211D01*
X149880128Y-73077552D01*
X149826597Y-73242302D01*
X149799500Y-73413389D01*
X149799500Y-73586611D01*
X149826598Y-73757701D01*
X149880127Y-73922445D01*
X149958768Y-74076788D01*
X150060586Y-74216928D01*
X150060588Y-74216930D01*
X150156477Y-74312819D01*
X150189962Y-74374142D01*
X150184978Y-74443834D01*
X150143106Y-74499767D01*
X150077642Y-74524184D01*
X150068796Y-74524500D01*
X150062601Y-74524500D01*
X149937399Y-74524500D01*
X149889156Y-74537427D01*
X149816463Y-74556905D01*
X149708037Y-74619504D01*
X149708034Y-74619506D01*
X149619506Y-74708034D01*
X149619504Y-74708037D01*
X149556905Y-74816463D01*
X149556905Y-74816464D01*
X149524500Y-74937399D01*
X140475500Y-74937399D01*
X140443095Y-74816464D01*
X140385875Y-74717355D01*
X140369404Y-74649457D01*
X140392257Y-74583430D01*
X140447179Y-74540240D01*
X140516732Y-74533599D01*
X140531569Y-74537423D01*
X140642299Y-74573402D01*
X140813389Y-74600500D01*
X140813390Y-74600500D01*
X140986610Y-74600500D01*
X140986611Y-74600500D01*
X141157701Y-74573402D01*
X141322445Y-74519873D01*
X141476788Y-74441232D01*
X141616928Y-74339414D01*
X141739414Y-74216928D01*
X141841232Y-74076788D01*
X141919873Y-73922445D01*
X141973402Y-73757701D01*
X142000500Y-73586611D01*
X142000500Y-73413389D01*
X144799500Y-73413389D01*
X144799500Y-73586611D01*
X144826598Y-73757701D01*
X144880127Y-73922445D01*
X144958768Y-74076788D01*
X145060586Y-74216928D01*
X145183072Y-74339414D01*
X145323212Y-74441232D01*
X145477555Y-74519873D01*
X145642299Y-74573402D01*
X145813389Y-74600500D01*
X145813390Y-74600500D01*
X145986610Y-74600500D01*
X145986611Y-74600500D01*
X146157701Y-74573402D01*
X146322445Y-74519873D01*
X146476788Y-74441232D01*
X146616928Y-74339414D01*
X146739414Y-74216928D01*
X146841232Y-74076788D01*
X146919873Y-73922445D01*
X146973402Y-73757701D01*
X147000500Y-73586611D01*
X147000500Y-73413389D01*
X146973402Y-73242299D01*
X146919873Y-73077555D01*
X146841232Y-72923212D01*
X146739414Y-72783072D01*
X146616928Y-72660586D01*
X146476788Y-72558768D01*
X146322445Y-72480127D01*
X146157701Y-72426598D01*
X146157699Y-72426597D01*
X146157698Y-72426597D01*
X146026271Y-72405781D01*
X145986611Y-72399500D01*
X145813389Y-72399500D01*
X145773728Y-72405781D01*
X145642302Y-72426597D01*
X145477552Y-72480128D01*
X145323211Y-72558768D01*
X145243256Y-72616859D01*
X145183072Y-72660586D01*
X145183070Y-72660588D01*
X145183069Y-72660588D01*
X145060588Y-72783069D01*
X145060588Y-72783070D01*
X145060586Y-72783072D01*
X145016859Y-72843256D01*
X144958768Y-72923211D01*
X144880128Y-73077552D01*
X144826597Y-73242302D01*
X144799500Y-73413389D01*
X142000500Y-73413389D01*
X141973402Y-73242299D01*
X141919873Y-73077555D01*
X141841232Y-72923212D01*
X141739414Y-72783072D01*
X141616928Y-72660586D01*
X141476788Y-72558768D01*
X141322445Y-72480127D01*
X141157701Y-72426598D01*
X141157699Y-72426597D01*
X141157698Y-72426597D01*
X141026271Y-72405781D01*
X140986611Y-72399500D01*
X140813389Y-72399500D01*
X140773728Y-72405781D01*
X140642302Y-72426597D01*
X140477552Y-72480128D01*
X140323211Y-72558768D01*
X140243256Y-72616859D01*
X140183072Y-72660586D01*
X140183070Y-72660588D01*
X140183069Y-72660588D01*
X140060588Y-72783069D01*
X140060588Y-72783070D01*
X140060586Y-72783072D01*
X140016859Y-72843256D01*
X139958768Y-72923211D01*
X139880128Y-73077552D01*
X139826597Y-73242302D01*
X139799500Y-73413389D01*
X139799500Y-73586611D01*
X139826598Y-73757701D01*
X139880127Y-73922445D01*
X139958768Y-74076788D01*
X140060586Y-74216928D01*
X140060588Y-74216930D01*
X140156477Y-74312819D01*
X140189962Y-74374142D01*
X140184978Y-74443834D01*
X140143106Y-74499767D01*
X140077642Y-74524184D01*
X140068796Y-74524500D01*
X140062601Y-74524500D01*
X139937399Y-74524500D01*
X139889156Y-74537427D01*
X139816463Y-74556905D01*
X139708037Y-74619504D01*
X139708034Y-74619506D01*
X139619506Y-74708034D01*
X139619504Y-74708037D01*
X139556905Y-74816463D01*
X139556905Y-74816464D01*
X139524500Y-74937399D01*
X135475500Y-74937399D01*
X135443095Y-74816464D01*
X135380495Y-74708036D01*
X135291964Y-74619505D01*
X135183536Y-74556905D01*
X135183537Y-74556905D01*
X135110844Y-74537427D01*
X135062601Y-74524500D01*
X134937399Y-74524500D01*
X134889156Y-74537427D01*
X134816463Y-74556905D01*
X134708037Y-74619504D01*
X134708034Y-74619506D01*
X134619506Y-74708034D01*
X134619504Y-74708037D01*
X134556905Y-74816463D01*
X134556905Y-74816464D01*
X134524500Y-74937399D01*
X130475500Y-74937399D01*
X130443095Y-74816464D01*
X130380495Y-74708036D01*
X130291964Y-74619505D01*
X130183536Y-74556905D01*
X130183537Y-74556905D01*
X130110844Y-74537427D01*
X130062601Y-74524500D01*
X129937399Y-74524500D01*
X129889156Y-74537427D01*
X129816463Y-74556905D01*
X129708037Y-74619504D01*
X129708034Y-74619506D01*
X129619506Y-74708034D01*
X129619504Y-74708037D01*
X129556905Y-74816463D01*
X129556905Y-74816464D01*
X129524500Y-74937399D01*
X125475500Y-74937399D01*
X125443095Y-74816464D01*
X125380495Y-74708036D01*
X125291964Y-74619505D01*
X125183536Y-74556905D01*
X125183537Y-74556905D01*
X125110844Y-74537427D01*
X125062601Y-74524500D01*
X124937399Y-74524500D01*
X124889156Y-74537427D01*
X124816463Y-74556905D01*
X124708037Y-74619504D01*
X124708034Y-74619506D01*
X124619506Y-74708034D01*
X124619504Y-74708037D01*
X124556905Y-74816463D01*
X124556905Y-74816464D01*
X124524500Y-74937399D01*
X120250500Y-74937399D01*
X120250500Y-69379317D01*
X120270185Y-69312278D01*
X120322989Y-69266523D01*
X120392147Y-69256579D01*
X120455703Y-69285604D01*
X120483858Y-69320864D01*
X120579769Y-69500303D01*
X120579773Y-69500310D01*
X120579776Y-69500315D01*
X120765399Y-69778118D01*
X120765402Y-69778122D01*
X120765403Y-69778123D01*
X120977361Y-70036395D01*
X121213604Y-70272638D01*
X121213609Y-70272642D01*
X121213610Y-70272643D01*
X121471882Y-70484601D01*
X121749685Y-70670224D01*
X121749694Y-70670229D01*
X121749696Y-70670230D01*
X122044338Y-70827719D01*
X122044340Y-70827719D01*
X122044346Y-70827723D01*
X122353024Y-70955582D01*
X122672749Y-71052569D01*
X122672755Y-71052570D01*
X122672758Y-71052571D01*
X122672769Y-71052574D01*
X122878243Y-71093444D01*
X123000441Y-71117751D01*
X123332944Y-71150500D01*
X123332947Y-71150500D01*
X123667053Y-71150500D01*
X123667056Y-71150500D01*
X123999559Y-71117751D01*
X124161757Y-71085487D01*
X124327230Y-71052574D01*
X124327241Y-71052571D01*
X124327241Y-71052570D01*
X124327251Y-71052569D01*
X124646976Y-70955582D01*
X124955654Y-70827723D01*
X125250315Y-70670224D01*
X125528118Y-70484601D01*
X125786390Y-70272643D01*
X126022643Y-70036390D01*
X126103883Y-69937399D01*
X129524500Y-69937399D01*
X129524500Y-70062601D01*
X129556905Y-70183536D01*
X129619505Y-70291964D01*
X129708036Y-70380495D01*
X129816464Y-70443095D01*
X129937399Y-70475500D01*
X129937401Y-70475500D01*
X130062599Y-70475500D01*
X130062601Y-70475500D01*
X130183536Y-70443095D01*
X130291964Y-70380495D01*
X130380495Y-70291964D01*
X130443095Y-70183536D01*
X130475500Y-70062601D01*
X130475500Y-69937399D01*
X134524500Y-69937399D01*
X134524500Y-70062601D01*
X134556905Y-70183536D01*
X134619505Y-70291964D01*
X134708036Y-70380495D01*
X134816464Y-70443095D01*
X134937399Y-70475500D01*
X134937401Y-70475500D01*
X135062599Y-70475500D01*
X135062601Y-70475500D01*
X135183536Y-70443095D01*
X135291964Y-70380495D01*
X135380495Y-70291964D01*
X135443095Y-70183536D01*
X135475500Y-70062601D01*
X135475500Y-69937399D01*
X139524500Y-69937399D01*
X139524500Y-70062601D01*
X139556905Y-70183536D01*
X139619505Y-70291964D01*
X139708036Y-70380495D01*
X139816464Y-70443095D01*
X139937399Y-70475500D01*
X139937401Y-70475500D01*
X140062599Y-70475500D01*
X140062601Y-70475500D01*
X140183536Y-70443095D01*
X140291964Y-70380495D01*
X140380495Y-70291964D01*
X140443095Y-70183536D01*
X140475500Y-70062601D01*
X140475500Y-69937399D01*
X144524500Y-69937399D01*
X144524500Y-70062601D01*
X144556905Y-70183536D01*
X144619505Y-70291964D01*
X144708036Y-70380495D01*
X144816464Y-70443095D01*
X144937399Y-70475500D01*
X144937401Y-70475500D01*
X145062599Y-70475500D01*
X145062601Y-70475500D01*
X145183536Y-70443095D01*
X145291964Y-70380495D01*
X145380495Y-70291964D01*
X145443095Y-70183536D01*
X145475500Y-70062601D01*
X145475500Y-69937399D01*
X149524500Y-69937399D01*
X149524500Y-70062601D01*
X149556905Y-70183536D01*
X149619505Y-70291964D01*
X149708036Y-70380495D01*
X149816464Y-70443095D01*
X149937399Y-70475500D01*
X149937401Y-70475500D01*
X150062599Y-70475500D01*
X150062601Y-70475500D01*
X150183536Y-70443095D01*
X150291964Y-70380495D01*
X150380495Y-70291964D01*
X150443095Y-70183536D01*
X150475500Y-70062601D01*
X150475500Y-69937399D01*
X154524500Y-69937399D01*
X154524500Y-70062601D01*
X154556905Y-70183536D01*
X154619505Y-70291964D01*
X154708036Y-70380495D01*
X154816464Y-70443095D01*
X154937399Y-70475500D01*
X154937401Y-70475500D01*
X155062599Y-70475500D01*
X155062601Y-70475500D01*
X155183536Y-70443095D01*
X155291964Y-70380495D01*
X155380495Y-70291964D01*
X155443095Y-70183536D01*
X155475500Y-70062601D01*
X155475500Y-69937399D01*
X159524500Y-69937399D01*
X159524500Y-70062601D01*
X159556905Y-70183536D01*
X159619505Y-70291964D01*
X159708036Y-70380495D01*
X159816464Y-70443095D01*
X159937399Y-70475500D01*
X159937401Y-70475500D01*
X160062599Y-70475500D01*
X160062601Y-70475500D01*
X160183536Y-70443095D01*
X160291964Y-70380495D01*
X160380495Y-70291964D01*
X160443095Y-70183536D01*
X160475500Y-70062601D01*
X160475500Y-69937399D01*
X164524500Y-69937399D01*
X164524500Y-70062601D01*
X164556905Y-70183536D01*
X164619505Y-70291964D01*
X164708036Y-70380495D01*
X164816464Y-70443095D01*
X164937399Y-70475500D01*
X164937401Y-70475500D01*
X165062599Y-70475500D01*
X165062601Y-70475500D01*
X165183536Y-70443095D01*
X165291964Y-70380495D01*
X165380495Y-70291964D01*
X165443095Y-70183536D01*
X165475500Y-70062601D01*
X165475500Y-69937399D01*
X165443095Y-69816464D01*
X165380495Y-69708036D01*
X165291964Y-69619505D01*
X165183536Y-69556905D01*
X165183537Y-69556905D01*
X165110844Y-69537427D01*
X165062601Y-69524500D01*
X164937399Y-69524500D01*
X164889156Y-69537427D01*
X164816463Y-69556905D01*
X164708037Y-69619504D01*
X164708034Y-69619506D01*
X164619506Y-69708034D01*
X164619504Y-69708037D01*
X164556905Y-69816463D01*
X164540702Y-69876931D01*
X164524500Y-69937399D01*
X160475500Y-69937399D01*
X160443095Y-69816464D01*
X160380495Y-69708036D01*
X160291964Y-69619505D01*
X160183536Y-69556905D01*
X160183537Y-69556905D01*
X160110844Y-69537427D01*
X160062601Y-69524500D01*
X159937399Y-69524500D01*
X159889156Y-69537427D01*
X159816463Y-69556905D01*
X159708037Y-69619504D01*
X159708034Y-69619506D01*
X159619506Y-69708034D01*
X159619504Y-69708037D01*
X159556905Y-69816463D01*
X159540702Y-69876931D01*
X159524500Y-69937399D01*
X155475500Y-69937399D01*
X155443095Y-69816464D01*
X155385875Y-69717355D01*
X155369404Y-69649457D01*
X155392257Y-69583430D01*
X155447179Y-69540240D01*
X155516732Y-69533599D01*
X155531569Y-69537423D01*
X155642299Y-69573402D01*
X155813389Y-69600500D01*
X155813390Y-69600500D01*
X155986610Y-69600500D01*
X155986611Y-69600500D01*
X156157701Y-69573402D01*
X156322445Y-69519873D01*
X156476788Y-69441232D01*
X156616928Y-69339414D01*
X156739414Y-69216928D01*
X156841232Y-69076788D01*
X156919873Y-68922445D01*
X156973402Y-68757701D01*
X157000500Y-68586611D01*
X157000500Y-68413389D01*
X156973402Y-68242299D01*
X156919873Y-68077555D01*
X156841232Y-67923212D01*
X156739414Y-67783072D01*
X156616928Y-67660586D01*
X156476788Y-67558768D01*
X156322445Y-67480127D01*
X156157701Y-67426598D01*
X156157699Y-67426597D01*
X156157698Y-67426597D01*
X156026271Y-67405781D01*
X155986611Y-67399500D01*
X155813389Y-67399500D01*
X155773728Y-67405781D01*
X155642302Y-67426597D01*
X155477552Y-67480128D01*
X155323211Y-67558768D01*
X155243256Y-67616859D01*
X155183072Y-67660586D01*
X155183070Y-67660588D01*
X155183069Y-67660588D01*
X155060588Y-67783069D01*
X155060588Y-67783070D01*
X155060586Y-67783072D01*
X155036844Y-67815750D01*
X154958768Y-67923211D01*
X154880128Y-68077552D01*
X154826597Y-68242302D01*
X154825448Y-68249559D01*
X154799500Y-68413389D01*
X154799500Y-68586611D01*
X154826598Y-68757701D01*
X154880127Y-68922445D01*
X154958768Y-69076788D01*
X155060586Y-69216928D01*
X155060588Y-69216930D01*
X155156477Y-69312819D01*
X155189962Y-69374142D01*
X155184978Y-69443834D01*
X155143106Y-69499767D01*
X155077642Y-69524184D01*
X155068796Y-69524500D01*
X155062601Y-69524500D01*
X154937399Y-69524500D01*
X154889156Y-69537427D01*
X154816463Y-69556905D01*
X154708037Y-69619504D01*
X154708034Y-69619506D01*
X154619506Y-69708034D01*
X154619504Y-69708037D01*
X154556905Y-69816463D01*
X154540702Y-69876931D01*
X154524500Y-69937399D01*
X150475500Y-69937399D01*
X150443095Y-69816464D01*
X150385875Y-69717355D01*
X150369404Y-69649457D01*
X150392257Y-69583430D01*
X150447179Y-69540240D01*
X150516732Y-69533599D01*
X150531569Y-69537423D01*
X150642299Y-69573402D01*
X150813389Y-69600500D01*
X150813390Y-69600500D01*
X150986610Y-69600500D01*
X150986611Y-69600500D01*
X151157701Y-69573402D01*
X151322445Y-69519873D01*
X151476788Y-69441232D01*
X151616928Y-69339414D01*
X151739414Y-69216928D01*
X151841232Y-69076788D01*
X151919873Y-68922445D01*
X151973402Y-68757701D01*
X152000500Y-68586611D01*
X152000500Y-68413389D01*
X151973402Y-68242299D01*
X151919873Y-68077555D01*
X151841232Y-67923212D01*
X151739414Y-67783072D01*
X151616928Y-67660586D01*
X151476788Y-67558768D01*
X151322445Y-67480127D01*
X151157701Y-67426598D01*
X151157699Y-67426597D01*
X151157698Y-67426597D01*
X151026271Y-67405781D01*
X150986611Y-67399500D01*
X150813389Y-67399500D01*
X150773728Y-67405781D01*
X150642302Y-67426597D01*
X150477552Y-67480128D01*
X150323211Y-67558768D01*
X150243256Y-67616859D01*
X150183072Y-67660586D01*
X150183070Y-67660588D01*
X150183069Y-67660588D01*
X150060588Y-67783069D01*
X150060588Y-67783070D01*
X150060586Y-67783072D01*
X150036844Y-67815750D01*
X149958768Y-67923211D01*
X149880128Y-68077552D01*
X149826597Y-68242302D01*
X149825448Y-68249559D01*
X149799500Y-68413389D01*
X149799500Y-68586611D01*
X149826598Y-68757701D01*
X149880127Y-68922445D01*
X149958768Y-69076788D01*
X150060586Y-69216928D01*
X150060588Y-69216930D01*
X150156477Y-69312819D01*
X150189962Y-69374142D01*
X150184978Y-69443834D01*
X150143106Y-69499767D01*
X150077642Y-69524184D01*
X150068796Y-69524500D01*
X150062601Y-69524500D01*
X149937399Y-69524500D01*
X149889156Y-69537427D01*
X149816463Y-69556905D01*
X149708037Y-69619504D01*
X149708034Y-69619506D01*
X149619506Y-69708034D01*
X149619504Y-69708037D01*
X149556905Y-69816463D01*
X149540702Y-69876931D01*
X149524500Y-69937399D01*
X145475500Y-69937399D01*
X145443095Y-69816464D01*
X145385875Y-69717355D01*
X145369404Y-69649457D01*
X145392257Y-69583430D01*
X145447179Y-69540240D01*
X145516732Y-69533599D01*
X145531569Y-69537423D01*
X145642299Y-69573402D01*
X145813389Y-69600500D01*
X145813390Y-69600500D01*
X145986610Y-69600500D01*
X145986611Y-69600500D01*
X146157701Y-69573402D01*
X146322445Y-69519873D01*
X146476788Y-69441232D01*
X146616928Y-69339414D01*
X146739414Y-69216928D01*
X146841232Y-69076788D01*
X146919873Y-68922445D01*
X146973402Y-68757701D01*
X147000500Y-68586611D01*
X147000500Y-68413389D01*
X146973402Y-68242299D01*
X146919873Y-68077555D01*
X146841232Y-67923212D01*
X146739414Y-67783072D01*
X146616928Y-67660586D01*
X146476788Y-67558768D01*
X146322445Y-67480127D01*
X146157701Y-67426598D01*
X146157699Y-67426597D01*
X146157698Y-67426597D01*
X146026271Y-67405781D01*
X145986611Y-67399500D01*
X145813389Y-67399500D01*
X145773728Y-67405781D01*
X145642302Y-67426597D01*
X145477552Y-67480128D01*
X145323211Y-67558768D01*
X145243256Y-67616859D01*
X145183072Y-67660586D01*
X145183070Y-67660588D01*
X145183069Y-67660588D01*
X145060588Y-67783069D01*
X145060588Y-67783070D01*
X145060586Y-67783072D01*
X145036844Y-67815750D01*
X144958768Y-67923211D01*
X144880128Y-68077552D01*
X144826597Y-68242302D01*
X144825448Y-68249559D01*
X144799500Y-68413389D01*
X144799500Y-68586611D01*
X144826598Y-68757701D01*
X144880127Y-68922445D01*
X144958768Y-69076788D01*
X145060586Y-69216928D01*
X145060588Y-69216930D01*
X145156477Y-69312819D01*
X145189962Y-69374142D01*
X145184978Y-69443834D01*
X145143106Y-69499767D01*
X145077642Y-69524184D01*
X145068796Y-69524500D01*
X145062601Y-69524500D01*
X144937399Y-69524500D01*
X144889156Y-69537427D01*
X144816463Y-69556905D01*
X144708037Y-69619504D01*
X144708034Y-69619506D01*
X144619506Y-69708034D01*
X144619504Y-69708037D01*
X144556905Y-69816463D01*
X144540702Y-69876931D01*
X144524500Y-69937399D01*
X140475500Y-69937399D01*
X140443095Y-69816464D01*
X140385875Y-69717355D01*
X140369404Y-69649457D01*
X140392257Y-69583430D01*
X140447179Y-69540240D01*
X140516732Y-69533599D01*
X140531569Y-69537423D01*
X140642299Y-69573402D01*
X140813389Y-69600500D01*
X140813390Y-69600500D01*
X140986610Y-69600500D01*
X140986611Y-69600500D01*
X141157701Y-69573402D01*
X141322445Y-69519873D01*
X141476788Y-69441232D01*
X141616928Y-69339414D01*
X141739414Y-69216928D01*
X141841232Y-69076788D01*
X141919873Y-68922445D01*
X141973402Y-68757701D01*
X142000500Y-68586611D01*
X142000500Y-68413389D01*
X141973402Y-68242299D01*
X141919873Y-68077555D01*
X141841232Y-67923212D01*
X141739414Y-67783072D01*
X141616928Y-67660586D01*
X141476788Y-67558768D01*
X141322445Y-67480127D01*
X141157701Y-67426598D01*
X141157699Y-67426597D01*
X141157698Y-67426597D01*
X141026271Y-67405781D01*
X140986611Y-67399500D01*
X140813389Y-67399500D01*
X140773728Y-67405781D01*
X140642302Y-67426597D01*
X140477552Y-67480128D01*
X140323211Y-67558768D01*
X140243256Y-67616859D01*
X140183072Y-67660586D01*
X140183070Y-67660588D01*
X140183069Y-67660588D01*
X140060588Y-67783069D01*
X140060588Y-67783070D01*
X140060586Y-67783072D01*
X140036844Y-67815750D01*
X139958768Y-67923211D01*
X139880128Y-68077552D01*
X139826597Y-68242302D01*
X139825448Y-68249559D01*
X139799500Y-68413389D01*
X139799500Y-68586611D01*
X139826598Y-68757701D01*
X139880127Y-68922445D01*
X139958768Y-69076788D01*
X140060586Y-69216928D01*
X140060588Y-69216930D01*
X140156477Y-69312819D01*
X140189962Y-69374142D01*
X140184978Y-69443834D01*
X140143106Y-69499767D01*
X140077642Y-69524184D01*
X140068796Y-69524500D01*
X140062601Y-69524500D01*
X139937399Y-69524500D01*
X139889156Y-69537427D01*
X139816463Y-69556905D01*
X139708037Y-69619504D01*
X139708034Y-69619506D01*
X139619506Y-69708034D01*
X139619504Y-69708037D01*
X139556905Y-69816463D01*
X139540702Y-69876931D01*
X139524500Y-69937399D01*
X135475500Y-69937399D01*
X135443095Y-69816464D01*
X135380495Y-69708036D01*
X135291964Y-69619505D01*
X135183536Y-69556905D01*
X135183537Y-69556905D01*
X135110844Y-69537427D01*
X135062601Y-69524500D01*
X134937399Y-69524500D01*
X134889156Y-69537427D01*
X134816463Y-69556905D01*
X134708037Y-69619504D01*
X134708034Y-69619506D01*
X134619506Y-69708034D01*
X134619504Y-69708037D01*
X134556905Y-69816463D01*
X134540702Y-69876931D01*
X134524500Y-69937399D01*
X130475500Y-69937399D01*
X130443095Y-69816464D01*
X130380495Y-69708036D01*
X130291964Y-69619505D01*
X130183536Y-69556905D01*
X130183537Y-69556905D01*
X130110844Y-69537427D01*
X130062601Y-69524500D01*
X129937399Y-69524500D01*
X129889156Y-69537427D01*
X129816463Y-69556905D01*
X129708037Y-69619504D01*
X129708034Y-69619506D01*
X129619506Y-69708034D01*
X129619504Y-69708037D01*
X129556905Y-69816463D01*
X129540702Y-69876931D01*
X129524500Y-69937399D01*
X126103883Y-69937399D01*
X126234601Y-69778118D01*
X126420224Y-69500315D01*
X126577723Y-69205654D01*
X126705582Y-68896976D01*
X126802569Y-68577251D01*
X126802571Y-68577241D01*
X126802574Y-68577230D01*
X126835487Y-68411757D01*
X126867751Y-68249559D01*
X126900500Y-67917056D01*
X126900500Y-67582944D01*
X126867751Y-67250441D01*
X126835361Y-67087604D01*
X126802574Y-66922769D01*
X126802571Y-66922758D01*
X126802570Y-66922755D01*
X126802569Y-66922749D01*
X126705582Y-66603024D01*
X126577723Y-66294346D01*
X126553851Y-66249685D01*
X126420230Y-65999696D01*
X126420229Y-65999694D01*
X126420224Y-65999685D01*
X126234601Y-65721882D01*
X126022643Y-65463610D01*
X126022642Y-65463609D01*
X126022638Y-65463604D01*
X125786395Y-65227361D01*
X125528123Y-65015403D01*
X125528122Y-65015402D01*
X125528118Y-65015399D01*
X125250315Y-64829776D01*
X125250310Y-64829773D01*
X125250303Y-64829769D01*
X125089374Y-64743751D01*
X125039529Y-64694789D01*
X125024069Y-64626651D01*
X125047901Y-64560971D01*
X125103458Y-64518603D01*
X125148566Y-64510395D01*
X148436512Y-64650122D01*
G37*
%TD.AperFunction*%
%TD*%
M02*
