%TF.GenerationSoftware,KiCad,Pcbnew,9.0.7+1*%
%TF.CreationDate,Date%
%TF.ProjectId,Cellule_de_force_V2,43656c6c-756c-4655-9f64-655f666f7263,+ (Unreleased)*%
%TF.SameCoordinates,Original*%
%TF.FileFunction,Copper,L2,Bot*%
%TF.FilePolarity,Positive*%
%FSLAX46Y46*%
G04 Gerber Fmt 4.6, Leading zero omitted, Abs format (unit mm)*
G04 Created by KiCad*
%MOMM*%
%LPD*%
G01*
G04 APERTURE LIST*
%TA.AperFunction,ComponentPad*%
%ADD10C,0.800000*%
%TD*%
%TA.AperFunction,ComponentPad*%
%ADD11C,6.400000*%
%TD*%
%TA.AperFunction,HeatsinkPad*%
%ADD12C,0.500000*%
%TD*%
%TA.AperFunction,HeatsinkPad*%
%ADD13R,1.800000X3.100000*%
%TD*%
%TA.AperFunction,ComponentPad*%
%ADD14R,1.700000X1.700000*%
%TD*%
%TA.AperFunction,ComponentPad*%
%ADD15C,1.700000*%
%TD*%
%TA.AperFunction,ViaPad*%
%ADD16C,0.550000*%
%TD*%
%TA.AperFunction,Conductor*%
%ADD17C,0.400000*%
%TD*%
%TA.AperFunction,Conductor*%
%ADD18C,0.200000*%
%TD*%
%TA.AperFunction,Conductor*%
%ADD19C,0.250000*%
%TD*%
G04 APERTURE END LIST*
D10*
%TO.P,H4,1,1*%
%TO.N,GND*%
X156100000Y-139900000D03*
X156802944Y-138202944D03*
X156802944Y-141597056D03*
X158500000Y-137500000D03*
D11*
X158500000Y-139900000D03*
D10*
X158500000Y-142300000D03*
X160197056Y-138202944D03*
X160197056Y-141597056D03*
X160900000Y-139900000D03*
%TD*%
D12*
%TO.P,U2,11,GND*%
%TO.N,GND*%
X149100000Y-113200000D03*
X149100000Y-114500000D03*
X149100000Y-115800000D03*
D13*
X149750000Y-114500000D03*
D12*
X150400000Y-113200000D03*
X150400000Y-114500000D03*
X150400000Y-115800000D03*
%TD*%
D14*
%TO.P,J2,1,Pin_1*%
%TO.N,+6V_OUT*%
X140100000Y-121175000D03*
D15*
%TO.P,J2,2,Pin_2*%
%TO.N,+6V_IN*%
X140100000Y-118635000D03*
%TD*%
D14*
%TO.P,J4,1,Pin_1*%
%TO.N,IN-SENSE+*%
X158900000Y-98625000D03*
D15*
%TO.P,J4,2,Pin_2*%
%TO.N,+5VA_OUT*%
X158900000Y-101165000D03*
%TD*%
D14*
%TO.P,J3,1,Pin_1*%
%TO.N,+3.3V_IN*%
X155300000Y-98600000D03*
D15*
%TO.P,J3,2,Pin_2*%
X155300000Y-101140000D03*
%TD*%
D14*
%TO.P,J1,1,Pin_1*%
%TO.N,+3.3V_IN*%
X160200000Y-129840000D03*
D15*
%TO.P,J1,2,Pin_2*%
%TO.N,GND*%
X160200000Y-127300000D03*
%TD*%
D10*
%TO.P,H3,1,1*%
%TO.N,GND*%
X136200000Y-139900000D03*
X136902944Y-138202944D03*
X136902944Y-141597056D03*
X138600000Y-137500000D03*
D11*
X138600000Y-139900000D03*
D10*
X138600000Y-142300000D03*
X140297056Y-138202944D03*
X140297056Y-141597056D03*
X141000000Y-139900000D03*
%TD*%
D14*
%TO.P,J5,1,Pin_1*%
%TO.N,IN-SENSE-*%
X144720000Y-76600000D03*
D15*
%TO.P,J5,2,Pin_2*%
%TO.N,IN-SENSE+*%
X147260000Y-76600000D03*
%TO.P,J5,3,Pin_3*%
%TO.N,IN-OUT-*%
X149800000Y-76600000D03*
%TO.P,J5,4,Pin_4*%
%TO.N,IN-OUT+*%
X152340000Y-76600000D03*
%TD*%
D14*
%TO.P,J6,1,Pin_1*%
%TO.N,SYNC*%
X136200000Y-84040000D03*
D15*
%TO.P,J6,2,Pin_2*%
%TO.N,DOUT*%
X136200000Y-86580000D03*
%TO.P,J6,3,Pin_3*%
%TO.N,DIN*%
X136200000Y-89120000D03*
%TO.P,J6,4,Pin_4*%
%TO.N,SCLK*%
X136200000Y-91660000D03*
%TO.P,J6,5,Pin_5*%
%TO.N,CS*%
X136200000Y-94200000D03*
%TD*%
D10*
%TO.P,H1,1,1*%
%TO.N,GND*%
X156100000Y-78800000D03*
X156802944Y-77102944D03*
X156802944Y-80497056D03*
X158500000Y-76400000D03*
D11*
X158500000Y-78800000D03*
D10*
X158500000Y-81200000D03*
X160197056Y-77102944D03*
X160197056Y-80497056D03*
X160900000Y-78800000D03*
%TD*%
%TO.P,H2,1,1*%
%TO.N,GND*%
X136200000Y-78800000D03*
X136902944Y-77102944D03*
X136902944Y-80497056D03*
X138600000Y-76400000D03*
D11*
X138600000Y-78800000D03*
D10*
X138600000Y-81200000D03*
X140297056Y-77102944D03*
X140297056Y-80497056D03*
X141000000Y-78800000D03*
%TD*%
D16*
%TO.N,IN-SENSE+*%
X148100000Y-88500000D03*
X150400000Y-88500000D03*
%TO.N,OUT-*%
X151425000Y-88500000D03*
X157300000Y-87200000D03*
%TO.N,+5VA_OUT*%
X151450000Y-118250000D03*
X151900000Y-112100000D03*
%TO.N,Net-(U1-~{CS})*%
X141925000Y-90825000D03*
X141400000Y-94100000D03*
%TD*%
D17*
%TO.N,IN-SENSE+*%
X150400000Y-88500000D02*
X148100000Y-88500000D01*
D18*
%TO.N,OUT-*%
X155500000Y-87200000D02*
X157300000Y-87200000D01*
X154200000Y-88500000D02*
X155500000Y-87200000D01*
X151425000Y-88500000D02*
X154200000Y-88500000D01*
%TO.N,+5VA_OUT*%
X151450000Y-118250000D02*
X151450000Y-117900000D01*
X151900000Y-117450000D02*
X151900000Y-112100000D01*
X151450000Y-117900000D02*
X151900000Y-117450000D01*
D19*
%TO.N,Net-(U1-~{CS})*%
X141925000Y-93575000D02*
X141400000Y-94100000D01*
X141925000Y-90825000D02*
X141925000Y-93575000D01*
%TD*%
M02*
