M48
; DRILL file {KiCad 9.0.7+1} date 2026-03-10T17:19:23+0000
; FORMAT={-:-/ absolute / metric / decimal}
; #@! TF.CreationDate,2026-03-10T17:19:23+00:00
; #@! TF.GenerationSoftware,Kicad,Pcbnew,9.0.7+1
; #@! TF.FileFunction,Plated,1,4,PTH
FMAT,2
METRIC
; #@! TA.AperFunction,Plated,PTH,ComponentDrill
T1C0.200
; #@! TA.AperFunction,Plated,PTH,ViaDrill
T2C0.250
; #@! TA.AperFunction,Plated,PTH,ComponentDrill
T3C0.500
; #@! TA.AperFunction,Plated,PTH,ComponentDrill
T4C0.950
; #@! TA.AperFunction,Plated,PTH,ComponentDrill
T5C1.100
; #@! TA.AperFunction,Plated,PTH,ComponentDrill
T6C1.200
; #@! TA.AperFunction,Plated,PTH,ComponentDrill
T7C3.200
%
G90
G05
T1
X168.5Y-88.8
X168.5Y-90.1
X169.8Y-88.8
X169.8Y-90.1
X171.1Y-88.8
X171.1Y-90.1
T2
X139.6Y-93.75
X140.075Y-84.66
X140.65Y-93.725
X141.65Y-90.02
X141.65Y-95.98
X143.15Y-90.02
X143.15Y-95.98
X146.235Y-84.66
X147.0Y-91.825
X147.035Y-91.175
X149.15Y-102.3
X149.576Y-103.251
X150.1Y-89.875
X150.33Y-83.77
X151.25Y-103.725
X154.525Y-95.15
X156.49Y-83.77
X165.3Y-108.7
X168.19Y-96.64
X169.37Y-101.76
X173.05Y-99.99
X175.26Y-105.12
X175.7Y-98.3
T3
X121.1Y-67.75
X121.1Y-111.5
X121.803Y-66.053
X121.803Y-69.447
X121.803Y-109.803
X121.803Y-113.197
X123.5Y-65.35
X123.5Y-70.15
X123.5Y-109.1
X123.5Y-113.9
X125.197Y-66.053
X125.197Y-69.447
X125.197Y-109.803
X125.197Y-113.197
X125.9Y-67.75
X125.9Y-111.5
X171.1Y-68.0
X171.1Y-111.5
X171.803Y-66.303
X171.803Y-69.697
X171.803Y-109.803
X171.803Y-113.197
X173.5Y-65.6
X173.5Y-70.4
X173.5Y-109.1
X173.5Y-113.9
X175.197Y-66.303
X175.197Y-69.697
X175.197Y-109.803
X175.197Y-113.197
X175.9Y-68.0
X175.9Y-111.5
T4
X141.1Y-111.375
X143.6Y-111.375
X146.1Y-111.375
X148.6Y-111.375
X151.1Y-111.375
X153.6Y-111.375
X156.1Y-111.375
T5
X138.25Y-82.38
X138.25Y-87.46
X138.25Y-92.54
X138.25Y-97.62
X140.88Y-79.75
X140.88Y-100.25
X145.96Y-79.75
X145.96Y-100.25
X151.04Y-79.75
X151.04Y-100.25
X156.12Y-79.75
X156.12Y-100.25
X158.75Y-82.38
X158.75Y-87.46
X158.75Y-92.54
X158.75Y-97.62
T6
X140.9Y-68.5
X140.9Y-73.5
X145.9Y-68.5
X145.9Y-73.5
X150.9Y-68.5
X150.9Y-73.5
X155.9Y-68.5
X155.9Y-73.5
T7
X123.5Y-67.75
X123.5Y-111.5
X173.5Y-68.0
X173.5Y-111.5
M30
