%TF.GenerationSoftware,KiCad,Pcbnew,9.0.7+1*%
%TF.CreationDate,Date%
%TF.ProjectId,Cellule_de_force_V2,43656c6c-756c-4655-9f64-655f666f7263,+ (Unreleased)*%
%TF.SameCoordinates,Original*%
%TF.FileFunction,Copper,L1,Top*%
%TF.FilePolarity,Positive*%
%FSLAX46Y46*%
G04 Gerber Fmt 4.6, Leading zero omitted, Abs format (unit mm)*
G04 Created by KiCad*
%MOMM*%
%LPD*%
G01*
G04 APERTURE LIST*
G04 Aperture macros list*
%AMRoundRect*
0 Rectangle with rounded corners*
0 $1 Rounding radius*
0 $2 $3 $4 $5 $6 $7 $8 $9 X,Y pos of 4 corners*
0 Add a 4 corners polygon primitive as box body*
4,1,4,$2,$3,$4,$5,$6,$7,$8,$9,$2,$3,0*
0 Add four circle primitives for the rounded corners*
1,1,$1+$1,$2,$3*
1,1,$1+$1,$4,$5*
1,1,$1+$1,$6,$7*
1,1,$1+$1,$8,$9*
0 Add four rect primitives between the rounded corners*
20,1,$1+$1,$2,$3,$4,$5,0*
20,1,$1+$1,$4,$5,$6,$7,0*
20,1,$1+$1,$6,$7,$8,$9,0*
20,1,$1+$1,$8,$9,$2,$3,0*%
%AMFreePoly0*
4,1,29,0.403536,1.303536,0.405000,1.300000,0.405000,0.800000,0.403536,0.796464,0.400000,0.795000,0.205000,0.795000,0.205000,-0.795000,0.400000,-0.795000,0.403536,-0.796464,0.405000,-0.800000,0.405000,-1.300000,0.403536,-1.303536,0.400000,-1.305000,-0.400000,-1.305000,-0.403536,-1.303536,-0.405000,-1.300000,-0.405000,-0.800000,-0.403536,-0.796464,-0.400000,-0.795000,-0.205000,-0.795000,
-0.205000,0.795000,-0.400000,0.795000,-0.403536,0.796464,-0.405000,0.800000,-0.405000,1.300000,-0.403536,1.303536,-0.400000,1.305000,0.400000,1.305000,0.403536,1.303536,0.403536,1.303536,$1*%
G04 Aperture macros list end*
%TA.AperFunction,SMDPad,CuDef*%
%ADD10RoundRect,0.200000X-0.275000X0.200000X-0.275000X-0.200000X0.275000X-0.200000X0.275000X0.200000X0*%
%TD*%
%TA.AperFunction,SMDPad,CuDef*%
%ADD11RoundRect,0.225000X0.250000X-0.225000X0.250000X0.225000X-0.250000X0.225000X-0.250000X-0.225000X0*%
%TD*%
%TA.AperFunction,SMDPad,CuDef*%
%ADD12R,1.850000X1.900000*%
%TD*%
%TA.AperFunction,SMDPad,CuDef*%
%ADD13R,0.240000X0.600000*%
%TD*%
%TA.AperFunction,SMDPad,CuDef*%
%ADD14R,2.400000X1.650000*%
%TD*%
%TA.AperFunction,SMDPad,CuDef*%
%ADD15R,0.500000X0.250000*%
%TD*%
%TA.AperFunction,SMDPad,CuDef*%
%ADD16RoundRect,0.225000X-0.250000X0.225000X-0.250000X-0.225000X0.250000X-0.225000X0.250000X0.225000X0*%
%TD*%
%TA.AperFunction,ComponentPad*%
%ADD17C,0.800000*%
%TD*%
%TA.AperFunction,ComponentPad*%
%ADD18C,6.400000*%
%TD*%
%TA.AperFunction,SMDPad,CuDef*%
%ADD19RoundRect,0.225000X-0.225000X-0.250000X0.225000X-0.250000X0.225000X0.250000X-0.225000X0.250000X0*%
%TD*%
%TA.AperFunction,SMDPad,CuDef*%
%ADD20RoundRect,0.150000X0.150000X-0.512500X0.150000X0.512500X-0.150000X0.512500X-0.150000X-0.512500X0*%
%TD*%
%TA.AperFunction,SMDPad,CuDef*%
%ADD21R,1.450000X0.450000*%
%TD*%
%TA.AperFunction,SMDPad,CuDef*%
%ADD22RoundRect,0.200000X0.200000X0.275000X-0.200000X0.275000X-0.200000X-0.275000X0.200000X-0.275000X0*%
%TD*%
%TA.AperFunction,SMDPad,CuDef*%
%ADD23RoundRect,0.200000X0.275000X-0.200000X0.275000X0.200000X-0.275000X0.200000X-0.275000X-0.200000X0*%
%TD*%
%TA.AperFunction,ComponentPad*%
%ADD24RoundRect,0.250000X-0.600000X-0.725000X0.600000X-0.725000X0.600000X0.725000X-0.600000X0.725000X0*%
%TD*%
%TA.AperFunction,ComponentPad*%
%ADD25O,1.700000X1.950000*%
%TD*%
%TA.AperFunction,SMDPad,CuDef*%
%ADD26C,1.500000*%
%TD*%
%TA.AperFunction,SMDPad,CuDef*%
%ADD27RoundRect,0.225000X0.225000X0.250000X-0.225000X0.250000X-0.225000X-0.250000X0.225000X-0.250000X0*%
%TD*%
%TA.AperFunction,SMDPad,CuDef*%
%ADD28RoundRect,0.200000X-0.200000X-0.275000X0.200000X-0.275000X0.200000X0.275000X-0.200000X0.275000X0*%
%TD*%
%TA.AperFunction,SMDPad,CuDef*%
%ADD29RoundRect,0.218750X0.256250X-0.218750X0.256250X0.218750X-0.256250X0.218750X-0.256250X-0.218750X0*%
%TD*%
%TA.AperFunction,SMDPad,CuDef*%
%ADD30RoundRect,0.250000X-0.300000X0.300000X-0.300000X-0.300000X0.300000X-0.300000X0.300000X0.300000X0*%
%TD*%
%TA.AperFunction,SMDPad,CuDef*%
%ADD31R,0.400000X0.900000*%
%TD*%
%TA.AperFunction,ComponentPad*%
%ADD32C,1.500000*%
%TD*%
%TA.AperFunction,SMDPad,CuDef*%
%ADD33R,1.700000X1.300000*%
%TD*%
%TA.AperFunction,SMDPad,CuDef*%
%ADD34RoundRect,0.075000X0.075000X-0.650000X0.075000X0.650000X-0.075000X0.650000X-0.075000X-0.650000X0*%
%TD*%
%TA.AperFunction,HeatsinkPad*%
%ADD35C,0.500000*%
%TD*%
%TA.AperFunction,HeatsinkPad*%
%ADD36R,3.100000X2.200000*%
%TD*%
%TA.AperFunction,SMDPad,CuDef*%
%ADD37FreePoly0,90.000000*%
%TD*%
%TA.AperFunction,ComponentPad*%
%ADD38C,1.800000*%
%TD*%
%TA.AperFunction,ViaPad*%
%ADD39C,0.550000*%
%TD*%
%TA.AperFunction,Conductor*%
%ADD40C,0.200000*%
%TD*%
%TA.AperFunction,Conductor*%
%ADD41C,0.250000*%
%TD*%
%TA.AperFunction,Conductor*%
%ADD42C,0.500000*%
%TD*%
%TA.AperFunction,Conductor*%
%ADD43C,0.400000*%
%TD*%
%TA.AperFunction,Conductor*%
%ADD44C,0.300000*%
%TD*%
%TA.AperFunction,Conductor*%
%ADD45C,0.800000*%
%TD*%
%TA.AperFunction,Conductor*%
%ADD46C,0.600000*%
%TD*%
%TA.AperFunction,Conductor*%
%ADD47C,1.000000*%
%TD*%
G04 APERTURE END LIST*
D10*
%TO.P,R2,1*%
%TO.N,IN-OUT-*%
X142300000Y-81575000D03*
%TO.P,R2,2*%
%TO.N,OUT-*%
X142300000Y-83225000D03*
%TD*%
D11*
%TO.P,C22,1*%
%TO.N,+3.3V*%
X131050000Y-100925000D03*
%TO.P,C22,2*%
%TO.N,GND*%
X131050000Y-99375000D03*
%TD*%
D10*
%TO.P,R11,1*%
%TO.N,Net-(U1-P2)*%
X132050000Y-109625000D03*
%TO.P,R11,2*%
%TO.N,Net-(D2-A)*%
X132050000Y-111275000D03*
%TD*%
D12*
%TO.P,L1,1,1*%
%TO.N,+3.3V*%
X128325000Y-103150000D03*
%TO.P,L1,2,2*%
%TO.N,Net-(D3-A)*%
X123975000Y-103150000D03*
%TD*%
D10*
%TO.P,R1,1*%
%TO.N,IN-OUT+*%
X144010000Y-81575000D03*
%TO.P,R1,2*%
%TO.N,OUT+*%
X144010000Y-83225000D03*
%TD*%
D13*
%TO.P,IC2,1,COMP*%
%TO.N,Net-(IC2-COMP)*%
X128550000Y-95100000D03*
%TO.P,IC2,2,FB*%
%TO.N,/Project Architecture/TPS61086_3.3V_to_6V/FB*%
X128050000Y-95100000D03*
%TO.P,IC2,3,EN*%
%TO.N,+3.3V*%
X127550000Y-95100000D03*
%TO.P,IC2,4,AGND*%
%TO.N,GND*%
X127050000Y-95100000D03*
%TO.P,IC2,5,PGND*%
X126550000Y-95100000D03*
%TO.P,IC2,6,SW_1*%
%TO.N,Net-(D3-A)*%
X126550000Y-97900000D03*
%TO.P,IC2,7,SW_2*%
X127050000Y-97900000D03*
%TO.P,IC2,8,IN*%
%TO.N,+3.3V*%
X127550000Y-97900000D03*
%TO.P,IC2,9,MODE*%
%TO.N,GND*%
X128050000Y-97900000D03*
%TO.P,IC2,10,SS*%
%TO.N,Net-(IC2-SS)*%
X128550000Y-97900000D03*
D14*
%TO.P,IC2,11,EP*%
%TO.N,GND*%
X127550000Y-96500000D03*
D15*
%TO.P,IC2,12,EP_2*%
X126100000Y-96250000D03*
%TO.P,IC2,13,EP_3*%
X126100000Y-96750000D03*
%TO.P,IC2,14,EP_4*%
X129000000Y-96750000D03*
%TO.P,IC2,15,EP_5*%
X129000000Y-96250000D03*
%TD*%
D16*
%TO.P,C24,1*%
%TO.N,MCLK2*%
X153862500Y-92900000D03*
%TO.P,C24,2*%
%TO.N,GND*%
X153862500Y-94450000D03*
%TD*%
D17*
%TO.P,H3,1,1*%
%TO.N,GND*%
X121100000Y-111500000D03*
X121802944Y-109802944D03*
X121802944Y-113197056D03*
X123500000Y-109100000D03*
D18*
X123500000Y-111500000D03*
D17*
X123500000Y-113900000D03*
X125197056Y-109802944D03*
X125197056Y-113197056D03*
X125900000Y-111500000D03*
%TD*%
D11*
%TO.P,C25,1*%
%TO.N,MCLK1*%
X153862500Y-97450000D03*
%TO.P,C25,2*%
%TO.N,GND*%
X153862500Y-95900000D03*
%TD*%
D19*
%TO.P,C9,1*%
%TO.N,SENSE-*%
X154235000Y-83770000D03*
%TO.P,C9,2*%
%TO.N,GND*%
X155785000Y-83770000D03*
%TD*%
D20*
%TO.P,Q1,1,G*%
%TO.N,Net-(Q1-G)*%
X152832500Y-89530000D03*
%TO.P,Q1,2,S*%
%TO.N,+5VA*%
X154732500Y-89530000D03*
%TO.P,Q1,3,D*%
%TO.N,SENSE+*%
X153782500Y-87255000D03*
%TD*%
D19*
%TO.P,C5,1*%
%TO.N,SENSE+*%
X152635000Y-85170000D03*
%TO.P,C5,2*%
%TO.N,SENSE-*%
X154185000Y-85170000D03*
%TD*%
D21*
%TO.P,U1,1,MCLK1*%
%TO.N,MCLK1*%
X151400000Y-95075000D03*
%TO.P,U1,2,MCLK2*%
%TO.N,MCLK2*%
X151400000Y-94425000D03*
%TO.P,U1,3,SCLK*%
%TO.N,Net-(RN1-R1.1)*%
X151400000Y-93775000D03*
%TO.P,U1,4,~{CS}*%
%TO.N,Net-(U1-~{CS})*%
X151400000Y-93125000D03*
%TO.P,U1,5,P3*%
%TO.N,P3*%
X151400000Y-92475000D03*
%TO.P,U1,6,P2*%
%TO.N,Net-(U1-P2)*%
X151400000Y-91825000D03*
%TO.P,U1,7,P1/REFIN2(+)*%
%TO.N,unconnected-(U1-P1{slash}REFIN2(+)-Pad7)*%
X151400000Y-91175000D03*
%TO.P,U1,8,P0/REFIN2(-)*%
%TO.N,unconnected-(U1-P0{slash}REFIN2(-)-Pad8)*%
X151400000Y-90525000D03*
%TO.P,U1,9,NC*%
%TO.N,GND*%
X151400000Y-89875000D03*
%TO.P,U1,10,AINCOM*%
%TO.N,unconnected-(U1-AINCOM-Pad10)*%
X151400000Y-89225000D03*
%TO.P,U1,11,AIN1*%
%TO.N,unconnected-(U1-AIN1-Pad11)*%
X151400000Y-88575000D03*
%TO.P,U1,12,AIN2*%
%TO.N,unconnected-(U1-AIN2-Pad12)*%
X151400000Y-87925000D03*
%TO.P,U1,13,AIN3*%
%TO.N,OUT+*%
X145600000Y-87925000D03*
%TO.P,U1,14,AIN4*%
%TO.N,OUT-*%
X145600000Y-88575000D03*
%TO.P,U1,15,REFIN1(+)*%
%TO.N,SENSE+*%
X145600000Y-89225000D03*
%TO.P,U1,16,REFIN1(-)*%
%TO.N,SENSE-*%
X145600000Y-89875000D03*
%TO.P,U1,17,BPDSW*%
%TO.N,OUT-*%
X145600000Y-90525000D03*
%TO.P,U1,18,AGND*%
%TO.N,GND*%
X145600000Y-91175000D03*
%TO.P,U1,19,DGND*%
X145600000Y-91825000D03*
%TO.P,U1,20,AVDD*%
%TO.N,+5VA*%
X145600000Y-92475000D03*
%TO.P,U1,21,DVDD*%
%TO.N,+3.3V*%
X145600000Y-93125000D03*
%TO.P,U1,22,~{SYNC}*%
%TO.N,Net-(RN1-R2.1)*%
X145600000Y-93775000D03*
%TO.P,U1,23,DOUT/~{RDY}*%
%TO.N,Net-(RN1-R3.1)*%
X145600000Y-94425000D03*
%TO.P,U1,24,DIN*%
%TO.N,Net-(RN1-R4.1)*%
X145600000Y-95075000D03*
%TD*%
D22*
%TO.P,R17,1*%
%TO.N,/Project Architecture/TPS61086_3.3V_to_6V/FB*%
X128050000Y-91530000D03*
%TO.P,R17,2*%
%TO.N,+6V*%
X126400000Y-91530000D03*
%TD*%
D17*
%TO.P,H2,1,1*%
%TO.N,GND*%
X121100000Y-67750000D03*
X121802944Y-66052944D03*
X121802944Y-69447056D03*
X123500000Y-65350000D03*
D18*
X123500000Y-67750000D03*
D17*
X123500000Y-70150000D03*
X125197056Y-66052944D03*
X125197056Y-69447056D03*
X125900000Y-67750000D03*
%TD*%
D23*
%TO.P,R13,1*%
%TO.N,GND*%
X130060000Y-83595000D03*
%TO.P,R13,2*%
%TO.N,/Project Architecture/LT3042_6V_5VA/PGFB*%
X130060000Y-81945000D03*
%TD*%
D24*
%TO.P,J1,1,Pin_1*%
%TO.N,+3.3V*%
X141100000Y-111375000D03*
D25*
%TO.P,J1,2,Pin_2*%
%TO.N,CS*%
X143600000Y-111375000D03*
%TO.P,J1,3,Pin_3*%
%TO.N,DIN*%
X146100000Y-111375000D03*
%TO.P,J1,4,Pin_4*%
%TO.N,DOUT*%
X148600000Y-111375000D03*
%TO.P,J1,5,Pin_5*%
%TO.N,SYNC*%
X151100000Y-111375000D03*
%TO.P,J1,6,Pin_6*%
%TO.N,SCLK*%
X153600000Y-111375000D03*
%TO.P,J1,7,Pin_7*%
%TO.N,GND*%
X156100000Y-111375000D03*
%TD*%
D26*
%TO.P,FID2,*%
%TO.N,*%
X205985000Y-84390000D03*
%TD*%
D27*
%TO.P,C20,1*%
%TO.N,+6V*%
X124075000Y-94000000D03*
%TO.P,C20,2*%
%TO.N,GND*%
X122525000Y-94000000D03*
%TD*%
D23*
%TO.P,R16,1*%
%TO.N,Net-(D4-A)*%
X133550000Y-111275000D03*
%TO.P,R16,2*%
%TO.N,+5VA*%
X133550000Y-109625000D03*
%TD*%
D16*
%TO.P,C4,1*%
%TO.N,GND*%
X141650000Y-90725000D03*
%TO.P,C4,2*%
%TO.N,+5VA*%
X141650000Y-92275000D03*
%TD*%
D17*
%TO.P,H4,1,1*%
%TO.N,GND*%
X171100000Y-111500000D03*
X171802944Y-109802944D03*
X171802944Y-113197056D03*
X173500000Y-109100000D03*
D18*
X173500000Y-111500000D03*
D17*
X173500000Y-113900000D03*
X175197056Y-109802944D03*
X175197056Y-113197056D03*
X175900000Y-111500000D03*
%TD*%
D28*
%TO.P,R14,1*%
%TO.N,+6V*%
X126265000Y-88750000D03*
%TO.P,R14,2*%
%TO.N,Net-(U2-PG)*%
X127915000Y-88750000D03*
%TD*%
D26*
%TO.P,FID1,*%
%TO.N,*%
X205985000Y-79840000D03*
%TD*%
D16*
%TO.P,C15,1*%
%TO.N,+5VA*%
X123360000Y-82245000D03*
%TO.P,C15,2*%
%TO.N,GND*%
X123360000Y-83795000D03*
%TD*%
D22*
%TO.P,R9,1*%
%TO.N,GND*%
X131285000Y-80520000D03*
%TO.P,R9,2*%
%TO.N,/Project Architecture/LT3042_6V_5VA/SET*%
X129635000Y-80520000D03*
%TD*%
D19*
%TO.P,C26,1*%
%TO.N,+5VA*%
X156247500Y-91210000D03*
%TO.P,C26,2*%
%TO.N,GND*%
X157797500Y-91210000D03*
%TD*%
D17*
%TO.P,H1,1,1*%
%TO.N,GND*%
X171100000Y-68000000D03*
X171802944Y-66302944D03*
X171802944Y-69697056D03*
X173500000Y-65600000D03*
D18*
X173500000Y-68000000D03*
D17*
X173500000Y-70400000D03*
X175197056Y-66302944D03*
X175197056Y-69697056D03*
X175900000Y-68000000D03*
%TD*%
D29*
%TO.P,D1,1,K*%
%TO.N,GND*%
X135050000Y-114237500D03*
%TO.P,D1,2,A*%
%TO.N,Net-(D1-A)*%
X135050000Y-112662500D03*
%TD*%
D28*
%TO.P,R15,1*%
%TO.N,GND*%
X126400000Y-93000000D03*
%TO.P,R15,2*%
%TO.N,/Project Architecture/TPS61086_3.3V_to_6V/FB*%
X128050000Y-93000000D03*
%TD*%
D27*
%TO.P,C6,1*%
%TO.N,OUT+*%
X143930000Y-86160000D03*
%TO.P,C6,2*%
%TO.N,OUT-*%
X142380000Y-86160000D03*
%TD*%
D11*
%TO.P,C21,1*%
%TO.N,+3.3V*%
X132560000Y-100925000D03*
%TO.P,C21,2*%
%TO.N,GND*%
X132560000Y-99375000D03*
%TD*%
D23*
%TO.P,R6,1*%
%TO.N,CS*%
X145900000Y-106425000D03*
%TO.P,R6,2*%
%TO.N,Net-(U1-~{CS})*%
X145900000Y-104775000D03*
%TD*%
D19*
%TO.P,C23,1*%
%TO.N,SENSE+*%
X156247500Y-86700000D03*
%TO.P,C23,2*%
%TO.N,GND*%
X157797500Y-86700000D03*
%TD*%
%TO.P,C11,1*%
%TO.N,SENSE+*%
X156247500Y-88210000D03*
%TO.P,C11,2*%
%TO.N,GND*%
X157797500Y-88210000D03*
%TD*%
D11*
%TO.P,C17,1*%
%TO.N,Net-(C17-Pad1)*%
X129550000Y-93025000D03*
%TO.P,C17,2*%
%TO.N,GND*%
X129550000Y-91475000D03*
%TD*%
D28*
%TO.P,R8,1*%
%TO.N,+3.3V*%
X142825000Y-104800000D03*
%TO.P,R8,2*%
%TO.N,Net-(U1-~{CS})*%
X144475000Y-104800000D03*
%TD*%
D10*
%TO.P,R12,1*%
%TO.N,/Project Architecture/LT3042_6V_5VA/PGFB*%
X131560000Y-81945000D03*
%TO.P,R12,2*%
%TO.N,+5VA*%
X131560000Y-83595000D03*
%TD*%
D26*
%TO.P,FID4,*%
%TO.N,*%
X210535000Y-84390000D03*
%TD*%
%TO.P,FID6,*%
%TO.N,*%
X215085000Y-84390000D03*
%TD*%
D16*
%TO.P,C1,1*%
%TO.N,+3.3V*%
X141650000Y-93725000D03*
%TO.P,C1,2*%
%TO.N,GND*%
X141650000Y-95275000D03*
%TD*%
D30*
%TO.P,D3,1,K*%
%TO.N,+6V*%
X123650000Y-95550000D03*
%TO.P,D3,2,A*%
%TO.N,Net-(D3-A)*%
X123650000Y-98350000D03*
%TD*%
D19*
%TO.P,C18,1*%
%TO.N,Net-(IC2-SS)*%
X131025000Y-97900000D03*
%TO.P,C18,2*%
%TO.N,GND*%
X132575000Y-97900000D03*
%TD*%
D26*
%TO.P,FID3,*%
%TO.N,*%
X210535000Y-79840000D03*
%TD*%
D31*
%TO.P,RN1,1,R1.1*%
%TO.N,Net-(RN1-R1.1)*%
X149700000Y-104775000D03*
%TO.P,RN1,2,R2.1*%
%TO.N,Net-(RN1-R2.1)*%
X148900000Y-104775000D03*
%TO.P,RN1,3,R3.1*%
%TO.N,Net-(RN1-R3.1)*%
X148100000Y-104775000D03*
%TO.P,RN1,4,R4.1*%
%TO.N,Net-(RN1-R4.1)*%
X147300000Y-104775000D03*
%TO.P,RN1,5,R4.2*%
%TO.N,DIN*%
X147300000Y-106475000D03*
%TO.P,RN1,6,R3.2*%
%TO.N,DOUT*%
X148100000Y-106475000D03*
%TO.P,RN1,7,R2.2*%
%TO.N,SYNC*%
X148900000Y-106475000D03*
%TO.P,RN1,8,R1.2*%
%TO.N,SCLK*%
X149700000Y-106475000D03*
%TD*%
D19*
%TO.P,C7,1*%
%TO.N,GND*%
X151035000Y-83770000D03*
%TO.P,C7,2*%
%TO.N,SENSE+*%
X152585000Y-83770000D03*
%TD*%
D27*
%TO.P,C10,1*%
%TO.N,GND*%
X145530000Y-84660000D03*
%TO.P,C10,2*%
%TO.N,OUT+*%
X143980000Y-84660000D03*
%TD*%
D32*
%TO.P,H5,1*%
%TO.N,GND*%
X158750000Y-82380000D03*
%TO.P,H5,2*%
X158750000Y-87460000D03*
%TO.P,H5,3*%
X158750000Y-92540000D03*
%TO.P,H5,4*%
X158750000Y-97620000D03*
%TO.P,H5,5*%
X156120000Y-100250000D03*
%TO.P,H5,6*%
X151040000Y-100250000D03*
%TO.P,H5,7*%
X145960000Y-100250000D03*
%TO.P,H5,9*%
X140880000Y-100250000D03*
%TO.P,H5,10*%
X138250000Y-97620000D03*
%TO.P,H5,11*%
X138250000Y-92540000D03*
%TO.P,H5,12*%
X138250000Y-87460000D03*
%TO.P,H5,13*%
X138250000Y-82380000D03*
%TO.P,H5,14*%
X140880000Y-79750000D03*
%TO.P,H5,15*%
X145960000Y-79750000D03*
%TO.P,H5,16*%
X151040000Y-79750000D03*
%TO.P,H5,17*%
X156120000Y-79750000D03*
%TD*%
D16*
%TO.P,C13,1*%
%TO.N,+5VA*%
X124910000Y-82245000D03*
%TO.P,C13,2*%
%TO.N,GND*%
X124910000Y-83795000D03*
%TD*%
D29*
%TO.P,D2,1,K*%
%TO.N,GND*%
X132050000Y-114237500D03*
%TO.P,D2,2,A*%
%TO.N,Net-(D2-A)*%
X132050000Y-112662500D03*
%TD*%
D26*
%TO.P,FID5,*%
%TO.N,*%
X215085000Y-79840000D03*
%TD*%
D33*
%TO.P,C14,1,+*%
%TO.N,/Project Architecture/LT3042_6V_5VA/SET*%
X127810000Y-80270000D03*
%TO.P,C14,2,-*%
%TO.N,GND*%
X125110000Y-80270000D03*
%TD*%
D34*
%TO.P,U2,1,IN*%
%TO.N,+6V*%
X126510000Y-86670000D03*
%TO.P,U2,2,IN*%
X127010000Y-86670000D03*
%TO.P,U2,3,EN/UV*%
X127510000Y-86670000D03*
%TO.P,U2,4,PG*%
%TO.N,Net-(U2-PG)*%
X128010000Y-86670000D03*
%TO.P,U2,5,ILIM*%
%TO.N,GND*%
X128510000Y-86670000D03*
%TO.P,U2,6,PGFB*%
%TO.N,/Project Architecture/LT3042_6V_5VA/PGFB*%
X128510000Y-82370000D03*
%TO.P,U2,7,SET*%
%TO.N,/Project Architecture/LT3042_6V_5VA/SET*%
X128010000Y-82370000D03*
%TO.P,U2,8,GND*%
%TO.N,GND*%
X127510000Y-82370000D03*
%TO.P,U2,9,OUTS*%
%TO.N,+5VA*%
X127010000Y-82370000D03*
%TO.P,U2,10,OUT*%
X126510000Y-82370000D03*
D35*
%TO.P,U2,11,GND*%
%TO.N,GND*%
X126210000Y-85170000D03*
X127510000Y-85170000D03*
X128810000Y-85170000D03*
D36*
X127510000Y-84520000D03*
D35*
X126210000Y-83870000D03*
X127510000Y-83870000D03*
X128810000Y-83870000D03*
%TD*%
D27*
%TO.P,C8,1*%
%TO.N,OUT-*%
X142330000Y-84660000D03*
%TO.P,C8,2*%
%TO.N,GND*%
X140780000Y-84660000D03*
%TD*%
D16*
%TO.P,C2,1*%
%TO.N,+3.3V*%
X143150000Y-93725000D03*
%TO.P,C2,2*%
%TO.N,GND*%
X143150000Y-95275000D03*
%TD*%
D10*
%TO.P,R18,1*%
%TO.N,Net-(C17-Pad1)*%
X131050000Y-93075000D03*
%TO.P,R18,2*%
%TO.N,Net-(IC2-COMP)*%
X131050000Y-94725000D03*
%TD*%
D16*
%TO.P,C3,1*%
%TO.N,GND*%
X143150000Y-90725000D03*
%TO.P,C3,2*%
%TO.N,+5VA*%
X143150000Y-92275000D03*
%TD*%
D22*
%TO.P,R10,1*%
%TO.N,P3*%
X154607500Y-91210000D03*
%TO.P,R10,2*%
%TO.N,Net-(Q1-G)*%
X152957500Y-91210000D03*
%TD*%
D19*
%TO.P,C12,1*%
%TO.N,+5VA*%
X156247500Y-89710000D03*
%TO.P,C12,2*%
%TO.N,GND*%
X157797500Y-89710000D03*
%TD*%
D37*
%TO.P,Y2,1*%
%TO.N,MCLK1*%
X156200000Y-96600000D03*
%TO.P,Y2,2*%
%TO.N,GND*%
X156200000Y-95100000D03*
%TO.P,Y2,3*%
%TO.N,MCLK2*%
X156200000Y-93600000D03*
%TD*%
D27*
%TO.P,C19,1*%
%TO.N,+6V*%
X124075000Y-92490000D03*
%TO.P,C19,2*%
%TO.N,GND*%
X122525000Y-92490000D03*
%TD*%
D38*
%TO.P,J3,1*%
%TO.N,IN-SENSE-*%
X155900000Y-73500000D03*
%TO.P,J3,2*%
%TO.N,IN-SENSE+*%
X150900000Y-73500000D03*
%TO.P,J3,3*%
%TO.N,IN-OUT+*%
X145900000Y-73500000D03*
%TO.P,J3,4*%
%TO.N,IN-OUT-*%
X140900000Y-73500000D03*
%TO.P,J3,A1*%
%TO.N,IN-SENSE-*%
X155900000Y-68500000D03*
%TO.P,J3,A2*%
%TO.N,IN-SENSE+*%
X150900000Y-68500000D03*
%TO.P,J3,A3*%
%TO.N,IN-OUT+*%
X145900000Y-68500000D03*
%TO.P,J3,A4*%
%TO.N,IN-OUT-*%
X140900000Y-68500000D03*
%TD*%
D23*
%TO.P,R3,1*%
%TO.N,Net-(D1-A)*%
X135050000Y-111275000D03*
%TO.P,R3,2*%
%TO.N,+3.3V*%
X135050000Y-109625000D03*
%TD*%
D11*
%TO.P,C16,1*%
%TO.N,+6V*%
X124910000Y-86845000D03*
%TO.P,C16,2*%
%TO.N,GND*%
X124910000Y-85295000D03*
%TD*%
D29*
%TO.P,D4,1,K*%
%TO.N,GND*%
X133550000Y-114237500D03*
%TO.P,D4,2,A*%
%TO.N,Net-(D4-A)*%
X133550000Y-112662500D03*
%TD*%
D39*
%TO.N,GND*%
X143150000Y-90020000D03*
X126050000Y-106820000D03*
X126130000Y-100280000D03*
X156490000Y-83770000D03*
X126170000Y-102660000D03*
X150330000Y-83770000D03*
X141650000Y-90020000D03*
X147000000Y-91825000D03*
X140075000Y-84660000D03*
X154525000Y-95150000D03*
X126130000Y-104970000D03*
X146235000Y-84660000D03*
X141650000Y-95980000D03*
X143150000Y-95980000D03*
X150100000Y-89875000D03*
X147035000Y-91175000D03*
%TO.N,Net-(U1-~{CS})*%
X145900000Y-104100000D03*
X149575735Y-103250735D03*
%TO.N,Net-(U1-P2)*%
X149150000Y-102300000D03*
X132050000Y-108900000D03*
%TO.N,SENSE+*%
X151500000Y-85550000D03*
X157400000Y-85550000D03*
X150300000Y-85550000D03*
X157400000Y-84950000D03*
X158000000Y-85550000D03*
X150900000Y-84950000D03*
X156200000Y-85550000D03*
X149700000Y-84950000D03*
X156800000Y-85550000D03*
X149700000Y-85550000D03*
X151500000Y-84950000D03*
X158000000Y-84950000D03*
X156200000Y-84950000D03*
X156800000Y-84950000D03*
X150300000Y-84950000D03*
X150900000Y-85550000D03*
%TO.N,+3.3V*%
X127200000Y-94150000D03*
X127775000Y-98925000D03*
%TO.N,+5VA*%
X122110000Y-80420000D03*
X122860000Y-79670000D03*
X133550000Y-108900000D03*
X123610000Y-80420000D03*
X139625000Y-92275000D03*
X156825000Y-92250000D03*
X122110000Y-81170000D03*
X123610000Y-81170000D03*
X156250000Y-92250000D03*
X140650000Y-92275000D03*
X123610000Y-79670000D03*
X157400000Y-92250000D03*
X132610000Y-83620000D03*
X122860000Y-80420000D03*
X122860000Y-81170000D03*
X122110000Y-79670000D03*
%TD*%
D40*
%TO.N,GND*%
X157950000Y-83700000D02*
X157950000Y-83180000D01*
X141650000Y-90725000D02*
X140065000Y-90725000D01*
X147035000Y-91175000D02*
X145600000Y-91175000D01*
X140780000Y-84660000D02*
X140075000Y-84660000D01*
X145600000Y-91825000D02*
X147000000Y-91825000D01*
X145600000Y-91825000D02*
X145600000Y-91175000D01*
X157880000Y-83770000D02*
X157950000Y-83700000D01*
X147125000Y-83770000D02*
X150330000Y-83770000D01*
X145600000Y-91175000D02*
X144550000Y-91175000D01*
X140065000Y-90725000D02*
X138250000Y-92540000D01*
X127119824Y-81221000D02*
X126061000Y-81221000D01*
X155785000Y-83770000D02*
X156490000Y-83770000D01*
X143150000Y-95275000D02*
X141650000Y-95275000D01*
X127510000Y-81611176D02*
X127119824Y-81221000D01*
X126061000Y-81221000D02*
X125110000Y-80270000D01*
X144550000Y-91175000D02*
X144100000Y-90725000D01*
X147000000Y-91825000D02*
X147025000Y-91825000D01*
X149950000Y-89875000D02*
X150100000Y-89875000D01*
X140075000Y-84660000D02*
X139010000Y-84660000D01*
X128510000Y-85520000D02*
X127510000Y-84520000D01*
X141650000Y-90725000D02*
X141650000Y-90020000D01*
X128510000Y-86670000D02*
X128510000Y-85520000D01*
X145530000Y-84660000D02*
X146235000Y-84660000D01*
X151035000Y-83770000D02*
X150330000Y-83770000D01*
X146235000Y-84660000D02*
X147125000Y-83770000D01*
X143150000Y-90725000D02*
X143150000Y-90020000D01*
X144100000Y-90725000D02*
X141650000Y-90725000D01*
X127510000Y-82370000D02*
X127510000Y-81611176D01*
X127510000Y-82370000D02*
X127510000Y-84520000D01*
D41*
X158750000Y-92540000D02*
X158750000Y-92162500D01*
D40*
X156490000Y-83770000D02*
X157880000Y-83770000D01*
X150100000Y-89875000D02*
X151400000Y-89875000D01*
X138250000Y-83900000D02*
X138250000Y-82380000D01*
X141650000Y-95275000D02*
X141650000Y-95980000D01*
X139010000Y-84660000D02*
X138250000Y-83900000D01*
X157950000Y-83180000D02*
X158750000Y-82380000D01*
X143150000Y-95275000D02*
X143150000Y-95980000D01*
X147040000Y-91180000D02*
X147035000Y-91175000D01*
%TO.N,OUT-*%
X145600000Y-90525000D02*
X144698000Y-90525000D01*
X145600000Y-88575000D02*
X143975000Y-88575000D01*
X144100000Y-88700000D02*
X143975000Y-88575000D01*
X143975000Y-88575000D02*
X142300000Y-86900000D01*
X144698000Y-90525000D02*
X144100000Y-89927000D01*
X144100000Y-89927000D02*
X144100000Y-88700000D01*
X142300000Y-86900000D02*
X142300000Y-83225000D01*
%TO.N,OUT+*%
X145600000Y-87925000D02*
X144625000Y-87925000D01*
X144000000Y-87300000D02*
X144010000Y-87290000D01*
X144625000Y-87925000D02*
X144000000Y-87300000D01*
X144010000Y-87290000D02*
X144010000Y-83225000D01*
%TO.N,MCLK2*%
X153862500Y-92900000D02*
X154100000Y-92900000D01*
X153200000Y-92900000D02*
X153862500Y-92900000D01*
X154800000Y-93600000D02*
X156200000Y-93600000D01*
X152700000Y-93400000D02*
X153200000Y-92900000D01*
X151400000Y-94425000D02*
X152375000Y-94425000D01*
X154100000Y-92900000D02*
X154800000Y-93600000D01*
X152700000Y-94100000D02*
X152700000Y-93400000D01*
X152375000Y-94425000D02*
X152700000Y-94100000D01*
%TO.N,MCLK1*%
X153200000Y-97450000D02*
X153862500Y-97450000D01*
X155100000Y-96600000D02*
X156200000Y-96600000D01*
X152425000Y-95075000D02*
X152700000Y-95350000D01*
X151400000Y-95075000D02*
X152425000Y-95075000D01*
X152700000Y-95350000D02*
X152700000Y-96950000D01*
X152700000Y-96950000D02*
X153200000Y-97450000D01*
X154250000Y-97450000D02*
X155100000Y-96600000D01*
X153862500Y-97450000D02*
X154250000Y-97450000D01*
%TO.N,/Project Architecture/LT3042_6V_5VA/SET*%
X128010000Y-80470000D02*
X127810000Y-80270000D01*
X128010000Y-82370000D02*
X128010000Y-80470000D01*
X129385000Y-80270000D02*
X129635000Y-80520000D01*
X127810000Y-80270000D02*
X129385000Y-80270000D01*
%TO.N,Net-(C17-Pad1)*%
X131050000Y-93075000D02*
X129600000Y-93075000D01*
X129600000Y-93075000D02*
X129550000Y-93025000D01*
%TO.N,Net-(D2-A)*%
X132050000Y-111275000D02*
X132050000Y-112662500D01*
%TO.N,Net-(D4-A)*%
X133550000Y-111275000D02*
X133550000Y-112662500D01*
%TO.N,CS*%
X145900000Y-109075000D02*
X143600000Y-111375000D01*
X145900000Y-106425000D02*
X145900000Y-109075000D01*
%TO.N,SCLK*%
X153600000Y-109900000D02*
X153600000Y-111375000D01*
X152500000Y-108800000D02*
X153600000Y-109900000D01*
X149700000Y-106475000D02*
X149700000Y-107500000D01*
X149700000Y-107500000D02*
X151000000Y-108800000D01*
X151000000Y-108800000D02*
X152500000Y-108800000D01*
%TO.N,DIN*%
X147300000Y-110175000D02*
X146100000Y-111375000D01*
X147300000Y-106475000D02*
X147300000Y-110175000D01*
%TO.N,SYNC*%
X148900000Y-106475000D02*
X148900000Y-107700000D01*
X148900000Y-107700000D02*
X151100000Y-109900000D01*
X151100000Y-109900000D02*
X151100000Y-111375000D01*
%TO.N,DOUT*%
X148550000Y-111325000D02*
X148600000Y-111375000D01*
X148100000Y-106475000D02*
X148100000Y-108200000D01*
X148100000Y-108200000D02*
X148550000Y-108650000D01*
X148550000Y-108650000D02*
X148550000Y-111325000D01*
%TO.N,IN-OUT+*%
X144010000Y-75390000D02*
X145900000Y-73500000D01*
X145900000Y-73500000D02*
X145900000Y-68500000D01*
X144010000Y-81575000D02*
X144010000Y-75390000D01*
%TO.N,IN-OUT-*%
X142300000Y-81575000D02*
X142300000Y-75400000D01*
X140900000Y-74000000D02*
X140900000Y-73500000D01*
X142300000Y-75400000D02*
X140900000Y-74000000D01*
X140900000Y-73500000D02*
X140900000Y-68500000D01*
D41*
%TO.N,Net-(U1-~{CS})*%
X149351000Y-100720504D02*
X149351000Y-96575000D01*
D42*
X144500000Y-104775000D02*
X144475000Y-104800000D01*
D41*
X149575735Y-103224265D02*
X149824000Y-102976000D01*
X151400000Y-93125000D02*
X150425000Y-93125000D01*
D42*
X145900000Y-104100000D02*
X145900000Y-104775000D01*
D41*
X149824000Y-101193504D02*
X149351000Y-100720504D01*
X149351000Y-96575000D02*
X149351000Y-96751000D01*
D42*
X145900000Y-104775000D02*
X144500000Y-104775000D01*
D41*
X150425000Y-93125000D02*
X149351000Y-94199000D01*
X149351000Y-94199000D02*
X149351000Y-96575000D01*
X149824000Y-102976000D02*
X149824000Y-101193504D01*
X149575735Y-103250735D02*
X149575735Y-103224265D01*
%TO.N,Net-(U1-P2)*%
X151400000Y-91825000D02*
X150425000Y-91825000D01*
D42*
X132050000Y-108900000D02*
X132050000Y-109625000D01*
D41*
X149150000Y-102300000D02*
X149150000Y-102400000D01*
X149150000Y-101400000D02*
X149150000Y-102300000D01*
X148900000Y-93350000D02*
X148900000Y-101150000D01*
X149000000Y-101250000D02*
X149150000Y-101400000D01*
X148900000Y-101150000D02*
X149000000Y-101250000D01*
X150425000Y-91825000D02*
X148900000Y-93350000D01*
D40*
%TO.N,/Project Architecture/LT3042_6V_5VA/PGFB*%
X130060000Y-81945000D02*
X131560000Y-81945000D01*
X128510000Y-82370000D02*
X129285000Y-82370000D01*
X129285000Y-82370000D02*
X129635000Y-82020000D01*
%TO.N,Net-(U2-PG)*%
X128035000Y-86695000D02*
X128010000Y-86670000D01*
X128055000Y-88680000D02*
X128035000Y-88660000D01*
X128035000Y-88660000D02*
X128035000Y-86695000D01*
%TO.N,/Project Architecture/TPS61086_3.3V_to_6V/FB*%
X128050000Y-95100000D02*
X128050000Y-91530000D01*
%TO.N,Net-(IC2-SS)*%
X128550000Y-97900000D02*
X131025000Y-97900000D01*
%TO.N,Net-(IC2-COMP)*%
X128550000Y-95100000D02*
X130675000Y-95100000D01*
X130675000Y-95100000D02*
X131050000Y-94725000D01*
D43*
%TO.N,SENSE+*%
X152635000Y-75235000D02*
X150900000Y-73500000D01*
X145600000Y-89225000D02*
X147100058Y-89225000D01*
X152635000Y-84300000D02*
X152635000Y-83820000D01*
X148250000Y-88075058D02*
X148250000Y-85950000D01*
X148975000Y-85225000D02*
X149875000Y-85225000D01*
X147100058Y-89225000D02*
X148250000Y-88075058D01*
X152635000Y-85170000D02*
X152635000Y-84300000D01*
D40*
X152635000Y-83820000D02*
X152585000Y-83770000D01*
D43*
X148250000Y-85950000D02*
X148975000Y-85225000D01*
X152635000Y-84300000D02*
X152635000Y-75235000D01*
%TO.N,SENSE-*%
X154235000Y-75165000D02*
X155900000Y-73500000D01*
X145600000Y-89875000D02*
X147300000Y-89875000D01*
X154185000Y-83820000D02*
X154235000Y-83770000D01*
X154185000Y-85170000D02*
X154185000Y-83820000D01*
X154235000Y-83770000D02*
X154235000Y-75165000D01*
X150950000Y-86225000D02*
X153300000Y-86225000D01*
X147300000Y-89875000D02*
X150950000Y-86225000D01*
X153300000Y-86225000D02*
X154185000Y-85340000D01*
X154185000Y-85340000D02*
X154185000Y-85170000D01*
D40*
%TO.N,Net-(D1-A)*%
X135050000Y-111275000D02*
X135050000Y-112662500D01*
D44*
%TO.N,Net-(Q1-G)*%
X152957500Y-89655000D02*
X152832500Y-89530000D01*
X152957500Y-91210000D02*
X152957500Y-89655000D01*
D40*
%TO.N,P3*%
X154300000Y-92050000D02*
X154607500Y-91742500D01*
X154607500Y-91742500D02*
X154607500Y-91210000D01*
X151400000Y-92475000D02*
X152595000Y-92475000D01*
X153020000Y-92050000D02*
X154300000Y-92050000D01*
X152595000Y-92475000D02*
X153020000Y-92050000D01*
D41*
%TO.N,Net-(RN1-R1.1)*%
X149802000Y-96937810D02*
X149802000Y-96750000D01*
X151400000Y-93775000D02*
X150448000Y-93775000D01*
X150448000Y-93775000D02*
X149802000Y-94421000D01*
X150275000Y-103400000D02*
X150275000Y-101006694D01*
X149700000Y-103975000D02*
X150275000Y-103400000D01*
X149802000Y-100533694D02*
X149802000Y-96937810D01*
X149802000Y-94421000D02*
X149802000Y-96937810D01*
X149700000Y-104650000D02*
X149700000Y-103975000D01*
X150275000Y-101006694D02*
X149802000Y-100533694D01*
%TO.N,Net-(RN1-R2.1)*%
X146650000Y-93775000D02*
X148449000Y-95574000D01*
X145600000Y-93775000D02*
X146650000Y-93775000D01*
X148449000Y-103174000D02*
X148900000Y-103625000D01*
X148900000Y-103625000D02*
X148900000Y-104650000D01*
X148449000Y-95574000D02*
X148449000Y-103174000D01*
%TO.N,Net-(RN1-R3.1)*%
X146587190Y-94425000D02*
X147998000Y-95835810D01*
X147998000Y-103623000D02*
X148125000Y-103750000D01*
X147998000Y-95835810D02*
X147998000Y-103623000D01*
X148125000Y-104625000D02*
X148100000Y-104650000D01*
X145600000Y-94425000D02*
X146587190Y-94425000D01*
X148125000Y-103750000D02*
X148125000Y-104625000D01*
%TO.N,Net-(RN1-R4.1)*%
X145698000Y-95173000D02*
X146697380Y-95173000D01*
X147547000Y-103878000D02*
X147300000Y-104125000D01*
X145600000Y-95075000D02*
X145698000Y-95173000D01*
X147300000Y-104125000D02*
X147300000Y-104650000D01*
X146697380Y-95173000D02*
X147547000Y-96022620D01*
X147547000Y-103809810D02*
X147547000Y-103878000D01*
X147547000Y-96022620D02*
X147547000Y-103809810D01*
D45*
%TO.N,+3.3V*%
X140725000Y-93725000D02*
X141600000Y-93725000D01*
X139100000Y-102125000D02*
X139100000Y-99350000D01*
X140250000Y-98200000D02*
X140250000Y-95360000D01*
X141650000Y-93775000D02*
X141650000Y-93725000D01*
D42*
X143925000Y-93725000D02*
X141650000Y-93725000D01*
D45*
X141600000Y-93725000D02*
X141650000Y-93775000D01*
X140250000Y-95360000D02*
X139970000Y-95080000D01*
D42*
X135050000Y-109625000D02*
X135050000Y-106150000D01*
X145600000Y-93125000D02*
X144525000Y-93125000D01*
X144525000Y-93125000D02*
X143925000Y-93725000D01*
D45*
X139970000Y-95080000D02*
X139970000Y-94480000D01*
X139970000Y-94480000D02*
X140725000Y-93725000D01*
D40*
X127200000Y-94150000D02*
X127550000Y-94500000D01*
X127550000Y-94500000D02*
X127550000Y-95100000D01*
D45*
X139100000Y-99350000D02*
X140250000Y-98200000D01*
X139125000Y-102150000D02*
X139100000Y-102125000D01*
D46*
%TO.N,+5VA*%
X156247500Y-92247500D02*
X156250000Y-92250000D01*
X156250000Y-92250000D02*
X157400000Y-92250000D01*
D42*
X133550000Y-108900000D02*
X133550000Y-109625000D01*
X144025000Y-92275000D02*
X141650000Y-92275000D01*
X139625000Y-92275000D02*
X141650000Y-92275000D01*
D46*
X156247500Y-91210000D02*
X156247500Y-92247500D01*
X155360000Y-89710000D02*
X156247500Y-89710000D01*
D42*
X145600000Y-92475000D02*
X144225000Y-92475000D01*
D46*
X155180000Y-89530000D02*
X155360000Y-89710000D01*
D40*
X132610000Y-83620000D02*
X131585000Y-83620000D01*
D46*
X154732500Y-89530000D02*
X155180000Y-89530000D01*
X156247500Y-91210000D02*
X156247500Y-89710000D01*
D42*
X144225000Y-92475000D02*
X144025000Y-92275000D01*
D40*
X131585000Y-83620000D02*
X131560000Y-83595000D01*
D47*
%TO.N,+6V*%
X124075000Y-91570000D02*
X124300000Y-91345000D01*
X124300000Y-91345000D02*
X124300000Y-90220000D01*
X124075000Y-95125000D02*
X124075000Y-94000000D01*
X123650000Y-95550000D02*
X124075000Y-95125000D01*
X124075000Y-94000000D02*
X124075000Y-91570000D01*
D40*
%TO.N,IN-SENSE+*%
X150900000Y-72791480D02*
X150545740Y-73145740D01*
X150900000Y-68500000D02*
X150900000Y-72791480D01*
%TO.N,IN-SENSE-*%
X155900000Y-72791480D02*
X155545740Y-73145740D01*
X155900000Y-68500000D02*
X155900000Y-72791480D01*
%TD*%
%TA.AperFunction,Conductor*%
%TO.N,Net-(D3-A)*%
G36*
X127047341Y-97599429D02*
G01*
X127114287Y-97619426D01*
X127159796Y-97672442D01*
X127170761Y-97722658D01*
X127179221Y-99084693D01*
X127159953Y-99151853D01*
X127107434Y-99197935D01*
X127054691Y-99209462D01*
X124850000Y-99200000D01*
X124850000Y-103976000D01*
X124830315Y-104043039D01*
X124777511Y-104088794D01*
X124726000Y-104100000D01*
X123052864Y-104100000D01*
X122985825Y-104080315D01*
X122940070Y-104027511D01*
X122928869Y-103977141D01*
X122871156Y-97705720D01*
X122890223Y-97638506D01*
X122942604Y-97592267D01*
X122995724Y-97580584D01*
X127047341Y-97599429D01*
G37*
%TD.AperFunction*%
%TD*%
%TA.AperFunction,Conductor*%
%TO.N,GND*%
G36*
X159075000Y-91925000D02*
G01*
X158000000Y-91925000D01*
X158000000Y-91940751D01*
X157748981Y-91891167D01*
X157707316Y-91849502D01*
X157707314Y-91849500D01*
X157650250Y-91816554D01*
X157593187Y-91783608D01*
X157529539Y-91766554D01*
X157465892Y-91749500D01*
X157465891Y-91749500D01*
X157457832Y-91748439D01*
X157458299Y-91744889D01*
X157406961Y-91729815D01*
X157361206Y-91677011D01*
X157350000Y-91625500D01*
X157350000Y-86349000D01*
X157369685Y-86281961D01*
X157422489Y-86236206D01*
X157474000Y-86225000D01*
X157728246Y-86225000D01*
X159075000Y-86225000D01*
X159075000Y-91925000D01*
G37*
%TD.AperFunction*%
%TD*%
%TA.AperFunction,Conductor*%
%TO.N,SENSE+*%
G36*
X158243039Y-84669685D02*
G01*
X158288794Y-84722489D01*
X158300000Y-84774000D01*
X158300000Y-85726000D01*
X158280315Y-85793039D01*
X158227511Y-85838794D01*
X158176000Y-85850000D01*
X156700000Y-85850000D01*
X156700000Y-88576000D01*
X156680315Y-88643039D01*
X156627511Y-88688794D01*
X156576000Y-88700000D01*
X155633205Y-88700000D01*
X155571239Y-88683407D01*
X154300000Y-87950000D01*
X153624000Y-87950000D01*
X153556961Y-87930315D01*
X153511206Y-87877511D01*
X153500000Y-87826000D01*
X153500000Y-86724000D01*
X153519685Y-86656961D01*
X153572489Y-86611206D01*
X153624000Y-86600000D01*
X154300000Y-86600000D01*
X155802238Y-84697164D01*
X155859228Y-84656743D01*
X155899563Y-84650000D01*
X158176000Y-84650000D01*
X158243039Y-84669685D01*
G37*
%TD.AperFunction*%
%TD*%
%TA.AperFunction,Conductor*%
%TO.N,SENSE+*%
G36*
X153143705Y-84659675D02*
G01*
X153210694Y-84679533D01*
X153256312Y-84732455D01*
X153267368Y-84785698D01*
X153253163Y-85656085D01*
X153244328Y-85684453D01*
X153238013Y-85713487D01*
X153233344Y-85719723D01*
X153232388Y-85722795D01*
X153216863Y-85741741D01*
X153170427Y-85788179D01*
X153109105Y-85821666D01*
X153082744Y-85824500D01*
X151010339Y-85824500D01*
X151010323Y-85824499D01*
X151002727Y-85824499D01*
X150897274Y-85824499D01*
X150817871Y-85845775D01*
X150785778Y-85850000D01*
X149524000Y-85850000D01*
X149456961Y-85830315D01*
X149411206Y-85777511D01*
X149400000Y-85726000D01*
X149400000Y-84774321D01*
X149419685Y-84707282D01*
X149472489Y-84661527D01*
X149524318Y-84650321D01*
X153143705Y-84659675D01*
G37*
%TD.AperFunction*%
%TD*%
%TA.AperFunction,Conductor*%
%TO.N,+5VA*%
G36*
X123903039Y-79389685D02*
G01*
X123948794Y-79442489D01*
X123960000Y-79494000D01*
X123960000Y-81770000D01*
X127035500Y-81770000D01*
X127102539Y-81789685D01*
X127148294Y-81842489D01*
X127159500Y-81894000D01*
X127159501Y-82846000D01*
X127139817Y-82913039D01*
X127087013Y-82958794D01*
X127035501Y-82970000D01*
X121884000Y-82970000D01*
X121816961Y-82950315D01*
X121771206Y-82897511D01*
X121760000Y-82846000D01*
X121760000Y-79494000D01*
X121779685Y-79426961D01*
X121832489Y-79381206D01*
X121884000Y-79370000D01*
X123836000Y-79370000D01*
X123903039Y-79389685D01*
G37*
%TD.AperFunction*%
%TD*%
%TA.AperFunction,Conductor*%
%TO.N,GND*%
G36*
X159100000Y-98225000D02*
G01*
X158000000Y-98225000D01*
X158000000Y-96000000D01*
X157500000Y-95500000D01*
X157124000Y-95500000D01*
X157056961Y-95480315D01*
X157011206Y-95427511D01*
X157000000Y-95376000D01*
X157000000Y-94824000D01*
X157019685Y-94756961D01*
X157072489Y-94711206D01*
X157124000Y-94700000D01*
X157500000Y-94700000D01*
X158000000Y-94250000D01*
X158000000Y-91925000D01*
X159075000Y-91925000D01*
X159100000Y-98225000D01*
G37*
%TD.AperFunction*%
%TD*%
%TA.AperFunction,Conductor*%
%TO.N,GND*%
G36*
X154403226Y-94019685D02*
G01*
X154437090Y-94051926D01*
X154900000Y-94700000D01*
X155276000Y-94700000D01*
X155343039Y-94719685D01*
X155388794Y-94772489D01*
X155400000Y-94824000D01*
X155400000Y-95376000D01*
X155380315Y-95443039D01*
X155327511Y-95488794D01*
X155276000Y-95500000D01*
X154899998Y-95500000D01*
X154408876Y-96291385D01*
X154356801Y-96337968D01*
X154303516Y-96350000D01*
X153474000Y-96350000D01*
X153406961Y-96330315D01*
X153361206Y-96277511D01*
X153350000Y-96226000D01*
X153350000Y-94124000D01*
X153369685Y-94056961D01*
X153422489Y-94011206D01*
X153474000Y-94000000D01*
X154336187Y-94000000D01*
X154403226Y-94019685D01*
G37*
%TD.AperFunction*%
%TD*%
%TA.AperFunction,Conductor*%
%TO.N,+3.3V*%
G36*
X127643039Y-97619685D02*
G01*
X127688794Y-97672489D01*
X127700000Y-97724000D01*
X127700000Y-98200000D01*
X127702945Y-98206304D01*
X127735935Y-98255716D01*
X127739203Y-98268532D01*
X127741132Y-98278230D01*
X127785447Y-98344552D01*
X127851769Y-98388867D01*
X127851770Y-98388868D01*
X127916226Y-98401689D01*
X127915736Y-98404151D01*
X127970321Y-98426149D01*
X127972980Y-98428310D01*
X130450000Y-100500000D01*
X132965277Y-100500000D01*
X133032316Y-100519685D01*
X133078071Y-100572489D01*
X133089273Y-100623091D01*
X133095515Y-101475000D01*
X143126000Y-101475000D01*
X143193039Y-101494685D01*
X143238794Y-101547489D01*
X143250000Y-101599000D01*
X143250000Y-106275419D01*
X143240622Y-106322723D01*
X141950000Y-109449997D01*
X141950000Y-112226000D01*
X141930315Y-112293039D01*
X141877511Y-112338794D01*
X141826000Y-112350000D01*
X140421924Y-112350000D01*
X140354885Y-112330315D01*
X140309130Y-112277511D01*
X140297942Y-112228094D01*
X140210000Y-107020000D01*
X140209999Y-107020000D01*
X134501300Y-107099981D01*
X134498690Y-107099990D01*
X127523127Y-107050867D01*
X127456228Y-107030711D01*
X127410846Y-106977586D01*
X127400000Y-106926870D01*
X127400000Y-97724000D01*
X127402550Y-97715314D01*
X127401262Y-97706353D01*
X127412240Y-97682312D01*
X127419685Y-97656961D01*
X127426525Y-97651033D01*
X127430287Y-97642797D01*
X127452521Y-97628507D01*
X127472489Y-97611206D01*
X127483003Y-97608918D01*
X127489065Y-97605023D01*
X127524000Y-97600000D01*
X127576000Y-97600000D01*
X127643039Y-97619685D01*
G37*
%TD.AperFunction*%
%TD*%
%TA.AperFunction,Conductor*%
%TO.N,GND*%
G36*
X138926748Y-64593064D02*
G01*
X138993664Y-64613150D01*
X139039101Y-64666227D01*
X139050000Y-64717061D01*
X139050000Y-98499402D01*
X139030315Y-98566441D01*
X139013681Y-98587083D01*
X138619481Y-98981282D01*
X138619475Y-98981290D01*
X138578195Y-99052791D01*
X138578195Y-99052793D01*
X138540423Y-99118214D01*
X138540423Y-99118215D01*
X138499499Y-99270943D01*
X138499499Y-99270945D01*
X138499499Y-99439046D01*
X138499500Y-99439059D01*
X138499500Y-101145500D01*
X138479815Y-101212539D01*
X138427011Y-101258294D01*
X138375500Y-101269500D01*
X133422609Y-101269500D01*
X133355570Y-101249815D01*
X133309815Y-101197011D01*
X133298612Y-101146408D01*
X133294767Y-100621585D01*
X133289915Y-100578674D01*
X133278713Y-100528072D01*
X133276387Y-100518627D01*
X133233377Y-100437915D01*
X133187622Y-100385111D01*
X133187616Y-100385104D01*
X133170034Y-100367160D01*
X133170033Y-100367159D01*
X133170031Y-100367157D01*
X133170029Y-100367156D01*
X133170027Y-100367154D01*
X133090217Y-100322511D01*
X133090212Y-100322509D01*
X133023180Y-100302826D01*
X133023176Y-100302825D01*
X133023175Y-100302825D01*
X132965277Y-100294500D01*
X132965274Y-100294500D01*
X132960892Y-100293870D01*
X132960980Y-100293254D01*
X132952789Y-100291653D01*
X132952765Y-100291807D01*
X132843493Y-100274500D01*
X132843488Y-100274500D01*
X132276512Y-100274500D01*
X132276507Y-100274500D01*
X132167235Y-100291807D01*
X132167088Y-100290881D01*
X132144249Y-100294500D01*
X131465751Y-100294500D01*
X131442911Y-100290881D01*
X131442765Y-100291807D01*
X131333493Y-100274500D01*
X131333488Y-100274500D01*
X130766512Y-100274500D01*
X130766507Y-100274500D01*
X130657235Y-100291807D01*
X130657140Y-100291208D01*
X130634249Y-100294500D01*
X130569629Y-100294500D01*
X130502590Y-100274815D01*
X130490076Y-100265618D01*
X129543576Y-99474000D01*
X128522032Y-98619617D01*
X128483237Y-98561508D01*
X128482017Y-98491649D01*
X128518758Y-98432220D01*
X128581797Y-98402089D01*
X128601586Y-98400500D01*
X128689750Y-98400500D01*
X128689751Y-98400499D01*
X128704568Y-98397552D01*
X128748229Y-98388868D01*
X128748229Y-98388867D01*
X128748231Y-98388867D01*
X128814552Y-98344552D01*
X128858867Y-98278231D01*
X128858868Y-98278228D01*
X128859360Y-98277043D01*
X128861121Y-98274857D01*
X128865652Y-98268077D01*
X128866258Y-98268482D01*
X128903203Y-98222641D01*
X128969498Y-98200579D01*
X128973919Y-98200500D01*
X130273343Y-98200500D01*
X130340382Y-98220185D01*
X130386137Y-98272989D01*
X130389445Y-98281486D01*
X130390281Y-98283126D01*
X130451472Y-98403220D01*
X130451474Y-98403222D01*
X130451476Y-98403225D01*
X130546774Y-98498523D01*
X130546778Y-98498526D01*
X130546780Y-98498528D01*
X130666874Y-98559719D01*
X130666876Y-98559719D01*
X130666878Y-98559720D01*
X130766507Y-98575500D01*
X130766512Y-98575500D01*
X131283493Y-98575500D01*
X131383121Y-98559720D01*
X131383121Y-98559719D01*
X131383126Y-98559719D01*
X131503220Y-98498528D01*
X131598528Y-98403220D01*
X131659719Y-98283126D01*
X131659979Y-98281486D01*
X131675500Y-98183493D01*
X131675500Y-97616506D01*
X131659720Y-97516878D01*
X131659719Y-97516876D01*
X131659719Y-97516874D01*
X131598528Y-97396780D01*
X131598526Y-97396778D01*
X131598523Y-97396774D01*
X131503225Y-97301476D01*
X131503221Y-97301473D01*
X131503220Y-97301472D01*
X131383126Y-97240281D01*
X131383124Y-97240280D01*
X131383121Y-97240279D01*
X131283493Y-97224500D01*
X131283488Y-97224500D01*
X130766512Y-97224500D01*
X130766507Y-97224500D01*
X130666878Y-97240279D01*
X130546778Y-97301473D01*
X130546774Y-97301476D01*
X130451476Y-97396774D01*
X130451474Y-97396778D01*
X130451472Y-97396780D01*
X130390281Y-97516874D01*
X130385851Y-97525569D01*
X130383914Y-97524582D01*
X130351836Y-97571494D01*
X130287477Y-97598692D01*
X130273343Y-97599500D01*
X128973919Y-97599500D01*
X128906880Y-97579815D01*
X128861125Y-97527011D01*
X128859360Y-97522957D01*
X128858868Y-97521771D01*
X128845790Y-97502199D01*
X128844028Y-97499562D01*
X128814552Y-97455447D01*
X128748230Y-97411132D01*
X128748229Y-97411131D01*
X128689752Y-97399500D01*
X128689748Y-97399500D01*
X128410252Y-97399500D01*
X128410247Y-97399500D01*
X128351770Y-97411131D01*
X128351769Y-97411132D01*
X128285447Y-97455447D01*
X128241132Y-97521769D01*
X128241131Y-97521770D01*
X128229500Y-97580247D01*
X128229500Y-98126068D01*
X128220289Y-98157436D01*
X128212255Y-98189151D01*
X128210493Y-98190797D01*
X128209815Y-98193107D01*
X128185112Y-98214511D01*
X128161203Y-98236852D01*
X128158831Y-98237284D01*
X128157011Y-98238862D01*
X128124639Y-98243516D01*
X128092466Y-98249381D01*
X128089606Y-98248553D01*
X128087853Y-98248806D01*
X128058252Y-98240714D01*
X128050444Y-98237496D01*
X128047135Y-98235545D01*
X127992550Y-98213547D01*
X127992518Y-98213624D01*
X127982252Y-98209393D01*
X127955400Y-98187833D01*
X127928327Y-98166442D01*
X127928162Y-98165963D01*
X127927771Y-98165649D01*
X127916844Y-98133016D01*
X127905627Y-98100362D01*
X127905606Y-98099453D01*
X127905587Y-98099395D01*
X127905603Y-98099329D01*
X127905500Y-98094747D01*
X127905500Y-97724008D01*
X127905499Y-97723992D01*
X127903738Y-97707612D01*
X127900803Y-97680316D01*
X127889597Y-97628805D01*
X127887111Y-97618629D01*
X127881399Y-97607910D01*
X127869214Y-97573791D01*
X127858867Y-97521769D01*
X127844162Y-97499762D01*
X127814552Y-97455447D01*
X127748230Y-97411132D01*
X127748229Y-97411131D01*
X127689752Y-97399500D01*
X127689748Y-97399500D01*
X127610774Y-97399500D01*
X127576000Y-97394500D01*
X127524000Y-97394500D01*
X127494754Y-97396592D01*
X127474529Y-97399500D01*
X127410252Y-97399500D01*
X127410247Y-97399500D01*
X127351770Y-97411131D01*
X127347451Y-97412921D01*
X127277981Y-97420388D01*
X127252549Y-97412921D01*
X127248229Y-97411131D01*
X127189752Y-97399500D01*
X127189748Y-97399500D01*
X127094946Y-97399500D01*
X127076726Y-97398154D01*
X127070444Y-97397220D01*
X127048300Y-97393931D01*
X122996675Y-97375085D01*
X122951583Y-97379880D01*
X122951580Y-97379880D01*
X122898475Y-97391560D01*
X122886921Y-97394454D01*
X122886915Y-97394457D01*
X122806609Y-97438203D01*
X122754220Y-97484448D01*
X122736435Y-97502197D01*
X122692522Y-97582424D01*
X122673457Y-97649632D01*
X122665664Y-97707612D01*
X122723378Y-103979034D01*
X122728270Y-104021754D01*
X122728271Y-104021763D01*
X122739468Y-104072117D01*
X122741750Y-104081364D01*
X122741754Y-104081373D01*
X122762205Y-104119752D01*
X122784763Y-104162083D01*
X122784765Y-104162086D01*
X122830524Y-104214895D01*
X122848106Y-104232839D01*
X122848110Y-104232843D01*
X122848111Y-104232844D01*
X122848113Y-104232845D01*
X122927923Y-104277488D01*
X122927927Y-104277490D01*
X122994966Y-104297175D01*
X123052864Y-104305500D01*
X123052868Y-104305500D01*
X124725991Y-104305500D01*
X124726000Y-104305500D01*
X124765889Y-104301210D01*
X124779145Y-104300500D01*
X124919750Y-104300500D01*
X124919751Y-104300499D01*
X124936474Y-104297173D01*
X124978229Y-104288868D01*
X124978229Y-104288867D01*
X124978231Y-104288867D01*
X125044552Y-104244552D01*
X125088867Y-104178231D01*
X125088867Y-104178229D01*
X125088868Y-104178229D01*
X125098439Y-104130108D01*
X125100500Y-104119748D01*
X125100500Y-102180252D01*
X125100500Y-102180249D01*
X125100499Y-102180247D01*
X125088868Y-102121773D01*
X125088867Y-102121770D01*
X125088867Y-102121769D01*
X125076396Y-102103105D01*
X125055520Y-102036430D01*
X125055500Y-102034217D01*
X125055500Y-99530916D01*
X125075185Y-99463877D01*
X125127989Y-99418122D01*
X125180029Y-99406917D01*
X127053809Y-99414960D01*
X127057441Y-99414575D01*
X127126179Y-99427088D01*
X127177241Y-99474779D01*
X127194500Y-99537885D01*
X127194500Y-106926870D01*
X127196390Y-106944748D01*
X127199044Y-106969849D01*
X127209892Y-107020574D01*
X127212154Y-107030045D01*
X127212155Y-107030047D01*
X127212156Y-107030050D01*
X127254596Y-107111063D01*
X127299978Y-107164188D01*
X127299983Y-107164193D01*
X127299988Y-107164199D01*
X127317443Y-107182266D01*
X127317444Y-107182267D01*
X127396945Y-107227474D01*
X127463844Y-107247630D01*
X127521680Y-107256362D01*
X134476376Y-107305338D01*
X134543272Y-107325493D01*
X134588654Y-107378618D01*
X134599500Y-107429334D01*
X134599500Y-108988942D01*
X134579815Y-109055981D01*
X134543095Y-109089209D01*
X134544552Y-109091214D01*
X134536657Y-109096950D01*
X134446954Y-109186652D01*
X134446949Y-109186659D01*
X134410483Y-109258226D01*
X134362508Y-109309022D01*
X134294687Y-109325816D01*
X134228552Y-109303278D01*
X134189516Y-109258226D01*
X134153050Y-109186658D01*
X134153047Y-109186655D01*
X134153045Y-109186652D01*
X134056442Y-109090049D01*
X134059102Y-109087388D01*
X134027803Y-109046777D01*
X134021841Y-108977162D01*
X134023585Y-108969745D01*
X134025500Y-108962601D01*
X134025500Y-108837399D01*
X133993095Y-108716464D01*
X133930495Y-108608036D01*
X133841964Y-108519505D01*
X133733536Y-108456905D01*
X133733537Y-108456905D01*
X133693224Y-108446103D01*
X133612601Y-108424500D01*
X133487399Y-108424500D01*
X133406775Y-108446103D01*
X133366463Y-108456905D01*
X133258037Y-108519504D01*
X133258034Y-108519506D01*
X133169506Y-108608034D01*
X133169504Y-108608037D01*
X133106905Y-108716463D01*
X133074500Y-108837400D01*
X133074500Y-108962601D01*
X133076408Y-108969721D01*
X133074747Y-109039571D01*
X133041784Y-109088275D01*
X133043558Y-109090049D01*
X132946954Y-109186652D01*
X132946949Y-109186659D01*
X132910483Y-109258226D01*
X132862508Y-109309022D01*
X132794687Y-109325816D01*
X132728552Y-109303278D01*
X132689516Y-109258226D01*
X132653050Y-109186658D01*
X132653047Y-109186655D01*
X132653045Y-109186652D01*
X132556442Y-109090049D01*
X132559102Y-109087388D01*
X132527803Y-109046777D01*
X132521841Y-108977162D01*
X132523585Y-108969745D01*
X132525500Y-108962601D01*
X132525500Y-108837399D01*
X132493095Y-108716464D01*
X132430495Y-108608036D01*
X132341964Y-108519505D01*
X132233536Y-108456905D01*
X132233537Y-108456905D01*
X132193224Y-108446103D01*
X132112601Y-108424500D01*
X131987399Y-108424500D01*
X131906775Y-108446103D01*
X131866463Y-108456905D01*
X131758037Y-108519504D01*
X131758034Y-108519506D01*
X131669506Y-108608034D01*
X131669504Y-108608037D01*
X131606905Y-108716463D01*
X131574500Y-108837400D01*
X131574500Y-108962601D01*
X131576408Y-108969721D01*
X131574747Y-109039571D01*
X131541784Y-109088275D01*
X131543558Y-109090049D01*
X131446954Y-109186652D01*
X131446951Y-109186657D01*
X131446950Y-109186658D01*
X131427751Y-109224337D01*
X131389352Y-109299698D01*
X131374500Y-109393475D01*
X131374500Y-109856517D01*
X131385217Y-109924183D01*
X131389354Y-109950304D01*
X131446950Y-110063342D01*
X131446952Y-110063344D01*
X131446954Y-110063347D01*
X131536652Y-110153045D01*
X131536654Y-110153046D01*
X131536658Y-110153050D01*
X131627821Y-110199500D01*
X131649698Y-110210647D01*
X131743475Y-110225499D01*
X131743481Y-110225500D01*
X132356518Y-110225499D01*
X132450304Y-110210646D01*
X132563342Y-110153050D01*
X132653050Y-110063342D01*
X132689516Y-109991771D01*
X132737489Y-109940978D01*
X132805310Y-109924183D01*
X132871445Y-109946720D01*
X132910482Y-109991771D01*
X132946950Y-110063342D01*
X132946951Y-110063343D01*
X132946954Y-110063347D01*
X133036652Y-110153045D01*
X133036654Y-110153046D01*
X133036658Y-110153050D01*
X133127821Y-110199500D01*
X133149698Y-110210647D01*
X133243475Y-110225499D01*
X133243481Y-110225500D01*
X133856518Y-110225499D01*
X133950304Y-110210646D01*
X134063342Y-110153050D01*
X134153050Y-110063342D01*
X134189516Y-109991771D01*
X134237489Y-109940978D01*
X134305310Y-109924183D01*
X134371445Y-109946720D01*
X134410482Y-109991771D01*
X134446950Y-110063342D01*
X134446951Y-110063343D01*
X134446954Y-110063347D01*
X134536652Y-110153045D01*
X134536654Y-110153046D01*
X134536658Y-110153050D01*
X134627821Y-110199500D01*
X134649698Y-110210647D01*
X134743475Y-110225499D01*
X134743481Y-110225500D01*
X135356518Y-110225499D01*
X135450304Y-110210646D01*
X135563342Y-110153050D01*
X135653050Y-110063342D01*
X135710646Y-109950304D01*
X135710646Y-109950302D01*
X135710647Y-109950301D01*
X135725499Y-109856524D01*
X135725500Y-109856519D01*
X135725499Y-109393482D01*
X135710646Y-109299696D01*
X135653050Y-109186658D01*
X135653046Y-109186654D01*
X135653045Y-109186652D01*
X135563343Y-109096950D01*
X135555448Y-109091214D01*
X135557098Y-109088942D01*
X135517396Y-109051431D01*
X135500500Y-108988942D01*
X135500500Y-107413777D01*
X135520185Y-107346738D01*
X135572989Y-107300983D01*
X135622762Y-107289789D01*
X139884356Y-107230082D01*
X139951665Y-107248826D01*
X139998155Y-107300983D01*
X140010075Y-107351976D01*
X140063409Y-110510493D01*
X140056469Y-110553539D01*
X140052353Y-110565301D01*
X140049500Y-110595730D01*
X140049500Y-112154269D01*
X140052353Y-112184696D01*
X140097207Y-112312882D01*
X140105318Y-112323872D01*
X140114978Y-112339187D01*
X140153824Y-112412085D01*
X140169997Y-112430750D01*
X140199584Y-112464895D01*
X140217166Y-112482839D01*
X140217170Y-112482843D01*
X140217171Y-112482844D01*
X140217173Y-112482845D01*
X140266109Y-112510218D01*
X140296987Y-112527490D01*
X140364026Y-112547175D01*
X140421924Y-112555500D01*
X140421928Y-112555500D01*
X141825991Y-112555500D01*
X141826000Y-112555500D01*
X141869684Y-112550803D01*
X141898875Y-112544452D01*
X141921174Y-112539602D01*
X141921190Y-112539598D01*
X141921195Y-112539597D01*
X141931373Y-112537110D01*
X142012085Y-112494100D01*
X142064889Y-112448345D01*
X142082843Y-112430754D01*
X142127490Y-112350937D01*
X142147175Y-112283898D01*
X142155500Y-112226000D01*
X142155500Y-111146530D01*
X142549500Y-111146530D01*
X142549500Y-111603469D01*
X142589868Y-111806412D01*
X142589870Y-111806420D01*
X142669058Y-111997596D01*
X142784024Y-112169657D01*
X142930342Y-112315975D01*
X142930345Y-112315977D01*
X143102402Y-112430941D01*
X143293580Y-112510130D01*
X143441722Y-112539597D01*
X143496530Y-112550499D01*
X143496534Y-112550500D01*
X143496535Y-112550500D01*
X143703466Y-112550500D01*
X143703467Y-112550499D01*
X143906420Y-112510130D01*
X144097598Y-112430941D01*
X144269655Y-112315977D01*
X144415977Y-112169655D01*
X144530941Y-111997598D01*
X144610130Y-111806420D01*
X144650500Y-111603465D01*
X144650500Y-111146535D01*
X144650499Y-111146530D01*
X145049500Y-111146530D01*
X145049500Y-111603469D01*
X145089868Y-111806412D01*
X145089870Y-111806420D01*
X145169058Y-111997596D01*
X145284024Y-112169657D01*
X145430342Y-112315975D01*
X145430345Y-112315977D01*
X145602402Y-112430941D01*
X145793580Y-112510130D01*
X145941722Y-112539597D01*
X145996530Y-112550499D01*
X145996534Y-112550500D01*
X145996535Y-112550500D01*
X146203466Y-112550500D01*
X146203467Y-112550499D01*
X146406420Y-112510130D01*
X146597598Y-112430941D01*
X146769655Y-112315977D01*
X146915977Y-112169655D01*
X147030941Y-111997598D01*
X147110130Y-111806420D01*
X147150500Y-111603465D01*
X147150500Y-111146535D01*
X147110130Y-110943580D01*
X147096807Y-110911416D01*
X147089338Y-110841947D01*
X147120613Y-110779467D01*
X147123655Y-110776314D01*
X147540460Y-110359511D01*
X147563815Y-110319059D01*
X147580021Y-110290989D01*
X147600500Y-110214562D01*
X147600500Y-108398614D01*
X147601360Y-108395683D01*
X147600640Y-108392713D01*
X147611144Y-108362364D01*
X147620185Y-108331575D01*
X147622493Y-108329575D01*
X147623493Y-108326686D01*
X147648738Y-108306833D01*
X147672989Y-108285820D01*
X147676012Y-108285385D01*
X147678415Y-108283496D01*
X147710374Y-108280444D01*
X147742147Y-108275876D01*
X147744926Y-108277145D01*
X147747968Y-108276855D01*
X147776493Y-108291561D01*
X147805703Y-108304901D01*
X147808175Y-108307895D01*
X147810070Y-108308872D01*
X147831885Y-108336612D01*
X147851150Y-108369979D01*
X147851151Y-108369980D01*
X147851151Y-108369981D01*
X147859537Y-108384507D01*
X147859541Y-108384512D01*
X148213181Y-108738152D01*
X148246666Y-108799475D01*
X148249500Y-108825833D01*
X148249500Y-110175274D01*
X148229815Y-110242313D01*
X148177011Y-110288068D01*
X148172957Y-110289833D01*
X148170163Y-110290991D01*
X148102401Y-110319059D01*
X148102395Y-110319062D01*
X147930344Y-110434022D01*
X147784024Y-110580342D01*
X147669058Y-110752403D01*
X147589870Y-110943579D01*
X147589868Y-110943587D01*
X147549500Y-111146530D01*
X147549500Y-111603469D01*
X147589868Y-111806412D01*
X147589870Y-111806420D01*
X147669058Y-111997596D01*
X147784024Y-112169657D01*
X147930342Y-112315975D01*
X147930345Y-112315977D01*
X148102402Y-112430941D01*
X148293580Y-112510130D01*
X148441722Y-112539597D01*
X148496530Y-112550499D01*
X148496534Y-112550500D01*
X148496535Y-112550500D01*
X148703466Y-112550500D01*
X148703467Y-112550499D01*
X148906420Y-112510130D01*
X149097598Y-112430941D01*
X149269655Y-112315977D01*
X149415977Y-112169655D01*
X149530941Y-111997598D01*
X149610130Y-111806420D01*
X149650500Y-111603465D01*
X149650500Y-111146535D01*
X149610130Y-110943580D01*
X149530941Y-110752402D01*
X149415977Y-110580345D01*
X149415975Y-110580342D01*
X149269657Y-110434024D01*
X149097596Y-110319057D01*
X148927047Y-110248414D01*
X148872644Y-110204573D01*
X148850579Y-110138279D01*
X148850500Y-110133853D01*
X148850500Y-108610439D01*
X148850500Y-108610438D01*
X148830021Y-108534011D01*
X148821646Y-108519505D01*
X148790464Y-108465495D01*
X148790458Y-108465487D01*
X148436819Y-108111848D01*
X148403334Y-108050525D01*
X148400500Y-108024167D01*
X148400500Y-107898614D01*
X148420185Y-107831575D01*
X148472989Y-107785820D01*
X148542147Y-107775876D01*
X148605703Y-107804901D01*
X148631885Y-107836612D01*
X148648458Y-107865317D01*
X148659539Y-107884510D01*
X150763181Y-109988152D01*
X150777884Y-110015079D01*
X150794477Y-110040898D01*
X150795368Y-110047098D01*
X150796666Y-110049475D01*
X150799500Y-110075833D01*
X150799500Y-110154563D01*
X150779815Y-110221602D01*
X150727011Y-110267357D01*
X150722953Y-110269124D01*
X150602404Y-110319057D01*
X150430342Y-110434024D01*
X150284024Y-110580342D01*
X150169058Y-110752403D01*
X150089870Y-110943579D01*
X150089868Y-110943587D01*
X150049500Y-111146530D01*
X150049500Y-111603469D01*
X150089868Y-111806412D01*
X150089870Y-111806420D01*
X150169058Y-111997596D01*
X150284024Y-112169657D01*
X150430342Y-112315975D01*
X150430345Y-112315977D01*
X150602402Y-112430941D01*
X150793580Y-112510130D01*
X150941722Y-112539597D01*
X150996530Y-112550499D01*
X150996534Y-112550500D01*
X150996535Y-112550500D01*
X151203466Y-112550500D01*
X151203467Y-112550499D01*
X151406420Y-112510130D01*
X151597598Y-112430941D01*
X151769655Y-112315977D01*
X151915977Y-112169655D01*
X152030941Y-111997598D01*
X152110130Y-111806420D01*
X152150500Y-111603465D01*
X152150500Y-111146535D01*
X152110130Y-110943580D01*
X152030941Y-110752402D01*
X151915977Y-110580345D01*
X151915975Y-110580342D01*
X151769657Y-110434024D01*
X151597595Y-110319057D01*
X151477047Y-110269124D01*
X151422643Y-110225282D01*
X151400579Y-110158988D01*
X151400500Y-110154563D01*
X151400500Y-109860439D01*
X151399450Y-109856519D01*
X151380021Y-109784011D01*
X151380017Y-109784004D01*
X151340464Y-109715495D01*
X151340458Y-109715487D01*
X150937152Y-109312181D01*
X150903667Y-109250858D01*
X150908651Y-109181166D01*
X150950523Y-109125233D01*
X151015987Y-109100816D01*
X151024833Y-109100500D01*
X151039562Y-109100500D01*
X152324167Y-109100500D01*
X152391206Y-109120185D01*
X152411848Y-109136819D01*
X153263181Y-109988152D01*
X153277884Y-110015079D01*
X153294477Y-110040898D01*
X153295368Y-110047098D01*
X153296666Y-110049475D01*
X153299500Y-110075833D01*
X153299500Y-110154563D01*
X153279815Y-110221602D01*
X153227011Y-110267357D01*
X153222953Y-110269124D01*
X153102404Y-110319057D01*
X152930342Y-110434024D01*
X152784024Y-110580342D01*
X152669058Y-110752403D01*
X152589870Y-110943579D01*
X152589868Y-110943587D01*
X152549500Y-111146530D01*
X152549500Y-111603469D01*
X152589868Y-111806412D01*
X152589870Y-111806420D01*
X152669058Y-111997596D01*
X152784024Y-112169657D01*
X152930342Y-112315975D01*
X152930345Y-112315977D01*
X153102402Y-112430941D01*
X153293580Y-112510130D01*
X153441722Y-112539597D01*
X153496530Y-112550499D01*
X153496534Y-112550500D01*
X153496535Y-112550500D01*
X153703466Y-112550500D01*
X153703467Y-112550499D01*
X153906420Y-112510130D01*
X154097598Y-112430941D01*
X154269655Y-112315977D01*
X154415977Y-112169655D01*
X154530941Y-111997598D01*
X154610130Y-111806420D01*
X154650500Y-111603465D01*
X154650500Y-111146535D01*
X154610130Y-110943580D01*
X154530941Y-110752402D01*
X154415977Y-110580345D01*
X154415975Y-110580342D01*
X154269657Y-110434024D01*
X154097595Y-110319057D01*
X153977047Y-110269124D01*
X153922643Y-110225282D01*
X153900579Y-110158988D01*
X153900500Y-110154563D01*
X153900500Y-109860439D01*
X153899450Y-109856519D01*
X153880021Y-109784011D01*
X153880017Y-109784004D01*
X153840464Y-109715495D01*
X153840458Y-109715487D01*
X152684512Y-108559541D01*
X152684511Y-108559540D01*
X152661686Y-108546362D01*
X152661684Y-108546360D01*
X152615991Y-108519980D01*
X152615990Y-108519979D01*
X152590513Y-108513152D01*
X152539562Y-108499500D01*
X152539560Y-108499500D01*
X151175833Y-108499500D01*
X151108794Y-108479815D01*
X151088152Y-108463181D01*
X150036819Y-107411848D01*
X150022115Y-107384920D01*
X150005523Y-107359102D01*
X150004631Y-107352901D01*
X150003334Y-107350525D01*
X150000500Y-107324167D01*
X150000500Y-107164967D01*
X150020185Y-107097928D01*
X150036819Y-107077286D01*
X150044551Y-107069553D01*
X150044552Y-107069552D01*
X150088867Y-107003231D01*
X150088867Y-107003229D01*
X150088868Y-107003229D01*
X150100499Y-106944752D01*
X150100500Y-106944750D01*
X150100500Y-106005249D01*
X150100499Y-106005247D01*
X150088868Y-105946770D01*
X150088867Y-105946769D01*
X150044552Y-105880447D01*
X149978230Y-105836132D01*
X149978229Y-105836131D01*
X149919752Y-105824500D01*
X149919748Y-105824500D01*
X149480252Y-105824500D01*
X149480247Y-105824500D01*
X149421770Y-105836131D01*
X149421769Y-105836132D01*
X149368891Y-105871465D01*
X149302214Y-105892343D01*
X149234834Y-105873859D01*
X149231109Y-105871465D01*
X149178230Y-105836132D01*
X149178229Y-105836131D01*
X149119752Y-105824500D01*
X149119748Y-105824500D01*
X148680252Y-105824500D01*
X148680247Y-105824500D01*
X148621770Y-105836131D01*
X148621769Y-105836132D01*
X148568891Y-105871465D01*
X148502214Y-105892343D01*
X148434834Y-105873859D01*
X148431109Y-105871465D01*
X148378230Y-105836132D01*
X148378229Y-105836131D01*
X148319752Y-105824500D01*
X148319748Y-105824500D01*
X147880252Y-105824500D01*
X147880247Y-105824500D01*
X147821770Y-105836131D01*
X147821769Y-105836132D01*
X147768891Y-105871465D01*
X147702214Y-105892343D01*
X147634834Y-105873859D01*
X147631109Y-105871465D01*
X147578230Y-105836132D01*
X147578229Y-105836131D01*
X147519752Y-105824500D01*
X147519748Y-105824500D01*
X147080252Y-105824500D01*
X147080247Y-105824500D01*
X147021770Y-105836131D01*
X147021769Y-105836132D01*
X146955447Y-105880447D01*
X146911132Y-105946769D01*
X146911131Y-105946770D01*
X146899500Y-106005247D01*
X146899500Y-106944752D01*
X146911131Y-107003229D01*
X146911132Y-107003230D01*
X146955448Y-107069553D01*
X146963181Y-107077286D01*
X146996666Y-107138609D01*
X146999500Y-107164967D01*
X146999500Y-109999166D01*
X146979815Y-110066205D01*
X146963181Y-110086847D01*
X146749506Y-110300521D01*
X146688183Y-110334006D01*
X146618491Y-110329022D01*
X146603331Y-110321262D01*
X146602973Y-110321932D01*
X146597595Y-110319057D01*
X146406420Y-110239870D01*
X146406412Y-110239868D01*
X146203469Y-110199500D01*
X146203465Y-110199500D01*
X145996535Y-110199500D01*
X145996530Y-110199500D01*
X145793587Y-110239868D01*
X145793579Y-110239870D01*
X145602403Y-110319058D01*
X145430342Y-110434024D01*
X145284024Y-110580342D01*
X145169058Y-110752403D01*
X145089870Y-110943579D01*
X145089868Y-110943587D01*
X145049500Y-111146530D01*
X144650499Y-111146530D01*
X144610130Y-110943580D01*
X144596807Y-110911416D01*
X144589338Y-110841947D01*
X144620613Y-110779467D01*
X144623658Y-110776311D01*
X146140460Y-109259511D01*
X146179458Y-109191964D01*
X146180021Y-109190989D01*
X146200500Y-109114562D01*
X146200500Y-107132359D01*
X146220185Y-107065320D01*
X146272989Y-107019565D01*
X146291157Y-107014089D01*
X146291019Y-107013663D01*
X146300300Y-107010647D01*
X146300301Y-107010646D01*
X146300304Y-107010646D01*
X146413342Y-106953050D01*
X146503050Y-106863342D01*
X146560646Y-106750304D01*
X146560646Y-106750302D01*
X146560647Y-106750301D01*
X146575499Y-106656524D01*
X146575500Y-106656519D01*
X146575499Y-106193482D01*
X146560646Y-106099696D01*
X146503050Y-105986658D01*
X146503046Y-105986654D01*
X146503045Y-105986652D01*
X146413347Y-105896954D01*
X146413344Y-105896952D01*
X146413342Y-105896950D01*
X146336517Y-105857805D01*
X146300301Y-105839352D01*
X146206524Y-105824500D01*
X145593482Y-105824500D01*
X145520034Y-105836133D01*
X145499696Y-105839354D01*
X145386658Y-105896950D01*
X145386657Y-105896951D01*
X145386652Y-105896954D01*
X145296954Y-105986652D01*
X145296951Y-105986657D01*
X145296950Y-105986658D01*
X145287476Y-106005252D01*
X145239352Y-106099698D01*
X145224500Y-106193475D01*
X145224500Y-106656517D01*
X145235292Y-106724657D01*
X145239354Y-106750304D01*
X145296950Y-106863342D01*
X145296952Y-106863344D01*
X145296954Y-106863347D01*
X145386652Y-106953045D01*
X145386654Y-106953046D01*
X145386658Y-106953050D01*
X145499696Y-107010646D01*
X145499698Y-107010647D01*
X145508980Y-107013663D01*
X145508162Y-107016177D01*
X145558019Y-107039803D01*
X145594959Y-107099109D01*
X145599500Y-107132359D01*
X145599500Y-108899166D01*
X145579815Y-108966205D01*
X145563181Y-108986847D01*
X144249506Y-110300521D01*
X144188183Y-110334006D01*
X144118491Y-110329022D01*
X144103331Y-110321262D01*
X144102973Y-110321932D01*
X144097595Y-110319057D01*
X143906420Y-110239870D01*
X143906412Y-110239868D01*
X143703469Y-110199500D01*
X143703465Y-110199500D01*
X143496535Y-110199500D01*
X143496530Y-110199500D01*
X143293587Y-110239868D01*
X143293579Y-110239870D01*
X143102403Y-110319058D01*
X142930342Y-110434024D01*
X142784024Y-110580342D01*
X142669058Y-110752403D01*
X142589870Y-110943579D01*
X142589868Y-110943587D01*
X142549500Y-111146530D01*
X142155500Y-111146530D01*
X142155500Y-109515316D01*
X142164878Y-109468011D01*
X142195636Y-109393482D01*
X143430581Y-106401119D01*
X143442199Y-106362686D01*
X143451577Y-106315382D01*
X143455500Y-106275419D01*
X143455500Y-104493475D01*
X143874500Y-104493475D01*
X143874500Y-105106517D01*
X143885292Y-105174657D01*
X143889354Y-105200304D01*
X143946950Y-105313342D01*
X143946952Y-105313344D01*
X143946954Y-105313347D01*
X144036652Y-105403045D01*
X144036654Y-105403046D01*
X144036658Y-105403050D01*
X144149694Y-105460645D01*
X144149698Y-105460647D01*
X144243475Y-105475499D01*
X144243481Y-105475500D01*
X144706518Y-105475499D01*
X144800304Y-105460646D01*
X144913342Y-105403050D01*
X145003050Y-105313342D01*
X145013311Y-105293204D01*
X145023759Y-105282141D01*
X145030082Y-105268297D01*
X145047264Y-105257254D01*
X145061286Y-105242409D01*
X145076964Y-105238168D01*
X145088860Y-105230523D01*
X145123795Y-105225500D01*
X145257746Y-105225500D01*
X145324785Y-105245185D01*
X145345428Y-105261820D01*
X145386653Y-105303046D01*
X145386655Y-105303047D01*
X145386658Y-105303050D01*
X145493828Y-105357656D01*
X145499698Y-105360647D01*
X145593475Y-105375499D01*
X145593481Y-105375500D01*
X146206518Y-105375499D01*
X146300304Y-105360646D01*
X146413342Y-105303050D01*
X146503050Y-105213342D01*
X146560646Y-105100304D01*
X146560646Y-105100302D01*
X146560647Y-105100301D01*
X146575499Y-105006524D01*
X146575500Y-105006519D01*
X146575499Y-104543482D01*
X146560646Y-104449696D01*
X146503050Y-104336658D01*
X146503046Y-104336654D01*
X146503045Y-104336652D01*
X146411819Y-104245426D01*
X146378334Y-104184103D01*
X146375500Y-104157745D01*
X146375500Y-104037400D01*
X146371308Y-104021754D01*
X146343095Y-103916464D01*
X146280495Y-103808036D01*
X146191964Y-103719505D01*
X146083536Y-103656905D01*
X146083537Y-103656905D01*
X146043224Y-103646103D01*
X145962601Y-103624500D01*
X145837399Y-103624500D01*
X145756775Y-103646103D01*
X145716463Y-103656905D01*
X145608037Y-103719504D01*
X145608034Y-103719506D01*
X145519506Y-103808034D01*
X145519504Y-103808037D01*
X145456905Y-103916463D01*
X145440702Y-103976931D01*
X145428694Y-104021749D01*
X145424500Y-104037400D01*
X145424500Y-104157746D01*
X145415855Y-104187186D01*
X145409332Y-104217173D01*
X145405577Y-104222188D01*
X145404815Y-104224785D01*
X145388182Y-104245426D01*
X145345427Y-104288181D01*
X145284104Y-104321666D01*
X145257746Y-104324500D01*
X145092255Y-104324500D01*
X145025216Y-104304815D01*
X145004574Y-104288181D01*
X144913347Y-104196954D01*
X144913344Y-104196952D01*
X144913342Y-104196950D01*
X144810657Y-104144629D01*
X144800301Y-104139352D01*
X144706524Y-104124500D01*
X144243482Y-104124500D01*
X144162519Y-104137323D01*
X144149696Y-104139354D01*
X144036658Y-104196950D01*
X144036657Y-104196951D01*
X144036652Y-104196954D01*
X143946954Y-104286652D01*
X143946951Y-104286657D01*
X143946950Y-104286658D01*
X143929112Y-104321666D01*
X143889352Y-104399698D01*
X143874500Y-104493475D01*
X143455500Y-104493475D01*
X143455500Y-101599000D01*
X143450803Y-101555316D01*
X143446346Y-101534827D01*
X143439602Y-101503825D01*
X143439348Y-101502789D01*
X143437110Y-101493627D01*
X143394100Y-101412915D01*
X143348345Y-101360111D01*
X143348339Y-101360104D01*
X143330757Y-101342160D01*
X143330756Y-101342159D01*
X143330754Y-101342157D01*
X143330752Y-101342156D01*
X143330750Y-101342154D01*
X143250940Y-101297511D01*
X143250935Y-101297509D01*
X143183903Y-101277826D01*
X143183899Y-101277825D01*
X143183898Y-101277825D01*
X143126000Y-101269500D01*
X143125996Y-101269500D01*
X139824500Y-101269500D01*
X139757461Y-101249815D01*
X139711706Y-101197011D01*
X139700500Y-101145500D01*
X139700500Y-99650097D01*
X139709144Y-99620656D01*
X139715668Y-99590670D01*
X139719422Y-99585654D01*
X139720185Y-99583058D01*
X139736819Y-99562416D01*
X139912916Y-99386319D01*
X139974239Y-99352834D01*
X140000597Y-99350000D01*
X147097500Y-99350000D01*
X147164539Y-99369685D01*
X147210294Y-99422489D01*
X147221500Y-99474000D01*
X147221500Y-103691811D01*
X147201815Y-103758850D01*
X147185181Y-103779492D01*
X147039537Y-103925135D01*
X147039533Y-103925141D01*
X146996682Y-103999360D01*
X146996682Y-103999361D01*
X146982225Y-104053318D01*
X146974500Y-104082147D01*
X146974500Y-104122247D01*
X146973491Y-104130108D01*
X146962513Y-104155139D01*
X146954815Y-104181358D01*
X146953602Y-104183210D01*
X146911132Y-104246769D01*
X146911131Y-104246770D01*
X146899500Y-104305247D01*
X146899500Y-105244752D01*
X146911131Y-105303229D01*
X146911132Y-105303230D01*
X146955447Y-105369552D01*
X147021769Y-105413867D01*
X147021770Y-105413868D01*
X147080247Y-105425499D01*
X147080250Y-105425500D01*
X147080252Y-105425500D01*
X147519750Y-105425500D01*
X147519751Y-105425499D01*
X147534568Y-105422552D01*
X147578229Y-105413868D01*
X147578231Y-105413867D01*
X147631108Y-105378534D01*
X147697785Y-105357656D01*
X147765165Y-105376140D01*
X147768892Y-105378535D01*
X147821768Y-105413867D01*
X147821770Y-105413868D01*
X147880247Y-105425499D01*
X147880250Y-105425500D01*
X147880252Y-105425500D01*
X148319750Y-105425500D01*
X148319751Y-105425499D01*
X148334568Y-105422552D01*
X148378229Y-105413868D01*
X148378231Y-105413867D01*
X148431108Y-105378534D01*
X148497785Y-105357656D01*
X148565165Y-105376140D01*
X148568892Y-105378535D01*
X148621768Y-105413867D01*
X148621770Y-105413868D01*
X148680247Y-105425499D01*
X148680250Y-105425500D01*
X148680252Y-105425500D01*
X149119750Y-105425500D01*
X149119751Y-105425499D01*
X149134568Y-105422552D01*
X149178229Y-105413868D01*
X149178231Y-105413867D01*
X149231108Y-105378534D01*
X149297785Y-105357656D01*
X149365165Y-105376140D01*
X149368892Y-105378535D01*
X149421768Y-105413867D01*
X149421770Y-105413868D01*
X149480247Y-105425499D01*
X149480250Y-105425500D01*
X149480252Y-105425500D01*
X149919750Y-105425500D01*
X149919751Y-105425499D01*
X149934568Y-105422552D01*
X149978229Y-105413868D01*
X149978229Y-105413867D01*
X149978231Y-105413867D01*
X150044552Y-105369552D01*
X150088867Y-105303231D01*
X150088867Y-105303229D01*
X150088868Y-105303229D01*
X150100499Y-105244752D01*
X150100500Y-105244750D01*
X150100500Y-104305249D01*
X150100499Y-104305247D01*
X150088868Y-104246770D01*
X150088867Y-104246768D01*
X150065171Y-104211306D01*
X150044292Y-104144629D01*
X150062776Y-104077249D01*
X150080583Y-104054741D01*
X150474859Y-103660466D01*
X150474862Y-103660465D01*
X150535465Y-103599862D01*
X150564173Y-103550138D01*
X150578318Y-103525639D01*
X150600500Y-103442853D01*
X150600500Y-103357147D01*
X150600500Y-100963841D01*
X150588851Y-100920366D01*
X150588851Y-100920365D01*
X150578319Y-100881056D01*
X150565587Y-100859005D01*
X150535465Y-100806832D01*
X150163819Y-100435186D01*
X150130334Y-100373863D01*
X150127500Y-100347505D01*
X150127500Y-99474000D01*
X150147185Y-99406961D01*
X150199989Y-99361206D01*
X150251500Y-99350000D01*
X157657300Y-99350000D01*
X157669117Y-97163760D01*
X157689162Y-97096833D01*
X157691961Y-97092712D01*
X157696927Y-97085715D01*
X157699856Y-97078644D01*
X157715500Y-97000000D01*
X157715500Y-96200000D01*
X157715500Y-96199997D01*
X157699857Y-96121360D01*
X157699856Y-96121358D01*
X157699856Y-96121356D01*
X157696927Y-96114285D01*
X157694173Y-96109903D01*
X157675174Y-96043269D01*
X157677152Y-95677152D01*
X158000000Y-96000000D01*
X158000000Y-98225000D01*
X159100000Y-98225000D01*
X159075000Y-91925000D01*
X159075000Y-86225000D01*
X157728246Y-86225000D01*
X157728496Y-86178830D01*
X157748542Y-86111898D01*
X157801593Y-86066429D01*
X157852494Y-86055500D01*
X158175991Y-86055500D01*
X158176000Y-86055500D01*
X158219684Y-86050803D01*
X158248875Y-86044452D01*
X158271174Y-86039602D01*
X158271190Y-86039598D01*
X158271195Y-86039597D01*
X158281373Y-86037110D01*
X158362085Y-85994100D01*
X158414889Y-85948345D01*
X158432843Y-85930754D01*
X158477490Y-85850937D01*
X158497175Y-85783898D01*
X158505500Y-85726000D01*
X158505500Y-84774000D01*
X158500803Y-84730316D01*
X158492179Y-84690674D01*
X158489602Y-84678825D01*
X158489348Y-84677789D01*
X158487110Y-84668627D01*
X158444100Y-84587915D01*
X158398345Y-84535111D01*
X158398339Y-84535104D01*
X158380757Y-84517160D01*
X158380756Y-84517159D01*
X158380754Y-84517157D01*
X158380752Y-84517156D01*
X158380750Y-84517154D01*
X158300940Y-84472511D01*
X158300935Y-84472509D01*
X158233903Y-84452826D01*
X158233899Y-84452825D01*
X158233898Y-84452825D01*
X158176000Y-84444500D01*
X157862542Y-84444500D01*
X157795503Y-84424815D01*
X157749748Y-84372011D01*
X157738544Y-84319830D01*
X157751875Y-81853593D01*
X157843992Y-64811698D01*
X157864037Y-64744772D01*
X157917088Y-64699303D01*
X157968482Y-64688375D01*
X173447382Y-64750291D01*
X173455347Y-64750324D01*
X173455830Y-64750500D01*
X173497053Y-64750500D01*
X173497291Y-64750501D01*
X173497337Y-64750514D01*
X173503260Y-64750670D01*
X173833178Y-64767961D01*
X173846086Y-64769318D01*
X174169191Y-64820492D01*
X174181874Y-64823187D01*
X174497881Y-64907861D01*
X174510219Y-64911871D01*
X174815627Y-65029106D01*
X174827470Y-65034378D01*
X175118977Y-65182908D01*
X175130183Y-65189378D01*
X175404565Y-65367564D01*
X175415055Y-65375186D01*
X175669293Y-65581064D01*
X175678938Y-65589749D01*
X175910250Y-65821061D01*
X175918935Y-65830706D01*
X176124813Y-66084944D01*
X176132438Y-66095438D01*
X176310617Y-66369810D01*
X176317098Y-66381035D01*
X176465616Y-66672519D01*
X176470895Y-66684377D01*
X176588128Y-66989781D01*
X176592139Y-67002124D01*
X176676810Y-67318119D01*
X176679508Y-67330815D01*
X176730681Y-67653913D01*
X176732038Y-67666821D01*
X176749330Y-67996756D01*
X176749500Y-68003246D01*
X176749500Y-111496753D01*
X176749330Y-111503243D01*
X176732038Y-111833178D01*
X176730681Y-111846086D01*
X176679508Y-112169184D01*
X176676810Y-112181880D01*
X176592139Y-112497875D01*
X176588128Y-112510218D01*
X176470895Y-112815622D01*
X176465616Y-112827480D01*
X176317098Y-113118964D01*
X176310612Y-113130197D01*
X176202839Y-113296153D01*
X176132442Y-113404555D01*
X176124813Y-113415055D01*
X175918935Y-113669293D01*
X175910250Y-113678938D01*
X175678938Y-113910250D01*
X175669293Y-113918935D01*
X175415055Y-114124813D01*
X175404555Y-114132442D01*
X175385621Y-114144738D01*
X175130197Y-114310612D01*
X175118964Y-114317098D01*
X174827480Y-114465616D01*
X174815622Y-114470895D01*
X174510218Y-114588128D01*
X174497875Y-114592139D01*
X174181880Y-114676810D01*
X174169184Y-114679508D01*
X173846086Y-114730681D01*
X173833178Y-114732038D01*
X173503244Y-114749330D01*
X173496754Y-114749500D01*
X123503246Y-114749500D01*
X123496756Y-114749330D01*
X123166821Y-114732038D01*
X123153913Y-114730681D01*
X122830815Y-114679508D01*
X122818119Y-114676810D01*
X122502124Y-114592139D01*
X122489781Y-114588128D01*
X122184377Y-114470895D01*
X122172519Y-114465616D01*
X121881029Y-114317094D01*
X121869810Y-114310617D01*
X121595438Y-114132438D01*
X121584944Y-114124813D01*
X121330706Y-113918935D01*
X121321061Y-113910250D01*
X121089749Y-113678938D01*
X121081064Y-113669293D01*
X120875186Y-113415055D01*
X120867564Y-113404565D01*
X120689378Y-113130183D01*
X120682908Y-113118977D01*
X120534378Y-112827470D01*
X120529104Y-112815622D01*
X120509683Y-112765029D01*
X120411871Y-112510218D01*
X120407860Y-112497875D01*
X120406848Y-112494100D01*
X120323187Y-112181874D01*
X120320491Y-112169184D01*
X120318128Y-112154266D01*
X120269318Y-111846086D01*
X120267961Y-111833178D01*
X120250670Y-111503243D01*
X120250500Y-111496753D01*
X120250500Y-111043475D01*
X131374500Y-111043475D01*
X131374500Y-111506517D01*
X131385217Y-111574183D01*
X131389354Y-111600304D01*
X131446950Y-111713342D01*
X131446952Y-111713344D01*
X131446954Y-111713347D01*
X131536652Y-111803045D01*
X131536655Y-111803047D01*
X131536658Y-111803050D01*
X131615349Y-111843145D01*
X131666145Y-111891118D01*
X131682940Y-111958939D01*
X131660403Y-112025074D01*
X131615350Y-112064113D01*
X131544250Y-112100341D01*
X131544243Y-112100346D01*
X131450346Y-112194243D01*
X131450343Y-112194248D01*
X131390047Y-112312582D01*
X131374500Y-112410748D01*
X131374500Y-112914251D01*
X131390047Y-113012417D01*
X131390049Y-113012420D01*
X131450342Y-113130751D01*
X131450344Y-113130753D01*
X131450346Y-113130756D01*
X131544243Y-113224653D01*
X131544245Y-113224654D01*
X131544249Y-113224658D01*
X131662580Y-113284951D01*
X131662581Y-113284951D01*
X131662583Y-113284952D01*
X131662582Y-113284952D01*
X131760749Y-113300500D01*
X131760754Y-113300500D01*
X132339251Y-113300500D01*
X132437417Y-113284952D01*
X132437418Y-113284951D01*
X132437420Y-113284951D01*
X132555751Y-113224658D01*
X132649658Y-113130751D01*
X132689516Y-113052524D01*
X132737490Y-113001730D01*
X132805311Y-112984935D01*
X132871445Y-113007472D01*
X132910482Y-113052523D01*
X132950342Y-113130751D01*
X132950344Y-113130753D01*
X132950346Y-113130756D01*
X133044243Y-113224653D01*
X133044245Y-113224654D01*
X133044249Y-113224658D01*
X133162580Y-113284951D01*
X133162581Y-113284951D01*
X133162583Y-113284952D01*
X133162582Y-113284952D01*
X133260749Y-113300500D01*
X133260754Y-113300500D01*
X133839251Y-113300500D01*
X133937417Y-113284952D01*
X133937418Y-113284951D01*
X133937420Y-113284951D01*
X134055751Y-113224658D01*
X134149658Y-113130751D01*
X134189516Y-113052524D01*
X134237490Y-113001730D01*
X134305311Y-112984935D01*
X134371445Y-113007472D01*
X134410482Y-113052523D01*
X134450342Y-113130751D01*
X134450344Y-113130753D01*
X134450346Y-113130756D01*
X134544243Y-113224653D01*
X134544245Y-113224654D01*
X134544249Y-113224658D01*
X134662580Y-113284951D01*
X134662581Y-113284951D01*
X134662583Y-113284952D01*
X134662582Y-113284952D01*
X134760749Y-113300500D01*
X134760754Y-113300500D01*
X135339251Y-113300500D01*
X135366697Y-113296153D01*
X138699500Y-113296153D01*
X138699500Y-113453846D01*
X138730261Y-113608489D01*
X138730264Y-113608501D01*
X138790602Y-113754172D01*
X138790609Y-113754185D01*
X138878210Y-113885288D01*
X138878213Y-113885292D01*
X138989707Y-113996786D01*
X138989711Y-113996789D01*
X139120814Y-114084390D01*
X139120827Y-114084397D01*
X139228271Y-114128901D01*
X139266503Y-114144737D01*
X139421153Y-114175499D01*
X139421156Y-114175500D01*
X139421158Y-114175500D01*
X139578844Y-114175500D01*
X139578845Y-114175499D01*
X139733497Y-114144737D01*
X139879179Y-114084394D01*
X140010289Y-113996789D01*
X140121789Y-113885289D01*
X140209394Y-113754179D01*
X140269737Y-113608497D01*
X140300500Y-113453842D01*
X140300500Y-113296158D01*
X140300500Y-113296155D01*
X140300499Y-113296153D01*
X140298271Y-113284951D01*
X140269737Y-113141503D01*
X140269735Y-113141498D01*
X140209397Y-112995827D01*
X140209390Y-112995814D01*
X140121789Y-112864711D01*
X140121786Y-112864707D01*
X140010292Y-112753213D01*
X140010288Y-112753210D01*
X139879185Y-112665609D01*
X139879172Y-112665602D01*
X139733501Y-112605264D01*
X139733489Y-112605261D01*
X139578845Y-112574500D01*
X139578842Y-112574500D01*
X139421158Y-112574500D01*
X139421155Y-112574500D01*
X139266510Y-112605261D01*
X139266498Y-112605264D01*
X139120827Y-112665602D01*
X139120814Y-112665609D01*
X138989711Y-112753210D01*
X138989707Y-112753213D01*
X138878213Y-112864707D01*
X138878210Y-112864711D01*
X138790609Y-112995814D01*
X138790602Y-112995827D01*
X138730264Y-113141498D01*
X138730261Y-113141510D01*
X138699500Y-113296153D01*
X135366697Y-113296153D01*
X135437417Y-113284952D01*
X135437418Y-113284951D01*
X135437420Y-113284951D01*
X135555751Y-113224658D01*
X135555756Y-113224653D01*
X135578025Y-113202385D01*
X135649653Y-113130756D01*
X135649658Y-113130751D01*
X135709951Y-113012420D01*
X135709951Y-113012418D01*
X135709952Y-113012417D01*
X135725500Y-112914251D01*
X135725500Y-112410748D01*
X135709952Y-112312582D01*
X135695339Y-112283903D01*
X135649658Y-112194249D01*
X135649654Y-112194245D01*
X135649653Y-112194243D01*
X135555756Y-112100346D01*
X135555752Y-112100343D01*
X135555751Y-112100342D01*
X135553210Y-112099047D01*
X135484649Y-112064113D01*
X135433854Y-112016138D01*
X135417059Y-111948317D01*
X135439597Y-111882183D01*
X135484647Y-111843147D01*
X135563342Y-111803050D01*
X135653050Y-111713342D01*
X135710646Y-111600304D01*
X135710646Y-111600302D01*
X135710647Y-111600301D01*
X135725499Y-111506524D01*
X135725500Y-111506519D01*
X135725499Y-111043482D01*
X135710646Y-110949696D01*
X135653050Y-110836658D01*
X135653046Y-110836654D01*
X135653045Y-110836652D01*
X135563347Y-110746954D01*
X135563344Y-110746952D01*
X135563342Y-110746950D01*
X135486517Y-110707805D01*
X135450301Y-110689352D01*
X135356524Y-110674500D01*
X134743482Y-110674500D01*
X134662519Y-110687323D01*
X134649696Y-110689354D01*
X134536658Y-110746950D01*
X134536657Y-110746951D01*
X134536652Y-110746954D01*
X134446954Y-110836652D01*
X134446949Y-110836659D01*
X134410483Y-110908226D01*
X134362508Y-110959022D01*
X134294687Y-110975816D01*
X134228552Y-110953278D01*
X134189516Y-110908226D01*
X134153050Y-110836658D01*
X134153047Y-110836655D01*
X134153045Y-110836652D01*
X134063347Y-110746954D01*
X134063344Y-110746952D01*
X134063342Y-110746950D01*
X133986517Y-110707805D01*
X133950301Y-110689352D01*
X133856524Y-110674500D01*
X133243482Y-110674500D01*
X133162519Y-110687323D01*
X133149696Y-110689354D01*
X133036658Y-110746950D01*
X133036657Y-110746951D01*
X133036652Y-110746954D01*
X132946954Y-110836652D01*
X132946949Y-110836659D01*
X132910483Y-110908226D01*
X132862508Y-110959022D01*
X132794687Y-110975816D01*
X132728552Y-110953278D01*
X132689516Y-110908226D01*
X132653050Y-110836658D01*
X132653047Y-110836655D01*
X132653045Y-110836652D01*
X132563347Y-110746954D01*
X132563344Y-110746952D01*
X132563342Y-110746950D01*
X132486517Y-110707805D01*
X132450301Y-110689352D01*
X132356524Y-110674500D01*
X131743482Y-110674500D01*
X131662519Y-110687323D01*
X131649696Y-110689354D01*
X131536658Y-110746950D01*
X131536657Y-110746951D01*
X131536652Y-110746954D01*
X131446954Y-110836652D01*
X131446951Y-110836657D01*
X131446950Y-110836658D01*
X131427751Y-110874337D01*
X131389352Y-110949698D01*
X131374500Y-111043475D01*
X120250500Y-111043475D01*
X120250500Y-95195730D01*
X122899500Y-95195730D01*
X122899500Y-95904269D01*
X122902353Y-95934699D01*
X122902353Y-95934701D01*
X122947206Y-96062880D01*
X122947207Y-96062882D01*
X123027850Y-96172150D01*
X123137118Y-96252793D01*
X123179845Y-96267744D01*
X123265299Y-96297646D01*
X123295730Y-96300500D01*
X123295734Y-96300500D01*
X124004270Y-96300500D01*
X124034699Y-96297646D01*
X124034701Y-96297646D01*
X124098790Y-96275219D01*
X124162882Y-96252793D01*
X124272150Y-96172150D01*
X124352793Y-96062882D01*
X124380220Y-95984500D01*
X124397646Y-95934701D01*
X124397646Y-95934699D01*
X124400500Y-95904269D01*
X124400500Y-95841519D01*
X124420185Y-95774480D01*
X124436819Y-95753838D01*
X124619112Y-95571545D01*
X124619114Y-95571543D01*
X124695775Y-95456811D01*
X124703128Y-95439061D01*
X124728324Y-95378231D01*
X124748580Y-95329328D01*
X124775500Y-95193994D01*
X124775500Y-95056006D01*
X124775500Y-94087399D01*
X126724500Y-94087399D01*
X126724500Y-94212601D01*
X126756905Y-94333536D01*
X126819505Y-94441964D01*
X126908036Y-94530495D01*
X127016464Y-94593095D01*
X127137399Y-94625500D01*
X127137400Y-94625500D01*
X127141882Y-94626701D01*
X127201543Y-94663067D01*
X127232071Y-94725914D01*
X127231407Y-94770661D01*
X127229500Y-94780250D01*
X127229500Y-95419752D01*
X127241131Y-95478229D01*
X127241132Y-95478230D01*
X127285447Y-95544552D01*
X127351769Y-95588867D01*
X127351770Y-95588868D01*
X127410247Y-95600499D01*
X127410250Y-95600500D01*
X127410252Y-95600500D01*
X127689750Y-95600500D01*
X127689751Y-95600499D01*
X127709418Y-95596587D01*
X127748228Y-95588868D01*
X127748229Y-95588867D01*
X127748231Y-95588867D01*
X127748231Y-95588866D01*
X127752543Y-95587081D01*
X127822012Y-95579609D01*
X127847457Y-95587081D01*
X127851771Y-95588868D01*
X127910247Y-95600499D01*
X127910250Y-95600500D01*
X127910252Y-95600500D01*
X128189750Y-95600500D01*
X128189751Y-95600499D01*
X128209418Y-95596587D01*
X128248228Y-95588868D01*
X128248229Y-95588867D01*
X128248231Y-95588867D01*
X128248231Y-95588866D01*
X128252543Y-95587081D01*
X128322012Y-95579609D01*
X128347457Y-95587081D01*
X128351771Y-95588868D01*
X128410247Y-95600499D01*
X128410250Y-95600500D01*
X128410252Y-95600500D01*
X128689750Y-95600500D01*
X128689751Y-95600499D01*
X128704568Y-95597552D01*
X128748229Y-95588868D01*
X128748229Y-95588867D01*
X128748231Y-95588867D01*
X128814552Y-95544552D01*
X128858867Y-95478231D01*
X128858868Y-95478228D01*
X128859360Y-95477043D01*
X128861121Y-95474857D01*
X128865652Y-95468077D01*
X128866258Y-95468482D01*
X128903203Y-95422641D01*
X128969498Y-95400579D01*
X128973919Y-95400500D01*
X130714560Y-95400500D01*
X130714562Y-95400500D01*
X130790989Y-95380021D01*
X130856650Y-95342112D01*
X130918650Y-95325499D01*
X131356517Y-95325499D01*
X131356518Y-95325499D01*
X131450304Y-95310646D01*
X131563342Y-95253050D01*
X131653050Y-95163342D01*
X131710646Y-95050304D01*
X131710646Y-95050302D01*
X131710647Y-95050301D01*
X131725499Y-94956524D01*
X131725500Y-94956519D01*
X131725499Y-94493482D01*
X131710646Y-94399696D01*
X131653050Y-94286658D01*
X131653046Y-94286654D01*
X131653045Y-94286652D01*
X131563347Y-94196954D01*
X131563344Y-94196952D01*
X131563342Y-94196950D01*
X131473722Y-94151286D01*
X131450301Y-94139352D01*
X131356524Y-94124500D01*
X130743482Y-94124500D01*
X130662519Y-94137323D01*
X130649696Y-94139354D01*
X130536658Y-94196950D01*
X130536657Y-94196951D01*
X130536652Y-94196954D01*
X130446954Y-94286652D01*
X130446951Y-94286657D01*
X130389352Y-94399698D01*
X130374500Y-94493475D01*
X130374500Y-94493480D01*
X130374500Y-94493481D01*
X130374500Y-94626701D01*
X130374501Y-94675499D01*
X130354817Y-94742539D01*
X130302013Y-94788294D01*
X130250501Y-94799500D01*
X128973919Y-94799500D01*
X128906880Y-94779815D01*
X128861125Y-94727011D01*
X128859360Y-94722957D01*
X128858868Y-94721771D01*
X128814552Y-94655447D01*
X128748230Y-94611132D01*
X128748229Y-94611131D01*
X128689752Y-94599500D01*
X128689748Y-94599500D01*
X128474500Y-94599500D01*
X128407461Y-94579815D01*
X128361706Y-94527011D01*
X128350500Y-94475500D01*
X128350500Y-93749271D01*
X128370185Y-93682232D01*
X128418203Y-93638787D01*
X128488342Y-93603050D01*
X128578050Y-93513342D01*
X128635646Y-93400304D01*
X128641851Y-93361129D01*
X128671778Y-93297999D01*
X128731089Y-93261067D01*
X128800951Y-93262063D01*
X128859184Y-93300672D01*
X128886796Y-93361129D01*
X128890279Y-93383122D01*
X128890280Y-93383125D01*
X128890281Y-93383126D01*
X128936343Y-93473528D01*
X128951473Y-93503221D01*
X128951476Y-93503225D01*
X129046774Y-93598523D01*
X129046778Y-93598526D01*
X129046780Y-93598528D01*
X129166874Y-93659719D01*
X129166876Y-93659719D01*
X129166878Y-93659720D01*
X129266507Y-93675500D01*
X129266512Y-93675500D01*
X129833493Y-93675500D01*
X129933121Y-93659720D01*
X129933121Y-93659719D01*
X129933126Y-93659719D01*
X130053220Y-93598528D01*
X130148528Y-93503220D01*
X130163657Y-93473528D01*
X130179108Y-93443205D01*
X130189556Y-93432142D01*
X130195879Y-93418297D01*
X130213060Y-93407255D01*
X130227082Y-93392409D01*
X130242761Y-93388167D01*
X130254657Y-93380523D01*
X130289592Y-93375500D01*
X130300728Y-93375500D01*
X130367767Y-93395185D01*
X130411212Y-93443204D01*
X130446949Y-93513340D01*
X130446954Y-93513347D01*
X130536652Y-93603045D01*
X130536654Y-93603046D01*
X130536658Y-93603050D01*
X130629619Y-93650416D01*
X130649698Y-93660647D01*
X130743475Y-93675499D01*
X130743481Y-93675500D01*
X131356518Y-93675499D01*
X131450304Y-93660646D01*
X131563342Y-93603050D01*
X131653050Y-93513342D01*
X131710646Y-93400304D01*
X131710646Y-93400302D01*
X131710647Y-93400301D01*
X131721282Y-93333147D01*
X131725500Y-93306519D01*
X131725499Y-92843482D01*
X131710646Y-92749696D01*
X131653050Y-92636658D01*
X131653046Y-92636654D01*
X131653045Y-92636652D01*
X131563347Y-92546954D01*
X131563344Y-92546952D01*
X131563342Y-92546950D01*
X131470217Y-92499500D01*
X131450301Y-92489352D01*
X131356524Y-92474500D01*
X130743482Y-92474500D01*
X130666719Y-92486658D01*
X130649696Y-92489354D01*
X130536658Y-92546950D01*
X130536657Y-92546951D01*
X130536652Y-92546954D01*
X130446954Y-92636652D01*
X130446948Y-92636660D01*
X130431120Y-92667725D01*
X130383145Y-92718521D01*
X130315324Y-92735315D01*
X130249189Y-92712777D01*
X130210151Y-92667724D01*
X130209719Y-92666877D01*
X130209719Y-92666874D01*
X130148528Y-92546780D01*
X130148526Y-92546778D01*
X130148523Y-92546774D01*
X130053225Y-92451476D01*
X130053221Y-92451473D01*
X130053220Y-92451472D01*
X129933126Y-92390281D01*
X129933124Y-92390280D01*
X129933121Y-92390279D01*
X129833493Y-92374500D01*
X129833488Y-92374500D01*
X129266512Y-92374500D01*
X129266507Y-92374500D01*
X129166878Y-92390279D01*
X129046778Y-92451473D01*
X129046774Y-92451476D01*
X128951476Y-92546774D01*
X128951473Y-92546778D01*
X128890278Y-92666880D01*
X128887263Y-92676160D01*
X128885241Y-92675503D01*
X128860825Y-92727006D01*
X128801513Y-92763936D01*
X128731651Y-92762938D01*
X128673419Y-92724327D01*
X128645809Y-92663869D01*
X128635646Y-92599696D01*
X128578050Y-92486658D01*
X128578046Y-92486654D01*
X128578045Y-92486652D01*
X128488347Y-92396954D01*
X128488343Y-92396951D01*
X128488342Y-92396950D01*
X128446210Y-92375483D01*
X128395417Y-92327511D01*
X128378622Y-92259690D01*
X128401159Y-92193555D01*
X128446210Y-92154517D01*
X128488342Y-92133050D01*
X128578050Y-92043342D01*
X128635646Y-91930304D01*
X128635646Y-91930302D01*
X128635647Y-91930301D01*
X128650499Y-91836524D01*
X128650500Y-91836519D01*
X128650499Y-91223482D01*
X128635646Y-91129696D01*
X128578050Y-91016658D01*
X128578046Y-91016654D01*
X128578045Y-91016652D01*
X128488347Y-90926954D01*
X128488344Y-90926952D01*
X128488342Y-90926950D01*
X128380044Y-90871769D01*
X128375301Y-90869352D01*
X128281524Y-90854500D01*
X127818482Y-90854500D01*
X127737519Y-90867323D01*
X127724696Y-90869354D01*
X127611658Y-90926950D01*
X127611657Y-90926951D01*
X127611652Y-90926954D01*
X127521954Y-91016652D01*
X127521951Y-91016657D01*
X127464352Y-91129698D01*
X127449500Y-91223475D01*
X127449500Y-91836517D01*
X127457258Y-91885499D01*
X127464354Y-91930304D01*
X127521950Y-92043342D01*
X127521952Y-92043344D01*
X127521954Y-92043347D01*
X127611652Y-92133045D01*
X127611661Y-92133052D01*
X127653786Y-92154516D01*
X127704582Y-92202490D01*
X127721377Y-92270311D01*
X127698839Y-92336446D01*
X127653786Y-92375484D01*
X127611661Y-92396947D01*
X127611652Y-92396954D01*
X127521954Y-92486652D01*
X127521951Y-92486657D01*
X127521950Y-92486658D01*
X127515407Y-92499500D01*
X127464352Y-92599698D01*
X127449500Y-92693475D01*
X127449500Y-93306517D01*
X127459515Y-93369748D01*
X127464354Y-93400304D01*
X127516791Y-93503216D01*
X127521953Y-93513348D01*
X127524284Y-93516556D01*
X127525907Y-93521108D01*
X127526381Y-93522037D01*
X127526260Y-93522098D01*
X127547758Y-93582364D01*
X127531928Y-93650416D01*
X127481818Y-93699107D01*
X127413339Y-93712977D01*
X127391735Y-93707704D01*
X127391386Y-93709009D01*
X127383537Y-93706906D01*
X127383536Y-93706905D01*
X127262601Y-93674500D01*
X127137399Y-93674500D01*
X127056775Y-93696103D01*
X127016463Y-93706905D01*
X126908037Y-93769504D01*
X126908034Y-93769506D01*
X126819506Y-93858034D01*
X126819504Y-93858037D01*
X126756905Y-93966463D01*
X126756905Y-93966464D01*
X126724500Y-94087399D01*
X124775500Y-94087399D01*
X124775500Y-93931007D01*
X124775500Y-92499500D01*
X124795185Y-92432461D01*
X124847989Y-92386706D01*
X124899500Y-92375500D01*
X126785991Y-92375500D01*
X126786000Y-92375500D01*
X126829684Y-92370803D01*
X126858875Y-92364452D01*
X126881174Y-92359602D01*
X126881190Y-92359598D01*
X126881195Y-92359597D01*
X126891373Y-92357110D01*
X126972085Y-92314100D01*
X127024889Y-92268345D01*
X127042843Y-92250754D01*
X127087490Y-92170937D01*
X127107175Y-92103898D01*
X127115500Y-92046000D01*
X127115500Y-89247087D01*
X127135185Y-89180048D01*
X127187989Y-89134293D01*
X127257147Y-89124349D01*
X127320703Y-89153374D01*
X127349982Y-89190790D01*
X127378668Y-89247087D01*
X127386949Y-89263340D01*
X127386954Y-89263347D01*
X127476652Y-89353045D01*
X127476654Y-89353046D01*
X127476658Y-89353050D01*
X127589694Y-89410645D01*
X127589698Y-89410647D01*
X127683475Y-89425499D01*
X127683481Y-89425500D01*
X128146518Y-89425499D01*
X128240304Y-89410646D01*
X128353342Y-89353050D01*
X128443050Y-89263342D01*
X128500646Y-89150304D01*
X128500646Y-89150302D01*
X128500647Y-89150301D01*
X128515499Y-89056524D01*
X128515500Y-89056519D01*
X128515499Y-88443482D01*
X128500646Y-88349696D01*
X128443050Y-88236658D01*
X128443046Y-88236654D01*
X128443045Y-88236652D01*
X128371819Y-88165426D01*
X128338334Y-88104103D01*
X128335500Y-88077745D01*
X128335500Y-87473924D01*
X128342344Y-87439516D01*
X128342133Y-87439474D01*
X128360499Y-87347137D01*
X128360500Y-87347133D01*
X128360499Y-85992868D01*
X128344515Y-85912505D01*
X128318501Y-85873573D01*
X128283624Y-85821375D01*
X128223196Y-85780999D01*
X128192495Y-85760485D01*
X128192493Y-85760484D01*
X128192490Y-85760483D01*
X128112135Y-85744500D01*
X127907870Y-85744500D01*
X127847867Y-85756434D01*
X127827505Y-85760485D01*
X127827504Y-85760485D01*
X127827501Y-85760486D01*
X127816220Y-85765159D01*
X127815621Y-85763714D01*
X127762204Y-85780436D01*
X127704061Y-85764481D01*
X127703781Y-85765159D01*
X127698383Y-85762923D01*
X127694825Y-85761947D01*
X127692648Y-85760547D01*
X127692494Y-85760484D01*
X127612135Y-85744500D01*
X127407870Y-85744500D01*
X127365212Y-85752984D01*
X127327505Y-85760485D01*
X127327503Y-85760485D01*
X127319298Y-85762118D01*
X127295108Y-85764500D01*
X127224893Y-85764500D01*
X127200702Y-85762117D01*
X127112135Y-85744500D01*
X126907870Y-85744500D01*
X126865212Y-85752984D01*
X126827505Y-85760485D01*
X126827503Y-85760485D01*
X126819298Y-85762118D01*
X126795108Y-85764500D01*
X126724893Y-85764500D01*
X126700702Y-85762117D01*
X126612135Y-85744500D01*
X126407870Y-85744500D01*
X126365212Y-85752984D01*
X126327505Y-85760485D01*
X126327503Y-85760485D01*
X126319298Y-85762118D01*
X126295108Y-85764500D01*
X123835001Y-85764500D01*
X123790508Y-85769374D01*
X123738078Y-85781001D01*
X123727133Y-85783747D01*
X123727129Y-85783749D01*
X123727127Y-85783749D01*
X123727127Y-85783750D01*
X123705660Y-85795412D01*
X123646761Y-85827409D01*
X123594344Y-85873573D01*
X123594339Y-85873577D01*
X123576516Y-85891324D01*
X123532514Y-85971501D01*
X123513371Y-86038696D01*
X123505514Y-86096663D01*
X123545564Y-91062867D01*
X123526421Y-91130063D01*
X123524671Y-91132757D01*
X123454223Y-91238192D01*
X123401421Y-91365667D01*
X123401418Y-91365679D01*
X123375997Y-91493482D01*
X123375996Y-91493488D01*
X123374500Y-91501007D01*
X123374500Y-94679197D01*
X123354815Y-94746236D01*
X123302011Y-94791991D01*
X123272481Y-94799879D01*
X123272670Y-94800744D01*
X123265298Y-94802353D01*
X123137119Y-94847206D01*
X123137117Y-94847207D01*
X123027850Y-94927850D01*
X122947207Y-95037117D01*
X122947206Y-95037119D01*
X122902353Y-95165298D01*
X122902353Y-95165300D01*
X122899500Y-95195730D01*
X120250500Y-95195730D01*
X120250500Y-83363475D01*
X130884500Y-83363475D01*
X130884500Y-83826517D01*
X130895292Y-83894657D01*
X130899354Y-83920304D01*
X130956950Y-84033342D01*
X130956952Y-84033344D01*
X130956954Y-84033347D01*
X131046652Y-84123045D01*
X131046654Y-84123046D01*
X131046658Y-84123050D01*
X131159694Y-84180645D01*
X131159698Y-84180647D01*
X131253475Y-84195499D01*
X131253481Y-84195500D01*
X131866518Y-84195499D01*
X131960304Y-84180646D01*
X132073342Y-84123050D01*
X132100892Y-84095500D01*
X132169951Y-84026442D01*
X132171874Y-84028365D01*
X132215344Y-83994832D01*
X132284956Y-83988840D01*
X132322351Y-84002986D01*
X132426464Y-84063095D01*
X132547399Y-84095500D01*
X132547401Y-84095500D01*
X132672599Y-84095500D01*
X132672601Y-84095500D01*
X132793536Y-84063095D01*
X132901964Y-84000495D01*
X132990495Y-83911964D01*
X133053095Y-83803536D01*
X133085500Y-83682601D01*
X133085500Y-83557399D01*
X133053095Y-83436464D01*
X132990495Y-83328036D01*
X132901964Y-83239505D01*
X132793536Y-83176905D01*
X132793537Y-83176905D01*
X132753224Y-83166103D01*
X132672601Y-83144500D01*
X132547399Y-83144500D01*
X132466775Y-83166103D01*
X132426463Y-83176905D01*
X132344058Y-83224481D01*
X132276157Y-83240952D01*
X132210131Y-83218100D01*
X132171575Y-83173389D01*
X132163401Y-83157347D01*
X132163050Y-83156658D01*
X132163047Y-83156655D01*
X132163045Y-83156652D01*
X132073347Y-83066954D01*
X132073344Y-83066952D01*
X132073342Y-83066950D01*
X131996517Y-83027805D01*
X131960301Y-83009352D01*
X131866524Y-82994500D01*
X131253482Y-82994500D01*
X131172519Y-83007323D01*
X131159696Y-83009354D01*
X131046658Y-83066950D01*
X131046657Y-83066951D01*
X131046652Y-83066954D01*
X130956954Y-83156652D01*
X130956951Y-83156657D01*
X130956950Y-83156658D01*
X130946634Y-83176905D01*
X130899352Y-83269698D01*
X130884500Y-83363475D01*
X120250500Y-83363475D01*
X120250500Y-79494003D01*
X121554500Y-79494003D01*
X121554500Y-82846007D01*
X121559197Y-82889686D01*
X121570397Y-82941174D01*
X121572890Y-82951372D01*
X121572891Y-82951375D01*
X121615899Y-83032083D01*
X121615901Y-83032086D01*
X121661660Y-83084895D01*
X121679242Y-83102839D01*
X121679246Y-83102843D01*
X121679247Y-83102844D01*
X121679249Y-83102845D01*
X121759059Y-83147488D01*
X121759063Y-83147490D01*
X121826102Y-83167175D01*
X121884000Y-83175500D01*
X126141889Y-83175500D01*
X126208928Y-83195185D01*
X126229567Y-83211816D01*
X126236373Y-83218622D01*
X126327505Y-83279515D01*
X126327509Y-83279516D01*
X126354533Y-83284891D01*
X126407867Y-83295500D01*
X126612132Y-83295499D01*
X126692495Y-83279515D01*
X126692498Y-83279512D01*
X126703778Y-83274841D01*
X126704376Y-83276286D01*
X126757782Y-83259563D01*
X126815943Y-83275516D01*
X126816223Y-83274842D01*
X126821590Y-83277065D01*
X126825162Y-83278045D01*
X126827351Y-83279451D01*
X126827506Y-83279516D01*
X126880957Y-83290147D01*
X126907867Y-83295500D01*
X127112132Y-83295499D01*
X127192495Y-83279515D01*
X127283624Y-83218624D01*
X127344515Y-83127495D01*
X127360500Y-83047133D01*
X127360499Y-82886173D01*
X127361762Y-82868520D01*
X127365001Y-82846000D01*
X127365000Y-81894000D01*
X127361210Y-81858751D01*
X127360499Y-81845495D01*
X127360499Y-81692870D01*
X127360499Y-81692868D01*
X127344515Y-81612505D01*
X127299286Y-81544815D01*
X127283624Y-81521375D01*
X127228995Y-81484874D01*
X127192495Y-81460485D01*
X127192493Y-81460484D01*
X127192490Y-81460483D01*
X127112135Y-81444500D01*
X126907870Y-81444500D01*
X126847867Y-81456434D01*
X126827505Y-81460485D01*
X126827504Y-81460485D01*
X126827501Y-81460486D01*
X126816220Y-81465159D01*
X126815621Y-81463714D01*
X126762204Y-81480436D01*
X126704061Y-81464481D01*
X126703781Y-81465159D01*
X126698383Y-81462923D01*
X126694825Y-81461947D01*
X126692648Y-81460547D01*
X126692494Y-81460484D01*
X126612135Y-81444500D01*
X126407870Y-81444500D01*
X126327504Y-81460485D01*
X126236373Y-81521377D01*
X126229567Y-81528184D01*
X126168243Y-81561667D01*
X126141889Y-81564500D01*
X124289500Y-81564500D01*
X124222461Y-81544815D01*
X124176706Y-81492011D01*
X124165500Y-81440500D01*
X124165500Y-79600247D01*
X126759500Y-79600247D01*
X126759500Y-80939752D01*
X126771131Y-80998229D01*
X126771132Y-80998230D01*
X126815447Y-81064552D01*
X126881769Y-81108867D01*
X126881770Y-81108868D01*
X126940247Y-81120499D01*
X126940250Y-81120500D01*
X126940252Y-81120500D01*
X127585500Y-81120500D01*
X127652539Y-81140185D01*
X127698294Y-81192989D01*
X127709500Y-81244500D01*
X127709500Y-81523983D01*
X127689815Y-81591022D01*
X127688603Y-81592873D01*
X127675484Y-81612507D01*
X127675483Y-81612507D01*
X127659500Y-81692862D01*
X127659500Y-83047129D01*
X127675485Y-83127495D01*
X127736375Y-83218624D01*
X127767625Y-83239504D01*
X127827505Y-83279515D01*
X127827508Y-83279515D01*
X127827509Y-83279516D01*
X127854533Y-83284891D01*
X127907867Y-83295500D01*
X128112132Y-83295499D01*
X128192495Y-83279515D01*
X128192498Y-83279512D01*
X128203778Y-83274841D01*
X128204376Y-83276286D01*
X128257782Y-83259563D01*
X128315943Y-83275516D01*
X128316223Y-83274842D01*
X128321590Y-83277065D01*
X128325162Y-83278045D01*
X128327351Y-83279451D01*
X128327506Y-83279516D01*
X128380957Y-83290147D01*
X128407867Y-83295500D01*
X128612132Y-83295499D01*
X128692495Y-83279515D01*
X128783624Y-83218624D01*
X128844515Y-83127495D01*
X128860500Y-83047133D01*
X128860500Y-82794500D01*
X128880185Y-82727461D01*
X128932989Y-82681706D01*
X128984500Y-82670500D01*
X129324560Y-82670500D01*
X129324562Y-82670500D01*
X129400989Y-82650021D01*
X129469511Y-82610460D01*
X129522876Y-82557095D01*
X129584199Y-82523610D01*
X129650193Y-82528329D01*
X129650420Y-82527632D01*
X129653236Y-82528547D01*
X129653891Y-82528594D01*
X129655337Y-82529230D01*
X129659694Y-82530645D01*
X129659696Y-82530646D01*
X129753481Y-82545500D01*
X130366518Y-82545499D01*
X130460304Y-82530646D01*
X130573342Y-82473050D01*
X130663050Y-82383342D01*
X130698787Y-82313203D01*
X130709235Y-82302140D01*
X130715558Y-82288297D01*
X130732738Y-82277255D01*
X130746761Y-82262409D01*
X130762440Y-82258167D01*
X130774336Y-82250523D01*
X130809271Y-82245500D01*
X130810728Y-82245500D01*
X130877767Y-82265185D01*
X130921212Y-82313204D01*
X130956949Y-82383340D01*
X130956954Y-82383347D01*
X131046652Y-82473045D01*
X131046654Y-82473046D01*
X131046658Y-82473050D01*
X131155669Y-82528594D01*
X131159698Y-82530647D01*
X131253475Y-82545499D01*
X131253481Y-82545500D01*
X131866518Y-82545499D01*
X131960304Y-82530646D01*
X132073342Y-82473050D01*
X132163050Y-82383342D01*
X132220646Y-82270304D01*
X132220646Y-82270302D01*
X132220647Y-82270301D01*
X132235499Y-82176524D01*
X132235500Y-82176519D01*
X132235499Y-81713482D01*
X132220646Y-81619696D01*
X132163050Y-81506658D01*
X132163046Y-81506654D01*
X132163045Y-81506652D01*
X132073347Y-81416954D01*
X132073344Y-81416952D01*
X132073342Y-81416950D01*
X131985145Y-81372011D01*
X131960301Y-81359352D01*
X131866524Y-81344500D01*
X131253482Y-81344500D01*
X131172519Y-81357323D01*
X131159696Y-81359354D01*
X131046658Y-81416950D01*
X131046657Y-81416951D01*
X131046652Y-81416954D01*
X130956954Y-81506652D01*
X130956951Y-81506657D01*
X130956950Y-81506658D01*
X130921212Y-81576796D01*
X130910764Y-81587859D01*
X130904442Y-81601703D01*
X130887261Y-81612744D01*
X130873239Y-81627591D01*
X130857559Y-81631832D01*
X130845664Y-81639477D01*
X130810729Y-81644500D01*
X130809272Y-81644500D01*
X130742233Y-81624815D01*
X130698788Y-81576796D01*
X130674018Y-81528184D01*
X130663050Y-81506658D01*
X130663047Y-81506655D01*
X130663045Y-81506652D01*
X130573347Y-81416954D01*
X130573344Y-81416952D01*
X130573342Y-81416950D01*
X130485145Y-81372011D01*
X130460301Y-81359352D01*
X130366524Y-81344500D01*
X130150174Y-81344500D01*
X130083135Y-81324815D01*
X130037380Y-81272011D01*
X130027436Y-81202853D01*
X130056461Y-81139297D01*
X130066539Y-81130048D01*
X130066442Y-81129951D01*
X130163045Y-81033347D01*
X130163050Y-81033342D01*
X130220646Y-80920304D01*
X130220646Y-80920302D01*
X130220647Y-80920301D01*
X130235499Y-80826524D01*
X130235500Y-80826519D01*
X130235499Y-80213482D01*
X130220646Y-80119696D01*
X130163050Y-80006658D01*
X130163046Y-80006654D01*
X130163045Y-80006652D01*
X130073347Y-79916954D01*
X130073344Y-79916952D01*
X130073342Y-79916950D01*
X129996517Y-79877805D01*
X129960301Y-79859352D01*
X129866524Y-79844500D01*
X129403482Y-79844500D01*
X129322519Y-79857323D01*
X129309696Y-79859354D01*
X129196658Y-79916950D01*
X129196657Y-79916951D01*
X129196652Y-79916954D01*
X129180426Y-79933181D01*
X129153498Y-79947884D01*
X129127680Y-79964477D01*
X129121479Y-79965368D01*
X129119103Y-79966666D01*
X129092745Y-79969500D01*
X128984500Y-79969500D01*
X128917461Y-79949815D01*
X128871706Y-79897011D01*
X128860500Y-79845500D01*
X128860500Y-79600249D01*
X128860499Y-79600247D01*
X128848868Y-79541770D01*
X128848867Y-79541769D01*
X128804552Y-79475447D01*
X128738230Y-79431132D01*
X128738229Y-79431131D01*
X128679752Y-79419500D01*
X128679748Y-79419500D01*
X126940252Y-79419500D01*
X126940247Y-79419500D01*
X126881770Y-79431131D01*
X126881769Y-79431132D01*
X126815447Y-79475447D01*
X126771132Y-79541769D01*
X126771131Y-79541770D01*
X126759500Y-79600247D01*
X124165500Y-79600247D01*
X124165500Y-79494008D01*
X124165499Y-79493992D01*
X124163505Y-79475447D01*
X124160803Y-79450316D01*
X124154099Y-79419500D01*
X124149602Y-79398825D01*
X124149348Y-79397789D01*
X124147110Y-79388627D01*
X124104100Y-79307915D01*
X124058345Y-79255111D01*
X124058339Y-79255104D01*
X124040757Y-79237160D01*
X124040756Y-79237159D01*
X124040754Y-79237157D01*
X124040752Y-79237156D01*
X124040750Y-79237154D01*
X123960940Y-79192511D01*
X123960935Y-79192509D01*
X123893903Y-79172826D01*
X123893899Y-79172825D01*
X123893898Y-79172825D01*
X123836000Y-79164500D01*
X121884000Y-79164500D01*
X121883992Y-79164500D01*
X121840313Y-79169197D01*
X121788825Y-79180397D01*
X121778627Y-79182890D01*
X121778624Y-79182891D01*
X121697916Y-79225899D01*
X121697913Y-79225901D01*
X121645104Y-79271660D01*
X121627160Y-79289242D01*
X121627154Y-79289249D01*
X121582511Y-79369059D01*
X121582509Y-79369064D01*
X121562826Y-79436096D01*
X121562825Y-79436101D01*
X121562825Y-79436102D01*
X121554502Y-79493992D01*
X121554500Y-79494003D01*
X120250500Y-79494003D01*
X120250500Y-67753246D01*
X120250670Y-67746756D01*
X120267961Y-67416821D01*
X120269318Y-67403913D01*
X120270017Y-67399500D01*
X120320493Y-67080804D01*
X120323186Y-67068129D01*
X120407863Y-66752113D01*
X120411871Y-66739781D01*
X120529109Y-66434365D01*
X120534375Y-66422536D01*
X120682912Y-66131014D01*
X120689373Y-66119824D01*
X120867570Y-65845425D01*
X120875179Y-65834953D01*
X121081072Y-65580696D01*
X121089739Y-65571071D01*
X121321071Y-65339739D01*
X121330696Y-65331072D01*
X121584953Y-65125179D01*
X121595425Y-65117570D01*
X121869824Y-64939373D01*
X121881014Y-64932912D01*
X122172536Y-64784375D01*
X122184365Y-64779109D01*
X122489785Y-64661869D01*
X122502113Y-64657863D01*
X122818129Y-64573186D01*
X122830804Y-64570493D01*
X123153915Y-64519317D01*
X123166819Y-64517961D01*
X123496318Y-64500692D01*
X123503504Y-64500525D01*
X138926748Y-64593064D01*
G37*
%TD.AperFunction*%
%TA.AperFunction,Conductor*%
G36*
X158000000Y-91940751D02*
G01*
X158000000Y-94250000D01*
X157683326Y-94535006D01*
X157685476Y-94137351D01*
X157694914Y-94090574D01*
X157697021Y-94085489D01*
X157699856Y-94078644D01*
X157715500Y-94000000D01*
X157715500Y-93200000D01*
X157715500Y-93199997D01*
X157699857Y-93121360D01*
X157698088Y-93115528D01*
X157699078Y-93115227D01*
X157691217Y-93075168D01*
X157693162Y-92715340D01*
X157713207Y-92648415D01*
X157729478Y-92628336D01*
X157758314Y-92599500D01*
X157800500Y-92557314D01*
X157866392Y-92443186D01*
X157900500Y-92315892D01*
X157900500Y-92184108D01*
X157866392Y-92056814D01*
X157800500Y-91942686D01*
X157748981Y-91891167D01*
X158000000Y-91940751D01*
G37*
%TD.AperFunction*%
%TD*%
%TA.AperFunction,Conductor*%
%TO.N,+6V*%
G36*
X127602539Y-85989685D02*
G01*
X127648294Y-86042489D01*
X127659500Y-86094000D01*
X127659500Y-87313811D01*
X127639815Y-87380850D01*
X127616711Y-87407516D01*
X126910000Y-88019999D01*
X126910000Y-92046000D01*
X126890315Y-92113039D01*
X126837511Y-92158794D01*
X126786000Y-92170000D01*
X123883004Y-92170000D01*
X123815965Y-92150315D01*
X123770210Y-92097511D01*
X123759008Y-92047000D01*
X123711008Y-86095000D01*
X123730151Y-86027804D01*
X123782585Y-85981625D01*
X123835004Y-85970000D01*
X127535500Y-85970000D01*
X127602539Y-85989685D01*
G37*
%TD.AperFunction*%
%TD*%
M02*
