%TF.GenerationSoftware,KiCad,Pcbnew,9.0.7+1*%
%TF.CreationDate,Date%
%TF.ProjectId,Cellule_de_force_V2,43656c6c-756c-4655-9f64-655f666f7263,+ (Unreleased)*%
%TF.SameCoordinates,Original*%
%TF.FileFunction,Legend,Top*%
%TF.FilePolarity,Positive*%
%FSLAX46Y46*%
G04 Gerber Fmt 4.6, Leading zero omitted, Abs format (unit mm)*
G04 Created by KiCad*
%MOMM*%
%LPD*%
G01*
G04 APERTURE LIST*
G04 Aperture macros list*
%AMRoundRect*
0 Rectangle with rounded corners*
0 $1 Rounding radius*
0 $2 $3 $4 $5 $6 $7 $8 $9 X,Y pos of 4 corners*
0 Add a 4 corners polygon primitive as box body*
4,1,4,$2,$3,$4,$5,$6,$7,$8,$9,$2,$3,0*
0 Add four circle primitives for the rounded corners*
1,1,$1+$1,$2,$3*
1,1,$1+$1,$4,$5*
1,1,$1+$1,$6,$7*
1,1,$1+$1,$8,$9*
0 Add four rect primitives between the rounded corners*
20,1,$1+$1,$2,$3,$4,$5,0*
20,1,$1+$1,$4,$5,$6,$7,0*
20,1,$1+$1,$6,$7,$8,$9,0*
20,1,$1+$1,$8,$9,$2,$3,0*%
G04 Aperture macros list end*
%ADD10C,0.254000*%
%ADD11C,0.150000*%
%ADD12C,0.120000*%
%ADD13C,0.200000*%
%ADD14C,0.100000*%
%ADD15C,0.223606*%
%ADD16C,0.141419*%
%ADD17C,0.127000*%
%ADD18C,0.400000*%
%ADD19C,0.010000*%
%ADD20RoundRect,0.225000X-0.300000X0.225000X-0.300000X-0.225000X0.300000X-0.225000X0.300000X0.225000X0*%
%ADD21RoundRect,0.250000X-0.250000X-0.275000X0.250000X-0.275000X0.250000X0.275000X-0.250000X0.275000X0*%
%ADD22RoundRect,0.050000X-0.950000X0.925000X-0.950000X-0.925000X0.950000X-0.925000X0.950000X0.925000X0*%
%ADD23RoundRect,0.050000X-0.300000X0.120000X-0.300000X-0.120000X0.300000X-0.120000X0.300000X0.120000X0*%
%ADD24RoundRect,0.050000X0.825000X1.200000X-0.825000X1.200000X-0.825000X-1.200000X0.825000X-1.200000X0*%
%ADD25RoundRect,0.050000X0.125000X0.250000X-0.125000X0.250000X-0.125000X-0.250000X0.125000X-0.250000X0*%
%ADD26RoundRect,0.250000X-0.275000X0.250000X-0.275000X-0.250000X0.275000X-0.250000X0.275000X0.250000X0*%
%ADD27C,0.900000*%
%ADD28C,6.500000*%
%ADD29RoundRect,0.250000X0.275000X-0.250000X0.275000X0.250000X-0.275000X0.250000X-0.275000X-0.250000X0*%
%ADD30RoundRect,0.175000X0.175000X-0.537500X0.175000X0.537500X-0.175000X0.537500X-0.175000X-0.537500X0*%
%ADD31RoundRect,0.102000X0.725000X0.225000X-0.725000X0.225000X-0.725000X-0.225000X0.725000X-0.225000X0*%
%ADD32RoundRect,0.225000X0.300000X-0.225000X0.300000X0.225000X-0.300000X0.225000X-0.300000X-0.225000X0*%
%ADD33C,1.300000*%
%ADD34RoundRect,0.264706X-0.635294X-0.760294X0.635294X-0.760294X0.635294X0.760294X-0.635294X0.760294X0*%
%ADD35O,1.800000X2.050000*%
%ADD36RoundRect,0.225000X-0.225000X-0.300000X0.225000X-0.300000X0.225000X0.300000X-0.225000X0.300000X0*%
%ADD37RoundRect,0.225000X0.225000X0.300000X-0.225000X0.300000X-0.225000X-0.300000X0.225000X-0.300000X0*%
%ADD38RoundRect,0.243750X0.281250X-0.243750X0.281250X0.243750X-0.281250X0.243750X-0.281250X-0.243750X0*%
%ADD39RoundRect,0.250000X0.250000X0.275000X-0.250000X0.275000X-0.250000X-0.275000X0.250000X-0.275000X0*%
%ADD40RoundRect,0.272727X-0.327273X0.327273X-0.327273X-0.327273X0.327273X-0.327273X0.327273X0.327273X0*%
%ADD41RoundRect,0.050000X-0.200000X0.450000X-0.200000X-0.450000X0.200000X-0.450000X0.200000X0.450000X0*%
%ADD42C,1.704000*%
%ADD43RoundRect,0.050000X-0.850000X0.650000X-0.850000X-0.650000X0.850000X-0.650000X0.850000X0.650000X0*%
%ADD44R,1.890000X1.830000*%
%ADD45RoundRect,0.100000X0.100000X-0.675000X0.100000X0.675000X-0.100000X0.675000X-0.100000X-0.675000X0*%
%ADD46C,2.004000*%
G04 APERTURE END LIST*
D10*
X163858333Y-104034318D02*
X163253571Y-104034318D01*
X163253571Y-104034318D02*
X163253571Y-102764318D01*
X164946905Y-104034318D02*
X164221190Y-104034318D01*
X164584047Y-104034318D02*
X164584047Y-102764318D01*
X164584047Y-102764318D02*
X164463095Y-102945746D01*
X164463095Y-102945746D02*
X164342143Y-103066699D01*
X164342143Y-103066699D02*
X164221190Y-103127175D01*
X169530237Y-100714318D02*
X169530237Y-99444318D01*
X170860714Y-100593365D02*
X170800238Y-100653842D01*
X170800238Y-100653842D02*
X170618809Y-100714318D01*
X170618809Y-100714318D02*
X170497857Y-100714318D01*
X170497857Y-100714318D02*
X170316428Y-100653842D01*
X170316428Y-100653842D02*
X170195476Y-100532889D01*
X170195476Y-100532889D02*
X170134999Y-100411937D01*
X170134999Y-100411937D02*
X170074523Y-100170032D01*
X170074523Y-100170032D02*
X170074523Y-99988603D01*
X170074523Y-99988603D02*
X170134999Y-99746699D01*
X170134999Y-99746699D02*
X170195476Y-99625746D01*
X170195476Y-99625746D02*
X170316428Y-99504794D01*
X170316428Y-99504794D02*
X170497857Y-99444318D01*
X170497857Y-99444318D02*
X170618809Y-99444318D01*
X170618809Y-99444318D02*
X170800238Y-99504794D01*
X170800238Y-99504794D02*
X170860714Y-99565270D01*
X171344523Y-99565270D02*
X171404999Y-99504794D01*
X171404999Y-99504794D02*
X171525952Y-99444318D01*
X171525952Y-99444318D02*
X171828333Y-99444318D01*
X171828333Y-99444318D02*
X171949285Y-99504794D01*
X171949285Y-99504794D02*
X172009761Y-99565270D01*
X172009761Y-99565270D02*
X172070238Y-99686222D01*
X172070238Y-99686222D02*
X172070238Y-99807175D01*
X172070238Y-99807175D02*
X172009761Y-99988603D01*
X172009761Y-99988603D02*
X171284047Y-100714318D01*
X171284047Y-100714318D02*
X172070238Y-100714318D01*
D11*
X122738095Y-107804819D02*
X122738095Y-106804819D01*
X122738095Y-107281009D02*
X123309523Y-107281009D01*
X123309523Y-107804819D02*
X123309523Y-106804819D01*
X123690476Y-106804819D02*
X124309523Y-106804819D01*
X124309523Y-106804819D02*
X123976190Y-107185771D01*
X123976190Y-107185771D02*
X124119047Y-107185771D01*
X124119047Y-107185771D02*
X124214285Y-107233390D01*
X124214285Y-107233390D02*
X124261904Y-107281009D01*
X124261904Y-107281009D02*
X124309523Y-107376247D01*
X124309523Y-107376247D02*
X124309523Y-107614342D01*
X124309523Y-107614342D02*
X124261904Y-107709580D01*
X124261904Y-107709580D02*
X124214285Y-107757200D01*
X124214285Y-107757200D02*
X124119047Y-107804819D01*
X124119047Y-107804819D02*
X123833333Y-107804819D01*
X123833333Y-107804819D02*
X123738095Y-107757200D01*
X123738095Y-107757200D02*
X123690476Y-107709580D01*
D10*
X167933571Y-85653365D02*
X167873095Y-85713842D01*
X167873095Y-85713842D02*
X167691666Y-85774318D01*
X167691666Y-85774318D02*
X167570714Y-85774318D01*
X167570714Y-85774318D02*
X167389285Y-85713842D01*
X167389285Y-85713842D02*
X167268333Y-85592889D01*
X167268333Y-85592889D02*
X167207856Y-85471937D01*
X167207856Y-85471937D02*
X167147380Y-85230032D01*
X167147380Y-85230032D02*
X167147380Y-85048603D01*
X167147380Y-85048603D02*
X167207856Y-84806699D01*
X167207856Y-84806699D02*
X167268333Y-84685746D01*
X167268333Y-84685746D02*
X167389285Y-84564794D01*
X167389285Y-84564794D02*
X167570714Y-84504318D01*
X167570714Y-84504318D02*
X167691666Y-84504318D01*
X167691666Y-84504318D02*
X167873095Y-84564794D01*
X167873095Y-84564794D02*
X167933571Y-84625270D01*
X169143095Y-85774318D02*
X168417380Y-85774318D01*
X168780237Y-85774318D02*
X168780237Y-84504318D01*
X168780237Y-84504318D02*
X168659285Y-84685746D01*
X168659285Y-84685746D02*
X168538333Y-84806699D01*
X168538333Y-84806699D02*
X168417380Y-84867175D01*
X170231666Y-84927651D02*
X170231666Y-85774318D01*
X169929285Y-84443842D02*
X169626904Y-85350984D01*
X169626904Y-85350984D02*
X170413095Y-85350984D01*
D11*
X156485714Y-70854819D02*
X155914286Y-70854819D01*
X156200000Y-70854819D02*
X156200000Y-69854819D01*
X156200000Y-69854819D02*
X156104762Y-69997676D01*
X156104762Y-69997676D02*
X156009524Y-70092914D01*
X156009524Y-70092914D02*
X155914286Y-70140533D01*
D12*
%TO.C,R2*%
X141777500Y-82162742D02*
X141777500Y-82637258D01*
X142822500Y-82162742D02*
X142822500Y-82637258D01*
%TO.C,C22*%
X169429420Y-103140000D02*
X169710580Y-103140000D01*
X169429420Y-104160000D02*
X169710580Y-104160000D01*
%TO.C,R11*%
X164777500Y-110187742D02*
X164777500Y-110662258D01*
X165822500Y-110187742D02*
X165822500Y-110662258D01*
D13*
%TO.C,L1*%
X161120000Y-100360000D02*
X162670000Y-100360000D01*
X161120000Y-106560000D02*
X161120000Y-100360000D01*
X162670000Y-106560000D02*
X161120000Y-106560000D01*
D14*
X164070000Y-107060000D02*
X164070000Y-107060000D01*
X164070000Y-107160000D02*
X164070000Y-107160000D01*
D13*
X165470000Y-100360000D02*
X167020000Y-100360000D01*
X167020000Y-100360000D02*
X167020000Y-106560000D01*
X167020000Y-106560000D02*
X165470000Y-106560000D01*
D14*
X164070000Y-107060000D02*
G75*
G02*
X164070000Y-107160000I0J-50000D01*
G01*
X164070000Y-107160000D02*
G75*
G02*
X164070000Y-107060000I0J50000D01*
G01*
D12*
%TO.C,R1*%
X143487500Y-82162742D02*
X143487500Y-82637258D01*
X144532500Y-82162742D02*
X144532500Y-82637258D01*
D14*
%TO.C,IC2*%
X172870000Y-101140000D02*
X172870000Y-101140000D01*
X172970000Y-101140000D02*
X172970000Y-101140000D01*
X172870000Y-101140000D02*
G75*
G02*
X172970000Y-101140000I50000J0D01*
G01*
X172970000Y-101140000D02*
G75*
G02*
X172870000Y-101140000I-50000J0D01*
G01*
D12*
%TO.C,C24*%
X153352500Y-93534420D02*
X153352500Y-93815580D01*
X154372500Y-93534420D02*
X154372500Y-93815580D01*
%TO.C,C25*%
X153352500Y-96815580D02*
X153352500Y-96534420D01*
X154372500Y-96815580D02*
X154372500Y-96534420D01*
%TO.C,C9*%
X154869420Y-83260000D02*
X155150580Y-83260000D01*
X154869420Y-84280000D02*
X155150580Y-84280000D01*
%TO.C,Q1*%
X152222500Y-88392500D02*
X152222500Y-87592500D01*
X152222500Y-88392500D02*
X152222500Y-89192500D01*
X155342500Y-88392500D02*
X155342500Y-87592500D01*
X155342500Y-88392500D02*
X155342500Y-89192500D01*
X152272500Y-89692500D02*
X151942500Y-89932500D01*
X151942500Y-89452500D01*
X152272500Y-89692500D01*
G36*
X152272500Y-89692500D02*
G01*
X151942500Y-89932500D01*
X151942500Y-89452500D01*
X152272500Y-89692500D01*
G37*
%TO.C,C5*%
X153269420Y-84660000D02*
X153550580Y-84660000D01*
X153269420Y-85680000D02*
X153550580Y-85680000D01*
D13*
%TO.C,U1*%
X146650000Y-87600000D02*
X150350000Y-87600000D01*
X146650000Y-95400000D02*
X146650000Y-87600000D01*
X150350000Y-87600000D02*
X150350000Y-95400000D01*
X150350000Y-95400000D02*
X146650000Y-95400000D01*
D15*
X151611803Y-95700000D02*
G75*
G02*
X151388197Y-95700000I-111803J0D01*
G01*
X151388197Y-95700000D02*
G75*
G02*
X151611803Y-95700000I111803J0D01*
G01*
D16*
X151570709Y-95700000D02*
G75*
G02*
X151429291Y-95700000I-70709J0D01*
G01*
X151429291Y-95700000D02*
G75*
G02*
X151570709Y-95700000I70709J0D01*
G01*
X151570709Y-95700000D02*
G75*
G02*
X151429291Y-95700000I-70709J0D01*
G01*
X151429291Y-95700000D02*
G75*
G02*
X151570709Y-95700000I70709J0D01*
G01*
D12*
%TO.C,R17*%
X175197500Y-100027258D02*
X175197500Y-99552742D01*
X176242500Y-100027258D02*
X176242500Y-99552742D01*
%TO.C,R13*%
X171827500Y-87937258D02*
X171827500Y-87462742D01*
X172872500Y-87937258D02*
X172872500Y-87462742D01*
%TO.C,J1*%
X138250000Y-108625000D02*
X138250000Y-109875000D01*
X138540000Y-108915000D02*
X138540000Y-114885000D01*
X138540000Y-114885000D02*
X158660000Y-114885000D01*
X138550000Y-108925000D02*
X138550000Y-109675000D01*
X138550000Y-109675000D02*
X140350000Y-109675000D01*
X138550000Y-111175000D02*
X139300000Y-111175000D01*
X139300000Y-111175000D02*
X139300000Y-112515000D01*
X139500000Y-108625000D02*
X138250000Y-108625000D01*
X140350000Y-108925000D02*
X138550000Y-108925000D01*
X140350000Y-109675000D02*
X140350000Y-108925000D01*
X141850000Y-108925000D02*
X141850000Y-109675000D01*
X141850000Y-109675000D02*
X155350000Y-109675000D01*
X148600000Y-114125000D02*
X140360000Y-114125000D01*
X155350000Y-108925000D02*
X141850000Y-108925000D01*
X155350000Y-109675000D02*
X155350000Y-108925000D01*
X156850000Y-108925000D02*
X156850000Y-109675000D01*
X156850000Y-109675000D02*
X158650000Y-109675000D01*
X157900000Y-111175000D02*
X157900000Y-114125000D01*
X157900000Y-114125000D02*
X148600000Y-114125000D01*
X158650000Y-108925000D02*
X156850000Y-108925000D01*
X158650000Y-109675000D02*
X158650000Y-108925000D01*
X158650000Y-111175000D02*
X157900000Y-111175000D01*
X158660000Y-108915000D02*
X138540000Y-108915000D01*
X158660000Y-114885000D02*
X158660000Y-108915000D01*
%TO.C,C20*%
X169379420Y-94620000D02*
X169660580Y-94620000D01*
X169379420Y-95640000D02*
X169660580Y-95640000D01*
%TO.C,R16*%
X163202500Y-110662258D02*
X163202500Y-110187742D01*
X164247500Y-110662258D02*
X164247500Y-110187742D01*
%TO.C,C4*%
X141140000Y-91359420D02*
X141140000Y-91640580D01*
X142160000Y-91359420D02*
X142160000Y-91640580D01*
%TO.C,R14*%
X169282742Y-93087500D02*
X169757258Y-93087500D01*
X169282742Y-94132500D02*
X169757258Y-94132500D01*
%TO.C,C15*%
X165140000Y-87809420D02*
X165140000Y-88090580D01*
X166160000Y-87809420D02*
X166160000Y-88090580D01*
%TO.C,R9*%
X172987258Y-84927500D02*
X172512742Y-84927500D01*
X172987258Y-85972500D02*
X172512742Y-85972500D01*
%TO.C,C26*%
X156881920Y-90700000D02*
X157163080Y-90700000D01*
X156881920Y-91720000D02*
X157163080Y-91720000D01*
%TO.C,D1*%
X161415000Y-112650000D02*
X161415000Y-114935000D01*
X161415000Y-114935000D02*
X162885000Y-114935000D01*
X162885000Y-114935000D02*
X162885000Y-112650000D01*
%TO.C,R15*%
X173727500Y-99552742D02*
X173727500Y-100027258D01*
X174772500Y-99552742D02*
X174772500Y-100027258D01*
%TO.C,C6*%
X143295580Y-85650000D02*
X143014420Y-85650000D01*
X143295580Y-86670000D02*
X143014420Y-86670000D01*
%TO.C,C21*%
X169429420Y-104650000D02*
X169710580Y-104650000D01*
X169429420Y-105670000D02*
X169710580Y-105670000D01*
%TO.C,R6*%
X150727500Y-105837258D02*
X150727500Y-105362742D01*
X151772500Y-105837258D02*
X151772500Y-105362742D01*
%TO.C,C23*%
X156881920Y-86190000D02*
X157163080Y-86190000D01*
X156881920Y-87210000D02*
X157163080Y-87210000D01*
%TO.C,C11*%
X156881920Y-87700000D02*
X157163080Y-87700000D01*
X156881920Y-88720000D02*
X157163080Y-88720000D01*
%TO.C,C17*%
X173610580Y-103110000D02*
X173329420Y-103110000D01*
X173610580Y-104130000D02*
X173329420Y-104130000D01*
%TO.C,R8*%
X153712258Y-104327500D02*
X153237742Y-104327500D01*
X153712258Y-105372500D02*
X153237742Y-105372500D01*
%TO.C,R12*%
X173327500Y-87462742D02*
X173327500Y-87937258D01*
X174372500Y-87462742D02*
X174372500Y-87937258D01*
%TO.C,C1*%
X141140000Y-94359420D02*
X141140000Y-94640580D01*
X142160000Y-94359420D02*
X142160000Y-94640580D01*
%TO.C,D3*%
X165860000Y-94870000D02*
X165860000Y-98730000D01*
X167860000Y-94870000D02*
X165860000Y-94870000D01*
X167860000Y-94870000D02*
X167860000Y-98730000D01*
%TO.C,C18*%
X173620580Y-104620000D02*
X173339420Y-104620000D01*
X173620580Y-105640000D02*
X173339420Y-105640000D01*
%TO.C,RN1*%
X146780000Y-106025000D02*
X146780000Y-105225000D01*
X150220000Y-106025000D02*
X150220000Y-105225000D01*
%TO.C,C7*%
X151669420Y-83260000D02*
X151950580Y-83260000D01*
X151669420Y-84280000D02*
X151950580Y-84280000D01*
%TO.C,C10*%
X144895580Y-84150000D02*
X144614420Y-84150000D01*
X144895580Y-85170000D02*
X144614420Y-85170000D01*
D13*
%TO.C,H5*%
X137900000Y-79400000D02*
X137900000Y-81300000D01*
X137900000Y-86300000D02*
X137900000Y-83500000D01*
X137900000Y-91400000D02*
X137900000Y-88600000D01*
X137900000Y-96500000D02*
X137900000Y-93700000D01*
X137900000Y-98700000D02*
X137900000Y-100600000D01*
X137900000Y-100600000D02*
X139800000Y-100600000D01*
X139800000Y-79400000D02*
X137900000Y-79400000D01*
X142000000Y-79400000D02*
X144800000Y-79400000D01*
X144800000Y-100600000D02*
X142000000Y-100600000D01*
X147100000Y-79400000D02*
X149900000Y-79400000D01*
X149900000Y-100600000D02*
X147100000Y-100600000D01*
X152200000Y-79400000D02*
X155000000Y-79400000D01*
X155000000Y-100600000D02*
X152200000Y-100600000D01*
X157200000Y-79400000D02*
X159100000Y-79400000D01*
X157200000Y-100600000D02*
X159100000Y-100600000D01*
X159100000Y-79400000D02*
X159100000Y-81300000D01*
X159100000Y-83500000D02*
X159100000Y-86300000D01*
X159100000Y-88600000D02*
X159100000Y-91400000D01*
X159100000Y-93700000D02*
X159100000Y-96500000D01*
X159100000Y-100600000D02*
X159100000Y-98700000D01*
D12*
%TO.C,C13*%
X166690000Y-87809420D02*
X166690000Y-88090580D01*
X167710000Y-87809420D02*
X167710000Y-88090580D01*
%TO.C,D2*%
X164565000Y-112650000D02*
X164565000Y-114935000D01*
X164565000Y-114935000D02*
X166035000Y-114935000D01*
X166035000Y-114935000D02*
X166035000Y-112650000D01*
D13*
%TO.C,C14*%
X167150000Y-85975000D02*
X170950000Y-85975000D01*
X170350000Y-84425000D02*
X167150000Y-84425000D01*
D12*
%TO.C,U2*%
X168190000Y-88097018D02*
X168190000Y-87950000D01*
X168190000Y-90802982D02*
X168190000Y-90950000D01*
X171410000Y-88097018D02*
X171410000Y-87950000D01*
X171410000Y-90802982D02*
X171410000Y-90950000D01*
X168390000Y-91637500D02*
X168060000Y-91877500D01*
X168060000Y-91397500D01*
X168390000Y-91637500D01*
G36*
X168390000Y-91637500D02*
G01*
X168060000Y-91877500D01*
X168060000Y-91397500D01*
X168390000Y-91637500D01*
G37*
%TO.C,C8*%
X141695580Y-84150000D02*
X141414420Y-84150000D01*
X141695580Y-85170000D02*
X141414420Y-85170000D01*
%TO.C,C2*%
X142640000Y-94359420D02*
X142640000Y-94640580D01*
X143660000Y-94359420D02*
X143660000Y-94640580D01*
%TO.C,R18*%
X175207500Y-103107258D02*
X175207500Y-102632742D01*
X176252500Y-103107258D02*
X176252500Y-102632742D01*
%TO.C,C3*%
X142640000Y-91359420D02*
X142640000Y-91640580D01*
X143660000Y-91359420D02*
X143660000Y-91640580D01*
%TO.C,R10*%
X154019758Y-90687500D02*
X153545242Y-90687500D01*
X154019758Y-91732500D02*
X153545242Y-91732500D01*
%TO.C,C12*%
X156881920Y-89200000D02*
X157163080Y-89200000D01*
X156881920Y-90220000D02*
X157163080Y-90220000D01*
D17*
%TO.C,Y2*%
X157200000Y-92850000D02*
X155200000Y-92850000D01*
X157200000Y-97350000D02*
X155200000Y-97350000D01*
D13*
X156400000Y-98280000D02*
G75*
G02*
X156200000Y-98280000I-100000J0D01*
G01*
X156200000Y-98280000D02*
G75*
G02*
X156400000Y-98280000I100000J0D01*
G01*
D12*
%TO.C,C19*%
X169379420Y-96130000D02*
X169660580Y-96130000D01*
X169379420Y-97150000D02*
X169660580Y-97150000D01*
D13*
%TO.C,J3*%
X137300000Y-64400000D02*
X159700000Y-64400000D01*
X137300000Y-78600000D02*
X137300000Y-64400000D01*
X159700000Y-64400000D02*
X159700000Y-78600000D01*
X159700000Y-78600000D02*
X137300000Y-78600000D01*
D18*
X157300000Y-75000000D02*
G75*
G02*
X156900000Y-75000000I-200000J0D01*
G01*
X156900000Y-75000000D02*
G75*
G02*
X157300000Y-75000000I200000J0D01*
G01*
D12*
%TO.C,R3*%
X161627500Y-110662258D02*
X161627500Y-110187742D01*
X162672500Y-110662258D02*
X162672500Y-110187742D01*
%TO.C,C16*%
X166690000Y-91140580D02*
X166690000Y-90859420D01*
X167710000Y-91140580D02*
X167710000Y-90859420D01*
%TO.C,D4*%
X162990000Y-112650000D02*
X162990000Y-114935000D01*
X162990000Y-114935000D02*
X164460000Y-114935000D01*
X164460000Y-114935000D02*
X164460000Y-112650000D01*
%TD*%
%LPC*%
D19*
%TO.C,Y2*%
X155500000Y-93300000D02*
X156900000Y-93300000D01*
X156900000Y-93100000D01*
X157600000Y-93100000D01*
X157600000Y-94100000D01*
X156900000Y-94100000D01*
X156900000Y-93900000D01*
X155500000Y-93900000D01*
X155500000Y-94100000D01*
X154800000Y-94100000D01*
X154800000Y-93100000D01*
X155500000Y-93100000D01*
X155500000Y-93300000D01*
G36*
X155500000Y-93300000D02*
G01*
X156900000Y-93300000D01*
X156900000Y-93100000D01*
X157600000Y-93100000D01*
X157600000Y-94100000D01*
X156900000Y-94100000D01*
X156900000Y-93900000D01*
X155500000Y-93900000D01*
X155500000Y-94100000D01*
X154800000Y-94100000D01*
X154800000Y-93100000D01*
X155500000Y-93100000D01*
X155500000Y-93300000D01*
G37*
X155500000Y-94800000D02*
X156900000Y-94800000D01*
X156900000Y-94600000D01*
X157600000Y-94600000D01*
X157600000Y-95600000D01*
X156900000Y-95600000D01*
X156900000Y-95400000D01*
X155500000Y-95400000D01*
X155500000Y-95600000D01*
X154800000Y-95600000D01*
X154800000Y-94600000D01*
X155500000Y-94600000D01*
X155500000Y-94800000D01*
G36*
X155500000Y-94800000D02*
G01*
X156900000Y-94800000D01*
X156900000Y-94600000D01*
X157600000Y-94600000D01*
X157600000Y-95600000D01*
X156900000Y-95600000D01*
X156900000Y-95400000D01*
X155500000Y-95400000D01*
X155500000Y-95600000D01*
X154800000Y-95600000D01*
X154800000Y-94600000D01*
X155500000Y-94600000D01*
X155500000Y-94800000D01*
G37*
X155500000Y-96300000D02*
X156900000Y-96300000D01*
X156900000Y-96100000D01*
X157600000Y-96100000D01*
X157600000Y-97100000D01*
X156900000Y-97100000D01*
X156900000Y-96900000D01*
X155500000Y-96900000D01*
X155500000Y-97100000D01*
X154800000Y-97100000D01*
X154800000Y-96100000D01*
X155500000Y-96100000D01*
X155500000Y-96300000D01*
G36*
X155500000Y-96300000D02*
G01*
X156900000Y-96300000D01*
X156900000Y-96100000D01*
X157600000Y-96100000D01*
X157600000Y-97100000D01*
X156900000Y-97100000D01*
X156900000Y-96900000D01*
X155500000Y-96900000D01*
X155500000Y-97100000D01*
X154800000Y-97100000D01*
X154800000Y-96100000D01*
X155500000Y-96100000D01*
X155500000Y-96300000D01*
G37*
%TD*%
D20*
%TO.C,R2*%
X142300000Y-81575000D03*
X142300000Y-83225000D03*
%TD*%
D21*
%TO.C,C22*%
X168795000Y-103650000D03*
X170345000Y-103650000D03*
%TD*%
D20*
%TO.C,R11*%
X165300000Y-109600000D03*
X165300000Y-111250000D03*
%TD*%
D22*
%TO.C,L1*%
X164070000Y-105635000D03*
X164070000Y-101285000D03*
%TD*%
D20*
%TO.C,R1*%
X144010000Y-81575000D03*
X144010000Y-83225000D03*
%TD*%
D23*
%TO.C,IC2*%
X172170000Y-101140000D03*
X172170000Y-100640000D03*
X172170000Y-100140000D03*
X172170000Y-99640000D03*
X172170000Y-99140000D03*
X169370000Y-99140000D03*
X169370000Y-99640000D03*
X169370000Y-100140000D03*
X169370000Y-100640000D03*
X169370000Y-101140000D03*
D24*
X170770000Y-100140000D03*
D25*
X171020000Y-98690000D03*
X170520000Y-98690000D03*
X170520000Y-101590000D03*
X171020000Y-101590000D03*
%TD*%
D26*
%TO.C,C24*%
X153862500Y-92900000D03*
X153862500Y-94450000D03*
%TD*%
D27*
%TO.C,H3*%
X121100000Y-111500000D03*
X121802944Y-109802944D03*
X121802944Y-113197056D03*
X123500000Y-109100000D03*
D28*
X123500000Y-111500000D03*
D27*
X123500000Y-113900000D03*
X125197056Y-109802944D03*
X125197056Y-113197056D03*
X125900000Y-111500000D03*
%TD*%
D29*
%TO.C,C25*%
X153862500Y-97450000D03*
X153862500Y-95900000D03*
%TD*%
D21*
%TO.C,C9*%
X154235000Y-83770000D03*
X155785000Y-83770000D03*
%TD*%
D30*
%TO.C,Q1*%
X152832500Y-89530000D03*
X154732500Y-89530000D03*
X153782500Y-87255000D03*
%TD*%
D21*
%TO.C,C5*%
X152635000Y-85170000D03*
X154185000Y-85170000D03*
%TD*%
D31*
%TO.C,U1*%
X151400000Y-95075000D03*
X151400000Y-94425000D03*
X151400000Y-93775000D03*
X151400000Y-93125000D03*
X151400000Y-92475000D03*
X151400000Y-91825000D03*
X151400000Y-91175000D03*
X151400000Y-90525000D03*
X151400000Y-89875000D03*
X151400000Y-89225000D03*
X151400000Y-88575000D03*
X151400000Y-87925000D03*
X145600000Y-87925000D03*
X145600000Y-88575000D03*
X145600000Y-89225000D03*
X145600000Y-89875000D03*
X145600000Y-90525000D03*
X145600000Y-91175000D03*
X145600000Y-91825000D03*
X145600000Y-92475000D03*
X145600000Y-93125000D03*
X145600000Y-93775000D03*
X145600000Y-94425000D03*
X145600000Y-95075000D03*
%TD*%
D32*
%TO.C,R17*%
X175720000Y-100615000D03*
X175720000Y-98965000D03*
%TD*%
D27*
%TO.C,H2*%
X121100000Y-67750000D03*
X121802944Y-66052944D03*
X121802944Y-69447056D03*
X123500000Y-65350000D03*
D28*
X123500000Y-67750000D03*
D27*
X123500000Y-70150000D03*
X125197056Y-66052944D03*
X125197056Y-69447056D03*
X125900000Y-67750000D03*
%TD*%
D32*
%TO.C,R13*%
X172350000Y-88525000D03*
X172350000Y-86875000D03*
%TD*%
D33*
%TO.C,J1*%
X139500000Y-113375000D03*
D34*
X141100000Y-111375000D03*
D35*
X143600000Y-111375000D03*
X146100000Y-111375000D03*
X148600000Y-111375000D03*
X151100000Y-111375000D03*
X153600000Y-111375000D03*
X156100000Y-111375000D03*
%TD*%
D21*
%TO.C,C20*%
X168745000Y-95130000D03*
X170295000Y-95130000D03*
%TD*%
D32*
%TO.C,R16*%
X163725000Y-111250000D03*
X163725000Y-109600000D03*
%TD*%
D26*
%TO.C,C4*%
X141650000Y-90725000D03*
X141650000Y-92275000D03*
%TD*%
D27*
%TO.C,H4*%
X171100000Y-111500000D03*
X171802944Y-109802944D03*
X171802944Y-113197056D03*
X173500000Y-109100000D03*
D28*
X173500000Y-111500000D03*
D27*
X173500000Y-113900000D03*
X175197056Y-109802944D03*
X175197056Y-113197056D03*
X175900000Y-111500000D03*
%TD*%
D36*
%TO.C,R14*%
X168695000Y-93610000D03*
X170345000Y-93610000D03*
%TD*%
D26*
%TO.C,C15*%
X165650000Y-87175000D03*
X165650000Y-88725000D03*
%TD*%
D37*
%TO.C,R9*%
X173575000Y-85450000D03*
X171925000Y-85450000D03*
%TD*%
D21*
%TO.C,C26*%
X156247500Y-91210000D03*
X157797500Y-91210000D03*
%TD*%
D27*
%TO.C,H1*%
X171100000Y-68000000D03*
X171802944Y-66302944D03*
X171802944Y-69697056D03*
X173500000Y-65600000D03*
D28*
X173500000Y-68000000D03*
D27*
X173500000Y-70400000D03*
X175197056Y-66302944D03*
X175197056Y-69697056D03*
X175900000Y-68000000D03*
%TD*%
D38*
%TO.C,D1*%
X162150000Y-114237500D03*
X162150000Y-112662500D03*
%TD*%
D20*
%TO.C,R15*%
X174250000Y-98965000D03*
X174250000Y-100615000D03*
%TD*%
D39*
%TO.C,C6*%
X143930000Y-86160000D03*
X142380000Y-86160000D03*
%TD*%
D21*
%TO.C,C21*%
X168795000Y-105160000D03*
X170345000Y-105160000D03*
%TD*%
D32*
%TO.C,R6*%
X151250000Y-106425000D03*
X151250000Y-104775000D03*
%TD*%
D21*
%TO.C,C23*%
X156247500Y-86700000D03*
X157797500Y-86700000D03*
%TD*%
%TO.C,C11*%
X156247500Y-88210000D03*
X157797500Y-88210000D03*
%TD*%
D39*
%TO.C,C17*%
X174245000Y-103620000D03*
X172695000Y-103620000D03*
%TD*%
D37*
%TO.C,R8*%
X154300000Y-104850000D03*
X152650000Y-104850000D03*
%TD*%
D20*
%TO.C,R12*%
X173850000Y-86875000D03*
X173850000Y-88525000D03*
%TD*%
D26*
%TO.C,C1*%
X141650000Y-93725000D03*
X141650000Y-95275000D03*
%TD*%
D40*
%TO.C,D3*%
X166860000Y-95680000D03*
X166860000Y-98480000D03*
%TD*%
D39*
%TO.C,C18*%
X174255000Y-105130000D03*
X172705000Y-105130000D03*
%TD*%
D41*
%TO.C,RN1*%
X149700000Y-104775000D03*
X148900000Y-104775000D03*
X148100000Y-104775000D03*
X147300000Y-104775000D03*
X147300000Y-106475000D03*
X148100000Y-106475000D03*
X148900000Y-106475000D03*
X149700000Y-106475000D03*
%TD*%
D21*
%TO.C,C7*%
X151035000Y-83770000D03*
X152585000Y-83770000D03*
%TD*%
D39*
%TO.C,C10*%
X145530000Y-84660000D03*
X143980000Y-84660000D03*
%TD*%
D42*
%TO.C,H5*%
X158750000Y-82380000D03*
X158750000Y-87460000D03*
X158750000Y-92540000D03*
X158750000Y-97620000D03*
X156120000Y-100250000D03*
X151040000Y-100250000D03*
X145960000Y-100250000D03*
X140880000Y-100250000D03*
X138250000Y-97620000D03*
X138250000Y-92540000D03*
X138250000Y-87460000D03*
X138250000Y-82380000D03*
X140880000Y-79750000D03*
X145960000Y-79750000D03*
X151040000Y-79750000D03*
X156120000Y-79750000D03*
%TD*%
D26*
%TO.C,C13*%
X167200000Y-87175000D03*
X167200000Y-88725000D03*
%TD*%
D38*
%TO.C,D2*%
X165300000Y-114237500D03*
X165300000Y-112662500D03*
%TD*%
D43*
%TO.C,C14*%
X170100000Y-85200000D03*
X167400000Y-85200000D03*
%TD*%
D44*
%TO.C,U2*%
X169800000Y-89450000D03*
D45*
X168800000Y-91600000D03*
X169300000Y-91600000D03*
X169800000Y-91600000D03*
X170300000Y-91600000D03*
X170800000Y-91600000D03*
X170800000Y-87300000D03*
X170300000Y-87300000D03*
X169800000Y-87300000D03*
X169300000Y-87300000D03*
X168800000Y-87300000D03*
%TD*%
D39*
%TO.C,C8*%
X142330000Y-84660000D03*
X140780000Y-84660000D03*
%TD*%
D26*
%TO.C,C2*%
X143150000Y-93725000D03*
X143150000Y-95275000D03*
%TD*%
D32*
%TO.C,R18*%
X175730000Y-103695000D03*
X175730000Y-102045000D03*
%TD*%
D26*
%TO.C,C3*%
X143150000Y-90725000D03*
X143150000Y-92275000D03*
%TD*%
D37*
%TO.C,R10*%
X154607500Y-91210000D03*
X152957500Y-91210000D03*
%TD*%
D21*
%TO.C,C12*%
X156247500Y-89710000D03*
X157797500Y-89710000D03*
%TD*%
%TO.C,C19*%
X168745000Y-96640000D03*
X170295000Y-96640000D03*
%TD*%
D46*
%TO.C,J3*%
X155900000Y-73500000D03*
X150900000Y-73500000D03*
X145900000Y-73500000D03*
X140900000Y-73500000D03*
X155900000Y-68500000D03*
X150900000Y-68500000D03*
X145900000Y-68500000D03*
X140900000Y-68500000D03*
%TD*%
D32*
%TO.C,R3*%
X162150000Y-111250000D03*
X162150000Y-109600000D03*
%TD*%
D29*
%TO.C,C16*%
X167200000Y-91775000D03*
X167200000Y-90225000D03*
%TD*%
D38*
%TO.C,D4*%
X163725000Y-114237500D03*
X163725000Y-112662500D03*
%TD*%
%LPD*%
M02*
