%TF.GenerationSoftware,KiCad,Pcbnew,9.0.7+1*%
%TF.CreationDate,Date%
%TF.ProjectId,Cellule_de_force_V2,43656c6c-756c-4655-9f64-655f666f7263,+ (Unreleased)*%
%TF.SameCoordinates,Original*%
%TF.FileFunction,Paste,Top*%
%TF.FilePolarity,Positive*%
%FSLAX46Y46*%
G04 Gerber Fmt 4.6, Leading zero omitted, Abs format (unit mm)*
G04 Created by KiCad*
%MOMM*%
%LPD*%
G01*
G04 APERTURE LIST*
G04 Aperture macros list*
%AMRoundRect*
0 Rectangle with rounded corners*
0 $1 Rounding radius*
0 $2 $3 $4 $5 $6 $7 $8 $9 X,Y pos of 4 corners*
0 Add a 4 corners polygon primitive as box body*
4,1,4,$2,$3,$4,$5,$6,$7,$8,$9,$2,$3,0*
0 Add four circle primitives for the rounded corners*
1,1,$1+$1,$2,$3*
1,1,$1+$1,$4,$5*
1,1,$1+$1,$6,$7*
1,1,$1+$1,$8,$9*
0 Add four rect primitives between the rounded corners*
20,1,$1+$1,$2,$3,$4,$5,0*
20,1,$1+$1,$4,$5,$6,$7,0*
20,1,$1+$1,$6,$7,$8,$9,0*
20,1,$1+$1,$8,$9,$2,$3,0*%
G04 Aperture macros list end*
%ADD10RoundRect,0.225000X0.225000X0.250000X-0.225000X0.250000X-0.225000X-0.250000X0.225000X-0.250000X0*%
%ADD11RoundRect,0.218750X0.218750X0.256250X-0.218750X0.256250X-0.218750X-0.256250X0.218750X-0.256250X0*%
%ADD12RoundRect,0.225000X-0.225000X-0.250000X0.225000X-0.250000X0.225000X0.250000X-0.225000X0.250000X0*%
%ADD13RoundRect,0.185000X-0.185000X-0.195000X0.185000X-0.195000X0.185000X0.195000X-0.185000X0.195000X0*%
%ADD14RoundRect,0.075000X-0.650000X-0.075000X0.650000X-0.075000X0.650000X0.075000X-0.650000X0.075000X0*%
%ADD15RoundRect,0.225000X-0.250000X0.225000X-0.250000X-0.225000X0.250000X-0.225000X0.250000X0.225000X0*%
%ADD16RoundRect,0.200000X-0.200000X-0.275000X0.200000X-0.275000X0.200000X0.275000X-0.200000X0.275000X0*%
%ADD17RoundRect,0.225000X0.250000X-0.225000X0.250000X0.225000X-0.250000X0.225000X-0.250000X-0.225000X0*%
%ADD18RoundRect,0.200000X0.200000X0.275000X-0.200000X0.275000X-0.200000X-0.275000X0.200000X-0.275000X0*%
%ADD19RoundRect,0.200000X-0.275000X0.200000X-0.275000X-0.200000X0.275000X-0.200000X0.275000X0.200000X0*%
%ADD20RoundRect,0.250000X-0.300000X-0.300000X0.300000X-0.300000X0.300000X0.300000X-0.300000X0.300000X0*%
%ADD21R,2.400000X2.300000*%
%ADD22R,1.300000X1.700000*%
%ADD23R,0.240000X0.600000*%
%ADD24R,2.400000X1.650000*%
%ADD25R,0.500000X0.250000*%
%ADD26RoundRect,0.200000X0.275000X-0.200000X0.275000X0.200000X-0.275000X0.200000X-0.275000X-0.200000X0*%
%ADD27R,1.850000X1.900000*%
%ADD28R,0.450000X1.450000*%
G04 APERTURE END LIST*
D10*
%TO.C,C15*%
X151940000Y-110460000D03*
X150390000Y-110460000D03*
%TD*%
D11*
%TO.C,D2*%
X161275000Y-91300000D03*
X159700000Y-91300000D03*
%TD*%
D12*
%TO.C,C16*%
X147375000Y-111900000D03*
X148925000Y-111900000D03*
%TD*%
D13*
%TO.C,U2*%
X149290000Y-114030000D03*
X149290000Y-114970000D03*
X150210000Y-114030000D03*
X150210000Y-114970000D03*
D14*
X147600000Y-113500000D03*
X147600000Y-114000000D03*
X147600000Y-114500000D03*
X147600000Y-115000000D03*
X147600000Y-115500000D03*
X151900000Y-115500000D03*
X151900000Y-115000000D03*
X151900000Y-114500000D03*
X151900000Y-114000000D03*
X151900000Y-113500000D03*
%TD*%
D15*
%TO.C,C3*%
X153500000Y-85525000D03*
X153500000Y-87075000D03*
%TD*%
D10*
%TO.C,C5*%
X146175000Y-83800000D03*
X144625000Y-83800000D03*
%TD*%
D16*
%TO.C,R10*%
X156662500Y-89800000D03*
X158312500Y-89800000D03*
%TD*%
D10*
%TO.C,C13*%
X151940000Y-111970000D03*
X150390000Y-111970000D03*
%TD*%
D17*
%TO.C,C22*%
X151825000Y-131575000D03*
X151825000Y-130025000D03*
%TD*%
D10*
%TO.C,C9*%
X144575000Y-82300000D03*
X143025000Y-82300000D03*
%TD*%
D16*
%TO.C,R7*%
X138675000Y-86600000D03*
X140325000Y-86600000D03*
%TD*%
D17*
%TO.C,C19*%
X144100000Y-134400000D03*
X144100000Y-132850000D03*
%TD*%
D18*
%TO.C,R16*%
X158325000Y-105400000D03*
X156675000Y-105400000D03*
%TD*%
D16*
%TO.C,R3*%
X138675000Y-89200000D03*
X140325000Y-89200000D03*
%TD*%
D10*
%TO.C,C7*%
X147775000Y-82300000D03*
X146225000Y-82300000D03*
%TD*%
D17*
%TO.C,C4*%
X153500000Y-90075000D03*
X153500000Y-88525000D03*
%TD*%
D15*
%TO.C,C17*%
X151825000Y-127050000D03*
X151825000Y-128600000D03*
%TD*%
D12*
%TO.C,C11*%
X146025000Y-94700000D03*
X147575000Y-94700000D03*
%TD*%
D19*
%TO.C,R1*%
X152400000Y-79175000D03*
X152400000Y-80825000D03*
%TD*%
%TO.C,R8*%
X143300000Y-89175000D03*
X143300000Y-90825000D03*
%TD*%
D10*
%TO.C,C8*%
X150775000Y-82300000D03*
X149225000Y-82300000D03*
%TD*%
D15*
%TO.C,C18*%
X153325000Y-127050000D03*
X153325000Y-128600000D03*
%TD*%
D10*
%TO.C,C6*%
X152375000Y-83800000D03*
X150825000Y-83800000D03*
%TD*%
D16*
%TO.C,R4*%
X138675000Y-84000000D03*
X140325000Y-84000000D03*
%TD*%
D19*
%TO.C,R14*%
X145850000Y-113375000D03*
X145850000Y-115025000D03*
%TD*%
D12*
%TO.C,C2*%
X155125000Y-95900000D03*
X156675000Y-95900000D03*
%TD*%
D20*
%TO.C,D3*%
X142525000Y-136300000D03*
X145325000Y-136300000D03*
%TD*%
D17*
%TO.C,C20*%
X142600000Y-134400000D03*
X142600000Y-132850000D03*
%TD*%
D16*
%TO.C,R11*%
X156662500Y-91300000D03*
X158312500Y-91300000D03*
%TD*%
%TO.C,R6*%
X138675000Y-94100000D03*
X140325000Y-94100000D03*
%TD*%
D21*
%TO.C,Y1*%
X142720000Y-102000000D03*
X147800000Y-102000000D03*
X147800000Y-97600000D03*
X142720000Y-97600000D03*
%TD*%
D11*
%TO.C,D1*%
X161287500Y-89790000D03*
X159712500Y-89790000D03*
%TD*%
D10*
%TO.C,C10*%
X153975000Y-82300000D03*
X152425000Y-82300000D03*
%TD*%
D19*
%TO.C,R2*%
X150800000Y-79175000D03*
X150800000Y-80825000D03*
%TD*%
D12*
%TO.C,C1*%
X155125000Y-94400000D03*
X156675000Y-94400000D03*
%TD*%
D18*
%TO.C,R9*%
X155305000Y-115170000D03*
X153655000Y-115170000D03*
%TD*%
D16*
%TO.C,R5*%
X138650000Y-91700000D03*
X140300000Y-91700000D03*
%TD*%
D18*
%TO.C,R17*%
X148850000Y-124600000D03*
X147200000Y-124600000D03*
%TD*%
D22*
%TO.C,C14*%
X153990000Y-113320000D03*
X153990000Y-110620000D03*
%TD*%
D11*
%TO.C,D4*%
X161287500Y-105400000D03*
X159712500Y-105400000D03*
%TD*%
D16*
%TO.C,R15*%
X147200000Y-126100000D03*
X148850000Y-126100000D03*
%TD*%
D23*
%TO.C,IC2*%
X149325000Y-128200000D03*
X148825000Y-128200000D03*
X148325000Y-128200000D03*
X147825000Y-128200000D03*
X147325000Y-128200000D03*
X147325000Y-131000000D03*
X147825000Y-131000000D03*
X148325000Y-131000000D03*
X148825000Y-131000000D03*
X149325000Y-131000000D03*
D24*
X148325000Y-129600000D03*
D25*
X146875000Y-129350000D03*
X146875000Y-129850000D03*
X149775000Y-129850000D03*
X149775000Y-129350000D03*
%TD*%
D17*
%TO.C,C21*%
X153325000Y-131575000D03*
X153325000Y-130025000D03*
%TD*%
D26*
%TO.C,R13*%
X153750000Y-118250000D03*
X153750000Y-116600000D03*
%TD*%
D18*
%TO.C,R18*%
X151850000Y-125600000D03*
X150200000Y-125600000D03*
%TD*%
D27*
%TO.C,L1*%
X152475000Y-136300000D03*
X148125000Y-136300000D03*
%TD*%
D28*
%TO.C,U1*%
X144925000Y-92900000D03*
X145575000Y-92900000D03*
X146225000Y-92900000D03*
X146875000Y-92900000D03*
X147525000Y-92900000D03*
X148175000Y-92900000D03*
X148825000Y-92900000D03*
X149475000Y-92900000D03*
X150125000Y-92900000D03*
X150775000Y-92900000D03*
X151425000Y-92900000D03*
X152075000Y-92900000D03*
X152075000Y-87100000D03*
X151425000Y-87100000D03*
X150775000Y-87100000D03*
X150125000Y-87100000D03*
X149475000Y-87100000D03*
X148825000Y-87100000D03*
X148175000Y-87100000D03*
X147525000Y-87100000D03*
X146875000Y-87100000D03*
X146225000Y-87100000D03*
X145575000Y-87100000D03*
X144925000Y-87100000D03*
%TD*%
D19*
%TO.C,R12*%
X152250000Y-116575000D03*
X152250000Y-118225000D03*
%TD*%
D10*
%TO.C,C12*%
X144475000Y-94700000D03*
X142925000Y-94700000D03*
%TD*%
M02*
