M48
; DRILL file {KiCad 9.0.7+1} date 2026-03-16T18:10:52+0000
; FORMAT={-:-/ absolute / metric / decimal}
; #@! TF.CreationDate,2026-03-16T18:10:52+00:00
; #@! TF.GenerationSoftware,Kicad,Pcbnew,9.0.7+1
; #@! TF.FileFunction,Plated,1,3,Blind
FMAT,2
METRIC
; #@! TA.AperFunction,Plated,Buried,ViaDrill
T1C0.250
%
G90
G05
T1
X122.11Y-79.67
X122.11Y-80.42
X122.11Y-81.17
X122.86Y-79.67
X122.86Y-80.42
X122.86Y-81.17
X123.61Y-79.67
X123.61Y-80.42
X123.61Y-81.17
X132.33Y-83.62
X133.55Y-108.9
X139.625Y-92.275
X140.65Y-92.275
X149.7Y-84.95
X149.7Y-85.55
X150.3Y-84.95
X150.3Y-85.55
X150.9Y-84.95
X150.9Y-85.55
X151.5Y-84.95
X151.5Y-85.55
X156.2Y-84.95
X156.2Y-85.55
X156.25Y-92.25
X156.8Y-84.95
X156.8Y-85.55
X156.825Y-92.25
X157.4Y-84.95
X157.4Y-85.55
X157.4Y-92.25
X158.0Y-84.95
X158.0Y-85.55
M30
