%TF.GenerationSoftware,KiCad,Pcbnew,9.0.7+1*%
%TF.CreationDate,Date%
%TF.ProjectId,Cellule_de_force_V2,43656c6c-756c-4655-9f64-655f666f7263,+ (Unreleased)*%
%TF.SameCoordinates,Original*%
%TF.FileFunction,Soldermask,Bot*%
%TF.FilePolarity,Negative*%
%FSLAX46Y46*%
G04 Gerber Fmt 4.6, Leading zero omitted, Abs format (unit mm)*
G04 Created by KiCad*
%MOMM*%
%LPD*%
G01*
G04 APERTURE LIST*
G04 Aperture macros list*
%AMRoundRect*
0 Rectangle with rounded corners*
0 $1 Rounding radius*
0 $2 $3 $4 $5 $6 $7 $8 $9 X,Y pos of 4 corners*
0 Add a 4 corners polygon primitive as box body*
4,1,4,$2,$3,$4,$5,$6,$7,$8,$9,$2,$3,0*
0 Add four circle primitives for the rounded corners*
1,1,$1+$1,$2,$3*
1,1,$1+$1,$4,$5*
1,1,$1+$1,$6,$7*
1,1,$1+$1,$8,$9*
0 Add four rect primitives between the rounded corners*
20,1,$1+$1,$2,$3,$4,$5,0*
20,1,$1+$1,$4,$5,$6,$7,0*
20,1,$1+$1,$6,$7,$8,$9,0*
20,1,$1+$1,$8,$9,$2,$3,0*%
G04 Aperture macros list end*
%ADD10C,0.900000*%
%ADD11C,6.500000*%
%ADD12C,1.300000*%
%ADD13RoundRect,0.264706X-0.635294X-0.760294X0.635294X-0.760294X0.635294X0.760294X-0.635294X0.760294X0*%
%ADD14O,1.800000X2.050000*%
%ADD15C,1.704000*%
%ADD16C,2.004000*%
%ADD17C,1.600000*%
G04 APERTURE END LIST*
D10*
%TO.C,H3*%
X121100000Y-111500000D03*
X121802944Y-109802944D03*
X121802944Y-113197056D03*
X123500000Y-109100000D03*
D11*
X123500000Y-111500000D03*
D10*
X123500000Y-113900000D03*
X125197056Y-109802944D03*
X125197056Y-113197056D03*
X125900000Y-111500000D03*
%TD*%
%TO.C,H2*%
X121100000Y-67750000D03*
X121802944Y-66052944D03*
X121802944Y-69447056D03*
X123500000Y-65350000D03*
D11*
X123500000Y-67750000D03*
D10*
X123500000Y-70150000D03*
X125197056Y-66052944D03*
X125197056Y-69447056D03*
X125900000Y-67750000D03*
%TD*%
D12*
%TO.C,J1*%
X139500000Y-113375000D03*
D13*
X141100000Y-111375000D03*
D14*
X143600000Y-111375000D03*
X146100000Y-111375000D03*
X148600000Y-111375000D03*
X151100000Y-111375000D03*
X153600000Y-111375000D03*
X156100000Y-111375000D03*
%TD*%
D10*
%TO.C,H4*%
X171100000Y-111500000D03*
X171802944Y-109802944D03*
X171802944Y-113197056D03*
X173500000Y-109100000D03*
D11*
X173500000Y-111500000D03*
D10*
X173500000Y-113900000D03*
X175197056Y-109802944D03*
X175197056Y-113197056D03*
X175900000Y-111500000D03*
%TD*%
%TO.C,H1*%
X171100000Y-68000000D03*
X171802944Y-66302944D03*
X171802944Y-69697056D03*
X173500000Y-65600000D03*
D11*
X173500000Y-68000000D03*
D10*
X173500000Y-70400000D03*
X175197056Y-66302944D03*
X175197056Y-69697056D03*
X175900000Y-68000000D03*
%TD*%
D15*
%TO.C,H5*%
X158750000Y-82380000D03*
X158750000Y-87460000D03*
X158750000Y-92540000D03*
X158750000Y-97620000D03*
X156120000Y-100250000D03*
X151040000Y-100250000D03*
X145960000Y-100250000D03*
X140880000Y-100250000D03*
X138250000Y-97620000D03*
X138250000Y-92540000D03*
X138250000Y-87460000D03*
X138250000Y-82380000D03*
X140880000Y-79750000D03*
X145960000Y-79750000D03*
X151040000Y-79750000D03*
X156120000Y-79750000D03*
%TD*%
D16*
%TO.C,J3*%
X155900000Y-73500000D03*
X150900000Y-73500000D03*
X145900000Y-73500000D03*
X140900000Y-73500000D03*
X155900000Y-68500000D03*
X150900000Y-68500000D03*
X145900000Y-68500000D03*
X140900000Y-68500000D03*
%TD*%
D17*
%TO.C,TP15*%
X130860000Y-97900000D03*
%TD*%
%TO.C,TP2*%
X151641419Y-95700000D03*
%TD*%
%TO.C,TP16*%
X133020000Y-94390000D03*
%TD*%
%TO.C,TP14*%
X129530000Y-91530000D03*
%TD*%
%TO.C,TP18*%
X155470000Y-91050000D03*
%TD*%
M02*
