%TF.GenerationSoftware,KiCad,Pcbnew,9.0.7+1*%
%TF.CreationDate,Date%
%TF.ProjectId,Cellule_de_force_V2,43656c6c-756c-4655-9f64-655f666f7263,+ (Unreleased)*%
%TF.SameCoordinates,Original*%
%TF.FileFunction,Soldermask,Bot*%
%TF.FilePolarity,Negative*%
%FSLAX46Y46*%
G04 Gerber Fmt 4.6, Leading zero omitted, Abs format (unit mm)*
G04 Created by KiCad*
%MOMM*%
%LPD*%
G01*
G04 APERTURE LIST*
G04 Aperture macros list*
%AMRoundRect*
0 Rectangle with rounded corners*
0 $1 Rounding radius*
0 $2 $3 $4 $5 $6 $7 $8 $9 X,Y pos of 4 corners*
0 Add a 4 corners polygon primitive as box body*
4,1,4,$2,$3,$4,$5,$6,$7,$8,$9,$2,$3,0*
0 Add four circle primitives for the rounded corners*
1,1,$1+$1,$2,$3*
1,1,$1+$1,$4,$5*
1,1,$1+$1,$6,$7*
1,1,$1+$1,$8,$9*
0 Add four rect primitives between the rounded corners*
20,1,$1+$1,$2,$3,$4,$5,0*
20,1,$1+$1,$4,$5,$6,$7,0*
20,1,$1+$1,$6,$7,$8,$9,0*
20,1,$1+$1,$8,$9,$2,$3,0*%
G04 Aperture macros list end*
%ADD10C,0.900000*%
%ADD11C,6.500000*%
%ADD12RoundRect,0.050000X0.850000X0.850000X-0.850000X0.850000X-0.850000X-0.850000X0.850000X-0.850000X0*%
%ADD13C,1.800000*%
%ADD14RoundRect,0.050000X-0.850000X-0.850000X0.850000X-0.850000X0.850000X0.850000X-0.850000X0.850000X0*%
%ADD15RoundRect,0.050000X0.850000X-0.850000X0.850000X0.850000X-0.850000X0.850000X-0.850000X-0.850000X0*%
G04 APERTURE END LIST*
D10*
%TO.C,H4*%
X156100000Y-139900000D03*
X156802944Y-138202944D03*
X156802944Y-141597056D03*
X158500000Y-137500000D03*
D11*
X158500000Y-139900000D03*
D10*
X158500000Y-142300000D03*
X160197056Y-138202944D03*
X160197056Y-141597056D03*
X160900000Y-139900000D03*
%TD*%
D12*
%TO.C,J2*%
X140100000Y-121175000D03*
D13*
X140100000Y-118635000D03*
%TD*%
D14*
%TO.C,J4*%
X158900000Y-98625000D03*
D13*
X158900000Y-101165000D03*
%TD*%
D14*
%TO.C,J3*%
X155300000Y-98600000D03*
D13*
X155300000Y-101140000D03*
%TD*%
D12*
%TO.C,J1*%
X160200000Y-129840000D03*
D13*
X160200000Y-127300000D03*
%TD*%
D10*
%TO.C,H3*%
X136200000Y-139900000D03*
X136902944Y-138202944D03*
X136902944Y-141597056D03*
X138600000Y-137500000D03*
D11*
X138600000Y-139900000D03*
D10*
X138600000Y-142300000D03*
X140297056Y-138202944D03*
X140297056Y-141597056D03*
X141000000Y-139900000D03*
%TD*%
D15*
%TO.C,J5*%
X144720000Y-76600000D03*
D13*
X147260000Y-76600000D03*
X149800000Y-76600000D03*
X152340000Y-76600000D03*
%TD*%
D14*
%TO.C,J6*%
X136200000Y-84040000D03*
D13*
X136200000Y-86580000D03*
X136200000Y-89120000D03*
X136200000Y-91660000D03*
X136200000Y-94200000D03*
%TD*%
D10*
%TO.C,H1*%
X156100000Y-78800000D03*
X156802944Y-77102944D03*
X156802944Y-80497056D03*
X158500000Y-76400000D03*
D11*
X158500000Y-78800000D03*
D10*
X158500000Y-81200000D03*
X160197056Y-77102944D03*
X160197056Y-80497056D03*
X160900000Y-78800000D03*
%TD*%
%TO.C,H2*%
X136200000Y-78800000D03*
X136902944Y-77102944D03*
X136902944Y-80497056D03*
X138600000Y-76400000D03*
D11*
X138600000Y-78800000D03*
D10*
X138600000Y-81200000D03*
X140297056Y-77102944D03*
X140297056Y-80497056D03*
X141000000Y-78800000D03*
%TD*%
M02*
