%TF.GenerationSoftware,KiCad,Pcbnew,9.0.7+1*%
%TF.CreationDate,Date%
%TF.ProjectId,Cellule_de_force_V2,43656c6c-756c-4655-9f64-655f666f7263,+ (Unreleased)*%
%TF.SameCoordinates,Original*%
%TF.FileFunction,Copper,L4,Bot*%
%TF.FilePolarity,Positive*%
%FSLAX46Y46*%
G04 Gerber Fmt 4.6, Leading zero omitted, Abs format (unit mm)*
G04 Created by KiCad*
%MOMM*%
%LPD*%
G01*
G04 APERTURE LIST*
G04 Aperture macros list*
%AMRoundRect*
0 Rectangle with rounded corners*
0 $1 Rounding radius*
0 $2 $3 $4 $5 $6 $7 $8 $9 X,Y pos of 4 corners*
0 Add a 4 corners polygon primitive as box body*
4,1,4,$2,$3,$4,$5,$6,$7,$8,$9,$2,$3,0*
0 Add four circle primitives for the rounded corners*
1,1,$1+$1,$2,$3*
1,1,$1+$1,$4,$5*
1,1,$1+$1,$6,$7*
1,1,$1+$1,$8,$9*
0 Add four rect primitives between the rounded corners*
20,1,$1+$1,$2,$3,$4,$5,0*
20,1,$1+$1,$4,$5,$6,$7,0*
20,1,$1+$1,$6,$7,$8,$9,0*
20,1,$1+$1,$8,$9,$2,$3,0*%
G04 Aperture macros list end*
%TA.AperFunction,ComponentPad*%
%ADD10C,0.800000*%
%TD*%
%TA.AperFunction,ComponentPad*%
%ADD11C,6.400000*%
%TD*%
%TA.AperFunction,ComponentPad*%
%ADD12RoundRect,0.250000X-0.600000X-0.725000X0.600000X-0.725000X0.600000X0.725000X-0.600000X0.725000X0*%
%TD*%
%TA.AperFunction,ComponentPad*%
%ADD13O,1.700000X1.950000*%
%TD*%
%TA.AperFunction,ComponentPad*%
%ADD14C,1.500000*%
%TD*%
%TA.AperFunction,HeatsinkPad*%
%ADD15C,0.500000*%
%TD*%
%TA.AperFunction,HeatsinkPad*%
%ADD16R,3.100000X1.800000*%
%TD*%
%TA.AperFunction,ComponentPad*%
%ADD17C,1.800000*%
%TD*%
%TA.AperFunction,ViaPad*%
%ADD18C,0.550000*%
%TD*%
%TA.AperFunction,Conductor*%
%ADD19C,0.250000*%
%TD*%
%TA.AperFunction,Conductor*%
%ADD20C,0.800000*%
%TD*%
%TA.AperFunction,Conductor*%
%ADD21C,1.000000*%
%TD*%
%TA.AperFunction,Conductor*%
%ADD22C,0.500000*%
%TD*%
G04 APERTURE END LIST*
D10*
%TO.P,H3,1,1*%
%TO.N,GND*%
X121100000Y-111500000D03*
X121802944Y-109802944D03*
X121802944Y-113197056D03*
X123500000Y-109100000D03*
D11*
X123500000Y-111500000D03*
D10*
X123500000Y-113900000D03*
X125197056Y-109802944D03*
X125197056Y-113197056D03*
X125900000Y-111500000D03*
%TD*%
%TO.P,H2,1,1*%
%TO.N,GND*%
X121100000Y-67750000D03*
X121802944Y-66052944D03*
X121802944Y-69447056D03*
X123500000Y-65350000D03*
D11*
X123500000Y-67750000D03*
D10*
X123500000Y-70150000D03*
X125197056Y-66052944D03*
X125197056Y-69447056D03*
X125900000Y-67750000D03*
%TD*%
D12*
%TO.P,J1,1,Pin_1*%
%TO.N,GND*%
X141100000Y-111375000D03*
D13*
%TO.P,J1,2,Pin_2*%
%TO.N,DOUT*%
X143600000Y-111375000D03*
%TO.P,J1,3,Pin_3*%
%TO.N,SCLK*%
X146100000Y-111375000D03*
%TO.P,J1,4,Pin_4*%
%TO.N,DIN*%
X148600000Y-111375000D03*
%TO.P,J1,5,Pin_5*%
%TO.N,SYNC*%
X151100000Y-111375000D03*
%TO.P,J1,6,Pin_6*%
%TO.N,CS*%
X153600000Y-111375000D03*
%TO.P,J1,7,Pin_7*%
%TO.N,+3.3V*%
X156100000Y-111375000D03*
%TD*%
D10*
%TO.P,H4,1,1*%
%TO.N,GND*%
X171100000Y-111500000D03*
X171802944Y-109802944D03*
X171802944Y-113197056D03*
X173500000Y-109100000D03*
D11*
X173500000Y-111500000D03*
D10*
X173500000Y-113900000D03*
X175197056Y-109802944D03*
X175197056Y-113197056D03*
X175900000Y-111500000D03*
%TD*%
%TO.P,H1,1,1*%
%TO.N,GND*%
X171100000Y-68000000D03*
X171802944Y-66302944D03*
X171802944Y-69697056D03*
X173500000Y-65600000D03*
D11*
X173500000Y-68000000D03*
D10*
X173500000Y-70400000D03*
X175197056Y-66302944D03*
X175197056Y-69697056D03*
X175900000Y-68000000D03*
%TD*%
D14*
%TO.P,H5,1*%
%TO.N,GND*%
X158750000Y-82380000D03*
%TO.P,H5,2*%
X158750000Y-87460000D03*
%TO.P,H5,3*%
X158750000Y-92540000D03*
%TO.P,H5,4*%
X158750000Y-97620000D03*
%TO.P,H5,5*%
X156120000Y-100250000D03*
%TO.P,H5,6*%
X151040000Y-100250000D03*
%TO.P,H5,7*%
X145960000Y-100250000D03*
%TO.P,H5,9*%
X140880000Y-100250000D03*
%TO.P,H5,10*%
X138250000Y-97620000D03*
%TO.P,H5,11*%
X138250000Y-92540000D03*
%TO.P,H5,12*%
X138250000Y-87460000D03*
%TO.P,H5,13*%
X138250000Y-82380000D03*
%TO.P,H5,14*%
X140880000Y-79750000D03*
%TO.P,H5,15*%
X145960000Y-79750000D03*
%TO.P,H5,16*%
X151040000Y-79750000D03*
%TO.P,H5,17*%
X156120000Y-79750000D03*
%TD*%
D15*
%TO.P,U2,11,GND*%
%TO.N,GND*%
X168500000Y-90100000D03*
X169800000Y-90100000D03*
X171100000Y-90100000D03*
D16*
X169800000Y-89450000D03*
D15*
X168500000Y-88800000D03*
X169800000Y-88800000D03*
X171100000Y-88800000D03*
%TD*%
D17*
%TO.P,J3,1*%
%TO.N,SENSE-*%
X155900000Y-73500000D03*
%TO.P,J3,2*%
%TO.N,SENSE+*%
X150900000Y-73500000D03*
%TO.P,J3,3*%
%TO.N,IN-OUT+*%
X145900000Y-73500000D03*
%TO.P,J3,4*%
%TO.N,IN-OUT-*%
X140900000Y-73500000D03*
%TO.P,J3,A1*%
%TO.N,IN-SENSE-*%
X155900000Y-68500000D03*
%TO.P,J3,A2*%
%TO.N,IN-SENSE+*%
X150900000Y-68500000D03*
%TO.P,J3,A3*%
%TO.N,IN-OUT+*%
X145900000Y-68500000D03*
%TO.P,J3,A4*%
%TO.N,IN-OUT-*%
X140900000Y-68500000D03*
%TD*%
D18*
%TO.N,GND*%
X143150000Y-90020000D03*
X156490000Y-83770000D03*
X150330000Y-83770000D03*
X141650000Y-90020000D03*
X147000000Y-91825000D03*
X140075000Y-84660000D03*
X154525000Y-95150000D03*
X146235000Y-84660000D03*
X141650000Y-95980000D03*
X143150000Y-95980000D03*
X150100000Y-89875000D03*
X147035000Y-91175000D03*
%TO.N,Net-(U1-~{CS})*%
X151250000Y-103725000D03*
X149575735Y-103250735D03*
%TO.N,Net-(U1-P2)*%
X149150000Y-102300000D03*
X165300000Y-108700000D03*
%TO.N,Net-(IC2-SS)*%
X175260000Y-105120000D03*
X169370000Y-101760000D03*
%TO.N,+3.3V*%
X139600000Y-93750000D03*
X140650000Y-93725000D03*
X173050000Y-99990000D03*
%TO.N,+6V*%
X168190000Y-96640000D03*
X175700000Y-98300000D03*
%TD*%
D19*
%TO.N,Net-(U1-~{CS})*%
X150775735Y-103250735D02*
X151250000Y-103725000D01*
X149575735Y-103250735D02*
X150775735Y-103250735D01*
%TO.N,Net-(U1-P2)*%
X149150000Y-102300000D02*
X160800000Y-102300000D01*
X160800000Y-102300000D02*
X165300000Y-106800000D01*
X165300000Y-106800000D02*
X165300000Y-108700000D01*
D20*
%TO.N,+3.3V*%
X139625000Y-93725000D02*
X139600000Y-93750000D01*
D21*
X145475000Y-93725000D02*
X140650000Y-93725000D01*
X152350000Y-105900000D02*
X150000000Y-105900000D01*
X147900000Y-103800000D02*
X147900000Y-96150000D01*
X156100000Y-109650000D02*
X152350000Y-105900000D01*
X156100000Y-111375000D02*
X156100000Y-109650000D01*
X140650000Y-93725000D02*
X139625000Y-93725000D01*
X147900000Y-96150000D02*
X145475000Y-93725000D01*
X150000000Y-105900000D02*
X147900000Y-103800000D01*
D22*
%TO.N,+6V*%
X168190000Y-96640000D02*
X168280000Y-96550000D01*
X173950000Y-96550000D02*
X175700000Y-98300000D01*
X168280000Y-96550000D02*
X173950000Y-96550000D01*
%TD*%
%TA.AperFunction,Conductor*%
%TO.N,GND*%
G36*
X148436512Y-64650122D02*
G01*
X148437767Y-64650253D01*
X148449168Y-64650298D01*
X148449170Y-64650299D01*
X148499130Y-64650498D01*
X148548324Y-64650794D01*
X148548563Y-64650696D01*
X173444234Y-64750278D01*
X173446707Y-64750500D01*
X173455830Y-64750500D01*
X173496770Y-64750500D01*
X173503260Y-64750670D01*
X173833178Y-64767961D01*
X173846086Y-64769318D01*
X174169191Y-64820492D01*
X174181874Y-64823187D01*
X174497881Y-64907861D01*
X174510219Y-64911871D01*
X174815627Y-65029106D01*
X174827470Y-65034378D01*
X175118977Y-65182908D01*
X175130183Y-65189378D01*
X175404565Y-65367564D01*
X175415055Y-65375186D01*
X175669293Y-65581064D01*
X175678938Y-65589749D01*
X175910250Y-65821061D01*
X175918935Y-65830706D01*
X176124813Y-66084944D01*
X176132438Y-66095438D01*
X176310617Y-66369810D01*
X176317098Y-66381035D01*
X176465616Y-66672519D01*
X176470895Y-66684377D01*
X176588128Y-66989781D01*
X176592139Y-67002124D01*
X176676810Y-67318119D01*
X176679508Y-67330815D01*
X176730681Y-67653913D01*
X176732038Y-67666821D01*
X176749330Y-67996756D01*
X176749500Y-68003246D01*
X176749500Y-111496753D01*
X176749330Y-111503243D01*
X176732038Y-111833178D01*
X176730681Y-111846086D01*
X176679508Y-112169184D01*
X176676810Y-112181880D01*
X176592139Y-112497875D01*
X176588128Y-112510218D01*
X176470895Y-112815622D01*
X176465616Y-112827480D01*
X176317098Y-113118964D01*
X176310612Y-113130197D01*
X176303266Y-113141510D01*
X176132442Y-113404555D01*
X176124813Y-113415055D01*
X175918935Y-113669293D01*
X175910250Y-113678938D01*
X175678938Y-113910250D01*
X175669293Y-113918935D01*
X175415055Y-114124813D01*
X175404555Y-114132442D01*
X175385621Y-114144738D01*
X175130197Y-114310612D01*
X175118964Y-114317098D01*
X174827480Y-114465616D01*
X174815622Y-114470895D01*
X174510218Y-114588128D01*
X174497875Y-114592139D01*
X174181880Y-114676810D01*
X174169184Y-114679508D01*
X173846086Y-114730681D01*
X173833178Y-114732038D01*
X173503244Y-114749330D01*
X173496754Y-114749500D01*
X123503246Y-114749500D01*
X123496756Y-114749330D01*
X123166821Y-114732038D01*
X123153913Y-114730681D01*
X122830815Y-114679508D01*
X122818119Y-114676810D01*
X122502124Y-114592139D01*
X122489781Y-114588128D01*
X122184377Y-114470895D01*
X122172519Y-114465616D01*
X121881029Y-114317094D01*
X121869810Y-114310617D01*
X121595438Y-114132438D01*
X121584944Y-114124813D01*
X121330706Y-113918935D01*
X121321061Y-113910250D01*
X121089749Y-113678938D01*
X121081064Y-113669293D01*
X120875186Y-113415055D01*
X120867564Y-113404565D01*
X120797160Y-113296153D01*
X138699500Y-113296153D01*
X138699500Y-113453846D01*
X138730261Y-113608489D01*
X138730264Y-113608501D01*
X138790602Y-113754172D01*
X138790609Y-113754185D01*
X138878210Y-113885288D01*
X138878213Y-113885292D01*
X138989707Y-113996786D01*
X138989711Y-113996789D01*
X139120814Y-114084390D01*
X139120827Y-114084397D01*
X139228271Y-114128901D01*
X139266503Y-114144737D01*
X139421153Y-114175499D01*
X139421156Y-114175500D01*
X139421158Y-114175500D01*
X139578844Y-114175500D01*
X139578845Y-114175499D01*
X139733497Y-114144737D01*
X139879179Y-114084394D01*
X140010289Y-113996789D01*
X140121789Y-113885289D01*
X140209394Y-113754179D01*
X140269737Y-113608497D01*
X140300500Y-113453842D01*
X140300500Y-113296158D01*
X140300500Y-113296155D01*
X140300499Y-113296153D01*
X140269738Y-113141510D01*
X140269737Y-113141503D01*
X140260401Y-113118964D01*
X140215189Y-113009810D01*
X140207720Y-112940341D01*
X140238996Y-112877862D01*
X140299085Y-112842210D01*
X140342353Y-112839000D01*
X140450020Y-112849999D01*
X140849999Y-112849999D01*
X140850000Y-112849998D01*
X140850000Y-111779145D01*
X140916657Y-111817630D01*
X141037465Y-111850000D01*
X141162535Y-111850000D01*
X141283343Y-111817630D01*
X141350000Y-111779145D01*
X141350000Y-112849999D01*
X141749972Y-112849999D01*
X141749986Y-112849998D01*
X141852697Y-112839505D01*
X142019119Y-112784358D01*
X142019124Y-112784356D01*
X142168345Y-112692315D01*
X142292315Y-112568345D01*
X142384356Y-112419124D01*
X142384358Y-112419119D01*
X142439505Y-112252697D01*
X142439506Y-112252690D01*
X142449999Y-112149986D01*
X142449999Y-112078528D01*
X142469683Y-112011488D01*
X142522486Y-111965732D01*
X142591644Y-111955788D01*
X142655200Y-111984812D01*
X142677101Y-112009635D01*
X142784022Y-112169655D01*
X142930342Y-112315975D01*
X142930345Y-112315977D01*
X143102402Y-112430941D01*
X143293580Y-112510130D01*
X143496530Y-112550499D01*
X143496534Y-112550500D01*
X143496535Y-112550500D01*
X143703466Y-112550500D01*
X143703467Y-112550499D01*
X143906420Y-112510130D01*
X144097598Y-112430941D01*
X144269655Y-112315977D01*
X144415977Y-112169655D01*
X144530941Y-111997598D01*
X144610130Y-111806420D01*
X144650500Y-111603465D01*
X144650500Y-111146535D01*
X144650499Y-111146530D01*
X145049500Y-111146530D01*
X145049500Y-111603469D01*
X145089868Y-111806412D01*
X145089870Y-111806420D01*
X145169058Y-111997596D01*
X145284024Y-112169657D01*
X145430342Y-112315975D01*
X145430345Y-112315977D01*
X145602402Y-112430941D01*
X145793580Y-112510130D01*
X145996530Y-112550499D01*
X145996534Y-112550500D01*
X145996535Y-112550500D01*
X146203466Y-112550500D01*
X146203467Y-112550499D01*
X146406420Y-112510130D01*
X146597598Y-112430941D01*
X146769655Y-112315977D01*
X146915977Y-112169655D01*
X147030941Y-111997598D01*
X147110130Y-111806420D01*
X147150500Y-111603465D01*
X147150500Y-111146535D01*
X147150499Y-111146530D01*
X147549500Y-111146530D01*
X147549500Y-111603469D01*
X147589868Y-111806412D01*
X147589870Y-111806420D01*
X147669058Y-111997596D01*
X147784024Y-112169657D01*
X147930342Y-112315975D01*
X147930345Y-112315977D01*
X148102402Y-112430941D01*
X148293580Y-112510130D01*
X148496530Y-112550499D01*
X148496534Y-112550500D01*
X148496535Y-112550500D01*
X148703466Y-112550500D01*
X148703467Y-112550499D01*
X148906420Y-112510130D01*
X149097598Y-112430941D01*
X149269655Y-112315977D01*
X149415977Y-112169655D01*
X149530941Y-111997598D01*
X149610130Y-111806420D01*
X149650500Y-111603465D01*
X149650500Y-111146535D01*
X149650499Y-111146530D01*
X150049500Y-111146530D01*
X150049500Y-111603469D01*
X150089868Y-111806412D01*
X150089870Y-111806420D01*
X150169058Y-111997596D01*
X150284024Y-112169657D01*
X150430342Y-112315975D01*
X150430345Y-112315977D01*
X150602402Y-112430941D01*
X150793580Y-112510130D01*
X150996530Y-112550499D01*
X150996534Y-112550500D01*
X150996535Y-112550500D01*
X151203466Y-112550500D01*
X151203467Y-112550499D01*
X151406420Y-112510130D01*
X151597598Y-112430941D01*
X151769655Y-112315977D01*
X151915977Y-112169655D01*
X152030941Y-111997598D01*
X152110130Y-111806420D01*
X152150500Y-111603465D01*
X152150500Y-111146535D01*
X152150499Y-111146530D01*
X152549500Y-111146530D01*
X152549500Y-111603469D01*
X152589868Y-111806412D01*
X152589870Y-111806420D01*
X152669058Y-111997596D01*
X152784024Y-112169657D01*
X152930342Y-112315975D01*
X152930345Y-112315977D01*
X153102402Y-112430941D01*
X153293580Y-112510130D01*
X153496530Y-112550499D01*
X153496534Y-112550500D01*
X153496535Y-112550500D01*
X153703466Y-112550500D01*
X153703467Y-112550499D01*
X153906420Y-112510130D01*
X154097598Y-112430941D01*
X154269655Y-112315977D01*
X154415977Y-112169655D01*
X154530941Y-111997598D01*
X154610130Y-111806420D01*
X154650500Y-111603465D01*
X154650500Y-111146535D01*
X154610130Y-110943580D01*
X154530941Y-110752402D01*
X154415977Y-110580345D01*
X154415975Y-110580342D01*
X154269657Y-110434024D01*
X154183626Y-110376541D01*
X154097598Y-110319059D01*
X153906420Y-110239870D01*
X153906412Y-110239868D01*
X153703469Y-110199500D01*
X153703465Y-110199500D01*
X153496535Y-110199500D01*
X153496530Y-110199500D01*
X153293587Y-110239868D01*
X153293579Y-110239870D01*
X153102403Y-110319058D01*
X152930342Y-110434024D01*
X152784024Y-110580342D01*
X152669058Y-110752403D01*
X152589870Y-110943579D01*
X152589868Y-110943587D01*
X152549500Y-111146530D01*
X152150499Y-111146530D01*
X152110130Y-110943580D01*
X152030941Y-110752402D01*
X151915977Y-110580345D01*
X151915975Y-110580342D01*
X151769657Y-110434024D01*
X151683626Y-110376541D01*
X151597598Y-110319059D01*
X151406420Y-110239870D01*
X151406412Y-110239868D01*
X151203469Y-110199500D01*
X151203465Y-110199500D01*
X150996535Y-110199500D01*
X150996530Y-110199500D01*
X150793587Y-110239868D01*
X150793579Y-110239870D01*
X150602403Y-110319058D01*
X150430342Y-110434024D01*
X150284024Y-110580342D01*
X150169058Y-110752403D01*
X150089870Y-110943579D01*
X150089868Y-110943587D01*
X150049500Y-111146530D01*
X149650499Y-111146530D01*
X149610130Y-110943580D01*
X149530941Y-110752402D01*
X149415977Y-110580345D01*
X149415975Y-110580342D01*
X149269657Y-110434024D01*
X149183626Y-110376541D01*
X149097598Y-110319059D01*
X148906420Y-110239870D01*
X148906412Y-110239868D01*
X148703469Y-110199500D01*
X148703465Y-110199500D01*
X148496535Y-110199500D01*
X148496530Y-110199500D01*
X148293587Y-110239868D01*
X148293579Y-110239870D01*
X148102403Y-110319058D01*
X147930342Y-110434024D01*
X147784024Y-110580342D01*
X147669058Y-110752403D01*
X147589870Y-110943579D01*
X147589868Y-110943587D01*
X147549500Y-111146530D01*
X147150499Y-111146530D01*
X147110130Y-110943580D01*
X147030941Y-110752402D01*
X146915977Y-110580345D01*
X146915975Y-110580342D01*
X146769657Y-110434024D01*
X146683626Y-110376541D01*
X146597598Y-110319059D01*
X146406420Y-110239870D01*
X146406412Y-110239868D01*
X146203469Y-110199500D01*
X146203465Y-110199500D01*
X145996535Y-110199500D01*
X145996530Y-110199500D01*
X145793587Y-110239868D01*
X145793579Y-110239870D01*
X145602403Y-110319058D01*
X145430342Y-110434024D01*
X145284024Y-110580342D01*
X145169058Y-110752403D01*
X145089870Y-110943579D01*
X145089868Y-110943587D01*
X145049500Y-111146530D01*
X144650499Y-111146530D01*
X144610130Y-110943580D01*
X144530941Y-110752402D01*
X144415977Y-110580345D01*
X144415975Y-110580342D01*
X144269657Y-110434024D01*
X144183626Y-110376541D01*
X144097598Y-110319059D01*
X143906420Y-110239870D01*
X143906412Y-110239868D01*
X143703469Y-110199500D01*
X143703465Y-110199500D01*
X143496535Y-110199500D01*
X143496530Y-110199500D01*
X143293587Y-110239868D01*
X143293579Y-110239870D01*
X143102403Y-110319058D01*
X142930342Y-110434024D01*
X142784024Y-110580342D01*
X142677102Y-110740365D01*
X142623489Y-110785171D01*
X142554165Y-110793878D01*
X142491137Y-110763724D01*
X142454417Y-110704281D01*
X142449999Y-110671475D01*
X142449999Y-110600028D01*
X142449998Y-110600012D01*
X142439505Y-110497302D01*
X142384358Y-110330880D01*
X142384356Y-110330875D01*
X142292315Y-110181654D01*
X142168345Y-110057684D01*
X142019124Y-109965643D01*
X142019119Y-109965641D01*
X141852697Y-109910494D01*
X141852690Y-109910493D01*
X141749986Y-109900000D01*
X141350000Y-109900000D01*
X141350000Y-110970854D01*
X141283343Y-110932370D01*
X141162535Y-110900000D01*
X141037465Y-110900000D01*
X140916657Y-110932370D01*
X140850000Y-110970854D01*
X140850000Y-109900000D01*
X140450028Y-109900000D01*
X140450012Y-109900001D01*
X140347302Y-109910494D01*
X140180880Y-109965641D01*
X140180875Y-109965643D01*
X140031654Y-110057684D01*
X139907684Y-110181654D01*
X139815643Y-110330875D01*
X139815641Y-110330880D01*
X139760494Y-110497302D01*
X139760493Y-110497309D01*
X139750000Y-110600013D01*
X139750000Y-111125000D01*
X140695854Y-111125000D01*
X140657370Y-111191657D01*
X140625000Y-111312465D01*
X140625000Y-111437535D01*
X140657370Y-111558343D01*
X140695854Y-111625000D01*
X139750001Y-111625000D01*
X139750001Y-112149986D01*
X139760494Y-112252697D01*
X139815642Y-112419123D01*
X139816309Y-112420552D01*
X139816471Y-112421625D01*
X139817914Y-112425977D01*
X139817170Y-112426223D01*
X139826797Y-112489630D01*
X139798274Y-112553412D01*
X139739796Y-112591649D01*
X139679733Y-112594568D01*
X139578845Y-112574500D01*
X139578842Y-112574500D01*
X139421158Y-112574500D01*
X139421155Y-112574500D01*
X139266510Y-112605261D01*
X139266498Y-112605264D01*
X139120827Y-112665602D01*
X139120814Y-112665609D01*
X138989711Y-112753210D01*
X138989707Y-112753213D01*
X138878213Y-112864707D01*
X138878210Y-112864711D01*
X138790609Y-112995814D01*
X138790602Y-112995827D01*
X138730264Y-113141498D01*
X138730261Y-113141510D01*
X138699500Y-113296153D01*
X120797160Y-113296153D01*
X120689383Y-113130191D01*
X120682908Y-113118977D01*
X120534378Y-112827470D01*
X120529104Y-112815622D01*
X120509683Y-112765029D01*
X120434184Y-112568345D01*
X120411871Y-112510218D01*
X120407860Y-112497875D01*
X120387141Y-112420552D01*
X120323187Y-112181874D01*
X120320491Y-112169184D01*
X120317450Y-112149986D01*
X120269318Y-111846086D01*
X120267961Y-111833178D01*
X120250670Y-111503243D01*
X120250500Y-111496753D01*
X120250500Y-100151617D01*
X139630000Y-100151617D01*
X139630000Y-100348382D01*
X139660778Y-100542705D01*
X139721581Y-100729835D01*
X139810905Y-100905145D01*
X139836319Y-100940125D01*
X139836320Y-100940125D01*
X140356212Y-100420233D01*
X140367482Y-100462292D01*
X140439890Y-100587708D01*
X140542292Y-100690110D01*
X140667708Y-100762518D01*
X140709764Y-100773787D01*
X140189873Y-101293677D01*
X140189873Y-101293678D01*
X140224858Y-101319096D01*
X140400164Y-101408418D01*
X140587294Y-101469221D01*
X140781618Y-101500000D01*
X140978382Y-101500000D01*
X141172705Y-101469221D01*
X141359835Y-101408418D01*
X141535143Y-101319095D01*
X141570125Y-101293678D01*
X141570126Y-101293678D01*
X141050235Y-100773787D01*
X141092292Y-100762518D01*
X141217708Y-100690110D01*
X141320110Y-100587708D01*
X141392518Y-100462292D01*
X141403787Y-100420234D01*
X141923678Y-100940126D01*
X141923678Y-100940125D01*
X141949095Y-100905143D01*
X142038418Y-100729835D01*
X142099221Y-100542705D01*
X142130000Y-100348382D01*
X142130000Y-100151617D01*
X142099221Y-99957294D01*
X142038418Y-99770164D01*
X141949096Y-99594858D01*
X141923678Y-99559873D01*
X141923677Y-99559873D01*
X141403787Y-100079764D01*
X141392518Y-100037708D01*
X141320110Y-99912292D01*
X141217708Y-99809890D01*
X141092292Y-99737482D01*
X141050234Y-99726212D01*
X141570125Y-99206320D01*
X141570125Y-99206319D01*
X141535145Y-99180905D01*
X141359835Y-99091581D01*
X141172705Y-99030778D01*
X140978382Y-99000000D01*
X140781618Y-99000000D01*
X140587294Y-99030778D01*
X140400161Y-99091582D01*
X140224863Y-99180899D01*
X140224859Y-99180902D01*
X140189873Y-99206320D01*
X140189872Y-99206320D01*
X140709765Y-99726212D01*
X140667708Y-99737482D01*
X140542292Y-99809890D01*
X140439890Y-99912292D01*
X140367482Y-100037708D01*
X140356212Y-100079765D01*
X139836320Y-99559872D01*
X139836320Y-99559873D01*
X139810902Y-99594859D01*
X139810899Y-99594863D01*
X139721582Y-99770161D01*
X139660778Y-99957294D01*
X139630000Y-100151617D01*
X120250500Y-100151617D01*
X120250500Y-97521617D01*
X137000000Y-97521617D01*
X137000000Y-97718382D01*
X137030778Y-97912705D01*
X137091581Y-98099835D01*
X137180905Y-98275145D01*
X137206319Y-98310125D01*
X137206320Y-98310125D01*
X137726212Y-97790233D01*
X137737482Y-97832292D01*
X137809890Y-97957708D01*
X137912292Y-98060110D01*
X138037708Y-98132518D01*
X138079764Y-98143787D01*
X137559873Y-98663677D01*
X137559873Y-98663678D01*
X137594858Y-98689096D01*
X137770164Y-98778418D01*
X137957294Y-98839221D01*
X138151618Y-98870000D01*
X138348382Y-98870000D01*
X138542705Y-98839221D01*
X138729835Y-98778418D01*
X138905143Y-98689095D01*
X138940125Y-98663678D01*
X138940126Y-98663678D01*
X138420235Y-98143787D01*
X138462292Y-98132518D01*
X138587708Y-98060110D01*
X138690110Y-97957708D01*
X138762518Y-97832292D01*
X138773787Y-97790235D01*
X139293678Y-98310126D01*
X139293678Y-98310125D01*
X139319095Y-98275143D01*
X139408418Y-98099835D01*
X139469221Y-97912705D01*
X139500000Y-97718382D01*
X139500000Y-97521617D01*
X139469221Y-97327294D01*
X139408418Y-97140164D01*
X139319096Y-96964858D01*
X139293678Y-96929873D01*
X139293677Y-96929873D01*
X138773787Y-97449764D01*
X138762518Y-97407708D01*
X138690110Y-97282292D01*
X138587708Y-97179890D01*
X138462292Y-97107482D01*
X138420234Y-97096212D01*
X138940125Y-96576320D01*
X138940125Y-96576319D01*
X138905145Y-96550905D01*
X138729835Y-96461581D01*
X138542705Y-96400778D01*
X138348382Y-96370000D01*
X138151618Y-96370000D01*
X137957294Y-96400778D01*
X137770161Y-96461582D01*
X137594863Y-96550899D01*
X137594859Y-96550902D01*
X137559873Y-96576320D01*
X137559872Y-96576320D01*
X138079765Y-97096212D01*
X138037708Y-97107482D01*
X137912292Y-97179890D01*
X137809890Y-97282292D01*
X137737482Y-97407708D01*
X137726212Y-97449765D01*
X137206320Y-96929872D01*
X137206320Y-96929873D01*
X137180902Y-96964859D01*
X137180899Y-96964863D01*
X137091582Y-97140161D01*
X137030778Y-97327294D01*
X137000000Y-97521617D01*
X120250500Y-97521617D01*
X120250500Y-92441617D01*
X137000000Y-92441617D01*
X137000000Y-92638382D01*
X137030778Y-92832705D01*
X137091581Y-93019835D01*
X137180905Y-93195145D01*
X137206319Y-93230125D01*
X137206320Y-93230125D01*
X137726212Y-92710233D01*
X137737482Y-92752292D01*
X137809890Y-92877708D01*
X137912292Y-92980110D01*
X138037708Y-93052518D01*
X138079765Y-93063787D01*
X137559873Y-93583677D01*
X137559873Y-93583678D01*
X137594858Y-93609096D01*
X137770164Y-93698418D01*
X137957294Y-93759221D01*
X138151618Y-93790000D01*
X138348382Y-93790000D01*
X138542705Y-93759221D01*
X138729834Y-93698419D01*
X138744341Y-93691027D01*
X138813010Y-93678129D01*
X138877751Y-93704402D01*
X138918010Y-93761507D01*
X138924043Y-93789354D01*
X138924500Y-93793997D01*
X138951418Y-93929322D01*
X138951421Y-93929332D01*
X139004221Y-94056804D01*
X139004228Y-94056817D01*
X139080885Y-94171541D01*
X139080888Y-94171545D01*
X139178454Y-94269111D01*
X139178458Y-94269114D01*
X139293182Y-94345771D01*
X139293195Y-94345778D01*
X139420667Y-94398578D01*
X139420672Y-94398580D01*
X139420676Y-94398580D01*
X139420677Y-94398581D01*
X139556004Y-94425500D01*
X139556007Y-94425500D01*
X140581007Y-94425500D01*
X145133481Y-94425500D01*
X145200520Y-94445185D01*
X145221162Y-94461819D01*
X147163181Y-96403838D01*
X147196666Y-96465161D01*
X147199500Y-96491519D01*
X147199500Y-99447764D01*
X147179815Y-99514803D01*
X147127011Y-99560558D01*
X147057853Y-99570502D01*
X147041014Y-99562812D01*
X147003677Y-99559873D01*
X146483787Y-100079764D01*
X146472518Y-100037708D01*
X146400110Y-99912292D01*
X146297708Y-99809890D01*
X146172292Y-99737482D01*
X146130234Y-99726212D01*
X146650125Y-99206320D01*
X146650125Y-99206319D01*
X146615145Y-99180905D01*
X146439835Y-99091581D01*
X146252705Y-99030778D01*
X146058382Y-99000000D01*
X145861618Y-99000000D01*
X145667294Y-99030778D01*
X145480161Y-99091582D01*
X145304863Y-99180899D01*
X145304859Y-99180902D01*
X145269873Y-99206320D01*
X145269872Y-99206320D01*
X145789765Y-99726212D01*
X145747708Y-99737482D01*
X145622292Y-99809890D01*
X145519890Y-99912292D01*
X145447482Y-100037708D01*
X145436212Y-100079765D01*
X144916320Y-99559872D01*
X144916320Y-99559873D01*
X144890902Y-99594859D01*
X144890899Y-99594863D01*
X144801582Y-99770161D01*
X144740778Y-99957294D01*
X144710000Y-100151617D01*
X144710000Y-100348382D01*
X144740778Y-100542705D01*
X144801581Y-100729835D01*
X144890905Y-100905145D01*
X144916319Y-100940125D01*
X144916320Y-100940125D01*
X145436212Y-100420233D01*
X145447482Y-100462292D01*
X145519890Y-100587708D01*
X145622292Y-100690110D01*
X145747708Y-100762518D01*
X145789764Y-100773787D01*
X145269873Y-101293677D01*
X145269873Y-101293678D01*
X145304858Y-101319096D01*
X145480164Y-101408418D01*
X145667294Y-101469221D01*
X145861618Y-101500000D01*
X146058382Y-101500000D01*
X146252705Y-101469221D01*
X146439835Y-101408418D01*
X146615143Y-101319095D01*
X146650125Y-101293678D01*
X146650126Y-101293678D01*
X146130235Y-100773787D01*
X146172292Y-100762518D01*
X146297708Y-100690110D01*
X146400110Y-100587708D01*
X146472518Y-100462292D01*
X146483787Y-100420235D01*
X147003678Y-100940126D01*
X147028589Y-100938165D01*
X147030512Y-100936683D01*
X147100126Y-100930704D01*
X147161921Y-100963310D01*
X147196278Y-101024149D01*
X147199500Y-101052234D01*
X147199500Y-103731006D01*
X147199500Y-103868994D01*
X147199500Y-103868996D01*
X147199499Y-103868996D01*
X147226418Y-104004322D01*
X147226421Y-104004332D01*
X147279222Y-104131807D01*
X147355887Y-104246545D01*
X147355888Y-104246546D01*
X149455886Y-106346542D01*
X149553458Y-106444114D01*
X149553459Y-106444115D01*
X149668182Y-106520771D01*
X149668186Y-106520773D01*
X149668189Y-106520775D01*
X149713480Y-106539535D01*
X149795671Y-106573580D01*
X149822591Y-106578934D01*
X149920567Y-106598423D01*
X149931006Y-106600500D01*
X149931007Y-106600500D01*
X152008481Y-106600500D01*
X152075520Y-106620185D01*
X152096162Y-106636819D01*
X155363181Y-109903838D01*
X155396666Y-109965161D01*
X155399500Y-109991519D01*
X155399500Y-110413505D01*
X155379815Y-110480544D01*
X155363181Y-110501186D01*
X155284025Y-110580341D01*
X155284024Y-110580342D01*
X155169058Y-110752403D01*
X155089870Y-110943579D01*
X155089868Y-110943587D01*
X155049500Y-111146530D01*
X155049500Y-111603469D01*
X155089868Y-111806412D01*
X155089870Y-111806420D01*
X155169058Y-111997596D01*
X155284024Y-112169657D01*
X155430342Y-112315975D01*
X155430345Y-112315977D01*
X155602402Y-112430941D01*
X155793580Y-112510130D01*
X155996530Y-112550499D01*
X155996534Y-112550500D01*
X155996535Y-112550500D01*
X156203466Y-112550500D01*
X156203467Y-112550499D01*
X156406420Y-112510130D01*
X156597598Y-112430941D01*
X156769655Y-112315977D01*
X156915977Y-112169655D01*
X157030941Y-111997598D01*
X157110130Y-111806420D01*
X157150500Y-111603465D01*
X157150500Y-111146535D01*
X157110130Y-110943580D01*
X157030941Y-110752402D01*
X156915977Y-110580345D01*
X156915975Y-110580342D01*
X156836819Y-110501186D01*
X156803334Y-110439863D01*
X156800500Y-110413505D01*
X156800500Y-109581004D01*
X156773581Y-109445677D01*
X156773580Y-109445676D01*
X156773580Y-109445672D01*
X156773578Y-109445667D01*
X156720777Y-109318192D01*
X156644112Y-109203454D01*
X152796545Y-105355887D01*
X152681807Y-105279222D01*
X152554332Y-105226421D01*
X152554322Y-105226418D01*
X152418996Y-105199500D01*
X152418994Y-105199500D01*
X152418993Y-105199500D01*
X150341518Y-105199500D01*
X150274479Y-105179815D01*
X150253837Y-105163181D01*
X148636819Y-103546162D01*
X148603334Y-103484839D01*
X148600500Y-103458481D01*
X148600500Y-102722321D01*
X148620185Y-102655282D01*
X148672989Y-102609527D01*
X148742147Y-102599583D01*
X148805703Y-102628608D01*
X148812181Y-102634640D01*
X148858036Y-102680495D01*
X148966464Y-102743095D01*
X149087399Y-102775500D01*
X149087401Y-102775500D01*
X149095458Y-102776561D01*
X149095250Y-102778135D01*
X149153316Y-102795185D01*
X149199071Y-102847989D01*
X149209015Y-102917147D01*
X149193665Y-102961499D01*
X149132640Y-103067198D01*
X149132640Y-103067199D01*
X149100235Y-103188134D01*
X149100235Y-103313336D01*
X149132640Y-103434271D01*
X149195240Y-103542699D01*
X149283771Y-103631230D01*
X149392199Y-103693830D01*
X149513134Y-103726235D01*
X149513136Y-103726235D01*
X149638334Y-103726235D01*
X149638336Y-103726235D01*
X149759271Y-103693830D01*
X149867699Y-103631230D01*
X149886375Y-103612554D01*
X149947698Y-103579069D01*
X149974056Y-103576235D01*
X150589546Y-103576235D01*
X150618986Y-103584879D01*
X150648973Y-103591403D01*
X150653988Y-103595157D01*
X150656585Y-103595920D01*
X150677227Y-103612554D01*
X150738181Y-103673508D01*
X150771666Y-103734831D01*
X150774500Y-103761189D01*
X150774500Y-103787601D01*
X150806905Y-103908536D01*
X150869505Y-104016964D01*
X150958036Y-104105495D01*
X151066464Y-104168095D01*
X151187399Y-104200500D01*
X151187401Y-104200500D01*
X151312599Y-104200500D01*
X151312601Y-104200500D01*
X151433536Y-104168095D01*
X151541964Y-104105495D01*
X151630495Y-104016964D01*
X151693095Y-103908536D01*
X151725500Y-103787601D01*
X151725500Y-103662399D01*
X151693095Y-103541464D01*
X151630495Y-103433036D01*
X151541964Y-103344505D01*
X151433536Y-103281905D01*
X151433537Y-103281905D01*
X151393224Y-103271103D01*
X151312601Y-103249500D01*
X151312599Y-103249500D01*
X151286189Y-103249500D01*
X151219150Y-103229815D01*
X151198508Y-103213181D01*
X150975599Y-102990272D01*
X150975597Y-102990270D01*
X150921040Y-102958771D01*
X150901375Y-102947417D01*
X150859981Y-102936326D01*
X150818588Y-102925235D01*
X150818587Y-102925235D01*
X149974056Y-102925235D01*
X149952149Y-102918802D01*
X149929395Y-102916913D01*
X149915977Y-102908181D01*
X149907017Y-102905550D01*
X149898614Y-102899645D01*
X149892144Y-102894685D01*
X149867699Y-102870240D01*
X149837556Y-102852837D01*
X149831129Y-102847910D01*
X149815101Y-102825980D01*
X149796356Y-102806321D01*
X149794788Y-102798186D01*
X149789901Y-102791500D01*
X149788273Y-102764390D01*
X149783132Y-102737714D01*
X149786211Y-102730022D01*
X149785715Y-102721756D01*
X149799003Y-102698068D01*
X149809100Y-102672849D01*
X149815847Y-102668044D01*
X149819900Y-102660820D01*
X149843888Y-102648075D01*
X149866014Y-102632320D01*
X149877033Y-102630466D01*
X149881602Y-102628040D01*
X149888205Y-102628588D01*
X149906571Y-102625500D01*
X160613811Y-102625500D01*
X160680850Y-102645185D01*
X160701492Y-102661819D01*
X164938181Y-106898508D01*
X164971666Y-106959831D01*
X164974500Y-106986189D01*
X164974500Y-108301679D01*
X164954815Y-108368718D01*
X164938181Y-108389360D01*
X164919506Y-108408034D01*
X164919504Y-108408037D01*
X164856905Y-108516463D01*
X164856905Y-108516464D01*
X164824500Y-108637399D01*
X164824500Y-108762601D01*
X164856905Y-108883536D01*
X164919505Y-108991964D01*
X165008036Y-109080495D01*
X165116464Y-109143095D01*
X165237399Y-109175500D01*
X165237401Y-109175500D01*
X165362599Y-109175500D01*
X165362601Y-109175500D01*
X165483536Y-109143095D01*
X165591964Y-109080495D01*
X165680495Y-108991964D01*
X165743095Y-108883536D01*
X165775500Y-108762601D01*
X165775500Y-108637399D01*
X165743095Y-108516464D01*
X165680495Y-108408036D01*
X165661819Y-108389360D01*
X165628334Y-108328037D01*
X165625500Y-108301679D01*
X165625500Y-106757149D01*
X165625500Y-106757147D01*
X165603318Y-106674362D01*
X165603318Y-106674361D01*
X165560465Y-106600138D01*
X164017726Y-105057399D01*
X174784500Y-105057399D01*
X174784500Y-105182601D01*
X174816905Y-105303536D01*
X174879505Y-105411964D01*
X174968036Y-105500495D01*
X175076464Y-105563095D01*
X175197399Y-105595500D01*
X175197401Y-105595500D01*
X175322599Y-105595500D01*
X175322601Y-105595500D01*
X175443536Y-105563095D01*
X175551964Y-105500495D01*
X175640495Y-105411964D01*
X175703095Y-105303536D01*
X175735500Y-105182601D01*
X175735500Y-105057399D01*
X175703095Y-104936464D01*
X175640495Y-104828036D01*
X175551964Y-104739505D01*
X175443536Y-104676905D01*
X175443537Y-104676905D01*
X175403224Y-104666103D01*
X175322601Y-104644500D01*
X175197399Y-104644500D01*
X175116775Y-104666103D01*
X175076463Y-104676905D01*
X174968037Y-104739504D01*
X174968034Y-104739506D01*
X174879506Y-104828034D01*
X174879504Y-104828037D01*
X174816905Y-104936463D01*
X174816905Y-104936464D01*
X174784500Y-105057399D01*
X164017726Y-105057399D01*
X160999862Y-102039535D01*
X160945305Y-102008036D01*
X160925640Y-101996682D01*
X160884246Y-101985591D01*
X160842853Y-101974500D01*
X160842852Y-101974500D01*
X149548321Y-101974500D01*
X149481282Y-101954815D01*
X149460640Y-101938181D01*
X149441965Y-101919506D01*
X149441964Y-101919505D01*
X149333536Y-101856905D01*
X149333537Y-101856905D01*
X149293224Y-101846103D01*
X149212601Y-101824500D01*
X149087399Y-101824500D01*
X149006775Y-101846103D01*
X148966463Y-101856905D01*
X148858037Y-101919504D01*
X148858034Y-101919506D01*
X148812181Y-101965360D01*
X148750858Y-101998845D01*
X148681166Y-101993861D01*
X148625233Y-101951989D01*
X148600816Y-101886525D01*
X148600500Y-101877679D01*
X148600500Y-101697399D01*
X168894500Y-101697399D01*
X168894500Y-101822601D01*
X168926905Y-101943536D01*
X168989505Y-102051964D01*
X169078036Y-102140495D01*
X169186464Y-102203095D01*
X169307399Y-102235500D01*
X169307401Y-102235500D01*
X169432599Y-102235500D01*
X169432601Y-102235500D01*
X169553536Y-102203095D01*
X169661964Y-102140495D01*
X169750495Y-102051964D01*
X169813095Y-101943536D01*
X169845500Y-101822601D01*
X169845500Y-101697399D01*
X169813095Y-101576464D01*
X169750495Y-101468036D01*
X169661964Y-101379505D01*
X169553536Y-101316905D01*
X169553537Y-101316905D01*
X169513224Y-101306103D01*
X169432601Y-101284500D01*
X169307399Y-101284500D01*
X169226775Y-101306103D01*
X169186463Y-101316905D01*
X169078037Y-101379504D01*
X169078034Y-101379506D01*
X168989506Y-101468034D01*
X168989504Y-101468037D01*
X168926905Y-101576463D01*
X168926905Y-101576464D01*
X168894500Y-101697399D01*
X148600500Y-101697399D01*
X148600500Y-100151617D01*
X149790000Y-100151617D01*
X149790000Y-100348382D01*
X149820778Y-100542705D01*
X149881581Y-100729835D01*
X149970905Y-100905145D01*
X149996319Y-100940125D01*
X149996320Y-100940125D01*
X150516212Y-100420233D01*
X150527482Y-100462292D01*
X150599890Y-100587708D01*
X150702292Y-100690110D01*
X150827708Y-100762518D01*
X150869764Y-100773787D01*
X150349873Y-101293677D01*
X150349873Y-101293678D01*
X150384858Y-101319096D01*
X150560164Y-101408418D01*
X150747294Y-101469221D01*
X150941618Y-101500000D01*
X151138382Y-101500000D01*
X151332705Y-101469221D01*
X151519835Y-101408418D01*
X151695143Y-101319095D01*
X151730125Y-101293678D01*
X151730126Y-101293678D01*
X151210235Y-100773787D01*
X151252292Y-100762518D01*
X151377708Y-100690110D01*
X151480110Y-100587708D01*
X151552518Y-100462292D01*
X151563787Y-100420235D01*
X152083678Y-100940126D01*
X152083678Y-100940125D01*
X152109095Y-100905143D01*
X152198418Y-100729835D01*
X152259221Y-100542705D01*
X152290000Y-100348382D01*
X152290000Y-100151617D01*
X154870000Y-100151617D01*
X154870000Y-100348382D01*
X154900778Y-100542705D01*
X154961581Y-100729835D01*
X155050905Y-100905145D01*
X155076319Y-100940125D01*
X155076320Y-100940125D01*
X155596212Y-100420233D01*
X155607482Y-100462292D01*
X155679890Y-100587708D01*
X155782292Y-100690110D01*
X155907708Y-100762518D01*
X155949764Y-100773787D01*
X155429873Y-101293677D01*
X155429873Y-101293678D01*
X155464858Y-101319096D01*
X155640164Y-101408418D01*
X155827294Y-101469221D01*
X156021618Y-101500000D01*
X156218382Y-101500000D01*
X156412705Y-101469221D01*
X156599835Y-101408418D01*
X156775143Y-101319095D01*
X156810125Y-101293678D01*
X156810126Y-101293678D01*
X156290235Y-100773787D01*
X156332292Y-100762518D01*
X156457708Y-100690110D01*
X156560110Y-100587708D01*
X156632518Y-100462292D01*
X156643787Y-100420234D01*
X157163678Y-100940126D01*
X157163678Y-100940125D01*
X157189095Y-100905143D01*
X157278418Y-100729835D01*
X157339221Y-100542705D01*
X157370000Y-100348382D01*
X157370000Y-100151617D01*
X157339222Y-99957296D01*
X157329508Y-99927399D01*
X172574500Y-99927399D01*
X172574500Y-100052601D01*
X172606905Y-100173536D01*
X172669505Y-100281964D01*
X172758036Y-100370495D01*
X172866464Y-100433095D01*
X172987399Y-100465500D01*
X172987401Y-100465500D01*
X173112599Y-100465500D01*
X173112601Y-100465500D01*
X173233536Y-100433095D01*
X173341964Y-100370495D01*
X173430495Y-100281964D01*
X173493095Y-100173536D01*
X173525500Y-100052601D01*
X173525500Y-99927399D01*
X173493095Y-99806464D01*
X173430495Y-99698036D01*
X173341964Y-99609505D01*
X173233536Y-99546905D01*
X173233537Y-99546905D01*
X173193224Y-99536103D01*
X173112601Y-99514500D01*
X172987399Y-99514500D01*
X172906775Y-99536103D01*
X172866463Y-99546905D01*
X172758037Y-99609504D01*
X172758034Y-99609506D01*
X172669506Y-99698034D01*
X172669504Y-99698037D01*
X172606905Y-99806463D01*
X172606905Y-99806464D01*
X172574500Y-99927399D01*
X157329508Y-99927399D01*
X157278418Y-99770164D01*
X157189096Y-99594858D01*
X157163678Y-99559873D01*
X157163677Y-99559873D01*
X156643787Y-100079764D01*
X156632518Y-100037708D01*
X156560110Y-99912292D01*
X156457708Y-99809890D01*
X156332292Y-99737482D01*
X156290234Y-99726212D01*
X156810125Y-99206320D01*
X156810125Y-99206319D01*
X156775145Y-99180905D01*
X156599835Y-99091581D01*
X156412705Y-99030778D01*
X156218382Y-99000000D01*
X156021618Y-99000000D01*
X155827294Y-99030778D01*
X155640161Y-99091582D01*
X155464863Y-99180899D01*
X155464859Y-99180902D01*
X155429873Y-99206320D01*
X155429872Y-99206320D01*
X155949765Y-99726212D01*
X155907708Y-99737482D01*
X155782292Y-99809890D01*
X155679890Y-99912292D01*
X155607482Y-100037708D01*
X155596212Y-100079765D01*
X155076320Y-99559872D01*
X155076320Y-99559873D01*
X155050902Y-99594859D01*
X155050899Y-99594863D01*
X154961582Y-99770161D01*
X154900778Y-99957294D01*
X154870000Y-100151617D01*
X152290000Y-100151617D01*
X152259221Y-99957294D01*
X152198418Y-99770164D01*
X152109096Y-99594858D01*
X152083678Y-99559873D01*
X152083677Y-99559873D01*
X151563787Y-100079764D01*
X151552518Y-100037708D01*
X151480110Y-99912292D01*
X151377708Y-99809890D01*
X151252292Y-99737482D01*
X151210234Y-99726212D01*
X151730125Y-99206320D01*
X151730125Y-99206319D01*
X151695145Y-99180905D01*
X151519835Y-99091581D01*
X151332705Y-99030778D01*
X151138382Y-99000000D01*
X150941618Y-99000000D01*
X150747294Y-99030778D01*
X150560161Y-99091582D01*
X150384863Y-99180899D01*
X150384859Y-99180902D01*
X150349873Y-99206320D01*
X150349872Y-99206320D01*
X150869765Y-99726212D01*
X150827708Y-99737482D01*
X150702292Y-99809890D01*
X150599890Y-99912292D01*
X150527482Y-100037708D01*
X150516212Y-100079765D01*
X149996320Y-99559872D01*
X149996320Y-99559873D01*
X149970902Y-99594859D01*
X149970899Y-99594863D01*
X149881582Y-99770161D01*
X149820778Y-99957294D01*
X149790000Y-100151617D01*
X148600500Y-100151617D01*
X148600500Y-97521617D01*
X157500000Y-97521617D01*
X157500000Y-97718382D01*
X157530778Y-97912705D01*
X157591581Y-98099835D01*
X157680905Y-98275145D01*
X157706319Y-98310125D01*
X157706320Y-98310125D01*
X158226212Y-97790233D01*
X158237482Y-97832292D01*
X158309890Y-97957708D01*
X158412292Y-98060110D01*
X158537708Y-98132518D01*
X158579764Y-98143787D01*
X158059873Y-98663677D01*
X158059873Y-98663678D01*
X158094858Y-98689096D01*
X158270164Y-98778418D01*
X158457294Y-98839221D01*
X158651618Y-98870000D01*
X158848382Y-98870000D01*
X159042705Y-98839221D01*
X159229835Y-98778418D01*
X159405143Y-98689095D01*
X159440125Y-98663678D01*
X159440126Y-98663678D01*
X158920235Y-98143787D01*
X158962292Y-98132518D01*
X159087708Y-98060110D01*
X159190110Y-97957708D01*
X159262518Y-97832292D01*
X159273787Y-97790235D01*
X159793678Y-98310126D01*
X159793678Y-98310125D01*
X159819095Y-98275143D01*
X159908418Y-98099835D01*
X159969221Y-97912705D01*
X160000000Y-97718382D01*
X160000000Y-97521617D01*
X159969221Y-97327294D01*
X159908418Y-97140164D01*
X159819096Y-96964858D01*
X159793678Y-96929873D01*
X159793677Y-96929873D01*
X159273787Y-97449764D01*
X159262518Y-97407708D01*
X159190110Y-97282292D01*
X159087708Y-97179890D01*
X158962292Y-97107482D01*
X158920234Y-97096212D01*
X159439046Y-96577399D01*
X167714500Y-96577399D01*
X167714500Y-96702601D01*
X167746905Y-96823536D01*
X167809505Y-96931964D01*
X167898036Y-97020495D01*
X168006464Y-97083095D01*
X168127399Y-97115500D01*
X168127401Y-97115500D01*
X168252599Y-97115500D01*
X168252601Y-97115500D01*
X168373536Y-97083095D01*
X168481964Y-97020495D01*
X168481964Y-97020494D01*
X168487823Y-97017112D01*
X168549822Y-97000500D01*
X173712035Y-97000500D01*
X173779074Y-97020185D01*
X173799716Y-97036819D01*
X175259665Y-98496769D01*
X175279371Y-98522450D01*
X175319502Y-98591960D01*
X175319504Y-98591962D01*
X175319505Y-98591964D01*
X175408036Y-98680495D01*
X175516464Y-98743095D01*
X175637399Y-98775500D01*
X175637401Y-98775500D01*
X175762599Y-98775500D01*
X175762601Y-98775500D01*
X175883536Y-98743095D01*
X175991964Y-98680495D01*
X176080495Y-98591964D01*
X176143095Y-98483536D01*
X176175500Y-98362601D01*
X176175500Y-98237399D01*
X176143095Y-98116464D01*
X176080495Y-98008036D01*
X175991964Y-97919505D01*
X175991963Y-97919504D01*
X175991960Y-97919502D01*
X175922450Y-97879371D01*
X175896769Y-97859665D01*
X174226616Y-96189513D01*
X174226614Y-96189511D01*
X174175250Y-96159856D01*
X174123888Y-96130201D01*
X174111780Y-96126957D01*
X174099673Y-96123713D01*
X174099670Y-96123712D01*
X174061478Y-96113478D01*
X174009309Y-96099500D01*
X168220691Y-96099500D01*
X168130325Y-96123713D01*
X168130324Y-96123712D01*
X168106116Y-96130199D01*
X168106113Y-96130200D01*
X168003387Y-96189510D01*
X168003385Y-96189511D01*
X167993226Y-96199670D01*
X167967551Y-96219369D01*
X167898042Y-96259501D01*
X167898033Y-96259507D01*
X167809506Y-96348034D01*
X167809504Y-96348037D01*
X167746905Y-96456463D01*
X167737512Y-96491519D01*
X167714500Y-96577399D01*
X159439046Y-96577399D01*
X159440125Y-96576320D01*
X159440125Y-96576319D01*
X159405145Y-96550905D01*
X159229835Y-96461581D01*
X159042705Y-96400778D01*
X158848382Y-96370000D01*
X158651618Y-96370000D01*
X158457294Y-96400778D01*
X158270161Y-96461582D01*
X158094863Y-96550899D01*
X158094859Y-96550902D01*
X158059873Y-96576320D01*
X158059872Y-96576320D01*
X158579765Y-97096212D01*
X158537708Y-97107482D01*
X158412292Y-97179890D01*
X158309890Y-97282292D01*
X158237482Y-97407708D01*
X158226212Y-97449765D01*
X157706320Y-96929872D01*
X157706320Y-96929873D01*
X157680902Y-96964859D01*
X157680899Y-96964863D01*
X157591582Y-97140161D01*
X157530778Y-97327294D01*
X157500000Y-97521617D01*
X148600500Y-97521617D01*
X148600500Y-96081004D01*
X148573581Y-95945677D01*
X148573580Y-95945676D01*
X148573580Y-95945672D01*
X148573578Y-95945667D01*
X148520777Y-95818192D01*
X148444112Y-95703454D01*
X145921545Y-93180887D01*
X145806807Y-93104222D01*
X145679332Y-93051421D01*
X145679322Y-93051418D01*
X145543996Y-93024500D01*
X145543994Y-93024500D01*
X145543993Y-93024500D01*
X140718993Y-93024500D01*
X139577575Y-93024500D01*
X139510536Y-93004815D01*
X139464781Y-92952011D01*
X139454837Y-92882853D01*
X139459644Y-92862181D01*
X139469221Y-92832703D01*
X139500000Y-92638382D01*
X139500000Y-92441617D01*
X157500000Y-92441617D01*
X157500000Y-92638382D01*
X157530778Y-92832705D01*
X157591581Y-93019835D01*
X157680905Y-93195145D01*
X157706319Y-93230125D01*
X157706320Y-93230125D01*
X158226212Y-92710233D01*
X158237482Y-92752292D01*
X158309890Y-92877708D01*
X158412292Y-92980110D01*
X158537708Y-93052518D01*
X158579764Y-93063787D01*
X158059873Y-93583677D01*
X158059873Y-93583678D01*
X158094858Y-93609096D01*
X158270164Y-93698418D01*
X158457294Y-93759221D01*
X158651618Y-93790000D01*
X158848382Y-93790000D01*
X159042705Y-93759221D01*
X159229835Y-93698418D01*
X159405143Y-93609095D01*
X159440125Y-93583678D01*
X159440126Y-93583678D01*
X158920235Y-93063787D01*
X158962292Y-93052518D01*
X159087708Y-92980110D01*
X159190110Y-92877708D01*
X159262518Y-92752292D01*
X159273787Y-92710235D01*
X159793678Y-93230126D01*
X159793678Y-93230125D01*
X159819095Y-93195143D01*
X159908418Y-93019835D01*
X159969221Y-92832705D01*
X160000000Y-92638382D01*
X160000000Y-92441617D01*
X159969221Y-92247294D01*
X159908418Y-92060164D01*
X159819096Y-91884858D01*
X159793678Y-91849873D01*
X159793677Y-91849873D01*
X159273787Y-92369764D01*
X159262518Y-92327708D01*
X159190110Y-92202292D01*
X159087708Y-92099890D01*
X158962292Y-92027482D01*
X158920234Y-92016212D01*
X159440125Y-91496320D01*
X159440125Y-91496319D01*
X159405145Y-91470905D01*
X159229835Y-91381581D01*
X159042705Y-91320778D01*
X158848382Y-91290000D01*
X158651618Y-91290000D01*
X158457294Y-91320778D01*
X158270161Y-91381582D01*
X158094863Y-91470899D01*
X158094859Y-91470902D01*
X158059873Y-91496320D01*
X158059872Y-91496320D01*
X158579765Y-92016212D01*
X158537708Y-92027482D01*
X158412292Y-92099890D01*
X158309890Y-92202292D01*
X158237482Y-92327708D01*
X158226212Y-92369765D01*
X157706320Y-91849872D01*
X157706320Y-91849873D01*
X157680902Y-91884859D01*
X157680899Y-91884863D01*
X157591582Y-92060161D01*
X157530778Y-92247294D01*
X157500000Y-92441617D01*
X139500000Y-92441617D01*
X139469221Y-92247294D01*
X139408418Y-92060164D01*
X139319096Y-91884858D01*
X139293678Y-91849873D01*
X139293677Y-91849873D01*
X138773787Y-92369765D01*
X138762518Y-92327708D01*
X138690110Y-92202292D01*
X138587708Y-92099890D01*
X138462292Y-92027482D01*
X138420234Y-92016212D01*
X138940125Y-91496320D01*
X138940125Y-91496319D01*
X138905145Y-91470905D01*
X138729835Y-91381581D01*
X138542705Y-91320778D01*
X138348382Y-91290000D01*
X138151618Y-91290000D01*
X137957294Y-91320778D01*
X137770161Y-91381582D01*
X137594863Y-91470899D01*
X137594859Y-91470902D01*
X137559873Y-91496320D01*
X137559872Y-91496320D01*
X138079765Y-92016212D01*
X138037708Y-92027482D01*
X137912292Y-92099890D01*
X137809890Y-92202292D01*
X137737482Y-92327708D01*
X137726212Y-92369765D01*
X137206320Y-91849872D01*
X137206320Y-91849873D01*
X137180902Y-91884859D01*
X137180899Y-91884863D01*
X137091582Y-92060161D01*
X137030778Y-92247294D01*
X137000000Y-92441617D01*
X120250500Y-92441617D01*
X120250500Y-90777577D01*
X168175975Y-90777577D01*
X168281236Y-90821178D01*
X168281240Y-90821179D01*
X168426126Y-90849999D01*
X168426129Y-90850000D01*
X168573871Y-90850000D01*
X168573873Y-90849999D01*
X168718760Y-90821179D01*
X168718775Y-90821175D01*
X168824024Y-90777578D01*
X168824024Y-90777577D01*
X169475975Y-90777577D01*
X169581236Y-90821178D01*
X169581240Y-90821179D01*
X169726126Y-90849999D01*
X169726129Y-90850000D01*
X169873871Y-90850000D01*
X169873873Y-90849999D01*
X170018760Y-90821179D01*
X170018775Y-90821175D01*
X170124024Y-90777578D01*
X170124024Y-90777577D01*
X170775975Y-90777577D01*
X170881236Y-90821178D01*
X170881240Y-90821179D01*
X171026126Y-90849999D01*
X171026129Y-90850000D01*
X171173871Y-90850000D01*
X171173873Y-90849999D01*
X171318760Y-90821179D01*
X171318775Y-90821175D01*
X171424024Y-90777578D01*
X171424024Y-90777577D01*
X171100001Y-90453554D01*
X171100000Y-90453554D01*
X170775975Y-90777577D01*
X170124024Y-90777577D01*
X169800001Y-90453554D01*
X169800000Y-90453554D01*
X169475975Y-90777577D01*
X168824024Y-90777577D01*
X168500001Y-90453554D01*
X168500000Y-90453554D01*
X168175975Y-90777577D01*
X120250500Y-90777577D01*
X120250500Y-90026126D01*
X167750000Y-90026126D01*
X167750000Y-90173873D01*
X167778820Y-90318759D01*
X167778822Y-90318767D01*
X167822421Y-90424024D01*
X168146446Y-90100000D01*
X168146446Y-90099999D01*
X168126556Y-90080109D01*
X168400000Y-90080109D01*
X168400000Y-90119891D01*
X168415224Y-90156645D01*
X168443355Y-90184776D01*
X168480109Y-90200000D01*
X168519891Y-90200000D01*
X168556645Y-90184776D01*
X168584776Y-90156645D01*
X168600000Y-90119891D01*
X168600000Y-90100000D01*
X168853554Y-90100000D01*
X169150000Y-90396446D01*
X169446446Y-90100000D01*
X169426555Y-90080109D01*
X169700000Y-90080109D01*
X169700000Y-90119891D01*
X169715224Y-90156645D01*
X169743355Y-90184776D01*
X169780109Y-90200000D01*
X169819891Y-90200000D01*
X169856645Y-90184776D01*
X169884776Y-90156645D01*
X169900000Y-90119891D01*
X169900000Y-90100000D01*
X170153554Y-90100000D01*
X170450000Y-90396446D01*
X170746446Y-90100000D01*
X170726555Y-90080109D01*
X171000000Y-90080109D01*
X171000000Y-90119891D01*
X171015224Y-90156645D01*
X171043355Y-90184776D01*
X171080109Y-90200000D01*
X171119891Y-90200000D01*
X171156645Y-90184776D01*
X171184776Y-90156645D01*
X171200000Y-90119891D01*
X171200000Y-90099999D01*
X171453554Y-90099999D01*
X171453554Y-90100001D01*
X171777577Y-90424024D01*
X171777578Y-90424024D01*
X171821175Y-90318775D01*
X171821179Y-90318760D01*
X171849999Y-90173873D01*
X171850000Y-90173871D01*
X171850000Y-90026128D01*
X171849999Y-90026126D01*
X171821179Y-89881240D01*
X171821178Y-89881236D01*
X171777577Y-89775975D01*
X171453554Y-90099999D01*
X171200000Y-90099999D01*
X171200000Y-90080109D01*
X171184776Y-90043355D01*
X171156645Y-90015224D01*
X171119891Y-90000000D01*
X171080109Y-90000000D01*
X171043355Y-90015224D01*
X171015224Y-90043355D01*
X171000000Y-90080109D01*
X170726555Y-90080109D01*
X170450000Y-89803554D01*
X170153554Y-90100000D01*
X169900000Y-90100000D01*
X169900000Y-90080109D01*
X169884776Y-90043355D01*
X169856645Y-90015224D01*
X169819891Y-90000000D01*
X169780109Y-90000000D01*
X169743355Y-90015224D01*
X169715224Y-90043355D01*
X169700000Y-90080109D01*
X169426555Y-90080109D01*
X169150000Y-89803554D01*
X168853554Y-90100000D01*
X168600000Y-90100000D01*
X168600000Y-90080109D01*
X168584776Y-90043355D01*
X168556645Y-90015224D01*
X168519891Y-90000000D01*
X168480109Y-90000000D01*
X168443355Y-90015224D01*
X168415224Y-90043355D01*
X168400000Y-90080109D01*
X168126556Y-90080109D01*
X167822421Y-89775974D01*
X167822420Y-89775974D01*
X167778823Y-89881228D01*
X167778820Y-89881240D01*
X167750000Y-90026126D01*
X120250500Y-90026126D01*
X120250500Y-89450000D01*
X168203554Y-89450000D01*
X168500000Y-89746446D01*
X168796446Y-89450000D01*
X169503554Y-89450000D01*
X169800000Y-89746446D01*
X170096446Y-89450000D01*
X170803554Y-89450000D01*
X171100000Y-89746446D01*
X171396446Y-89450000D01*
X171100000Y-89153554D01*
X170803554Y-89450000D01*
X170096446Y-89450000D01*
X169800000Y-89153554D01*
X169503554Y-89450000D01*
X168796446Y-89450000D01*
X168500000Y-89153554D01*
X168203554Y-89450000D01*
X120250500Y-89450000D01*
X120250500Y-88726126D01*
X167750000Y-88726126D01*
X167750000Y-88873873D01*
X167778820Y-89018759D01*
X167778822Y-89018767D01*
X167822421Y-89124024D01*
X168146446Y-88800000D01*
X168146446Y-88799999D01*
X168126556Y-88780109D01*
X168400000Y-88780109D01*
X168400000Y-88819891D01*
X168415224Y-88856645D01*
X168443355Y-88884776D01*
X168480109Y-88900000D01*
X168519891Y-88900000D01*
X168556645Y-88884776D01*
X168584776Y-88856645D01*
X168600000Y-88819891D01*
X168600000Y-88800000D01*
X168853554Y-88800000D01*
X169150000Y-89096446D01*
X169446446Y-88800000D01*
X169426555Y-88780109D01*
X169700000Y-88780109D01*
X169700000Y-88819891D01*
X169715224Y-88856645D01*
X169743355Y-88884776D01*
X169780109Y-88900000D01*
X169819891Y-88900000D01*
X169856645Y-88884776D01*
X169884776Y-88856645D01*
X169900000Y-88819891D01*
X169900000Y-88800000D01*
X170153554Y-88800000D01*
X170450000Y-89096446D01*
X170746446Y-88800000D01*
X170726555Y-88780109D01*
X171000000Y-88780109D01*
X171000000Y-88819891D01*
X171015224Y-88856645D01*
X171043355Y-88884776D01*
X171080109Y-88900000D01*
X171119891Y-88900000D01*
X171156645Y-88884776D01*
X171184776Y-88856645D01*
X171200000Y-88819891D01*
X171200000Y-88799999D01*
X171453554Y-88799999D01*
X171453554Y-88800001D01*
X171777577Y-89124024D01*
X171777578Y-89124024D01*
X171821175Y-89018775D01*
X171821179Y-89018760D01*
X171849999Y-88873873D01*
X171850000Y-88873871D01*
X171850000Y-88726128D01*
X171849999Y-88726126D01*
X171821179Y-88581240D01*
X171821178Y-88581236D01*
X171777577Y-88475975D01*
X171453554Y-88799999D01*
X171200000Y-88799999D01*
X171200000Y-88780109D01*
X171184776Y-88743355D01*
X171156645Y-88715224D01*
X171119891Y-88700000D01*
X171080109Y-88700000D01*
X171043355Y-88715224D01*
X171015224Y-88743355D01*
X171000000Y-88780109D01*
X170726555Y-88780109D01*
X170450000Y-88503554D01*
X170153554Y-88800000D01*
X169900000Y-88800000D01*
X169900000Y-88780109D01*
X169884776Y-88743355D01*
X169856645Y-88715224D01*
X169819891Y-88700000D01*
X169780109Y-88700000D01*
X169743355Y-88715224D01*
X169715224Y-88743355D01*
X169700000Y-88780109D01*
X169426555Y-88780109D01*
X169150000Y-88503554D01*
X168853554Y-88800000D01*
X168600000Y-88800000D01*
X168600000Y-88780109D01*
X168584776Y-88743355D01*
X168556645Y-88715224D01*
X168519891Y-88700000D01*
X168480109Y-88700000D01*
X168443355Y-88715224D01*
X168415224Y-88743355D01*
X168400000Y-88780109D01*
X168126556Y-88780109D01*
X167822421Y-88475974D01*
X167822420Y-88475974D01*
X167778823Y-88581228D01*
X167778820Y-88581240D01*
X167750000Y-88726126D01*
X120250500Y-88726126D01*
X120250500Y-87361617D01*
X137000000Y-87361617D01*
X137000000Y-87558382D01*
X137030778Y-87752705D01*
X137091581Y-87939835D01*
X137180905Y-88115145D01*
X137206319Y-88150125D01*
X137206320Y-88150125D01*
X137726212Y-87630233D01*
X137737482Y-87672292D01*
X137809890Y-87797708D01*
X137912292Y-87900110D01*
X138037708Y-87972518D01*
X138079764Y-87983787D01*
X137559873Y-88503677D01*
X137559873Y-88503678D01*
X137594858Y-88529096D01*
X137770164Y-88618418D01*
X137957294Y-88679221D01*
X138151618Y-88710000D01*
X138348382Y-88710000D01*
X138542705Y-88679221D01*
X138729835Y-88618418D01*
X138905143Y-88529095D01*
X138940125Y-88503678D01*
X138940126Y-88503678D01*
X138420235Y-87983787D01*
X138462292Y-87972518D01*
X138587708Y-87900110D01*
X138690110Y-87797708D01*
X138762518Y-87672292D01*
X138773787Y-87630235D01*
X139293678Y-88150126D01*
X139293678Y-88150125D01*
X139319095Y-88115143D01*
X139408418Y-87939835D01*
X139469221Y-87752705D01*
X139500000Y-87558382D01*
X139500000Y-87361617D01*
X157500000Y-87361617D01*
X157500000Y-87558382D01*
X157530778Y-87752705D01*
X157591581Y-87939835D01*
X157680905Y-88115145D01*
X157706319Y-88150125D01*
X157706320Y-88150125D01*
X158226212Y-87630233D01*
X158237482Y-87672292D01*
X158309890Y-87797708D01*
X158412292Y-87900110D01*
X158537708Y-87972518D01*
X158579764Y-87983787D01*
X158059873Y-88503677D01*
X158059873Y-88503678D01*
X158094858Y-88529096D01*
X158270164Y-88618418D01*
X158457294Y-88679221D01*
X158651618Y-88710000D01*
X158848382Y-88710000D01*
X159042705Y-88679221D01*
X159229838Y-88618417D01*
X159247232Y-88609555D01*
X159247234Y-88609554D01*
X159405143Y-88529095D01*
X159440125Y-88503678D01*
X159440126Y-88503678D01*
X158920235Y-87983787D01*
X158962292Y-87972518D01*
X159087708Y-87900110D01*
X159190110Y-87797708D01*
X159262518Y-87672292D01*
X159273787Y-87630235D01*
X159793678Y-88150126D01*
X159793678Y-88150125D01*
X159813808Y-88122420D01*
X168175974Y-88122420D01*
X168175974Y-88122421D01*
X168500000Y-88446446D01*
X168500001Y-88446446D01*
X168824024Y-88122421D01*
X168824022Y-88122420D01*
X169475974Y-88122420D01*
X169475974Y-88122421D01*
X169800000Y-88446446D01*
X169800001Y-88446446D01*
X170124024Y-88122421D01*
X170124022Y-88122420D01*
X170775974Y-88122420D01*
X170775974Y-88122421D01*
X171100000Y-88446446D01*
X171100001Y-88446446D01*
X171424024Y-88122421D01*
X171318767Y-88078822D01*
X171318759Y-88078820D01*
X171173872Y-88050000D01*
X171026128Y-88050000D01*
X170881240Y-88078820D01*
X170881228Y-88078823D01*
X170775974Y-88122420D01*
X170124022Y-88122420D01*
X170018767Y-88078822D01*
X170018759Y-88078820D01*
X169873872Y-88050000D01*
X169726128Y-88050000D01*
X169581240Y-88078820D01*
X169581228Y-88078823D01*
X169475974Y-88122420D01*
X168824022Y-88122420D01*
X168718767Y-88078822D01*
X168718759Y-88078820D01*
X168573872Y-88050000D01*
X168426128Y-88050000D01*
X168281240Y-88078820D01*
X168281228Y-88078823D01*
X168175974Y-88122420D01*
X159813808Y-88122420D01*
X159819095Y-88115143D01*
X159823275Y-88106941D01*
X159908418Y-87939835D01*
X159969221Y-87752705D01*
X160000000Y-87558382D01*
X160000000Y-87361617D01*
X159969221Y-87167294D01*
X159908418Y-86980164D01*
X159819096Y-86804858D01*
X159793678Y-86769873D01*
X159793677Y-86769873D01*
X159273787Y-87289764D01*
X159262518Y-87247708D01*
X159190110Y-87122292D01*
X159087708Y-87019890D01*
X158962292Y-86947482D01*
X158920234Y-86936212D01*
X159440125Y-86416320D01*
X159440125Y-86416319D01*
X159405145Y-86390905D01*
X159229835Y-86301581D01*
X159042705Y-86240778D01*
X158848382Y-86210000D01*
X158651618Y-86210000D01*
X158457294Y-86240778D01*
X158270161Y-86301582D01*
X158094863Y-86390899D01*
X158094859Y-86390902D01*
X158059873Y-86416320D01*
X158059872Y-86416320D01*
X158579765Y-86936212D01*
X158537708Y-86947482D01*
X158412292Y-87019890D01*
X158309890Y-87122292D01*
X158237482Y-87247708D01*
X158226212Y-87289765D01*
X157706320Y-86769872D01*
X157706320Y-86769873D01*
X157680902Y-86804859D01*
X157680899Y-86804863D01*
X157591582Y-86980161D01*
X157530778Y-87167294D01*
X157500000Y-87361617D01*
X139500000Y-87361617D01*
X139469221Y-87167294D01*
X139408418Y-86980164D01*
X139319096Y-86804858D01*
X139293678Y-86769873D01*
X139293677Y-86769873D01*
X138773787Y-87289764D01*
X138762518Y-87247708D01*
X138690110Y-87122292D01*
X138587708Y-87019890D01*
X138462292Y-86947482D01*
X138420234Y-86936212D01*
X138940125Y-86416320D01*
X138940125Y-86416319D01*
X138905145Y-86390905D01*
X138729835Y-86301581D01*
X138542705Y-86240778D01*
X138348382Y-86210000D01*
X138151618Y-86210000D01*
X137957294Y-86240778D01*
X137770161Y-86301582D01*
X137594863Y-86390899D01*
X137594859Y-86390902D01*
X137559873Y-86416320D01*
X137559872Y-86416320D01*
X138079765Y-86936212D01*
X138037708Y-86947482D01*
X137912292Y-87019890D01*
X137809890Y-87122292D01*
X137737482Y-87247708D01*
X137726212Y-87289765D01*
X137206320Y-86769872D01*
X137206320Y-86769873D01*
X137180902Y-86804859D01*
X137180899Y-86804863D01*
X137091582Y-86980161D01*
X137030778Y-87167294D01*
X137000000Y-87361617D01*
X120250500Y-87361617D01*
X120250500Y-82281617D01*
X137000000Y-82281617D01*
X137000000Y-82478382D01*
X137030778Y-82672705D01*
X137091581Y-82859835D01*
X137180905Y-83035145D01*
X137206319Y-83070125D01*
X137206320Y-83070125D01*
X137726212Y-82550233D01*
X137737482Y-82592292D01*
X137809890Y-82717708D01*
X137912292Y-82820110D01*
X138037708Y-82892518D01*
X138079764Y-82903787D01*
X137559873Y-83423677D01*
X137559873Y-83423678D01*
X137594858Y-83449096D01*
X137770164Y-83538418D01*
X137957294Y-83599221D01*
X138151618Y-83630000D01*
X138348382Y-83630000D01*
X138542705Y-83599221D01*
X138729835Y-83538418D01*
X138905143Y-83449095D01*
X138940125Y-83423678D01*
X138940126Y-83423678D01*
X138420235Y-82903787D01*
X138462292Y-82892518D01*
X138587708Y-82820110D01*
X138690110Y-82717708D01*
X138762518Y-82592292D01*
X138773787Y-82550235D01*
X139293678Y-83070126D01*
X139293678Y-83070125D01*
X139319095Y-83035143D01*
X139408418Y-82859835D01*
X139469221Y-82672705D01*
X139500000Y-82478382D01*
X139500000Y-82281617D01*
X157500000Y-82281617D01*
X157500000Y-82478382D01*
X157530778Y-82672705D01*
X157591581Y-82859835D01*
X157680905Y-83035145D01*
X157706319Y-83070125D01*
X157706320Y-83070125D01*
X158226212Y-82550233D01*
X158237482Y-82592292D01*
X158309890Y-82717708D01*
X158412292Y-82820110D01*
X158537708Y-82892518D01*
X158579764Y-82903787D01*
X158059873Y-83423677D01*
X158059873Y-83423678D01*
X158094858Y-83449096D01*
X158270164Y-83538418D01*
X158457294Y-83599221D01*
X158651618Y-83630000D01*
X158848382Y-83630000D01*
X159042705Y-83599221D01*
X159229835Y-83538418D01*
X159405143Y-83449095D01*
X159440125Y-83423678D01*
X159440126Y-83423678D01*
X158920235Y-82903787D01*
X158962292Y-82892518D01*
X159087708Y-82820110D01*
X159190110Y-82717708D01*
X159262518Y-82592292D01*
X159273787Y-82550235D01*
X159793678Y-83070126D01*
X159793678Y-83070125D01*
X159819095Y-83035143D01*
X159908418Y-82859835D01*
X159969221Y-82672705D01*
X160000000Y-82478382D01*
X160000000Y-82281617D01*
X159969221Y-82087294D01*
X159908418Y-81900164D01*
X159819096Y-81724858D01*
X159793678Y-81689873D01*
X159793677Y-81689873D01*
X159273787Y-82209764D01*
X159262518Y-82167708D01*
X159190110Y-82042292D01*
X159087708Y-81939890D01*
X158962292Y-81867482D01*
X158920234Y-81856212D01*
X159440125Y-81336320D01*
X159440125Y-81336319D01*
X159405145Y-81310905D01*
X159229835Y-81221581D01*
X159042705Y-81160778D01*
X158848382Y-81130000D01*
X158651618Y-81130000D01*
X158457294Y-81160778D01*
X158270161Y-81221582D01*
X158094863Y-81310899D01*
X158094859Y-81310902D01*
X158059873Y-81336320D01*
X158059872Y-81336320D01*
X158579765Y-81856212D01*
X158537708Y-81867482D01*
X158412292Y-81939890D01*
X158309890Y-82042292D01*
X158237482Y-82167708D01*
X158226212Y-82209765D01*
X157706320Y-81689872D01*
X157706320Y-81689873D01*
X157680902Y-81724859D01*
X157680899Y-81724863D01*
X157591582Y-81900161D01*
X157530778Y-82087294D01*
X157500000Y-82281617D01*
X139500000Y-82281617D01*
X139469221Y-82087294D01*
X139408418Y-81900164D01*
X139319096Y-81724858D01*
X139293678Y-81689873D01*
X139293677Y-81689873D01*
X138773787Y-82209764D01*
X138762518Y-82167708D01*
X138690110Y-82042292D01*
X138587708Y-81939890D01*
X138462292Y-81867482D01*
X138420234Y-81856212D01*
X138940125Y-81336320D01*
X138940125Y-81336319D01*
X138905145Y-81310905D01*
X138729835Y-81221581D01*
X138542705Y-81160778D01*
X138348382Y-81130000D01*
X138151618Y-81130000D01*
X137957294Y-81160778D01*
X137770161Y-81221582D01*
X137594863Y-81310899D01*
X137594859Y-81310902D01*
X137559873Y-81336320D01*
X137559872Y-81336320D01*
X138079765Y-81856212D01*
X138037708Y-81867482D01*
X137912292Y-81939890D01*
X137809890Y-82042292D01*
X137737482Y-82167708D01*
X137726212Y-82209765D01*
X137206320Y-81689872D01*
X137206320Y-81689873D01*
X137180902Y-81724859D01*
X137180899Y-81724863D01*
X137091582Y-81900161D01*
X137030778Y-82087294D01*
X137000000Y-82281617D01*
X120250500Y-82281617D01*
X120250500Y-79651617D01*
X139630000Y-79651617D01*
X139630000Y-79848382D01*
X139660778Y-80042705D01*
X139721581Y-80229835D01*
X139810905Y-80405145D01*
X139836319Y-80440125D01*
X139836320Y-80440125D01*
X140356212Y-79920233D01*
X140367482Y-79962292D01*
X140439890Y-80087708D01*
X140542292Y-80190110D01*
X140667708Y-80262518D01*
X140709764Y-80273787D01*
X140189873Y-80793677D01*
X140189873Y-80793678D01*
X140224858Y-80819096D01*
X140400164Y-80908418D01*
X140587294Y-80969221D01*
X140781618Y-81000000D01*
X140978382Y-81000000D01*
X141172705Y-80969221D01*
X141359835Y-80908418D01*
X141535143Y-80819095D01*
X141570125Y-80793678D01*
X141570126Y-80793678D01*
X141050235Y-80273787D01*
X141092292Y-80262518D01*
X141217708Y-80190110D01*
X141320110Y-80087708D01*
X141392518Y-79962292D01*
X141403787Y-79920234D01*
X141923678Y-80440126D01*
X141923678Y-80440125D01*
X141949095Y-80405143D01*
X142038418Y-80229835D01*
X142099221Y-80042705D01*
X142130000Y-79848382D01*
X142130000Y-79651617D01*
X144710000Y-79651617D01*
X144710000Y-79848382D01*
X144740778Y-80042705D01*
X144801581Y-80229835D01*
X144890905Y-80405145D01*
X144916319Y-80440125D01*
X144916320Y-80440125D01*
X145436212Y-79920233D01*
X145447482Y-79962292D01*
X145519890Y-80087708D01*
X145622292Y-80190110D01*
X145747708Y-80262518D01*
X145789764Y-80273787D01*
X145269873Y-80793677D01*
X145269873Y-80793678D01*
X145304858Y-80819096D01*
X145480164Y-80908418D01*
X145667294Y-80969221D01*
X145861618Y-81000000D01*
X146058382Y-81000000D01*
X146252705Y-80969221D01*
X146439835Y-80908418D01*
X146615143Y-80819095D01*
X146650125Y-80793678D01*
X146650126Y-80793678D01*
X146130235Y-80273787D01*
X146172292Y-80262518D01*
X146297708Y-80190110D01*
X146400110Y-80087708D01*
X146472518Y-79962292D01*
X146483787Y-79920235D01*
X147003678Y-80440126D01*
X147003678Y-80440125D01*
X147029095Y-80405143D01*
X147118418Y-80229835D01*
X147179221Y-80042705D01*
X147210000Y-79848382D01*
X147210000Y-79651617D01*
X149790000Y-79651617D01*
X149790000Y-79848382D01*
X149820778Y-80042705D01*
X149881581Y-80229835D01*
X149970905Y-80405145D01*
X149996319Y-80440125D01*
X149996320Y-80440125D01*
X150516212Y-79920233D01*
X150527482Y-79962292D01*
X150599890Y-80087708D01*
X150702292Y-80190110D01*
X150827708Y-80262518D01*
X150869764Y-80273787D01*
X150349873Y-80793677D01*
X150349873Y-80793678D01*
X150384858Y-80819096D01*
X150560164Y-80908418D01*
X150747294Y-80969221D01*
X150941618Y-81000000D01*
X151138382Y-81000000D01*
X151332705Y-80969221D01*
X151519835Y-80908418D01*
X151695143Y-80819095D01*
X151730125Y-80793678D01*
X151730126Y-80793678D01*
X151210235Y-80273787D01*
X151252292Y-80262518D01*
X151377708Y-80190110D01*
X151480110Y-80087708D01*
X151552518Y-79962292D01*
X151563787Y-79920235D01*
X152083678Y-80440126D01*
X152083678Y-80440125D01*
X152109095Y-80405143D01*
X152198418Y-80229835D01*
X152259221Y-80042705D01*
X152290000Y-79848382D01*
X152290000Y-79651617D01*
X154870000Y-79651617D01*
X154870000Y-79848382D01*
X154900778Y-80042705D01*
X154961581Y-80229835D01*
X155050905Y-80405145D01*
X155076319Y-80440125D01*
X155076320Y-80440125D01*
X155596212Y-79920233D01*
X155607482Y-79962292D01*
X155679890Y-80087708D01*
X155782292Y-80190110D01*
X155907708Y-80262518D01*
X155949764Y-80273787D01*
X155429873Y-80793677D01*
X155429873Y-80793678D01*
X155464858Y-80819096D01*
X155640164Y-80908418D01*
X155827294Y-80969221D01*
X156021618Y-81000000D01*
X156218382Y-81000000D01*
X156412705Y-80969221D01*
X156599835Y-80908418D01*
X156775143Y-80819095D01*
X156810125Y-80793678D01*
X156810126Y-80793678D01*
X156290235Y-80273787D01*
X156332292Y-80262518D01*
X156457708Y-80190110D01*
X156560110Y-80087708D01*
X156632518Y-79962292D01*
X156643787Y-79920234D01*
X157163678Y-80440126D01*
X157163678Y-80440125D01*
X157189095Y-80405143D01*
X157278418Y-80229835D01*
X157339221Y-80042705D01*
X157370000Y-79848382D01*
X157370000Y-79651617D01*
X157339221Y-79457294D01*
X157278418Y-79270164D01*
X157189096Y-79094858D01*
X157163678Y-79059873D01*
X157163677Y-79059873D01*
X156643787Y-79579764D01*
X156632518Y-79537708D01*
X156560110Y-79412292D01*
X156457708Y-79309890D01*
X156332292Y-79237482D01*
X156290234Y-79226212D01*
X156810125Y-78706320D01*
X156810125Y-78706319D01*
X156775145Y-78680905D01*
X156599835Y-78591581D01*
X156412705Y-78530778D01*
X156218382Y-78500000D01*
X156021618Y-78500000D01*
X155827294Y-78530778D01*
X155640161Y-78591582D01*
X155464863Y-78680899D01*
X155464859Y-78680902D01*
X155429873Y-78706320D01*
X155429872Y-78706320D01*
X155949765Y-79226212D01*
X155907708Y-79237482D01*
X155782292Y-79309890D01*
X155679890Y-79412292D01*
X155607482Y-79537708D01*
X155596212Y-79579765D01*
X155076320Y-79059872D01*
X155076320Y-79059873D01*
X155050902Y-79094859D01*
X155050899Y-79094863D01*
X154961582Y-79270161D01*
X154900778Y-79457294D01*
X154870000Y-79651617D01*
X152290000Y-79651617D01*
X152259221Y-79457294D01*
X152198418Y-79270164D01*
X152109096Y-79094858D01*
X152083678Y-79059873D01*
X152083677Y-79059873D01*
X151563787Y-79579764D01*
X151552518Y-79537708D01*
X151480110Y-79412292D01*
X151377708Y-79309890D01*
X151252292Y-79237482D01*
X151210234Y-79226212D01*
X151730125Y-78706320D01*
X151730125Y-78706319D01*
X151695145Y-78680905D01*
X151519835Y-78591581D01*
X151332705Y-78530778D01*
X151138382Y-78500000D01*
X150941618Y-78500000D01*
X150747294Y-78530778D01*
X150560161Y-78591582D01*
X150384863Y-78680899D01*
X150384859Y-78680902D01*
X150349873Y-78706320D01*
X150349872Y-78706320D01*
X150869765Y-79226212D01*
X150827708Y-79237482D01*
X150702292Y-79309890D01*
X150599890Y-79412292D01*
X150527482Y-79537708D01*
X150516212Y-79579765D01*
X149996320Y-79059872D01*
X149996320Y-79059873D01*
X149970902Y-79094859D01*
X149970899Y-79094863D01*
X149881582Y-79270161D01*
X149820778Y-79457294D01*
X149790000Y-79651617D01*
X147210000Y-79651617D01*
X147179221Y-79457294D01*
X147118418Y-79270164D01*
X147029096Y-79094858D01*
X147003678Y-79059873D01*
X147003677Y-79059873D01*
X146483787Y-79579764D01*
X146472518Y-79537708D01*
X146400110Y-79412292D01*
X146297708Y-79309890D01*
X146172292Y-79237482D01*
X146130234Y-79226212D01*
X146650125Y-78706320D01*
X146650125Y-78706319D01*
X146615145Y-78680905D01*
X146439835Y-78591581D01*
X146252705Y-78530778D01*
X146058382Y-78500000D01*
X145861618Y-78500000D01*
X145667294Y-78530778D01*
X145480161Y-78591582D01*
X145304863Y-78680899D01*
X145304859Y-78680902D01*
X145269873Y-78706320D01*
X145269872Y-78706320D01*
X145789765Y-79226212D01*
X145747708Y-79237482D01*
X145622292Y-79309890D01*
X145519890Y-79412292D01*
X145447482Y-79537708D01*
X145436212Y-79579765D01*
X144916320Y-79059872D01*
X144916320Y-79059873D01*
X144890902Y-79094859D01*
X144890899Y-79094863D01*
X144801582Y-79270161D01*
X144740778Y-79457294D01*
X144710000Y-79651617D01*
X142130000Y-79651617D01*
X142099221Y-79457294D01*
X142038418Y-79270164D01*
X141949096Y-79094858D01*
X141923678Y-79059873D01*
X141923677Y-79059873D01*
X141403787Y-79579764D01*
X141392518Y-79537708D01*
X141320110Y-79412292D01*
X141217708Y-79309890D01*
X141092292Y-79237482D01*
X141050234Y-79226212D01*
X141570125Y-78706320D01*
X141570125Y-78706319D01*
X141535145Y-78680905D01*
X141359835Y-78591581D01*
X141172705Y-78530778D01*
X140978382Y-78500000D01*
X140781618Y-78500000D01*
X140587294Y-78530778D01*
X140400161Y-78591582D01*
X140224863Y-78680899D01*
X140224859Y-78680902D01*
X140189873Y-78706320D01*
X140189872Y-78706320D01*
X140709765Y-79226212D01*
X140667708Y-79237482D01*
X140542292Y-79309890D01*
X140439890Y-79412292D01*
X140367482Y-79537708D01*
X140356212Y-79579765D01*
X139836320Y-79059872D01*
X139836320Y-79059873D01*
X139810902Y-79094859D01*
X139810899Y-79094863D01*
X139721582Y-79270161D01*
X139660778Y-79457294D01*
X139630000Y-79651617D01*
X120250500Y-79651617D01*
X120250500Y-73413389D01*
X139799500Y-73413389D01*
X139799500Y-73586611D01*
X139826598Y-73757701D01*
X139880127Y-73922445D01*
X139958768Y-74076788D01*
X140060586Y-74216928D01*
X140183072Y-74339414D01*
X140323212Y-74441232D01*
X140477555Y-74519873D01*
X140642299Y-74573402D01*
X140813389Y-74600500D01*
X140813390Y-74600500D01*
X140986610Y-74600500D01*
X140986611Y-74600500D01*
X141157701Y-74573402D01*
X141322445Y-74519873D01*
X141476788Y-74441232D01*
X141616928Y-74339414D01*
X141739414Y-74216928D01*
X141841232Y-74076788D01*
X141919873Y-73922445D01*
X141973402Y-73757701D01*
X142000500Y-73586611D01*
X142000500Y-73413389D01*
X144799500Y-73413389D01*
X144799500Y-73586611D01*
X144826598Y-73757701D01*
X144880127Y-73922445D01*
X144958768Y-74076788D01*
X145060586Y-74216928D01*
X145183072Y-74339414D01*
X145323212Y-74441232D01*
X145477555Y-74519873D01*
X145642299Y-74573402D01*
X145813389Y-74600500D01*
X145813390Y-74600500D01*
X145986610Y-74600500D01*
X145986611Y-74600500D01*
X146157701Y-74573402D01*
X146322445Y-74519873D01*
X146476788Y-74441232D01*
X146616928Y-74339414D01*
X146739414Y-74216928D01*
X146841232Y-74076788D01*
X146919873Y-73922445D01*
X146973402Y-73757701D01*
X147000500Y-73586611D01*
X147000500Y-73413389D01*
X149799500Y-73413389D01*
X149799500Y-73586611D01*
X149826598Y-73757701D01*
X149880127Y-73922445D01*
X149958768Y-74076788D01*
X150060586Y-74216928D01*
X150183072Y-74339414D01*
X150323212Y-74441232D01*
X150477555Y-74519873D01*
X150642299Y-74573402D01*
X150813389Y-74600500D01*
X150813390Y-74600500D01*
X150986610Y-74600500D01*
X150986611Y-74600500D01*
X151157701Y-74573402D01*
X151322445Y-74519873D01*
X151476788Y-74441232D01*
X151616928Y-74339414D01*
X151739414Y-74216928D01*
X151841232Y-74076788D01*
X151919873Y-73922445D01*
X151973402Y-73757701D01*
X152000500Y-73586611D01*
X152000500Y-73413389D01*
X154799500Y-73413389D01*
X154799500Y-73586611D01*
X154826598Y-73757701D01*
X154880127Y-73922445D01*
X154958768Y-74076788D01*
X155060586Y-74216928D01*
X155183072Y-74339414D01*
X155323212Y-74441232D01*
X155477555Y-74519873D01*
X155642299Y-74573402D01*
X155813389Y-74600500D01*
X155813390Y-74600500D01*
X155986610Y-74600500D01*
X155986611Y-74600500D01*
X156157701Y-74573402D01*
X156322445Y-74519873D01*
X156476788Y-74441232D01*
X156616928Y-74339414D01*
X156739414Y-74216928D01*
X156841232Y-74076788D01*
X156919873Y-73922445D01*
X156973402Y-73757701D01*
X157000500Y-73586611D01*
X157000500Y-73413389D01*
X156973402Y-73242299D01*
X156919873Y-73077555D01*
X156841232Y-72923212D01*
X156739414Y-72783072D01*
X156616928Y-72660586D01*
X156476788Y-72558768D01*
X156322445Y-72480127D01*
X156157701Y-72426598D01*
X156157699Y-72426597D01*
X156157698Y-72426597D01*
X156026271Y-72405781D01*
X155986611Y-72399500D01*
X155813389Y-72399500D01*
X155773728Y-72405781D01*
X155642302Y-72426597D01*
X155477552Y-72480128D01*
X155323211Y-72558768D01*
X155243256Y-72616859D01*
X155183072Y-72660586D01*
X155183070Y-72660588D01*
X155183069Y-72660588D01*
X155060588Y-72783069D01*
X155060588Y-72783070D01*
X155060586Y-72783072D01*
X155016859Y-72843256D01*
X154958768Y-72923211D01*
X154880128Y-73077552D01*
X154826597Y-73242302D01*
X154799500Y-73413389D01*
X152000500Y-73413389D01*
X151973402Y-73242299D01*
X151919873Y-73077555D01*
X151841232Y-72923212D01*
X151739414Y-72783072D01*
X151616928Y-72660586D01*
X151476788Y-72558768D01*
X151322445Y-72480127D01*
X151157701Y-72426598D01*
X151157699Y-72426597D01*
X151157698Y-72426597D01*
X151026271Y-72405781D01*
X150986611Y-72399500D01*
X150813389Y-72399500D01*
X150773728Y-72405781D01*
X150642302Y-72426597D01*
X150477552Y-72480128D01*
X150323211Y-72558768D01*
X150243256Y-72616859D01*
X150183072Y-72660586D01*
X150183070Y-72660588D01*
X150183069Y-72660588D01*
X150060588Y-72783069D01*
X150060588Y-72783070D01*
X150060586Y-72783072D01*
X150016859Y-72843256D01*
X149958768Y-72923211D01*
X149880128Y-73077552D01*
X149826597Y-73242302D01*
X149799500Y-73413389D01*
X147000500Y-73413389D01*
X146973402Y-73242299D01*
X146919873Y-73077555D01*
X146841232Y-72923212D01*
X146739414Y-72783072D01*
X146616928Y-72660586D01*
X146476788Y-72558768D01*
X146322445Y-72480127D01*
X146157701Y-72426598D01*
X146157699Y-72426597D01*
X146157698Y-72426597D01*
X146026271Y-72405781D01*
X145986611Y-72399500D01*
X145813389Y-72399500D01*
X145773728Y-72405781D01*
X145642302Y-72426597D01*
X145477552Y-72480128D01*
X145323211Y-72558768D01*
X145243256Y-72616859D01*
X145183072Y-72660586D01*
X145183070Y-72660588D01*
X145183069Y-72660588D01*
X145060588Y-72783069D01*
X145060588Y-72783070D01*
X145060586Y-72783072D01*
X145016859Y-72843256D01*
X144958768Y-72923211D01*
X144880128Y-73077552D01*
X144826597Y-73242302D01*
X144799500Y-73413389D01*
X142000500Y-73413389D01*
X141973402Y-73242299D01*
X141919873Y-73077555D01*
X141841232Y-72923212D01*
X141739414Y-72783072D01*
X141616928Y-72660586D01*
X141476788Y-72558768D01*
X141322445Y-72480127D01*
X141157701Y-72426598D01*
X141157699Y-72426597D01*
X141157698Y-72426597D01*
X141026271Y-72405781D01*
X140986611Y-72399500D01*
X140813389Y-72399500D01*
X140773728Y-72405781D01*
X140642302Y-72426597D01*
X140477552Y-72480128D01*
X140323211Y-72558768D01*
X140243256Y-72616859D01*
X140183072Y-72660586D01*
X140183070Y-72660588D01*
X140183069Y-72660588D01*
X140060588Y-72783069D01*
X140060588Y-72783070D01*
X140060586Y-72783072D01*
X140016859Y-72843256D01*
X139958768Y-72923211D01*
X139880128Y-73077552D01*
X139826597Y-73242302D01*
X139799500Y-73413389D01*
X120250500Y-73413389D01*
X120250500Y-68413389D01*
X139799500Y-68413389D01*
X139799500Y-68586611D01*
X139826598Y-68757701D01*
X139880127Y-68922445D01*
X139958768Y-69076788D01*
X140060586Y-69216928D01*
X140183072Y-69339414D01*
X140323212Y-69441232D01*
X140477555Y-69519873D01*
X140642299Y-69573402D01*
X140813389Y-69600500D01*
X140813390Y-69600500D01*
X140986610Y-69600500D01*
X140986611Y-69600500D01*
X141157701Y-69573402D01*
X141322445Y-69519873D01*
X141476788Y-69441232D01*
X141616928Y-69339414D01*
X141739414Y-69216928D01*
X141841232Y-69076788D01*
X141919873Y-68922445D01*
X141973402Y-68757701D01*
X142000500Y-68586611D01*
X142000500Y-68413389D01*
X144799500Y-68413389D01*
X144799500Y-68586611D01*
X144826598Y-68757701D01*
X144880127Y-68922445D01*
X144958768Y-69076788D01*
X145060586Y-69216928D01*
X145183072Y-69339414D01*
X145323212Y-69441232D01*
X145477555Y-69519873D01*
X145642299Y-69573402D01*
X145813389Y-69600500D01*
X145813390Y-69600500D01*
X145986610Y-69600500D01*
X145986611Y-69600500D01*
X146157701Y-69573402D01*
X146322445Y-69519873D01*
X146476788Y-69441232D01*
X146616928Y-69339414D01*
X146739414Y-69216928D01*
X146841232Y-69076788D01*
X146919873Y-68922445D01*
X146973402Y-68757701D01*
X147000500Y-68586611D01*
X147000500Y-68413389D01*
X149799500Y-68413389D01*
X149799500Y-68586611D01*
X149826598Y-68757701D01*
X149880127Y-68922445D01*
X149958768Y-69076788D01*
X150060586Y-69216928D01*
X150183072Y-69339414D01*
X150323212Y-69441232D01*
X150477555Y-69519873D01*
X150642299Y-69573402D01*
X150813389Y-69600500D01*
X150813390Y-69600500D01*
X150986610Y-69600500D01*
X150986611Y-69600500D01*
X151157701Y-69573402D01*
X151322445Y-69519873D01*
X151476788Y-69441232D01*
X151616928Y-69339414D01*
X151739414Y-69216928D01*
X151841232Y-69076788D01*
X151919873Y-68922445D01*
X151973402Y-68757701D01*
X152000500Y-68586611D01*
X152000500Y-68413389D01*
X154799500Y-68413389D01*
X154799500Y-68586611D01*
X154826598Y-68757701D01*
X154880127Y-68922445D01*
X154958768Y-69076788D01*
X155060586Y-69216928D01*
X155183072Y-69339414D01*
X155323212Y-69441232D01*
X155477555Y-69519873D01*
X155642299Y-69573402D01*
X155813389Y-69600500D01*
X155813390Y-69600500D01*
X155986610Y-69600500D01*
X155986611Y-69600500D01*
X156157701Y-69573402D01*
X156322445Y-69519873D01*
X156476788Y-69441232D01*
X156616928Y-69339414D01*
X156739414Y-69216928D01*
X156841232Y-69076788D01*
X156919873Y-68922445D01*
X156973402Y-68757701D01*
X157000500Y-68586611D01*
X157000500Y-68413389D01*
X156973402Y-68242299D01*
X156919873Y-68077555D01*
X156841232Y-67923212D01*
X156739414Y-67783072D01*
X156616928Y-67660586D01*
X156476788Y-67558768D01*
X156322445Y-67480127D01*
X156157701Y-67426598D01*
X156157699Y-67426597D01*
X156157698Y-67426597D01*
X156026271Y-67405781D01*
X155986611Y-67399500D01*
X155813389Y-67399500D01*
X155773728Y-67405781D01*
X155642302Y-67426597D01*
X155477552Y-67480128D01*
X155323211Y-67558768D01*
X155243256Y-67616859D01*
X155183072Y-67660586D01*
X155183070Y-67660588D01*
X155183069Y-67660588D01*
X155060588Y-67783069D01*
X155060588Y-67783070D01*
X155060586Y-67783072D01*
X155036844Y-67815750D01*
X154958768Y-67923211D01*
X154880128Y-68077552D01*
X154826597Y-68242302D01*
X154799500Y-68413389D01*
X152000500Y-68413389D01*
X151973402Y-68242299D01*
X151919873Y-68077555D01*
X151841232Y-67923212D01*
X151739414Y-67783072D01*
X151616928Y-67660586D01*
X151476788Y-67558768D01*
X151322445Y-67480127D01*
X151157701Y-67426598D01*
X151157699Y-67426597D01*
X151157698Y-67426597D01*
X151026271Y-67405781D01*
X150986611Y-67399500D01*
X150813389Y-67399500D01*
X150773728Y-67405781D01*
X150642302Y-67426597D01*
X150477552Y-67480128D01*
X150323211Y-67558768D01*
X150243256Y-67616859D01*
X150183072Y-67660586D01*
X150183070Y-67660588D01*
X150183069Y-67660588D01*
X150060588Y-67783069D01*
X150060588Y-67783070D01*
X150060586Y-67783072D01*
X150036844Y-67815750D01*
X149958768Y-67923211D01*
X149880128Y-68077552D01*
X149826597Y-68242302D01*
X149799500Y-68413389D01*
X147000500Y-68413389D01*
X146973402Y-68242299D01*
X146919873Y-68077555D01*
X146841232Y-67923212D01*
X146739414Y-67783072D01*
X146616928Y-67660586D01*
X146476788Y-67558768D01*
X146322445Y-67480127D01*
X146157701Y-67426598D01*
X146157699Y-67426597D01*
X146157698Y-67426597D01*
X146026271Y-67405781D01*
X145986611Y-67399500D01*
X145813389Y-67399500D01*
X145773728Y-67405781D01*
X145642302Y-67426597D01*
X145477552Y-67480128D01*
X145323211Y-67558768D01*
X145243256Y-67616859D01*
X145183072Y-67660586D01*
X145183070Y-67660588D01*
X145183069Y-67660588D01*
X145060588Y-67783069D01*
X145060588Y-67783070D01*
X145060586Y-67783072D01*
X145036844Y-67815750D01*
X144958768Y-67923211D01*
X144880128Y-68077552D01*
X144826597Y-68242302D01*
X144799500Y-68413389D01*
X142000500Y-68413389D01*
X141973402Y-68242299D01*
X141919873Y-68077555D01*
X141841232Y-67923212D01*
X141739414Y-67783072D01*
X141616928Y-67660586D01*
X141476788Y-67558768D01*
X141322445Y-67480127D01*
X141157701Y-67426598D01*
X141157699Y-67426597D01*
X141157698Y-67426597D01*
X141026271Y-67405781D01*
X140986611Y-67399500D01*
X140813389Y-67399500D01*
X140773728Y-67405781D01*
X140642302Y-67426597D01*
X140477552Y-67480128D01*
X140323211Y-67558768D01*
X140243256Y-67616859D01*
X140183072Y-67660586D01*
X140183070Y-67660588D01*
X140183069Y-67660588D01*
X140060588Y-67783069D01*
X140060588Y-67783070D01*
X140060586Y-67783072D01*
X140036844Y-67815750D01*
X139958768Y-67923211D01*
X139880128Y-68077552D01*
X139826597Y-68242302D01*
X139799500Y-68413389D01*
X120250500Y-68413389D01*
X120250500Y-67753246D01*
X120250670Y-67746756D01*
X120267961Y-67416821D01*
X120269318Y-67403913D01*
X120270017Y-67399500D01*
X120320493Y-67080804D01*
X120323186Y-67068129D01*
X120407863Y-66752113D01*
X120411871Y-66739781D01*
X120529109Y-66434365D01*
X120534375Y-66422536D01*
X120682912Y-66131014D01*
X120689373Y-66119824D01*
X120867570Y-65845425D01*
X120875179Y-65834953D01*
X121081072Y-65580696D01*
X121089739Y-65571071D01*
X121321071Y-65339739D01*
X121330696Y-65331072D01*
X121584953Y-65125179D01*
X121595425Y-65117570D01*
X121869824Y-64939373D01*
X121881014Y-64932912D01*
X122172536Y-64784375D01*
X122184365Y-64779109D01*
X122489785Y-64661869D01*
X122502113Y-64657863D01*
X122818129Y-64573186D01*
X122830804Y-64570493D01*
X123153915Y-64519317D01*
X123166819Y-64517961D01*
X123496318Y-64500692D01*
X123503504Y-64500525D01*
X148436512Y-64650122D01*
G37*
%TD.AperFunction*%
%TD*%
M02*
