%TF.GenerationSoftware,KiCad,Pcbnew,9.0.7+1*%
%TF.CreationDate,Date%
%TF.ProjectId,Cellule_de_force_V2,43656c6c-756c-4655-9f64-655f666f7263,+ (Unreleased)*%
%TF.SameCoordinates,Original*%
%TF.FileFunction,Copper,L4,Bot*%
%TF.FilePolarity,Positive*%
%FSLAX46Y46*%
G04 Gerber Fmt 4.6, Leading zero omitted, Abs format (unit mm)*
G04 Created by KiCad*
%MOMM*%
%LPD*%
G01*
G04 APERTURE LIST*
G04 Aperture macros list*
%AMRoundRect*
0 Rectangle with rounded corners*
0 $1 Rounding radius*
0 $2 $3 $4 $5 $6 $7 $8 $9 X,Y pos of 4 corners*
0 Add a 4 corners polygon primitive as box body*
4,1,4,$2,$3,$4,$5,$6,$7,$8,$9,$2,$3,0*
0 Add four circle primitives for the rounded corners*
1,1,$1+$1,$2,$3*
1,1,$1+$1,$4,$5*
1,1,$1+$1,$6,$7*
1,1,$1+$1,$8,$9*
0 Add four rect primitives between the rounded corners*
20,1,$1+$1,$2,$3,$4,$5,0*
20,1,$1+$1,$4,$5,$6,$7,0*
20,1,$1+$1,$6,$7,$8,$9,0*
20,1,$1+$1,$8,$9,$2,$3,0*%
G04 Aperture macros list end*
%TA.AperFunction,ComponentPad*%
%ADD10C,0.800000*%
%TD*%
%TA.AperFunction,ComponentPad*%
%ADD11C,6.400000*%
%TD*%
%TA.AperFunction,ComponentPad*%
%ADD12RoundRect,0.250000X-0.600000X-0.725000X0.600000X-0.725000X0.600000X0.725000X-0.600000X0.725000X0*%
%TD*%
%TA.AperFunction,ComponentPad*%
%ADD13O,1.700000X1.950000*%
%TD*%
%TA.AperFunction,ComponentPad*%
%ADD14C,1.500000*%
%TD*%
%TA.AperFunction,HeatsinkPad*%
%ADD15C,0.500000*%
%TD*%
%TA.AperFunction,HeatsinkPad*%
%ADD16R,3.100000X1.800000*%
%TD*%
%TA.AperFunction,ComponentPad*%
%ADD17C,1.800000*%
%TD*%
%TA.AperFunction,SMDPad,CuDef*%
%ADD18C,1.500000*%
%TD*%
%TA.AperFunction,ViaPad*%
%ADD19C,0.550000*%
%TD*%
%TA.AperFunction,Conductor*%
%ADD20C,0.200000*%
%TD*%
%TA.AperFunction,Conductor*%
%ADD21C,0.250000*%
%TD*%
G04 APERTURE END LIST*
D10*
%TO.P,H3,1,1*%
%TO.N,GND*%
X121100000Y-111500000D03*
X121802944Y-109802944D03*
X121802944Y-113197056D03*
X123500000Y-109100000D03*
D11*
X123500000Y-111500000D03*
D10*
X123500000Y-113900000D03*
X125197056Y-109802944D03*
X125197056Y-113197056D03*
X125900000Y-111500000D03*
%TD*%
%TO.P,H2,1,1*%
%TO.N,GND*%
X121100000Y-67750000D03*
X121802944Y-66052944D03*
X121802944Y-69447056D03*
X123500000Y-65350000D03*
D11*
X123500000Y-67750000D03*
D10*
X123500000Y-70150000D03*
X125197056Y-66052944D03*
X125197056Y-69447056D03*
X125900000Y-67750000D03*
%TD*%
D12*
%TO.P,J1,1,Pin_1*%
%TO.N,+3.3V*%
X141100000Y-111375000D03*
D13*
%TO.P,J1,2,Pin_2*%
%TO.N,CS*%
X143600000Y-111375000D03*
%TO.P,J1,3,Pin_3*%
%TO.N,DIN*%
X146100000Y-111375000D03*
%TO.P,J1,4,Pin_4*%
%TO.N,DOUT*%
X148600000Y-111375000D03*
%TO.P,J1,5,Pin_5*%
%TO.N,SYNC*%
X151100000Y-111375000D03*
%TO.P,J1,6,Pin_6*%
%TO.N,SCLK*%
X153600000Y-111375000D03*
%TO.P,J1,7,Pin_7*%
%TO.N,GND*%
X156100000Y-111375000D03*
%TD*%
D10*
%TO.P,H4,1,1*%
%TO.N,GND*%
X171100000Y-111500000D03*
X171802944Y-109802944D03*
X171802944Y-113197056D03*
X173500000Y-109100000D03*
D11*
X173500000Y-111500000D03*
D10*
X173500000Y-113900000D03*
X175197056Y-109802944D03*
X175197056Y-113197056D03*
X175900000Y-111500000D03*
%TD*%
%TO.P,H1,1,1*%
%TO.N,GND*%
X171100000Y-68000000D03*
X171802944Y-66302944D03*
X171802944Y-69697056D03*
X173500000Y-65600000D03*
D11*
X173500000Y-68000000D03*
D10*
X173500000Y-70400000D03*
X175197056Y-66302944D03*
X175197056Y-69697056D03*
X175900000Y-68000000D03*
%TD*%
D14*
%TO.P,H5,1*%
%TO.N,GND*%
X158750000Y-82380000D03*
%TO.P,H5,2*%
X158750000Y-87460000D03*
%TO.P,H5,3*%
X158750000Y-92540000D03*
%TO.P,H5,4*%
X158750000Y-97620000D03*
%TO.P,H5,5*%
X156120000Y-100250000D03*
%TO.P,H5,6*%
X151040000Y-100250000D03*
%TO.P,H5,7*%
X145960000Y-100250000D03*
%TO.P,H5,9*%
X140880000Y-100250000D03*
%TO.P,H5,10*%
X138250000Y-97620000D03*
%TO.P,H5,11*%
X138250000Y-92540000D03*
%TO.P,H5,12*%
X138250000Y-87460000D03*
%TO.P,H5,13*%
X138250000Y-82380000D03*
%TO.P,H5,14*%
X140880000Y-79750000D03*
%TO.P,H5,15*%
X145960000Y-79750000D03*
%TO.P,H5,16*%
X151040000Y-79750000D03*
%TO.P,H5,17*%
X156120000Y-79750000D03*
%TD*%
D15*
%TO.P,U2,11,GND*%
%TO.N,GND*%
X126210000Y-85170000D03*
X127510000Y-85170000D03*
X128810000Y-85170000D03*
D16*
X127510000Y-84520000D03*
D15*
X126210000Y-83870000D03*
X127510000Y-83870000D03*
X128810000Y-83870000D03*
%TD*%
D17*
%TO.P,J3,1*%
%TO.N,IN-SENSE-*%
X155900000Y-73500000D03*
%TO.P,J3,2*%
%TO.N,IN-SENSE+*%
X150900000Y-73500000D03*
%TO.P,J3,3*%
%TO.N,IN-OUT+*%
X145900000Y-73500000D03*
%TO.P,J3,4*%
%TO.N,IN-OUT-*%
X140900000Y-73500000D03*
%TO.P,J3,A1*%
%TO.N,IN-SENSE-*%
X155900000Y-68500000D03*
%TO.P,J3,A2*%
%TO.N,IN-SENSE+*%
X150900000Y-68500000D03*
%TO.P,J3,A3*%
%TO.N,IN-OUT+*%
X145900000Y-68500000D03*
%TO.P,J3,A4*%
%TO.N,IN-OUT-*%
X140900000Y-68500000D03*
%TD*%
D18*
%TO.P,TP15,1,1*%
%TO.N,/Project Architecture/TPS61086_3.3V_to_6V/SS*%
X130860000Y-97900000D03*
%TD*%
%TO.P,TP2,1,1*%
%TO.N,MCLK1*%
X151641419Y-95700000D03*
%TD*%
%TO.P,TP16,1,1*%
%TO.N,/Project Architecture/TPS61086_3.3V_to_6V/COMP*%
X133020000Y-94390000D03*
%TD*%
%TO.P,TP14,1,1*%
%TO.N,/Project Architecture/TPS61086_3.3V_to_6V/FB*%
X129530000Y-91530000D03*
%TD*%
%TO.P,TP18,1,1*%
%TO.N,P3*%
X155470000Y-91050000D03*
%TD*%
D19*
%TO.N,GND*%
X143150000Y-90020000D03*
X126050000Y-106820000D03*
X126130000Y-100280000D03*
X156490000Y-83770000D03*
X143170000Y-95790000D03*
X126170000Y-102660000D03*
X150330000Y-83770000D03*
X141650000Y-90020000D03*
X147000000Y-91825000D03*
X140075000Y-84660000D03*
X154525000Y-95150000D03*
X141660000Y-95800000D03*
X126130000Y-104970000D03*
X146235000Y-84660000D03*
X150100000Y-89875000D03*
X147035000Y-91175000D03*
%TO.N,MCLK1*%
X152700000Y-96450000D03*
%TO.N,Net-(U1-~{CS})*%
X145900000Y-104100000D03*
X149575735Y-103250735D03*
%TO.N,Net-(U1-P2)*%
X149150000Y-102300000D03*
X132050000Y-108900000D03*
%TO.N,/Project Architecture/TPS61086_3.3V_to_6V/SS*%
X129530000Y-97900000D03*
%TO.N,/Project Architecture/TPS61086_3.3V_to_6V/FB*%
X128650000Y-90850000D03*
%TO.N,/Project Architecture/TPS61086_3.3V_to_6V/COMP*%
X131050000Y-94725000D03*
%TO.N,P3*%
X154525000Y-91825000D03*
%TO.N,+3.3V*%
X127200000Y-94150000D03*
X127775000Y-98925000D03*
%TD*%
D20*
%TO.N,MCLK1*%
X152700000Y-96450000D02*
X152391419Y-96450000D01*
X152391419Y-96450000D02*
X151641419Y-95700000D01*
D21*
%TO.N,Net-(U1-~{CS})*%
X149575735Y-103250735D02*
X146749265Y-103250735D01*
X146749265Y-103250735D02*
X145900000Y-104100000D01*
X149644215Y-103250735D02*
X149575735Y-103250735D01*
%TO.N,Net-(U1-P2)*%
X136850000Y-102300000D02*
X132050000Y-107100000D01*
X132050000Y-107100000D02*
X132050000Y-108900000D01*
X149150000Y-102300000D02*
X136850000Y-102300000D01*
D20*
%TO.N,/Project Architecture/TPS61086_3.3V_to_6V/SS*%
X129530000Y-97900000D02*
X130860000Y-97900000D01*
%TO.N,/Project Architecture/TPS61086_3.3V_to_6V/FB*%
X129330000Y-91530000D02*
X129530000Y-91530000D01*
X128650000Y-90850000D02*
X129330000Y-91530000D01*
%TO.N,/Project Architecture/TPS61086_3.3V_to_6V/COMP*%
X131050000Y-94725000D02*
X131070000Y-94745000D01*
X131070000Y-94745000D02*
X132665000Y-94745000D01*
X132665000Y-94745000D02*
X133020000Y-94390000D01*
%TO.N,P3*%
X154525000Y-91695000D02*
X154525000Y-91825000D01*
X155470000Y-91050000D02*
X155170000Y-91050000D01*
X155170000Y-91050000D02*
X154525000Y-91695000D01*
%TO.N,+3.3V*%
X127775000Y-94725000D02*
X127200000Y-94150000D01*
X127775000Y-98925000D02*
X127775000Y-94725000D01*
%TD*%
%TA.AperFunction,Conductor*%
%TO.N,GND*%
G36*
X148436512Y-64650122D02*
G01*
X148437767Y-64650253D01*
X148449168Y-64650298D01*
X148449170Y-64650299D01*
X148499130Y-64650498D01*
X148548324Y-64650794D01*
X148548563Y-64650696D01*
X173444234Y-64750278D01*
X173446707Y-64750500D01*
X173455830Y-64750500D01*
X173496770Y-64750500D01*
X173503260Y-64750670D01*
X173833178Y-64767961D01*
X173846086Y-64769318D01*
X174169191Y-64820492D01*
X174181874Y-64823187D01*
X174497881Y-64907861D01*
X174510219Y-64911871D01*
X174815627Y-65029106D01*
X174827470Y-65034378D01*
X175118977Y-65182908D01*
X175130183Y-65189378D01*
X175404565Y-65367564D01*
X175415055Y-65375186D01*
X175669293Y-65581064D01*
X175678938Y-65589749D01*
X175910250Y-65821061D01*
X175918935Y-65830706D01*
X176124813Y-66084944D01*
X176132438Y-66095438D01*
X176310617Y-66369810D01*
X176317098Y-66381035D01*
X176465616Y-66672519D01*
X176470895Y-66684377D01*
X176588128Y-66989781D01*
X176592139Y-67002124D01*
X176676810Y-67318119D01*
X176679508Y-67330815D01*
X176730681Y-67653913D01*
X176732038Y-67666821D01*
X176749330Y-67996756D01*
X176749500Y-68003246D01*
X176749500Y-111496753D01*
X176749330Y-111503243D01*
X176732038Y-111833178D01*
X176730681Y-111846086D01*
X176679508Y-112169184D01*
X176676810Y-112181880D01*
X176592139Y-112497875D01*
X176588128Y-112510218D01*
X176470895Y-112815622D01*
X176465616Y-112827480D01*
X176317098Y-113118964D01*
X176310612Y-113130197D01*
X176303266Y-113141510D01*
X176132442Y-113404555D01*
X176124813Y-113415055D01*
X175918935Y-113669293D01*
X175910250Y-113678938D01*
X175678938Y-113910250D01*
X175669293Y-113918935D01*
X175415055Y-114124813D01*
X175404555Y-114132442D01*
X175385621Y-114144738D01*
X175130197Y-114310612D01*
X175118964Y-114317098D01*
X174827480Y-114465616D01*
X174815622Y-114470895D01*
X174510218Y-114588128D01*
X174497875Y-114592139D01*
X174181880Y-114676810D01*
X174169184Y-114679508D01*
X173846086Y-114730681D01*
X173833178Y-114732038D01*
X173503244Y-114749330D01*
X173496754Y-114749500D01*
X123503246Y-114749500D01*
X123496756Y-114749330D01*
X123166821Y-114732038D01*
X123153913Y-114730681D01*
X122830815Y-114679508D01*
X122818119Y-114676810D01*
X122502124Y-114592139D01*
X122489781Y-114588128D01*
X122184377Y-114470895D01*
X122172519Y-114465616D01*
X121881029Y-114317094D01*
X121869810Y-114310617D01*
X121595438Y-114132438D01*
X121584944Y-114124813D01*
X121330706Y-113918935D01*
X121321061Y-113910250D01*
X121089749Y-113678938D01*
X121081064Y-113669293D01*
X120875186Y-113415055D01*
X120867564Y-113404565D01*
X120797160Y-113296153D01*
X138699500Y-113296153D01*
X138699500Y-113453846D01*
X138730261Y-113608489D01*
X138730264Y-113608501D01*
X138790602Y-113754172D01*
X138790609Y-113754185D01*
X138878210Y-113885288D01*
X138878213Y-113885292D01*
X138989707Y-113996786D01*
X138989711Y-113996789D01*
X139120814Y-114084390D01*
X139120827Y-114084397D01*
X139228271Y-114128901D01*
X139266503Y-114144737D01*
X139421153Y-114175499D01*
X139421156Y-114175500D01*
X139421158Y-114175500D01*
X139578844Y-114175500D01*
X139578845Y-114175499D01*
X139733497Y-114144737D01*
X139879179Y-114084394D01*
X140010289Y-113996789D01*
X140121789Y-113885289D01*
X140209394Y-113754179D01*
X140269737Y-113608497D01*
X140300500Y-113453842D01*
X140300500Y-113296158D01*
X140300500Y-113296155D01*
X140300499Y-113296153D01*
X140269738Y-113141510D01*
X140269737Y-113141503D01*
X140260401Y-113118964D01*
X140209397Y-112995827D01*
X140209390Y-112995814D01*
X140121789Y-112864711D01*
X140121786Y-112864707D01*
X140010292Y-112753213D01*
X140010288Y-112753210D01*
X139879185Y-112665609D01*
X139879172Y-112665602D01*
X139733501Y-112605264D01*
X139733489Y-112605261D01*
X139578845Y-112574500D01*
X139578842Y-112574500D01*
X139421158Y-112574500D01*
X139421155Y-112574500D01*
X139266510Y-112605261D01*
X139266498Y-112605264D01*
X139120827Y-112665602D01*
X139120814Y-112665609D01*
X138989711Y-112753210D01*
X138989707Y-112753213D01*
X138878213Y-112864707D01*
X138878210Y-112864711D01*
X138790609Y-112995814D01*
X138790602Y-112995827D01*
X138730264Y-113141498D01*
X138730261Y-113141510D01*
X138699500Y-113296153D01*
X120797160Y-113296153D01*
X120689383Y-113130191D01*
X120682908Y-113118977D01*
X120534378Y-112827470D01*
X120529104Y-112815622D01*
X120509683Y-112765029D01*
X120411871Y-112510218D01*
X120407860Y-112497875D01*
X120387569Y-112422150D01*
X120323187Y-112181874D01*
X120320491Y-112169184D01*
X120318128Y-112154266D01*
X120269318Y-111846086D01*
X120267961Y-111833178D01*
X120250670Y-111503243D01*
X120250500Y-111496753D01*
X120250500Y-110595730D01*
X140049500Y-110595730D01*
X140049500Y-112154269D01*
X140052353Y-112184699D01*
X140052353Y-112184701D01*
X140097206Y-112312880D01*
X140097207Y-112312882D01*
X140177850Y-112422150D01*
X140287118Y-112502793D01*
X140308089Y-112510131D01*
X140415299Y-112547646D01*
X140445730Y-112550500D01*
X140445734Y-112550500D01*
X141754270Y-112550500D01*
X141784699Y-112547646D01*
X141784701Y-112547646D01*
X141848790Y-112525219D01*
X141912882Y-112502793D01*
X142022150Y-112422150D01*
X142102793Y-112312882D01*
X142139648Y-112207557D01*
X142147646Y-112184701D01*
X142147646Y-112184699D01*
X142150500Y-112154269D01*
X142150500Y-111146530D01*
X142549500Y-111146530D01*
X142549500Y-111603469D01*
X142589868Y-111806412D01*
X142589870Y-111806420D01*
X142607921Y-111850000D01*
X142669059Y-111997598D01*
X142682836Y-112018217D01*
X142784024Y-112169657D01*
X142930342Y-112315975D01*
X142930345Y-112315977D01*
X143102402Y-112430941D01*
X143293580Y-112510130D01*
X143482187Y-112547646D01*
X143496530Y-112550499D01*
X143496534Y-112550500D01*
X143496535Y-112550500D01*
X143703466Y-112550500D01*
X143703467Y-112550499D01*
X143906420Y-112510130D01*
X144097598Y-112430941D01*
X144269655Y-112315977D01*
X144415977Y-112169655D01*
X144530941Y-111997598D01*
X144610130Y-111806420D01*
X144650500Y-111603465D01*
X144650500Y-111146535D01*
X144650499Y-111146530D01*
X145049500Y-111146530D01*
X145049500Y-111603469D01*
X145089868Y-111806412D01*
X145089870Y-111806420D01*
X145107921Y-111850000D01*
X145169059Y-111997598D01*
X145182836Y-112018217D01*
X145284024Y-112169657D01*
X145430342Y-112315975D01*
X145430345Y-112315977D01*
X145602402Y-112430941D01*
X145793580Y-112510130D01*
X145982187Y-112547646D01*
X145996530Y-112550499D01*
X145996534Y-112550500D01*
X145996535Y-112550500D01*
X146203466Y-112550500D01*
X146203467Y-112550499D01*
X146406420Y-112510130D01*
X146597598Y-112430941D01*
X146769655Y-112315977D01*
X146915977Y-112169655D01*
X147030941Y-111997598D01*
X147110130Y-111806420D01*
X147150500Y-111603465D01*
X147150500Y-111146535D01*
X147150499Y-111146530D01*
X147549500Y-111146530D01*
X147549500Y-111603469D01*
X147589868Y-111806412D01*
X147589870Y-111806420D01*
X147607921Y-111850000D01*
X147669059Y-111997598D01*
X147682836Y-112018217D01*
X147784024Y-112169657D01*
X147930342Y-112315975D01*
X147930345Y-112315977D01*
X148102402Y-112430941D01*
X148293580Y-112510130D01*
X148482187Y-112547646D01*
X148496530Y-112550499D01*
X148496534Y-112550500D01*
X148496535Y-112550500D01*
X148703466Y-112550500D01*
X148703467Y-112550499D01*
X148906420Y-112510130D01*
X149097598Y-112430941D01*
X149269655Y-112315977D01*
X149415977Y-112169655D01*
X149530941Y-111997598D01*
X149610130Y-111806420D01*
X149650500Y-111603465D01*
X149650500Y-111146535D01*
X149650499Y-111146530D01*
X150049500Y-111146530D01*
X150049500Y-111603469D01*
X150089868Y-111806412D01*
X150089870Y-111806420D01*
X150107921Y-111850000D01*
X150169059Y-111997598D01*
X150182836Y-112018217D01*
X150284024Y-112169657D01*
X150430342Y-112315975D01*
X150430345Y-112315977D01*
X150602402Y-112430941D01*
X150793580Y-112510130D01*
X150982187Y-112547646D01*
X150996530Y-112550499D01*
X150996534Y-112550500D01*
X150996535Y-112550500D01*
X151203466Y-112550500D01*
X151203467Y-112550499D01*
X151406420Y-112510130D01*
X151597598Y-112430941D01*
X151769655Y-112315977D01*
X151915977Y-112169655D01*
X152030941Y-111997598D01*
X152110130Y-111806420D01*
X152150500Y-111603465D01*
X152150500Y-111146535D01*
X152150499Y-111146530D01*
X152549500Y-111146530D01*
X152549500Y-111603469D01*
X152589868Y-111806412D01*
X152589870Y-111806420D01*
X152607921Y-111850000D01*
X152669059Y-111997598D01*
X152682836Y-112018217D01*
X152784024Y-112169657D01*
X152930342Y-112315975D01*
X152930345Y-112315977D01*
X153102402Y-112430941D01*
X153293580Y-112510130D01*
X153482187Y-112547646D01*
X153496530Y-112550499D01*
X153496534Y-112550500D01*
X153496535Y-112550500D01*
X153703466Y-112550500D01*
X153703467Y-112550499D01*
X153906420Y-112510130D01*
X154097598Y-112430941D01*
X154269655Y-112315977D01*
X154415977Y-112169655D01*
X154530941Y-111997598D01*
X154576748Y-111887009D01*
X154620589Y-111832606D01*
X154686883Y-111810541D01*
X154754582Y-111827820D01*
X154802193Y-111878957D01*
X154809240Y-111896144D01*
X154848904Y-112018216D01*
X154945379Y-112207557D01*
X155070272Y-112379459D01*
X155070276Y-112379464D01*
X155220535Y-112529723D01*
X155220540Y-112529727D01*
X155392442Y-112654620D01*
X155581782Y-112751095D01*
X155783871Y-112816757D01*
X155850000Y-112827231D01*
X155850000Y-111779145D01*
X155916657Y-111817630D01*
X156037465Y-111850000D01*
X156162535Y-111850000D01*
X156283343Y-111817630D01*
X156350000Y-111779145D01*
X156350000Y-112827230D01*
X156416126Y-112816757D01*
X156416129Y-112816757D01*
X156618217Y-112751095D01*
X156807557Y-112654620D01*
X156979459Y-112529727D01*
X156979464Y-112529723D01*
X157129723Y-112379464D01*
X157129727Y-112379459D01*
X157254620Y-112207557D01*
X157351095Y-112018217D01*
X157416757Y-111816130D01*
X157416757Y-111816127D01*
X157447030Y-111625000D01*
X156504146Y-111625000D01*
X156542630Y-111558343D01*
X156575000Y-111437535D01*
X156575000Y-111312465D01*
X156542630Y-111191657D01*
X156504146Y-111125000D01*
X157447030Y-111125000D01*
X157416757Y-110933872D01*
X157416757Y-110933869D01*
X157351095Y-110731782D01*
X157254620Y-110542442D01*
X157129727Y-110370540D01*
X157129723Y-110370535D01*
X156979464Y-110220276D01*
X156979459Y-110220272D01*
X156807557Y-110095379D01*
X156618215Y-109998903D01*
X156416124Y-109933241D01*
X156350000Y-109922768D01*
X156350000Y-110970854D01*
X156283343Y-110932370D01*
X156162535Y-110900000D01*
X156037465Y-110900000D01*
X155916657Y-110932370D01*
X155850000Y-110970854D01*
X155850000Y-109922768D01*
X155849999Y-109922768D01*
X155783875Y-109933241D01*
X155581784Y-109998903D01*
X155392442Y-110095379D01*
X155220540Y-110220272D01*
X155220535Y-110220276D01*
X155070276Y-110370535D01*
X155070272Y-110370540D01*
X154945379Y-110542442D01*
X154848905Y-110731781D01*
X154809240Y-110853856D01*
X154769802Y-110911531D01*
X154705443Y-110938729D01*
X154636597Y-110926814D01*
X154585121Y-110879570D01*
X154576748Y-110862990D01*
X154530941Y-110752403D01*
X154530941Y-110752402D01*
X154415977Y-110580345D01*
X154415975Y-110580342D01*
X154269657Y-110434024D01*
X154174638Y-110370535D01*
X154097598Y-110319059D01*
X153906420Y-110239870D01*
X153906412Y-110239868D01*
X153703469Y-110199500D01*
X153703465Y-110199500D01*
X153496535Y-110199500D01*
X153496530Y-110199500D01*
X153293587Y-110239868D01*
X153293579Y-110239870D01*
X153102403Y-110319058D01*
X152930342Y-110434024D01*
X152784024Y-110580342D01*
X152669058Y-110752403D01*
X152589870Y-110943579D01*
X152589868Y-110943587D01*
X152549500Y-111146530D01*
X152150499Y-111146530D01*
X152110130Y-110943580D01*
X152030941Y-110752402D01*
X151915977Y-110580345D01*
X151915975Y-110580342D01*
X151769657Y-110434024D01*
X151674638Y-110370535D01*
X151597598Y-110319059D01*
X151406420Y-110239870D01*
X151406412Y-110239868D01*
X151203469Y-110199500D01*
X151203465Y-110199500D01*
X150996535Y-110199500D01*
X150996530Y-110199500D01*
X150793587Y-110239868D01*
X150793579Y-110239870D01*
X150602403Y-110319058D01*
X150430342Y-110434024D01*
X150284024Y-110580342D01*
X150169058Y-110752403D01*
X150089870Y-110943579D01*
X150089868Y-110943587D01*
X150049500Y-111146530D01*
X149650499Y-111146530D01*
X149610130Y-110943580D01*
X149530941Y-110752402D01*
X149415977Y-110580345D01*
X149415975Y-110580342D01*
X149269657Y-110434024D01*
X149174638Y-110370535D01*
X149097598Y-110319059D01*
X148906420Y-110239870D01*
X148906412Y-110239868D01*
X148703469Y-110199500D01*
X148703465Y-110199500D01*
X148496535Y-110199500D01*
X148496530Y-110199500D01*
X148293587Y-110239868D01*
X148293579Y-110239870D01*
X148102403Y-110319058D01*
X147930342Y-110434024D01*
X147784024Y-110580342D01*
X147669058Y-110752403D01*
X147589870Y-110943579D01*
X147589868Y-110943587D01*
X147549500Y-111146530D01*
X147150499Y-111146530D01*
X147110130Y-110943580D01*
X147030941Y-110752402D01*
X146915977Y-110580345D01*
X146915975Y-110580342D01*
X146769657Y-110434024D01*
X146674638Y-110370535D01*
X146597598Y-110319059D01*
X146406420Y-110239870D01*
X146406412Y-110239868D01*
X146203469Y-110199500D01*
X146203465Y-110199500D01*
X145996535Y-110199500D01*
X145996530Y-110199500D01*
X145793587Y-110239868D01*
X145793579Y-110239870D01*
X145602403Y-110319058D01*
X145430342Y-110434024D01*
X145284024Y-110580342D01*
X145169058Y-110752403D01*
X145089870Y-110943579D01*
X145089868Y-110943587D01*
X145049500Y-111146530D01*
X144650499Y-111146530D01*
X144610130Y-110943580D01*
X144530941Y-110752402D01*
X144415977Y-110580345D01*
X144415975Y-110580342D01*
X144269657Y-110434024D01*
X144174638Y-110370535D01*
X144097598Y-110319059D01*
X143906420Y-110239870D01*
X143906412Y-110239868D01*
X143703469Y-110199500D01*
X143703465Y-110199500D01*
X143496535Y-110199500D01*
X143496530Y-110199500D01*
X143293587Y-110239868D01*
X143293579Y-110239870D01*
X143102403Y-110319058D01*
X142930342Y-110434024D01*
X142784024Y-110580342D01*
X142669058Y-110752403D01*
X142589870Y-110943579D01*
X142589868Y-110943587D01*
X142549500Y-111146530D01*
X142150500Y-111146530D01*
X142150500Y-110595730D01*
X142147646Y-110565300D01*
X142147646Y-110565298D01*
X142102793Y-110437119D01*
X142102792Y-110437117D01*
X142022150Y-110327850D01*
X141912882Y-110247207D01*
X141912880Y-110247206D01*
X141784700Y-110202353D01*
X141754270Y-110199500D01*
X141754266Y-110199500D01*
X140445734Y-110199500D01*
X140445730Y-110199500D01*
X140415300Y-110202353D01*
X140415298Y-110202353D01*
X140287119Y-110247206D01*
X140287117Y-110247207D01*
X140177850Y-110327850D01*
X140097207Y-110437117D01*
X140097206Y-110437119D01*
X140052353Y-110565298D01*
X140052353Y-110565300D01*
X140049500Y-110595730D01*
X120250500Y-110595730D01*
X120250500Y-108837399D01*
X131574500Y-108837399D01*
X131574500Y-108962601D01*
X131606905Y-109083536D01*
X131669505Y-109191964D01*
X131758036Y-109280495D01*
X131866464Y-109343095D01*
X131987399Y-109375500D01*
X131987401Y-109375500D01*
X132112599Y-109375500D01*
X132112601Y-109375500D01*
X132233536Y-109343095D01*
X132341964Y-109280495D01*
X132430495Y-109191964D01*
X132493095Y-109083536D01*
X132525500Y-108962601D01*
X132525500Y-108837399D01*
X132493095Y-108716464D01*
X132430495Y-108608036D01*
X132411819Y-108589360D01*
X132378334Y-108528037D01*
X132375500Y-108501679D01*
X132375500Y-107286189D01*
X132395185Y-107219150D01*
X132411819Y-107198508D01*
X136948508Y-102661819D01*
X137009831Y-102628334D01*
X137036189Y-102625500D01*
X148751679Y-102625500D01*
X148773585Y-102631932D01*
X148796340Y-102633822D01*
X148809757Y-102642553D01*
X148818718Y-102645185D01*
X148827121Y-102651090D01*
X148833590Y-102656049D01*
X148858036Y-102680495D01*
X148888178Y-102697897D01*
X148894606Y-102702825D01*
X148910633Y-102724754D01*
X148929379Y-102744414D01*
X148930946Y-102752548D01*
X148935834Y-102759235D01*
X148937461Y-102786344D01*
X148942603Y-102813021D01*
X148939523Y-102820712D01*
X148940020Y-102828979D01*
X148926731Y-102852666D01*
X148916635Y-102877886D01*
X148909887Y-102882690D01*
X148905835Y-102889915D01*
X148881846Y-102902659D01*
X148859721Y-102918415D01*
X148848701Y-102920268D01*
X148844133Y-102922695D01*
X148837529Y-102922146D01*
X148819164Y-102925235D01*
X146706412Y-102925235D01*
X146623624Y-102947417D01*
X146549403Y-102990270D01*
X146549400Y-102990272D01*
X145951492Y-103588181D01*
X145890169Y-103621666D01*
X145863811Y-103624500D01*
X145837399Y-103624500D01*
X145756775Y-103646103D01*
X145716463Y-103656905D01*
X145608037Y-103719504D01*
X145608034Y-103719506D01*
X145519506Y-103808034D01*
X145519504Y-103808037D01*
X145456905Y-103916463D01*
X145456905Y-103916464D01*
X145424500Y-104037399D01*
X145424500Y-104162601D01*
X145456905Y-104283536D01*
X145519505Y-104391964D01*
X145608036Y-104480495D01*
X145716464Y-104543095D01*
X145837399Y-104575500D01*
X145837401Y-104575500D01*
X145962599Y-104575500D01*
X145962601Y-104575500D01*
X146083536Y-104543095D01*
X146191964Y-104480495D01*
X146280495Y-104391964D01*
X146343095Y-104283536D01*
X146375500Y-104162601D01*
X146375500Y-104136189D01*
X146395185Y-104069150D01*
X146411819Y-104048508D01*
X146847773Y-103612554D01*
X146909096Y-103579069D01*
X146935454Y-103576235D01*
X149177414Y-103576235D01*
X149244453Y-103595920D01*
X149265095Y-103612554D01*
X149283771Y-103631230D01*
X149392199Y-103693830D01*
X149513134Y-103726235D01*
X149513136Y-103726235D01*
X149638334Y-103726235D01*
X149638336Y-103726235D01*
X149759271Y-103693830D01*
X149867699Y-103631230D01*
X149956230Y-103542699D01*
X150018830Y-103434271D01*
X150051235Y-103313336D01*
X150051235Y-103188134D01*
X150018830Y-103067199D01*
X149956230Y-102958771D01*
X149867699Y-102870240D01*
X149759271Y-102807640D01*
X149759272Y-102807640D01*
X149638333Y-102775234D01*
X149630277Y-102774174D01*
X149630484Y-102772599D01*
X149572419Y-102755550D01*
X149526664Y-102702746D01*
X149516720Y-102633588D01*
X149532070Y-102589236D01*
X149532792Y-102587983D01*
X149593095Y-102483536D01*
X149625500Y-102362601D01*
X149625500Y-102237399D01*
X149593095Y-102116464D01*
X149530495Y-102008036D01*
X149441964Y-101919505D01*
X149333536Y-101856905D01*
X149333537Y-101856905D01*
X149293224Y-101846103D01*
X149212601Y-101824500D01*
X149087399Y-101824500D01*
X149006775Y-101846103D01*
X148966463Y-101856905D01*
X148858037Y-101919504D01*
X148858034Y-101919506D01*
X148839360Y-101938181D01*
X148778037Y-101971666D01*
X148751679Y-101974500D01*
X136807147Y-101974500D01*
X136724359Y-101996682D01*
X136650138Y-102039535D01*
X136650135Y-102039537D01*
X131789537Y-106900135D01*
X131789533Y-106900141D01*
X131746681Y-106974361D01*
X131746682Y-106974362D01*
X131724500Y-107057147D01*
X131724500Y-108501679D01*
X131704815Y-108568718D01*
X131688181Y-108589360D01*
X131669506Y-108608034D01*
X131669504Y-108608037D01*
X131606905Y-108716463D01*
X131606905Y-108716464D01*
X131574500Y-108837399D01*
X120250500Y-108837399D01*
X120250500Y-100151617D01*
X139630000Y-100151617D01*
X139630000Y-100348382D01*
X139660778Y-100542705D01*
X139721581Y-100729835D01*
X139810905Y-100905145D01*
X139836319Y-100940125D01*
X139836320Y-100940125D01*
X140356212Y-100420233D01*
X140367482Y-100462292D01*
X140439890Y-100587708D01*
X140542292Y-100690110D01*
X140667708Y-100762518D01*
X140709764Y-100773787D01*
X140189873Y-101293677D01*
X140189873Y-101293678D01*
X140224858Y-101319096D01*
X140400164Y-101408418D01*
X140587294Y-101469221D01*
X140781618Y-101500000D01*
X140978382Y-101500000D01*
X141172705Y-101469221D01*
X141359835Y-101408418D01*
X141535143Y-101319095D01*
X141570125Y-101293678D01*
X141570126Y-101293678D01*
X141050235Y-100773787D01*
X141092292Y-100762518D01*
X141217708Y-100690110D01*
X141320110Y-100587708D01*
X141392518Y-100462292D01*
X141403787Y-100420234D01*
X141923678Y-100940126D01*
X141923678Y-100940125D01*
X141949095Y-100905143D01*
X142038418Y-100729835D01*
X142099221Y-100542705D01*
X142130000Y-100348382D01*
X142130000Y-100151617D01*
X144710000Y-100151617D01*
X144710000Y-100348382D01*
X144740778Y-100542705D01*
X144801581Y-100729835D01*
X144890905Y-100905145D01*
X144916319Y-100940125D01*
X144916320Y-100940125D01*
X145436212Y-100420233D01*
X145447482Y-100462292D01*
X145519890Y-100587708D01*
X145622292Y-100690110D01*
X145747708Y-100762518D01*
X145789764Y-100773787D01*
X145269873Y-101293677D01*
X145269873Y-101293678D01*
X145304858Y-101319096D01*
X145480164Y-101408418D01*
X145667294Y-101469221D01*
X145861618Y-101500000D01*
X146058382Y-101500000D01*
X146252705Y-101469221D01*
X146439835Y-101408418D01*
X146615143Y-101319095D01*
X146650125Y-101293678D01*
X146650126Y-101293678D01*
X146130235Y-100773787D01*
X146172292Y-100762518D01*
X146297708Y-100690110D01*
X146400110Y-100587708D01*
X146472518Y-100462292D01*
X146483787Y-100420235D01*
X147003678Y-100940126D01*
X147003678Y-100940125D01*
X147029095Y-100905143D01*
X147118418Y-100729835D01*
X147179221Y-100542705D01*
X147210000Y-100348382D01*
X147210000Y-100151617D01*
X149790000Y-100151617D01*
X149790000Y-100348382D01*
X149820778Y-100542705D01*
X149881581Y-100729835D01*
X149970905Y-100905145D01*
X149996319Y-100940125D01*
X149996320Y-100940125D01*
X150516212Y-100420233D01*
X150527482Y-100462292D01*
X150599890Y-100587708D01*
X150702292Y-100690110D01*
X150827708Y-100762518D01*
X150869764Y-100773787D01*
X150349873Y-101293677D01*
X150349873Y-101293678D01*
X150384858Y-101319096D01*
X150560164Y-101408418D01*
X150747294Y-101469221D01*
X150941618Y-101500000D01*
X151138382Y-101500000D01*
X151332705Y-101469221D01*
X151519835Y-101408418D01*
X151695143Y-101319095D01*
X151730125Y-101293678D01*
X151730126Y-101293678D01*
X151210235Y-100773787D01*
X151252292Y-100762518D01*
X151377708Y-100690110D01*
X151480110Y-100587708D01*
X151552518Y-100462292D01*
X151563787Y-100420235D01*
X152083678Y-100940126D01*
X152083678Y-100940125D01*
X152109095Y-100905143D01*
X152198418Y-100729835D01*
X152259221Y-100542705D01*
X152290000Y-100348382D01*
X152290000Y-100151617D01*
X154870000Y-100151617D01*
X154870000Y-100348382D01*
X154900778Y-100542705D01*
X154961581Y-100729835D01*
X155050905Y-100905145D01*
X155076319Y-100940125D01*
X155076320Y-100940125D01*
X155596212Y-100420233D01*
X155607482Y-100462292D01*
X155679890Y-100587708D01*
X155782292Y-100690110D01*
X155907708Y-100762518D01*
X155949764Y-100773787D01*
X155429873Y-101293677D01*
X155429873Y-101293678D01*
X155464858Y-101319096D01*
X155640164Y-101408418D01*
X155827294Y-101469221D01*
X156021618Y-101500000D01*
X156218382Y-101500000D01*
X156412705Y-101469221D01*
X156599835Y-101408418D01*
X156775143Y-101319095D01*
X156810125Y-101293678D01*
X156810126Y-101293678D01*
X156290235Y-100773787D01*
X156332292Y-100762518D01*
X156457708Y-100690110D01*
X156560110Y-100587708D01*
X156632518Y-100462292D01*
X156643787Y-100420234D01*
X157163678Y-100940126D01*
X157163678Y-100940125D01*
X157189095Y-100905143D01*
X157278418Y-100729835D01*
X157339221Y-100542705D01*
X157370000Y-100348382D01*
X157370000Y-100151617D01*
X157339221Y-99957294D01*
X157278418Y-99770164D01*
X157189096Y-99594858D01*
X157163678Y-99559873D01*
X157163677Y-99559873D01*
X156643787Y-100079764D01*
X156632518Y-100037708D01*
X156560110Y-99912292D01*
X156457708Y-99809890D01*
X156332292Y-99737482D01*
X156290234Y-99726212D01*
X156810125Y-99206320D01*
X156810125Y-99206319D01*
X156775145Y-99180905D01*
X156599835Y-99091581D01*
X156412705Y-99030778D01*
X156218382Y-99000000D01*
X156021618Y-99000000D01*
X155827294Y-99030778D01*
X155640161Y-99091582D01*
X155464863Y-99180899D01*
X155464859Y-99180902D01*
X155429873Y-99206320D01*
X155429872Y-99206320D01*
X155949765Y-99726212D01*
X155907708Y-99737482D01*
X155782292Y-99809890D01*
X155679890Y-99912292D01*
X155607482Y-100037708D01*
X155596212Y-100079765D01*
X155076320Y-99559872D01*
X155076320Y-99559873D01*
X155050902Y-99594859D01*
X155050899Y-99594863D01*
X154961582Y-99770161D01*
X154900778Y-99957294D01*
X154870000Y-100151617D01*
X152290000Y-100151617D01*
X152259221Y-99957294D01*
X152198418Y-99770164D01*
X152109096Y-99594858D01*
X152083678Y-99559873D01*
X152083677Y-99559873D01*
X151563787Y-100079764D01*
X151552518Y-100037708D01*
X151480110Y-99912292D01*
X151377708Y-99809890D01*
X151252292Y-99737482D01*
X151210234Y-99726212D01*
X151730125Y-99206320D01*
X151730125Y-99206319D01*
X151695145Y-99180905D01*
X151519835Y-99091581D01*
X151332705Y-99030778D01*
X151138382Y-99000000D01*
X150941618Y-99000000D01*
X150747294Y-99030778D01*
X150560161Y-99091582D01*
X150384863Y-99180899D01*
X150384859Y-99180902D01*
X150349873Y-99206320D01*
X150349872Y-99206320D01*
X150869765Y-99726212D01*
X150827708Y-99737482D01*
X150702292Y-99809890D01*
X150599890Y-99912292D01*
X150527482Y-100037708D01*
X150516212Y-100079765D01*
X149996320Y-99559872D01*
X149996320Y-99559873D01*
X149970902Y-99594859D01*
X149970899Y-99594863D01*
X149881582Y-99770161D01*
X149820778Y-99957294D01*
X149790000Y-100151617D01*
X147210000Y-100151617D01*
X147179221Y-99957294D01*
X147118418Y-99770164D01*
X147029096Y-99594858D01*
X147003678Y-99559873D01*
X147003677Y-99559873D01*
X146483787Y-100079764D01*
X146472518Y-100037708D01*
X146400110Y-99912292D01*
X146297708Y-99809890D01*
X146172292Y-99737482D01*
X146130234Y-99726212D01*
X146650125Y-99206320D01*
X146650125Y-99206319D01*
X146615145Y-99180905D01*
X146439835Y-99091581D01*
X146252705Y-99030778D01*
X146058382Y-99000000D01*
X145861618Y-99000000D01*
X145667294Y-99030778D01*
X145480161Y-99091582D01*
X145304863Y-99180899D01*
X145304859Y-99180902D01*
X145269873Y-99206320D01*
X145269872Y-99206320D01*
X145789765Y-99726212D01*
X145747708Y-99737482D01*
X145622292Y-99809890D01*
X145519890Y-99912292D01*
X145447482Y-100037708D01*
X145436212Y-100079765D01*
X144916320Y-99559872D01*
X144916320Y-99559873D01*
X144890902Y-99594859D01*
X144890899Y-99594863D01*
X144801582Y-99770161D01*
X144740778Y-99957294D01*
X144710000Y-100151617D01*
X142130000Y-100151617D01*
X142099221Y-99957294D01*
X142038418Y-99770164D01*
X141949096Y-99594858D01*
X141923678Y-99559873D01*
X141923677Y-99559873D01*
X141403787Y-100079764D01*
X141392518Y-100037708D01*
X141320110Y-99912292D01*
X141217708Y-99809890D01*
X141092292Y-99737482D01*
X141050234Y-99726212D01*
X141570125Y-99206320D01*
X141570125Y-99206319D01*
X141535145Y-99180905D01*
X141359835Y-99091581D01*
X141172705Y-99030778D01*
X140978382Y-99000000D01*
X140781618Y-99000000D01*
X140587294Y-99030778D01*
X140400161Y-99091582D01*
X140224863Y-99180899D01*
X140224859Y-99180902D01*
X140189873Y-99206320D01*
X140189872Y-99206320D01*
X140709765Y-99726212D01*
X140667708Y-99737482D01*
X140542292Y-99809890D01*
X140439890Y-99912292D01*
X140367482Y-100037708D01*
X140356212Y-100079765D01*
X139836320Y-99559872D01*
X139836320Y-99559873D01*
X139810902Y-99594859D01*
X139810899Y-99594863D01*
X139721582Y-99770161D01*
X139660778Y-99957294D01*
X139630000Y-100151617D01*
X120250500Y-100151617D01*
X120250500Y-94087399D01*
X126724500Y-94087399D01*
X126724500Y-94212601D01*
X126756905Y-94333536D01*
X126819505Y-94441964D01*
X126908036Y-94530495D01*
X127016464Y-94593095D01*
X127137399Y-94625500D01*
X127199167Y-94625500D01*
X127228607Y-94634144D01*
X127258594Y-94640668D01*
X127263609Y-94644422D01*
X127266206Y-94645185D01*
X127286848Y-94661819D01*
X127438181Y-94813152D01*
X127471666Y-94874475D01*
X127474500Y-94900833D01*
X127474500Y-98501679D01*
X127454815Y-98568718D01*
X127438181Y-98589360D01*
X127394506Y-98633034D01*
X127394504Y-98633037D01*
X127331905Y-98741463D01*
X127331905Y-98741464D01*
X127299500Y-98862399D01*
X127299500Y-98987601D01*
X127331905Y-99108536D01*
X127394505Y-99216964D01*
X127483036Y-99305495D01*
X127591464Y-99368095D01*
X127712399Y-99400500D01*
X127712401Y-99400500D01*
X127837599Y-99400500D01*
X127837601Y-99400500D01*
X127958536Y-99368095D01*
X128066964Y-99305495D01*
X128155495Y-99216964D01*
X128218095Y-99108536D01*
X128250500Y-98987601D01*
X128250500Y-98862399D01*
X128218095Y-98741464D01*
X128155495Y-98633036D01*
X128111819Y-98589360D01*
X128078334Y-98528037D01*
X128075500Y-98501679D01*
X128075500Y-97837399D01*
X129054500Y-97837399D01*
X129054500Y-97962601D01*
X129086905Y-98083536D01*
X129149505Y-98191964D01*
X129238036Y-98280495D01*
X129346464Y-98343095D01*
X129467399Y-98375500D01*
X129467401Y-98375500D01*
X129592599Y-98375500D01*
X129592601Y-98375500D01*
X129713536Y-98343095D01*
X129821964Y-98280495D01*
X129821964Y-98280494D01*
X129829003Y-98276431D01*
X129829928Y-98278034D01*
X129885491Y-98256540D01*
X129953939Y-98270563D01*
X130003940Y-98319366D01*
X130010396Y-98332653D01*
X130017675Y-98350225D01*
X130017681Y-98350237D01*
X130121697Y-98505907D01*
X130121700Y-98505911D01*
X130254088Y-98638299D01*
X130254092Y-98638302D01*
X130409762Y-98742318D01*
X130409768Y-98742321D01*
X130409769Y-98742322D01*
X130582749Y-98813973D01*
X130766379Y-98850499D01*
X130766383Y-98850500D01*
X130766384Y-98850500D01*
X130953617Y-98850500D01*
X130953618Y-98850499D01*
X131137251Y-98813973D01*
X131310231Y-98742322D01*
X131465908Y-98638302D01*
X131514850Y-98589360D01*
X131575473Y-98528738D01*
X131598299Y-98505911D01*
X131598302Y-98505908D01*
X131702322Y-98350231D01*
X131773973Y-98177251D01*
X131810500Y-97993616D01*
X131810500Y-97806384D01*
X131773973Y-97622749D01*
X131764343Y-97599500D01*
X131749723Y-97564203D01*
X131732083Y-97521617D01*
X137000000Y-97521617D01*
X137000000Y-97718382D01*
X137030778Y-97912705D01*
X137091581Y-98099835D01*
X137180905Y-98275145D01*
X137206319Y-98310125D01*
X137206320Y-98310125D01*
X137726212Y-97790233D01*
X137737482Y-97832292D01*
X137809890Y-97957708D01*
X137912292Y-98060110D01*
X138037708Y-98132518D01*
X138079764Y-98143787D01*
X137559873Y-98663677D01*
X137559873Y-98663678D01*
X137594858Y-98689096D01*
X137770164Y-98778418D01*
X137957294Y-98839221D01*
X138151618Y-98870000D01*
X138348382Y-98870000D01*
X138542705Y-98839221D01*
X138729835Y-98778418D01*
X138905143Y-98689095D01*
X138940125Y-98663678D01*
X138940126Y-98663678D01*
X138420235Y-98143787D01*
X138462292Y-98132518D01*
X138587708Y-98060110D01*
X138690110Y-97957708D01*
X138762518Y-97832292D01*
X138773787Y-97790235D01*
X139293678Y-98310126D01*
X139293678Y-98310125D01*
X139319095Y-98275143D01*
X139408418Y-98099835D01*
X139469221Y-97912705D01*
X139500000Y-97718382D01*
X139500000Y-97521617D01*
X157500000Y-97521617D01*
X157500000Y-97718382D01*
X157530778Y-97912705D01*
X157591581Y-98099835D01*
X157680905Y-98275145D01*
X157706319Y-98310125D01*
X157706320Y-98310125D01*
X158226212Y-97790233D01*
X158237482Y-97832292D01*
X158309890Y-97957708D01*
X158412292Y-98060110D01*
X158537708Y-98132518D01*
X158579764Y-98143787D01*
X158059873Y-98663677D01*
X158059873Y-98663678D01*
X158094858Y-98689096D01*
X158270164Y-98778418D01*
X158457294Y-98839221D01*
X158651618Y-98870000D01*
X158848382Y-98870000D01*
X159042705Y-98839221D01*
X159229835Y-98778418D01*
X159405143Y-98689095D01*
X159440125Y-98663678D01*
X159440126Y-98663678D01*
X158920235Y-98143787D01*
X158962292Y-98132518D01*
X159087708Y-98060110D01*
X159190110Y-97957708D01*
X159262518Y-97832292D01*
X159273787Y-97790235D01*
X159793678Y-98310126D01*
X159793678Y-98310125D01*
X159819095Y-98275143D01*
X159908418Y-98099835D01*
X159969221Y-97912705D01*
X160000000Y-97718382D01*
X160000000Y-97521617D01*
X159969221Y-97327294D01*
X159908418Y-97140164D01*
X159819096Y-96964858D01*
X159793678Y-96929873D01*
X159793677Y-96929873D01*
X159273787Y-97449764D01*
X159262518Y-97407708D01*
X159190110Y-97282292D01*
X159087708Y-97179890D01*
X158962292Y-97107482D01*
X158920234Y-97096212D01*
X159440125Y-96576320D01*
X159440125Y-96576319D01*
X159405145Y-96550905D01*
X159229835Y-96461581D01*
X159042705Y-96400778D01*
X158848382Y-96370000D01*
X158651618Y-96370000D01*
X158457294Y-96400778D01*
X158270161Y-96461582D01*
X158094863Y-96550899D01*
X158094859Y-96550902D01*
X158059873Y-96576320D01*
X158059872Y-96576320D01*
X158579765Y-97096212D01*
X158537708Y-97107482D01*
X158412292Y-97179890D01*
X158309890Y-97282292D01*
X158237482Y-97407708D01*
X158226212Y-97449765D01*
X157706320Y-96929872D01*
X157706320Y-96929873D01*
X157680902Y-96964859D01*
X157680899Y-96964863D01*
X157591582Y-97140161D01*
X157530778Y-97327294D01*
X157500000Y-97521617D01*
X139500000Y-97521617D01*
X139469221Y-97327294D01*
X139408418Y-97140164D01*
X139319096Y-96964858D01*
X139293678Y-96929873D01*
X139293677Y-96929873D01*
X138773787Y-97449764D01*
X138762518Y-97407708D01*
X138690110Y-97282292D01*
X138587708Y-97179890D01*
X138462292Y-97107482D01*
X138420234Y-97096212D01*
X138940125Y-96576320D01*
X138940125Y-96576319D01*
X138905145Y-96550905D01*
X138729835Y-96461581D01*
X138542705Y-96400778D01*
X138348382Y-96370000D01*
X138151618Y-96370000D01*
X137957294Y-96400778D01*
X137770161Y-96461582D01*
X137594863Y-96550899D01*
X137594859Y-96550902D01*
X137559873Y-96576320D01*
X137559872Y-96576320D01*
X138079765Y-97096212D01*
X138037708Y-97107482D01*
X137912292Y-97179890D01*
X137809890Y-97282292D01*
X137737482Y-97407708D01*
X137726212Y-97449765D01*
X137206320Y-96929872D01*
X137206320Y-96929873D01*
X137180902Y-96964859D01*
X137180899Y-96964863D01*
X137091582Y-97140161D01*
X137030778Y-97327294D01*
X137000000Y-97521617D01*
X131732083Y-97521617D01*
X131702323Y-97449772D01*
X131702322Y-97449769D01*
X131702320Y-97449766D01*
X131702318Y-97449762D01*
X131598302Y-97294092D01*
X131598299Y-97294088D01*
X131465911Y-97161700D01*
X131465907Y-97161697D01*
X131310237Y-97057681D01*
X131310228Y-97057676D01*
X131137251Y-96986027D01*
X131137243Y-96986025D01*
X130953620Y-96949500D01*
X130953616Y-96949500D01*
X130766384Y-96949500D01*
X130766379Y-96949500D01*
X130582756Y-96986025D01*
X130582748Y-96986027D01*
X130409771Y-97057676D01*
X130409762Y-97057681D01*
X130254092Y-97161697D01*
X130254088Y-97161700D01*
X130121700Y-97294088D01*
X130121697Y-97294092D01*
X130017681Y-97449762D01*
X130017673Y-97449776D01*
X130010395Y-97467348D01*
X129966552Y-97521750D01*
X129900257Y-97543812D01*
X129832559Y-97526530D01*
X129823431Y-97520352D01*
X129713536Y-97456905D01*
X129713537Y-97456905D01*
X129673224Y-97446103D01*
X129592601Y-97424500D01*
X129467399Y-97424500D01*
X129386775Y-97446103D01*
X129346463Y-97456905D01*
X129238037Y-97519504D01*
X129238034Y-97519506D01*
X129149506Y-97608034D01*
X129149504Y-97608037D01*
X129086905Y-97716463D01*
X129086905Y-97716464D01*
X129054500Y-97837399D01*
X128075500Y-97837399D01*
X128075500Y-95606379D01*
X150690919Y-95606379D01*
X150690919Y-95793620D01*
X150727444Y-95977243D01*
X150727446Y-95977251D01*
X150799095Y-96150228D01*
X150799100Y-96150237D01*
X150903116Y-96305907D01*
X150903119Y-96305911D01*
X151035507Y-96438299D01*
X151035511Y-96438302D01*
X151191181Y-96542318D01*
X151191190Y-96542323D01*
X151211902Y-96550902D01*
X151364168Y-96613973D01*
X151547798Y-96650499D01*
X151547802Y-96650500D01*
X151547803Y-96650500D01*
X151735036Y-96650500D01*
X151735037Y-96650499D01*
X151918670Y-96613973D01*
X151991853Y-96583658D01*
X152061322Y-96576190D01*
X152123801Y-96607465D01*
X152126987Y-96610539D01*
X152150959Y-96634511D01*
X152206908Y-96690460D01*
X152206910Y-96690461D01*
X152206914Y-96690464D01*
X152275427Y-96730020D01*
X152275430Y-96730021D01*
X152287224Y-96733181D01*
X152342817Y-96765276D01*
X152408036Y-96830495D01*
X152516464Y-96893095D01*
X152637399Y-96925500D01*
X152637401Y-96925500D01*
X152762599Y-96925500D01*
X152762601Y-96925500D01*
X152883536Y-96893095D01*
X152991964Y-96830495D01*
X153080495Y-96741964D01*
X153143095Y-96633536D01*
X153175500Y-96512601D01*
X153175500Y-96387399D01*
X153143095Y-96266464D01*
X153080495Y-96158036D01*
X152991964Y-96069505D01*
X152883536Y-96006905D01*
X152883537Y-96006905D01*
X152843224Y-95996103D01*
X152762601Y-95974500D01*
X152707034Y-95974500D01*
X152639995Y-95954815D01*
X152594240Y-95902011D01*
X152584296Y-95832853D01*
X152585416Y-95826310D01*
X152591919Y-95793614D01*
X152591919Y-95606383D01*
X152591918Y-95606379D01*
X152555393Y-95422756D01*
X152555392Y-95422749D01*
X152483741Y-95249769D01*
X152483740Y-95249768D01*
X152483737Y-95249762D01*
X152379721Y-95094092D01*
X152379718Y-95094088D01*
X152247330Y-94961700D01*
X152247326Y-94961697D01*
X152091656Y-94857681D01*
X152091647Y-94857676D01*
X151918670Y-94786027D01*
X151918662Y-94786025D01*
X151735039Y-94749500D01*
X151735035Y-94749500D01*
X151547803Y-94749500D01*
X151547798Y-94749500D01*
X151364175Y-94786025D01*
X151364167Y-94786027D01*
X151191190Y-94857676D01*
X151191181Y-94857681D01*
X151035511Y-94961697D01*
X151035507Y-94961700D01*
X150903119Y-95094088D01*
X150903116Y-95094092D01*
X150799100Y-95249762D01*
X150799095Y-95249771D01*
X150727446Y-95422748D01*
X150727444Y-95422756D01*
X150690919Y-95606379D01*
X128075500Y-95606379D01*
X128075500Y-94685439D01*
X128075500Y-94685438D01*
X128069327Y-94662399D01*
X130574500Y-94662399D01*
X130574500Y-94787601D01*
X130606905Y-94908536D01*
X130669505Y-95016964D01*
X130758036Y-95105495D01*
X130866464Y-95168095D01*
X130987399Y-95200500D01*
X130987401Y-95200500D01*
X131112599Y-95200500D01*
X131112601Y-95200500D01*
X131233536Y-95168095D01*
X131341964Y-95105495D01*
X131365640Y-95081819D01*
X131426963Y-95048334D01*
X131453321Y-95045500D01*
X132279928Y-95045500D01*
X132346967Y-95065185D01*
X132367610Y-95081820D01*
X132414088Y-95128299D01*
X132414092Y-95128302D01*
X132569762Y-95232318D01*
X132569768Y-95232321D01*
X132569769Y-95232322D01*
X132742749Y-95303973D01*
X132926379Y-95340499D01*
X132926383Y-95340500D01*
X132926384Y-95340500D01*
X133113617Y-95340500D01*
X133113618Y-95340499D01*
X133297251Y-95303973D01*
X133470231Y-95232322D01*
X133625908Y-95128302D01*
X133758302Y-94995908D01*
X133862322Y-94840231D01*
X133933973Y-94667251D01*
X133970500Y-94483616D01*
X133970500Y-94296384D01*
X133933973Y-94112749D01*
X133878554Y-93978956D01*
X133862323Y-93939771D01*
X133862318Y-93939762D01*
X133758302Y-93784092D01*
X133758299Y-93784088D01*
X133625910Y-93651699D01*
X133607685Y-93639522D01*
X133607684Y-93639521D01*
X133470237Y-93547681D01*
X133470228Y-93547676D01*
X133297251Y-93476027D01*
X133297243Y-93476025D01*
X133113620Y-93439500D01*
X133113616Y-93439500D01*
X132926384Y-93439500D01*
X132926379Y-93439500D01*
X132742756Y-93476025D01*
X132742748Y-93476027D01*
X132569771Y-93547676D01*
X132569762Y-93547681D01*
X132414092Y-93651697D01*
X132414088Y-93651700D01*
X132281700Y-93784088D01*
X132281697Y-93784092D01*
X132177681Y-93939762D01*
X132177676Y-93939771D01*
X132106027Y-94112748D01*
X132106025Y-94112756D01*
X132069500Y-94296379D01*
X132069500Y-94320500D01*
X132049815Y-94387539D01*
X131997011Y-94433294D01*
X131945500Y-94444500D01*
X131493322Y-94444500D01*
X131426283Y-94424815D01*
X131405641Y-94408182D01*
X131341962Y-94344503D01*
X131233536Y-94281905D01*
X131233537Y-94281905D01*
X131193224Y-94271103D01*
X131112601Y-94249500D01*
X130987399Y-94249500D01*
X130906775Y-94271103D01*
X130866463Y-94281905D01*
X130758037Y-94344504D01*
X130758034Y-94344506D01*
X130669506Y-94433034D01*
X130669504Y-94433037D01*
X130606905Y-94541463D01*
X130606905Y-94541464D01*
X130574500Y-94662399D01*
X128069327Y-94662399D01*
X128055021Y-94609011D01*
X128045832Y-94593095D01*
X128015464Y-94540495D01*
X128015458Y-94540487D01*
X127711819Y-94236848D01*
X127678334Y-94175525D01*
X127675500Y-94149167D01*
X127675500Y-94087400D01*
X127675500Y-94087399D01*
X127643095Y-93966464D01*
X127580495Y-93858036D01*
X127491964Y-93769505D01*
X127383536Y-93706905D01*
X127383537Y-93706905D01*
X127343224Y-93696103D01*
X127262601Y-93674500D01*
X127137399Y-93674500D01*
X127056775Y-93696103D01*
X127016463Y-93706905D01*
X126908037Y-93769504D01*
X126908034Y-93769506D01*
X126819506Y-93858034D01*
X126819504Y-93858037D01*
X126756905Y-93966463D01*
X126756905Y-93966464D01*
X126724500Y-94087399D01*
X120250500Y-94087399D01*
X120250500Y-90787399D01*
X128174500Y-90787399D01*
X128174500Y-90912601D01*
X128206905Y-91033536D01*
X128269505Y-91141964D01*
X128358036Y-91230495D01*
X128466464Y-91293095D01*
X128488721Y-91299059D01*
X128548381Y-91335422D01*
X128578911Y-91398269D01*
X128580032Y-91430981D01*
X128579500Y-91436385D01*
X128579500Y-91623620D01*
X128616025Y-91807243D01*
X128616027Y-91807251D01*
X128687676Y-91980228D01*
X128687681Y-91980237D01*
X128791697Y-92135907D01*
X128791700Y-92135911D01*
X128924088Y-92268299D01*
X128924092Y-92268302D01*
X129079762Y-92372318D01*
X129079768Y-92372321D01*
X129079769Y-92372322D01*
X129252749Y-92443973D01*
X129371486Y-92467591D01*
X129436379Y-92480499D01*
X129436383Y-92480500D01*
X129436384Y-92480500D01*
X129623617Y-92480500D01*
X129623618Y-92480499D01*
X129807251Y-92443973D01*
X129812939Y-92441617D01*
X137000000Y-92441617D01*
X137000000Y-92638382D01*
X137030778Y-92832705D01*
X137091581Y-93019835D01*
X137180905Y-93195145D01*
X137206319Y-93230125D01*
X137206320Y-93230125D01*
X137726212Y-92710233D01*
X137737482Y-92752292D01*
X137809890Y-92877708D01*
X137912292Y-92980110D01*
X138037708Y-93052518D01*
X138079764Y-93063787D01*
X137559873Y-93583677D01*
X137559873Y-93583678D01*
X137594858Y-93609096D01*
X137770164Y-93698418D01*
X137957294Y-93759221D01*
X138151618Y-93790000D01*
X138348382Y-93790000D01*
X138542705Y-93759221D01*
X138729835Y-93698418D01*
X138905143Y-93609095D01*
X138940125Y-93583678D01*
X138940126Y-93583678D01*
X138420235Y-93063787D01*
X138462292Y-93052518D01*
X138587708Y-92980110D01*
X138690110Y-92877708D01*
X138762518Y-92752292D01*
X138773787Y-92710235D01*
X139293678Y-93230126D01*
X139293678Y-93230125D01*
X139319095Y-93195143D01*
X139408418Y-93019835D01*
X139469221Y-92832705D01*
X139500000Y-92638382D01*
X139500000Y-92441617D01*
X157500000Y-92441617D01*
X157500000Y-92638382D01*
X157530778Y-92832705D01*
X157591581Y-93019835D01*
X157680905Y-93195145D01*
X157706319Y-93230125D01*
X157706320Y-93230125D01*
X158226212Y-92710233D01*
X158237482Y-92752292D01*
X158309890Y-92877708D01*
X158412292Y-92980110D01*
X158537708Y-93052518D01*
X158579764Y-93063787D01*
X158059873Y-93583677D01*
X158059873Y-93583678D01*
X158094858Y-93609096D01*
X158270164Y-93698418D01*
X158457294Y-93759221D01*
X158651618Y-93790000D01*
X158848382Y-93790000D01*
X159042705Y-93759221D01*
X159229835Y-93698418D01*
X159405143Y-93609095D01*
X159440125Y-93583678D01*
X159440126Y-93583678D01*
X158920235Y-93063787D01*
X158962292Y-93052518D01*
X159087708Y-92980110D01*
X159190110Y-92877708D01*
X159262518Y-92752292D01*
X159273787Y-92710235D01*
X159793678Y-93230126D01*
X159793678Y-93230125D01*
X159819095Y-93195143D01*
X159908418Y-93019835D01*
X159969221Y-92832705D01*
X160000000Y-92638382D01*
X160000000Y-92441617D01*
X159969221Y-92247294D01*
X159908418Y-92060164D01*
X159819096Y-91884858D01*
X159793678Y-91849873D01*
X159793677Y-91849873D01*
X159273787Y-92369764D01*
X159262518Y-92327708D01*
X159190110Y-92202292D01*
X159087708Y-92099890D01*
X158962292Y-92027482D01*
X158920234Y-92016212D01*
X159440125Y-91496320D01*
X159440125Y-91496319D01*
X159405145Y-91470905D01*
X159229835Y-91381581D01*
X159042705Y-91320778D01*
X158848382Y-91290000D01*
X158651618Y-91290000D01*
X158457294Y-91320778D01*
X158270161Y-91381582D01*
X158094863Y-91470899D01*
X158094859Y-91470902D01*
X158059873Y-91496320D01*
X158059872Y-91496320D01*
X158579765Y-92016212D01*
X158537708Y-92027482D01*
X158412292Y-92099890D01*
X158309890Y-92202292D01*
X158237482Y-92327708D01*
X158226212Y-92369765D01*
X157706320Y-91849872D01*
X157706320Y-91849873D01*
X157680902Y-91884859D01*
X157680899Y-91884863D01*
X157591582Y-92060161D01*
X157530778Y-92247294D01*
X157500000Y-92441617D01*
X139500000Y-92441617D01*
X139469221Y-92247294D01*
X139408418Y-92060164D01*
X139319093Y-91884854D01*
X139293679Y-91849873D01*
X139293677Y-91849873D01*
X138773787Y-92369764D01*
X138762518Y-92327708D01*
X138690110Y-92202292D01*
X138587708Y-92099890D01*
X138462292Y-92027482D01*
X138420234Y-92016212D01*
X138674047Y-91762399D01*
X154049500Y-91762399D01*
X154049500Y-91887601D01*
X154081905Y-92008536D01*
X154144505Y-92116964D01*
X154233036Y-92205495D01*
X154341464Y-92268095D01*
X154462399Y-92300500D01*
X154462401Y-92300500D01*
X154587599Y-92300500D01*
X154587601Y-92300500D01*
X154708536Y-92268095D01*
X154816964Y-92205495D01*
X154905495Y-92116964D01*
X154968095Y-92008536D01*
X154968096Y-92008529D01*
X154969294Y-92005640D01*
X154970961Y-92003570D01*
X154972158Y-92001498D01*
X154972481Y-92001684D01*
X155013131Y-91951233D01*
X155079424Y-91929164D01*
X155131309Y-91938523D01*
X155192749Y-91963973D01*
X155323597Y-91990000D01*
X155376379Y-92000499D01*
X155376383Y-92000500D01*
X155376384Y-92000500D01*
X155563617Y-92000500D01*
X155563618Y-92000499D01*
X155747251Y-91963973D01*
X155920231Y-91892322D01*
X156075908Y-91788302D01*
X156208302Y-91655908D01*
X156312322Y-91500231D01*
X156312326Y-91500222D01*
X156314025Y-91496122D01*
X156314025Y-91496121D01*
X156383971Y-91327255D01*
X156383973Y-91327251D01*
X156420500Y-91143616D01*
X156420500Y-90956384D01*
X156383973Y-90772749D01*
X156319056Y-90616027D01*
X156312323Y-90599771D01*
X156312318Y-90599762D01*
X156208302Y-90444092D01*
X156208299Y-90444088D01*
X156075911Y-90311700D01*
X156075907Y-90311697D01*
X155920237Y-90207681D01*
X155920228Y-90207676D01*
X155747251Y-90136027D01*
X155747243Y-90136025D01*
X155563620Y-90099500D01*
X155563616Y-90099500D01*
X155376384Y-90099500D01*
X155376379Y-90099500D01*
X155192756Y-90136025D01*
X155192748Y-90136027D01*
X155019771Y-90207676D01*
X155019762Y-90207681D01*
X154864092Y-90311697D01*
X154864088Y-90311700D01*
X154731700Y-90444088D01*
X154731697Y-90444092D01*
X154627681Y-90599762D01*
X154627676Y-90599771D01*
X154556027Y-90772748D01*
X154556025Y-90772756D01*
X154519500Y-90956379D01*
X154519500Y-90956383D01*
X154519500Y-90956384D01*
X154519500Y-91143616D01*
X154519501Y-91143620D01*
X154528455Y-91188638D01*
X154527747Y-91196545D01*
X154530521Y-91203982D01*
X154524677Y-91230845D01*
X154522226Y-91258230D01*
X154516977Y-91266237D01*
X154515669Y-91272255D01*
X154494518Y-91300509D01*
X154462847Y-91332180D01*
X154407262Y-91364273D01*
X154341468Y-91381903D01*
X154341463Y-91381905D01*
X154233037Y-91444504D01*
X154233034Y-91444506D01*
X154144506Y-91533034D01*
X154144504Y-91533037D01*
X154081905Y-91641463D01*
X154078034Y-91655911D01*
X154049500Y-91762399D01*
X138674047Y-91762399D01*
X138940125Y-91496320D01*
X138940125Y-91496319D01*
X138905145Y-91470905D01*
X138729835Y-91381581D01*
X138542705Y-91320778D01*
X138348382Y-91290000D01*
X138151618Y-91290000D01*
X137957294Y-91320778D01*
X137770161Y-91381582D01*
X137594863Y-91470899D01*
X137594859Y-91470902D01*
X137559873Y-91496320D01*
X137559872Y-91496320D01*
X138079765Y-92016212D01*
X138037708Y-92027482D01*
X137912292Y-92099890D01*
X137809890Y-92202292D01*
X137737482Y-92327708D01*
X137726212Y-92369765D01*
X137206320Y-91849872D01*
X137206320Y-91849873D01*
X137180902Y-91884859D01*
X137180899Y-91884863D01*
X137091582Y-92060161D01*
X137030778Y-92247294D01*
X137000000Y-92441617D01*
X129812939Y-92441617D01*
X129980231Y-92372322D01*
X129980237Y-92372318D01*
X130038110Y-92333649D01*
X130087720Y-92300500D01*
X130135908Y-92268302D01*
X130268302Y-92135908D01*
X130372322Y-91980231D01*
X130443973Y-91807251D01*
X130480500Y-91623616D01*
X130480500Y-91436384D01*
X130443973Y-91252749D01*
X130372322Y-91079769D01*
X130372321Y-91079768D01*
X130372318Y-91079762D01*
X130268302Y-90924092D01*
X130268299Y-90924088D01*
X130135911Y-90791700D01*
X130135907Y-90791697D01*
X129980237Y-90687681D01*
X129980228Y-90687676D01*
X129807251Y-90616027D01*
X129807243Y-90616025D01*
X129623620Y-90579500D01*
X129623616Y-90579500D01*
X129436384Y-90579500D01*
X129436379Y-90579500D01*
X129252756Y-90616025D01*
X129252748Y-90616027D01*
X129200873Y-90637514D01*
X129131403Y-90644981D01*
X129068925Y-90613706D01*
X129046034Y-90584951D01*
X129042887Y-90579500D01*
X129030495Y-90558036D01*
X128941964Y-90469505D01*
X128833536Y-90406905D01*
X128833537Y-90406905D01*
X128793224Y-90396103D01*
X128712601Y-90374500D01*
X128587399Y-90374500D01*
X128506775Y-90396103D01*
X128466463Y-90406905D01*
X128358037Y-90469504D01*
X128358034Y-90469506D01*
X128269506Y-90558034D01*
X128269504Y-90558037D01*
X128206905Y-90666463D01*
X128201220Y-90687681D01*
X128174500Y-90787399D01*
X120250500Y-90787399D01*
X120250500Y-87361617D01*
X137000000Y-87361617D01*
X137000000Y-87558382D01*
X137030778Y-87752705D01*
X137091581Y-87939835D01*
X137180905Y-88115145D01*
X137206319Y-88150125D01*
X137206320Y-88150125D01*
X137726212Y-87630233D01*
X137737482Y-87672292D01*
X137809890Y-87797708D01*
X137912292Y-87900110D01*
X138037708Y-87972518D01*
X138079764Y-87983787D01*
X137559873Y-88503677D01*
X137559873Y-88503678D01*
X137594858Y-88529096D01*
X137770164Y-88618418D01*
X137957294Y-88679221D01*
X138151618Y-88710000D01*
X138348382Y-88710000D01*
X138542705Y-88679221D01*
X138729835Y-88618418D01*
X138905143Y-88529095D01*
X138940125Y-88503678D01*
X138940126Y-88503678D01*
X138420235Y-87983787D01*
X138462292Y-87972518D01*
X138587708Y-87900110D01*
X138690110Y-87797708D01*
X138762518Y-87672292D01*
X138773787Y-87630235D01*
X139293678Y-88150126D01*
X139293678Y-88150125D01*
X139319095Y-88115143D01*
X139408418Y-87939835D01*
X139469221Y-87752705D01*
X139500000Y-87558382D01*
X139500000Y-87361617D01*
X157500000Y-87361617D01*
X157500000Y-87558382D01*
X157530778Y-87752705D01*
X157591581Y-87939835D01*
X157680905Y-88115145D01*
X157706319Y-88150125D01*
X157706320Y-88150125D01*
X158226212Y-87630233D01*
X158237482Y-87672292D01*
X158309890Y-87797708D01*
X158412292Y-87900110D01*
X158537708Y-87972518D01*
X158579764Y-87983787D01*
X158059873Y-88503677D01*
X158059873Y-88503678D01*
X158094858Y-88529096D01*
X158270164Y-88618418D01*
X158457294Y-88679221D01*
X158651618Y-88710000D01*
X158848382Y-88710000D01*
X159042705Y-88679221D01*
X159229835Y-88618418D01*
X159405143Y-88529095D01*
X159440125Y-88503678D01*
X159440126Y-88503678D01*
X158920235Y-87983787D01*
X158962292Y-87972518D01*
X159087708Y-87900110D01*
X159190110Y-87797708D01*
X159262518Y-87672292D01*
X159273787Y-87630235D01*
X159793678Y-88150126D01*
X159793678Y-88150125D01*
X159819095Y-88115143D01*
X159908418Y-87939835D01*
X159969221Y-87752705D01*
X160000000Y-87558382D01*
X160000000Y-87361617D01*
X159969221Y-87167294D01*
X159908418Y-86980164D01*
X159819096Y-86804858D01*
X159793678Y-86769873D01*
X159793677Y-86769873D01*
X159273787Y-87289764D01*
X159262518Y-87247708D01*
X159190110Y-87122292D01*
X159087708Y-87019890D01*
X158962292Y-86947482D01*
X158920234Y-86936212D01*
X159440125Y-86416320D01*
X159440125Y-86416319D01*
X159405145Y-86390905D01*
X159229835Y-86301581D01*
X159042705Y-86240778D01*
X158848382Y-86210000D01*
X158651618Y-86210000D01*
X158457294Y-86240778D01*
X158270161Y-86301582D01*
X158094863Y-86390899D01*
X158094859Y-86390902D01*
X158059873Y-86416320D01*
X158059872Y-86416320D01*
X158579765Y-86936212D01*
X158537708Y-86947482D01*
X158412292Y-87019890D01*
X158309890Y-87122292D01*
X158237482Y-87247708D01*
X158226212Y-87289765D01*
X157706320Y-86769872D01*
X157706320Y-86769873D01*
X157680902Y-86804859D01*
X157680899Y-86804863D01*
X157591582Y-86980161D01*
X157530778Y-87167294D01*
X157500000Y-87361617D01*
X139500000Y-87361617D01*
X139469221Y-87167294D01*
X139408418Y-86980164D01*
X139319096Y-86804858D01*
X139293678Y-86769873D01*
X139293677Y-86769873D01*
X138773787Y-87289764D01*
X138762518Y-87247708D01*
X138690110Y-87122292D01*
X138587708Y-87019890D01*
X138462292Y-86947482D01*
X138420234Y-86936212D01*
X138940125Y-86416320D01*
X138940125Y-86416319D01*
X138905145Y-86390905D01*
X138729835Y-86301581D01*
X138542705Y-86240778D01*
X138348382Y-86210000D01*
X138151618Y-86210000D01*
X137957294Y-86240778D01*
X137770161Y-86301582D01*
X137594863Y-86390899D01*
X137594859Y-86390902D01*
X137559873Y-86416320D01*
X137559872Y-86416320D01*
X138079765Y-86936212D01*
X138037708Y-86947482D01*
X137912292Y-87019890D01*
X137809890Y-87122292D01*
X137737482Y-87247708D01*
X137726212Y-87289765D01*
X137206320Y-86769872D01*
X137206320Y-86769873D01*
X137180902Y-86804859D01*
X137180899Y-86804863D01*
X137091582Y-86980161D01*
X137030778Y-87167294D01*
X137000000Y-87361617D01*
X120250500Y-87361617D01*
X120250500Y-85847577D01*
X125885975Y-85847577D01*
X125991236Y-85891178D01*
X125991240Y-85891179D01*
X126136126Y-85919999D01*
X126136129Y-85920000D01*
X126283871Y-85920000D01*
X126283873Y-85919999D01*
X126428760Y-85891179D01*
X126428775Y-85891175D01*
X126534024Y-85847578D01*
X126534024Y-85847577D01*
X127185975Y-85847577D01*
X127291236Y-85891178D01*
X127291240Y-85891179D01*
X127436126Y-85919999D01*
X127436129Y-85920000D01*
X127583871Y-85920000D01*
X127583873Y-85919999D01*
X127728760Y-85891179D01*
X127728775Y-85891175D01*
X127834024Y-85847578D01*
X127834024Y-85847577D01*
X128485975Y-85847577D01*
X128591236Y-85891178D01*
X128591240Y-85891179D01*
X128736126Y-85919999D01*
X128736129Y-85920000D01*
X128883871Y-85920000D01*
X128883873Y-85919999D01*
X129028760Y-85891179D01*
X129028775Y-85891175D01*
X129134024Y-85847578D01*
X129134024Y-85847577D01*
X128810001Y-85523554D01*
X128810000Y-85523554D01*
X128485975Y-85847577D01*
X127834024Y-85847577D01*
X127510001Y-85523554D01*
X127510000Y-85523554D01*
X127185975Y-85847577D01*
X126534024Y-85847577D01*
X126210001Y-85523554D01*
X126210000Y-85523554D01*
X125885975Y-85847577D01*
X120250500Y-85847577D01*
X120250500Y-85096126D01*
X125460000Y-85096126D01*
X125460000Y-85243873D01*
X125488820Y-85388759D01*
X125488822Y-85388767D01*
X125532421Y-85494024D01*
X125856446Y-85170000D01*
X125856446Y-85169999D01*
X125836556Y-85150109D01*
X126110000Y-85150109D01*
X126110000Y-85189891D01*
X126125224Y-85226645D01*
X126153355Y-85254776D01*
X126190109Y-85270000D01*
X126229891Y-85270000D01*
X126266645Y-85254776D01*
X126294776Y-85226645D01*
X126310000Y-85189891D01*
X126310000Y-85170000D01*
X126563554Y-85170000D01*
X126860000Y-85466446D01*
X127156446Y-85170000D01*
X127136555Y-85150109D01*
X127410000Y-85150109D01*
X127410000Y-85189891D01*
X127425224Y-85226645D01*
X127453355Y-85254776D01*
X127490109Y-85270000D01*
X127529891Y-85270000D01*
X127566645Y-85254776D01*
X127594776Y-85226645D01*
X127610000Y-85189891D01*
X127610000Y-85170000D01*
X127863554Y-85170000D01*
X128160000Y-85466446D01*
X128456446Y-85170000D01*
X128436555Y-85150109D01*
X128710000Y-85150109D01*
X128710000Y-85189891D01*
X128725224Y-85226645D01*
X128753355Y-85254776D01*
X128790109Y-85270000D01*
X128829891Y-85270000D01*
X128866645Y-85254776D01*
X128894776Y-85226645D01*
X128910000Y-85189891D01*
X128910000Y-85169999D01*
X129163554Y-85169999D01*
X129163554Y-85170001D01*
X129487577Y-85494024D01*
X129487578Y-85494024D01*
X129531175Y-85388775D01*
X129531179Y-85388760D01*
X129559999Y-85243873D01*
X129560000Y-85243871D01*
X129560000Y-85096128D01*
X129559999Y-85096126D01*
X129531179Y-84951240D01*
X129531178Y-84951236D01*
X129487577Y-84845975D01*
X129163554Y-85169999D01*
X128910000Y-85169999D01*
X128910000Y-85150109D01*
X128894776Y-85113355D01*
X128866645Y-85085224D01*
X128829891Y-85070000D01*
X128790109Y-85070000D01*
X128753355Y-85085224D01*
X128725224Y-85113355D01*
X128710000Y-85150109D01*
X128436555Y-85150109D01*
X128160000Y-84873554D01*
X127863554Y-85170000D01*
X127610000Y-85170000D01*
X127610000Y-85150109D01*
X127594776Y-85113355D01*
X127566645Y-85085224D01*
X127529891Y-85070000D01*
X127490109Y-85070000D01*
X127453355Y-85085224D01*
X127425224Y-85113355D01*
X127410000Y-85150109D01*
X127136555Y-85150109D01*
X126860000Y-84873554D01*
X126563554Y-85170000D01*
X126310000Y-85170000D01*
X126310000Y-85150109D01*
X126294776Y-85113355D01*
X126266645Y-85085224D01*
X126229891Y-85070000D01*
X126190109Y-85070000D01*
X126153355Y-85085224D01*
X126125224Y-85113355D01*
X126110000Y-85150109D01*
X125836556Y-85150109D01*
X125532421Y-84845974D01*
X125532420Y-84845974D01*
X125488823Y-84951228D01*
X125488820Y-84951240D01*
X125460000Y-85096126D01*
X120250500Y-85096126D01*
X120250500Y-84520000D01*
X125913554Y-84520000D01*
X126210000Y-84816446D01*
X126506446Y-84520000D01*
X127213554Y-84520000D01*
X127510000Y-84816446D01*
X127806446Y-84520000D01*
X128513554Y-84520000D01*
X128810000Y-84816446D01*
X129106446Y-84520000D01*
X128810000Y-84223554D01*
X128513554Y-84520000D01*
X127806446Y-84520000D01*
X127510000Y-84223554D01*
X127213554Y-84520000D01*
X126506446Y-84520000D01*
X126210000Y-84223554D01*
X125913554Y-84520000D01*
X120250500Y-84520000D01*
X120250500Y-83796126D01*
X125460000Y-83796126D01*
X125460000Y-83943873D01*
X125488820Y-84088759D01*
X125488822Y-84088767D01*
X125532421Y-84194024D01*
X125856446Y-83870000D01*
X125856446Y-83869999D01*
X125836556Y-83850109D01*
X126110000Y-83850109D01*
X126110000Y-83889891D01*
X126125224Y-83926645D01*
X126153355Y-83954776D01*
X126190109Y-83970000D01*
X126229891Y-83970000D01*
X126266645Y-83954776D01*
X126294776Y-83926645D01*
X126310000Y-83889891D01*
X126310000Y-83870000D01*
X126563554Y-83870000D01*
X126860000Y-84166446D01*
X127156446Y-83870000D01*
X127136555Y-83850109D01*
X127410000Y-83850109D01*
X127410000Y-83889891D01*
X127425224Y-83926645D01*
X127453355Y-83954776D01*
X127490109Y-83970000D01*
X127529891Y-83970000D01*
X127566645Y-83954776D01*
X127594776Y-83926645D01*
X127610000Y-83889891D01*
X127610000Y-83870000D01*
X127863554Y-83870000D01*
X128160000Y-84166446D01*
X128456446Y-83870000D01*
X128436555Y-83850109D01*
X128710000Y-83850109D01*
X128710000Y-83889891D01*
X128725224Y-83926645D01*
X128753355Y-83954776D01*
X128790109Y-83970000D01*
X128829891Y-83970000D01*
X128866645Y-83954776D01*
X128894776Y-83926645D01*
X128910000Y-83889891D01*
X128910000Y-83869999D01*
X129163554Y-83869999D01*
X129163554Y-83870001D01*
X129487577Y-84194024D01*
X129487578Y-84194024D01*
X129531175Y-84088775D01*
X129531179Y-84088760D01*
X129559999Y-83943873D01*
X129560000Y-83943871D01*
X129560000Y-83796128D01*
X129559999Y-83796126D01*
X129531179Y-83651240D01*
X129531178Y-83651236D01*
X129487577Y-83545975D01*
X129163554Y-83869999D01*
X128910000Y-83869999D01*
X128910000Y-83850109D01*
X128894776Y-83813355D01*
X128866645Y-83785224D01*
X128829891Y-83770000D01*
X128790109Y-83770000D01*
X128753355Y-83785224D01*
X128725224Y-83813355D01*
X128710000Y-83850109D01*
X128436555Y-83850109D01*
X128160000Y-83573554D01*
X127863554Y-83870000D01*
X127610000Y-83870000D01*
X127610000Y-83850109D01*
X127594776Y-83813355D01*
X127566645Y-83785224D01*
X127529891Y-83770000D01*
X127490109Y-83770000D01*
X127453355Y-83785224D01*
X127425224Y-83813355D01*
X127410000Y-83850109D01*
X127136555Y-83850109D01*
X126860000Y-83573554D01*
X126563554Y-83870000D01*
X126310000Y-83870000D01*
X126310000Y-83850109D01*
X126294776Y-83813355D01*
X126266645Y-83785224D01*
X126229891Y-83770000D01*
X126190109Y-83770000D01*
X126153355Y-83785224D01*
X126125224Y-83813355D01*
X126110000Y-83850109D01*
X125836556Y-83850109D01*
X125532421Y-83545974D01*
X125532420Y-83545974D01*
X125488823Y-83651228D01*
X125488820Y-83651240D01*
X125460000Y-83796126D01*
X120250500Y-83796126D01*
X120250500Y-83192420D01*
X125885974Y-83192420D01*
X125885974Y-83192421D01*
X126210000Y-83516446D01*
X126210001Y-83516446D01*
X126534024Y-83192421D01*
X126534022Y-83192420D01*
X127185974Y-83192420D01*
X127185974Y-83192421D01*
X127510000Y-83516446D01*
X127510001Y-83516446D01*
X127834024Y-83192421D01*
X127834022Y-83192420D01*
X128485974Y-83192420D01*
X128485974Y-83192421D01*
X128810000Y-83516446D01*
X128810001Y-83516446D01*
X129037708Y-83288738D01*
X129134024Y-83192421D01*
X129028767Y-83148822D01*
X129028759Y-83148820D01*
X128883872Y-83120000D01*
X128736128Y-83120000D01*
X128591240Y-83148820D01*
X128591228Y-83148823D01*
X128485974Y-83192420D01*
X127834022Y-83192420D01*
X127728767Y-83148822D01*
X127728759Y-83148820D01*
X127583872Y-83120000D01*
X127436128Y-83120000D01*
X127291240Y-83148820D01*
X127291228Y-83148823D01*
X127185974Y-83192420D01*
X126534022Y-83192420D01*
X126428767Y-83148822D01*
X126428759Y-83148820D01*
X126283872Y-83120000D01*
X126136128Y-83120000D01*
X125991240Y-83148820D01*
X125991228Y-83148823D01*
X125885974Y-83192420D01*
X120250500Y-83192420D01*
X120250500Y-82281617D01*
X137000000Y-82281617D01*
X137000000Y-82478382D01*
X137030778Y-82672705D01*
X137091581Y-82859835D01*
X137180905Y-83035145D01*
X137206319Y-83070125D01*
X137206320Y-83070125D01*
X137726212Y-82550233D01*
X137737482Y-82592292D01*
X137809890Y-82717708D01*
X137912292Y-82820110D01*
X138037708Y-82892518D01*
X138079764Y-82903787D01*
X137559873Y-83423677D01*
X137559873Y-83423678D01*
X137594858Y-83449096D01*
X137770164Y-83538418D01*
X137957294Y-83599221D01*
X138151618Y-83630000D01*
X138348382Y-83630000D01*
X138542705Y-83599221D01*
X138729835Y-83538418D01*
X138905143Y-83449095D01*
X138940125Y-83423678D01*
X138940126Y-83423678D01*
X138420235Y-82903787D01*
X138462292Y-82892518D01*
X138587708Y-82820110D01*
X138690110Y-82717708D01*
X138762518Y-82592292D01*
X138773787Y-82550235D01*
X139293678Y-83070126D01*
X139293678Y-83070125D01*
X139319095Y-83035143D01*
X139408418Y-82859835D01*
X139469221Y-82672705D01*
X139500000Y-82478382D01*
X139500000Y-82281617D01*
X157500000Y-82281617D01*
X157500000Y-82478382D01*
X157530778Y-82672705D01*
X157591581Y-82859835D01*
X157680905Y-83035145D01*
X157706319Y-83070125D01*
X157706320Y-83070125D01*
X158226212Y-82550233D01*
X158237482Y-82592292D01*
X158309890Y-82717708D01*
X158412292Y-82820110D01*
X158537708Y-82892518D01*
X158579764Y-82903787D01*
X158059873Y-83423677D01*
X158059873Y-83423678D01*
X158094858Y-83449096D01*
X158270164Y-83538418D01*
X158457294Y-83599221D01*
X158651618Y-83630000D01*
X158848382Y-83630000D01*
X159042705Y-83599221D01*
X159229835Y-83538418D01*
X159405143Y-83449095D01*
X159440125Y-83423678D01*
X159440126Y-83423678D01*
X158920235Y-82903787D01*
X158962292Y-82892518D01*
X159087708Y-82820110D01*
X159190110Y-82717708D01*
X159262518Y-82592292D01*
X159273787Y-82550235D01*
X159793678Y-83070126D01*
X159793678Y-83070125D01*
X159819095Y-83035143D01*
X159908418Y-82859835D01*
X159969221Y-82672705D01*
X160000000Y-82478382D01*
X160000000Y-82281617D01*
X159969221Y-82087294D01*
X159908418Y-81900164D01*
X159819096Y-81724858D01*
X159793678Y-81689873D01*
X159793677Y-81689873D01*
X159273787Y-82209764D01*
X159262518Y-82167708D01*
X159190110Y-82042292D01*
X159087708Y-81939890D01*
X158962292Y-81867482D01*
X158920234Y-81856212D01*
X159440125Y-81336320D01*
X159440125Y-81336319D01*
X159405145Y-81310905D01*
X159229835Y-81221581D01*
X159042705Y-81160778D01*
X158848382Y-81130000D01*
X158651618Y-81130000D01*
X158457294Y-81160778D01*
X158270161Y-81221582D01*
X158094863Y-81310899D01*
X158094859Y-81310902D01*
X158059873Y-81336320D01*
X158059872Y-81336320D01*
X158579765Y-81856212D01*
X158537708Y-81867482D01*
X158412292Y-81939890D01*
X158309890Y-82042292D01*
X158237482Y-82167708D01*
X158226212Y-82209765D01*
X157706320Y-81689872D01*
X157706320Y-81689873D01*
X157680902Y-81724859D01*
X157680899Y-81724863D01*
X157591582Y-81900161D01*
X157530778Y-82087294D01*
X157500000Y-82281617D01*
X139500000Y-82281617D01*
X139469221Y-82087294D01*
X139408418Y-81900164D01*
X139319096Y-81724858D01*
X139293678Y-81689873D01*
X139293677Y-81689873D01*
X138773787Y-82209764D01*
X138762518Y-82167708D01*
X138690110Y-82042292D01*
X138587708Y-81939890D01*
X138462292Y-81867482D01*
X138420234Y-81856212D01*
X138940125Y-81336320D01*
X138940125Y-81336319D01*
X138905145Y-81310905D01*
X138729835Y-81221581D01*
X138542705Y-81160778D01*
X138348382Y-81130000D01*
X138151618Y-81130000D01*
X137957294Y-81160778D01*
X137770161Y-81221582D01*
X137594863Y-81310899D01*
X137594859Y-81310902D01*
X137559873Y-81336320D01*
X137559872Y-81336320D01*
X138079765Y-81856212D01*
X138037708Y-81867482D01*
X137912292Y-81939890D01*
X137809890Y-82042292D01*
X137737482Y-82167708D01*
X137726212Y-82209765D01*
X137206320Y-81689872D01*
X137206320Y-81689873D01*
X137180902Y-81724859D01*
X137180899Y-81724863D01*
X137091582Y-81900161D01*
X137030778Y-82087294D01*
X137000000Y-82281617D01*
X120250500Y-82281617D01*
X120250500Y-79651617D01*
X139630000Y-79651617D01*
X139630000Y-79848382D01*
X139660778Y-80042705D01*
X139721581Y-80229835D01*
X139810905Y-80405145D01*
X139836319Y-80440125D01*
X139836320Y-80440125D01*
X140356212Y-79920233D01*
X140367482Y-79962292D01*
X140439890Y-80087708D01*
X140542292Y-80190110D01*
X140667708Y-80262518D01*
X140709764Y-80273787D01*
X140189873Y-80793677D01*
X140189873Y-80793678D01*
X140224858Y-80819096D01*
X140400164Y-80908418D01*
X140587294Y-80969221D01*
X140781618Y-81000000D01*
X140978382Y-81000000D01*
X141172705Y-80969221D01*
X141359835Y-80908418D01*
X141535143Y-80819095D01*
X141570125Y-80793678D01*
X141570126Y-80793678D01*
X141050235Y-80273787D01*
X141092292Y-80262518D01*
X141217708Y-80190110D01*
X141320110Y-80087708D01*
X141392518Y-79962292D01*
X141403787Y-79920234D01*
X141923678Y-80440126D01*
X141923678Y-80440125D01*
X141949095Y-80405143D01*
X142038418Y-80229835D01*
X142099221Y-80042705D01*
X142130000Y-79848382D01*
X142130000Y-79651617D01*
X144710000Y-79651617D01*
X144710000Y-79848382D01*
X144740778Y-80042705D01*
X144801581Y-80229835D01*
X144890905Y-80405145D01*
X144916319Y-80440125D01*
X144916320Y-80440125D01*
X145436212Y-79920233D01*
X145447482Y-79962292D01*
X145519890Y-80087708D01*
X145622292Y-80190110D01*
X145747708Y-80262518D01*
X145789764Y-80273787D01*
X145269873Y-80793677D01*
X145269873Y-80793678D01*
X145304858Y-80819096D01*
X145480164Y-80908418D01*
X145667294Y-80969221D01*
X145861618Y-81000000D01*
X146058382Y-81000000D01*
X146252705Y-80969221D01*
X146439835Y-80908418D01*
X146615143Y-80819095D01*
X146650125Y-80793678D01*
X146650126Y-80793678D01*
X146130235Y-80273787D01*
X146172292Y-80262518D01*
X146297708Y-80190110D01*
X146400110Y-80087708D01*
X146472518Y-79962292D01*
X146483787Y-79920235D01*
X147003678Y-80440126D01*
X147003678Y-80440125D01*
X147029095Y-80405143D01*
X147118418Y-80229835D01*
X147179221Y-80042705D01*
X147210000Y-79848382D01*
X147210000Y-79651617D01*
X149790000Y-79651617D01*
X149790000Y-79848382D01*
X149820778Y-80042705D01*
X149881581Y-80229835D01*
X149970905Y-80405145D01*
X149996319Y-80440125D01*
X149996320Y-80440125D01*
X150516212Y-79920233D01*
X150527482Y-79962292D01*
X150599890Y-80087708D01*
X150702292Y-80190110D01*
X150827708Y-80262518D01*
X150869764Y-80273787D01*
X150349873Y-80793677D01*
X150349873Y-80793678D01*
X150384858Y-80819096D01*
X150560164Y-80908418D01*
X150747294Y-80969221D01*
X150941618Y-81000000D01*
X151138382Y-81000000D01*
X151332705Y-80969221D01*
X151519835Y-80908418D01*
X151695143Y-80819095D01*
X151730125Y-80793678D01*
X151730126Y-80793678D01*
X151210235Y-80273787D01*
X151252292Y-80262518D01*
X151377708Y-80190110D01*
X151480110Y-80087708D01*
X151552518Y-79962292D01*
X151563787Y-79920235D01*
X152083678Y-80440126D01*
X152083678Y-80440125D01*
X152109095Y-80405143D01*
X152198418Y-80229835D01*
X152259221Y-80042705D01*
X152290000Y-79848382D01*
X152290000Y-79651617D01*
X154870000Y-79651617D01*
X154870000Y-79848382D01*
X154900778Y-80042705D01*
X154961581Y-80229835D01*
X155050905Y-80405145D01*
X155076319Y-80440125D01*
X155076320Y-80440125D01*
X155596212Y-79920233D01*
X155607482Y-79962292D01*
X155679890Y-80087708D01*
X155782292Y-80190110D01*
X155907708Y-80262518D01*
X155949764Y-80273787D01*
X155429873Y-80793677D01*
X155429873Y-80793678D01*
X155464858Y-80819096D01*
X155640164Y-80908418D01*
X155827294Y-80969221D01*
X156021618Y-81000000D01*
X156218382Y-81000000D01*
X156412705Y-80969221D01*
X156599835Y-80908418D01*
X156775143Y-80819095D01*
X156810125Y-80793678D01*
X156810126Y-80793678D01*
X156290235Y-80273787D01*
X156332292Y-80262518D01*
X156457708Y-80190110D01*
X156560110Y-80087708D01*
X156632518Y-79962292D01*
X156643787Y-79920234D01*
X157163678Y-80440126D01*
X157163678Y-80440125D01*
X157189095Y-80405143D01*
X157278418Y-80229835D01*
X157339221Y-80042705D01*
X157370000Y-79848382D01*
X157370000Y-79651617D01*
X157339221Y-79457294D01*
X157278418Y-79270164D01*
X157189096Y-79094858D01*
X157163678Y-79059873D01*
X157163677Y-79059873D01*
X156643787Y-79579764D01*
X156632518Y-79537708D01*
X156560110Y-79412292D01*
X156457708Y-79309890D01*
X156332292Y-79237482D01*
X156290234Y-79226212D01*
X156810125Y-78706320D01*
X156810125Y-78706319D01*
X156775145Y-78680905D01*
X156599835Y-78591581D01*
X156412705Y-78530778D01*
X156218382Y-78500000D01*
X156021618Y-78500000D01*
X155827294Y-78530778D01*
X155640161Y-78591582D01*
X155464863Y-78680899D01*
X155464859Y-78680902D01*
X155429873Y-78706320D01*
X155429872Y-78706320D01*
X155949765Y-79226212D01*
X155907708Y-79237482D01*
X155782292Y-79309890D01*
X155679890Y-79412292D01*
X155607482Y-79537708D01*
X155596212Y-79579765D01*
X155076320Y-79059872D01*
X155076320Y-79059873D01*
X155050902Y-79094859D01*
X155050899Y-79094863D01*
X154961582Y-79270161D01*
X154900778Y-79457294D01*
X154870000Y-79651617D01*
X152290000Y-79651617D01*
X152259221Y-79457294D01*
X152198418Y-79270164D01*
X152109096Y-79094858D01*
X152083678Y-79059873D01*
X152083677Y-79059873D01*
X151563787Y-79579764D01*
X151552518Y-79537708D01*
X151480110Y-79412292D01*
X151377708Y-79309890D01*
X151252292Y-79237482D01*
X151210234Y-79226212D01*
X151730125Y-78706320D01*
X151730125Y-78706319D01*
X151695145Y-78680905D01*
X151519835Y-78591581D01*
X151332705Y-78530778D01*
X151138382Y-78500000D01*
X150941618Y-78500000D01*
X150747294Y-78530778D01*
X150560161Y-78591582D01*
X150384863Y-78680899D01*
X150384859Y-78680902D01*
X150349873Y-78706320D01*
X150349872Y-78706320D01*
X150869765Y-79226212D01*
X150827708Y-79237482D01*
X150702292Y-79309890D01*
X150599890Y-79412292D01*
X150527482Y-79537708D01*
X150516212Y-79579765D01*
X149996320Y-79059872D01*
X149996320Y-79059873D01*
X149970902Y-79094859D01*
X149970899Y-79094863D01*
X149881582Y-79270161D01*
X149820778Y-79457294D01*
X149790000Y-79651617D01*
X147210000Y-79651617D01*
X147179221Y-79457294D01*
X147118418Y-79270164D01*
X147029096Y-79094858D01*
X147003678Y-79059873D01*
X147003677Y-79059873D01*
X146483787Y-79579764D01*
X146472518Y-79537708D01*
X146400110Y-79412292D01*
X146297708Y-79309890D01*
X146172292Y-79237482D01*
X146130234Y-79226212D01*
X146650125Y-78706320D01*
X146650125Y-78706319D01*
X146615145Y-78680905D01*
X146439835Y-78591581D01*
X146252705Y-78530778D01*
X146058382Y-78500000D01*
X145861618Y-78500000D01*
X145667294Y-78530778D01*
X145480161Y-78591582D01*
X145304863Y-78680899D01*
X145304859Y-78680902D01*
X145269873Y-78706320D01*
X145269872Y-78706320D01*
X145789765Y-79226212D01*
X145747708Y-79237482D01*
X145622292Y-79309890D01*
X145519890Y-79412292D01*
X145447482Y-79537708D01*
X145436212Y-79579765D01*
X144916320Y-79059872D01*
X144916320Y-79059873D01*
X144890902Y-79094859D01*
X144890899Y-79094863D01*
X144801582Y-79270161D01*
X144740778Y-79457294D01*
X144710000Y-79651617D01*
X142130000Y-79651617D01*
X142099221Y-79457294D01*
X142038418Y-79270164D01*
X141949096Y-79094858D01*
X141923678Y-79059873D01*
X141923677Y-79059873D01*
X141403787Y-79579764D01*
X141392518Y-79537708D01*
X141320110Y-79412292D01*
X141217708Y-79309890D01*
X141092292Y-79237482D01*
X141050234Y-79226212D01*
X141570125Y-78706320D01*
X141570125Y-78706319D01*
X141535145Y-78680905D01*
X141359835Y-78591581D01*
X141172705Y-78530778D01*
X140978382Y-78500000D01*
X140781618Y-78500000D01*
X140587294Y-78530778D01*
X140400161Y-78591582D01*
X140224863Y-78680899D01*
X140224859Y-78680902D01*
X140189873Y-78706320D01*
X140189872Y-78706320D01*
X140709765Y-79226212D01*
X140667708Y-79237482D01*
X140542292Y-79309890D01*
X140439890Y-79412292D01*
X140367482Y-79537708D01*
X140356212Y-79579765D01*
X139836320Y-79059872D01*
X139836320Y-79059873D01*
X139810902Y-79094859D01*
X139810899Y-79094863D01*
X139721582Y-79270161D01*
X139660778Y-79457294D01*
X139630000Y-79651617D01*
X120250500Y-79651617D01*
X120250500Y-73413389D01*
X139799500Y-73413389D01*
X139799500Y-73586611D01*
X139826598Y-73757701D01*
X139880127Y-73922445D01*
X139958768Y-74076788D01*
X140060586Y-74216928D01*
X140183072Y-74339414D01*
X140323212Y-74441232D01*
X140477555Y-74519873D01*
X140642299Y-74573402D01*
X140813389Y-74600500D01*
X140813390Y-74600500D01*
X140986610Y-74600500D01*
X140986611Y-74600500D01*
X141157701Y-74573402D01*
X141322445Y-74519873D01*
X141476788Y-74441232D01*
X141616928Y-74339414D01*
X141739414Y-74216928D01*
X141841232Y-74076788D01*
X141919873Y-73922445D01*
X141973402Y-73757701D01*
X142000500Y-73586611D01*
X142000500Y-73413389D01*
X144799500Y-73413389D01*
X144799500Y-73586611D01*
X144826598Y-73757701D01*
X144880127Y-73922445D01*
X144958768Y-74076788D01*
X145060586Y-74216928D01*
X145183072Y-74339414D01*
X145323212Y-74441232D01*
X145477555Y-74519873D01*
X145642299Y-74573402D01*
X145813389Y-74600500D01*
X145813390Y-74600500D01*
X145986610Y-74600500D01*
X145986611Y-74600500D01*
X146157701Y-74573402D01*
X146322445Y-74519873D01*
X146476788Y-74441232D01*
X146616928Y-74339414D01*
X146739414Y-74216928D01*
X146841232Y-74076788D01*
X146919873Y-73922445D01*
X146973402Y-73757701D01*
X147000500Y-73586611D01*
X147000500Y-73413389D01*
X149799500Y-73413389D01*
X149799500Y-73586611D01*
X149826598Y-73757701D01*
X149880127Y-73922445D01*
X149958768Y-74076788D01*
X150060586Y-74216928D01*
X150183072Y-74339414D01*
X150323212Y-74441232D01*
X150477555Y-74519873D01*
X150642299Y-74573402D01*
X150813389Y-74600500D01*
X150813390Y-74600500D01*
X150986610Y-74600500D01*
X150986611Y-74600500D01*
X151157701Y-74573402D01*
X151322445Y-74519873D01*
X151476788Y-74441232D01*
X151616928Y-74339414D01*
X151739414Y-74216928D01*
X151841232Y-74076788D01*
X151919873Y-73922445D01*
X151973402Y-73757701D01*
X152000500Y-73586611D01*
X152000500Y-73413389D01*
X154799500Y-73413389D01*
X154799500Y-73586611D01*
X154826598Y-73757701D01*
X154880127Y-73922445D01*
X154958768Y-74076788D01*
X155060586Y-74216928D01*
X155183072Y-74339414D01*
X155323212Y-74441232D01*
X155477555Y-74519873D01*
X155642299Y-74573402D01*
X155813389Y-74600500D01*
X155813390Y-74600500D01*
X155986610Y-74600500D01*
X155986611Y-74600500D01*
X156157701Y-74573402D01*
X156322445Y-74519873D01*
X156476788Y-74441232D01*
X156616928Y-74339414D01*
X156739414Y-74216928D01*
X156841232Y-74076788D01*
X156919873Y-73922445D01*
X156973402Y-73757701D01*
X157000500Y-73586611D01*
X157000500Y-73413389D01*
X156973402Y-73242299D01*
X156919873Y-73077555D01*
X156841232Y-72923212D01*
X156739414Y-72783072D01*
X156616928Y-72660586D01*
X156476788Y-72558768D01*
X156322445Y-72480127D01*
X156157701Y-72426598D01*
X156157699Y-72426597D01*
X156157698Y-72426597D01*
X156026271Y-72405781D01*
X155986611Y-72399500D01*
X155813389Y-72399500D01*
X155773728Y-72405781D01*
X155642302Y-72426597D01*
X155477552Y-72480128D01*
X155323211Y-72558768D01*
X155243256Y-72616859D01*
X155183072Y-72660586D01*
X155183070Y-72660588D01*
X155183069Y-72660588D01*
X155060588Y-72783069D01*
X155060588Y-72783070D01*
X155060586Y-72783072D01*
X155016859Y-72843256D01*
X154958768Y-72923211D01*
X154880128Y-73077552D01*
X154826597Y-73242302D01*
X154799500Y-73413389D01*
X152000500Y-73413389D01*
X151973402Y-73242299D01*
X151919873Y-73077555D01*
X151841232Y-72923212D01*
X151739414Y-72783072D01*
X151616928Y-72660586D01*
X151476788Y-72558768D01*
X151322445Y-72480127D01*
X151157701Y-72426598D01*
X151157699Y-72426597D01*
X151157698Y-72426597D01*
X151026271Y-72405781D01*
X150986611Y-72399500D01*
X150813389Y-72399500D01*
X150773728Y-72405781D01*
X150642302Y-72426597D01*
X150477552Y-72480128D01*
X150323211Y-72558768D01*
X150243256Y-72616859D01*
X150183072Y-72660586D01*
X150183070Y-72660588D01*
X150183069Y-72660588D01*
X150060588Y-72783069D01*
X150060588Y-72783070D01*
X150060586Y-72783072D01*
X150016859Y-72843256D01*
X149958768Y-72923211D01*
X149880128Y-73077552D01*
X149826597Y-73242302D01*
X149799500Y-73413389D01*
X147000500Y-73413389D01*
X146973402Y-73242299D01*
X146919873Y-73077555D01*
X146841232Y-72923212D01*
X146739414Y-72783072D01*
X146616928Y-72660586D01*
X146476788Y-72558768D01*
X146322445Y-72480127D01*
X146157701Y-72426598D01*
X146157699Y-72426597D01*
X146157698Y-72426597D01*
X146026271Y-72405781D01*
X145986611Y-72399500D01*
X145813389Y-72399500D01*
X145773728Y-72405781D01*
X145642302Y-72426597D01*
X145477552Y-72480128D01*
X145323211Y-72558768D01*
X145243256Y-72616859D01*
X145183072Y-72660586D01*
X145183070Y-72660588D01*
X145183069Y-72660588D01*
X145060588Y-72783069D01*
X145060588Y-72783070D01*
X145060586Y-72783072D01*
X145016859Y-72843256D01*
X144958768Y-72923211D01*
X144880128Y-73077552D01*
X144826597Y-73242302D01*
X144799500Y-73413389D01*
X142000500Y-73413389D01*
X141973402Y-73242299D01*
X141919873Y-73077555D01*
X141841232Y-72923212D01*
X141739414Y-72783072D01*
X141616928Y-72660586D01*
X141476788Y-72558768D01*
X141322445Y-72480127D01*
X141157701Y-72426598D01*
X141157699Y-72426597D01*
X141157698Y-72426597D01*
X141026271Y-72405781D01*
X140986611Y-72399500D01*
X140813389Y-72399500D01*
X140773728Y-72405781D01*
X140642302Y-72426597D01*
X140477552Y-72480128D01*
X140323211Y-72558768D01*
X140243256Y-72616859D01*
X140183072Y-72660586D01*
X140183070Y-72660588D01*
X140183069Y-72660588D01*
X140060588Y-72783069D01*
X140060588Y-72783070D01*
X140060586Y-72783072D01*
X140016859Y-72843256D01*
X139958768Y-72923211D01*
X139880128Y-73077552D01*
X139826597Y-73242302D01*
X139799500Y-73413389D01*
X120250500Y-73413389D01*
X120250500Y-68413389D01*
X139799500Y-68413389D01*
X139799500Y-68586611D01*
X139826598Y-68757701D01*
X139880127Y-68922445D01*
X139958768Y-69076788D01*
X140060586Y-69216928D01*
X140183072Y-69339414D01*
X140323212Y-69441232D01*
X140477555Y-69519873D01*
X140642299Y-69573402D01*
X140813389Y-69600500D01*
X140813390Y-69600500D01*
X140986610Y-69600500D01*
X140986611Y-69600500D01*
X141157701Y-69573402D01*
X141322445Y-69519873D01*
X141476788Y-69441232D01*
X141616928Y-69339414D01*
X141739414Y-69216928D01*
X141841232Y-69076788D01*
X141919873Y-68922445D01*
X141973402Y-68757701D01*
X142000500Y-68586611D01*
X142000500Y-68413389D01*
X144799500Y-68413389D01*
X144799500Y-68586611D01*
X144826598Y-68757701D01*
X144880127Y-68922445D01*
X144958768Y-69076788D01*
X145060586Y-69216928D01*
X145183072Y-69339414D01*
X145323212Y-69441232D01*
X145477555Y-69519873D01*
X145642299Y-69573402D01*
X145813389Y-69600500D01*
X145813390Y-69600500D01*
X145986610Y-69600500D01*
X145986611Y-69600500D01*
X146157701Y-69573402D01*
X146322445Y-69519873D01*
X146476788Y-69441232D01*
X146616928Y-69339414D01*
X146739414Y-69216928D01*
X146841232Y-69076788D01*
X146919873Y-68922445D01*
X146973402Y-68757701D01*
X147000500Y-68586611D01*
X147000500Y-68413389D01*
X149799500Y-68413389D01*
X149799500Y-68586611D01*
X149826598Y-68757701D01*
X149880127Y-68922445D01*
X149958768Y-69076788D01*
X150060586Y-69216928D01*
X150183072Y-69339414D01*
X150323212Y-69441232D01*
X150477555Y-69519873D01*
X150642299Y-69573402D01*
X150813389Y-69600500D01*
X150813390Y-69600500D01*
X150986610Y-69600500D01*
X150986611Y-69600500D01*
X151157701Y-69573402D01*
X151322445Y-69519873D01*
X151476788Y-69441232D01*
X151616928Y-69339414D01*
X151739414Y-69216928D01*
X151841232Y-69076788D01*
X151919873Y-68922445D01*
X151973402Y-68757701D01*
X152000500Y-68586611D01*
X152000500Y-68413389D01*
X154799500Y-68413389D01*
X154799500Y-68586611D01*
X154826598Y-68757701D01*
X154880127Y-68922445D01*
X154958768Y-69076788D01*
X155060586Y-69216928D01*
X155183072Y-69339414D01*
X155323212Y-69441232D01*
X155477555Y-69519873D01*
X155642299Y-69573402D01*
X155813389Y-69600500D01*
X155813390Y-69600500D01*
X155986610Y-69600500D01*
X155986611Y-69600500D01*
X156157701Y-69573402D01*
X156322445Y-69519873D01*
X156476788Y-69441232D01*
X156616928Y-69339414D01*
X156739414Y-69216928D01*
X156841232Y-69076788D01*
X156919873Y-68922445D01*
X156973402Y-68757701D01*
X157000500Y-68586611D01*
X157000500Y-68413389D01*
X156973402Y-68242299D01*
X156919873Y-68077555D01*
X156841232Y-67923212D01*
X156739414Y-67783072D01*
X156616928Y-67660586D01*
X156476788Y-67558768D01*
X156322445Y-67480127D01*
X156157701Y-67426598D01*
X156157699Y-67426597D01*
X156157698Y-67426597D01*
X156026271Y-67405781D01*
X155986611Y-67399500D01*
X155813389Y-67399500D01*
X155773728Y-67405781D01*
X155642302Y-67426597D01*
X155477552Y-67480128D01*
X155323211Y-67558768D01*
X155243256Y-67616859D01*
X155183072Y-67660586D01*
X155183070Y-67660588D01*
X155183069Y-67660588D01*
X155060588Y-67783069D01*
X155060588Y-67783070D01*
X155060586Y-67783072D01*
X155036844Y-67815750D01*
X154958768Y-67923211D01*
X154880128Y-68077552D01*
X154826597Y-68242302D01*
X154799500Y-68413389D01*
X152000500Y-68413389D01*
X151973402Y-68242299D01*
X151919873Y-68077555D01*
X151841232Y-67923212D01*
X151739414Y-67783072D01*
X151616928Y-67660586D01*
X151476788Y-67558768D01*
X151322445Y-67480127D01*
X151157701Y-67426598D01*
X151157699Y-67426597D01*
X151157698Y-67426597D01*
X151026271Y-67405781D01*
X150986611Y-67399500D01*
X150813389Y-67399500D01*
X150773728Y-67405781D01*
X150642302Y-67426597D01*
X150477552Y-67480128D01*
X150323211Y-67558768D01*
X150243256Y-67616859D01*
X150183072Y-67660586D01*
X150183070Y-67660588D01*
X150183069Y-67660588D01*
X150060588Y-67783069D01*
X150060588Y-67783070D01*
X150060586Y-67783072D01*
X150036844Y-67815750D01*
X149958768Y-67923211D01*
X149880128Y-68077552D01*
X149826597Y-68242302D01*
X149799500Y-68413389D01*
X147000500Y-68413389D01*
X146973402Y-68242299D01*
X146919873Y-68077555D01*
X146841232Y-67923212D01*
X146739414Y-67783072D01*
X146616928Y-67660586D01*
X146476788Y-67558768D01*
X146322445Y-67480127D01*
X146157701Y-67426598D01*
X146157699Y-67426597D01*
X146157698Y-67426597D01*
X146026271Y-67405781D01*
X145986611Y-67399500D01*
X145813389Y-67399500D01*
X145773728Y-67405781D01*
X145642302Y-67426597D01*
X145477552Y-67480128D01*
X145323211Y-67558768D01*
X145243256Y-67616859D01*
X145183072Y-67660586D01*
X145183070Y-67660588D01*
X145183069Y-67660588D01*
X145060588Y-67783069D01*
X145060588Y-67783070D01*
X145060586Y-67783072D01*
X145036844Y-67815750D01*
X144958768Y-67923211D01*
X144880128Y-68077552D01*
X144826597Y-68242302D01*
X144799500Y-68413389D01*
X142000500Y-68413389D01*
X141973402Y-68242299D01*
X141919873Y-68077555D01*
X141841232Y-67923212D01*
X141739414Y-67783072D01*
X141616928Y-67660586D01*
X141476788Y-67558768D01*
X141322445Y-67480127D01*
X141157701Y-67426598D01*
X141157699Y-67426597D01*
X141157698Y-67426597D01*
X141026271Y-67405781D01*
X140986611Y-67399500D01*
X140813389Y-67399500D01*
X140773728Y-67405781D01*
X140642302Y-67426597D01*
X140477552Y-67480128D01*
X140323211Y-67558768D01*
X140243256Y-67616859D01*
X140183072Y-67660586D01*
X140183070Y-67660588D01*
X140183069Y-67660588D01*
X140060588Y-67783069D01*
X140060588Y-67783070D01*
X140060586Y-67783072D01*
X140036844Y-67815750D01*
X139958768Y-67923211D01*
X139880128Y-68077552D01*
X139826597Y-68242302D01*
X139799500Y-68413389D01*
X120250500Y-68413389D01*
X120250500Y-67753246D01*
X120250670Y-67746756D01*
X120267961Y-67416821D01*
X120269318Y-67403913D01*
X120270017Y-67399500D01*
X120320493Y-67080804D01*
X120323186Y-67068129D01*
X120407863Y-66752113D01*
X120411871Y-66739781D01*
X120529109Y-66434365D01*
X120534375Y-66422536D01*
X120682912Y-66131014D01*
X120689373Y-66119824D01*
X120867570Y-65845425D01*
X120875179Y-65834953D01*
X121081072Y-65580696D01*
X121089739Y-65571071D01*
X121321071Y-65339739D01*
X121330696Y-65331072D01*
X121584953Y-65125179D01*
X121595425Y-65117570D01*
X121869824Y-64939373D01*
X121881014Y-64932912D01*
X122172536Y-64784375D01*
X122184365Y-64779109D01*
X122489785Y-64661869D01*
X122502113Y-64657863D01*
X122818129Y-64573186D01*
X122830804Y-64570493D01*
X123153915Y-64519317D01*
X123166819Y-64517961D01*
X123496318Y-64500692D01*
X123503504Y-64500525D01*
X148436512Y-64650122D01*
G37*
%TD.AperFunction*%
%TD*%
M02*
