%TF.GenerationSoftware,KiCad,Pcbnew,10.0.5-unknown-202607221313~667fa36054~ubuntu25.10.1*%
%TF.CreationDate,Date%
%TF.ProjectId,OPEN_WEIGHT,4f50454e-5f57-4454-9947-48542e6b6963,+ (Unreleased)*%
%TF.SameCoordinates,Original*%
%TF.FileFunction,Copper,L1,Top*%
%TF.FilePolarity,Positive*%
%FSLAX46Y46*%
G04 Gerber Fmt 4.6, Leading zero omitted, Abs format (unit mm)*
G04 Created by KiCad*
%MOMM*%
%LPD*%
G01*
G04 APERTURE LIST*
G04 Aperture macros list*
%AMRoundRect*
0 Rectangle with rounded corners*
0 $1 Rounding radius*
0 $2 $3 $4 $5 $6 $7 $8 $9 X,Y pos of 4 corners*
0 Add a 4 corners polygon primitive as box body*
4,1,4,$2,$3,$4,$5,$6,$7,$8,$9,$2,$3,0*
0 Add four circle primitives for the rounded corners*
1,1,$1+$1,$2,$3*
1,1,$1+$1,$4,$5*
1,1,$1+$1,$6,$7*
1,1,$1+$1,$8,$9*
0 Add four rect primitives between the rounded corners*
20,1,$1+$1,$2,$3,$4,$5,0*
20,1,$1+$1,$4,$5,$6,$7,0*
20,1,$1+$1,$6,$7,$8,$9,0*
20,1,$1+$1,$8,$9,$2,$3,0*%
%AMFreePoly0*
4,1,29,0.403536,1.303536,0.405000,1.300000,0.405000,0.800000,0.403536,0.796464,0.400000,0.795000,0.205000,0.795000,0.205000,-0.795000,0.400000,-0.795000,0.403536,-0.796464,0.405000,-0.800000,0.405000,-1.300000,0.403536,-1.303536,0.400000,-1.305000,-0.400000,-1.305000,-0.403536,-1.303536,-0.405000,-1.300000,-0.405000,-0.800000,-0.403536,-0.796464,-0.400000,-0.795000,-0.205000,-0.795000,
-0.205000,0.795000,-0.400000,0.795000,-0.403536,0.796464,-0.405000,0.800000,-0.405000,1.300000,-0.403536,1.303536,-0.400000,1.305000,0.400000,1.305000,0.403536,1.303536,0.403536,1.303536,$1*%
G04 Aperture macros list end*
%TA.AperFunction,SMDPad,CuDef*%
%ADD10RoundRect,0.200000X-0.275000X0.200000X-0.275000X-0.200000X0.275000X-0.200000X0.275000X0.200000X0*%
%TD*%
%TA.AperFunction,SMDPad,CuDef*%
%ADD11RoundRect,0.225000X0.250000X-0.225000X0.250000X0.225000X-0.250000X0.225000X-0.250000X-0.225000X0*%
%TD*%
%TA.AperFunction,SMDPad,CuDef*%
%ADD12RoundRect,0.200000X0.200000X0.275000X-0.200000X0.275000X-0.200000X-0.275000X0.200000X-0.275000X0*%
%TD*%
%TA.AperFunction,SMDPad,CuDef*%
%ADD13R,1.850000X1.900000*%
%TD*%
%TA.AperFunction,SMDPad,CuDef*%
%ADD14R,0.240000X0.600000*%
%TD*%
%TA.AperFunction,SMDPad,CuDef*%
%ADD15R,2.400000X1.650000*%
%TD*%
%TA.AperFunction,SMDPad,CuDef*%
%ADD16R,0.500000X0.250000*%
%TD*%
%TA.AperFunction,SMDPad,CuDef*%
%ADD17RoundRect,0.225000X-0.225000X-0.250000X0.225000X-0.250000X0.225000X0.250000X-0.225000X0.250000X0*%
%TD*%
%TA.AperFunction,ComponentPad*%
%ADD18C,0.800000*%
%TD*%
%TA.AperFunction,ComponentPad*%
%ADD19C,6.400000*%
%TD*%
%TA.AperFunction,SMDPad,CuDef*%
%ADD20RoundRect,0.225000X0.225000X0.250000X-0.225000X0.250000X-0.225000X-0.250000X0.225000X-0.250000X0*%
%TD*%
%TA.AperFunction,SMDPad,CuDef*%
%ADD21RoundRect,0.150000X0.150000X-0.512500X0.150000X0.512500X-0.150000X0.512500X-0.150000X-0.512500X0*%
%TD*%
%TA.AperFunction,SMDPad,CuDef*%
%ADD22R,1.450000X0.450000*%
%TD*%
%TA.AperFunction,SMDPad,CuDef*%
%ADD23RoundRect,0.200000X0.275000X-0.200000X0.275000X0.200000X-0.275000X0.200000X-0.275000X-0.200000X0*%
%TD*%
%TA.AperFunction,ComponentPad*%
%ADD24RoundRect,0.250000X-0.600000X-0.725000X0.600000X-0.725000X0.600000X0.725000X-0.600000X0.725000X0*%
%TD*%
%TA.AperFunction,ComponentPad*%
%ADD25O,1.700000X1.950000*%
%TD*%
%TA.AperFunction,ComponentPad*%
%ADD26R,1.875000X1.875000*%
%TD*%
%TA.AperFunction,ComponentPad*%
%ADD27C,1.875000*%
%TD*%
%TA.AperFunction,ComponentPad*%
%ADD28C,2.025000*%
%TD*%
%TA.AperFunction,SMDPad,CuDef*%
%ADD29RoundRect,0.200000X-0.200000X-0.275000X0.200000X-0.275000X0.200000X0.275000X-0.200000X0.275000X0*%
%TD*%
%TA.AperFunction,SMDPad,CuDef*%
%ADD30RoundRect,0.225000X-0.250000X0.225000X-0.250000X-0.225000X0.250000X-0.225000X0.250000X0.225000X0*%
%TD*%
%TA.AperFunction,SMDPad,CuDef*%
%ADD31RoundRect,0.218750X-0.218750X-0.256250X0.218750X-0.256250X0.218750X0.256250X-0.218750X0.256250X0*%
%TD*%
%TA.AperFunction,SMDPad,CuDef*%
%ADD32RoundRect,0.250000X-0.300000X0.300000X-0.300000X-0.300000X0.300000X-0.300000X0.300000X0.300000X0*%
%TD*%
%TA.AperFunction,SMDPad,CuDef*%
%ADD33R,0.400000X0.900000*%
%TD*%
%TA.AperFunction,ComponentPad*%
%ADD34C,1.500000*%
%TD*%
%TA.AperFunction,SMDPad,CuDef*%
%ADD35R,1.700000X1.300000*%
%TD*%
%TA.AperFunction,SMDPad,CuDef*%
%ADD36RoundRect,0.075000X0.075000X-0.650000X0.075000X0.650000X-0.075000X0.650000X-0.075000X-0.650000X0*%
%TD*%
%TA.AperFunction,HeatsinkPad*%
%ADD37C,0.500000*%
%TD*%
%TA.AperFunction,HeatsinkPad*%
%ADD38R,3.100000X2.200000*%
%TD*%
%TA.AperFunction,SMDPad,CuDef*%
%ADD39FreePoly0,0.000000*%
%TD*%
%TA.AperFunction,ViaPad*%
%ADD40C,0.550000*%
%TD*%
%TA.AperFunction,ViaPad*%
%ADD41C,0.600000*%
%TD*%
%TA.AperFunction,Conductor*%
%ADD42C,0.200000*%
%TD*%
%TA.AperFunction,Conductor*%
%ADD43C,0.800000*%
%TD*%
%TA.AperFunction,Conductor*%
%ADD44C,0.450000*%
%TD*%
%TA.AperFunction,Conductor*%
%ADD45C,0.400000*%
%TD*%
%TA.AperFunction,Conductor*%
%ADD46C,0.600000*%
%TD*%
%TA.AperFunction,Conductor*%
%ADD47C,0.250000*%
%TD*%
%TA.AperFunction,Conductor*%
%ADD48C,0.300000*%
%TD*%
%TA.AperFunction,Conductor*%
%ADD49C,0.500000*%
%TD*%
G04 APERTURE END LIST*
D10*
%TO.P,R2,1*%
%TO.N,IN-OUT+2*%
X142445000Y-81565000D03*
%TO.P,R2,2*%
%TO.N,OUT-2*%
X142445000Y-83215000D03*
%TD*%
D11*
%TO.P,C22,1*%
%TO.N,+3.3V*%
X133475000Y-102025000D03*
%TO.P,C22,2*%
%TO.N,GND*%
X133475000Y-100475000D03*
%TD*%
D12*
%TO.P,R11,1*%
%TO.N,Net-(U1-P2)*%
X164538750Y-103080000D03*
%TO.P,R11,2*%
%TO.N,Net-(D2-A)*%
X162888750Y-103080000D03*
%TD*%
D10*
%TO.P,R4,1*%
%TO.N,IN-OUT+*%
X151850000Y-81565000D03*
%TO.P,R4,2*%
%TO.N,OUT+*%
X151850000Y-83215000D03*
%TD*%
D13*
%TO.P,L1,1,1*%
%TO.N,+3.3V*%
X130750000Y-104250000D03*
%TO.P,L1,2,2*%
%TO.N,Net-(D3-A)*%
X126400000Y-104250000D03*
%TD*%
D10*
%TO.P,R1,1*%
%TO.N,IN-OUT-2*%
X144155000Y-81565000D03*
%TO.P,R1,2*%
%TO.N,OUT+2*%
X144155000Y-83215000D03*
%TD*%
D14*
%TO.P,IC2,1,COMP*%
%TO.N,/Project Architecture/TPS61086_3.3V_to_6V/COMP*%
X130975000Y-96200000D03*
%TO.P,IC2,2,FB*%
%TO.N,/Project Architecture/TPS61086_3.3V_to_6V/FB*%
X130475000Y-96200000D03*
%TO.P,IC2,3,EN*%
%TO.N,+3.3V*%
X129975000Y-96200000D03*
%TO.P,IC2,4,AGND*%
%TO.N,GND*%
X129475000Y-96200000D03*
%TO.P,IC2,5,PGND*%
X128975000Y-96200000D03*
%TO.P,IC2,6,SW_1*%
%TO.N,Net-(D3-A)*%
X128975000Y-99000000D03*
%TO.P,IC2,7,SW_2*%
X129475000Y-99000000D03*
%TO.P,IC2,8,IN*%
%TO.N,+3.3V*%
X129975000Y-99000000D03*
%TO.P,IC2,9,MODE*%
%TO.N,GND*%
X130475000Y-99000000D03*
%TO.P,IC2,10,SS*%
%TO.N,/Project Architecture/TPS61086_3.3V_to_6V/SS*%
X130975000Y-99000000D03*
D15*
%TO.P,IC2,11,EP*%
%TO.N,GND*%
X129975000Y-97600000D03*
D16*
%TO.P,IC2,12,EP_2*%
X128525000Y-97350000D03*
%TO.P,IC2,13,EP_3*%
X128525000Y-97850000D03*
%TO.P,IC2,14,EP_4*%
X131425000Y-97850000D03*
%TO.P,IC2,15,EP_5*%
X131425000Y-97350000D03*
%TD*%
D17*
%TO.P,C24,1*%
%TO.N,MCLK2*%
X155677500Y-95762500D03*
%TO.P,C24,2*%
%TO.N,GND*%
X157227500Y-95762500D03*
%TD*%
D18*
%TO.P,H3,1,1*%
%TO.N,GND*%
X121850000Y-110750000D03*
X122552944Y-109052944D03*
X122552944Y-112447056D03*
X124250000Y-108350000D03*
D19*
X124250000Y-110750000D03*
D18*
X124250000Y-113150000D03*
X125947056Y-109052944D03*
X125947056Y-112447056D03*
X126650000Y-110750000D03*
%TD*%
D20*
%TO.P,C25,1*%
%TO.N,MCLK1*%
X154227500Y-95762500D03*
%TO.P,C25,2*%
%TO.N,GND*%
X152677500Y-95762500D03*
%TD*%
D17*
%TO.P,C9,1*%
%TO.N,SENSE-*%
X148725000Y-83150000D03*
%TO.P,C9,2*%
%TO.N,GND*%
X150275000Y-83150000D03*
%TD*%
%TO.P,C27,1*%
%TO.N,GND*%
X150325000Y-84640000D03*
%TO.P,C27,2*%
%TO.N,OUT+*%
X151875000Y-84640000D03*
%TD*%
D21*
%TO.P,Q1,1,G*%
%TO.N,Net-(Q1-G)*%
X155050000Y-91437500D03*
%TO.P,Q1,2,S*%
%TO.N,+5VA*%
X156950000Y-91437500D03*
%TO.P,Q1,3,D*%
%TO.N,SENSE+*%
X156000000Y-89162500D03*
%TD*%
D17*
%TO.P,C5,1*%
%TO.N,SENSE+*%
X147225000Y-84650000D03*
%TO.P,C5,2*%
%TO.N,SENSE-*%
X148775000Y-84650000D03*
%TD*%
D22*
%TO.P,U1,1,MCLK1*%
%TO.N,MCLK1*%
X150900000Y-95075000D03*
%TO.P,U1,2,MCLK2*%
%TO.N,MCLK2*%
X150900000Y-94425000D03*
%TO.P,U1,3,SCLK*%
%TO.N,Net-(RN1-R1.1)*%
X150900000Y-93775000D03*
%TO.P,U1,4,~{CS}*%
%TO.N,Net-(U1-~{CS})*%
X150900000Y-93125000D03*
%TO.P,U1,5,P3*%
%TO.N,P3*%
X150900000Y-92475000D03*
%TO.P,U1,6,P2*%
%TO.N,Net-(U1-P2)*%
X150900000Y-91825000D03*
%TO.P,U1,7,P1/REFIN2(+)*%
%TO.N,unconnected-(U1-P1{slash}REFIN2(+)-Pad7)*%
X150900000Y-91175000D03*
%TO.P,U1,8,P0/REFIN2(-)*%
%TO.N,unconnected-(U1-P0{slash}REFIN2(-)-Pad8)*%
X150900000Y-90525000D03*
%TO.P,U1,9,NC*%
%TO.N,GND*%
X150900000Y-89875000D03*
%TO.P,U1,10,AINCOM*%
%TO.N,unconnected-(U1-AINCOM-Pad10)*%
X150900000Y-89225000D03*
%TO.P,U1,11,AIN1*%
%TO.N,OUT-*%
X150900000Y-88575000D03*
%TO.P,U1,12,AIN2*%
%TO.N,OUT+*%
X150900000Y-87925000D03*
%TO.P,U1,13,AIN3*%
%TO.N,OUT+2*%
X145100000Y-87925000D03*
%TO.P,U1,14,AIN4*%
%TO.N,OUT-2*%
X145100000Y-88575000D03*
%TO.P,U1,15,REFIN1(+)*%
%TO.N,SENSE+*%
X145100000Y-89225000D03*
%TO.P,U1,16,REFIN1(-)*%
%TO.N,SENSE-*%
X145100000Y-89875000D03*
%TO.P,U1,17,BPDSW*%
X145100000Y-90525000D03*
%TO.P,U1,18,AGND*%
%TO.N,GND*%
X145100000Y-91175000D03*
%TO.P,U1,19,DGND*%
X145100000Y-91825000D03*
%TO.P,U1,20,AVDD*%
%TO.N,+5VA*%
X145100000Y-92475000D03*
%TO.P,U1,21,DVDD*%
%TO.N,+3.3V*%
X145100000Y-93125000D03*
%TO.P,U1,22,~{SYNC}*%
%TO.N,Net-(RN1-R2.1)*%
X145100000Y-93775000D03*
%TO.P,U1,23,DOUT/~{RDY}*%
%TO.N,Net-(RN1-R3.1)*%
X145100000Y-94425000D03*
%TO.P,U1,24,DIN*%
%TO.N,Net-(RN1-R4.1)*%
X145100000Y-95075000D03*
%TD*%
D12*
%TO.P,R17,1*%
%TO.N,/Project Architecture/TPS61086_3.3V_to_6V/FB*%
X130475000Y-92630000D03*
%TO.P,R17,2*%
%TO.N,+6V*%
X128825000Y-92630000D03*
%TD*%
D18*
%TO.P,H2,1,1*%
%TO.N,GND*%
X121850000Y-69250000D03*
X122552944Y-67552944D03*
X122552944Y-70947056D03*
X124250000Y-66850000D03*
D19*
X124250000Y-69250000D03*
D18*
X124250000Y-71650000D03*
X125947056Y-67552944D03*
X125947056Y-70947056D03*
X126650000Y-69250000D03*
%TD*%
D23*
%TO.P,R13,1*%
%TO.N,GND*%
X132450000Y-86313847D03*
%TO.P,R13,2*%
%TO.N,/Project Architecture/LT3042_6V_to_5VA/PGFB*%
X132450000Y-84663847D03*
%TD*%
D24*
%TO.P,J1,1,Pin_1*%
%TO.N,+3.3V*%
X140500000Y-110500000D03*
D25*
%TO.P,J1,2,Pin_2*%
%TO.N,CS*%
X143000000Y-110500000D03*
%TO.P,J1,3,Pin_3*%
%TO.N,DIN*%
X145500000Y-110500000D03*
%TO.P,J1,4,Pin_4*%
%TO.N,DOUT*%
X148000000Y-110500000D03*
%TO.P,J1,5,Pin_5*%
%TO.N,SYNC*%
X150500000Y-110500000D03*
%TO.P,J1,6,Pin_6*%
%TO.N,SCLK*%
X153000000Y-110500000D03*
%TO.P,J1,7,Pin_7*%
%TO.N,GND*%
X155500000Y-110500000D03*
%TD*%
D26*
%TO.P,J2,1,1*%
%TO.N,IN-OUT+2*%
X135700000Y-76866000D03*
D27*
%TO.P,J2,2,2*%
%TO.N,IN-OUT-2*%
X139236000Y-76866000D03*
%TO.P,J2,3,3*%
%TO.N,SENSE+*%
X139236000Y-73330000D03*
%TO.P,J2,4,4*%
%TO.N,SENSE-*%
X135700000Y-73330000D03*
%TO.P,J2,5,5*%
%TO.N,GND*%
X137468000Y-75098000D03*
D28*
%TO.P,J2,S1,SHIELD*%
X137468000Y-71098000D03*
%TD*%
D20*
%TO.P,C20,1*%
%TO.N,+6V*%
X126600000Y-95100000D03*
%TO.P,C20,2*%
%TO.N,GND*%
X125050000Y-95100000D03*
%TD*%
D29*
%TO.P,R16,1*%
%TO.N,Net-(D4-A)*%
X162888750Y-104580000D03*
%TO.P,R16,2*%
%TO.N,+5VA*%
X164538750Y-104580000D03*
%TD*%
D30*
%TO.P,C4,1*%
%TO.N,GND*%
X141150000Y-90725000D03*
%TO.P,C4,2*%
%TO.N,+5VA*%
X141150000Y-92275000D03*
%TD*%
D18*
%TO.P,H4,1,1*%
%TO.N,GND*%
X169350000Y-110750000D03*
X170052944Y-109052944D03*
X170052944Y-112447056D03*
X171750000Y-108350000D03*
D19*
X171750000Y-110750000D03*
D18*
X171750000Y-113150000D03*
X173447056Y-109052944D03*
X173447056Y-112447056D03*
X174150000Y-110750000D03*
%TD*%
D29*
%TO.P,R14,1*%
%TO.N,+6V*%
X128775000Y-91100000D03*
%TO.P,R14,2*%
%TO.N,/Project Architecture/LT3042_6V_to_5VA/PG*%
X130425000Y-91100000D03*
%TD*%
D30*
%TO.P,C15,1*%
%TO.N,+5VA*%
X125750000Y-84963847D03*
%TO.P,C15,2*%
%TO.N,GND*%
X125750000Y-86513847D03*
%TD*%
D12*
%TO.P,R9,1*%
%TO.N,GND*%
X133675000Y-83238847D03*
%TO.P,R9,2*%
%TO.N,/Project Architecture/LT3042_6V_to_5VA/SET*%
X132025000Y-83238847D03*
%TD*%
D18*
%TO.P,H1,1,1*%
%TO.N,GND*%
X169350000Y-69250000D03*
X170052944Y-67552944D03*
X170052944Y-70947056D03*
X171750000Y-66850000D03*
D19*
X171750000Y-69250000D03*
D18*
X171750000Y-71650000D03*
X173447056Y-67552944D03*
X173447056Y-70947056D03*
X174150000Y-69250000D03*
%TD*%
D31*
%TO.P,D1,1,K*%
%TO.N,GND*%
X159926250Y-106080000D03*
%TO.P,D1,2,A*%
%TO.N,Net-(D1-A)*%
X161501250Y-106080000D03*
%TD*%
D29*
%TO.P,R15,1*%
%TO.N,GND*%
X128825000Y-94100000D03*
%TO.P,R15,2*%
%TO.N,/Project Architecture/TPS61086_3.3V_to_6V/FB*%
X130475000Y-94100000D03*
%TD*%
D20*
%TO.P,C6,1*%
%TO.N,OUT+2*%
X144075000Y-86150000D03*
%TO.P,C6,2*%
%TO.N,OUT-2*%
X142525000Y-86150000D03*
%TD*%
D11*
%TO.P,C21,1*%
%TO.N,+3.3V*%
X134985000Y-102025000D03*
%TO.P,C21,2*%
%TO.N,GND*%
X134985000Y-100475000D03*
%TD*%
D23*
%TO.P,R6,1*%
%TO.N,CS*%
X145400000Y-106425000D03*
%TO.P,R6,2*%
%TO.N,Net-(U1-~{CS})*%
X145400000Y-104775000D03*
%TD*%
D11*
%TO.P,C23,1*%
%TO.N,SENSE+*%
X155290000Y-87475000D03*
%TO.P,C23,2*%
%TO.N,GND*%
X155290000Y-85925000D03*
%TD*%
D17*
%TO.P,C26,1*%
%TO.N,+5VA*%
X155425000Y-93300000D03*
%TO.P,C26,2*%
%TO.N,GND*%
X156975000Y-93300000D03*
%TD*%
%TO.P,C28,1*%
%TO.N,OUT+*%
X151900000Y-86150000D03*
%TO.P,C28,2*%
%TO.N,OUT-*%
X153450000Y-86150000D03*
%TD*%
D10*
%TO.P,R5,1*%
%TO.N,IN-OUT-*%
X153520000Y-81565000D03*
%TO.P,R5,2*%
%TO.N,OUT-*%
X153520000Y-83215000D03*
%TD*%
D11*
%TO.P,C11,1*%
%TO.N,SENSE+*%
X156800000Y-87475000D03*
%TO.P,C11,2*%
%TO.N,GND*%
X156800000Y-85925000D03*
%TD*%
%TO.P,C17,1*%
%TO.N,Net-(C17-Pad1)*%
X131975000Y-94125000D03*
%TO.P,C17,2*%
%TO.N,GND*%
X131975000Y-92575000D03*
%TD*%
D29*
%TO.P,R8,1*%
%TO.N,+3.3V*%
X142325000Y-104800000D03*
%TO.P,R8,2*%
%TO.N,Net-(U1-~{CS})*%
X143975000Y-104800000D03*
%TD*%
D10*
%TO.P,R12,1*%
%TO.N,/Project Architecture/LT3042_6V_to_5VA/PGFB*%
X133950000Y-84663847D03*
%TO.P,R12,2*%
%TO.N,+5VA*%
X133950000Y-86313847D03*
%TD*%
D30*
%TO.P,C1,1*%
%TO.N,+3.3V*%
X141150000Y-93725000D03*
%TO.P,C1,2*%
%TO.N,GND*%
X141150000Y-95275000D03*
%TD*%
D32*
%TO.P,D3,1,K*%
%TO.N,+6V*%
X126075000Y-96650000D03*
%TO.P,D3,2,A*%
%TO.N,Net-(D3-A)*%
X126075000Y-99450000D03*
%TD*%
D17*
%TO.P,C18,1*%
%TO.N,/Project Architecture/TPS61086_3.3V_to_6V/SS*%
X133450000Y-99000000D03*
%TO.P,C18,2*%
%TO.N,GND*%
X135000000Y-99000000D03*
%TD*%
D33*
%TO.P,RN1,1,R1.1*%
%TO.N,Net-(RN1-R1.1)*%
X149200000Y-104775000D03*
%TO.P,RN1,2,R2.1*%
%TO.N,Net-(RN1-R2.1)*%
X148400000Y-104775000D03*
%TO.P,RN1,3,R3.1*%
%TO.N,Net-(RN1-R3.1)*%
X147600000Y-104775000D03*
%TO.P,RN1,4,R4.1*%
%TO.N,Net-(RN1-R4.1)*%
X146800000Y-104775000D03*
%TO.P,RN1,5,R4.2*%
%TO.N,DIN*%
X146800000Y-106475000D03*
%TO.P,RN1,6,R3.2*%
%TO.N,DOUT*%
X147600000Y-106475000D03*
%TO.P,RN1,7,R2.2*%
%TO.N,SYNC*%
X148400000Y-106475000D03*
%TO.P,RN1,8,R1.2*%
%TO.N,SCLK*%
X149200000Y-106475000D03*
%TD*%
D17*
%TO.P,C7,1*%
%TO.N,GND*%
X145725000Y-83150000D03*
%TO.P,C7,2*%
%TO.N,SENSE+*%
X147275000Y-83150000D03*
%TD*%
D26*
%TO.P,J4,1,1*%
%TO.N,IN-OUT+*%
X156752000Y-76868000D03*
D27*
%TO.P,J4,2,2*%
%TO.N,IN-OUT-*%
X160288000Y-76868000D03*
%TO.P,J4,3,3*%
%TO.N,SENSE+*%
X160288000Y-73332000D03*
%TO.P,J4,4,4*%
%TO.N,SENSE-*%
X156752000Y-73332000D03*
%TO.P,J4,5,5*%
%TO.N,GND*%
X158520000Y-75100000D03*
D28*
%TO.P,J4,S1,SHIELD*%
X158520000Y-71100000D03*
%TD*%
D20*
%TO.P,C10,1*%
%TO.N,GND*%
X145675000Y-84650000D03*
%TO.P,C10,2*%
%TO.N,OUT+2*%
X144125000Y-84650000D03*
%TD*%
D34*
%TO.P,H5,1*%
%TO.N,GND*%
X158250000Y-82380000D03*
%TO.P,H5,2*%
X158250000Y-87460000D03*
%TO.P,H5,3*%
X158250000Y-92540000D03*
%TO.P,H5,4*%
X158250000Y-97620000D03*
%TO.P,H5,5*%
X155620000Y-100250000D03*
%TO.P,H5,6*%
X150540000Y-100250000D03*
%TO.P,H5,7*%
X145460000Y-100250000D03*
%TO.P,H5,9*%
X140380000Y-100250000D03*
%TO.P,H5,10*%
X137750000Y-97620000D03*
%TO.P,H5,11*%
X137750000Y-92540000D03*
%TO.P,H5,12*%
X137750000Y-87460000D03*
%TO.P,H5,13*%
X137750000Y-82380000D03*
%TO.P,H5,14*%
X140380000Y-79750000D03*
%TO.P,H5,15*%
X145460000Y-79750000D03*
%TO.P,H5,16*%
X150540000Y-79750000D03*
%TO.P,H5,17*%
X155620000Y-79750000D03*
%TD*%
D30*
%TO.P,C13,1*%
%TO.N,+5VA*%
X127300000Y-84963847D03*
%TO.P,C13,2*%
%TO.N,GND*%
X127300000Y-86513847D03*
%TD*%
D31*
%TO.P,D2,1,K*%
%TO.N,GND*%
X159926250Y-103080000D03*
%TO.P,D2,2,A*%
%TO.N,Net-(D2-A)*%
X161501250Y-103080000D03*
%TD*%
D17*
%TO.P,C12,1*%
%TO.N,+5VA*%
X155500000Y-94500000D03*
%TO.P,C12,2*%
%TO.N,GND*%
X157050000Y-94500000D03*
%TD*%
D35*
%TO.P,C14,1,+*%
%TO.N,/Project Architecture/LT3042_6V_to_5VA/SET*%
X130200000Y-82988847D03*
%TO.P,C14,2,-*%
%TO.N,GND*%
X127500000Y-82988847D03*
%TD*%
D36*
%TO.P,U2,1,IN*%
%TO.N,+6V*%
X128900000Y-89388847D03*
%TO.P,U2,2,IN*%
X129400000Y-89388847D03*
%TO.P,U2,3,EN/UV*%
X129900000Y-89388847D03*
%TO.P,U2,4,PG*%
%TO.N,/Project Architecture/LT3042_6V_to_5VA/PG*%
X130400000Y-89388847D03*
%TO.P,U2,5,ILIM*%
%TO.N,GND*%
X130900000Y-89388847D03*
%TO.P,U2,6,PGFB*%
%TO.N,/Project Architecture/LT3042_6V_to_5VA/PGFB*%
X130900000Y-85088847D03*
%TO.P,U2,7,SET*%
%TO.N,/Project Architecture/LT3042_6V_to_5VA/SET*%
X130400000Y-85088847D03*
%TO.P,U2,8,GND*%
%TO.N,GND*%
X129900000Y-85088847D03*
%TO.P,U2,9,OUTS*%
%TO.N,+5VA*%
X129400000Y-85088847D03*
%TO.P,U2,10,OUT*%
X128900000Y-85088847D03*
D37*
%TO.P,U2,11,GND*%
%TO.N,GND*%
X128600000Y-87888847D03*
X129900000Y-87888847D03*
X131200000Y-87888847D03*
D38*
X129900000Y-87238847D03*
D37*
X128600000Y-86588847D03*
X129900000Y-86588847D03*
X131200000Y-86588847D03*
%TD*%
D20*
%TO.P,C8,1*%
%TO.N,OUT-2*%
X142475000Y-84650000D03*
%TO.P,C8,2*%
%TO.N,GND*%
X140925000Y-84650000D03*
%TD*%
D30*
%TO.P,C2,1*%
%TO.N,+3.3V*%
X142650000Y-93725000D03*
%TO.P,C2,2*%
%TO.N,GND*%
X142650000Y-95275000D03*
%TD*%
D10*
%TO.P,R18,1*%
%TO.N,Net-(C17-Pad1)*%
X133475000Y-94175000D03*
%TO.P,R18,2*%
%TO.N,/Project Architecture/TPS61086_3.3V_to_6V/COMP*%
X133475000Y-95825000D03*
%TD*%
D30*
%TO.P,C3,1*%
%TO.N,GND*%
X142650000Y-90725000D03*
%TO.P,C3,2*%
%TO.N,+5VA*%
X142650000Y-92275000D03*
%TD*%
D29*
%TO.P,R10,1*%
%TO.N,P3*%
X152375000Y-92500000D03*
%TO.P,R10,2*%
%TO.N,Net-(Q1-G)*%
X154025000Y-92500000D03*
%TD*%
D39*
%TO.P,Y2,1*%
%TO.N,MCLK1*%
X153527500Y-98100000D03*
%TO.P,Y2,2*%
%TO.N,GND*%
X155027500Y-98100000D03*
%TO.P,Y2,3*%
%TO.N,MCLK2*%
X156527500Y-98100000D03*
%TD*%
D20*
%TO.P,C19,1*%
%TO.N,+6V*%
X126600000Y-93590000D03*
%TO.P,C19,2*%
%TO.N,GND*%
X125050000Y-93590000D03*
%TD*%
D29*
%TO.P,R3,1*%
%TO.N,Net-(D1-A)*%
X162888750Y-106080000D03*
%TO.P,R3,2*%
%TO.N,+3.3V*%
X164538750Y-106080000D03*
%TD*%
D11*
%TO.P,C16,1*%
%TO.N,+6V*%
X127300000Y-89563847D03*
%TO.P,C16,2*%
%TO.N,GND*%
X127300000Y-88013847D03*
%TD*%
D17*
%TO.P,C29,1*%
%TO.N,OUT-*%
X153500000Y-84650000D03*
%TO.P,C29,2*%
%TO.N,GND*%
X155050000Y-84650000D03*
%TD*%
D31*
%TO.P,D4,1,K*%
%TO.N,GND*%
X159926250Y-104580000D03*
%TO.P,D4,2,A*%
%TO.N,Net-(D4-A)*%
X161501250Y-104580000D03*
%TD*%
D40*
%TO.N,+3.3V*%
X129625000Y-95250000D03*
D41*
X165245000Y-106100000D03*
X141600000Y-106100000D03*
D40*
X130200000Y-100025000D03*
D41*
%TO.N,GND*%
X163000000Y-67750000D03*
D40*
X150300000Y-83900000D03*
D41*
X128000000Y-112500000D03*
X168000000Y-112500000D03*
X168000000Y-67750000D03*
X122750000Y-81500000D03*
X173250000Y-74000000D03*
X165000000Y-110000000D03*
D40*
X142650000Y-90020000D03*
X155650000Y-84650000D03*
D41*
X122750000Y-84000000D03*
X133000000Y-67750000D03*
X160000000Y-85000000D03*
X122750000Y-106500000D03*
D40*
X152100000Y-95700000D03*
D41*
X133000000Y-112500000D03*
X170000000Y-90000000D03*
X155000000Y-105000000D03*
X122750000Y-89000000D03*
X125000000Y-75000000D03*
X173250000Y-79000000D03*
D40*
X145725000Y-83900000D03*
D41*
X135000000Y-110000000D03*
X160500000Y-112500000D03*
X170000000Y-105000000D03*
X165500000Y-67750000D03*
X160500000Y-67750000D03*
D40*
X142660000Y-95930000D03*
D41*
X145500000Y-67750000D03*
X135000000Y-90000000D03*
X122750000Y-96500000D03*
X173250000Y-89000000D03*
X173250000Y-101500000D03*
D40*
X132390000Y-87718847D03*
D41*
X140500000Y-67750000D03*
X165500000Y-112500000D03*
D40*
X141150000Y-90020000D03*
D41*
X122750000Y-91500000D03*
D40*
X145725000Y-85275000D03*
D41*
X130000000Y-110000000D03*
X135500000Y-67750000D03*
X165000000Y-85000000D03*
D40*
X146500000Y-91825000D03*
D41*
X158000000Y-67750000D03*
X165000000Y-80000000D03*
X170000000Y-75000000D03*
X128000000Y-67750000D03*
X165000000Y-100000000D03*
X155500000Y-67750000D03*
X173250000Y-76500000D03*
X173250000Y-91500000D03*
X160000000Y-100000000D03*
X173250000Y-96500000D03*
D40*
X140250000Y-84650000D03*
D41*
X135500000Y-112500000D03*
X170000000Y-95000000D03*
X170000000Y-85000000D03*
D40*
X156100000Y-85900000D03*
D41*
X122750000Y-104000000D03*
D40*
X141130000Y-95920000D03*
D41*
X173250000Y-106500000D03*
X165000000Y-90000000D03*
X130000000Y-80000000D03*
X173250000Y-81500000D03*
X122750000Y-99000000D03*
X122750000Y-79000000D03*
D40*
X150275000Y-85375000D03*
D41*
X173250000Y-94000000D03*
D40*
X157375000Y-85925000D03*
D41*
X173250000Y-84000000D03*
X143000000Y-67750000D03*
X160000000Y-95000000D03*
X150500000Y-67750000D03*
X170000000Y-100000000D03*
X160000000Y-90000000D03*
X148000000Y-67750000D03*
X122750000Y-86500000D03*
X160000000Y-105000000D03*
X122750000Y-74000000D03*
X122750000Y-94000000D03*
X163000000Y-112500000D03*
X125000000Y-80000000D03*
X122749235Y-76495484D03*
X160000000Y-110000000D03*
X170000000Y-80000000D03*
X173250000Y-99000000D03*
X153000000Y-67750000D03*
X130500000Y-67750000D03*
X130500000Y-112500000D03*
X173250000Y-86500000D03*
D40*
X149600000Y-89875000D03*
D41*
X173250000Y-104000000D03*
X122750000Y-101500000D03*
D40*
X146535000Y-91175000D03*
D41*
X138000000Y-67750000D03*
X165000000Y-95000000D03*
D40*
X157800000Y-95800000D03*
%TO.N,Net-(U1-P2)*%
X148650000Y-102300000D03*
X165263750Y-103080000D03*
%TO.N,/Project Architecture/TPS61086_3.3V_to_6V/COMP*%
X133475000Y-95825000D03*
%TO.N,/Project Architecture/TPS61086_3.3V_to_6V/FB*%
X131075000Y-91950000D03*
%TO.N,/Project Architecture/TPS61086_3.3V_to_6V/SS*%
X131955000Y-99000000D03*
D41*
%TO.N,MCLK1*%
X153500000Y-97250000D03*
%TO.N,+5VA*%
X155500000Y-92700000D03*
X125990000Y-83118847D03*
X125990000Y-82418847D03*
X165263750Y-104580000D03*
X139500000Y-92250000D03*
X125290000Y-83118847D03*
X125290000Y-82418847D03*
X156000000Y-92200000D03*
X140250000Y-92250000D03*
X125990000Y-83818847D03*
X155425000Y-94375000D03*
X155425000Y-93800000D03*
X125290000Y-83818847D03*
X134660000Y-86360000D03*
%TO.N,SENSE+*%
X147225000Y-85400000D03*
X147225000Y-86800000D03*
X147225000Y-86100000D03*
X156900000Y-88900000D03*
X156900000Y-89500000D03*
X155100000Y-88900000D03*
X157500000Y-89500000D03*
X157500000Y-88900000D03*
X155100000Y-89500000D03*
X148600000Y-78100000D03*
X147464124Y-79235876D03*
X147225000Y-87500000D03*
D40*
%TO.N,Net-(U1-~{CS})*%
X145400000Y-104100000D03*
X149075735Y-103250735D03*
D41*
%TO.N,P3*%
X152800000Y-90900000D03*
%TO.N,+6V*%
X127100000Y-91700000D03*
%TO.N,/Project Architecture/LT3042_6V_to_5VA/PGFB*%
X135500000Y-84700000D03*
%TO.N,/Project Architecture/LT3042_6V_to_5VA/PG*%
X132400000Y-89400000D03*
%TO.N,/Project Architecture/LT3042_6V_to_5VA/SET*%
X131200000Y-83100000D03*
%TD*%
%TO.N,IN-OUT+2*%
D42*
X135700000Y-77617157D02*
X135700000Y-76866000D01*
X136382842Y-78300000D02*
X140148941Y-78300000D01*
X142445000Y-80596058D02*
X142445000Y-81565000D01*
X135900000Y-78100000D02*
G75*
G03*
X136382842Y-78299982I482800J482800D01*
G01*
X135700000Y-77617157D02*
G75*
G03*
X135899987Y-78100013I682800J-43D01*
G01*
X141772500Y-78972500D02*
G75*
G03*
X140148941Y-78299983I-1623600J-1623600D01*
G01*
X141772500Y-78972500D02*
G75*
G02*
X142445017Y-80596058I-1623600J-1623600D01*
G01*
%TO.N,OUT-2*%
X143549264Y-88575000D02*
X145100000Y-88575000D01*
X142525000Y-83351568D02*
X142525000Y-86150000D01*
X142485000Y-83255000D02*
X142445000Y-83215000D01*
X142525000Y-87550735D02*
X142525000Y-86150000D01*
X142825000Y-88275000D02*
G75*
G03*
X143549264Y-88575015I724300J724300D01*
G01*
X142485000Y-83255000D02*
G75*
G02*
X142525013Y-83351568I-96600J-96600D01*
G01*
X142525000Y-87550735D02*
G75*
G03*
X142825011Y-88274989I1024300J35D01*
G01*
%TO.N,+3.3V*%
D43*
X165245000Y-106100000D02*
X164520000Y-106100000D01*
X139750000Y-97386827D02*
X139750000Y-94535875D01*
X141064644Y-93725000D02*
X140560875Y-93725000D01*
D44*
X143000735Y-93725000D02*
X141175000Y-93725000D01*
D43*
X138612500Y-102137500D02*
X138625000Y-102150000D01*
D44*
X144449264Y-93125000D02*
X145100000Y-93125000D01*
D43*
X138600000Y-100163172D02*
X138600000Y-102107322D01*
D42*
X129800000Y-95425000D02*
X129625000Y-95250000D01*
X129975000Y-95847487D02*
X129975000Y-96200000D01*
X164679375Y-106220625D02*
X164538750Y-106080000D01*
D43*
X141132322Y-93757322D02*
X141125000Y-93750000D01*
X139750000Y-97386827D02*
G75*
G02*
X139174992Y-98774992I-1963200J27D01*
G01*
X139750000Y-94535875D02*
G75*
G02*
X139987507Y-93962507I810900J-25D01*
G01*
D44*
X143000735Y-93725000D02*
G75*
G03*
X143724989Y-93424989I-35J1024300D01*
G01*
D43*
X138600000Y-100163172D02*
G75*
G02*
X139175008Y-98775008I1963200J-28D01*
G01*
X140560875Y-93725000D02*
G75*
G03*
X139987507Y-93962507I25J-810900D01*
G01*
D44*
X141150000Y-93750000D02*
G75*
G02*
X141175000Y-93725000I25000J0D01*
G01*
D43*
X141064644Y-93725000D02*
G75*
G02*
X141124987Y-93750013I-44J-85400D01*
G01*
D44*
X144449264Y-93125000D02*
G75*
G03*
X143725011Y-93425011I36J-1024300D01*
G01*
D43*
X141132322Y-93757322D02*
G75*
G03*
X141149924Y-93750000I7278J7322D01*
G01*
D42*
X129800000Y-95425000D02*
G75*
G02*
X129975005Y-95847487I-422500J-422500D01*
G01*
D43*
X138612500Y-102137500D02*
G75*
G02*
X138599991Y-102107322I30200J30200D01*
G01*
%TO.N,GND*%
D42*
X129900000Y-85088847D02*
X129900000Y-84761193D01*
X141150000Y-90725000D02*
X140357500Y-90725000D01*
D43*
X158250000Y-87343327D02*
X158250000Y-87130000D01*
D42*
X146535000Y-91175000D02*
X145100000Y-91175000D01*
D45*
X155323750Y-99953750D02*
X155620000Y-100250000D01*
X155027500Y-99238539D02*
X155027500Y-98100000D01*
D46*
X141130000Y-95309142D02*
X141130000Y-95920000D01*
D42*
X145100000Y-91825000D02*
X146500000Y-91825000D01*
D43*
X157375000Y-85925000D02*
X156800000Y-85925000D01*
D42*
X129900000Y-85088847D02*
X129900000Y-85847671D01*
X145100000Y-91825000D02*
X145100000Y-91175000D01*
X129900000Y-84657677D02*
X129900000Y-84761193D01*
X142655000Y-95280000D02*
X142650000Y-95275000D01*
X130900000Y-88813847D02*
X130900000Y-89388847D01*
D46*
X157862500Y-95762500D02*
X157227500Y-95762500D01*
D42*
X145100000Y-91175000D02*
X144368198Y-91175000D01*
D46*
X142660000Y-95930000D02*
X142660000Y-95292071D01*
D42*
X139004617Y-91285382D02*
X137750000Y-92540000D01*
X128980412Y-83939847D02*
X129233927Y-83939847D01*
D46*
X158344375Y-92256875D02*
X158250000Y-92162500D01*
D43*
X155459705Y-85925000D02*
X156800000Y-85925000D01*
X158016654Y-86566654D02*
X157375000Y-85925000D01*
D42*
X128076649Y-83565496D02*
X127500000Y-82988847D01*
D46*
X158155625Y-92634375D02*
X157990000Y-92800000D01*
D42*
X146500000Y-91825000D02*
X146525000Y-91825000D01*
D46*
X156975000Y-93300000D02*
X156975000Y-93225000D01*
D42*
X149600000Y-89875000D02*
X149450000Y-89875000D01*
X130400000Y-87738847D02*
X130493413Y-87832260D01*
X129725000Y-97350000D02*
X130225000Y-97850000D01*
D46*
X141150000Y-90020000D02*
X141150000Y-90725000D01*
D42*
X158167500Y-87542500D02*
X158085000Y-87625000D01*
D46*
X142650000Y-90020000D02*
X142650000Y-90725000D01*
D42*
X141150000Y-90725000D02*
X143281801Y-90725000D01*
X129900000Y-84605919D02*
X129900000Y-84657677D01*
X129900000Y-85847671D02*
X129900000Y-86531740D01*
X129475000Y-96746446D02*
X129475000Y-96200000D01*
X152307500Y-95762500D02*
X152677500Y-95762500D01*
X149600000Y-89875000D02*
X150900000Y-89875000D01*
D43*
X140250000Y-84650000D02*
X140925000Y-84650000D01*
X150275000Y-85375000D02*
X150275000Y-83150000D01*
X155050000Y-84650000D02*
X155650000Y-84650000D01*
X145725000Y-85275000D02*
X145725000Y-83150000D01*
X155050000Y-85515294D02*
X155050000Y-84650000D01*
D42*
X130493413Y-87832260D02*
X129900000Y-87238847D01*
X141140000Y-95285000D02*
X141150000Y-95275000D01*
X151675870Y-96024129D02*
X151238750Y-96461250D01*
X130475000Y-98453553D02*
X130475000Y-99000000D01*
X146535000Y-91175000D02*
X146540000Y-91180000D01*
X150540000Y-98148181D02*
X150540000Y-100250000D01*
D46*
X158344375Y-92445625D02*
X158155625Y-92634375D01*
D43*
X158250000Y-87343327D02*
G75*
G02*
X158167492Y-87542492I-281700J27D01*
G01*
D42*
X128980412Y-83939847D02*
G75*
G02*
X128076636Y-83565509I-12J1278147D01*
G01*
X141140000Y-95285000D02*
G75*
G03*
X141130017Y-95309142I24100J-24100D01*
G01*
X130400000Y-87738847D02*
G75*
G02*
X129899970Y-86531740I1207100J1207147D01*
G01*
X143825000Y-90950000D02*
G75*
G03*
X144368198Y-91175001I543200J543200D01*
G01*
X152307500Y-95762500D02*
G75*
G03*
X151675862Y-96024121I0J-893300D01*
G01*
X143825000Y-90950000D02*
G75*
G03*
X143281801Y-90724999I-543200J-543200D01*
G01*
D45*
X155027500Y-99238539D02*
G75*
G03*
X155323761Y-99953739I1011500J39D01*
G01*
D43*
X155050000Y-85515294D02*
G75*
G03*
X155169998Y-85805002I409700J-6D01*
G01*
D42*
X151238750Y-96461250D02*
G75*
G03*
X150539992Y-98148181I1686950J-1686950D01*
G01*
X129704912Y-84134935D02*
G75*
G03*
X129233927Y-83939822I-471012J-470965D01*
G01*
X129900000Y-84605919D02*
G75*
G03*
X129704927Y-84134920I-666100J19D01*
G01*
D43*
X155170000Y-85805000D02*
G75*
G03*
X155459705Y-85924998I289700J289700D01*
G01*
D42*
X130493413Y-87832260D02*
G75*
G02*
X130899959Y-88813847I-981613J-981540D01*
G01*
X142655000Y-95280000D02*
G75*
G02*
X142660012Y-95292071I-12100J-12100D01*
G01*
X129475000Y-96746446D02*
G75*
G03*
X129724984Y-97350016I853500J-54D01*
G01*
X139004617Y-91285382D02*
G75*
G02*
X140357500Y-90725010I1352883J-1352918D01*
G01*
D43*
X158016654Y-86566654D02*
G75*
G02*
X158249997Y-87130000I-563354J-563346D01*
G01*
D42*
X130225000Y-97850000D02*
G75*
G02*
X130475019Y-98453553I-603600J-603600D01*
G01*
D46*
X158344375Y-92256875D02*
G75*
G02*
X158344425Y-92445675I-94375J-94425D01*
G01*
%TO.N,Net-(U1-P2)*%
D47*
X148537500Y-101287500D02*
X148562500Y-101312500D01*
X148537500Y-101287500D02*
X148450000Y-101200000D01*
X150412500Y-91825000D02*
X150900000Y-91825000D01*
D43*
X165263750Y-103080000D02*
X164538750Y-103080000D01*
D47*
X148650000Y-102300000D02*
X148650000Y-102400000D01*
X148650000Y-102300000D02*
X148650000Y-101506066D01*
X148400000Y-101079289D02*
X148400000Y-94428337D01*
X148562500Y-101312500D02*
X148575000Y-101325000D01*
X149580285Y-92169714D02*
X149162500Y-92587500D01*
X149162500Y-92587500D02*
G75*
G03*
X148400016Y-94428337I1840800J-1840800D01*
G01*
X148400000Y-101079289D02*
G75*
G03*
X148449997Y-101200003I170700J-11D01*
G01*
X148575000Y-101325000D02*
G75*
G02*
X148650014Y-101506066I-181100J-181100D01*
G01*
X150412500Y-91825000D02*
G75*
G03*
X149580292Y-92169721I0J-1176900D01*
G01*
%TO.N,Net-(D2-A)*%
D43*
X162888750Y-103080000D02*
X161501250Y-103080000D01*
%TO.N,IN-OUT+*%
D42*
X151850000Y-80857500D02*
X151850000Y-81565000D01*
X155942000Y-76868000D02*
X156752000Y-76868000D01*
X154559243Y-77440756D02*
X152350278Y-79649721D01*
X152350278Y-79649721D02*
G75*
G03*
X151850012Y-80857500I1207822J-1207779D01*
G01*
X155942000Y-76868000D02*
G75*
G03*
X154559246Y-77440759I0J-1955500D01*
G01*
%TO.N,OUT+*%
X151601256Y-87925000D02*
X150900000Y-87925000D01*
X151900000Y-86150000D02*
X151900000Y-87626256D01*
X151875000Y-83240000D02*
X151850000Y-83215000D01*
X151900000Y-86150000D02*
X151900000Y-83300355D01*
X151812500Y-87837500D02*
G75*
G02*
X151601256Y-87924953I-211200J211300D01*
G01*
X151900000Y-87626256D02*
G75*
G02*
X151812534Y-87837533I-298800J-44D01*
G01*
X151875000Y-83240000D02*
G75*
G02*
X151900018Y-83300355I-60400J-60400D01*
G01*
%TO.N,IN-OUT-2*%
X139253000Y-76883000D02*
X139236000Y-76866000D01*
X139294041Y-76900000D02*
X140085000Y-76900000D01*
X143656489Y-79656489D02*
X141476292Y-77476292D01*
X144155000Y-80860000D02*
X144155000Y-81565000D01*
X141476292Y-77476292D02*
G75*
G03*
X140085000Y-76900005I-1391292J-1391308D01*
G01*
X143656489Y-79656489D02*
G75*
G02*
X144155006Y-80860000I-1203489J-1203511D01*
G01*
X139253000Y-76883000D02*
G75*
G03*
X139294041Y-76899983I41000J41000D01*
G01*
%TO.N,OUT+2*%
X144075000Y-86150000D02*
X144075000Y-83351568D01*
X144115000Y-83255000D02*
X144155000Y-83215000D01*
X144075000Y-87583578D02*
X144075000Y-86150000D01*
X144416421Y-87925000D02*
X145100000Y-87925000D01*
X144175000Y-87825000D02*
G75*
G03*
X144416421Y-87924991I241400J241400D01*
G01*
X144075000Y-87583578D02*
G75*
G03*
X144174994Y-87825006I341400J-22D01*
G01*
X144115000Y-83255000D02*
G75*
G03*
X144074987Y-83351568I96600J-96600D01*
G01*
%TO.N,/Project Architecture/TPS61086_3.3V_to_6V/COMP*%
X132834834Y-96200000D02*
X130975000Y-96200000D01*
X133287500Y-96012500D02*
X133475000Y-95825000D01*
X132834834Y-96200000D02*
G75*
G03*
X133287490Y-96012490I-34J640200D01*
G01*
%TO.N,/Project Architecture/TPS61086_3.3V_to_6V/FB*%
X130475000Y-92550000D02*
X130475000Y-96200000D01*
X130475000Y-92550000D02*
X131075000Y-91950000D01*
%TO.N,/Project Architecture/TPS61086_3.3V_to_6V/SS*%
D48*
X131955000Y-99000000D02*
X130975000Y-99000000D01*
D45*
X131955000Y-99000000D02*
X133450000Y-99000000D01*
%TO.N,MCLK2*%
D42*
X155251130Y-95451130D02*
X154774000Y-94974000D01*
X155520000Y-95562500D02*
X155677500Y-95562500D01*
X156102500Y-96187500D02*
X155677500Y-95762500D01*
X150967430Y-94385500D02*
X153353235Y-94385500D01*
X150919750Y-94405250D02*
X150900000Y-94425000D01*
X156527500Y-97213540D02*
X156527500Y-98100000D01*
X156102500Y-96187500D02*
G75*
G02*
X156527483Y-97213540I-1026000J-1026000D01*
G01*
X154774000Y-94974000D02*
G75*
G03*
X153353235Y-94385485I-1420800J-1420800D01*
G01*
X155251130Y-95451130D02*
G75*
G03*
X155520000Y-95562511I268870J268830D01*
G01*
X150967430Y-94385500D02*
G75*
G03*
X150919741Y-94405241I-30J-67400D01*
G01*
%TO.N,MCLK1*%
X153645376Y-94786500D02*
X152294500Y-94786500D01*
X153768700Y-96221299D02*
X154227500Y-95762500D01*
X154227500Y-95345000D02*
X154227500Y-95562500D01*
X153513750Y-98086250D02*
X153527500Y-98100000D01*
X154057000Y-94957000D02*
X154073704Y-94973704D01*
X151597999Y-95075000D02*
X150900000Y-95075000D01*
X153500000Y-98053054D02*
X153500000Y-97250000D01*
X153500000Y-96870000D02*
X153500000Y-97250000D01*
X153500000Y-98053054D02*
G75*
G03*
X153513737Y-98086263I46900J-46D01*
G01*
X151946250Y-94930750D02*
G75*
G02*
X151597999Y-95075000I-348250J348250D01*
G01*
X154057000Y-94957000D02*
G75*
G03*
X153645376Y-94786510I-411600J-411600D01*
G01*
X154073704Y-94973704D02*
G75*
G02*
X154227497Y-95345000I-371304J-371296D01*
G01*
X153768700Y-96221299D02*
G75*
G03*
X153499999Y-96870000I648700J-648701D01*
G01*
X152294500Y-94786500D02*
G75*
G03*
X151946250Y-94930750I0J-492500D01*
G01*
%TO.N,SENSE-*%
D45*
X155739640Y-73332000D02*
X156752000Y-73332000D01*
X147999999Y-89099999D02*
X147976300Y-89123699D01*
X148775000Y-87228984D02*
X148775000Y-84650000D01*
X148775000Y-83825000D02*
X148775000Y-84375000D01*
X148775000Y-83235355D02*
X148775000Y-83825000D01*
X154934499Y-73665499D02*
X154809760Y-73790239D01*
X148725000Y-82791052D02*
X148725000Y-83114644D01*
X145100000Y-89875000D02*
X145100000Y-90525000D01*
X148775000Y-84375000D02*
X148775000Y-84650000D01*
X136485000Y-73330000D02*
X135700000Y-73330000D01*
X142704933Y-75104933D02*
X144402880Y-76802880D01*
X148225000Y-79516818D02*
X148225000Y-79483182D01*
X148225000Y-79483182D02*
X148225000Y-79516818D01*
X146162500Y-89875000D02*
X145100000Y-89875000D01*
X149294246Y-78397117D02*
X148236892Y-79454471D01*
X147165317Y-77947119D02*
X148050628Y-78832430D01*
X151355968Y-77834496D02*
X154392239Y-74798225D01*
X148225000Y-79483182D02*
X148225000Y-79253401D01*
X148225000Y-79516818D02*
X148225000Y-81583945D01*
X150060101Y-78371262D02*
X149310551Y-78371262D01*
X142033182Y-73483182D02*
X141068718Y-72518718D01*
X137825078Y-72774920D02*
X138081281Y-72518718D01*
X139575000Y-71900000D02*
G75*
G03*
X138081289Y-72518726I0J-2112400D01*
G01*
X151355968Y-77834496D02*
G75*
G02*
X150060101Y-78371254I-1295868J1295896D01*
G01*
X155739640Y-73332000D02*
G75*
G03*
X154934488Y-73665488I-40J-1138600D01*
G01*
X147165317Y-77947119D02*
G75*
G03*
X145784099Y-77374990I-1381217J-1381181D01*
G01*
X142033182Y-73483182D02*
G75*
G02*
X142369086Y-74294058I-810882J-810918D01*
G01*
X141068718Y-72518718D02*
G75*
G03*
X139575000Y-71899989I-1493718J-1493682D01*
G01*
X148475000Y-82187499D02*
G75*
G02*
X148725020Y-82791052I-603600J-603601D01*
G01*
X148050628Y-78832430D02*
G75*
G02*
X148225012Y-79253401I-420928J-420970D01*
G01*
X144402880Y-76802880D02*
G75*
G03*
X145784099Y-77375012I1381220J1381180D01*
G01*
X147976300Y-89123699D02*
G75*
G02*
X146162500Y-89875000I-1813800J1813799D01*
G01*
X149301000Y-78380813D02*
G75*
G02*
X149294249Y-78397120I-23100J13D01*
G01*
X142369058Y-74294058D02*
G75*
G03*
X142704914Y-75104952I1146742J-42D01*
G01*
X154809760Y-73790239D02*
G75*
G03*
X154601006Y-74294232I503940J-503961D01*
G01*
X148225000Y-81583945D02*
G75*
G03*
X148475034Y-82187465I853500J45D01*
G01*
X148236892Y-79454471D02*
G75*
G03*
X148224986Y-79483182I28708J-28729D01*
G01*
X148725000Y-83114644D02*
G75*
G03*
X148750013Y-83174987I85400J44D01*
G01*
X148775000Y-87228984D02*
G75*
G02*
X148000005Y-89100005I-2646000J-16D01*
G01*
X137825078Y-72774920D02*
G75*
G02*
X136485000Y-73329986I-1340078J1340120D01*
G01*
X149310551Y-78371262D02*
G75*
G03*
X149300962Y-78380813I-51J-9538D01*
G01*
D42*
X148750000Y-83175000D02*
G75*
G02*
X148775018Y-83235355I-60400J-60400D01*
G01*
D45*
X154601000Y-74294232D02*
G75*
G02*
X154392233Y-74798219I-712800J32D01*
G01*
%TO.N,Net-(Q1-G)*%
X154430437Y-91437500D02*
X155050000Y-91437500D01*
X154025000Y-91842937D02*
X154025000Y-92500000D01*
X154430437Y-91437500D02*
G75*
G03*
X154143739Y-91556239I-37J-405400D01*
G01*
X154143750Y-91556250D02*
G75*
G03*
X154025016Y-91842937I286650J-286650D01*
G01*
%TO.N,+5VA*%
D43*
X165263750Y-104580000D02*
X164538750Y-104580000D01*
D45*
X155425000Y-94375000D02*
X155425000Y-93800000D01*
D44*
X141132322Y-92275000D02*
X139542677Y-92275000D01*
X141167677Y-92275000D02*
X143383578Y-92275000D01*
D49*
X155425000Y-93462500D02*
X155425000Y-94375000D01*
X155425000Y-92828033D02*
X155425000Y-93137500D01*
D46*
X133992677Y-86338847D02*
X134720000Y-86338847D01*
D42*
X155425000Y-93537500D02*
X155425000Y-93712500D01*
D49*
X155462500Y-92737500D02*
X155500000Y-92700000D01*
D44*
X143866421Y-92475000D02*
X145100000Y-92475000D01*
X141167677Y-92275000D02*
X141132322Y-92275000D01*
D49*
X156150000Y-92050000D02*
X156000000Y-92200000D01*
X155500000Y-92700000D02*
X156000000Y-92200000D01*
X156512132Y-91900000D02*
X156825000Y-91900000D01*
D42*
X155425000Y-93462500D02*
X155425000Y-93537500D01*
D49*
X155425000Y-93462500D02*
X155425000Y-93800000D01*
X155425000Y-93137500D02*
X155425000Y-93462500D01*
X155425000Y-93462500D02*
X155425000Y-93137500D01*
D45*
X155425000Y-94375000D02*
X155475000Y-94425000D01*
D44*
X139512500Y-92262500D02*
X139500000Y-92250000D01*
D45*
X155425000Y-93712500D02*
X155425000Y-93800000D01*
D42*
X133962500Y-86326347D02*
X133950000Y-86313847D01*
D49*
X141137500Y-92262500D02*
X141125000Y-92250000D01*
X141137500Y-92262500D02*
G75*
G03*
X141167677Y-92275009I30200J30200D01*
G01*
D44*
X141132322Y-92275000D02*
G75*
G03*
X141137462Y-92262538I-22J7300D01*
G01*
D49*
X155462500Y-92737500D02*
G75*
G03*
X155425014Y-92828033I90500J-90500D01*
G01*
X156512132Y-91900000D02*
G75*
G03*
X156149991Y-92049991I-32J-512100D01*
G01*
D44*
X143625000Y-92375000D02*
G75*
G03*
X143866421Y-92474991I241400J241400D01*
G01*
D42*
X133992677Y-86338847D02*
G75*
G02*
X133962518Y-86326329I23J42647D01*
G01*
D44*
X143383578Y-92275000D02*
G75*
G02*
X143625006Y-92374994I22J-341400D01*
G01*
X139512500Y-92262500D02*
G75*
G03*
X139542677Y-92275009I30200J30200D01*
G01*
%TO.N,SENSE+*%
D45*
X158210307Y-72789298D02*
X157964832Y-72543823D01*
X147225000Y-83675000D02*
X147225000Y-82457135D01*
X139251000Y-73315000D02*
X139236000Y-73330000D01*
X159520504Y-73332000D02*
X160288000Y-73332000D01*
X141432182Y-73732124D02*
X141384058Y-73684000D01*
X146976805Y-88450194D02*
X146591615Y-88835384D01*
X149749999Y-77770262D02*
X149162897Y-77770262D01*
X146904190Y-78535934D02*
X147414623Y-79046367D01*
X147225000Y-87500000D02*
X147225000Y-87851000D01*
X154856175Y-72543823D02*
X154332525Y-73067474D01*
X142103933Y-75353875D02*
X144153938Y-77403880D01*
X139287213Y-73300000D02*
X140456999Y-73300000D01*
X147225000Y-83675000D02*
X147225000Y-83235355D01*
X147225000Y-83675000D02*
X147225000Y-84325000D01*
X147464124Y-79235876D02*
X147544062Y-79315814D01*
X147225000Y-84325000D02*
X147225000Y-84975000D01*
X151150273Y-77190249D02*
X153667474Y-74673048D01*
X147225000Y-87500000D02*
X147225000Y-86800000D01*
X148764869Y-77935131D02*
X148600000Y-78100000D01*
D42*
X147250000Y-83175000D02*
X147275000Y-83150000D01*
D45*
X147624000Y-79508801D02*
X147624000Y-81493864D01*
X145552389Y-77976000D02*
X145535157Y-77976000D01*
X147225000Y-84325000D02*
X147225000Y-83675000D01*
X145651000Y-89225000D02*
X145100000Y-89225000D01*
X147225000Y-84975000D02*
X147225000Y-85400000D01*
X147464124Y-79235876D02*
X147464124Y-79165872D01*
X147225000Y-86800000D02*
X147225000Y-86100000D01*
X147225000Y-86100000D02*
X147225000Y-85400000D01*
X147424500Y-81975500D02*
G75*
G03*
X147225015Y-82457135I481600J-481600D01*
G01*
X158210307Y-72789298D02*
G75*
G03*
X159520504Y-73331996I1310193J1310198D01*
G01*
X146904190Y-78535934D02*
G75*
G03*
X145552389Y-77975997I-1351790J-1351766D01*
G01*
X156410504Y-71900000D02*
G75*
G03*
X154856164Y-72543812I-4J-2198200D01*
G01*
X141432182Y-73732124D02*
G75*
G02*
X141768056Y-74543000I-810882J-810876D01*
G01*
X146591615Y-88835384D02*
G75*
G02*
X145651000Y-89225009I-940615J940584D01*
G01*
X157964832Y-72543823D02*
G75*
G03*
X156410504Y-71900011I-1554332J-1554377D01*
G01*
D42*
X147250000Y-83175000D02*
G75*
G03*
X147224982Y-83235355I60400J-60400D01*
G01*
D45*
X144153938Y-77403880D02*
G75*
G03*
X145535157Y-77976041I1381262J1381180D01*
G01*
X141384058Y-73684000D02*
G75*
G03*
X140456999Y-73300012I-927058J-927100D01*
G01*
X141768058Y-74543000D02*
G75*
G03*
X142103935Y-75353873I1146742J0D01*
G01*
X154332525Y-73067474D02*
G75*
G03*
X153999969Y-73870261I802775J-802826D01*
G01*
X147414623Y-79046367D02*
G75*
G02*
X147464138Y-79165872I-119523J-119533D01*
G01*
X151150273Y-77190249D02*
G75*
G02*
X149749999Y-77770268I-1400273J1400249D01*
G01*
X139287213Y-73300000D02*
G75*
G03*
X139250996Y-73314996I-13J-51200D01*
G01*
X147624000Y-81493864D02*
G75*
G02*
X147424510Y-81975510I-681100J-36D01*
G01*
X147225000Y-87851000D02*
G75*
G02*
X146976808Y-88450197I-847400J0D01*
G01*
X147544062Y-79315814D02*
G75*
G02*
X147624006Y-79508801I-192962J-192986D01*
G01*
X149162897Y-77770262D02*
G75*
G03*
X148764862Y-77935124I3J-562938D01*
G01*
X154000000Y-73870261D02*
G75*
G02*
X153667491Y-74673065I-1135300J-39D01*
G01*
%TO.N,Net-(RN1-R1.1)*%
D47*
X149302000Y-96843905D02*
X149302000Y-96937810D01*
X149302000Y-96937810D02*
X149302000Y-97125620D01*
X149302000Y-96843905D02*
X149302000Y-96750000D01*
X150404790Y-93775000D02*
X150900000Y-93775000D01*
X149775000Y-101341155D02*
X149775000Y-102993413D01*
X149487499Y-103687499D02*
X149438648Y-103736351D01*
X149302000Y-97125620D02*
X149302000Y-96937810D01*
X149302000Y-100199232D02*
X149302000Y-97125620D01*
X149302000Y-96843905D02*
X149302000Y-94877790D01*
X149200000Y-104312500D02*
X149200000Y-104650000D01*
X149302000Y-96843905D02*
X149302000Y-96937810D01*
X149302000Y-100199232D02*
G75*
G03*
X149538508Y-100770186I807500J32D01*
G01*
X149775000Y-101341155D02*
G75*
G03*
X149538486Y-100770208I-807500J-45D01*
G01*
X150404790Y-93775000D02*
G75*
G03*
X149625003Y-94098003I10J-1102800D01*
G01*
X149200000Y-104312500D02*
G75*
G02*
X149438648Y-103736351I814800J0D01*
G01*
X149625000Y-94098000D02*
G75*
G03*
X149301996Y-94877790I779800J-779800D01*
G01*
X149487499Y-103687499D02*
G75*
G03*
X149775004Y-102993413I-694099J694099D01*
G01*
%TO.N,Net-(U1-~{CS})*%
X148851000Y-96663000D02*
X148851000Y-96575000D01*
X148851000Y-100386042D02*
X148851000Y-96663000D01*
D49*
X143987500Y-104787500D02*
X143975000Y-104800000D01*
D47*
X148851000Y-96663000D02*
X148851000Y-96575000D01*
X148851000Y-96575000D02*
X148851000Y-96399000D01*
X149199867Y-103100132D02*
X149085093Y-103214906D01*
X150412500Y-93125000D02*
X150900000Y-93125000D01*
D49*
X145400000Y-104775000D02*
X145400000Y-104100000D01*
D47*
X148851000Y-96663000D02*
X148851000Y-96751000D01*
D49*
X145400000Y-104775000D02*
X144017677Y-104775000D01*
D47*
X149580285Y-93469714D02*
X149387999Y-93661999D01*
X148851000Y-94958432D02*
X148851000Y-96399000D01*
X149324000Y-101527965D02*
X149324000Y-102800450D01*
X148851000Y-96399000D02*
X148851000Y-96575000D01*
X149075735Y-103237500D02*
X149075735Y-103250735D01*
X149087500Y-100957004D02*
G75*
G02*
X149324013Y-101527965I-571000J-570996D01*
G01*
X148851000Y-94958432D02*
G75*
G02*
X149387990Y-93661990I1833400J32D01*
G01*
X149075735Y-103237500D02*
G75*
G02*
X149085091Y-103214904I31965J0D01*
G01*
X149580285Y-93469714D02*
G75*
G02*
X150412500Y-93124991I832215J-832186D01*
G01*
X149199867Y-103100132D02*
G75*
G03*
X149324039Y-102800450I-299667J299732D01*
G01*
X149087500Y-100957004D02*
G75*
G02*
X148850981Y-100386042I571000J571004D01*
G01*
D49*
X143987500Y-104787500D02*
G75*
G02*
X144017677Y-104774991I30200J-30200D01*
G01*
%TO.N,P3*%
D45*
X152332322Y-92475000D02*
X150900000Y-92475000D01*
D42*
X152587500Y-91112500D02*
X152800000Y-90900000D01*
X152375000Y-91625520D02*
X152375000Y-92482322D01*
X152362500Y-92487500D02*
G75*
G03*
X152332322Y-92474991I-30200J-30200D01*
G01*
X152587500Y-91112500D02*
G75*
G03*
X152375008Y-91625520I513000J-513000D01*
G01*
X152362500Y-92487500D02*
G75*
G03*
X152375054Y-92482322I5200J5200D01*
G01*
%TO.N,OUT-*%
X152297702Y-88575000D02*
X150900000Y-88575000D01*
X153485000Y-83250000D02*
X153520000Y-83215000D01*
X153450000Y-87422702D02*
X153450000Y-86150000D01*
X153450000Y-83334497D02*
X153450000Y-86150000D01*
X153112500Y-88237500D02*
G75*
G02*
X152297702Y-88575001I-814800J814800D01*
G01*
X153450000Y-87422702D02*
G75*
G02*
X153112499Y-88237499I-1152300J2D01*
G01*
X153485000Y-83250000D02*
G75*
G03*
X153449999Y-83334497I84500J-84500D01*
G01*
%TO.N,Net-(RN1-R2.1)*%
D47*
X147049500Y-94674500D02*
X146521231Y-94146231D01*
X145625000Y-93775000D02*
X145100000Y-93775000D01*
X148400000Y-103943905D02*
X148400000Y-104650000D01*
X147949000Y-102855094D02*
X147949000Y-96846085D01*
X148400000Y-103943905D02*
G75*
G03*
X148174502Y-103399498I-769900J5D01*
G01*
X147049500Y-94674500D02*
G75*
G02*
X147949006Y-96846085I-2171600J-2171600D01*
G01*
X146521231Y-94146231D02*
G75*
G03*
X145625000Y-93775011I-896231J-896269D01*
G01*
X147949000Y-102855094D02*
G75*
G03*
X148174498Y-103399502I769900J-6D01*
G01*
%TO.N,Net-(RN1-R3.1)*%
X146436214Y-94774024D02*
X146792595Y-95130405D01*
X147498000Y-96833403D02*
X147498000Y-103533197D01*
X147612500Y-104637500D02*
X147600000Y-104650000D01*
X145593595Y-94425000D02*
X145100000Y-94425000D01*
X147625000Y-104607322D02*
X147625000Y-103839802D01*
X147625000Y-104607322D02*
G75*
G02*
X147612493Y-104637493I-42700J22D01*
G01*
X146436214Y-94774024D02*
G75*
G03*
X145593595Y-94424991I-842614J-842576D01*
G01*
X147625000Y-103839802D02*
G75*
G03*
X147561501Y-103686499I-216800J2D01*
G01*
X147498000Y-96833403D02*
G75*
G03*
X146792596Y-95130404I-2408400J3D01*
G01*
X147498000Y-103533197D02*
G75*
G03*
X147561499Y-103686501I216800J-3D01*
G01*
%TO.N,Net-(RN1-R4.1)*%
X145697690Y-95173000D02*
X145267296Y-95173000D01*
X146923499Y-104001499D02*
X147022891Y-103902108D01*
X145149000Y-95124000D02*
X145100000Y-95075000D01*
X146800000Y-104299655D02*
X146800000Y-104650000D01*
X146622190Y-95597810D02*
X146550714Y-95526334D01*
X147047000Y-103741620D02*
X147047000Y-103809810D01*
X147047000Y-96623392D02*
X147047000Y-103741620D01*
X147047000Y-103809810D02*
X147047000Y-103843905D01*
X146923499Y-104001499D02*
G75*
G03*
X146799980Y-104299655I298201J-298201D01*
G01*
X147022891Y-103902108D02*
G75*
G03*
X147047007Y-103843905I-58191J58208D01*
G01*
X145267296Y-95173000D02*
G75*
G02*
X145149001Y-95123999I4J167300D01*
G01*
X147047000Y-96623392D02*
G75*
G03*
X146622188Y-95597812I-1450400J-8D01*
G01*
X145697690Y-95173000D02*
G75*
G02*
X146550728Y-95526320I10J-1206400D01*
G01*
%TO.N,/Project Architecture/LT3042_6V_to_5VA/PGFB*%
D42*
X133924435Y-84663847D02*
X132450000Y-84663847D01*
X131180021Y-85088847D02*
X130900000Y-85088847D01*
X135500000Y-84700000D02*
X134011717Y-84700000D01*
X133968076Y-84681923D02*
G75*
G03*
X134011717Y-84699993I43624J43623D01*
G01*
X133968076Y-84681923D02*
G75*
G03*
X133924435Y-84663832I-43676J-43677D01*
G01*
X131180021Y-85088847D02*
G75*
G03*
X132024982Y-84738829I-21J1194947D01*
G01*
%TO.N,CS*%
D47*
X145400000Y-106637500D02*
X145400000Y-106425000D01*
X145249739Y-107000260D02*
X143441941Y-108808058D01*
X143000000Y-109875000D02*
X143000000Y-110500000D01*
X145400000Y-106637500D02*
G75*
G02*
X145249735Y-107000256I-513000J0D01*
G01*
X143441941Y-108808058D02*
G75*
G03*
X143000004Y-109875000I1066959J-1066942D01*
G01*
%TO.N,DIN*%
X146800000Y-106837500D02*
X146800000Y-106475000D01*
X146149999Y-107849999D02*
X146543673Y-107456326D01*
X145500000Y-109419238D02*
X145500000Y-110500000D01*
X146149999Y-107849999D02*
G75*
G03*
X145500015Y-109419238I1569201J-1569201D01*
G01*
X146800000Y-106837500D02*
G75*
G02*
X146543683Y-107456336I-875200J0D01*
G01*
%TO.N,DOUT*%
X147600000Y-107817157D02*
X147600000Y-106475000D01*
X148000000Y-108782842D02*
X148000000Y-110500000D01*
X147600000Y-107817157D02*
G75*
G03*
X147799987Y-108300013I682800J-43D01*
G01*
X147800000Y-108300000D02*
G75*
G02*
X147999982Y-108782842I-482800J-482800D01*
G01*
%TO.N,SYNC*%
X150230907Y-109469799D02*
X148811497Y-108050389D01*
X150500000Y-110119446D02*
X150500000Y-110500000D01*
X148400000Y-107056946D02*
X148400000Y-106475000D01*
X150230907Y-109469799D02*
G75*
G02*
X150499979Y-110119446I-649607J-649601D01*
G01*
X148400000Y-107056946D02*
G75*
G03*
X148811529Y-108050357I1404900J46D01*
G01*
%TO.N,SCLK*%
X149200000Y-107080643D02*
X149200000Y-106475000D01*
X149869356Y-107750000D02*
X151292893Y-107750000D01*
X153000000Y-109457106D02*
X153000000Y-110500000D01*
X149396050Y-107553950D02*
G75*
G03*
X149869356Y-107750018I473350J473350D01*
G01*
X152500000Y-108250000D02*
G75*
G02*
X152999997Y-109457106I-1207100J-1207100D01*
G01*
X149200000Y-107080643D02*
G75*
G03*
X149396063Y-107553937I669400J43D01*
G01*
X152500000Y-108250000D02*
G75*
G03*
X151292893Y-107750003I-1207100J-1207100D01*
G01*
%TO.N,Net-(D4-A)*%
D43*
X162888750Y-104580000D02*
X161501250Y-104580000D01*
%TO.N,/Project Architecture/LT3042_6V_to_5VA/PG*%
D42*
X130812500Y-91100000D02*
X130442677Y-91100000D01*
X132400000Y-89650000D02*
X132400000Y-89400000D01*
X130406250Y-89395097D02*
X130412500Y-89401347D01*
X130400000Y-89397685D02*
X130400000Y-91057322D01*
X131474003Y-90825995D02*
X132223223Y-90076776D01*
X130412500Y-91087500D02*
G75*
G03*
X130442677Y-91100009I30200J30200D01*
G01*
X130412500Y-89401347D02*
G75*
G02*
X130424976Y-89431524I-30200J-30153D01*
G01*
X130406250Y-89395097D02*
G75*
G03*
X130400056Y-89397685I-2550J-2603D01*
G01*
X132400000Y-89650000D02*
G75*
G02*
X132223233Y-90076786I-603600J0D01*
G01*
X130400000Y-91057322D02*
G75*
G03*
X130412507Y-91087493I42700J22D01*
G01*
X131474003Y-90825995D02*
G75*
G02*
X130812500Y-91100001I-661503J661495D01*
G01*
%TO.N,Net-(D1-A)*%
D43*
X162888750Y-106080000D02*
X161501250Y-106080000D01*
%TO.N,IN-OUT-*%
D42*
X159522000Y-77634000D02*
X160288000Y-76868000D01*
X157672712Y-78400000D02*
X155534386Y-78400000D01*
X153520000Y-80414386D02*
X153520000Y-81565000D01*
X154110000Y-78990000D02*
G75*
G03*
X153519994Y-80414386I1424400J-1424400D01*
G01*
X155534386Y-78400000D02*
G75*
G03*
X154110004Y-78990004I14J-2014400D01*
G01*
X159522000Y-77634000D02*
G75*
G02*
X157672712Y-78400005I-1849300J1849300D01*
G01*
%TO.N,Net-(C17-Pad1)*%
D45*
X132060355Y-94175000D02*
X133475000Y-94175000D01*
X132000000Y-94150000D02*
X131975000Y-94125000D01*
X132000000Y-94150000D02*
G75*
G03*
X132060355Y-94175018I60400J60400D01*
G01*
%TD*%
%TA.AperFunction,Conductor*%
%TO.N,SENSE+*%
G36*
X156980976Y-87019685D02*
G01*
X157026731Y-87072489D01*
X157036675Y-87141647D01*
X157031870Y-87162313D01*
X157030290Y-87167173D01*
X156999500Y-87361577D01*
X156999500Y-87558422D01*
X157030290Y-87752826D01*
X157091117Y-87940029D01*
X157180476Y-88115405D01*
X157296172Y-88274646D01*
X157435354Y-88413828D01*
X157594595Y-88529524D01*
X157769975Y-88618884D01*
X157814317Y-88633291D01*
X157871992Y-88672726D01*
X157899191Y-88737084D01*
X157900000Y-88751222D01*
X157900000Y-89776000D01*
X157880315Y-89843039D01*
X157827511Y-89888794D01*
X157776000Y-89900000D01*
X154824000Y-89900000D01*
X154756961Y-89880315D01*
X154711206Y-89827511D01*
X154700000Y-89776000D01*
X154700000Y-87124000D01*
X154719685Y-87056961D01*
X154772489Y-87011206D01*
X154824000Y-87000000D01*
X156913937Y-87000000D01*
X156980976Y-87019685D01*
G37*
%TD.AperFunction*%
%TD*%
%TA.AperFunction,Conductor*%
%TO.N,Net-(D3-A)*%
G36*
X129472341Y-98699429D02*
G01*
X129539287Y-98719425D01*
X129584796Y-98772442D01*
X129595761Y-98822658D01*
X129604221Y-100184693D01*
X129584953Y-100251853D01*
X129532434Y-100297935D01*
X129479691Y-100309462D01*
X127892764Y-100302651D01*
X127857500Y-100302500D01*
X127857499Y-100302500D01*
X127275000Y-100882504D01*
X127275000Y-105076000D01*
X127255315Y-105143039D01*
X127202511Y-105188794D01*
X127151000Y-105200000D01*
X125477864Y-105200000D01*
X125410825Y-105180315D01*
X125365070Y-105127511D01*
X125353869Y-105077141D01*
X125353858Y-105076000D01*
X125305369Y-99806828D01*
X125324436Y-99739611D01*
X125341478Y-99718211D01*
X126333408Y-98721756D01*
X126394654Y-98688134D01*
X126421862Y-98685241D01*
X129472341Y-98699429D01*
G37*
%TD.AperFunction*%
%TD*%
%TA.AperFunction,Conductor*%
%TO.N,+6V*%
G36*
X129985546Y-88803241D02*
G01*
X130000000Y-88837847D01*
X130000000Y-90073776D01*
X129985648Y-90108424D01*
X129978180Y-90114546D01*
X129100000Y-90699999D01*
X129100000Y-93066231D01*
X129085648Y-93100879D01*
X129068444Y-93112021D01*
X127100000Y-93861905D01*
X127100000Y-95565946D01*
X127092552Y-95591916D01*
X126700000Y-96219999D01*
X126700000Y-97151000D01*
X126685648Y-97185648D01*
X126651000Y-97200000D01*
X125549000Y-97200000D01*
X125514352Y-97185648D01*
X125500000Y-97151000D01*
X125500000Y-96234793D01*
X125511795Y-96202905D01*
X126200000Y-95400000D01*
X126200000Y-89770257D01*
X126214300Y-89735661D01*
X127135699Y-88811554D01*
X127170251Y-88797152D01*
X129950856Y-88788991D01*
X129985546Y-88803241D01*
G37*
%TD.AperFunction*%
%TD*%
%TA.AperFunction,Conductor*%
%TO.N,+5VA*%
G36*
X126293039Y-82108532D02*
G01*
X126338794Y-82161336D01*
X126350000Y-82212847D01*
X126350000Y-83888847D01*
X126850000Y-84388847D01*
X129425500Y-84388847D01*
X129492539Y-84408532D01*
X129538294Y-84461336D01*
X129549500Y-84512847D01*
X129549501Y-85564847D01*
X129529817Y-85631886D01*
X129477013Y-85677641D01*
X129425501Y-85688847D01*
X125101362Y-85688847D01*
X125071921Y-85680202D01*
X125041935Y-85673679D01*
X125036919Y-85669924D01*
X125034323Y-85669162D01*
X125013681Y-85652528D01*
X124886319Y-85525166D01*
X124852834Y-85463843D01*
X124850000Y-85437485D01*
X124850000Y-82212847D01*
X124869685Y-82145808D01*
X124922489Y-82100053D01*
X124974000Y-82088847D01*
X126226000Y-82088847D01*
X126293039Y-82108532D01*
G37*
%TD.AperFunction*%
%TD*%
%TA.AperFunction,Conductor*%
%TO.N,+3.3V*%
G36*
X130059999Y-98703727D02*
G01*
X130066898Y-98706585D01*
X130082804Y-98722491D01*
X130093413Y-98733098D01*
X130096271Y-98739999D01*
X130100000Y-98758747D01*
X130100000Y-99500000D01*
X132249372Y-101499417D01*
X132249999Y-101500000D01*
X132250000Y-101500000D01*
X140514457Y-101500000D01*
X140533208Y-101503729D01*
X140549587Y-101510514D01*
X140565876Y-101521533D01*
X142922738Y-103932811D01*
X142933178Y-103948827D01*
X142939775Y-103965281D01*
X142943281Y-103984634D01*
X142913048Y-105309045D01*
X142912042Y-105317866D01*
X142910262Y-105326459D01*
X142907678Y-105334963D01*
X141500000Y-108800000D01*
X141500000Y-111441252D01*
X141496271Y-111460001D01*
X141495291Y-111462370D01*
X141493416Y-111466896D01*
X141466898Y-111493414D01*
X141460003Y-111496270D01*
X141441253Y-111500000D01*
X139455589Y-111500000D01*
X139436833Y-111496268D01*
X139429064Y-111493049D01*
X139403202Y-111468034D01*
X139400631Y-111462370D01*
X139396359Y-111445380D01*
X139180405Y-108206076D01*
X139180354Y-108204574D01*
X139180296Y-108204440D01*
X136108733Y-105330831D01*
X135968891Y-105200000D01*
X135968890Y-105200000D01*
X135968889Y-105200000D01*
X129858747Y-105200000D01*
X129839999Y-105196271D01*
X129833101Y-105193414D01*
X129806585Y-105166898D01*
X129803727Y-105159997D01*
X129800000Y-105141252D01*
X129800000Y-100254360D01*
X129801581Y-100243115D01*
X129801391Y-100243075D01*
X129801749Y-100241375D01*
X129801749Y-100241373D01*
X129801752Y-100241364D01*
X129809717Y-100183417D01*
X129801257Y-98821382D01*
X129800299Y-98812754D01*
X129800000Y-98807347D01*
X129800000Y-98758747D01*
X129803727Y-98740002D01*
X129806583Y-98733106D01*
X129813477Y-98726211D01*
X129814352Y-98724099D01*
X129816462Y-98723224D01*
X129833094Y-98706588D01*
X129840002Y-98703726D01*
X129858747Y-98700000D01*
X130041253Y-98700000D01*
X130059999Y-98703727D01*
G37*
%TD.AperFunction*%
%TD*%
%TA.AperFunction,Conductor*%
%TO.N,/Project Architecture/LT3042_6V_to_5VA/SET*%
G36*
X132343106Y-82693870D02*
G01*
X132358104Y-82698274D01*
X132373094Y-82707904D01*
X132390175Y-82712914D01*
X132416855Y-82736019D01*
X132418042Y-82737388D01*
X132445518Y-82792249D01*
X132447163Y-82799807D01*
X132450000Y-82826178D01*
X132450000Y-83622017D01*
X132444975Y-83656961D01*
X132440570Y-83671959D01*
X132430939Y-83686948D01*
X132425932Y-83704022D01*
X132402827Y-83730702D01*
X132401458Y-83731889D01*
X132346597Y-83759365D01*
X132339039Y-83761010D01*
X132312668Y-83763847D01*
X131349998Y-83763847D01*
X130550000Y-84288845D01*
X130550000Y-84382715D01*
X130546796Y-84393626D01*
X130544975Y-84417656D01*
X130543261Y-84423491D01*
X130549184Y-84439372D01*
X130549500Y-84448216D01*
X130549500Y-85647016D01*
X130544477Y-85681951D01*
X130540073Y-85696950D01*
X130502299Y-85755728D01*
X130502289Y-85755737D01*
X130500920Y-85756923D01*
X130446098Y-85784365D01*
X130438540Y-85786010D01*
X130412169Y-85788847D01*
X130392330Y-85788847D01*
X130392325Y-85788846D01*
X130392323Y-85788847D01*
X130357389Y-85783822D01*
X130342390Y-85779417D01*
X130283644Y-85741674D01*
X130283615Y-85741640D01*
X130283614Y-85741640D01*
X130283613Y-85741638D01*
X130282457Y-85740305D01*
X130254981Y-85685444D01*
X130254221Y-85681951D01*
X130253335Y-85677880D01*
X130250499Y-85651524D01*
X130250499Y-84410715D01*
X130250149Y-84403585D01*
X130250000Y-84397509D01*
X130250000Y-82830676D01*
X130255023Y-82795740D01*
X130259427Y-82780742D01*
X130297172Y-82721991D01*
X130298541Y-82720804D01*
X130353420Y-82693324D01*
X130360979Y-82691680D01*
X130387332Y-82688847D01*
X132308170Y-82688847D01*
X132343106Y-82693870D01*
G37*
%TD.AperFunction*%
%TD*%
%TA.AperFunction,Conductor*%
%TO.N,GND*%
G36*
X146714606Y-100505023D02*
G01*
X146729604Y-100509427D01*
X146744594Y-100519057D01*
X146761675Y-100524067D01*
X146788355Y-100547172D01*
X146789542Y-100548541D01*
X146817018Y-100603402D01*
X146818663Y-100610960D01*
X146821500Y-100637331D01*
X146821500Y-103682670D01*
X146816475Y-103717614D01*
X146812070Y-103732612D01*
X146802439Y-103747601D01*
X146797432Y-103764675D01*
X146774327Y-103791355D01*
X146772958Y-103792542D01*
X146718097Y-103820018D01*
X146710539Y-103821663D01*
X146684168Y-103824500D01*
X146552130Y-103824500D01*
X146552128Y-103824500D01*
X146551423Y-103824550D01*
X146549979Y-103824731D01*
X146492516Y-103830907D01*
X146492514Y-103830908D01*
X146357672Y-103881201D01*
X146357664Y-103881206D01*
X146340267Y-103894230D01*
X146340264Y-103894231D01*
X146340263Y-103894233D01*
X146309286Y-103911146D01*
X146296284Y-103915995D01*
X146226592Y-103920977D01*
X146165274Y-103887493D01*
X146158980Y-103881199D01*
X146132104Y-103840977D01*
X146087242Y-103732669D01*
X146087235Y-103732656D01*
X146002370Y-103605648D01*
X146002367Y-103605644D01*
X146002362Y-103605638D01*
X145894357Y-103497633D01*
X145767350Y-103412769D01*
X145767343Y-103412764D01*
X145767334Y-103412759D01*
X145767331Y-103412757D01*
X145767323Y-103412753D01*
X145626206Y-103354302D01*
X145626179Y-103354296D01*
X145476386Y-103324500D01*
X145476384Y-103324500D01*
X145476380Y-103324500D01*
X145323620Y-103324500D01*
X145323615Y-103324500D01*
X145323613Y-103324500D01*
X145173819Y-103354296D01*
X145173792Y-103354302D01*
X145032675Y-103412753D01*
X145032648Y-103412769D01*
X144905641Y-103497633D01*
X144797636Y-103605638D01*
X144797631Y-103605644D01*
X144797630Y-103605645D01*
X144712763Y-103732657D01*
X144675798Y-103821898D01*
X144675793Y-103821905D01*
X144675793Y-103821909D01*
X144657781Y-103852261D01*
X144649072Y-103863066D01*
X144591675Y-103902908D01*
X144521858Y-103905397D01*
X144510000Y-103902370D01*
X144487884Y-103889776D01*
X144487394Y-103890961D01*
X144453644Y-103876981D01*
X144446591Y-103875908D01*
X144317375Y-103835643D01*
X144317366Y-103835641D01*
X144302196Y-103830914D01*
X144302194Y-103830913D01*
X144302192Y-103830913D01*
X144289372Y-103829748D01*
X144289367Y-103829747D01*
X144252778Y-103826423D01*
X144252777Y-103826422D01*
X144232166Y-103824550D01*
X144231616Y-103824500D01*
X144231615Y-103824500D01*
X143718380Y-103824500D01*
X143707125Y-103825522D01*
X143707117Y-103825523D01*
X143699145Y-103826248D01*
X143647807Y-103830913D01*
X143558886Y-103858620D01*
X143553893Y-103859736D01*
X143523929Y-103857757D01*
X143493902Y-103858252D01*
X143489427Y-103855479D01*
X143484175Y-103855133D01*
X143460032Y-103837266D01*
X143434509Y-103821451D01*
X143431320Y-103816016D01*
X143428013Y-103813569D01*
X143424592Y-103804550D01*
X143410212Y-103780041D01*
X143410134Y-103780073D01*
X143409923Y-103779548D01*
X143409593Y-103778985D01*
X143408968Y-103777165D01*
X143405115Y-103767555D01*
X143402371Y-103760711D01*
X143402368Y-103760706D01*
X143402367Y-103760702D01*
X143379962Y-103717614D01*
X143356653Y-103672785D01*
X143346213Y-103656769D01*
X143284236Y-103579471D01*
X141866153Y-102128647D01*
X140927378Y-101168197D01*
X140927375Y-101168194D01*
X140849121Y-101102842D01*
X140849116Y-101102838D01*
X140849112Y-101102835D01*
X140832823Y-101091816D01*
X140832820Y-101091814D01*
X140832818Y-101091813D01*
X140743050Y-101043500D01*
X140726667Y-101036713D01*
X140631809Y-101007939D01*
X140631806Y-101007938D01*
X140619361Y-101005463D01*
X140613051Y-101004208D01*
X140538634Y-100996880D01*
X140514457Y-100994500D01*
X140514455Y-100994500D01*
X139224500Y-100994500D01*
X139215814Y-100991949D01*
X139206853Y-100993238D01*
X139182812Y-100982259D01*
X139157461Y-100974815D01*
X139151533Y-100967974D01*
X139143297Y-100964213D01*
X139129007Y-100941978D01*
X139111706Y-100922011D01*
X139109418Y-100911496D01*
X139105523Y-100905435D01*
X139100500Y-100870500D01*
X139100500Y-100641829D01*
X139105523Y-100606893D01*
X139109927Y-100591895D01*
X139119569Y-100576886D01*
X139120185Y-100574790D01*
X139121834Y-100573360D01*
X139147672Y-100533144D01*
X139149041Y-100531957D01*
X139203920Y-100504477D01*
X139211479Y-100502833D01*
X139237832Y-100500000D01*
X146679670Y-100500000D01*
X146714606Y-100505023D01*
G37*
%TD.AperFunction*%
%TA.AperFunction,Conductor*%
G36*
X171748314Y-66200540D02*
G01*
X171751667Y-66200627D01*
X171754834Y-66200752D01*
X172059072Y-66216696D01*
X172065492Y-66217201D01*
X172071970Y-66217883D01*
X172078363Y-66218725D01*
X172374401Y-66265614D01*
X172374407Y-66265615D01*
X172380774Y-66266794D01*
X172387102Y-66268139D01*
X172393419Y-66269655D01*
X172454213Y-66285944D01*
X172682950Y-66347235D01*
X172689167Y-66349077D01*
X172695331Y-66351080D01*
X172701447Y-66353246D01*
X172981260Y-66460656D01*
X172987233Y-66463130D01*
X172993160Y-66465768D01*
X172998993Y-66468550D01*
X173266097Y-66604647D01*
X173271760Y-66607722D01*
X173277420Y-66610989D01*
X173282894Y-66614345D01*
X173534275Y-66777593D01*
X173539621Y-66781267D01*
X173544860Y-66785073D01*
X173550003Y-66789018D01*
X173724091Y-66929992D01*
X173782962Y-66977664D01*
X173787855Y-66981844D01*
X173792722Y-66986225D01*
X173797406Y-66990672D01*
X174009326Y-67202592D01*
X174013774Y-67207279D01*
X174018143Y-67212130D01*
X174022345Y-67217050D01*
X174210966Y-67449978D01*
X174214920Y-67455132D01*
X174218729Y-67460375D01*
X174222404Y-67465722D01*
X174385631Y-67717069D01*
X174389022Y-67722601D01*
X174392264Y-67728216D01*
X174395363Y-67733924D01*
X174531438Y-68000985D01*
X174534233Y-68006846D01*
X174536862Y-68012751D01*
X174539346Y-68018747D01*
X174646749Y-68298541D01*
X174648913Y-68304652D01*
X174648914Y-68304654D01*
X174650924Y-68310839D01*
X174652770Y-68317071D01*
X174730338Y-68606560D01*
X174731857Y-68612888D01*
X174733208Y-68619248D01*
X174734387Y-68625615D01*
X174781267Y-68921596D01*
X174782115Y-68928032D01*
X174782796Y-68934511D01*
X174783305Y-68940984D01*
X174799245Y-69245150D01*
X174799371Y-69248355D01*
X174799457Y-69251607D01*
X174799500Y-69254850D01*
X174799500Y-110745148D01*
X174799457Y-110748361D01*
X174799373Y-110751602D01*
X174799372Y-110751640D01*
X174799245Y-110754848D01*
X174783305Y-111059014D01*
X174782796Y-111065487D01*
X174782115Y-111071966D01*
X174781267Y-111078402D01*
X174734387Y-111374383D01*
X174733208Y-111380750D01*
X174731857Y-111387110D01*
X174730338Y-111393438D01*
X174652770Y-111682927D01*
X174650924Y-111689159D01*
X174648914Y-111695344D01*
X174646749Y-111701457D01*
X174539346Y-111981251D01*
X174536866Y-111987237D01*
X174536865Y-111987240D01*
X174534236Y-111993146D01*
X174531438Y-111999014D01*
X174395366Y-112266070D01*
X174392262Y-112271785D01*
X174389016Y-112277406D01*
X174385630Y-112282931D01*
X174222409Y-112534269D01*
X174218734Y-112539616D01*
X174214917Y-112544870D01*
X174210963Y-112550024D01*
X174022345Y-112782948D01*
X174018126Y-112787888D01*
X174013792Y-112792701D01*
X174009326Y-112797406D01*
X173797406Y-113009326D01*
X173792701Y-113013792D01*
X173787888Y-113018126D01*
X173782948Y-113022345D01*
X173550024Y-113210963D01*
X173544870Y-113214917D01*
X173539616Y-113218734D01*
X173534269Y-113222409D01*
X173282931Y-113385630D01*
X173277406Y-113389016D01*
X173271785Y-113392262D01*
X173266070Y-113395366D01*
X172999014Y-113531438D01*
X172993146Y-113534236D01*
X172987240Y-113536865D01*
X172981251Y-113539346D01*
X172701457Y-113646749D01*
X172695344Y-113648914D01*
X172689159Y-113650924D01*
X172682927Y-113652770D01*
X172393438Y-113730338D01*
X172387110Y-113731857D01*
X172380750Y-113733208D01*
X172374383Y-113734387D01*
X172078402Y-113781267D01*
X172071966Y-113782115D01*
X172065487Y-113782796D01*
X172059014Y-113783305D01*
X171754849Y-113799245D01*
X171751641Y-113799371D01*
X171748362Y-113799457D01*
X171745149Y-113799500D01*
X124254851Y-113799500D01*
X124251636Y-113799457D01*
X124248358Y-113799371D01*
X124245150Y-113799245D01*
X123940984Y-113783305D01*
X123934511Y-113782796D01*
X123928032Y-113782115D01*
X123921596Y-113781267D01*
X123625615Y-113734387D01*
X123619248Y-113733208D01*
X123612888Y-113731857D01*
X123606560Y-113730338D01*
X123317071Y-113652770D01*
X123310839Y-113650924D01*
X123304654Y-113648914D01*
X123298557Y-113646754D01*
X123018747Y-113539346D01*
X123012746Y-113536860D01*
X123006835Y-113534228D01*
X123000982Y-113531436D01*
X122987979Y-113524811D01*
X122987976Y-113524810D01*
X122733924Y-113395363D01*
X122728216Y-113392264D01*
X122722601Y-113389022D01*
X122717069Y-113385631D01*
X122465722Y-113222404D01*
X122460375Y-113218729D01*
X122455132Y-113214920D01*
X122449978Y-113210966D01*
X122217050Y-113022345D01*
X122212130Y-113018143D01*
X122207279Y-113013774D01*
X122202592Y-113009326D01*
X121990672Y-112797406D01*
X121986225Y-112792722D01*
X121981844Y-112787856D01*
X121977644Y-112782937D01*
X121937612Y-112733500D01*
X121937612Y-112733501D01*
X121789018Y-112550003D01*
X121785073Y-112544860D01*
X121781267Y-112539621D01*
X121777593Y-112534275D01*
X121777589Y-112534269D01*
X121614345Y-112282894D01*
X121610989Y-112277420D01*
X121607722Y-112271760D01*
X121604640Y-112266084D01*
X121530626Y-112120824D01*
X121468559Y-111999010D01*
X121465764Y-111993149D01*
X121463132Y-111987237D01*
X121460649Y-111981241D01*
X121458443Y-111975495D01*
X121458443Y-111975496D01*
X121353236Y-111701420D01*
X121351081Y-111695334D01*
X121349067Y-111689135D01*
X121347234Y-111682950D01*
X121339773Y-111655104D01*
X121269657Y-111393429D01*
X121268142Y-111387117D01*
X121267486Y-111384028D01*
X121266787Y-111380738D01*
X121265619Y-111374436D01*
X121260198Y-111340206D01*
X121218725Y-111078363D01*
X121217881Y-111071952D01*
X121217202Y-111065501D01*
X121216696Y-111059070D01*
X121200753Y-110754839D01*
X121200629Y-110751678D01*
X121200541Y-110748324D01*
X121200500Y-110745148D01*
X121200500Y-99811480D01*
X124799890Y-99811480D01*
X124799933Y-99816210D01*
X124799933Y-99816214D01*
X124848390Y-105081796D01*
X124860423Y-105186877D01*
X124860423Y-105186881D01*
X124871621Y-105237234D01*
X124871623Y-105237241D01*
X124878778Y-105258574D01*
X124905250Y-105337502D01*
X124905253Y-105337507D01*
X124983034Y-105458537D01*
X124983043Y-105458548D01*
X125028787Y-105511340D01*
X125028790Y-105511343D01*
X125028794Y-105511347D01*
X125137528Y-105605567D01*
X125137531Y-105605568D01*
X125137532Y-105605569D01*
X125192054Y-105630469D01*
X125268405Y-105665338D01*
X125335444Y-105685023D01*
X125335448Y-105685024D01*
X125348074Y-105686839D01*
X125367517Y-105694091D01*
X125367516Y-105694091D01*
X125374444Y-105694835D01*
X125427127Y-105700500D01*
X125434217Y-105700499D01*
X125451864Y-105701761D01*
X125477864Y-105705500D01*
X127150991Y-105705500D01*
X127151000Y-105705500D01*
X127190901Y-105701209D01*
X127204157Y-105700499D01*
X127372871Y-105700499D01*
X127372872Y-105700499D01*
X127432483Y-105694091D01*
X127567331Y-105643796D01*
X127682546Y-105557546D01*
X127768796Y-105442331D01*
X127819091Y-105307483D01*
X127825500Y-105247873D01*
X127825499Y-103252128D01*
X127819091Y-103192517D01*
X127806049Y-103157550D01*
X127788316Y-103110005D01*
X127780500Y-103066677D01*
X127780500Y-101144043D01*
X127800185Y-101077004D01*
X127817007Y-101056174D01*
X128028842Y-100845246D01*
X128090236Y-100811894D01*
X128116865Y-100809117D01*
X129171032Y-100813641D01*
X129237987Y-100833613D01*
X129283514Y-100886613D01*
X129294500Y-100937640D01*
X129294500Y-105141259D01*
X129304204Y-105239823D01*
X129304207Y-105239847D01*
X129307928Y-105258560D01*
X129307934Y-105258585D01*
X129336690Y-105353405D01*
X129336693Y-105353413D01*
X129336694Y-105353415D01*
X129339552Y-105360316D01*
X129362918Y-105409158D01*
X129362919Y-105409160D01*
X129362920Y-105409161D01*
X129364016Y-105410625D01*
X129365947Y-105414161D01*
X129366077Y-105414376D01*
X129366067Y-105414381D01*
X129378884Y-105437853D01*
X129379066Y-105437768D01*
X129380443Y-105440707D01*
X129380931Y-105441601D01*
X129381201Y-105442326D01*
X129381203Y-105442331D01*
X129381204Y-105442332D01*
X129381206Y-105442335D01*
X129399918Y-105467331D01*
X129467450Y-105557542D01*
X129467456Y-105557548D01*
X129496419Y-105579229D01*
X129582664Y-105643793D01*
X129582671Y-105643797D01*
X129717517Y-105694091D01*
X129717516Y-105694091D01*
X129724444Y-105694835D01*
X129777127Y-105700500D01*
X129801884Y-105700499D01*
X129814038Y-105701095D01*
X129858747Y-105705500D01*
X135720332Y-105705500D01*
X135787371Y-105725185D01*
X135805047Y-105738949D01*
X138653438Y-108403770D01*
X138688945Y-108463945D01*
X138692448Y-108486073D01*
X138891978Y-111478999D01*
X138904982Y-111561440D01*
X138895983Y-111630727D01*
X138850953Y-111684151D01*
X138806688Y-111702377D01*
X138666527Y-111730257D01*
X138666496Y-111730264D01*
X138520833Y-111790598D01*
X138520824Y-111790603D01*
X138520807Y-111790613D01*
X138389708Y-111878211D01*
X138389707Y-111878212D01*
X138389701Y-111878217D01*
X138278217Y-111989701D01*
X138278212Y-111989707D01*
X138278211Y-111989708D01*
X138190613Y-112120807D01*
X138190603Y-112120824D01*
X138190598Y-112120833D01*
X138130264Y-112266496D01*
X138130257Y-112266527D01*
X138099500Y-112421150D01*
X138099500Y-112421153D01*
X138099500Y-112578846D01*
X138099500Y-112578848D01*
X138099499Y-112578848D01*
X138130257Y-112733471D01*
X138130264Y-112733501D01*
X138190598Y-112879165D01*
X138190603Y-112879174D01*
X138190613Y-112879191D01*
X138278211Y-113010290D01*
X138278212Y-113010291D01*
X138278217Y-113010297D01*
X138389701Y-113121781D01*
X138389707Y-113121786D01*
X138389711Y-113121789D01*
X138520814Y-113209390D01*
X138520827Y-113209397D01*
X138666498Y-113269735D01*
X138666503Y-113269737D01*
X138821153Y-113300499D01*
X138821156Y-113300500D01*
X138821158Y-113300500D01*
X138978844Y-113300500D01*
X138978845Y-113300499D01*
X139133497Y-113269737D01*
X139265845Y-113214917D01*
X139279172Y-113209397D01*
X139279172Y-113209396D01*
X139279179Y-113209394D01*
X139410289Y-113121789D01*
X139521789Y-113010289D01*
X139609394Y-112879179D01*
X139669737Y-112733497D01*
X139700500Y-112578842D01*
X139700500Y-112421158D01*
X139700500Y-112421155D01*
X139700500Y-112420973D01*
X139700065Y-112418972D01*
X139673004Y-112282931D01*
X139671377Y-112274750D01*
X139669737Y-112266503D01*
X139669735Y-112266498D01*
X139632643Y-112176951D01*
X139625175Y-112107483D01*
X139656450Y-112045004D01*
X139716539Y-112009352D01*
X139747205Y-112005500D01*
X141441248Y-112005500D01*
X141441253Y-112005500D01*
X141539881Y-111995785D01*
X141558631Y-111992055D01*
X141653449Y-111963291D01*
X141660344Y-111960435D01*
X141709158Y-111937081D01*
X141824340Y-111850856D01*
X141850858Y-111824338D01*
X141887003Y-111784102D01*
X141941303Y-111692593D01*
X141952076Y-111682564D01*
X141958935Y-111669537D01*
X141977136Y-111659235D01*
X141992442Y-111644987D01*
X142006927Y-111642374D01*
X142019741Y-111635122D01*
X142040621Y-111636296D01*
X142061202Y-111632584D01*
X142076026Y-111638287D01*
X142089500Y-111639045D01*
X142120597Y-111655434D01*
X142120731Y-111655486D01*
X142121186Y-111655816D01*
X142292179Y-111780048D01*
X142292181Y-111780049D01*
X142292184Y-111780051D01*
X142481588Y-111876557D01*
X142683757Y-111942246D01*
X142893713Y-111975500D01*
X142893714Y-111975500D01*
X143106286Y-111975500D01*
X143106287Y-111975500D01*
X143316243Y-111942246D01*
X143518412Y-111876557D01*
X143707816Y-111780051D01*
X143729789Y-111764086D01*
X143879786Y-111655109D01*
X143879786Y-111655108D01*
X143879842Y-111655067D01*
X143880550Y-111654345D01*
X144030104Y-111504792D01*
X144139204Y-111354626D01*
X144163790Y-111329325D01*
X144174788Y-111320844D01*
X144239891Y-111295494D01*
X144308370Y-111309366D01*
X144308372Y-111309368D01*
X144314551Y-111312628D01*
X144357008Y-111349414D01*
X144382156Y-111384027D01*
X144399704Y-111408180D01*
X144469892Y-111504788D01*
X144620216Y-111655112D01*
X144792169Y-111780042D01*
X144792177Y-111780047D01*
X144792179Y-111780048D01*
X144792181Y-111780049D01*
X144792182Y-111780050D01*
X144792200Y-111780060D01*
X144792442Y-111780182D01*
X144981588Y-111876557D01*
X145183757Y-111942246D01*
X145393713Y-111975500D01*
X145393714Y-111975500D01*
X145606286Y-111975500D01*
X145606287Y-111975500D01*
X145816243Y-111942246D01*
X146018412Y-111876557D01*
X146207816Y-111780051D01*
X146229789Y-111764086D01*
X146379786Y-111655109D01*
X146379786Y-111655108D01*
X146379842Y-111655067D01*
X146380550Y-111654345D01*
X146530104Y-111504792D01*
X146639204Y-111354626D01*
X146663790Y-111329325D01*
X146674788Y-111320844D01*
X146739891Y-111295494D01*
X146808370Y-111309366D01*
X146808372Y-111309368D01*
X146814551Y-111312628D01*
X146857008Y-111349414D01*
X146882156Y-111384027D01*
X146899704Y-111408180D01*
X146969892Y-111504788D01*
X147120216Y-111655112D01*
X147292169Y-111780042D01*
X147292177Y-111780047D01*
X147292179Y-111780048D01*
X147292181Y-111780049D01*
X147292182Y-111780050D01*
X147292200Y-111780060D01*
X147292442Y-111780182D01*
X147481588Y-111876557D01*
X147683757Y-111942246D01*
X147893713Y-111975500D01*
X147893714Y-111975500D01*
X148106286Y-111975500D01*
X148106287Y-111975500D01*
X148316243Y-111942246D01*
X148518412Y-111876557D01*
X148707816Y-111780051D01*
X148729789Y-111764086D01*
X148879786Y-111655109D01*
X148879786Y-111655108D01*
X148879842Y-111655067D01*
X148880550Y-111654345D01*
X149030104Y-111504792D01*
X149139204Y-111354626D01*
X149163790Y-111329325D01*
X149174788Y-111320844D01*
X149239891Y-111295494D01*
X149308370Y-111309366D01*
X149308372Y-111309368D01*
X149314551Y-111312628D01*
X149357008Y-111349414D01*
X149382156Y-111384027D01*
X149399704Y-111408180D01*
X149469892Y-111504788D01*
X149620216Y-111655112D01*
X149792169Y-111780042D01*
X149792177Y-111780047D01*
X149792179Y-111780048D01*
X149792181Y-111780049D01*
X149792182Y-111780050D01*
X149792200Y-111780060D01*
X149792442Y-111780182D01*
X149981588Y-111876557D01*
X150183757Y-111942246D01*
X150393713Y-111975500D01*
X150393714Y-111975500D01*
X150606286Y-111975500D01*
X150606287Y-111975500D01*
X150816243Y-111942246D01*
X151018412Y-111876557D01*
X151207816Y-111780051D01*
X151229789Y-111764086D01*
X151379786Y-111655109D01*
X151379786Y-111655108D01*
X151379842Y-111655067D01*
X151380550Y-111654345D01*
X151530104Y-111504792D01*
X151639204Y-111354626D01*
X151663790Y-111329325D01*
X151674788Y-111320844D01*
X151739891Y-111295494D01*
X151808370Y-111309366D01*
X151808372Y-111309368D01*
X151814551Y-111312628D01*
X151857008Y-111349414D01*
X151882156Y-111384027D01*
X151899704Y-111408180D01*
X151969892Y-111504788D01*
X152120216Y-111655112D01*
X152292169Y-111780042D01*
X152292177Y-111780047D01*
X152292179Y-111780048D01*
X152292181Y-111780049D01*
X152292182Y-111780050D01*
X152292200Y-111780060D01*
X152292442Y-111780182D01*
X152481588Y-111876557D01*
X152683757Y-111942246D01*
X152893713Y-111975500D01*
X152893714Y-111975500D01*
X153106286Y-111975500D01*
X153106287Y-111975500D01*
X153316243Y-111942246D01*
X153518412Y-111876557D01*
X153707816Y-111780051D01*
X153729789Y-111764086D01*
X153879786Y-111655109D01*
X153879786Y-111655108D01*
X153879844Y-111655066D01*
X153880605Y-111654290D01*
X154030104Y-111504792D01*
X154030106Y-111504788D01*
X154030109Y-111504786D01*
X154155048Y-111332820D01*
X154155047Y-111332820D01*
X154155051Y-111332816D01*
X154155053Y-111332810D01*
X154175445Y-111304744D01*
X154183730Y-111276529D01*
X154251557Y-111143412D01*
X154317246Y-110941243D01*
X154350500Y-110731287D01*
X154350500Y-110268713D01*
X154317246Y-110058757D01*
X154251557Y-109856588D01*
X154155051Y-109667184D01*
X154155049Y-109667181D01*
X154155048Y-109667179D01*
X154154702Y-109666703D01*
X154154700Y-109666699D01*
X154030112Y-109495216D01*
X153879788Y-109344892D01*
X153879786Y-109344890D01*
X153707820Y-109219951D01*
X153639462Y-109185121D01*
X153540245Y-109134567D01*
X153540240Y-109134565D01*
X153518414Y-109123444D01*
X153518413Y-109123443D01*
X153518412Y-109123443D01*
X153495112Y-109115872D01*
X153495104Y-109115869D01*
X153371358Y-109075662D01*
X153371357Y-109075661D01*
X153316238Y-109057752D01*
X153278070Y-109051707D01*
X153278069Y-109051706D01*
X153278067Y-109051706D01*
X153278065Y-109051706D01*
X153244348Y-109041280D01*
X153230222Y-109034583D01*
X153178080Y-108988080D01*
X153177443Y-108987057D01*
X153170124Y-108975301D01*
X153155614Y-108941858D01*
X153126863Y-108834557D01*
X153126860Y-108834549D01*
X153029919Y-108600510D01*
X153029911Y-108600494D01*
X152944752Y-108452995D01*
X152903380Y-108381337D01*
X152903250Y-108381111D01*
X152903249Y-108381110D01*
X152903246Y-108381107D01*
X152903245Y-108381104D01*
X152846207Y-108306770D01*
X152825375Y-108279621D01*
X152749025Y-108180119D01*
X152749020Y-108180113D01*
X152704747Y-108135841D01*
X152704746Y-108135840D01*
X152659453Y-108090547D01*
X152627736Y-108058830D01*
X152627734Y-108058829D01*
X152569884Y-108000978D01*
X152569883Y-108000977D01*
X152569878Y-108000973D01*
X152569870Y-108000966D01*
X152372502Y-107849522D01*
X152368904Y-107846761D01*
X152368902Y-107846759D01*
X152368896Y-107846755D01*
X152368891Y-107846752D01*
X152368888Y-107846750D01*
X152367129Y-107845734D01*
X152367120Y-107845728D01*
X152224180Y-107763202D01*
X152149505Y-107720088D01*
X152149500Y-107720085D01*
X151915453Y-107623139D01*
X151915446Y-107623137D01*
X151915444Y-107623136D01*
X151762510Y-107582158D01*
X151670735Y-107557567D01*
X151670729Y-107557566D01*
X151670724Y-107557565D01*
X151667990Y-107557205D01*
X151419565Y-107524500D01*
X151419564Y-107524500D01*
X151419563Y-107524500D01*
X151337748Y-107524500D01*
X149878499Y-107524500D01*
X149872403Y-107524350D01*
X149866328Y-107524051D01*
X149860279Y-107523605D01*
X149856945Y-107523276D01*
X149854634Y-107523049D01*
X149829426Y-107520566D01*
X149820449Y-107519682D01*
X149786175Y-107511258D01*
X149775690Y-107507024D01*
X149761706Y-107495959D01*
X149745171Y-107489281D01*
X149734876Y-107474730D01*
X149720898Y-107463670D01*
X149715115Y-107446798D01*
X149704817Y-107432243D01*
X149704023Y-107414438D01*
X149698243Y-107397575D01*
X149702499Y-107380257D01*
X149701705Y-107362443D01*
X149714917Y-107329731D01*
X149714918Y-107329726D01*
X149717955Y-107324502D01*
X149750841Y-107287565D01*
X149757546Y-107282546D01*
X149843796Y-107167331D01*
X149894091Y-107032483D01*
X149900500Y-106972873D01*
X149900499Y-105977128D01*
X149894091Y-105917517D01*
X149889464Y-105905112D01*
X149871060Y-105855770D01*
X149849858Y-105798923D01*
X149843797Y-105782671D01*
X149843796Y-105782669D01*
X149833627Y-105769085D01*
X149792076Y-105713581D01*
X149775164Y-105682609D01*
X149769701Y-105667963D01*
X149764715Y-105598273D01*
X149766742Y-105588957D01*
X149788649Y-105540998D01*
X149790783Y-105538147D01*
X149790784Y-105538146D01*
X149843796Y-105467331D01*
X149894091Y-105332483D01*
X149900500Y-105272873D01*
X149900499Y-104277128D01*
X149894091Y-104217517D01*
X149852179Y-104105146D01*
X149843797Y-104082671D01*
X149843793Y-104082664D01*
X149757547Y-103967455D01*
X149757545Y-103967453D01*
X149739942Y-103954275D01*
X149719891Y-103927488D01*
X149695476Y-103862030D01*
X149695149Y-103857459D01*
X149710003Y-103789190D01*
X149718115Y-103776288D01*
X149720979Y-103772299D01*
X149720983Y-103772296D01*
X149720985Y-103772291D01*
X149726416Y-103764728D01*
X149731237Y-103756225D01*
X149825806Y-103626064D01*
X149912064Y-103456774D01*
X149970777Y-103276074D01*
X150000500Y-103088414D01*
X150000500Y-102993414D01*
X150000500Y-102948559D01*
X150000500Y-102099770D01*
X160494243Y-102099770D01*
X160514990Y-107117580D01*
X166513750Y-107117580D01*
X166513750Y-102138782D01*
X164949930Y-102128647D01*
X164931684Y-102127178D01*
X164913733Y-102124387D01*
X164895894Y-102120245D01*
X164865949Y-102110914D01*
X164865946Y-102110913D01*
X164810483Y-102105873D01*
X164795366Y-102104500D01*
X164795363Y-102104500D01*
X164282137Y-102104500D01*
X164282134Y-102104500D01*
X164240726Y-102108263D01*
X164211552Y-102110914D01*
X164198405Y-102115011D01*
X164179768Y-102119274D01*
X164161028Y-102122063D01*
X164141971Y-102123411D01*
X163264877Y-102117726D01*
X163246634Y-102116257D01*
X163228686Y-102113467D01*
X163222417Y-102112011D01*
X163222381Y-102112194D01*
X163215948Y-102110914D01*
X163181921Y-102107822D01*
X163145366Y-102104500D01*
X163145363Y-102104500D01*
X162632127Y-102104500D01*
X162611832Y-102106344D01*
X162607431Y-102106743D01*
X162605955Y-102106878D01*
X162604811Y-102106652D01*
X162544218Y-102112419D01*
X162531666Y-102112974D01*
X161813632Y-102108320D01*
X161807730Y-102108141D01*
X161801839Y-102107822D01*
X161795950Y-102107362D01*
X161770417Y-102104754D01*
X161768909Y-102104569D01*
X161767931Y-102104500D01*
X161767930Y-102104500D01*
X161767928Y-102104500D01*
X161231408Y-102104500D01*
X161228064Y-102104525D01*
X160494245Y-102099768D01*
X160494243Y-102099770D01*
X150000500Y-102099770D01*
X150000500Y-101296300D01*
X150000500Y-101259859D01*
X149975064Y-101099269D01*
X149975063Y-101099265D01*
X149975063Y-101099264D01*
X149945390Y-101007939D01*
X149924831Y-100944665D01*
X149924823Y-100944641D01*
X149924822Y-100944640D01*
X149924822Y-100944638D01*
X149924821Y-100944635D01*
X149851005Y-100799765D01*
X149849396Y-100797551D01*
X149786733Y-100711303D01*
X149770265Y-100680090D01*
X149765913Y-100667890D01*
X149764896Y-100650099D01*
X149763257Y-100645504D01*
X149764362Y-100640749D01*
X149761928Y-100598134D01*
X149796289Y-100537297D01*
X149852907Y-100505861D01*
X149860379Y-100504011D01*
X149861907Y-100503633D01*
X149891701Y-100500000D01*
X158500000Y-100500000D01*
X158500000Y-97500000D01*
X157575178Y-97500000D01*
X157575175Y-97499999D01*
X157575174Y-97500000D01*
X157540239Y-97494976D01*
X157526921Y-97491065D01*
X157468144Y-97453289D01*
X157439122Y-97389734D01*
X157437147Y-97375996D01*
X157437147Y-97340707D01*
X157443000Y-97300000D01*
X157443000Y-96800000D01*
X157440103Y-96745959D01*
X157439177Y-96742333D01*
X157425738Y-96689681D01*
X157404758Y-96607483D01*
X157404521Y-96606555D01*
X157404520Y-96606553D01*
X157404519Y-96606548D01*
X157404441Y-96606242D01*
X157403760Y-96604511D01*
X157402841Y-96602498D01*
X157401588Y-96599473D01*
X157391211Y-96580469D01*
X157373411Y-96547870D01*
X157349804Y-96504637D01*
X157251760Y-96399328D01*
X157251759Y-96399327D01*
X157251758Y-96399326D01*
X157251758Y-96399325D01*
X157176058Y-96354410D01*
X157176056Y-96354408D01*
X157176053Y-96354408D01*
X157148573Y-96332260D01*
X157135483Y-96318199D01*
X157105565Y-96262224D01*
X157103323Y-96252736D01*
X157100000Y-96224220D01*
X157100000Y-92737564D01*
X157105023Y-92702628D01*
X157109427Y-92687630D01*
X157119065Y-92672632D01*
X157124085Y-92655533D01*
X157147196Y-92628858D01*
X157153006Y-92623823D01*
X157199619Y-92598455D01*
X157202569Y-92597598D01*
X157360398Y-92551744D01*
X157404360Y-92525743D01*
X157434760Y-92512872D01*
X157465755Y-92504394D01*
X157498471Y-92500000D01*
X158500000Y-92500000D01*
X158500000Y-89900000D01*
X158487736Y-89887736D01*
X158462461Y-89880315D01*
X158416706Y-89827511D01*
X158405500Y-89776000D01*
X158405500Y-88751209D01*
X158404674Y-88722350D01*
X158403865Y-88708212D01*
X158403865Y-88708206D01*
X158401395Y-88679454D01*
X158364816Y-88540301D01*
X158364814Y-88540298D01*
X158364814Y-88540295D01*
X158338073Y-88477022D01*
X158337688Y-88476086D01*
X158337619Y-88475949D01*
X158337617Y-88475943D01*
X158337615Y-88475938D01*
X158263312Y-88352728D01*
X158254844Y-88344957D01*
X158192610Y-88287842D01*
X158157307Y-88255443D01*
X158099636Y-88216010D01*
X158099633Y-88216008D01*
X158099632Y-88216008D01*
X158016241Y-88175009D01*
X157970518Y-88152529D01*
X157966412Y-88150863D01*
X157966509Y-88150622D01*
X157955320Y-88145986D01*
X157868230Y-88101612D01*
X157851639Y-88091445D01*
X157830955Y-88076417D01*
X157790327Y-88046899D01*
X157747663Y-87991572D01*
X157741684Y-87921958D01*
X157745505Y-87907589D01*
X157765349Y-87847708D01*
X157775500Y-87748345D01*
X157775499Y-87201656D01*
X157770665Y-87154332D01*
X157772111Y-87119076D01*
X157774803Y-87104598D01*
X157806408Y-87042289D01*
X157864229Y-87007596D01*
X157876268Y-87004328D01*
X157908743Y-87000000D01*
X158500000Y-87000000D01*
X158500000Y-81641829D01*
X158502455Y-81624757D01*
X158505023Y-81606893D01*
X158505925Y-81603823D01*
X158509427Y-81591894D01*
X158547172Y-81533144D01*
X158547200Y-81533119D01*
X158547199Y-81533119D01*
X158548541Y-81531956D01*
X158603420Y-81504477D01*
X158610979Y-81502833D01*
X158637332Y-81500000D01*
X162625000Y-81500000D01*
X164000000Y-80125000D01*
X164000000Y-74989772D01*
X164739500Y-74989772D01*
X164739500Y-75210226D01*
X164773985Y-75427955D01*
X164842094Y-75637579D01*
X164842102Y-75637602D01*
X164842104Y-75637606D01*
X164910121Y-75771094D01*
X164910121Y-75771096D01*
X164941159Y-75832011D01*
X164941160Y-75832011D01*
X164941165Y-75832022D01*
X164942187Y-75834026D01*
X165059235Y-75995129D01*
X165071752Y-76012358D01*
X165071756Y-76012363D01*
X165071761Y-76012369D01*
X165227627Y-76168235D01*
X165227636Y-76168243D01*
X165227660Y-76168261D01*
X165376851Y-76276654D01*
X165376856Y-76276656D01*
X165383192Y-76281260D01*
X165405978Y-76297815D01*
X165534375Y-76363237D01*
X165602393Y-76397895D01*
X165602396Y-76397896D01*
X165602433Y-76397908D01*
X165602468Y-76397920D01*
X165707221Y-76431955D01*
X165812049Y-76466015D01*
X166029778Y-76500500D01*
X166029779Y-76500500D01*
X166250221Y-76500500D01*
X166250222Y-76500500D01*
X166467951Y-76466015D01*
X166677606Y-76397895D01*
X166874022Y-76297815D01*
X167052365Y-76168242D01*
X167208242Y-76012365D01*
X167337815Y-75834022D01*
X167437895Y-75637606D01*
X167506015Y-75427951D01*
X167540500Y-75210222D01*
X167540500Y-74989778D01*
X167506015Y-74772049D01*
X167437895Y-74562394D01*
X167437895Y-74562393D01*
X167403237Y-74494375D01*
X167337815Y-74365978D01*
X167337812Y-74365974D01*
X167321261Y-74343194D01*
X167321259Y-74343190D01*
X167208261Y-74187660D01*
X167208243Y-74187636D01*
X167208235Y-74187627D01*
X167052369Y-74031761D01*
X167052364Y-74031757D01*
X167052363Y-74031756D01*
X167052358Y-74031752D01*
X167038940Y-74022003D01*
X166884630Y-73909891D01*
X166884618Y-73909883D01*
X166874025Y-73902187D01*
X166874024Y-73902186D01*
X166874022Y-73902185D01*
X166867909Y-73899070D01*
X166867898Y-73899063D01*
X166811098Y-73870123D01*
X166811096Y-73870122D01*
X166677606Y-73802104D01*
X166677602Y-73802102D01*
X166677579Y-73802094D01*
X166467954Y-73733985D01*
X166467955Y-73733985D01*
X166359086Y-73716742D01*
X166250227Y-73699500D01*
X166250222Y-73699500D01*
X166029778Y-73699500D01*
X166029774Y-73699500D01*
X165971716Y-73708696D01*
X165957201Y-73710995D01*
X165812043Y-73733985D01*
X165602419Y-73802094D01*
X165602396Y-73802102D01*
X165602392Y-73802104D01*
X165405972Y-73902187D01*
X165227658Y-74031739D01*
X165227629Y-74031761D01*
X165071761Y-74187629D01*
X165071739Y-74187658D01*
X164942187Y-74365972D01*
X164842104Y-74562392D01*
X164842102Y-74562396D01*
X164842094Y-74562419D01*
X164773985Y-74772043D01*
X164739500Y-74989772D01*
X164000000Y-74989772D01*
X164000000Y-70972070D01*
X164514500Y-70972070D01*
X164514500Y-71227928D01*
X164554526Y-71480641D01*
X164633588Y-71723974D01*
X164633589Y-71723975D01*
X164712533Y-71878910D01*
X164748728Y-71949947D01*
X164749750Y-71951951D01*
X164885600Y-72138934D01*
X164900132Y-72158935D01*
X164900136Y-72158940D01*
X164900141Y-72158946D01*
X165081052Y-72339857D01*
X165081056Y-72339860D01*
X165081059Y-72339863D01*
X165081064Y-72339867D01*
X165261607Y-72471038D01*
X165288053Y-72490252D01*
X165437080Y-72566185D01*
X165516024Y-72606410D01*
X165516027Y-72606411D01*
X165516036Y-72606414D01*
X165516050Y-72606419D01*
X165637692Y-72645942D01*
X165637693Y-72645942D01*
X165759361Y-72685474D01*
X166012070Y-72725500D01*
X166012071Y-72725500D01*
X166267929Y-72725500D01*
X166267930Y-72725500D01*
X166520639Y-72685474D01*
X166763975Y-72606410D01*
X166991947Y-72490252D01*
X167198942Y-72339862D01*
X167379862Y-72158942D01*
X167530252Y-71951947D01*
X167646410Y-71723975D01*
X167725474Y-71480639D01*
X167765500Y-71227930D01*
X167765500Y-70972070D01*
X167725474Y-70719361D01*
X167646410Y-70476025D01*
X167646410Y-70476024D01*
X167606185Y-70397080D01*
X167530252Y-70248053D01*
X167530249Y-70248049D01*
X167511039Y-70221609D01*
X167511038Y-70221607D01*
X167379879Y-70041081D01*
X167379867Y-70041064D01*
X167379863Y-70041059D01*
X167379860Y-70041056D01*
X167379857Y-70041052D01*
X167198946Y-69860141D01*
X167198941Y-69860137D01*
X167198940Y-69860136D01*
X167198935Y-69860132D01*
X166991950Y-69709750D01*
X166991949Y-69709749D01*
X166991947Y-69709748D01*
X166918910Y-69672533D01*
X166841442Y-69633061D01*
X166763976Y-69593589D01*
X166520641Y-69514526D01*
X166394284Y-69494513D01*
X166352166Y-69487842D01*
X166267930Y-69474500D01*
X166267929Y-69474500D01*
X166012071Y-69474500D01*
X166012070Y-69474500D01*
X165940460Y-69485842D01*
X165759357Y-69514526D01*
X165516030Y-69593586D01*
X165288045Y-69709752D01*
X165081081Y-69860119D01*
X165081052Y-69860141D01*
X164900141Y-70041052D01*
X164900119Y-70041081D01*
X164749752Y-70248045D01*
X164633586Y-70476030D01*
X164554526Y-70719357D01*
X164514500Y-70972070D01*
X164000000Y-70972070D01*
X164000000Y-69000000D01*
X132000000Y-69000000D01*
X132000000Y-80125000D01*
X133375000Y-81500000D01*
X137358171Y-81500000D01*
X137393106Y-81505023D01*
X137408104Y-81509427D01*
X137466855Y-81547172D01*
X137466879Y-81547200D01*
X137466882Y-81547202D01*
X137466883Y-81547204D01*
X137468042Y-81548541D01*
X137495518Y-81603402D01*
X137497163Y-81610960D01*
X137500000Y-81637331D01*
X137500000Y-100500000D01*
X137957671Y-100500000D01*
X137992606Y-100505023D01*
X138007604Y-100509427D01*
X138066355Y-100547172D01*
X138066379Y-100547200D01*
X138066382Y-100547202D01*
X138066383Y-100547204D01*
X138067542Y-100548541D01*
X138095018Y-100603402D01*
X138096663Y-100610960D01*
X138099500Y-100637331D01*
X138099500Y-100870500D01*
X138079815Y-100937539D01*
X138027011Y-100983294D01*
X137975500Y-100994500D01*
X132497521Y-100994500D01*
X132430482Y-100974815D01*
X132413064Y-100961291D01*
X132395191Y-100944665D01*
X131316428Y-99941164D01*
X131306033Y-99923662D01*
X131291720Y-99909186D01*
X131288555Y-99894232D01*
X131280751Y-99881092D01*
X131281468Y-99860747D01*
X131277254Y-99840831D01*
X131282675Y-99826540D01*
X131283215Y-99811265D01*
X131294819Y-99794536D01*
X131302040Y-99775505D01*
X131316902Y-99762700D01*
X131323038Y-99753856D01*
X131327137Y-99750689D01*
X131335562Y-99744455D01*
X131337331Y-99743796D01*
X131411256Y-99688455D01*
X131411358Y-99688380D01*
X131411981Y-99688151D01*
X131441760Y-99671889D01*
X131456419Y-99666421D01*
X131474860Y-99665102D01*
X131476959Y-99664333D01*
X131479057Y-99664801D01*
X131526104Y-99661436D01*
X131537140Y-99663836D01*
X131579676Y-99681902D01*
X131587663Y-99687239D01*
X131587664Y-99687239D01*
X131587665Y-99687240D01*
X131619636Y-99700482D01*
X131728795Y-99745698D01*
X131878615Y-99775499D01*
X131878619Y-99775500D01*
X131878620Y-99775500D01*
X132031381Y-99775500D01*
X132031382Y-99775499D01*
X132181205Y-99745698D01*
X132322337Y-99687239D01*
X132427166Y-99617192D01*
X132428425Y-99616591D01*
X132458992Y-99601966D01*
X132473919Y-99597292D01*
X132543772Y-99596047D01*
X132544455Y-99596234D01*
X132599259Y-99628133D01*
X132606181Y-99635059D01*
X132624009Y-99657613D01*
X132642987Y-99688380D01*
X132652029Y-99703040D01*
X132652034Y-99703046D01*
X132652036Y-99703049D01*
X132771949Y-99822962D01*
X132771952Y-99822964D01*
X132771955Y-99822967D01*
X132771959Y-99822970D01*
X132771967Y-99822975D01*
X132771974Y-99822980D01*
X132914447Y-99910859D01*
X132916300Y-99912002D01*
X132916302Y-99912002D01*
X132916303Y-99912003D01*
X133077292Y-99965349D01*
X133176655Y-99975500D01*
X133723344Y-99975499D01*
X133723352Y-99975498D01*
X133723355Y-99975498D01*
X133723363Y-99975497D01*
X133723653Y-99975479D01*
X133724669Y-99975363D01*
X133777760Y-99969940D01*
X133822708Y-99965349D01*
X133983697Y-99912003D01*
X134128044Y-99822968D01*
X134247968Y-99703044D01*
X134337003Y-99558697D01*
X134390349Y-99397708D01*
X134400500Y-99298345D01*
X134400499Y-98701656D01*
X134395440Y-98652135D01*
X134390349Y-98602292D01*
X134390348Y-98602289D01*
X134387109Y-98592513D01*
X134375437Y-98557289D01*
X134337005Y-98441308D01*
X134336853Y-98440997D01*
X134335861Y-98439450D01*
X134247980Y-98296974D01*
X134247975Y-98296967D01*
X134247970Y-98296959D01*
X134247967Y-98296955D01*
X134247964Y-98296952D01*
X134247962Y-98296949D01*
X134128049Y-98177036D01*
X134128046Y-98177034D01*
X134128044Y-98177032D01*
X134128040Y-98177029D01*
X134069619Y-98140994D01*
X133983709Y-98088003D01*
X133983699Y-98087998D01*
X133983700Y-98087998D01*
X133822709Y-98034651D01*
X133822702Y-98034650D01*
X133723353Y-98024500D01*
X133723346Y-98024500D01*
X133176662Y-98024500D01*
X133176644Y-98024501D01*
X133176636Y-98024501D01*
X133176617Y-98024503D01*
X133110861Y-98031220D01*
X133077292Y-98034650D01*
X133077290Y-98034650D01*
X133077286Y-98034651D01*
X133077282Y-98034651D01*
X133077121Y-98034706D01*
X132916304Y-98087996D01*
X132916295Y-98088000D01*
X132916292Y-98088002D01*
X132771974Y-98177018D01*
X132771954Y-98177032D01*
X132652029Y-98296958D01*
X132625771Y-98339529D01*
X132611318Y-98356845D01*
X132603154Y-98366627D01*
X132591533Y-98377079D01*
X132528525Y-98407273D01*
X132528495Y-98407278D01*
X132528434Y-98407288D01*
X132527835Y-98407385D01*
X132464724Y-98401178D01*
X132455552Y-98397761D01*
X132429950Y-98384665D01*
X132322337Y-98312760D01*
X132322338Y-98312760D01*
X132322328Y-98312755D01*
X132181206Y-98254302D01*
X132181179Y-98254296D01*
X132031386Y-98224500D01*
X132031384Y-98224500D01*
X132031380Y-98224500D01*
X131878620Y-98224500D01*
X131878615Y-98224500D01*
X131878613Y-98224500D01*
X131728819Y-98254296D01*
X131728792Y-98254302D01*
X131587665Y-98312758D01*
X131587657Y-98312762D01*
X131583083Y-98315819D01*
X131551251Y-98331047D01*
X131536336Y-98335717D01*
X131466477Y-98336963D01*
X131466475Y-98336963D01*
X131455588Y-98333976D01*
X131414087Y-98313662D01*
X131337338Y-98256209D01*
X131337325Y-98256200D01*
X131212654Y-98209702D01*
X131212651Y-98209701D01*
X131202486Y-98205910D01*
X131202485Y-98205909D01*
X131202483Y-98205909D01*
X131189021Y-98204461D01*
X131189014Y-98204460D01*
X131142883Y-98199501D01*
X131142881Y-98199500D01*
X131142873Y-98199500D01*
X131142865Y-98199500D01*
X130807132Y-98199500D01*
X130807130Y-98199500D01*
X130807128Y-98199500D01*
X130806423Y-98199550D01*
X130804979Y-98199731D01*
X130747516Y-98205907D01*
X130747514Y-98205908D01*
X130612672Y-98256201D01*
X130612656Y-98256211D01*
X130563585Y-98292946D01*
X130563584Y-98292948D01*
X130545866Y-98302623D01*
X130532608Y-98309863D01*
X130517962Y-98315326D01*
X130448270Y-98320312D01*
X130448263Y-98320310D01*
X130438956Y-98318285D01*
X130391008Y-98296386D01*
X130344428Y-98261516D01*
X130343078Y-98260346D01*
X130337331Y-98256203D01*
X130337329Y-98256202D01*
X130337328Y-98256202D01*
X130202486Y-98205910D01*
X130202485Y-98205909D01*
X130202483Y-98205909D01*
X130189008Y-98204460D01*
X130189007Y-98204460D01*
X130142883Y-98199501D01*
X130142881Y-98199500D01*
X130142873Y-98199500D01*
X130142865Y-98199500D01*
X130098128Y-98199500D01*
X130085978Y-98198903D01*
X130078370Y-98198154D01*
X130041260Y-98194500D01*
X130041253Y-98194500D01*
X129858747Y-98194500D01*
X129858746Y-98194500D01*
X129811734Y-98199127D01*
X129810853Y-98199210D01*
X129807670Y-98199500D01*
X129807130Y-98199500D01*
X129807123Y-98199501D01*
X129804131Y-98199822D01*
X129804015Y-98199833D01*
X129798849Y-98200389D01*
X129797748Y-98200502D01*
X129763123Y-98203911D01*
X129750959Y-98204508D01*
X129696029Y-98204502D01*
X129682798Y-98203792D01*
X129643318Y-98199547D01*
X129643253Y-98199521D01*
X129642885Y-98199500D01*
X129642882Y-98199501D01*
X129642873Y-98199500D01*
X129642863Y-98199500D01*
X129521322Y-98199500D01*
X129503103Y-98198154D01*
X129474700Y-98193935D01*
X129474692Y-98193934D01*
X126424211Y-98179745D01*
X126368409Y-98182575D01*
X126341204Y-98185467D01*
X126286098Y-98194427D01*
X126286091Y-98194429D01*
X126151398Y-98245013D01*
X126151389Y-98245017D01*
X126097967Y-98274344D01*
X126097963Y-98274346D01*
X126090150Y-98278636D01*
X126090139Y-98278642D01*
X125975153Y-98365128D01*
X125970917Y-98369382D01*
X125963685Y-98374793D01*
X125939056Y-98383969D01*
X125916012Y-98396613D01*
X125900644Y-98398280D01*
X125898212Y-98399187D01*
X125896244Y-98398758D01*
X125889409Y-98399500D01*
X125724998Y-98399500D01*
X125724980Y-98399501D01*
X125724972Y-98399501D01*
X125724953Y-98399503D01*
X125622197Y-98410000D01*
X125622193Y-98410001D01*
X125622032Y-98410056D01*
X125455667Y-98465185D01*
X125455665Y-98465186D01*
X125455663Y-98465187D01*
X125356115Y-98526588D01*
X125306340Y-98557290D01*
X125182290Y-98681340D01*
X125090187Y-98830662D01*
X125090152Y-98830770D01*
X125046050Y-98963857D01*
X125046044Y-98963875D01*
X125035001Y-98997203D01*
X125035001Y-98997204D01*
X125035000Y-98997204D01*
X125034230Y-99004735D01*
X125034229Y-99004741D01*
X125024500Y-99099973D01*
X125024500Y-99268919D01*
X125004815Y-99335958D01*
X124988387Y-99356394D01*
X124983234Y-99361570D01*
X124983232Y-99361572D01*
X124946040Y-99403314D01*
X124929005Y-99424707D01*
X124896685Y-99470243D01*
X124838125Y-99601655D01*
X124838119Y-99601671D01*
X124821780Y-99659272D01*
X124821778Y-99659279D01*
X124819056Y-99668879D01*
X124819055Y-99668881D01*
X124799890Y-99811480D01*
X121200500Y-99811480D01*
X121200500Y-96234792D01*
X124994500Y-96234792D01*
X124994500Y-97151002D01*
X124997396Y-97205040D01*
X124997397Y-97205041D01*
X125032979Y-97344449D01*
X125032981Y-97344454D01*
X125047332Y-97379099D01*
X125047332Y-97379100D01*
X125099119Y-97473941D01*
X125099121Y-97473943D01*
X125115062Y-97491065D01*
X125197161Y-97579247D01*
X125197165Y-97579251D01*
X125320893Y-97652663D01*
X125320895Y-97652663D01*
X125320902Y-97652668D01*
X125355550Y-97667020D01*
X125406584Y-97685024D01*
X125549000Y-97705500D01*
X125549003Y-97705500D01*
X126651000Y-97705500D01*
X126651002Y-97705500D01*
X126705040Y-97702603D01*
X126844450Y-97667020D01*
X126879098Y-97652668D01*
X126973943Y-97600879D01*
X127079249Y-97502837D01*
X127080933Y-97500000D01*
X127152663Y-97379106D01*
X127152668Y-97379098D01*
X127167020Y-97344450D01*
X127185024Y-97293416D01*
X127205500Y-97151000D01*
X127205500Y-96400537D01*
X127224348Y-96334817D01*
X127249749Y-96294175D01*
X127521215Y-95859831D01*
X127578464Y-95731272D01*
X127585912Y-95705302D01*
X127605500Y-95565946D01*
X127605500Y-94295726D01*
X127625185Y-94228687D01*
X127677989Y-94182932D01*
X127685349Y-94179853D01*
X129248400Y-93584405D01*
X129343231Y-93536311D01*
X129360435Y-93525169D01*
X129373943Y-93516110D01*
X129375282Y-93514863D01*
X129395643Y-93499487D01*
X129404996Y-93493833D01*
X129437487Y-93480062D01*
X129441154Y-93479094D01*
X129448422Y-93477175D01*
X129466248Y-93477664D01*
X129472551Y-93476001D01*
X129478751Y-93478008D01*
X129518265Y-93479094D01*
X129575983Y-93518469D01*
X129603251Y-93582797D01*
X129603887Y-93588287D01*
X129599098Y-93639442D01*
X129584784Y-93685385D01*
X129584782Y-93685390D01*
X129580916Y-93697796D01*
X129580914Y-93697806D01*
X129574500Y-93768388D01*
X129574500Y-94349757D01*
X129574499Y-94349763D01*
X129574500Y-94349766D01*
X129569475Y-94384701D01*
X129565070Y-94399699D01*
X129527301Y-94458465D01*
X129521748Y-94463277D01*
X129464734Y-94491184D01*
X129398809Y-94504297D01*
X129398804Y-94504298D01*
X129398784Y-94504305D01*
X129257675Y-94562753D01*
X129257648Y-94562769D01*
X129130641Y-94647633D01*
X129022633Y-94755641D01*
X128937769Y-94882648D01*
X128937753Y-94882675D01*
X128879302Y-95023792D01*
X128879296Y-95023819D01*
X128849500Y-95173612D01*
X128849500Y-95173615D01*
X128849500Y-95326384D01*
X128849500Y-95326386D01*
X128849499Y-95326386D01*
X128879296Y-95476179D01*
X128879302Y-95476206D01*
X128937753Y-95617323D01*
X128937757Y-95617331D01*
X128937759Y-95617334D01*
X128937764Y-95617343D01*
X128937769Y-95617350D01*
X129022633Y-95744357D01*
X129130638Y-95852362D01*
X129130644Y-95852367D01*
X129130648Y-95852370D01*
X129257656Y-95937235D01*
X129257663Y-95937239D01*
X129261489Y-95938823D01*
X129291832Y-95956827D01*
X129303695Y-95966387D01*
X129304004Y-95966636D01*
X129343851Y-96024022D01*
X129348152Y-96036942D01*
X129354500Y-96076108D01*
X129354500Y-96547871D01*
X129354659Y-96549806D01*
X129354885Y-96551454D01*
X129360907Y-96607482D01*
X129361734Y-96609698D01*
X129411202Y-96742328D01*
X129411206Y-96742335D01*
X129413919Y-96745959D01*
X129497450Y-96857542D01*
X129497452Y-96857544D01*
X129497455Y-96857547D01*
X129612664Y-96943793D01*
X129612671Y-96943797D01*
X129657618Y-96960561D01*
X129747517Y-96994091D01*
X129807127Y-97000500D01*
X130142872Y-97000499D01*
X130182585Y-96996229D01*
X130195815Y-96995520D01*
X130210438Y-96995517D01*
X130210439Y-96995518D01*
X130239560Y-96995514D01*
X130239560Y-96995513D01*
X130254068Y-96995511D01*
X130267330Y-96996221D01*
X130307127Y-97000500D01*
X130642872Y-97000499D01*
X130682585Y-96996229D01*
X130695815Y-96995520D01*
X130710438Y-96995517D01*
X130710439Y-96995518D01*
X130739560Y-96995514D01*
X130739560Y-96995513D01*
X130754068Y-96995511D01*
X130767330Y-96996221D01*
X130807127Y-97000500D01*
X131142872Y-97000499D01*
X131202483Y-96994091D01*
X131337331Y-96943796D01*
X131452546Y-96857546D01*
X131538796Y-96742331D01*
X131589091Y-96607483D01*
X131595500Y-96547873D01*
X131595500Y-96542329D01*
X131596695Y-96534021D01*
X131600523Y-96507393D01*
X131604927Y-96492395D01*
X131642672Y-96433644D01*
X131642700Y-96433619D01*
X131642699Y-96433619D01*
X131644041Y-96432456D01*
X131698920Y-96404977D01*
X131706479Y-96403333D01*
X131732832Y-96400500D01*
X132520681Y-96400500D01*
X132555616Y-96405523D01*
X132574313Y-96411013D01*
X132628252Y-96443518D01*
X132667028Y-96483371D01*
X132672026Y-96487684D01*
X132764811Y-96580469D01*
X132764813Y-96580470D01*
X132764815Y-96580472D01*
X132764822Y-96580476D01*
X132766154Y-96581436D01*
X132769056Y-96583035D01*
X132910394Y-96668478D01*
X133072804Y-96719086D01*
X133143384Y-96725500D01*
X133143387Y-96725500D01*
X133806613Y-96725500D01*
X133806616Y-96725500D01*
X133877196Y-96719086D01*
X134039606Y-96668478D01*
X134185185Y-96580472D01*
X134305472Y-96460185D01*
X134393478Y-96314606D01*
X134444086Y-96152196D01*
X134450500Y-96081616D01*
X134450500Y-95568384D01*
X134444086Y-95497804D01*
X134393478Y-95335394D01*
X134305472Y-95189815D01*
X134305470Y-95189813D01*
X134305469Y-95189811D01*
X134215946Y-95100288D01*
X134215607Y-95099836D01*
X134194794Y-95072032D01*
X134187302Y-95058311D01*
X134172450Y-94990051D01*
X134172579Y-94988242D01*
X134191949Y-94930041D01*
X134196133Y-94923530D01*
X134212763Y-94902895D01*
X134305469Y-94810189D01*
X134305469Y-94810188D01*
X134305472Y-94810185D01*
X134393478Y-94664606D01*
X134444086Y-94502196D01*
X134450500Y-94431616D01*
X134450500Y-93918384D01*
X134444086Y-93847804D01*
X134393478Y-93685394D01*
X134305472Y-93539815D01*
X134305470Y-93539813D01*
X134305469Y-93539811D01*
X134185188Y-93419530D01*
X134039606Y-93331522D01*
X134039604Y-93331521D01*
X134039602Y-93331520D01*
X134039603Y-93331520D01*
X133911689Y-93291661D01*
X133911689Y-93291662D01*
X133892375Y-93285643D01*
X133892366Y-93285641D01*
X133877196Y-93280914D01*
X133877194Y-93280913D01*
X133877192Y-93280913D01*
X133864372Y-93279748D01*
X133864367Y-93279747D01*
X133827778Y-93276423D01*
X133827777Y-93276422D01*
X133808538Y-93274674D01*
X133806616Y-93274500D01*
X133806615Y-93274500D01*
X133143380Y-93274500D01*
X133126511Y-93276033D01*
X133124145Y-93276248D01*
X133072807Y-93280913D01*
X133072804Y-93280914D01*
X133061389Y-93284470D01*
X133061373Y-93284473D01*
X132928410Y-93325907D01*
X132911290Y-93328512D01*
X132897505Y-93339313D01*
X132866774Y-93357890D01*
X132834281Y-93371663D01*
X132819165Y-93375653D01*
X132801342Y-93375164D01*
X132799219Y-93375725D01*
X132797129Y-93375048D01*
X132749324Y-93373735D01*
X132749322Y-93373734D01*
X132741371Y-93371160D01*
X132691880Y-93340868D01*
X132678044Y-93327032D01*
X132678040Y-93327029D01*
X132595996Y-93276423D01*
X132533709Y-93238003D01*
X132533699Y-93237998D01*
X132533700Y-93237998D01*
X132372709Y-93184651D01*
X132372702Y-93184650D01*
X132273353Y-93174500D01*
X132273346Y-93174500D01*
X131676662Y-93174500D01*
X131676644Y-93174501D01*
X131676622Y-93174503D01*
X131676612Y-93174504D01*
X131577292Y-93184649D01*
X131577281Y-93184652D01*
X131538292Y-93197571D01*
X131538291Y-93197573D01*
X131503550Y-93203794D01*
X131490499Y-93204243D01*
X131422822Y-93186875D01*
X131375278Y-93135675D01*
X131362477Y-93072580D01*
X131362819Y-93067112D01*
X131363046Y-93063487D01*
X131368424Y-93034319D01*
X131369086Y-93032196D01*
X131375500Y-92961616D01*
X131375500Y-92765115D01*
X131380522Y-92730183D01*
X131383590Y-92719735D01*
X131385516Y-92713175D01*
X131420408Y-92656973D01*
X131433253Y-92645123D01*
X131448445Y-92633158D01*
X131501664Y-92597598D01*
X131569352Y-92552370D01*
X131677370Y-92444352D01*
X131762239Y-92317337D01*
X131820698Y-92176205D01*
X131850500Y-92026380D01*
X131850500Y-91873620D01*
X131820698Y-91723795D01*
X131762239Y-91582663D01*
X131762238Y-91582662D01*
X131762237Y-91582659D01*
X131677368Y-91455645D01*
X131677367Y-91455644D01*
X131677362Y-91455638D01*
X131569360Y-91347636D01*
X131569354Y-91347631D01*
X131569353Y-91347630D01*
X131496329Y-91298837D01*
X131496326Y-91298834D01*
X131496325Y-91298834D01*
X131470073Y-91275251D01*
X131461170Y-91264599D01*
X131433288Y-91200535D01*
X131444463Y-91131576D01*
X131444463Y-91131574D01*
X131447074Y-91126117D01*
X131486047Y-91079312D01*
X131552559Y-91030989D01*
X131615778Y-90967770D01*
X131643979Y-90939569D01*
X132324345Y-90259200D01*
X132334134Y-90249414D01*
X132334148Y-90249405D01*
X132362381Y-90228271D01*
X132385075Y-90215881D01*
X132385477Y-90215661D01*
X132444892Y-90200500D01*
X132482964Y-90200500D01*
X132490814Y-90198118D01*
X132633497Y-90169737D01*
X132779179Y-90109394D01*
X132910289Y-90021789D01*
X133021789Y-89910289D01*
X133109394Y-89779179D01*
X133169737Y-89633497D01*
X133200500Y-89478842D01*
X133200500Y-89321158D01*
X133200500Y-89321155D01*
X133200500Y-89320973D01*
X133200065Y-89318971D01*
X133194402Y-89290501D01*
X133169739Y-89166510D01*
X133169736Y-89166501D01*
X133113259Y-89030152D01*
X133113254Y-89030141D01*
X133109402Y-89020840D01*
X133109399Y-89020833D01*
X133109397Y-89020827D01*
X133109390Y-89020814D01*
X133021789Y-88889711D01*
X133021786Y-88889707D01*
X133021781Y-88889701D01*
X132910297Y-88778217D01*
X132910291Y-88778212D01*
X132910290Y-88778211D01*
X132779191Y-88690613D01*
X132779190Y-88690612D01*
X132779185Y-88690609D01*
X132779172Y-88690602D01*
X132779165Y-88690598D01*
X132633502Y-88630264D01*
X132633471Y-88630257D01*
X132478847Y-88599500D01*
X132478845Y-88599500D01*
X132478842Y-88599500D01*
X132321158Y-88599500D01*
X132321155Y-88599500D01*
X132321153Y-88599500D01*
X132166527Y-88630257D01*
X132166496Y-88630264D01*
X132020833Y-88690598D01*
X132020824Y-88690603D01*
X132020807Y-88690613D01*
X131889708Y-88778211D01*
X131889707Y-88778212D01*
X131889701Y-88778217D01*
X131778217Y-88889701D01*
X131778212Y-88889707D01*
X131778211Y-88889708D01*
X131690613Y-89020807D01*
X131690603Y-89020824D01*
X131690598Y-89020833D01*
X131630264Y-89166496D01*
X131630257Y-89166527D01*
X131599500Y-89321150D01*
X131599500Y-89321153D01*
X131599500Y-89478846D01*
X131599500Y-89478848D01*
X131599499Y-89478848D01*
X131630257Y-89633471D01*
X131630264Y-89633502D01*
X131690598Y-89779165D01*
X131690603Y-89779174D01*
X131690613Y-89779191D01*
X131778210Y-89910289D01*
X131778213Y-89910292D01*
X131841902Y-89973981D01*
X131863049Y-90002233D01*
X131870540Y-90015953D01*
X131885391Y-90084211D01*
X131885262Y-90086017D01*
X131865894Y-90144220D01*
X131861713Y-90150726D01*
X131845077Y-90171369D01*
X131473093Y-90543351D01*
X131473092Y-90543354D01*
X131444838Y-90564505D01*
X131432656Y-90571157D01*
X131364383Y-90586009D01*
X131298920Y-90561593D01*
X131291559Y-90556083D01*
X131259758Y-90520970D01*
X131183033Y-90394052D01*
X131181432Y-90391147D01*
X131180469Y-90389811D01*
X131085024Y-90294366D01*
X131063875Y-90266115D01*
X131054750Y-90249405D01*
X131052788Y-90245812D01*
X131049414Y-90233656D01*
X131044198Y-90226237D01*
X131037728Y-90191552D01*
X131037604Y-90188593D01*
X131038557Y-90167276D01*
X131050500Y-90076567D01*
X131050500Y-88701127D01*
X131035687Y-88588611D01*
X130977698Y-88448614D01*
X130885451Y-88328396D01*
X130765233Y-88236149D01*
X130765229Y-88236147D01*
X130649998Y-88188417D01*
X130625236Y-88178160D01*
X130610698Y-88176246D01*
X130601308Y-88175009D01*
X130601306Y-88175009D01*
X130512727Y-88163347D01*
X130512720Y-88163347D01*
X130287280Y-88163347D01*
X130287272Y-88163347D01*
X130287266Y-88163347D01*
X130287262Y-88163348D01*
X130200392Y-88174784D01*
X130200393Y-88174785D01*
X130197355Y-88175185D01*
X130181168Y-88176246D01*
X130118830Y-88176246D01*
X130102643Y-88175185D01*
X130096271Y-88174346D01*
X130096271Y-88174345D01*
X130012734Y-88163347D01*
X130012727Y-88163347D01*
X130012720Y-88163347D01*
X129787280Y-88163347D01*
X129787272Y-88163347D01*
X129787266Y-88163347D01*
X129787262Y-88163348D01*
X129700392Y-88174784D01*
X129700393Y-88174785D01*
X129697355Y-88175185D01*
X129681168Y-88176246D01*
X129618830Y-88176246D01*
X129602643Y-88175185D01*
X129596271Y-88174346D01*
X129596271Y-88174345D01*
X129512734Y-88163347D01*
X129512727Y-88163347D01*
X129512720Y-88163347D01*
X129287280Y-88163347D01*
X129287272Y-88163347D01*
X129287266Y-88163347D01*
X129287262Y-88163348D01*
X129200392Y-88174784D01*
X129200393Y-88174785D01*
X129197355Y-88175185D01*
X129181168Y-88176246D01*
X129118830Y-88176246D01*
X129102643Y-88175185D01*
X129096271Y-88174346D01*
X129096271Y-88174345D01*
X129012734Y-88163347D01*
X129012727Y-88163347D01*
X129012720Y-88163347D01*
X128787280Y-88163347D01*
X128787272Y-88163347D01*
X128696896Y-88175245D01*
X128696891Y-88175246D01*
X128674764Y-88178160D01*
X128674763Y-88178160D01*
X128536912Y-88235259D01*
X128534936Y-88236001D01*
X128534658Y-88236021D01*
X128530598Y-88237537D01*
X128529311Y-88237965D01*
X128520310Y-88247241D01*
X128500631Y-88262341D01*
X128435461Y-88287535D01*
X128425509Y-88287964D01*
X127168790Y-88291653D01*
X127168772Y-88291653D01*
X127168767Y-88291654D01*
X127157144Y-88292307D01*
X127115097Y-88294669D01*
X126975769Y-88330561D01*
X126975757Y-88330565D01*
X126941230Y-88344957D01*
X126941207Y-88344967D01*
X126892788Y-88368242D01*
X126777728Y-88454638D01*
X125856340Y-89378734D01*
X125820462Y-89418766D01*
X125820458Y-89418771D01*
X125747136Y-89542559D01*
X125732832Y-89577165D01*
X125714976Y-89627839D01*
X125714975Y-89627844D01*
X125694500Y-89770256D01*
X125694500Y-93067112D01*
X125688206Y-93106115D01*
X125659650Y-93192291D01*
X125649500Y-93291639D01*
X125649500Y-93888334D01*
X125649503Y-93888381D01*
X125659650Y-93987707D01*
X125659653Y-93987715D01*
X125659720Y-93987918D01*
X125688206Y-94073882D01*
X125694500Y-94112886D01*
X125694500Y-94577112D01*
X125688206Y-94616115D01*
X125659650Y-94702291D01*
X125649500Y-94801639D01*
X125649500Y-95219631D01*
X125629815Y-95286670D01*
X125619648Y-95300329D01*
X125127986Y-95873935D01*
X125106298Y-95901072D01*
X125037688Y-96027540D01*
X125025895Y-96059423D01*
X125014975Y-96092381D01*
X124994500Y-96234792D01*
X121200500Y-96234792D01*
X121200500Y-82212848D01*
X124344500Y-82212848D01*
X124344500Y-85437487D01*
X124347397Y-85491535D01*
X124347397Y-85491536D01*
X124350229Y-85517869D01*
X124350232Y-85517896D01*
X124358885Y-85571292D01*
X124358885Y-85571294D01*
X124404123Y-85692578D01*
X124409168Y-85706104D01*
X124442653Y-85767427D01*
X124528877Y-85882608D01*
X124656239Y-86009970D01*
X124656255Y-86009984D01*
X124656262Y-86009991D01*
X124696480Y-86046118D01*
X124696487Y-86046124D01*
X124696494Y-86046129D01*
X124696500Y-86046135D01*
X124717142Y-86062769D01*
X124761067Y-86094440D01*
X124771310Y-86099117D01*
X124799675Y-86117346D01*
X124862809Y-86140893D01*
X124866829Y-86142729D01*
X124866831Y-86142729D01*
X124891951Y-86154199D01*
X124894547Y-86154961D01*
X124894547Y-86154960D01*
X124918352Y-86161948D01*
X124918375Y-86161954D01*
X124922605Y-86163196D01*
X124934484Y-86167627D01*
X124946829Y-86170312D01*
X124952518Y-86171982D01*
X124953322Y-86172219D01*
X124955186Y-86172864D01*
X124958943Y-86173870D01*
X124958946Y-86173871D01*
X125101362Y-86194347D01*
X128431166Y-86194347D01*
X128498205Y-86214032D01*
X128506639Y-86219961D01*
X128534767Y-86241545D01*
X128674764Y-86299534D01*
X128781577Y-86313595D01*
X128781578Y-86313596D01*
X128787157Y-86314331D01*
X128787171Y-86314332D01*
X128787264Y-86314345D01*
X128787280Y-86314347D01*
X128787287Y-86314347D01*
X129012713Y-86314347D01*
X129012720Y-86314347D01*
X129101971Y-86302596D01*
X129118155Y-86301536D01*
X129181843Y-86301536D01*
X129198028Y-86302597D01*
X129224987Y-86306146D01*
X129287280Y-86314347D01*
X129287287Y-86314347D01*
X129512713Y-86314347D01*
X129512720Y-86314347D01*
X129625236Y-86299534D01*
X129765233Y-86241545D01*
X129810380Y-86206901D01*
X129841147Y-86189625D01*
X129846238Y-86187657D01*
X129855730Y-86183989D01*
X129925344Y-86178177D01*
X129934038Y-86179960D01*
X129984605Y-86203053D01*
X130034767Y-86241545D01*
X130174764Y-86299534D01*
X130281577Y-86313595D01*
X130281578Y-86313596D01*
X130287157Y-86314331D01*
X130287171Y-86314332D01*
X130287264Y-86314345D01*
X130287280Y-86314347D01*
X130287287Y-86314347D01*
X130512713Y-86314347D01*
X130512720Y-86314347D01*
X130601971Y-86302596D01*
X130618155Y-86301536D01*
X130681843Y-86301536D01*
X130698028Y-86302597D01*
X130724987Y-86306146D01*
X130787280Y-86314347D01*
X130787287Y-86314347D01*
X131012713Y-86314347D01*
X131012720Y-86314347D01*
X131125236Y-86299534D01*
X131265233Y-86241545D01*
X131385451Y-86149298D01*
X131477698Y-86029080D01*
X131535687Y-85889083D01*
X131550500Y-85776567D01*
X131550500Y-85542560D01*
X131555522Y-85507627D01*
X131558061Y-85498980D01*
X131559433Y-85494308D01*
X131597206Y-85435531D01*
X131660758Y-85406506D01*
X131661719Y-85406368D01*
X131721099Y-85412341D01*
X131726907Y-85414417D01*
X131749316Y-85425062D01*
X131885394Y-85507325D01*
X132047804Y-85557933D01*
X132118384Y-85564347D01*
X132118387Y-85564347D01*
X132781613Y-85564347D01*
X132781616Y-85564347D01*
X132852196Y-85557933D01*
X132942328Y-85529846D01*
X132977165Y-85524250D01*
X132988479Y-85524064D01*
X133055831Y-85542643D01*
X133102449Y-85594687D01*
X133113529Y-85663670D01*
X133112832Y-85669158D01*
X133095937Y-85717685D01*
X133031522Y-85824239D01*
X132980911Y-85986658D01*
X132974500Y-86057224D01*
X132974500Y-86570468D01*
X132980911Y-86641034D01*
X132980913Y-86641039D01*
X133031522Y-86803453D01*
X133119530Y-86949035D01*
X133239811Y-87069316D01*
X133239813Y-87069317D01*
X133239815Y-87069319D01*
X133239822Y-87069323D01*
X133241154Y-87070283D01*
X133244056Y-87071882D01*
X133385394Y-87157325D01*
X133547804Y-87207933D01*
X133618384Y-87214347D01*
X133618387Y-87214347D01*
X134281613Y-87214347D01*
X134281616Y-87214347D01*
X134352196Y-87207933D01*
X134489369Y-87165188D01*
X134519696Y-87159749D01*
X134549770Y-87158159D01*
X134575085Y-87159981D01*
X134575093Y-87159903D01*
X134578055Y-87160194D01*
X134580511Y-87160371D01*
X134581158Y-87160500D01*
X134581162Y-87160500D01*
X134738844Y-87160500D01*
X134742964Y-87160500D01*
X134750814Y-87158118D01*
X134893497Y-87129737D01*
X135039179Y-87069394D01*
X135170289Y-86981789D01*
X135281789Y-86870289D01*
X135369394Y-86739179D01*
X135429737Y-86593497D01*
X135460500Y-86438842D01*
X135460500Y-86281158D01*
X135460500Y-86281155D01*
X135460500Y-86280971D01*
X135460064Y-86278966D01*
X135434271Y-86149297D01*
X135429737Y-86126503D01*
X135401044Y-86057231D01*
X135369397Y-85980827D01*
X135369390Y-85980814D01*
X135281789Y-85849711D01*
X135281786Y-85849707D01*
X135281781Y-85849701D01*
X135170297Y-85738217D01*
X135170291Y-85738212D01*
X135170290Y-85738211D01*
X135039191Y-85650613D01*
X135039190Y-85650612D01*
X135039185Y-85650609D01*
X135039172Y-85650602D01*
X135039165Y-85650598D01*
X134893523Y-85590272D01*
X134893509Y-85590267D01*
X134893501Y-85590264D01*
X134893491Y-85590261D01*
X134893486Y-85590260D01*
X134893483Y-85590259D01*
X134801324Y-85571927D01*
X134779715Y-85565541D01*
X134770225Y-85561769D01*
X134768303Y-85560265D01*
X134768054Y-85560192D01*
X134763543Y-85557833D01*
X134764022Y-85556916D01*
X134763796Y-85556739D01*
X134749239Y-85549540D01*
X134748643Y-85550488D01*
X134746961Y-85549429D01*
X134745369Y-85547626D01*
X134741771Y-85545847D01*
X134740455Y-85544863D01*
X134741589Y-85543345D01*
X134732934Y-85533542D01*
X134725685Y-85529588D01*
X134723137Y-85524927D01*
X134715197Y-85518715D01*
X134712161Y-85510014D01*
X134700717Y-85497052D01*
X134697917Y-85478789D01*
X134692173Y-85468280D01*
X134693091Y-85455355D01*
X134692181Y-85452745D01*
X134693245Y-85448308D01*
X134691367Y-85436052D01*
X134689468Y-85435952D01*
X134689503Y-85435293D01*
X134690720Y-85431835D01*
X134690131Y-85427989D01*
X134690138Y-85427939D01*
X134690403Y-85425972D01*
X134692678Y-85426278D01*
X134695785Y-85417455D01*
X134697127Y-85398586D01*
X134712098Y-85371140D01*
X134712715Y-85369391D01*
X134714029Y-85367602D01*
X134715014Y-85366285D01*
X134726625Y-85352878D01*
X134773515Y-85305988D01*
X134801710Y-85284871D01*
X134810222Y-85280218D01*
X134810226Y-85280214D01*
X134813550Y-85278398D01*
X134814346Y-85279855D01*
X134820884Y-85278002D01*
X134831781Y-85270015D01*
X134853837Y-85268660D01*
X134875103Y-85262632D01*
X134889542Y-85266467D01*
X134901519Y-85265732D01*
X134934462Y-85278399D01*
X134946356Y-85285050D01*
X134973517Y-85305597D01*
X134989701Y-85321781D01*
X134989707Y-85321786D01*
X134989711Y-85321789D01*
X135120814Y-85409390D01*
X135120827Y-85409397D01*
X135266498Y-85469735D01*
X135266503Y-85469737D01*
X135405634Y-85497412D01*
X135413526Y-85498982D01*
X135416245Y-85499703D01*
X135421155Y-85500500D01*
X135578844Y-85500500D01*
X135582964Y-85500500D01*
X135590814Y-85498118D01*
X135733497Y-85469737D01*
X135879179Y-85409394D01*
X136010289Y-85321789D01*
X136121789Y-85210289D01*
X136209394Y-85079179D01*
X136269737Y-84933497D01*
X136300500Y-84778842D01*
X136300500Y-84621158D01*
X136300500Y-84621155D01*
X136300500Y-84620972D01*
X136300066Y-84618977D01*
X136294528Y-84591136D01*
X136294528Y-84591135D01*
X136269738Y-84466509D01*
X136269737Y-84466503D01*
X136242658Y-84401127D01*
X136209397Y-84320827D01*
X136209390Y-84320814D01*
X136121789Y-84189711D01*
X136121786Y-84189707D01*
X136121781Y-84189701D01*
X136010297Y-84078217D01*
X136010291Y-84078212D01*
X136010290Y-84078211D01*
X135879191Y-83990613D01*
X135879190Y-83990612D01*
X135879185Y-83990609D01*
X135879172Y-83990602D01*
X135879165Y-83990598D01*
X135733502Y-83930264D01*
X135733471Y-83930257D01*
X135578847Y-83899500D01*
X135578845Y-83899500D01*
X135578842Y-83899500D01*
X135421158Y-83899500D01*
X135421155Y-83899500D01*
X135421153Y-83899500D01*
X135266527Y-83930257D01*
X135266496Y-83930264D01*
X135120833Y-83990598D01*
X135120824Y-83990603D01*
X135120797Y-83990619D01*
X134994957Y-84074703D01*
X134985480Y-84080441D01*
X134962046Y-84093233D01*
X134893771Y-84108076D01*
X134828313Y-84083653D01*
X134821053Y-84078217D01*
X134820957Y-84078145D01*
X134789160Y-84043034D01*
X134783030Y-84032894D01*
X134781435Y-84029998D01*
X134780475Y-84028667D01*
X134780472Y-84028662D01*
X134780470Y-84028660D01*
X134780469Y-84028658D01*
X134660188Y-83908377D01*
X134660187Y-83908376D01*
X134660185Y-83908375D01*
X134640399Y-83896414D01*
X134640397Y-83896413D01*
X134635850Y-83893664D01*
X134514606Y-83820369D01*
X134514604Y-83820368D01*
X134514602Y-83820367D01*
X134514603Y-83820367D01*
X134367390Y-83774494D01*
X134367374Y-83774490D01*
X134352196Y-83769761D01*
X134352194Y-83769760D01*
X134352192Y-83769760D01*
X134302778Y-83765270D01*
X134302777Y-83765269D01*
X134283538Y-83763521D01*
X134281616Y-83763347D01*
X134281615Y-83763347D01*
X133618380Y-83763347D01*
X133607390Y-83764345D01*
X133599145Y-83765095D01*
X133582032Y-83766650D01*
X133547805Y-83769760D01*
X133385392Y-83820369D01*
X133279411Y-83884438D01*
X133257871Y-83894770D01*
X133247259Y-83898653D01*
X133244588Y-83898827D01*
X133241227Y-83899715D01*
X133241142Y-83899393D01*
X133225020Y-83904519D01*
X133215491Y-83906106D01*
X133184305Y-83902762D01*
X133177537Y-83903204D01*
X133174924Y-83901756D01*
X133149282Y-83899007D01*
X133145381Y-83897455D01*
X133127068Y-83888355D01*
X133009044Y-83817006D01*
X132961857Y-83765478D01*
X132950019Y-83696619D01*
X132950305Y-83694416D01*
X132950351Y-83693983D01*
X132950351Y-83693982D01*
X132950353Y-83693969D01*
X132955500Y-83622017D01*
X132955500Y-82826178D01*
X132952600Y-82772108D01*
X132949763Y-82745737D01*
X132941099Y-82692302D01*
X132939454Y-82684744D01*
X132928268Y-82653052D01*
X132897502Y-82565884D01*
X132870029Y-82511030D01*
X132870025Y-82511022D01*
X132799969Y-82406236D01*
X132799967Y-82406233D01*
X132798795Y-82404882D01*
X132798782Y-82404867D01*
X132798772Y-82404857D01*
X132798761Y-82404845D01*
X132747801Y-82353916D01*
X132747778Y-82353893D01*
X132721098Y-82330788D01*
X132721093Y-82330784D01*
X132721087Y-82330779D01*
X132663346Y-82287581D01*
X132663342Y-82287579D01*
X132612913Y-82264566D01*
X132612892Y-82264556D01*
X132500526Y-82213252D01*
X132495192Y-82211686D01*
X132485527Y-82208848D01*
X132447588Y-82200594D01*
X132415045Y-82193514D01*
X132380110Y-82188492D01*
X132308172Y-82183347D01*
X132308170Y-82183347D01*
X131612277Y-82183347D01*
X131545238Y-82163662D01*
X131499483Y-82110858D01*
X131496095Y-82102679D01*
X131493799Y-82096524D01*
X131493798Y-82096520D01*
X131493793Y-82096511D01*
X131493786Y-82096501D01*
X131407555Y-81981312D01*
X131407549Y-81981305D01*
X131407547Y-81981302D01*
X131407544Y-81981299D01*
X131407542Y-81981297D01*
X131349616Y-81937933D01*
X131292335Y-81895053D01*
X131292332Y-81895051D01*
X131292330Y-81895050D01*
X131292328Y-81895049D01*
X131157482Y-81844755D01*
X131157483Y-81844755D01*
X131097883Y-81838348D01*
X131097881Y-81838347D01*
X131097873Y-81838347D01*
X131097864Y-81838347D01*
X131096841Y-81838347D01*
X129302123Y-81838347D01*
X129300192Y-81838506D01*
X129298545Y-81838732D01*
X129242516Y-81844755D01*
X129168099Y-81872511D01*
X129107666Y-81895051D01*
X129107665Y-81895052D01*
X128992456Y-81981297D01*
X128992450Y-81981303D01*
X128906205Y-82096512D01*
X128906203Y-82096515D01*
X128855907Y-82231363D01*
X128849501Y-82290963D01*
X128849501Y-82290969D01*
X128849500Y-82290993D01*
X128849500Y-83686723D01*
X128849660Y-83688656D01*
X128849885Y-83690300D01*
X128852507Y-83714692D01*
X128851247Y-83749963D01*
X128848472Y-83765343D01*
X128840488Y-83781295D01*
X128840100Y-83783451D01*
X128838608Y-83785052D01*
X128817217Y-83827800D01*
X128815447Y-83829702D01*
X128765218Y-83862410D01*
X128762534Y-83863339D01*
X128759192Y-83864496D01*
X128734833Y-83870251D01*
X128706100Y-83874034D01*
X128698103Y-83875087D01*
X128682821Y-83877099D01*
X128678755Y-83877365D01*
X128662786Y-83880542D01*
X128662363Y-83878417D01*
X128637576Y-83883347D01*
X127110746Y-83883347D01*
X127081305Y-83874702D01*
X127051319Y-83868179D01*
X127046303Y-83864424D01*
X127043707Y-83863662D01*
X127023065Y-83847028D01*
X126891819Y-83715782D01*
X126858334Y-83654459D01*
X126855500Y-83628101D01*
X126855500Y-82212857D01*
X126855500Y-82212847D01*
X126843947Y-82105391D01*
X126832741Y-82053880D01*
X126832637Y-82053569D01*
X126798616Y-81951349D01*
X126798613Y-81951343D01*
X126762437Y-81895053D01*
X126720825Y-81830304D01*
X126720820Y-81830298D01*
X126675076Y-81777506D01*
X126675072Y-81777503D01*
X126675070Y-81777500D01*
X126566336Y-81683280D01*
X126566333Y-81683278D01*
X126566331Y-81683277D01*
X126435465Y-81623511D01*
X126435460Y-81623509D01*
X126435459Y-81623509D01*
X126368420Y-81603824D01*
X126368422Y-81603824D01*
X126368417Y-81603823D01*
X126306347Y-81594899D01*
X126226000Y-81583347D01*
X126225998Y-81583347D01*
X124974010Y-81583347D01*
X124974000Y-81583347D01*
X124973991Y-81583347D01*
X124973990Y-81583348D01*
X124866549Y-81594899D01*
X124866537Y-81594901D01*
X124815027Y-81606107D01*
X124712502Y-81640230D01*
X124712496Y-81640233D01*
X124591462Y-81718018D01*
X124591451Y-81718026D01*
X124538659Y-81763770D01*
X124444433Y-81872511D01*
X124444430Y-81872515D01*
X124384664Y-82003381D01*
X124364976Y-82070429D01*
X124351572Y-82163662D01*
X124344502Y-82212837D01*
X124344500Y-82212848D01*
X121200500Y-82212848D01*
X121200500Y-74987772D01*
X128447500Y-74987772D01*
X128447500Y-75208226D01*
X128481985Y-75425955D01*
X128550094Y-75635579D01*
X128550102Y-75635602D01*
X128550104Y-75635606D01*
X128650187Y-75832026D01*
X128767235Y-75993129D01*
X128779752Y-76010358D01*
X128779756Y-76010363D01*
X128779761Y-76010369D01*
X128935627Y-76166235D01*
X128935636Y-76166243D01*
X128935660Y-76166261D01*
X129084851Y-76274654D01*
X129084856Y-76274656D01*
X129091192Y-76279260D01*
X129113978Y-76295815D01*
X129242375Y-76361237D01*
X129310393Y-76395895D01*
X129310396Y-76395896D01*
X129310433Y-76395908D01*
X129310468Y-76395920D01*
X129415221Y-76429955D01*
X129520049Y-76464015D01*
X129737778Y-76498500D01*
X129737779Y-76498500D01*
X129958221Y-76498500D01*
X129958222Y-76498500D01*
X130175951Y-76464015D01*
X130385606Y-76395895D01*
X130582022Y-76295815D01*
X130760365Y-76166242D01*
X130916242Y-76010365D01*
X131045815Y-75832022D01*
X131145895Y-75635606D01*
X131214015Y-75425951D01*
X131248500Y-75208222D01*
X131248500Y-74987778D01*
X131214015Y-74770049D01*
X131179955Y-74665221D01*
X131145896Y-74560396D01*
X131145895Y-74560393D01*
X131111237Y-74492375D01*
X131045815Y-74363978D01*
X131045812Y-74363974D01*
X131037537Y-74352585D01*
X131029260Y-74341192D01*
X130917712Y-74187658D01*
X130916261Y-74185660D01*
X130916243Y-74185636D01*
X130916235Y-74185627D01*
X130760369Y-74029761D01*
X130760364Y-74029757D01*
X130760363Y-74029756D01*
X130760358Y-74029752D01*
X130746940Y-74020003D01*
X130592630Y-73907891D01*
X130592618Y-73907883D01*
X130582025Y-73900187D01*
X130582024Y-73900186D01*
X130582022Y-73900185D01*
X130575909Y-73897070D01*
X130575898Y-73897063D01*
X130519098Y-73868123D01*
X130519096Y-73868122D01*
X130385606Y-73800104D01*
X130385602Y-73800102D01*
X130385579Y-73800094D01*
X130175954Y-73731985D01*
X130175955Y-73731985D01*
X129970852Y-73699500D01*
X129970849Y-73699500D01*
X129958222Y-73697500D01*
X129958217Y-73697500D01*
X129737783Y-73697500D01*
X129737778Y-73697500D01*
X129725151Y-73699500D01*
X129725147Y-73699500D01*
X129520043Y-73731985D01*
X129310419Y-73800094D01*
X129310396Y-73800102D01*
X129310392Y-73800104D01*
X129113972Y-73900187D01*
X128935658Y-74029739D01*
X128935629Y-74029761D01*
X128779761Y-74185629D01*
X128779739Y-74185658D01*
X128650187Y-74363972D01*
X128550104Y-74560392D01*
X128550102Y-74560396D01*
X128550094Y-74560419D01*
X128481985Y-74770043D01*
X128447500Y-74987772D01*
X121200500Y-74987772D01*
X121200500Y-70970070D01*
X128222500Y-70970070D01*
X128222500Y-71225928D01*
X128262526Y-71478641D01*
X128341586Y-71721968D01*
X128341587Y-71721971D01*
X128341588Y-71721972D01*
X128341589Y-71721975D01*
X128457750Y-71949950D01*
X128608132Y-72156935D01*
X128608136Y-72156940D01*
X128608141Y-72156946D01*
X128789052Y-72337857D01*
X128789056Y-72337860D01*
X128789059Y-72337863D01*
X128789064Y-72337867D01*
X128969607Y-72469038D01*
X128996053Y-72488252D01*
X129145080Y-72564185D01*
X129224024Y-72604410D01*
X129224027Y-72604411D01*
X129224036Y-72604414D01*
X129224050Y-72604419D01*
X129345692Y-72643942D01*
X129345693Y-72643942D01*
X129467361Y-72683474D01*
X129720070Y-72723500D01*
X129720071Y-72723500D01*
X129975929Y-72723500D01*
X129975930Y-72723500D01*
X130228639Y-72683474D01*
X130471975Y-72604410D01*
X130699947Y-72488252D01*
X130906942Y-72337862D01*
X131087862Y-72156942D01*
X131238252Y-71949947D01*
X131354410Y-71721975D01*
X131433474Y-71478639D01*
X131473500Y-71225930D01*
X131473500Y-70970070D01*
X131433474Y-70717361D01*
X131393942Y-70595693D01*
X131354411Y-70474027D01*
X131354410Y-70474024D01*
X131314185Y-70395080D01*
X131238252Y-70246053D01*
X131238249Y-70246049D01*
X131228645Y-70232830D01*
X131219038Y-70219607D01*
X131087867Y-70039064D01*
X131087863Y-70039059D01*
X131087860Y-70039056D01*
X131087857Y-70039052D01*
X130906946Y-69858141D01*
X130906941Y-69858137D01*
X130906940Y-69858136D01*
X130906935Y-69858132D01*
X130699950Y-69707750D01*
X130699949Y-69707749D01*
X130699947Y-69707748D01*
X130626910Y-69670533D01*
X130549442Y-69631061D01*
X130471976Y-69591589D01*
X130228641Y-69512526D01*
X130102284Y-69492513D01*
X130060166Y-69485842D01*
X129975930Y-69472500D01*
X129975929Y-69472500D01*
X129720071Y-69472500D01*
X129720070Y-69472500D01*
X129635833Y-69485842D01*
X129467357Y-69512526D01*
X129224030Y-69591586D01*
X128996045Y-69707752D01*
X128789081Y-69858119D01*
X128789052Y-69858141D01*
X128608141Y-70039052D01*
X128608119Y-70039081D01*
X128457752Y-70246045D01*
X128341586Y-70474030D01*
X128262526Y-70717357D01*
X128222500Y-70970070D01*
X121200500Y-70970070D01*
X121200500Y-69254850D01*
X121200541Y-69251675D01*
X121200629Y-69248317D01*
X121200754Y-69245150D01*
X121209383Y-69080488D01*
X121216695Y-68940949D01*
X121217204Y-68934475D01*
X121217883Y-68928027D01*
X121218727Y-68921628D01*
X121218732Y-68921596D01*
X121265619Y-68625568D01*
X121266796Y-68619218D01*
X121268141Y-68612889D01*
X121269657Y-68606572D01*
X121269660Y-68606560D01*
X121347241Y-68317024D01*
X121349074Y-68310839D01*
X121351087Y-68304645D01*
X121353244Y-68298557D01*
X121434776Y-68086160D01*
X121460656Y-68018740D01*
X121463132Y-68012761D01*
X121463136Y-68012751D01*
X121465765Y-68006846D01*
X121468542Y-68001021D01*
X121604648Y-67733897D01*
X121607745Y-67728196D01*
X121610969Y-67722613D01*
X121614356Y-67717087D01*
X121614368Y-67717069D01*
X121777614Y-67465690D01*
X121781268Y-67460375D01*
X121785092Y-67455111D01*
X121788985Y-67450037D01*
X121977685Y-67217011D01*
X121981854Y-67212130D01*
X121986215Y-67207287D01*
X121990643Y-67202621D01*
X122202621Y-66990643D01*
X122207299Y-66986205D01*
X122212130Y-66981854D01*
X122217011Y-66977685D01*
X122450037Y-66788985D01*
X122455111Y-66785092D01*
X122460383Y-66781262D01*
X122465690Y-66777614D01*
X122717093Y-66614352D01*
X122722613Y-66610969D01*
X122728196Y-66607745D01*
X122733897Y-66604648D01*
X123001021Y-66468542D01*
X123006847Y-66465764D01*
X123012761Y-66463131D01*
X123018725Y-66460661D01*
X123298582Y-66353234D01*
X123304666Y-66351079D01*
X123310834Y-66349075D01*
X123317048Y-66347235D01*
X123317059Y-66347232D01*
X123606583Y-66269653D01*
X123612889Y-66268141D01*
X123615377Y-66267612D01*
X123619227Y-66266794D01*
X123625568Y-66265619D01*
X123921634Y-66218726D01*
X123928034Y-66217882D01*
X123934495Y-66217202D01*
X123940951Y-66216695D01*
X124245173Y-66200751D01*
X124248328Y-66200628D01*
X124251685Y-66200540D01*
X124254860Y-66200500D01*
X171745138Y-66200500D01*
X171748314Y-66200540D01*
G37*
%TD.AperFunction*%
%TD*%
M02*
