%TF.GenerationSoftware,KiCad,Pcbnew,10.0.5-unknown-202607221313~667fa36054~ubuntu25.10.1*%
%TF.CreationDate,Date%
%TF.ProjectId,OPEN_WEIGHT,4f50454e-5f57-4454-9947-48542e6b6963,+ (Unreleased)*%
%TF.SameCoordinates,Original*%
%TF.FileFunction,Copper,L2,Inr*%
%TF.FilePolarity,Positive*%
%FSLAX46Y46*%
G04 Gerber Fmt 4.6, Leading zero omitted, Abs format (unit mm)*
G04 Created by KiCad*
%MOMM*%
%LPD*%
G01*
G04 APERTURE LIST*
G04 Aperture macros list*
%AMRoundRect*
0 Rectangle with rounded corners*
0 $1 Rounding radius*
0 $2 $3 $4 $5 $6 $7 $8 $9 X,Y pos of 4 corners*
0 Add a 4 corners polygon primitive as box body*
4,1,4,$2,$3,$4,$5,$6,$7,$8,$9,$2,$3,0*
0 Add four circle primitives for the rounded corners*
1,1,$1+$1,$2,$3*
1,1,$1+$1,$4,$5*
1,1,$1+$1,$6,$7*
1,1,$1+$1,$8,$9*
0 Add four rect primitives between the rounded corners*
20,1,$1+$1,$2,$3,$4,$5,0*
20,1,$1+$1,$4,$5,$6,$7,0*
20,1,$1+$1,$6,$7,$8,$9,0*
20,1,$1+$1,$8,$9,$2,$3,0*%
G04 Aperture macros list end*
%TA.AperFunction,ComponentPad*%
%ADD10C,0.800000*%
%TD*%
%TA.AperFunction,ComponentPad*%
%ADD11C,6.400000*%
%TD*%
%TA.AperFunction,ComponentPad*%
%ADD12RoundRect,0.250000X-0.600000X-0.725000X0.600000X-0.725000X0.600000X0.725000X-0.600000X0.725000X0*%
%TD*%
%TA.AperFunction,ComponentPad*%
%ADD13O,1.700000X1.950000*%
%TD*%
%TA.AperFunction,ComponentPad*%
%ADD14R,1.875000X1.875000*%
%TD*%
%TA.AperFunction,ComponentPad*%
%ADD15C,1.875000*%
%TD*%
%TA.AperFunction,ComponentPad*%
%ADD16C,2.025000*%
%TD*%
%TA.AperFunction,ComponentPad*%
%ADD17C,1.500000*%
%TD*%
%TA.AperFunction,HeatsinkPad*%
%ADD18C,0.500000*%
%TD*%
%TA.AperFunction,ViaPad*%
%ADD19C,0.550000*%
%TD*%
%TA.AperFunction,ViaPad*%
%ADD20C,0.600000*%
%TD*%
G04 APERTURE END LIST*
D10*
%TO.N,GND*%
%TO.C,H3*%
X121850000Y-110750000D03*
X122552944Y-109052944D03*
X122552944Y-112447056D03*
X124250000Y-108350000D03*
D11*
X124250000Y-110750000D03*
D10*
X124250000Y-113150000D03*
X125947056Y-109052944D03*
X125947056Y-112447056D03*
X126650000Y-110750000D03*
%TD*%
%TO.N,GND*%
%TO.C,H2*%
X121850000Y-69250000D03*
X122552944Y-67552944D03*
X122552944Y-70947056D03*
X124250000Y-66850000D03*
D11*
X124250000Y-69250000D03*
D10*
X124250000Y-71650000D03*
X125947056Y-67552944D03*
X125947056Y-70947056D03*
X126650000Y-69250000D03*
%TD*%
D12*
%TO.N,+3.3V*%
%TO.C,J1*%
X140500000Y-110500000D03*
D13*
%TO.N,CS*%
X143000000Y-110500000D03*
%TO.N,DIN*%
X145500000Y-110500000D03*
%TO.N,DOUT*%
X148000000Y-110500000D03*
%TO.N,SYNC*%
X150500000Y-110500000D03*
%TO.N,SCLK*%
X153000000Y-110500000D03*
%TO.N,GND*%
X155500000Y-110500000D03*
%TD*%
D14*
%TO.N,IN-OUT+2*%
%TO.C,J2*%
X135700000Y-76866000D03*
D15*
%TO.N,IN-OUT-2*%
X139236000Y-76866000D03*
%TO.N,SENSE+*%
X139236000Y-73330000D03*
%TO.N,SENSE-*%
X135700000Y-73330000D03*
%TO.N,GND*%
X137468000Y-75098000D03*
D16*
X137468000Y-71098000D03*
%TD*%
D10*
%TO.N,GND*%
%TO.C,H4*%
X169350000Y-110750000D03*
X170052944Y-109052944D03*
X170052944Y-112447056D03*
X171750000Y-108350000D03*
D11*
X171750000Y-110750000D03*
D10*
X171750000Y-113150000D03*
X173447056Y-109052944D03*
X173447056Y-112447056D03*
X174150000Y-110750000D03*
%TD*%
%TO.N,GND*%
%TO.C,H1*%
X169350000Y-69250000D03*
X170052944Y-67552944D03*
X170052944Y-70947056D03*
X171750000Y-66850000D03*
D11*
X171750000Y-69250000D03*
D10*
X171750000Y-71650000D03*
X173447056Y-67552944D03*
X173447056Y-70947056D03*
X174150000Y-69250000D03*
%TD*%
D14*
%TO.N,IN-OUT+*%
%TO.C,J4*%
X156752000Y-76868000D03*
D15*
%TO.N,IN-OUT-*%
X160288000Y-76868000D03*
%TO.N,SENSE+*%
X160288000Y-73332000D03*
%TO.N,SENSE-*%
X156752000Y-73332000D03*
%TO.N,GND*%
X158520000Y-75100000D03*
D16*
X158520000Y-71100000D03*
%TD*%
D17*
%TO.N,GND*%
%TO.C,H5*%
X158250000Y-82380000D03*
X158250000Y-87460000D03*
X158250000Y-92540000D03*
X158250000Y-97620000D03*
X155620000Y-100250000D03*
X150540000Y-100250000D03*
X145460000Y-100250000D03*
X140380000Y-100250000D03*
X137750000Y-97620000D03*
X137750000Y-92540000D03*
X137750000Y-87460000D03*
X137750000Y-82380000D03*
X140380000Y-79750000D03*
X145460000Y-79750000D03*
X150540000Y-79750000D03*
X155620000Y-79750000D03*
%TD*%
D18*
%TO.N,GND*%
%TO.C,U2*%
X128600000Y-87888847D03*
X129900000Y-87888847D03*
X131200000Y-87888847D03*
X128600000Y-86588847D03*
X129900000Y-86588847D03*
X131200000Y-86588847D03*
%TD*%
D19*
%TO.N,+3.3V*%
X129625000Y-95250000D03*
D20*
X165245000Y-106100000D03*
X141600000Y-106100000D03*
D19*
X130200000Y-100025000D03*
D20*
%TO.N,GND*%
X163000000Y-67750000D03*
D19*
X150300000Y-83900000D03*
D20*
X128000000Y-112500000D03*
X168000000Y-112500000D03*
X168000000Y-67750000D03*
X122750000Y-81500000D03*
X173250000Y-74000000D03*
X165000000Y-110000000D03*
D19*
X142650000Y-90020000D03*
X155650000Y-84650000D03*
D20*
X122750000Y-84000000D03*
X133000000Y-67750000D03*
X160000000Y-85000000D03*
X122750000Y-106500000D03*
D19*
X152100000Y-95700000D03*
D20*
X133000000Y-112500000D03*
X170000000Y-90000000D03*
X155000000Y-105000000D03*
X122750000Y-89000000D03*
X125000000Y-75000000D03*
X173250000Y-79000000D03*
D19*
X145725000Y-83900000D03*
D20*
X135000000Y-110000000D03*
X160500000Y-112500000D03*
X170000000Y-105000000D03*
X165500000Y-67750000D03*
X160500000Y-67750000D03*
D19*
X142660000Y-95930000D03*
D20*
X145500000Y-67750000D03*
X135000000Y-90000000D03*
X122750000Y-96500000D03*
X173250000Y-89000000D03*
X173250000Y-101500000D03*
D19*
X132390000Y-87718847D03*
D20*
X140500000Y-67750000D03*
X165500000Y-112500000D03*
D19*
X141150000Y-90020000D03*
D20*
X122750000Y-91500000D03*
D19*
X145725000Y-85275000D03*
D20*
X130000000Y-110000000D03*
X135500000Y-67750000D03*
X165000000Y-85000000D03*
D19*
X146500000Y-91825000D03*
D20*
X158000000Y-67750000D03*
X165000000Y-80000000D03*
X170000000Y-75000000D03*
X128000000Y-67750000D03*
X165000000Y-100000000D03*
X155500000Y-67750000D03*
X173250000Y-76500000D03*
X173250000Y-91500000D03*
X160000000Y-100000000D03*
X173250000Y-96500000D03*
D19*
X140250000Y-84650000D03*
D20*
X135500000Y-112500000D03*
X170000000Y-95000000D03*
X170000000Y-85000000D03*
D19*
X156100000Y-85900000D03*
D20*
X122750000Y-104000000D03*
D19*
X141130000Y-95920000D03*
D20*
X173250000Y-106500000D03*
X165000000Y-90000000D03*
X130000000Y-80000000D03*
X173250000Y-81500000D03*
X122750000Y-99000000D03*
X122750000Y-79000000D03*
D19*
X150275000Y-85375000D03*
D20*
X173250000Y-94000000D03*
D19*
X157375000Y-85925000D03*
D20*
X173250000Y-84000000D03*
X143000000Y-67750000D03*
X160000000Y-95000000D03*
X150500000Y-67750000D03*
X170000000Y-100000000D03*
X160000000Y-90000000D03*
X148000000Y-67750000D03*
X122750000Y-86500000D03*
X160000000Y-105000000D03*
X122750000Y-74000000D03*
X122750000Y-94000000D03*
X163000000Y-112500000D03*
X125000000Y-80000000D03*
X122749235Y-76495484D03*
X160000000Y-110000000D03*
X170000000Y-80000000D03*
X173250000Y-99000000D03*
X153000000Y-67750000D03*
X130500000Y-67750000D03*
X130500000Y-112500000D03*
X173250000Y-86500000D03*
D19*
X149600000Y-89875000D03*
D20*
X173250000Y-104000000D03*
X122750000Y-101500000D03*
D19*
X146535000Y-91175000D03*
D20*
X138000000Y-67750000D03*
X165000000Y-95000000D03*
D19*
X157800000Y-95800000D03*
%TO.N,Net-(U1-P2)*%
X148650000Y-102300000D03*
X165263750Y-103080000D03*
%TO.N,/Project Architecture/TPS61086_3.3V_to_6V/COMP*%
X133475000Y-95825000D03*
%TO.N,/Project Architecture/TPS61086_3.3V_to_6V/FB*%
X131075000Y-91950000D03*
%TO.N,/Project Architecture/TPS61086_3.3V_to_6V/SS*%
X131955000Y-99000000D03*
D20*
%TO.N,MCLK1*%
X153500000Y-97250000D03*
%TO.N,+5VA*%
X155500000Y-92700000D03*
X125990000Y-83118847D03*
X125990000Y-82418847D03*
X165263750Y-104580000D03*
X139500000Y-92250000D03*
X125290000Y-83118847D03*
X125290000Y-82418847D03*
X156000000Y-92200000D03*
X140250000Y-92250000D03*
X125990000Y-83818847D03*
X155425000Y-94375000D03*
X155425000Y-93800000D03*
X125290000Y-83818847D03*
X134660000Y-86360000D03*
%TO.N,SENSE+*%
X147225000Y-85400000D03*
X147225000Y-86800000D03*
X147225000Y-86100000D03*
X156900000Y-88900000D03*
X156900000Y-89500000D03*
X155100000Y-88900000D03*
X157500000Y-89500000D03*
X157500000Y-88900000D03*
X155100000Y-89500000D03*
X148600000Y-78100000D03*
X147464124Y-79235876D03*
X147225000Y-87500000D03*
D19*
%TO.N,Net-(U1-~{CS})*%
X145400000Y-104100000D03*
X149075735Y-103250735D03*
D20*
%TO.N,P3*%
X152800000Y-90900000D03*
%TO.N,+6V*%
X127100000Y-91700000D03*
%TO.N,/Project Architecture/LT3042_6V_to_5VA/PGFB*%
X135500000Y-84700000D03*
%TO.N,/Project Architecture/LT3042_6V_to_5VA/PG*%
X132400000Y-89400000D03*
%TO.N,/Project Architecture/LT3042_6V_to_5VA/SET*%
X131200000Y-83100000D03*
%TD*%
%TA.AperFunction,Conductor*%
%TO.N,GND*%
G36*
X171753243Y-66200669D02*
G01*
X172062288Y-66216865D01*
X172075164Y-66218219D01*
X172377608Y-66266122D01*
X172390292Y-66268817D01*
X172686077Y-66348073D01*
X172698415Y-66352082D01*
X172984279Y-66461815D01*
X172996121Y-66467087D01*
X173268976Y-66606114D01*
X173280191Y-66612590D01*
X173537008Y-66779368D01*
X173547489Y-66786983D01*
X173724091Y-66929992D01*
X173785467Y-66979693D01*
X173795112Y-66988378D01*
X174011621Y-67204887D01*
X174020306Y-67214532D01*
X174213014Y-67452507D01*
X174220633Y-67462995D01*
X174387406Y-67719802D01*
X174393888Y-67731029D01*
X174532907Y-68003867D01*
X174538186Y-68015725D01*
X174647917Y-68301585D01*
X174651928Y-68313928D01*
X174731180Y-68609701D01*
X174733878Y-68622397D01*
X174781778Y-68924819D01*
X174783135Y-68937728D01*
X174799330Y-69246756D01*
X174799500Y-69253245D01*
X174799500Y-110746754D01*
X174799330Y-110753243D01*
X174783135Y-111062271D01*
X174781778Y-111075180D01*
X174733878Y-111377602D01*
X174731180Y-111390298D01*
X174651928Y-111686071D01*
X174647917Y-111698414D01*
X174538186Y-111984274D01*
X174532907Y-111996132D01*
X174393892Y-112268964D01*
X174387402Y-112280204D01*
X174220638Y-112536998D01*
X174213009Y-112547499D01*
X174020306Y-112785467D01*
X174011621Y-112795112D01*
X173795112Y-113011621D01*
X173785467Y-113020306D01*
X173547499Y-113213009D01*
X173536998Y-113220638D01*
X173280204Y-113387402D01*
X173268964Y-113393892D01*
X172996132Y-113532907D01*
X172984274Y-113538186D01*
X172698414Y-113647917D01*
X172686071Y-113651928D01*
X172390298Y-113731180D01*
X172377602Y-113733878D01*
X172075180Y-113781778D01*
X172062271Y-113783135D01*
X171753244Y-113799330D01*
X171746755Y-113799500D01*
X124253245Y-113799500D01*
X124246756Y-113799330D01*
X123937728Y-113783135D01*
X123924819Y-113781778D01*
X123622397Y-113733878D01*
X123609701Y-113731180D01*
X123313928Y-113651928D01*
X123301585Y-113647917D01*
X123015725Y-113538186D01*
X123003867Y-113532907D01*
X122987976Y-113524810D01*
X122731029Y-113393888D01*
X122719802Y-113387406D01*
X122462995Y-113220633D01*
X122452507Y-113213014D01*
X122214532Y-113020306D01*
X122204887Y-113011621D01*
X121988378Y-112795112D01*
X121979693Y-112785467D01*
X121937612Y-112733501D01*
X121786983Y-112547489D01*
X121779368Y-112537008D01*
X121704131Y-112421153D01*
X138099500Y-112421153D01*
X138099500Y-112578846D01*
X138130261Y-112733489D01*
X138130264Y-112733501D01*
X138190602Y-112879172D01*
X138190609Y-112879185D01*
X138278210Y-113010288D01*
X138278213Y-113010292D01*
X138389707Y-113121786D01*
X138389711Y-113121789D01*
X138520814Y-113209390D01*
X138520827Y-113209397D01*
X138666498Y-113269735D01*
X138666503Y-113269737D01*
X138821153Y-113300499D01*
X138821156Y-113300500D01*
X138821158Y-113300500D01*
X138978844Y-113300500D01*
X138978845Y-113300499D01*
X139133497Y-113269737D01*
X139279179Y-113209394D01*
X139410289Y-113121789D01*
X139521789Y-113010289D01*
X139609394Y-112879179D01*
X139669737Y-112733497D01*
X139700500Y-112578842D01*
X139700500Y-112421158D01*
X139700500Y-112421155D01*
X139700499Y-112421153D01*
X139671377Y-112274750D01*
X139669737Y-112266503D01*
X139669735Y-112266498D01*
X139615406Y-112135335D01*
X139607937Y-112065866D01*
X139639212Y-112003387D01*
X139699301Y-111967735D01*
X139742570Y-111964525D01*
X139747199Y-111964997D01*
X139747203Y-111964999D01*
X139849991Y-111975500D01*
X141150008Y-111975499D01*
X141252797Y-111964999D01*
X141419334Y-111909814D01*
X141568656Y-111817712D01*
X141692712Y-111693656D01*
X141784814Y-111544334D01*
X141784814Y-111544331D01*
X141788178Y-111538879D01*
X141840126Y-111492154D01*
X141909088Y-111480931D01*
X141973170Y-111508774D01*
X141981398Y-111516294D01*
X142120213Y-111655109D01*
X142292179Y-111780048D01*
X142292181Y-111780049D01*
X142292184Y-111780051D01*
X142481588Y-111876557D01*
X142683757Y-111942246D01*
X142893713Y-111975500D01*
X142893714Y-111975500D01*
X143106286Y-111975500D01*
X143106287Y-111975500D01*
X143316243Y-111942246D01*
X143518412Y-111876557D01*
X143707816Y-111780051D01*
X143729789Y-111764086D01*
X143879786Y-111655109D01*
X143879788Y-111655106D01*
X143879792Y-111655104D01*
X144030104Y-111504792D01*
X144149683Y-111340204D01*
X144205011Y-111297540D01*
X144274624Y-111291561D01*
X144336420Y-111324166D01*
X144350313Y-111340199D01*
X144382156Y-111384027D01*
X144469896Y-111504792D01*
X144620213Y-111655109D01*
X144792179Y-111780048D01*
X144792181Y-111780049D01*
X144792184Y-111780051D01*
X144981588Y-111876557D01*
X145183757Y-111942246D01*
X145393713Y-111975500D01*
X145393714Y-111975500D01*
X145606286Y-111975500D01*
X145606287Y-111975500D01*
X145816243Y-111942246D01*
X146018412Y-111876557D01*
X146207816Y-111780051D01*
X146229789Y-111764086D01*
X146379786Y-111655109D01*
X146379788Y-111655106D01*
X146379792Y-111655104D01*
X146530104Y-111504792D01*
X146649683Y-111340204D01*
X146705011Y-111297540D01*
X146774624Y-111291561D01*
X146836420Y-111324166D01*
X146850313Y-111340199D01*
X146882156Y-111384027D01*
X146969896Y-111504792D01*
X147120213Y-111655109D01*
X147292179Y-111780048D01*
X147292181Y-111780049D01*
X147292184Y-111780051D01*
X147481588Y-111876557D01*
X147683757Y-111942246D01*
X147893713Y-111975500D01*
X147893714Y-111975500D01*
X148106286Y-111975500D01*
X148106287Y-111975500D01*
X148316243Y-111942246D01*
X148518412Y-111876557D01*
X148707816Y-111780051D01*
X148729789Y-111764086D01*
X148879786Y-111655109D01*
X148879788Y-111655106D01*
X148879792Y-111655104D01*
X149030104Y-111504792D01*
X149149683Y-111340204D01*
X149205011Y-111297540D01*
X149274624Y-111291561D01*
X149336420Y-111324166D01*
X149350313Y-111340199D01*
X149382156Y-111384027D01*
X149469896Y-111504792D01*
X149620213Y-111655109D01*
X149792179Y-111780048D01*
X149792181Y-111780049D01*
X149792184Y-111780051D01*
X149981588Y-111876557D01*
X150183757Y-111942246D01*
X150393713Y-111975500D01*
X150393714Y-111975500D01*
X150606286Y-111975500D01*
X150606287Y-111975500D01*
X150816243Y-111942246D01*
X151018412Y-111876557D01*
X151207816Y-111780051D01*
X151229789Y-111764086D01*
X151379786Y-111655109D01*
X151379788Y-111655106D01*
X151379792Y-111655104D01*
X151530104Y-111504792D01*
X151649683Y-111340204D01*
X151705011Y-111297540D01*
X151774624Y-111291561D01*
X151836420Y-111324166D01*
X151850313Y-111340199D01*
X151882156Y-111384027D01*
X151969896Y-111504792D01*
X152120213Y-111655109D01*
X152292179Y-111780048D01*
X152292181Y-111780049D01*
X152292184Y-111780051D01*
X152481588Y-111876557D01*
X152683757Y-111942246D01*
X152893713Y-111975500D01*
X152893714Y-111975500D01*
X153106286Y-111975500D01*
X153106287Y-111975500D01*
X153316243Y-111942246D01*
X153518412Y-111876557D01*
X153707816Y-111780051D01*
X153729789Y-111764086D01*
X153879786Y-111655109D01*
X153879788Y-111655106D01*
X153879792Y-111655104D01*
X154030104Y-111504792D01*
X154030106Y-111504788D01*
X154030109Y-111504786D01*
X154155048Y-111332820D01*
X154155047Y-111332820D01*
X154155051Y-111332816D01*
X154251557Y-111143412D01*
X154317246Y-110941243D01*
X154350500Y-110731287D01*
X154350500Y-110268713D01*
X154317246Y-110058757D01*
X154251557Y-109856588D01*
X154155051Y-109667184D01*
X154155049Y-109667181D01*
X154155048Y-109667179D01*
X154030109Y-109495213D01*
X153879786Y-109344890D01*
X153707820Y-109219951D01*
X153518414Y-109123444D01*
X153518413Y-109123443D01*
X153518412Y-109123443D01*
X153316243Y-109057754D01*
X153316241Y-109057753D01*
X153316240Y-109057753D01*
X153154957Y-109032208D01*
X153106287Y-109024500D01*
X152893713Y-109024500D01*
X152845042Y-109032208D01*
X152683760Y-109057753D01*
X152481585Y-109123444D01*
X152292179Y-109219951D01*
X152120213Y-109344890D01*
X151969894Y-109495209D01*
X151969890Y-109495214D01*
X151850318Y-109659793D01*
X151794989Y-109702459D01*
X151725375Y-109708438D01*
X151663580Y-109675833D01*
X151649682Y-109659793D01*
X151530109Y-109495214D01*
X151530105Y-109495209D01*
X151379786Y-109344890D01*
X151207820Y-109219951D01*
X151018414Y-109123444D01*
X151018413Y-109123443D01*
X151018412Y-109123443D01*
X150816243Y-109057754D01*
X150816241Y-109057753D01*
X150816240Y-109057753D01*
X150654957Y-109032208D01*
X150606287Y-109024500D01*
X150393713Y-109024500D01*
X150345042Y-109032208D01*
X150183760Y-109057753D01*
X149981585Y-109123444D01*
X149792179Y-109219951D01*
X149620213Y-109344890D01*
X149469894Y-109495209D01*
X149469890Y-109495214D01*
X149350318Y-109659793D01*
X149294989Y-109702459D01*
X149225375Y-109708438D01*
X149163580Y-109675833D01*
X149149682Y-109659793D01*
X149030109Y-109495214D01*
X149030105Y-109495209D01*
X148879786Y-109344890D01*
X148707820Y-109219951D01*
X148518414Y-109123444D01*
X148518413Y-109123443D01*
X148518412Y-109123443D01*
X148316243Y-109057754D01*
X148316241Y-109057753D01*
X148316240Y-109057753D01*
X148154957Y-109032208D01*
X148106287Y-109024500D01*
X147893713Y-109024500D01*
X147845042Y-109032208D01*
X147683760Y-109057753D01*
X147481585Y-109123444D01*
X147292179Y-109219951D01*
X147120213Y-109344890D01*
X146969894Y-109495209D01*
X146969890Y-109495214D01*
X146850318Y-109659793D01*
X146794989Y-109702459D01*
X146725375Y-109708438D01*
X146663580Y-109675833D01*
X146649682Y-109659793D01*
X146530109Y-109495214D01*
X146530105Y-109495209D01*
X146379786Y-109344890D01*
X146207820Y-109219951D01*
X146018414Y-109123444D01*
X146018413Y-109123443D01*
X146018412Y-109123443D01*
X145816243Y-109057754D01*
X145816241Y-109057753D01*
X145816240Y-109057753D01*
X145654957Y-109032208D01*
X145606287Y-109024500D01*
X145393713Y-109024500D01*
X145345042Y-109032208D01*
X145183760Y-109057753D01*
X144981585Y-109123444D01*
X144792179Y-109219951D01*
X144620213Y-109344890D01*
X144469894Y-109495209D01*
X144469890Y-109495214D01*
X144350318Y-109659793D01*
X144294989Y-109702459D01*
X144225375Y-109708438D01*
X144163580Y-109675833D01*
X144149682Y-109659793D01*
X144030109Y-109495214D01*
X144030105Y-109495209D01*
X143879786Y-109344890D01*
X143707820Y-109219951D01*
X143518414Y-109123444D01*
X143518413Y-109123443D01*
X143518412Y-109123443D01*
X143316243Y-109057754D01*
X143316241Y-109057753D01*
X143316240Y-109057753D01*
X143154957Y-109032208D01*
X143106287Y-109024500D01*
X142893713Y-109024500D01*
X142845042Y-109032208D01*
X142683760Y-109057753D01*
X142481585Y-109123444D01*
X142292179Y-109219951D01*
X142120215Y-109344889D01*
X141981398Y-109483706D01*
X141920075Y-109517190D01*
X141850383Y-109512206D01*
X141794450Y-109470334D01*
X141788178Y-109461120D01*
X141692712Y-109306344D01*
X141568657Y-109182289D01*
X141568656Y-109182288D01*
X141419334Y-109090186D01*
X141252797Y-109035001D01*
X141252795Y-109035000D01*
X141150010Y-109024500D01*
X139849998Y-109024500D01*
X139849981Y-109024501D01*
X139747203Y-109035000D01*
X139747200Y-109035001D01*
X139580668Y-109090185D01*
X139580663Y-109090187D01*
X139431342Y-109182289D01*
X139307289Y-109306342D01*
X139215187Y-109455663D01*
X139215185Y-109455668D01*
X139210325Y-109470334D01*
X139160001Y-109622203D01*
X139160001Y-109622204D01*
X139160000Y-109622204D01*
X139149500Y-109724983D01*
X139149500Y-111275001D01*
X139149501Y-111275018D01*
X139160000Y-111377796D01*
X139160001Y-111377799D01*
X139215188Y-111544340D01*
X139215698Y-111545433D01*
X139215822Y-111546253D01*
X139217458Y-111551189D01*
X139216614Y-111551468D01*
X139226185Y-111614511D01*
X139197660Y-111678293D01*
X139139180Y-111716528D01*
X139079121Y-111719446D01*
X138978846Y-111699500D01*
X138978842Y-111699500D01*
X138821158Y-111699500D01*
X138821155Y-111699500D01*
X138666510Y-111730261D01*
X138666498Y-111730264D01*
X138520827Y-111790602D01*
X138520814Y-111790609D01*
X138389711Y-111878210D01*
X138389707Y-111878213D01*
X138278213Y-111989707D01*
X138278210Y-111989711D01*
X138190609Y-112120814D01*
X138190602Y-112120827D01*
X138130264Y-112266498D01*
X138130261Y-112266510D01*
X138099500Y-112421153D01*
X121704131Y-112421153D01*
X121612590Y-112280191D01*
X121606114Y-112268976D01*
X121467087Y-111996121D01*
X121461813Y-111984274D01*
X121458444Y-111975498D01*
X121352082Y-111698414D01*
X121348071Y-111686071D01*
X121339773Y-111655104D01*
X121268817Y-111390292D01*
X121266121Y-111377602D01*
X121260198Y-111340206D01*
X121218219Y-111075164D01*
X121216865Y-111062288D01*
X121200670Y-110753243D01*
X121200500Y-110746754D01*
X121200500Y-106021153D01*
X140799500Y-106021153D01*
X140799500Y-106178846D01*
X140830261Y-106333489D01*
X140830264Y-106333501D01*
X140890602Y-106479172D01*
X140890609Y-106479185D01*
X140978210Y-106610288D01*
X140978213Y-106610292D01*
X141089707Y-106721786D01*
X141089711Y-106721789D01*
X141220814Y-106809390D01*
X141220827Y-106809397D01*
X141366498Y-106869735D01*
X141366503Y-106869737D01*
X141521153Y-106900499D01*
X141521156Y-106900500D01*
X141521158Y-106900500D01*
X141678844Y-106900500D01*
X141678845Y-106900499D01*
X141833497Y-106869737D01*
X141979179Y-106809394D01*
X142110289Y-106721789D01*
X142221789Y-106610289D01*
X142309394Y-106479179D01*
X142369737Y-106333497D01*
X142400500Y-106178842D01*
X142400500Y-106021158D01*
X142400500Y-106021155D01*
X142400499Y-106021153D01*
X164444500Y-106021153D01*
X164444500Y-106178846D01*
X164475261Y-106333489D01*
X164475264Y-106333501D01*
X164535602Y-106479172D01*
X164535609Y-106479185D01*
X164623210Y-106610288D01*
X164623213Y-106610292D01*
X164734707Y-106721786D01*
X164734711Y-106721789D01*
X164865814Y-106809390D01*
X164865827Y-106809397D01*
X165011498Y-106869735D01*
X165011503Y-106869737D01*
X165166153Y-106900499D01*
X165166156Y-106900500D01*
X165166158Y-106900500D01*
X165323844Y-106900500D01*
X165323845Y-106900499D01*
X165478497Y-106869737D01*
X165624179Y-106809394D01*
X165755289Y-106721789D01*
X165866789Y-106610289D01*
X165954394Y-106479179D01*
X166014737Y-106333497D01*
X166045500Y-106178842D01*
X166045500Y-106021158D01*
X166045500Y-106021155D01*
X166045499Y-106021153D01*
X166014738Y-105866510D01*
X166014737Y-105866503D01*
X166014735Y-105866498D01*
X165954397Y-105720827D01*
X165954390Y-105720814D01*
X165866789Y-105589711D01*
X165866786Y-105589707D01*
X165755292Y-105478213D01*
X165755288Y-105478210D01*
X165712120Y-105449366D01*
X165667315Y-105395754D01*
X165658608Y-105326429D01*
X165688762Y-105263401D01*
X165712121Y-105243162D01*
X165753123Y-105215764D01*
X165774039Y-105201789D01*
X165885539Y-105090289D01*
X165973144Y-104959179D01*
X166033487Y-104813497D01*
X166064250Y-104658842D01*
X166064250Y-104501158D01*
X166064250Y-104501155D01*
X166064249Y-104501153D01*
X166057524Y-104467343D01*
X166033487Y-104346503D01*
X166025076Y-104326197D01*
X165973147Y-104200827D01*
X165973140Y-104200814D01*
X165885539Y-104069711D01*
X165885536Y-104069707D01*
X165774039Y-103958210D01*
X165713961Y-103918068D01*
X165669156Y-103864456D01*
X165660449Y-103795131D01*
X165690603Y-103732104D01*
X165713961Y-103711864D01*
X165758102Y-103682370D01*
X165866120Y-103574352D01*
X165950989Y-103447337D01*
X166009448Y-103306205D01*
X166039250Y-103156380D01*
X166039250Y-103003620D01*
X166009448Y-102853795D01*
X165950989Y-102712663D01*
X165950988Y-102712662D01*
X165950985Y-102712656D01*
X165866120Y-102585648D01*
X165866117Y-102585644D01*
X165758105Y-102477632D01*
X165758101Y-102477629D01*
X165631093Y-102392764D01*
X165631084Y-102392759D01*
X165489955Y-102334302D01*
X165489947Y-102334300D01*
X165340134Y-102304500D01*
X165340130Y-102304500D01*
X165187370Y-102304500D01*
X165187365Y-102304500D01*
X165037552Y-102334300D01*
X165037544Y-102334302D01*
X164896415Y-102392759D01*
X164896406Y-102392764D01*
X164769398Y-102477629D01*
X164769394Y-102477632D01*
X164661382Y-102585644D01*
X164661379Y-102585648D01*
X164576514Y-102712656D01*
X164576509Y-102712665D01*
X164518052Y-102853794D01*
X164518050Y-102853802D01*
X164488250Y-103003615D01*
X164488250Y-103156384D01*
X164518050Y-103306197D01*
X164518052Y-103306205D01*
X164576509Y-103447334D01*
X164576514Y-103447343D01*
X164661379Y-103574351D01*
X164661382Y-103574355D01*
X164769394Y-103682367D01*
X164769398Y-103682370D01*
X164813538Y-103711864D01*
X164858343Y-103765476D01*
X164867050Y-103834801D01*
X164836895Y-103897829D01*
X164813538Y-103918068D01*
X164753461Y-103958210D01*
X164753457Y-103958213D01*
X164641963Y-104069707D01*
X164641960Y-104069711D01*
X164554359Y-104200814D01*
X164554352Y-104200827D01*
X164494014Y-104346498D01*
X164494011Y-104346510D01*
X164463250Y-104501153D01*
X164463250Y-104658846D01*
X164494011Y-104813489D01*
X164494014Y-104813501D01*
X164554352Y-104959172D01*
X164554359Y-104959185D01*
X164641960Y-105090288D01*
X164641963Y-105090292D01*
X164753457Y-105201786D01*
X164753465Y-105201792D01*
X164796628Y-105230633D01*
X164841434Y-105284245D01*
X164850141Y-105353570D01*
X164819987Y-105416597D01*
X164796630Y-105436836D01*
X164734713Y-105478208D01*
X164734707Y-105478213D01*
X164623213Y-105589707D01*
X164623210Y-105589711D01*
X164535609Y-105720814D01*
X164535602Y-105720827D01*
X164475264Y-105866498D01*
X164475261Y-105866510D01*
X164444500Y-106021153D01*
X142400499Y-106021153D01*
X142369738Y-105866510D01*
X142369737Y-105866503D01*
X142369735Y-105866498D01*
X142309397Y-105720827D01*
X142309390Y-105720814D01*
X142221789Y-105589711D01*
X142221786Y-105589707D01*
X142110292Y-105478213D01*
X142110288Y-105478210D01*
X141979185Y-105390609D01*
X141979172Y-105390602D01*
X141833501Y-105330264D01*
X141833489Y-105330261D01*
X141678845Y-105299500D01*
X141678842Y-105299500D01*
X141521158Y-105299500D01*
X141521155Y-105299500D01*
X141366510Y-105330261D01*
X141366498Y-105330264D01*
X141220827Y-105390602D01*
X141220814Y-105390609D01*
X141089711Y-105478210D01*
X141089707Y-105478213D01*
X140978213Y-105589707D01*
X140978210Y-105589711D01*
X140890609Y-105720814D01*
X140890602Y-105720827D01*
X140830264Y-105866498D01*
X140830261Y-105866510D01*
X140799500Y-106021153D01*
X121200500Y-106021153D01*
X121200500Y-104023615D01*
X144624500Y-104023615D01*
X144624500Y-104176384D01*
X144654300Y-104326197D01*
X144654302Y-104326205D01*
X144712759Y-104467334D01*
X144712764Y-104467343D01*
X144797629Y-104594351D01*
X144797632Y-104594355D01*
X144905644Y-104702367D01*
X144905648Y-104702370D01*
X145032656Y-104787235D01*
X145032662Y-104787238D01*
X145032663Y-104787239D01*
X145173795Y-104845698D01*
X145323615Y-104875499D01*
X145323619Y-104875500D01*
X145323620Y-104875500D01*
X145476381Y-104875500D01*
X145476382Y-104875499D01*
X145626205Y-104845698D01*
X145767337Y-104787239D01*
X145894352Y-104702370D01*
X146002370Y-104594352D01*
X146087239Y-104467337D01*
X146145698Y-104326205D01*
X146175500Y-104176380D01*
X146175500Y-104023620D01*
X146145698Y-103873795D01*
X146100482Y-103764636D01*
X146087240Y-103732665D01*
X146087235Y-103732656D01*
X146002370Y-103605648D01*
X146002367Y-103605644D01*
X145894355Y-103497632D01*
X145894351Y-103497629D01*
X145767343Y-103412764D01*
X145767334Y-103412759D01*
X145626205Y-103354302D01*
X145626197Y-103354300D01*
X145476384Y-103324500D01*
X145476380Y-103324500D01*
X145323620Y-103324500D01*
X145323615Y-103324500D01*
X145173802Y-103354300D01*
X145173794Y-103354302D01*
X145032665Y-103412759D01*
X145032656Y-103412764D01*
X144905648Y-103497629D01*
X144905644Y-103497632D01*
X144797632Y-103605644D01*
X144797629Y-103605648D01*
X144712764Y-103732656D01*
X144712759Y-103732665D01*
X144654302Y-103873794D01*
X144654300Y-103873802D01*
X144624500Y-104023615D01*
X121200500Y-104023615D01*
X121200500Y-102223615D01*
X147874500Y-102223615D01*
X147874500Y-102376384D01*
X147904300Y-102526197D01*
X147904302Y-102526205D01*
X147962759Y-102667334D01*
X147962764Y-102667343D01*
X148047629Y-102794351D01*
X148047632Y-102794355D01*
X148155644Y-102902367D01*
X148155652Y-102902373D01*
X148262135Y-102973523D01*
X148306941Y-103027135D01*
X148315648Y-103096460D01*
X148314862Y-103100816D01*
X148300235Y-103174350D01*
X148300235Y-103327119D01*
X148330035Y-103476932D01*
X148330037Y-103476940D01*
X148388494Y-103618069D01*
X148388499Y-103618078D01*
X148473364Y-103745086D01*
X148473367Y-103745090D01*
X148581379Y-103853102D01*
X148581383Y-103853105D01*
X148708391Y-103937970D01*
X148708397Y-103937973D01*
X148708398Y-103937974D01*
X148849530Y-103996433D01*
X148999350Y-104026234D01*
X148999354Y-104026235D01*
X148999355Y-104026235D01*
X149152116Y-104026235D01*
X149152117Y-104026234D01*
X149301940Y-103996433D01*
X149443072Y-103937974D01*
X149570087Y-103853105D01*
X149678105Y-103745087D01*
X149762974Y-103618072D01*
X149821433Y-103476940D01*
X149851235Y-103327115D01*
X149851235Y-103174355D01*
X149821433Y-103024530D01*
X149770834Y-102902373D01*
X149762975Y-102883400D01*
X149762970Y-102883391D01*
X149678105Y-102756383D01*
X149678102Y-102756379D01*
X149570090Y-102648367D01*
X149570086Y-102648364D01*
X149463598Y-102577211D01*
X149418793Y-102523599D01*
X149410086Y-102454274D01*
X149410866Y-102449949D01*
X149425500Y-102376380D01*
X149425500Y-102223620D01*
X149395698Y-102073795D01*
X149337239Y-101932663D01*
X149337238Y-101932662D01*
X149337235Y-101932656D01*
X149252370Y-101805648D01*
X149252367Y-101805644D01*
X149144355Y-101697632D01*
X149144351Y-101697629D01*
X149017343Y-101612764D01*
X149017334Y-101612759D01*
X148876205Y-101554302D01*
X148876197Y-101554300D01*
X148726384Y-101524500D01*
X148726380Y-101524500D01*
X148573620Y-101524500D01*
X148573615Y-101524500D01*
X148423802Y-101554300D01*
X148423794Y-101554302D01*
X148282665Y-101612759D01*
X148282656Y-101612764D01*
X148155648Y-101697629D01*
X148155644Y-101697632D01*
X148047632Y-101805644D01*
X148047629Y-101805648D01*
X147962764Y-101932656D01*
X147962759Y-101932665D01*
X147904302Y-102073794D01*
X147904300Y-102073802D01*
X147874500Y-102223615D01*
X121200500Y-102223615D01*
X121200500Y-99948615D01*
X129424500Y-99948615D01*
X129424500Y-100101384D01*
X129454300Y-100251197D01*
X129454302Y-100251205D01*
X129512759Y-100392334D01*
X129512764Y-100392343D01*
X129597629Y-100519351D01*
X129597632Y-100519355D01*
X129705644Y-100627367D01*
X129705648Y-100627370D01*
X129832656Y-100712235D01*
X129832662Y-100712238D01*
X129832663Y-100712239D01*
X129973795Y-100770698D01*
X130123615Y-100800499D01*
X130123619Y-100800500D01*
X130123620Y-100800500D01*
X130276381Y-100800500D01*
X130276382Y-100800499D01*
X130426205Y-100770698D01*
X130567337Y-100712239D01*
X130694352Y-100627370D01*
X130802370Y-100519352D01*
X130887239Y-100392337D01*
X130945698Y-100251205D01*
X130975500Y-100101380D01*
X130975500Y-99948620D01*
X130945698Y-99798795D01*
X130887239Y-99657663D01*
X130887238Y-99657662D01*
X130887235Y-99657656D01*
X130802370Y-99530648D01*
X130802367Y-99530644D01*
X130694355Y-99422632D01*
X130694351Y-99422629D01*
X130567343Y-99337764D01*
X130567334Y-99337759D01*
X130426205Y-99279302D01*
X130426197Y-99279300D01*
X130276384Y-99249500D01*
X130276380Y-99249500D01*
X130123620Y-99249500D01*
X130123615Y-99249500D01*
X129973802Y-99279300D01*
X129973794Y-99279302D01*
X129832665Y-99337759D01*
X129832656Y-99337764D01*
X129705648Y-99422629D01*
X129705644Y-99422632D01*
X129597632Y-99530644D01*
X129597629Y-99530648D01*
X129512764Y-99657656D01*
X129512759Y-99657665D01*
X129454302Y-99798794D01*
X129454300Y-99798802D01*
X129424500Y-99948615D01*
X121200500Y-99948615D01*
X121200500Y-98923615D01*
X131179500Y-98923615D01*
X131179500Y-99076384D01*
X131209300Y-99226197D01*
X131209302Y-99226205D01*
X131267759Y-99367334D01*
X131267764Y-99367343D01*
X131352629Y-99494351D01*
X131352632Y-99494355D01*
X131460644Y-99602367D01*
X131460648Y-99602370D01*
X131587656Y-99687235D01*
X131587662Y-99687238D01*
X131587663Y-99687239D01*
X131728795Y-99745698D01*
X131878615Y-99775499D01*
X131878619Y-99775500D01*
X131878620Y-99775500D01*
X132031381Y-99775500D01*
X132031382Y-99775499D01*
X132181205Y-99745698D01*
X132322337Y-99687239D01*
X132449352Y-99602370D01*
X132557370Y-99494352D01*
X132642239Y-99367337D01*
X132700698Y-99226205D01*
X132730500Y-99076380D01*
X132730500Y-98923620D01*
X132700698Y-98773795D01*
X132642239Y-98632663D01*
X132642238Y-98632662D01*
X132642235Y-98632656D01*
X132557370Y-98505648D01*
X132557367Y-98505644D01*
X132449355Y-98397632D01*
X132449351Y-98397629D01*
X132322343Y-98312764D01*
X132322334Y-98312759D01*
X132181205Y-98254302D01*
X132181197Y-98254300D01*
X132031384Y-98224500D01*
X132031380Y-98224500D01*
X131878620Y-98224500D01*
X131878615Y-98224500D01*
X131728802Y-98254300D01*
X131728794Y-98254302D01*
X131587665Y-98312759D01*
X131587656Y-98312764D01*
X131460648Y-98397629D01*
X131460644Y-98397632D01*
X131352632Y-98505644D01*
X131352629Y-98505648D01*
X131267764Y-98632656D01*
X131267759Y-98632665D01*
X131209302Y-98773794D01*
X131209300Y-98773802D01*
X131179500Y-98923615D01*
X121200500Y-98923615D01*
X121200500Y-97171153D01*
X152699500Y-97171153D01*
X152699500Y-97328846D01*
X152730261Y-97483489D01*
X152730264Y-97483501D01*
X152790602Y-97629172D01*
X152790609Y-97629185D01*
X152878210Y-97760288D01*
X152878213Y-97760292D01*
X152989707Y-97871786D01*
X152989711Y-97871789D01*
X153120814Y-97959390D01*
X153120827Y-97959397D01*
X153266498Y-98019735D01*
X153266503Y-98019737D01*
X153421153Y-98050499D01*
X153421156Y-98050500D01*
X153421158Y-98050500D01*
X153578844Y-98050500D01*
X153578845Y-98050499D01*
X153733497Y-98019737D01*
X153879179Y-97959394D01*
X154010289Y-97871789D01*
X154121789Y-97760289D01*
X154209394Y-97629179D01*
X154269737Y-97483497D01*
X154300500Y-97328842D01*
X154300500Y-97171158D01*
X154300500Y-97171155D01*
X154300499Y-97171153D01*
X154269738Y-97016510D01*
X154269737Y-97016503D01*
X154269735Y-97016498D01*
X154209397Y-96870827D01*
X154209390Y-96870814D01*
X154121789Y-96739711D01*
X154121786Y-96739707D01*
X154010292Y-96628213D01*
X154010288Y-96628210D01*
X153879185Y-96540609D01*
X153879172Y-96540602D01*
X153733501Y-96480264D01*
X153733489Y-96480261D01*
X153578845Y-96449500D01*
X153578842Y-96449500D01*
X153421158Y-96449500D01*
X153421155Y-96449500D01*
X153266510Y-96480261D01*
X153266498Y-96480264D01*
X153120827Y-96540602D01*
X153120814Y-96540609D01*
X152989711Y-96628210D01*
X152989707Y-96628213D01*
X152878213Y-96739707D01*
X152878210Y-96739711D01*
X152790609Y-96870814D01*
X152790602Y-96870827D01*
X152730264Y-97016498D01*
X152730261Y-97016510D01*
X152699500Y-97171153D01*
X121200500Y-97171153D01*
X121200500Y-95173615D01*
X128849500Y-95173615D01*
X128849500Y-95326384D01*
X128879300Y-95476197D01*
X128879302Y-95476205D01*
X128937759Y-95617334D01*
X128937764Y-95617343D01*
X129022629Y-95744351D01*
X129022632Y-95744355D01*
X129130644Y-95852367D01*
X129130648Y-95852370D01*
X129257656Y-95937235D01*
X129257662Y-95937238D01*
X129257663Y-95937239D01*
X129398795Y-95995698D01*
X129548615Y-96025499D01*
X129548619Y-96025500D01*
X129548620Y-96025500D01*
X129701381Y-96025500D01*
X129701382Y-96025499D01*
X129851205Y-95995698D01*
X129992337Y-95937239D01*
X130119352Y-95852370D01*
X130223107Y-95748615D01*
X132699500Y-95748615D01*
X132699500Y-95901384D01*
X132729300Y-96051197D01*
X132729302Y-96051205D01*
X132787759Y-96192334D01*
X132787764Y-96192343D01*
X132872629Y-96319351D01*
X132872632Y-96319355D01*
X132980644Y-96427367D01*
X132980648Y-96427370D01*
X133107656Y-96512235D01*
X133107662Y-96512238D01*
X133107663Y-96512239D01*
X133248795Y-96570698D01*
X133398615Y-96600499D01*
X133398619Y-96600500D01*
X133398620Y-96600500D01*
X133551381Y-96600500D01*
X133551382Y-96600499D01*
X133701205Y-96570698D01*
X133842337Y-96512239D01*
X133969352Y-96427370D01*
X134077370Y-96319352D01*
X134162239Y-96192337D01*
X134220698Y-96051205D01*
X134250500Y-95901380D01*
X134250500Y-95748620D01*
X134220698Y-95598795D01*
X134162239Y-95457663D01*
X134162238Y-95457662D01*
X134162235Y-95457656D01*
X134077370Y-95330648D01*
X134077367Y-95330644D01*
X133969355Y-95222632D01*
X133969351Y-95222629D01*
X133842343Y-95137764D01*
X133842334Y-95137759D01*
X133701205Y-95079302D01*
X133701197Y-95079300D01*
X133551384Y-95049500D01*
X133551380Y-95049500D01*
X133398620Y-95049500D01*
X133398615Y-95049500D01*
X133248802Y-95079300D01*
X133248794Y-95079302D01*
X133107665Y-95137759D01*
X133107656Y-95137764D01*
X132980648Y-95222629D01*
X132980644Y-95222632D01*
X132872632Y-95330644D01*
X132872629Y-95330648D01*
X132787764Y-95457656D01*
X132787759Y-95457665D01*
X132729302Y-95598794D01*
X132729300Y-95598802D01*
X132699500Y-95748615D01*
X130223107Y-95748615D01*
X130227370Y-95744352D01*
X130252543Y-95706677D01*
X130274621Y-95673637D01*
X130312235Y-95617343D01*
X130312235Y-95617342D01*
X130312239Y-95617337D01*
X130370698Y-95476205D01*
X130400500Y-95326380D01*
X130400500Y-95173620D01*
X130370698Y-95023795D01*
X130312239Y-94882663D01*
X130312238Y-94882662D01*
X130312235Y-94882656D01*
X130227370Y-94755648D01*
X130227367Y-94755644D01*
X130119355Y-94647632D01*
X130119351Y-94647629D01*
X129992343Y-94562764D01*
X129992334Y-94562759D01*
X129851205Y-94504302D01*
X129851197Y-94504300D01*
X129701384Y-94474500D01*
X129701380Y-94474500D01*
X129548620Y-94474500D01*
X129548615Y-94474500D01*
X129398802Y-94504300D01*
X129398794Y-94504302D01*
X129257665Y-94562759D01*
X129257656Y-94562764D01*
X129130648Y-94647629D01*
X129130644Y-94647632D01*
X129022632Y-94755644D01*
X129022629Y-94755648D01*
X128937764Y-94882656D01*
X128937759Y-94882665D01*
X128879302Y-95023794D01*
X128879300Y-95023802D01*
X128849500Y-95173615D01*
X121200500Y-95173615D01*
X121200500Y-93721153D01*
X154624500Y-93721153D01*
X154624500Y-93878846D01*
X154655261Y-94033494D01*
X154655265Y-94033505D01*
X154657977Y-94040053D01*
X154665443Y-94109523D01*
X154657977Y-94134947D01*
X154655265Y-94141494D01*
X154655261Y-94141505D01*
X154624500Y-94296153D01*
X154624500Y-94453846D01*
X154655261Y-94608489D01*
X154655264Y-94608501D01*
X154715602Y-94754172D01*
X154715609Y-94754185D01*
X154803210Y-94885288D01*
X154803213Y-94885292D01*
X154914707Y-94996786D01*
X154914711Y-94996789D01*
X155045814Y-95084390D01*
X155045827Y-95084397D01*
X155191498Y-95144735D01*
X155191503Y-95144737D01*
X155336682Y-95173615D01*
X155346153Y-95175499D01*
X155346156Y-95175500D01*
X155346158Y-95175500D01*
X155503844Y-95175500D01*
X155503845Y-95175499D01*
X155658497Y-95144737D01*
X155804179Y-95084394D01*
X155935289Y-94996789D01*
X156046789Y-94885289D01*
X156134394Y-94754179D01*
X156194737Y-94608497D01*
X156225500Y-94453842D01*
X156225500Y-94296158D01*
X156225500Y-94296155D01*
X156225499Y-94296153D01*
X156194738Y-94141510D01*
X156194737Y-94141503D01*
X156192024Y-94134954D01*
X156184553Y-94065489D01*
X156192022Y-94040049D01*
X156194737Y-94033497D01*
X156225500Y-93878842D01*
X156225500Y-93721158D01*
X156225500Y-93721155D01*
X156225499Y-93721153D01*
X156194738Y-93566510D01*
X156194737Y-93566503D01*
X156194735Y-93566498D01*
X156134397Y-93420827D01*
X156134393Y-93420820D01*
X156134389Y-93420814D01*
X156101554Y-93371673D01*
X156080677Y-93304997D01*
X156099161Y-93237617D01*
X156116981Y-93215097D01*
X156121789Y-93210289D01*
X156132003Y-93195002D01*
X156209394Y-93079179D01*
X156239467Y-93006572D01*
X156283305Y-92952172D01*
X156306565Y-92939470D01*
X156379179Y-92909394D01*
X156510289Y-92821789D01*
X156621789Y-92710289D01*
X156709394Y-92579179D01*
X156769737Y-92433497D01*
X156800500Y-92278842D01*
X156800500Y-92121158D01*
X156800500Y-92121155D01*
X156800499Y-92121153D01*
X156781648Y-92026383D01*
X156769737Y-91966503D01*
X156762002Y-91947828D01*
X156709397Y-91820827D01*
X156709390Y-91820814D01*
X156621789Y-91689711D01*
X156621786Y-91689707D01*
X156510292Y-91578213D01*
X156510288Y-91578210D01*
X156379185Y-91490609D01*
X156379172Y-91490602D01*
X156233501Y-91430264D01*
X156233489Y-91430261D01*
X156078845Y-91399500D01*
X156078842Y-91399500D01*
X155921158Y-91399500D01*
X155921155Y-91399500D01*
X155766510Y-91430261D01*
X155766498Y-91430264D01*
X155620827Y-91490602D01*
X155620814Y-91490609D01*
X155489711Y-91578210D01*
X155489707Y-91578213D01*
X155378213Y-91689707D01*
X155378210Y-91689711D01*
X155290609Y-91820814D01*
X155290606Y-91820820D01*
X155260532Y-91893425D01*
X155216690Y-91947828D01*
X155193425Y-91960532D01*
X155120820Y-91990606D01*
X155120814Y-91990609D01*
X154989711Y-92078210D01*
X154989707Y-92078213D01*
X154878213Y-92189707D01*
X154878210Y-92189711D01*
X154790609Y-92320814D01*
X154790602Y-92320827D01*
X154730264Y-92466498D01*
X154730261Y-92466510D01*
X154699500Y-92621153D01*
X154699500Y-92778846D01*
X154730261Y-92933489D01*
X154730264Y-92933501D01*
X154790602Y-93079172D01*
X154790609Y-93079185D01*
X154823444Y-93128325D01*
X154844322Y-93195002D01*
X154825838Y-93262382D01*
X154808028Y-93284892D01*
X154803215Y-93289704D01*
X154803210Y-93289711D01*
X154715609Y-93420814D01*
X154715602Y-93420827D01*
X154655264Y-93566498D01*
X154655261Y-93566510D01*
X154624500Y-93721153D01*
X121200500Y-93721153D01*
X121200500Y-91621153D01*
X126299500Y-91621153D01*
X126299500Y-91778846D01*
X126330261Y-91933489D01*
X126330264Y-91933501D01*
X126390602Y-92079172D01*
X126390609Y-92079185D01*
X126478210Y-92210288D01*
X126478213Y-92210292D01*
X126589707Y-92321786D01*
X126589711Y-92321789D01*
X126720814Y-92409390D01*
X126720827Y-92409397D01*
X126858683Y-92466498D01*
X126866503Y-92469737D01*
X127021153Y-92500499D01*
X127021156Y-92500500D01*
X127021158Y-92500500D01*
X127178844Y-92500500D01*
X127178845Y-92500499D01*
X127333497Y-92469737D01*
X127479179Y-92409394D01*
X127610289Y-92321789D01*
X127721789Y-92210289D01*
X127809394Y-92079179D01*
X127869737Y-91933497D01*
X127877708Y-91893425D01*
X127881649Y-91873615D01*
X130299500Y-91873615D01*
X130299500Y-92026384D01*
X130329300Y-92176197D01*
X130329302Y-92176205D01*
X130387759Y-92317334D01*
X130387764Y-92317343D01*
X130472629Y-92444351D01*
X130472632Y-92444355D01*
X130580644Y-92552367D01*
X130580648Y-92552370D01*
X130707656Y-92637235D01*
X130707662Y-92637238D01*
X130707663Y-92637239D01*
X130848795Y-92695698D01*
X130998615Y-92725499D01*
X130998619Y-92725500D01*
X130998620Y-92725500D01*
X131151381Y-92725500D01*
X131151382Y-92725499D01*
X131301205Y-92695698D01*
X131442337Y-92637239D01*
X131569352Y-92552370D01*
X131677370Y-92444352D01*
X131762239Y-92317337D01*
X131820698Y-92176205D01*
X131821703Y-92171153D01*
X138699500Y-92171153D01*
X138699500Y-92328846D01*
X138730261Y-92483489D01*
X138730264Y-92483501D01*
X138790602Y-92629172D01*
X138790609Y-92629185D01*
X138878210Y-92760288D01*
X138878213Y-92760292D01*
X138989707Y-92871786D01*
X138989711Y-92871789D01*
X139120814Y-92959390D01*
X139120827Y-92959397D01*
X139234729Y-93006576D01*
X139266503Y-93019737D01*
X139421153Y-93050499D01*
X139421156Y-93050500D01*
X139421158Y-93050500D01*
X139578844Y-93050500D01*
X139578845Y-93050499D01*
X139733497Y-93019737D01*
X139827550Y-92980778D01*
X139897016Y-92973310D01*
X139922443Y-92980775D01*
X140016503Y-93019737D01*
X140171153Y-93050499D01*
X140171156Y-93050500D01*
X140171158Y-93050500D01*
X140328844Y-93050500D01*
X140328845Y-93050499D01*
X140483497Y-93019737D01*
X140596166Y-92973067D01*
X140629172Y-92959397D01*
X140629172Y-92959396D01*
X140629179Y-92959394D01*
X140760289Y-92871789D01*
X140871789Y-92760289D01*
X140959394Y-92629179D01*
X140962719Y-92621153D01*
X140980102Y-92579185D01*
X141019737Y-92483497D01*
X141050500Y-92328842D01*
X141050500Y-92171158D01*
X141050500Y-92171155D01*
X141050499Y-92171153D01*
X141032204Y-92079179D01*
X141019737Y-92016503D01*
X141019735Y-92016498D01*
X140959397Y-91870827D01*
X140959390Y-91870814D01*
X140871789Y-91739711D01*
X140871786Y-91739707D01*
X140760292Y-91628213D01*
X140760288Y-91628210D01*
X140629185Y-91540609D01*
X140629172Y-91540602D01*
X140483501Y-91480264D01*
X140483489Y-91480261D01*
X140328845Y-91449500D01*
X140328842Y-91449500D01*
X140171158Y-91449500D01*
X140171155Y-91449500D01*
X140016510Y-91480261D01*
X140016498Y-91480264D01*
X139922452Y-91519219D01*
X139852982Y-91526688D01*
X139827548Y-91519219D01*
X139733501Y-91480264D01*
X139733489Y-91480261D01*
X139578845Y-91449500D01*
X139578842Y-91449500D01*
X139421158Y-91449500D01*
X139421155Y-91449500D01*
X139266510Y-91480261D01*
X139266498Y-91480264D01*
X139120827Y-91540602D01*
X139120814Y-91540609D01*
X138989711Y-91628210D01*
X138989707Y-91628213D01*
X138878213Y-91739707D01*
X138878210Y-91739711D01*
X138790609Y-91870814D01*
X138790602Y-91870827D01*
X138730264Y-92016498D01*
X138730261Y-92016510D01*
X138699500Y-92171153D01*
X131821703Y-92171153D01*
X131850500Y-92026380D01*
X131850500Y-91873620D01*
X131820698Y-91723795D01*
X131762239Y-91582663D01*
X131762238Y-91582662D01*
X131762235Y-91582656D01*
X131677370Y-91455648D01*
X131677367Y-91455644D01*
X131569355Y-91347632D01*
X131569351Y-91347629D01*
X131442343Y-91262764D01*
X131442334Y-91262759D01*
X131301205Y-91204302D01*
X131301197Y-91204300D01*
X131151384Y-91174500D01*
X131151380Y-91174500D01*
X130998620Y-91174500D01*
X130998615Y-91174500D01*
X130848802Y-91204300D01*
X130848794Y-91204302D01*
X130707665Y-91262759D01*
X130707656Y-91262764D01*
X130580648Y-91347629D01*
X130580644Y-91347632D01*
X130472632Y-91455644D01*
X130472629Y-91455648D01*
X130387764Y-91582656D01*
X130387759Y-91582665D01*
X130329302Y-91723794D01*
X130329300Y-91723802D01*
X130299500Y-91873615D01*
X127881649Y-91873615D01*
X127887672Y-91843336D01*
X127887672Y-91843335D01*
X127900499Y-91778846D01*
X127900500Y-91778844D01*
X127900500Y-91621155D01*
X127900499Y-91621153D01*
X127891957Y-91578210D01*
X127869737Y-91466503D01*
X127862694Y-91449500D01*
X127809397Y-91320827D01*
X127809390Y-91320814D01*
X127721789Y-91189711D01*
X127721786Y-91189707D01*
X127610292Y-91078213D01*
X127610288Y-91078210D01*
X127479185Y-90990609D01*
X127479172Y-90990602D01*
X127333501Y-90930264D01*
X127333489Y-90930261D01*
X127178845Y-90899500D01*
X127178842Y-90899500D01*
X127021158Y-90899500D01*
X127021155Y-90899500D01*
X126866510Y-90930261D01*
X126866498Y-90930264D01*
X126720827Y-90990602D01*
X126720814Y-90990609D01*
X126589711Y-91078210D01*
X126589707Y-91078213D01*
X126478213Y-91189707D01*
X126478210Y-91189711D01*
X126390609Y-91320814D01*
X126390602Y-91320827D01*
X126330264Y-91466498D01*
X126330261Y-91466510D01*
X126299500Y-91621153D01*
X121200500Y-91621153D01*
X121200500Y-90821153D01*
X151999500Y-90821153D01*
X151999500Y-90978846D01*
X152030261Y-91133489D01*
X152030264Y-91133501D01*
X152090602Y-91279172D01*
X152090609Y-91279185D01*
X152178210Y-91410288D01*
X152178213Y-91410292D01*
X152289707Y-91521786D01*
X152289711Y-91521789D01*
X152420814Y-91609390D01*
X152420827Y-91609397D01*
X152466254Y-91628213D01*
X152566503Y-91669737D01*
X152721153Y-91700499D01*
X152721156Y-91700500D01*
X152721158Y-91700500D01*
X152878844Y-91700500D01*
X152878845Y-91700499D01*
X153033497Y-91669737D01*
X153179179Y-91609394D01*
X153310289Y-91521789D01*
X153421789Y-91410289D01*
X153509394Y-91279179D01*
X153569737Y-91133497D01*
X153600500Y-90978842D01*
X153600500Y-90821158D01*
X153600500Y-90821155D01*
X153600499Y-90821153D01*
X153569738Y-90666510D01*
X153569737Y-90666503D01*
X153569735Y-90666498D01*
X153509397Y-90520827D01*
X153509390Y-90520814D01*
X153421789Y-90389711D01*
X153421786Y-90389707D01*
X153310292Y-90278213D01*
X153310288Y-90278210D01*
X153179185Y-90190609D01*
X153179172Y-90190602D01*
X153033501Y-90130264D01*
X153033489Y-90130261D01*
X152878845Y-90099500D01*
X152878842Y-90099500D01*
X152721158Y-90099500D01*
X152721155Y-90099500D01*
X152566510Y-90130261D01*
X152566498Y-90130264D01*
X152420827Y-90190602D01*
X152420814Y-90190609D01*
X152289711Y-90278210D01*
X152289707Y-90278213D01*
X152178213Y-90389707D01*
X152178210Y-90389711D01*
X152090609Y-90520814D01*
X152090602Y-90520827D01*
X152030264Y-90666498D01*
X152030261Y-90666510D01*
X151999500Y-90821153D01*
X121200500Y-90821153D01*
X121200500Y-89321153D01*
X131599500Y-89321153D01*
X131599500Y-89478846D01*
X131630261Y-89633489D01*
X131630264Y-89633501D01*
X131690602Y-89779172D01*
X131690609Y-89779185D01*
X131778210Y-89910288D01*
X131778213Y-89910292D01*
X131889707Y-90021786D01*
X131889711Y-90021789D01*
X132020814Y-90109390D01*
X132020827Y-90109397D01*
X132166498Y-90169735D01*
X132166503Y-90169737D01*
X132321153Y-90200499D01*
X132321156Y-90200500D01*
X132321158Y-90200500D01*
X132478844Y-90200500D01*
X132478845Y-90200499D01*
X132633497Y-90169737D01*
X132779179Y-90109394D01*
X132910289Y-90021789D01*
X133021789Y-89910289D01*
X133109394Y-89779179D01*
X133169737Y-89633497D01*
X133200500Y-89478842D01*
X133200500Y-89321158D01*
X133200500Y-89321155D01*
X133200499Y-89321153D01*
X133185839Y-89247453D01*
X133169737Y-89166503D01*
X133156062Y-89133488D01*
X133109397Y-89020827D01*
X133109390Y-89020814D01*
X133021790Y-88889712D01*
X133021784Y-88889705D01*
X132953232Y-88821153D01*
X154299500Y-88821153D01*
X154299500Y-88978846D01*
X154330260Y-89133488D01*
X154330262Y-89133493D01*
X154330263Y-89133497D01*
X154338155Y-89152550D01*
X154345623Y-89222018D01*
X154338156Y-89247446D01*
X154330263Y-89266503D01*
X154330262Y-89266506D01*
X154330260Y-89266511D01*
X154299500Y-89421153D01*
X154299500Y-89578846D01*
X154330261Y-89733489D01*
X154330264Y-89733501D01*
X154390602Y-89879172D01*
X154390609Y-89879185D01*
X154478210Y-90010288D01*
X154478213Y-90010292D01*
X154589707Y-90121786D01*
X154589711Y-90121789D01*
X154720814Y-90209390D01*
X154720827Y-90209397D01*
X154829420Y-90254377D01*
X154866503Y-90269737D01*
X155021153Y-90300499D01*
X155021156Y-90300500D01*
X155021158Y-90300500D01*
X155178844Y-90300500D01*
X155178845Y-90300499D01*
X155333497Y-90269737D01*
X155479179Y-90209394D01*
X155610289Y-90121789D01*
X155721789Y-90010289D01*
X155809394Y-89879179D01*
X155869737Y-89733497D01*
X155878383Y-89690033D01*
X155910768Y-89628122D01*
X155971483Y-89593548D01*
X156041253Y-89597287D01*
X156097925Y-89638154D01*
X156121617Y-89690033D01*
X156130261Y-89733489D01*
X156130264Y-89733501D01*
X156190602Y-89879172D01*
X156190609Y-89879185D01*
X156278210Y-90010288D01*
X156278213Y-90010292D01*
X156389707Y-90121786D01*
X156389711Y-90121789D01*
X156520814Y-90209390D01*
X156520827Y-90209397D01*
X156629420Y-90254377D01*
X156666503Y-90269737D01*
X156821153Y-90300499D01*
X156821156Y-90300500D01*
X156821158Y-90300500D01*
X156978844Y-90300500D01*
X156978845Y-90300499D01*
X157133497Y-90269737D01*
X157152547Y-90261845D01*
X157222016Y-90254377D01*
X157247452Y-90261845D01*
X157266503Y-90269737D01*
X157421153Y-90300499D01*
X157421156Y-90300500D01*
X157421158Y-90300500D01*
X157578844Y-90300500D01*
X157578845Y-90300499D01*
X157733497Y-90269737D01*
X157879179Y-90209394D01*
X158010289Y-90121789D01*
X158121789Y-90010289D01*
X158209394Y-89879179D01*
X158269737Y-89733497D01*
X158300500Y-89578842D01*
X158300500Y-89421158D01*
X158300500Y-89421155D01*
X158300499Y-89421153D01*
X158269737Y-89266503D01*
X158261845Y-89247452D01*
X158254377Y-89177984D01*
X158261846Y-89152547D01*
X158269737Y-89133497D01*
X158300500Y-88978842D01*
X158300500Y-88821158D01*
X158300500Y-88821155D01*
X158300499Y-88821153D01*
X158291957Y-88778210D01*
X158269737Y-88666503D01*
X158269735Y-88666498D01*
X158209397Y-88520827D01*
X158209390Y-88520814D01*
X158121789Y-88389711D01*
X158121786Y-88389707D01*
X158010292Y-88278213D01*
X158010288Y-88278210D01*
X157879185Y-88190609D01*
X157879172Y-88190602D01*
X157733501Y-88130264D01*
X157733489Y-88130261D01*
X157578845Y-88099500D01*
X157578842Y-88099500D01*
X157421158Y-88099500D01*
X157421155Y-88099500D01*
X157266511Y-88130260D01*
X157266506Y-88130262D01*
X157266504Y-88130262D01*
X157266503Y-88130263D01*
X157247449Y-88138155D01*
X157177982Y-88145623D01*
X157152553Y-88138156D01*
X157133497Y-88130263D01*
X157133493Y-88130262D01*
X157133488Y-88130260D01*
X156978845Y-88099500D01*
X156978842Y-88099500D01*
X156821158Y-88099500D01*
X156821155Y-88099500D01*
X156666510Y-88130261D01*
X156666498Y-88130264D01*
X156520827Y-88190602D01*
X156520814Y-88190609D01*
X156389711Y-88278210D01*
X156389707Y-88278213D01*
X156278213Y-88389707D01*
X156278210Y-88389711D01*
X156190609Y-88520814D01*
X156190602Y-88520827D01*
X156130264Y-88666498D01*
X156130261Y-88666508D01*
X156121617Y-88709967D01*
X156089232Y-88771878D01*
X156028516Y-88806452D01*
X155958747Y-88802712D01*
X155902075Y-88761845D01*
X155878383Y-88709967D01*
X155869738Y-88666508D01*
X155869737Y-88666507D01*
X155869737Y-88666503D01*
X155869735Y-88666498D01*
X155809397Y-88520827D01*
X155809390Y-88520814D01*
X155721789Y-88389711D01*
X155721786Y-88389707D01*
X155610292Y-88278213D01*
X155610288Y-88278210D01*
X155479185Y-88190609D01*
X155479172Y-88190602D01*
X155333501Y-88130264D01*
X155333489Y-88130261D01*
X155178845Y-88099500D01*
X155178842Y-88099500D01*
X155021158Y-88099500D01*
X155021155Y-88099500D01*
X154866510Y-88130261D01*
X154866498Y-88130264D01*
X154720827Y-88190602D01*
X154720814Y-88190609D01*
X154589711Y-88278210D01*
X154589707Y-88278213D01*
X154478213Y-88389707D01*
X154478210Y-88389711D01*
X154390609Y-88520814D01*
X154390602Y-88520827D01*
X154330264Y-88666498D01*
X154330261Y-88666510D01*
X154299500Y-88821153D01*
X132953232Y-88821153D01*
X132910292Y-88778213D01*
X132910288Y-88778210D01*
X132779185Y-88690609D01*
X132779172Y-88690602D01*
X132633501Y-88630264D01*
X132633489Y-88630261D01*
X132478845Y-88599500D01*
X132478842Y-88599500D01*
X132321158Y-88599500D01*
X132321155Y-88599500D01*
X132166510Y-88630261D01*
X132166498Y-88630264D01*
X132020827Y-88690602D01*
X132020814Y-88690609D01*
X131889711Y-88778210D01*
X131889707Y-88778213D01*
X131778213Y-88889707D01*
X131778210Y-88889711D01*
X131690609Y-89020814D01*
X131690602Y-89020827D01*
X131630264Y-89166498D01*
X131630261Y-89166510D01*
X131599500Y-89321153D01*
X121200500Y-89321153D01*
X121200500Y-86281153D01*
X133859500Y-86281153D01*
X133859500Y-86438846D01*
X133890261Y-86593489D01*
X133890264Y-86593501D01*
X133950602Y-86739172D01*
X133950609Y-86739185D01*
X134038210Y-86870288D01*
X134038213Y-86870292D01*
X134149707Y-86981786D01*
X134149711Y-86981789D01*
X134280814Y-87069390D01*
X134280827Y-87069397D01*
X134422271Y-87127984D01*
X134426503Y-87129737D01*
X134581153Y-87160499D01*
X134581156Y-87160500D01*
X134581158Y-87160500D01*
X134738844Y-87160500D01*
X134738845Y-87160499D01*
X134893497Y-87129737D01*
X135039179Y-87069394D01*
X135170289Y-86981789D01*
X135281789Y-86870289D01*
X135369394Y-86739179D01*
X135376859Y-86721158D01*
X135429735Y-86593501D01*
X135429737Y-86593497D01*
X135460500Y-86438842D01*
X135460500Y-86281158D01*
X135460500Y-86281155D01*
X135460499Y-86281153D01*
X135429737Y-86126503D01*
X135386100Y-86021153D01*
X135369397Y-85980827D01*
X135369390Y-85980814D01*
X135281789Y-85849711D01*
X135281786Y-85849707D01*
X135170292Y-85738213D01*
X135170288Y-85738210D01*
X135039185Y-85650609D01*
X135039172Y-85650602D01*
X134893501Y-85590264D01*
X134893489Y-85590261D01*
X134738845Y-85559500D01*
X134738842Y-85559500D01*
X134581158Y-85559500D01*
X134581155Y-85559500D01*
X134426510Y-85590261D01*
X134426498Y-85590264D01*
X134280827Y-85650602D01*
X134280814Y-85650609D01*
X134149711Y-85738210D01*
X134149707Y-85738213D01*
X134038213Y-85849707D01*
X134038210Y-85849711D01*
X133950609Y-85980814D01*
X133950602Y-85980827D01*
X133890264Y-86126498D01*
X133890261Y-86126510D01*
X133859500Y-86281153D01*
X121200500Y-86281153D01*
X121200500Y-84621153D01*
X134699500Y-84621153D01*
X134699500Y-84778846D01*
X134730261Y-84933489D01*
X134730264Y-84933501D01*
X134790602Y-85079172D01*
X134790609Y-85079185D01*
X134878210Y-85210288D01*
X134878213Y-85210292D01*
X134989707Y-85321786D01*
X134989711Y-85321789D01*
X135120814Y-85409390D01*
X135120827Y-85409397D01*
X135266498Y-85469735D01*
X135266503Y-85469737D01*
X135421153Y-85500499D01*
X135421156Y-85500500D01*
X135421158Y-85500500D01*
X135578844Y-85500500D01*
X135578845Y-85500499D01*
X135733497Y-85469737D01*
X135879179Y-85409394D01*
X136010289Y-85321789D01*
X136010925Y-85321153D01*
X146424500Y-85321153D01*
X146424500Y-85478846D01*
X146455260Y-85633488D01*
X146455262Y-85633493D01*
X146455263Y-85633497D01*
X146462350Y-85650606D01*
X146483865Y-85702549D01*
X146491333Y-85772018D01*
X146483865Y-85797447D01*
X146455263Y-85866503D01*
X146455262Y-85866506D01*
X146455260Y-85866511D01*
X146424500Y-86021153D01*
X146424500Y-86178846D01*
X146455260Y-86333488D01*
X146455262Y-86333493D01*
X146455263Y-86333497D01*
X146483864Y-86402547D01*
X146483865Y-86402549D01*
X146491333Y-86472018D01*
X146483865Y-86497447D01*
X146455263Y-86566503D01*
X146455262Y-86566506D01*
X146455260Y-86566511D01*
X146424500Y-86721153D01*
X146424500Y-86878846D01*
X146455260Y-87033488D01*
X146455262Y-87033493D01*
X146455263Y-87033497D01*
X146470132Y-87069394D01*
X146483865Y-87102549D01*
X146491333Y-87172018D01*
X146483865Y-87197447D01*
X146455263Y-87266503D01*
X146455262Y-87266506D01*
X146455260Y-87266511D01*
X146424500Y-87421153D01*
X146424500Y-87578846D01*
X146455261Y-87733489D01*
X146455264Y-87733501D01*
X146515602Y-87879172D01*
X146515609Y-87879185D01*
X146603210Y-88010288D01*
X146603213Y-88010292D01*
X146714707Y-88121786D01*
X146714711Y-88121789D01*
X146845814Y-88209390D01*
X146845827Y-88209397D01*
X146991498Y-88269735D01*
X146991503Y-88269737D01*
X147146153Y-88300499D01*
X147146156Y-88300500D01*
X147146158Y-88300500D01*
X147303844Y-88300500D01*
X147303845Y-88300499D01*
X147458497Y-88269737D01*
X147604179Y-88209394D01*
X147735289Y-88121789D01*
X147846789Y-88010289D01*
X147934394Y-87879179D01*
X147994737Y-87733497D01*
X148025500Y-87578842D01*
X148025500Y-87421158D01*
X148025500Y-87421155D01*
X148025499Y-87421153D01*
X147994737Y-87266503D01*
X147966134Y-87197450D01*
X147958666Y-87127984D01*
X147966133Y-87102552D01*
X147994737Y-87033497D01*
X148025500Y-86878842D01*
X148025500Y-86721158D01*
X148025500Y-86721155D01*
X148025499Y-86721153D01*
X148000105Y-86593489D01*
X147994737Y-86566503D01*
X147966134Y-86497450D01*
X147958666Y-86427984D01*
X147966133Y-86402552D01*
X147994737Y-86333497D01*
X148025500Y-86178842D01*
X148025500Y-86021158D01*
X148025500Y-86021155D01*
X148025499Y-86021153D01*
X148017475Y-85980814D01*
X147994737Y-85866503D01*
X147966134Y-85797450D01*
X147958666Y-85727984D01*
X147966133Y-85702552D01*
X147994737Y-85633497D01*
X148025500Y-85478842D01*
X148025500Y-85321158D01*
X148025500Y-85321155D01*
X148025499Y-85321153D01*
X148003447Y-85210292D01*
X147994737Y-85166503D01*
X147958569Y-85079185D01*
X147934397Y-85020827D01*
X147934390Y-85020814D01*
X147846789Y-84889711D01*
X147846786Y-84889707D01*
X147735292Y-84778213D01*
X147735288Y-84778210D01*
X147604185Y-84690609D01*
X147604172Y-84690602D01*
X147458501Y-84630264D01*
X147458489Y-84630261D01*
X147303845Y-84599500D01*
X147303842Y-84599500D01*
X147146158Y-84599500D01*
X147146155Y-84599500D01*
X146991510Y-84630261D01*
X146991498Y-84630264D01*
X146845827Y-84690602D01*
X146845814Y-84690609D01*
X146714711Y-84778210D01*
X146714707Y-84778213D01*
X146603213Y-84889707D01*
X146603210Y-84889711D01*
X146515609Y-85020814D01*
X146515602Y-85020827D01*
X146455264Y-85166498D01*
X146455261Y-85166510D01*
X146424500Y-85321153D01*
X136010925Y-85321153D01*
X136104694Y-85227385D01*
X136121786Y-85210292D01*
X136121789Y-85210289D01*
X136209394Y-85079179D01*
X136269737Y-84933497D01*
X136300500Y-84778842D01*
X136300500Y-84621158D01*
X136300500Y-84621155D01*
X136300499Y-84621153D01*
X136294021Y-84588585D01*
X136269737Y-84466503D01*
X136259023Y-84440636D01*
X136209397Y-84320827D01*
X136209390Y-84320814D01*
X136121789Y-84189711D01*
X136121786Y-84189707D01*
X136010292Y-84078213D01*
X136010288Y-84078210D01*
X135879185Y-83990609D01*
X135879172Y-83990602D01*
X135733501Y-83930264D01*
X135733489Y-83930261D01*
X135578845Y-83899500D01*
X135578842Y-83899500D01*
X135421158Y-83899500D01*
X135421155Y-83899500D01*
X135266510Y-83930261D01*
X135266498Y-83930264D01*
X135120827Y-83990602D01*
X135120814Y-83990609D01*
X134989711Y-84078210D01*
X134989707Y-84078213D01*
X134878213Y-84189707D01*
X134878210Y-84189711D01*
X134790609Y-84320814D01*
X134790602Y-84320827D01*
X134730264Y-84466498D01*
X134730261Y-84466510D01*
X134699500Y-84621153D01*
X121200500Y-84621153D01*
X121200500Y-82340000D01*
X124489500Y-82340000D01*
X124489500Y-82497693D01*
X124520260Y-82652335D01*
X124520262Y-82652340D01*
X124520263Y-82652344D01*
X124548629Y-82720827D01*
X124548865Y-82721396D01*
X124556333Y-82790865D01*
X124548865Y-82816294D01*
X124520263Y-82885350D01*
X124520262Y-82885353D01*
X124520260Y-82885358D01*
X124489500Y-83040000D01*
X124489500Y-83197693D01*
X124520260Y-83352335D01*
X124520262Y-83352340D01*
X124520263Y-83352344D01*
X124548864Y-83421394D01*
X124548865Y-83421396D01*
X124556333Y-83490865D01*
X124548865Y-83516294D01*
X124520263Y-83585350D01*
X124520262Y-83585353D01*
X124520260Y-83585358D01*
X124489500Y-83740000D01*
X124489500Y-83897693D01*
X124520261Y-84052336D01*
X124520264Y-84052348D01*
X124580602Y-84198019D01*
X124580609Y-84198032D01*
X124668210Y-84329135D01*
X124668213Y-84329139D01*
X124779707Y-84440633D01*
X124779711Y-84440636D01*
X124910814Y-84528237D01*
X124910827Y-84528244D01*
X125056498Y-84588582D01*
X125056503Y-84588584D01*
X125211153Y-84619346D01*
X125211156Y-84619347D01*
X125211158Y-84619347D01*
X125368844Y-84619347D01*
X125368845Y-84619346D01*
X125523497Y-84588584D01*
X125592549Y-84559981D01*
X125662016Y-84552513D01*
X125687447Y-84559980D01*
X125756503Y-84588584D01*
X125911153Y-84619346D01*
X125911156Y-84619347D01*
X125911158Y-84619347D01*
X126068844Y-84619347D01*
X126068845Y-84619346D01*
X126223497Y-84588584D01*
X126369179Y-84528241D01*
X126369185Y-84528237D01*
X126393540Y-84511964D01*
X126461576Y-84466503D01*
X126500289Y-84440636D01*
X126611789Y-84329136D01*
X126699394Y-84198026D01*
X126759737Y-84052344D01*
X126790500Y-83897689D01*
X126790500Y-83740005D01*
X126790500Y-83740002D01*
X126790499Y-83740000D01*
X126764698Y-83610292D01*
X126759737Y-83585350D01*
X126731134Y-83516297D01*
X126723666Y-83446831D01*
X126731133Y-83421399D01*
X126759737Y-83352344D01*
X126790500Y-83197689D01*
X126790500Y-83040005D01*
X126790351Y-83039255D01*
X126790351Y-83039253D01*
X126786751Y-83021153D01*
X130399500Y-83021153D01*
X130399500Y-83178846D01*
X130430261Y-83333489D01*
X130430264Y-83333501D01*
X130490602Y-83479172D01*
X130490609Y-83479185D01*
X130578210Y-83610288D01*
X130578213Y-83610292D01*
X130689709Y-83721788D01*
X130820814Y-83809390D01*
X130820827Y-83809397D01*
X130966498Y-83869735D01*
X130966503Y-83869737D01*
X131116131Y-83899500D01*
X131121153Y-83900499D01*
X131121156Y-83900500D01*
X131121158Y-83900500D01*
X131278844Y-83900500D01*
X131278845Y-83900499D01*
X131433497Y-83869737D01*
X131579179Y-83809394D01*
X131683027Y-83740005D01*
X131710291Y-83721788D01*
X131710292Y-83721786D01*
X131821786Y-83610292D01*
X131821789Y-83610289D01*
X131909394Y-83479179D01*
X131969737Y-83333497D01*
X132000500Y-83178842D01*
X132000500Y-83021158D01*
X132000500Y-83021155D01*
X132000499Y-83021153D01*
X131969737Y-82866503D01*
X131969735Y-82866498D01*
X131909397Y-82720827D01*
X131909390Y-82720814D01*
X131821789Y-82589711D01*
X131821786Y-82589707D01*
X131710292Y-82478213D01*
X131710288Y-82478210D01*
X131579185Y-82390609D01*
X131579172Y-82390602D01*
X131433501Y-82330264D01*
X131433489Y-82330261D01*
X131278845Y-82299500D01*
X131278842Y-82299500D01*
X131121158Y-82299500D01*
X131121155Y-82299500D01*
X130966510Y-82330261D01*
X130966498Y-82330264D01*
X130820827Y-82390602D01*
X130820814Y-82390609D01*
X130689711Y-82478210D01*
X130689707Y-82478213D01*
X130578213Y-82589707D01*
X130578210Y-82589711D01*
X130490609Y-82720814D01*
X130490602Y-82720827D01*
X130430264Y-82866498D01*
X130430261Y-82866510D01*
X130399500Y-83021153D01*
X126786751Y-83021153D01*
X126759738Y-82885355D01*
X126759737Y-82885354D01*
X126759737Y-82885350D01*
X126731134Y-82816297D01*
X126723666Y-82746831D01*
X126731133Y-82721399D01*
X126759737Y-82652344D01*
X126790500Y-82497689D01*
X126790500Y-82340005D01*
X126790500Y-82340002D01*
X126790499Y-82340000D01*
X126759738Y-82185357D01*
X126759737Y-82185350D01*
X126759735Y-82185345D01*
X126699397Y-82039674D01*
X126699390Y-82039661D01*
X126611789Y-81908558D01*
X126611786Y-81908554D01*
X126500292Y-81797060D01*
X126500288Y-81797057D01*
X126369185Y-81709456D01*
X126369172Y-81709449D01*
X126223501Y-81649111D01*
X126223489Y-81649108D01*
X126068845Y-81618347D01*
X126068842Y-81618347D01*
X125911158Y-81618347D01*
X125911155Y-81618347D01*
X125756511Y-81649107D01*
X125756506Y-81649109D01*
X125756504Y-81649109D01*
X125756503Y-81649110D01*
X125687449Y-81677712D01*
X125617982Y-81685180D01*
X125592552Y-81677712D01*
X125523497Y-81649110D01*
X125523493Y-81649109D01*
X125523488Y-81649107D01*
X125368845Y-81618347D01*
X125368842Y-81618347D01*
X125211158Y-81618347D01*
X125211155Y-81618347D01*
X125056510Y-81649108D01*
X125056498Y-81649111D01*
X124910827Y-81709449D01*
X124910814Y-81709456D01*
X124779711Y-81797057D01*
X124779707Y-81797060D01*
X124668213Y-81908554D01*
X124668210Y-81908558D01*
X124580609Y-82039661D01*
X124580602Y-82039674D01*
X124520264Y-82185345D01*
X124520261Y-82185357D01*
X124489500Y-82340000D01*
X121200500Y-82340000D01*
X121200500Y-79157029D01*
X146663624Y-79157029D01*
X146663624Y-79314722D01*
X146694385Y-79469365D01*
X146694388Y-79469377D01*
X146754726Y-79615048D01*
X146754733Y-79615061D01*
X146842334Y-79746164D01*
X146842337Y-79746168D01*
X146953831Y-79857662D01*
X146953835Y-79857665D01*
X147084938Y-79945266D01*
X147084951Y-79945273D01*
X147230622Y-80005611D01*
X147230627Y-80005613D01*
X147385277Y-80036375D01*
X147385280Y-80036376D01*
X147385282Y-80036376D01*
X147542968Y-80036376D01*
X147542969Y-80036375D01*
X147697621Y-80005613D01*
X147843303Y-79945270D01*
X147974413Y-79857665D01*
X148085913Y-79746165D01*
X148173518Y-79615055D01*
X148233861Y-79469373D01*
X148264624Y-79314718D01*
X148264624Y-79157034D01*
X148264624Y-79157031D01*
X148237130Y-79018815D01*
X148243357Y-78949223D01*
X148286220Y-78894046D01*
X148352109Y-78870801D01*
X148382936Y-78873005D01*
X148433643Y-78883092D01*
X148521155Y-78900500D01*
X148521158Y-78900500D01*
X148678844Y-78900500D01*
X148678845Y-78900499D01*
X148833497Y-78869737D01*
X148979179Y-78809394D01*
X149110289Y-78721789D01*
X149221789Y-78610289D01*
X149309394Y-78479179D01*
X149369737Y-78333497D01*
X149400500Y-78178842D01*
X149400500Y-78021158D01*
X149400500Y-78021155D01*
X149400499Y-78021153D01*
X149369737Y-77866503D01*
X149364300Y-77853376D01*
X149309397Y-77720827D01*
X149309390Y-77720814D01*
X149221789Y-77589711D01*
X149221786Y-77589707D01*
X149110292Y-77478213D01*
X149110288Y-77478210D01*
X148979185Y-77390609D01*
X148979172Y-77390602D01*
X148833501Y-77330264D01*
X148833489Y-77330261D01*
X148678845Y-77299500D01*
X148678842Y-77299500D01*
X148521158Y-77299500D01*
X148521155Y-77299500D01*
X148366510Y-77330261D01*
X148366498Y-77330264D01*
X148220827Y-77390602D01*
X148220814Y-77390609D01*
X148089711Y-77478210D01*
X148089707Y-77478213D01*
X147978213Y-77589707D01*
X147978210Y-77589711D01*
X147890609Y-77720814D01*
X147890602Y-77720827D01*
X147830264Y-77866498D01*
X147830261Y-77866510D01*
X147799500Y-78021153D01*
X147799500Y-78178846D01*
X147826993Y-78317061D01*
X147820766Y-78386652D01*
X147777903Y-78441830D01*
X147712013Y-78465074D01*
X147681185Y-78462869D01*
X147542969Y-78435376D01*
X147542966Y-78435376D01*
X147385282Y-78435376D01*
X147385279Y-78435376D01*
X147230634Y-78466137D01*
X147230622Y-78466140D01*
X147084951Y-78526478D01*
X147084938Y-78526485D01*
X146953835Y-78614086D01*
X146953831Y-78614089D01*
X146842337Y-78725583D01*
X146842334Y-78725587D01*
X146754733Y-78856690D01*
X146754726Y-78856703D01*
X146694388Y-79002374D01*
X146694385Y-79002386D01*
X146663624Y-79157029D01*
X121200500Y-79157029D01*
X121200500Y-74987778D01*
X128447500Y-74987778D01*
X128447500Y-75208221D01*
X128481985Y-75425952D01*
X128550103Y-75635603D01*
X128550104Y-75635606D01*
X128576887Y-75688169D01*
X128650184Y-75832021D01*
X128650187Y-75832025D01*
X128779752Y-76010358D01*
X128779756Y-76010363D01*
X128935636Y-76166243D01*
X128935641Y-76166247D01*
X129091192Y-76279260D01*
X129113978Y-76295815D01*
X129242375Y-76361237D01*
X129310393Y-76395895D01*
X129310396Y-76395896D01*
X129415221Y-76429955D01*
X129520049Y-76464015D01*
X129737778Y-76498500D01*
X129737779Y-76498500D01*
X129958221Y-76498500D01*
X129958222Y-76498500D01*
X130175951Y-76464015D01*
X130385606Y-76395895D01*
X130582022Y-76295815D01*
X130760365Y-76166242D01*
X130916242Y-76010365D01*
X131010496Y-75880635D01*
X134262000Y-75880635D01*
X134262000Y-77851370D01*
X134262001Y-77851376D01*
X134268408Y-77910983D01*
X134318702Y-78045828D01*
X134318706Y-78045835D01*
X134404952Y-78161044D01*
X134404955Y-78161047D01*
X134520164Y-78247293D01*
X134520171Y-78247297D01*
X134655017Y-78297591D01*
X134655016Y-78297591D01*
X134661944Y-78298335D01*
X134714627Y-78304000D01*
X136685372Y-78303999D01*
X136744983Y-78297591D01*
X136879831Y-78247296D01*
X136995046Y-78161046D01*
X137081296Y-78045831D01*
X137131591Y-77910983D01*
X137138000Y-77851373D01*
X137137999Y-76752821D01*
X137798000Y-76752821D01*
X137798000Y-76979178D01*
X137833407Y-77202733D01*
X137903354Y-77418005D01*
X137990842Y-77589707D01*
X138006112Y-77619676D01*
X138139155Y-77802794D01*
X138299206Y-77962845D01*
X138482324Y-78095888D01*
X138577605Y-78144436D01*
X138683994Y-78198645D01*
X138683996Y-78198645D01*
X138683999Y-78198647D01*
X138799388Y-78236139D01*
X138899266Y-78268592D01*
X139122822Y-78304000D01*
X139122827Y-78304000D01*
X139349178Y-78304000D01*
X139572733Y-78268592D01*
X139788001Y-78198647D01*
X139989676Y-78095888D01*
X140172794Y-77962845D01*
X140332845Y-77802794D01*
X140465888Y-77619676D01*
X140568647Y-77418001D01*
X140638592Y-77202733D01*
X140674000Y-76979178D01*
X140674000Y-76752821D01*
X140638592Y-76529266D01*
X140595907Y-76397896D01*
X140568647Y-76313999D01*
X140568645Y-76313996D01*
X140568645Y-76313994D01*
X140466907Y-76114324D01*
X140465888Y-76112324D01*
X140332845Y-75929206D01*
X140172794Y-75769155D01*
X139989676Y-75636112D01*
X139988677Y-75635603D01*
X139788005Y-75533354D01*
X139572733Y-75463407D01*
X139349178Y-75428000D01*
X139349173Y-75428000D01*
X139122827Y-75428000D01*
X139122822Y-75428000D01*
X138899266Y-75463407D01*
X138683994Y-75533354D01*
X138482323Y-75636112D01*
X138299203Y-75769157D01*
X138139157Y-75929203D01*
X138006112Y-76112323D01*
X137903354Y-76313994D01*
X137833407Y-76529266D01*
X137798000Y-76752821D01*
X137137999Y-76752821D01*
X137137999Y-75880628D01*
X137131806Y-75823013D01*
X137131591Y-75821016D01*
X137081297Y-75686171D01*
X137081293Y-75686164D01*
X136995047Y-75570955D01*
X136995044Y-75570952D01*
X136879835Y-75484706D01*
X136879828Y-75484702D01*
X136744982Y-75434408D01*
X136744983Y-75434408D01*
X136685383Y-75428001D01*
X136685381Y-75428000D01*
X136685373Y-75428000D01*
X136685364Y-75428000D01*
X134714629Y-75428000D01*
X134714623Y-75428001D01*
X134655016Y-75434408D01*
X134520171Y-75484702D01*
X134520164Y-75484706D01*
X134404955Y-75570952D01*
X134404952Y-75570955D01*
X134318706Y-75686164D01*
X134318702Y-75686171D01*
X134268410Y-75821013D01*
X134268408Y-75821016D01*
X134267010Y-75834025D01*
X134262001Y-75880623D01*
X134262000Y-75880635D01*
X131010496Y-75880635D01*
X131045815Y-75832022D01*
X131045816Y-75832021D01*
X131051425Y-75821013D01*
X131051425Y-75821012D01*
X131051426Y-75821010D01*
X131145893Y-75635611D01*
X131145896Y-75635603D01*
X131166251Y-75572955D01*
X131214015Y-75425951D01*
X131248500Y-75208222D01*
X131248500Y-74987778D01*
X143687500Y-74987778D01*
X143687500Y-75208221D01*
X143721985Y-75425952D01*
X143790103Y-75635603D01*
X143790104Y-75635606D01*
X143816887Y-75688169D01*
X143890184Y-75832021D01*
X143890187Y-75832025D01*
X144019752Y-76010358D01*
X144019756Y-76010363D01*
X144175636Y-76166243D01*
X144175641Y-76166247D01*
X144331192Y-76279260D01*
X144353978Y-76295815D01*
X144482375Y-76361237D01*
X144550393Y-76395895D01*
X144550396Y-76395896D01*
X144655221Y-76429955D01*
X144760049Y-76464015D01*
X144977778Y-76498500D01*
X144977779Y-76498500D01*
X145198221Y-76498500D01*
X145198222Y-76498500D01*
X145415951Y-76464015D01*
X145625606Y-76395895D01*
X145822022Y-76295815D01*
X146000365Y-76166242D01*
X146156242Y-76010365D01*
X146285815Y-75832022D01*
X146385895Y-75635606D01*
X146454015Y-75425951D01*
X146488500Y-75208222D01*
X146488500Y-74989778D01*
X149499500Y-74989778D01*
X149499500Y-75210221D01*
X149533985Y-75427952D01*
X149602103Y-75637603D01*
X149602104Y-75637606D01*
X149627868Y-75688169D01*
X149702184Y-75834021D01*
X149702187Y-75834025D01*
X149831752Y-76012358D01*
X149831756Y-76012363D01*
X149987636Y-76168243D01*
X149987641Y-76168247D01*
X150143192Y-76281260D01*
X150165978Y-76297815D01*
X150294375Y-76363237D01*
X150362393Y-76397895D01*
X150362396Y-76397896D01*
X150467221Y-76431955D01*
X150572049Y-76466015D01*
X150789778Y-76500500D01*
X150789779Y-76500500D01*
X151010221Y-76500500D01*
X151010222Y-76500500D01*
X151227951Y-76466015D01*
X151437606Y-76397895D01*
X151634022Y-76297815D01*
X151812365Y-76168242D01*
X151968242Y-76012365D01*
X152062496Y-75882635D01*
X155314000Y-75882635D01*
X155314000Y-77853370D01*
X155314001Y-77853376D01*
X155320408Y-77912983D01*
X155370702Y-78047828D01*
X155370706Y-78047835D01*
X155456952Y-78163044D01*
X155456955Y-78163047D01*
X155572164Y-78249293D01*
X155572171Y-78249297D01*
X155707017Y-78299591D01*
X155707016Y-78299591D01*
X155713944Y-78300335D01*
X155766627Y-78306000D01*
X157737372Y-78305999D01*
X157796983Y-78299591D01*
X157931831Y-78249296D01*
X158047046Y-78163046D01*
X158133296Y-78047831D01*
X158183591Y-77912983D01*
X158190000Y-77853373D01*
X158189999Y-76754821D01*
X158850000Y-76754821D01*
X158850000Y-76981178D01*
X158885407Y-77204733D01*
X158955354Y-77420005D01*
X159041823Y-77589707D01*
X159058112Y-77621676D01*
X159191155Y-77804794D01*
X159351206Y-77964845D01*
X159534324Y-78097888D01*
X159629605Y-78146436D01*
X159735994Y-78200645D01*
X159735996Y-78200645D01*
X159735999Y-78200647D01*
X159851388Y-78238139D01*
X159951266Y-78270592D01*
X160174822Y-78306000D01*
X160174827Y-78306000D01*
X160401178Y-78306000D01*
X160624733Y-78270592D01*
X160630888Y-78268592D01*
X160840001Y-78200647D01*
X161041676Y-78097888D01*
X161224794Y-77964845D01*
X161384845Y-77804794D01*
X161517888Y-77621676D01*
X161620647Y-77420001D01*
X161690592Y-77204733D01*
X161690909Y-77202733D01*
X161726000Y-76981178D01*
X161726000Y-76754821D01*
X161690592Y-76531266D01*
X161620645Y-76315994D01*
X161544342Y-76166243D01*
X161517888Y-76114324D01*
X161384845Y-75931206D01*
X161224794Y-75771155D01*
X161041676Y-75638112D01*
X161036752Y-75635603D01*
X160840005Y-75535354D01*
X160624733Y-75465407D01*
X160401178Y-75430000D01*
X160401173Y-75430000D01*
X160174827Y-75430000D01*
X160174822Y-75430000D01*
X159951266Y-75465407D01*
X159735994Y-75535354D01*
X159534323Y-75638112D01*
X159351203Y-75771157D01*
X159191157Y-75931203D01*
X159058112Y-76114323D01*
X158955354Y-76315994D01*
X158885407Y-76531266D01*
X158850000Y-76754821D01*
X158189999Y-76754821D01*
X158189999Y-75882628D01*
X158183591Y-75823017D01*
X158183589Y-75823012D01*
X158133297Y-75688171D01*
X158133293Y-75688164D01*
X158047047Y-75572955D01*
X158047044Y-75572952D01*
X157931835Y-75486706D01*
X157931828Y-75486702D01*
X157796982Y-75436408D01*
X157796983Y-75436408D01*
X157737383Y-75430001D01*
X157737381Y-75430000D01*
X157737373Y-75430000D01*
X157737364Y-75430000D01*
X155766629Y-75430000D01*
X155766623Y-75430001D01*
X155707016Y-75436408D01*
X155572171Y-75486702D01*
X155572164Y-75486706D01*
X155456955Y-75572952D01*
X155456952Y-75572955D01*
X155370706Y-75688164D01*
X155370702Y-75688171D01*
X155320410Y-75823013D01*
X155320408Y-75823016D01*
X155319225Y-75834025D01*
X155314001Y-75882623D01*
X155314000Y-75882635D01*
X152062496Y-75882635D01*
X152097815Y-75834022D01*
X152097816Y-75834021D01*
X152103425Y-75823013D01*
X152103425Y-75823012D01*
X152103426Y-75823010D01*
X152197893Y-75637611D01*
X152197896Y-75637603D01*
X152231118Y-75535354D01*
X152266015Y-75427951D01*
X152300500Y-75210222D01*
X152300500Y-74989778D01*
X164739500Y-74989778D01*
X164739500Y-75210221D01*
X164773985Y-75427952D01*
X164842103Y-75637603D01*
X164842104Y-75637606D01*
X164867868Y-75688169D01*
X164942184Y-75834021D01*
X164942187Y-75834025D01*
X165071752Y-76012358D01*
X165071756Y-76012363D01*
X165227636Y-76168243D01*
X165227641Y-76168247D01*
X165383192Y-76281260D01*
X165405978Y-76297815D01*
X165534375Y-76363237D01*
X165602393Y-76397895D01*
X165602396Y-76397896D01*
X165707221Y-76431955D01*
X165812049Y-76466015D01*
X166029778Y-76500500D01*
X166029779Y-76500500D01*
X166250221Y-76500500D01*
X166250222Y-76500500D01*
X166467951Y-76466015D01*
X166677606Y-76397895D01*
X166874022Y-76297815D01*
X167052365Y-76168242D01*
X167208242Y-76012365D01*
X167337815Y-75834022D01*
X167437895Y-75637606D01*
X167506015Y-75427951D01*
X167540500Y-75210222D01*
X167540500Y-74989778D01*
X167506015Y-74772049D01*
X167437895Y-74562394D01*
X167437895Y-74562393D01*
X167403237Y-74494375D01*
X167337815Y-74365978D01*
X167267207Y-74268794D01*
X167208247Y-74187641D01*
X167208243Y-74187636D01*
X167052363Y-74031756D01*
X167052358Y-74031752D01*
X166874025Y-73902187D01*
X166874024Y-73902186D01*
X166874022Y-73902185D01*
X166811096Y-73870122D01*
X166677606Y-73802104D01*
X166677603Y-73802103D01*
X166467952Y-73733985D01*
X166359086Y-73716742D01*
X166250222Y-73699500D01*
X166029778Y-73699500D01*
X165957201Y-73710995D01*
X165812047Y-73733985D01*
X165602396Y-73802103D01*
X165602393Y-73802104D01*
X165405974Y-73902187D01*
X165227641Y-74031752D01*
X165227636Y-74031756D01*
X165071756Y-74187636D01*
X165071752Y-74187641D01*
X164942187Y-74365974D01*
X164842104Y-74562393D01*
X164842103Y-74562396D01*
X164773985Y-74772047D01*
X164739500Y-74989778D01*
X152300500Y-74989778D01*
X152266015Y-74772049D01*
X152197895Y-74562394D01*
X152197895Y-74562393D01*
X152163237Y-74494375D01*
X152097815Y-74365978D01*
X152027207Y-74268794D01*
X151968247Y-74187641D01*
X151968243Y-74187636D01*
X151812363Y-74031756D01*
X151812358Y-74031752D01*
X151634025Y-73902187D01*
X151634024Y-73902186D01*
X151634022Y-73902185D01*
X151571096Y-73870122D01*
X151437606Y-73802104D01*
X151437603Y-73802103D01*
X151227952Y-73733985D01*
X151119086Y-73716742D01*
X151010222Y-73699500D01*
X150789778Y-73699500D01*
X150717201Y-73710995D01*
X150572047Y-73733985D01*
X150362396Y-73802103D01*
X150362393Y-73802104D01*
X150165974Y-73902187D01*
X149987641Y-74031752D01*
X149987636Y-74031756D01*
X149831756Y-74187636D01*
X149831752Y-74187641D01*
X149702187Y-74365974D01*
X149602104Y-74562393D01*
X149602103Y-74562396D01*
X149533985Y-74772047D01*
X149499500Y-74989778D01*
X146488500Y-74989778D01*
X146488500Y-74987778D01*
X146454015Y-74770049D01*
X146419118Y-74662645D01*
X146385896Y-74560396D01*
X146385895Y-74560393D01*
X146351237Y-74492375D01*
X146285815Y-74363978D01*
X146215207Y-74266794D01*
X146156247Y-74185641D01*
X146156243Y-74185636D01*
X146000363Y-74029756D01*
X146000358Y-74029752D01*
X145822025Y-73900187D01*
X145822024Y-73900186D01*
X145822022Y-73900185D01*
X145759096Y-73868122D01*
X145625606Y-73800104D01*
X145625603Y-73800103D01*
X145415952Y-73731985D01*
X145210849Y-73699500D01*
X145198222Y-73697500D01*
X144977778Y-73697500D01*
X144965151Y-73699500D01*
X144760047Y-73731985D01*
X144550396Y-73800103D01*
X144550393Y-73800104D01*
X144353974Y-73900187D01*
X144175641Y-74029752D01*
X144175636Y-74029756D01*
X144019756Y-74185636D01*
X144019752Y-74185641D01*
X143890187Y-74363974D01*
X143790104Y-74560393D01*
X143790103Y-74560396D01*
X143721985Y-74770047D01*
X143687500Y-74987778D01*
X131248500Y-74987778D01*
X131214015Y-74770049D01*
X131179118Y-74662645D01*
X131145896Y-74560396D01*
X131145895Y-74560393D01*
X131111237Y-74492375D01*
X131045815Y-74363978D01*
X130975207Y-74266794D01*
X130916247Y-74185641D01*
X130916243Y-74185636D01*
X130760363Y-74029756D01*
X130760358Y-74029752D01*
X130582025Y-73900187D01*
X130582024Y-73900186D01*
X130582022Y-73900185D01*
X130519096Y-73868122D01*
X130385606Y-73800104D01*
X130385603Y-73800103D01*
X130175952Y-73731985D01*
X129970849Y-73699500D01*
X129958222Y-73697500D01*
X129737778Y-73697500D01*
X129725151Y-73699500D01*
X129520047Y-73731985D01*
X129310396Y-73800103D01*
X129310393Y-73800104D01*
X129113974Y-73900187D01*
X128935641Y-74029752D01*
X128935636Y-74029756D01*
X128779756Y-74185636D01*
X128779752Y-74185641D01*
X128650187Y-74363974D01*
X128550104Y-74560393D01*
X128550103Y-74560396D01*
X128481985Y-74770047D01*
X128447500Y-74987778D01*
X121200500Y-74987778D01*
X121200500Y-73216821D01*
X134262000Y-73216821D01*
X134262000Y-73443178D01*
X134297407Y-73666733D01*
X134367354Y-73882005D01*
X134442636Y-74029752D01*
X134470112Y-74083676D01*
X134603155Y-74266794D01*
X134763206Y-74426845D01*
X134946324Y-74559888D01*
X135041605Y-74608436D01*
X135147994Y-74662645D01*
X135147996Y-74662645D01*
X135147999Y-74662647D01*
X135263388Y-74700139D01*
X135363266Y-74732592D01*
X135586822Y-74768000D01*
X135586827Y-74768000D01*
X135813178Y-74768000D01*
X136036733Y-74732592D01*
X136252001Y-74662647D01*
X136453676Y-74559888D01*
X136636794Y-74426845D01*
X136796845Y-74266794D01*
X136929888Y-74083676D01*
X137032647Y-73882001D01*
X137102592Y-73666733D01*
X137138000Y-73443178D01*
X137138000Y-73216821D01*
X137798000Y-73216821D01*
X137798000Y-73443178D01*
X137833407Y-73666733D01*
X137903354Y-73882005D01*
X137978636Y-74029752D01*
X138006112Y-74083676D01*
X138139155Y-74266794D01*
X138299206Y-74426845D01*
X138482324Y-74559888D01*
X138577605Y-74608436D01*
X138683994Y-74662645D01*
X138683996Y-74662645D01*
X138683999Y-74662647D01*
X138799388Y-74700139D01*
X138899266Y-74732592D01*
X139122822Y-74768000D01*
X139122827Y-74768000D01*
X139349178Y-74768000D01*
X139572733Y-74732592D01*
X139788001Y-74662647D01*
X139989676Y-74559888D01*
X140172794Y-74426845D01*
X140332845Y-74266794D01*
X140465888Y-74083676D01*
X140568647Y-73882001D01*
X140638592Y-73666733D01*
X140674000Y-73443178D01*
X140674000Y-73218821D01*
X155314000Y-73218821D01*
X155314000Y-73445178D01*
X155349407Y-73668733D01*
X155419354Y-73884005D01*
X155493617Y-74029752D01*
X155522112Y-74085676D01*
X155655155Y-74268794D01*
X155815206Y-74428845D01*
X155998324Y-74561888D01*
X156093605Y-74610436D01*
X156199994Y-74664645D01*
X156199996Y-74664645D01*
X156199999Y-74664647D01*
X156315388Y-74702139D01*
X156415266Y-74734592D01*
X156638822Y-74770000D01*
X156638827Y-74770000D01*
X156865178Y-74770000D01*
X157088733Y-74734592D01*
X157094888Y-74732592D01*
X157304001Y-74664647D01*
X157505676Y-74561888D01*
X157688794Y-74428845D01*
X157848845Y-74268794D01*
X157981888Y-74085676D01*
X158084647Y-73884001D01*
X158154592Y-73668733D01*
X158154909Y-73666733D01*
X158190000Y-73445178D01*
X158190000Y-73218821D01*
X158850000Y-73218821D01*
X158850000Y-73445178D01*
X158885407Y-73668733D01*
X158955354Y-73884005D01*
X159029617Y-74029752D01*
X159058112Y-74085676D01*
X159191155Y-74268794D01*
X159351206Y-74428845D01*
X159534324Y-74561888D01*
X159629605Y-74610436D01*
X159735994Y-74664645D01*
X159735996Y-74664645D01*
X159735999Y-74664647D01*
X159851388Y-74702139D01*
X159951266Y-74734592D01*
X160174822Y-74770000D01*
X160174827Y-74770000D01*
X160401178Y-74770000D01*
X160624733Y-74734592D01*
X160630888Y-74732592D01*
X160840001Y-74664647D01*
X161041676Y-74561888D01*
X161224794Y-74428845D01*
X161384845Y-74268794D01*
X161517888Y-74085676D01*
X161620647Y-73884001D01*
X161690592Y-73668733D01*
X161690909Y-73666733D01*
X161726000Y-73445178D01*
X161726000Y-73218821D01*
X161690592Y-72995266D01*
X161620645Y-72779994D01*
X161532199Y-72606411D01*
X161517888Y-72578324D01*
X161384845Y-72395206D01*
X161224794Y-72235155D01*
X161041676Y-72102112D01*
X161037751Y-72100112D01*
X160840005Y-71999354D01*
X160624733Y-71929407D01*
X160401178Y-71894000D01*
X160401173Y-71894000D01*
X160174827Y-71894000D01*
X160174822Y-71894000D01*
X159951266Y-71929407D01*
X159735994Y-71999354D01*
X159534323Y-72102112D01*
X159351203Y-72235157D01*
X159191157Y-72395203D01*
X159058112Y-72578323D01*
X158955354Y-72779994D01*
X158885407Y-72995266D01*
X158850000Y-73218821D01*
X158190000Y-73218821D01*
X158154592Y-72995266D01*
X158084645Y-72779994D01*
X157996199Y-72606411D01*
X157981888Y-72578324D01*
X157848845Y-72395206D01*
X157688794Y-72235155D01*
X157505676Y-72102112D01*
X157501751Y-72100112D01*
X157304005Y-71999354D01*
X157088733Y-71929407D01*
X156865178Y-71894000D01*
X156865173Y-71894000D01*
X156638827Y-71894000D01*
X156638822Y-71894000D01*
X156415266Y-71929407D01*
X156199994Y-71999354D01*
X155998323Y-72102112D01*
X155815203Y-72235157D01*
X155655157Y-72395203D01*
X155522112Y-72578323D01*
X155419354Y-72779994D01*
X155349407Y-72995266D01*
X155314000Y-73218821D01*
X140674000Y-73218821D01*
X140674000Y-73216821D01*
X140638592Y-72993266D01*
X140606139Y-72893388D01*
X140568647Y-72777999D01*
X140568645Y-72777996D01*
X140568645Y-72777994D01*
X140481218Y-72606411D01*
X140465888Y-72576324D01*
X140332845Y-72393206D01*
X140172794Y-72233155D01*
X139989676Y-72100112D01*
X139788005Y-71997354D01*
X139572733Y-71927407D01*
X139349178Y-71892000D01*
X139349173Y-71892000D01*
X139122827Y-71892000D01*
X139122822Y-71892000D01*
X138899266Y-71927407D01*
X138683994Y-71997354D01*
X138482323Y-72100112D01*
X138299203Y-72233157D01*
X138139157Y-72393203D01*
X138006112Y-72576323D01*
X137903354Y-72777994D01*
X137833407Y-72993266D01*
X137798000Y-73216821D01*
X137138000Y-73216821D01*
X137102592Y-72993266D01*
X137070139Y-72893388D01*
X137032647Y-72777999D01*
X137032645Y-72777996D01*
X137032645Y-72777994D01*
X136945218Y-72606411D01*
X136929888Y-72576324D01*
X136796845Y-72393206D01*
X136636794Y-72233155D01*
X136453676Y-72100112D01*
X136252005Y-71997354D01*
X136036733Y-71927407D01*
X135813178Y-71892000D01*
X135813173Y-71892000D01*
X135586827Y-71892000D01*
X135586822Y-71892000D01*
X135363266Y-71927407D01*
X135147994Y-71997354D01*
X134946323Y-72100112D01*
X134763203Y-72233157D01*
X134603157Y-72393203D01*
X134470112Y-72576323D01*
X134367354Y-72777994D01*
X134297407Y-72993266D01*
X134262000Y-73216821D01*
X121200500Y-73216821D01*
X121200500Y-70970070D01*
X128222500Y-70970070D01*
X128222500Y-71225929D01*
X128262526Y-71478640D01*
X128341588Y-71721972D01*
X128341589Y-71721975D01*
X128420533Y-71876910D01*
X128447282Y-71929407D01*
X128457750Y-71949950D01*
X128608132Y-72156935D01*
X128608136Y-72156940D01*
X128789059Y-72337863D01*
X128789064Y-72337867D01*
X128969607Y-72469038D01*
X128996053Y-72488252D01*
X129145080Y-72564185D01*
X129224024Y-72604410D01*
X129224027Y-72604411D01*
X129345693Y-72643942D01*
X129467361Y-72683474D01*
X129720070Y-72723500D01*
X129720071Y-72723500D01*
X129975929Y-72723500D01*
X129975930Y-72723500D01*
X130228639Y-72683474D01*
X130471975Y-72604410D01*
X130699947Y-72488252D01*
X130906942Y-72337862D01*
X131087862Y-72156942D01*
X131238252Y-71949947D01*
X131354410Y-71721975D01*
X131433474Y-71478639D01*
X131473500Y-71225930D01*
X131473500Y-70970070D01*
X143462500Y-70970070D01*
X143462500Y-71225929D01*
X143502526Y-71478640D01*
X143581588Y-71721972D01*
X143581589Y-71721975D01*
X143660533Y-71876910D01*
X143687282Y-71929407D01*
X143697750Y-71949950D01*
X143848132Y-72156935D01*
X143848136Y-72156940D01*
X144029059Y-72337863D01*
X144029064Y-72337867D01*
X144209607Y-72469038D01*
X144236053Y-72488252D01*
X144385080Y-72564185D01*
X144464024Y-72604410D01*
X144464027Y-72604411D01*
X144585693Y-72643942D01*
X144707361Y-72683474D01*
X144960070Y-72723500D01*
X144960071Y-72723500D01*
X145215929Y-72723500D01*
X145215930Y-72723500D01*
X145468639Y-72683474D01*
X145711975Y-72604410D01*
X145939947Y-72488252D01*
X146146942Y-72337862D01*
X146327862Y-72156942D01*
X146478252Y-71949947D01*
X146594410Y-71721975D01*
X146673474Y-71478639D01*
X146713500Y-71225930D01*
X146713500Y-70972070D01*
X149274500Y-70972070D01*
X149274500Y-71227929D01*
X149314526Y-71480640D01*
X149393588Y-71723972D01*
X149393589Y-71723975D01*
X149472533Y-71878910D01*
X149508730Y-71949950D01*
X149509750Y-71951950D01*
X149660132Y-72158935D01*
X149660136Y-72158940D01*
X149841059Y-72339863D01*
X149841064Y-72339867D01*
X150021607Y-72471038D01*
X150048053Y-72490252D01*
X150197080Y-72566185D01*
X150276024Y-72606410D01*
X150276027Y-72606411D01*
X150397693Y-72645942D01*
X150519361Y-72685474D01*
X150772070Y-72725500D01*
X150772071Y-72725500D01*
X151027929Y-72725500D01*
X151027930Y-72725500D01*
X151280639Y-72685474D01*
X151523975Y-72606410D01*
X151751947Y-72490252D01*
X151958942Y-72339862D01*
X152139862Y-72158942D01*
X152290252Y-71951947D01*
X152406410Y-71723975D01*
X152485474Y-71480639D01*
X152525500Y-71227930D01*
X152525500Y-70972070D01*
X164514500Y-70972070D01*
X164514500Y-71227929D01*
X164554526Y-71480640D01*
X164633588Y-71723972D01*
X164633589Y-71723975D01*
X164712533Y-71878910D01*
X164748730Y-71949950D01*
X164749750Y-71951950D01*
X164900132Y-72158935D01*
X164900136Y-72158940D01*
X165081059Y-72339863D01*
X165081064Y-72339867D01*
X165261607Y-72471038D01*
X165288053Y-72490252D01*
X165437080Y-72566185D01*
X165516024Y-72606410D01*
X165516027Y-72606411D01*
X165637693Y-72645942D01*
X165759361Y-72685474D01*
X166012070Y-72725500D01*
X166012071Y-72725500D01*
X166267929Y-72725500D01*
X166267930Y-72725500D01*
X166520639Y-72685474D01*
X166763975Y-72606410D01*
X166991947Y-72490252D01*
X167198942Y-72339862D01*
X167379862Y-72158942D01*
X167530252Y-71951947D01*
X167646410Y-71723975D01*
X167725474Y-71480639D01*
X167765500Y-71227930D01*
X167765500Y-70972070D01*
X167725474Y-70719361D01*
X167646410Y-70476025D01*
X167646410Y-70476024D01*
X167606185Y-70397080D01*
X167530252Y-70248053D01*
X167511038Y-70221607D01*
X167379867Y-70041064D01*
X167379863Y-70041059D01*
X167198940Y-69860136D01*
X167198935Y-69860132D01*
X166991950Y-69709750D01*
X166991949Y-69709749D01*
X166991947Y-69709748D01*
X166918910Y-69672533D01*
X166763975Y-69593589D01*
X166763972Y-69593588D01*
X166520640Y-69514526D01*
X166394284Y-69494513D01*
X166267930Y-69474500D01*
X166012070Y-69474500D01*
X165927833Y-69487842D01*
X165759359Y-69514526D01*
X165516027Y-69593588D01*
X165516024Y-69593589D01*
X165288049Y-69709750D01*
X165081064Y-69860132D01*
X165081059Y-69860136D01*
X164900136Y-70041059D01*
X164900132Y-70041064D01*
X164749750Y-70248049D01*
X164633589Y-70476024D01*
X164633588Y-70476027D01*
X164554526Y-70719359D01*
X164514500Y-70972070D01*
X152525500Y-70972070D01*
X152485474Y-70719361D01*
X152406410Y-70476025D01*
X152406410Y-70476024D01*
X152366185Y-70397080D01*
X152290252Y-70248053D01*
X152271038Y-70221607D01*
X152139867Y-70041064D01*
X152139863Y-70041059D01*
X151958940Y-69860136D01*
X151958935Y-69860132D01*
X151751950Y-69709750D01*
X151751949Y-69709749D01*
X151751947Y-69709748D01*
X151678910Y-69672533D01*
X151523975Y-69593589D01*
X151523972Y-69593588D01*
X151280640Y-69514526D01*
X151154284Y-69494513D01*
X151027930Y-69474500D01*
X150772070Y-69474500D01*
X150687833Y-69487842D01*
X150519359Y-69514526D01*
X150276027Y-69593588D01*
X150276024Y-69593589D01*
X150048049Y-69709750D01*
X149841064Y-69860132D01*
X149841059Y-69860136D01*
X149660136Y-70041059D01*
X149660132Y-70041064D01*
X149509750Y-70248049D01*
X149393589Y-70476024D01*
X149393588Y-70476027D01*
X149314526Y-70719359D01*
X149274500Y-70972070D01*
X146713500Y-70972070D01*
X146713500Y-70970070D01*
X146673474Y-70717361D01*
X146633942Y-70595693D01*
X146594411Y-70474027D01*
X146594410Y-70474024D01*
X146554185Y-70395080D01*
X146478252Y-70246053D01*
X146459038Y-70219607D01*
X146327867Y-70039064D01*
X146327863Y-70039059D01*
X146146940Y-69858136D01*
X146146935Y-69858132D01*
X145939950Y-69707750D01*
X145939949Y-69707749D01*
X145939947Y-69707748D01*
X145866910Y-69670533D01*
X145711975Y-69591589D01*
X145711972Y-69591588D01*
X145468640Y-69512526D01*
X145342284Y-69492513D01*
X145215930Y-69472500D01*
X144960070Y-69472500D01*
X144875833Y-69485842D01*
X144707359Y-69512526D01*
X144464027Y-69591588D01*
X144464024Y-69591589D01*
X144236049Y-69707750D01*
X144029064Y-69858132D01*
X144029059Y-69858136D01*
X143848136Y-70039059D01*
X143848132Y-70039064D01*
X143697750Y-70246049D01*
X143581589Y-70474024D01*
X143581588Y-70474027D01*
X143502526Y-70717359D01*
X143462500Y-70970070D01*
X131473500Y-70970070D01*
X131433474Y-70717361D01*
X131393942Y-70595693D01*
X131354411Y-70474027D01*
X131354410Y-70474024D01*
X131314185Y-70395080D01*
X131238252Y-70246053D01*
X131219038Y-70219607D01*
X131087867Y-70039064D01*
X131087863Y-70039059D01*
X130906940Y-69858136D01*
X130906935Y-69858132D01*
X130699950Y-69707750D01*
X130699949Y-69707749D01*
X130699947Y-69707748D01*
X130626910Y-69670533D01*
X130471975Y-69591589D01*
X130471972Y-69591588D01*
X130228640Y-69512526D01*
X130102284Y-69492513D01*
X129975930Y-69472500D01*
X129720070Y-69472500D01*
X129635833Y-69485842D01*
X129467359Y-69512526D01*
X129224027Y-69591588D01*
X129224024Y-69591589D01*
X128996049Y-69707750D01*
X128789064Y-69858132D01*
X128789059Y-69858136D01*
X128608136Y-70039059D01*
X128608132Y-70039064D01*
X128457750Y-70246049D01*
X128341589Y-70474024D01*
X128341588Y-70474027D01*
X128262526Y-70717359D01*
X128222500Y-70970070D01*
X121200500Y-70970070D01*
X121200500Y-69253245D01*
X121200670Y-69246756D01*
X121209383Y-69080488D01*
X121216865Y-68937709D01*
X121218219Y-68924837D01*
X121266123Y-68622387D01*
X121268816Y-68609711D01*
X121348074Y-68313917D01*
X121352082Y-68301585D01*
X121434776Y-68086160D01*
X121461818Y-68015713D01*
X121467083Y-68003885D01*
X121606118Y-67731014D01*
X121612584Y-67719816D01*
X121779374Y-67462982D01*
X121786976Y-67452519D01*
X121979701Y-67214522D01*
X121988368Y-67204897D01*
X122204897Y-66988368D01*
X122214522Y-66979701D01*
X122452519Y-66786976D01*
X122462982Y-66779374D01*
X122719816Y-66612584D01*
X122731014Y-66606118D01*
X123003885Y-66467083D01*
X123015713Y-66461818D01*
X123301589Y-66352080D01*
X123313917Y-66348074D01*
X123609711Y-66268816D01*
X123622387Y-66266123D01*
X123924837Y-66218219D01*
X123937709Y-66216865D01*
X124246756Y-66200669D01*
X124253245Y-66200500D01*
X124289882Y-66200500D01*
X171710118Y-66200500D01*
X171746755Y-66200500D01*
X171753243Y-66200669D01*
G37*
%TD.AperFunction*%
%TD*%
M02*
