M48
; DRILL file KiCad 10.0.5-unknown-202607221313~667fa36054~ubuntu25.10.1 date 2026-09-29T17:36:52
; FORMAT={-:-/ absolute / metric / decimal}
; #@! TF.CreationDate,2026-09-29T17:36:52+00:00
; #@! TF.GenerationSoftware,Kicad,Pcbnew,10.0.5-unknown-202607221313~667fa36054~ubuntu25.10.1
; #@! TF.FileFunction,Plated,1,4,PTH
FMAT,2
METRIC
; #@! TA.AperFunction,Plated,PTH,ComponentDrill
T1C0.200
; #@! TA.AperFunction,Plated,PTH,ViaDrill
T2C0.250
; #@! TA.AperFunction,Plated,PTH,ViaDrill
T3C0.300
; #@! TA.AperFunction,Plated,PTH,ComponentDrill
T4C0.500
; #@! TA.AperFunction,Plated,PTH,ComponentDrill
T5C0.950
; #@! TA.AperFunction,Plated,PTH,ComponentDrill
T6C1.100
; #@! TA.AperFunction,Plated,PTH,ComponentDrill
T7C1.250
; #@! TA.AperFunction,Plated,PTH,ComponentDrill
T8C1.350
; #@! TA.AperFunction,Plated,PTH,ComponentDrill
T9C3.200
%
G90
G05
T1
X128.6Y-86.589
X128.6Y-87.889
X129.9Y-86.589
X129.9Y-87.889
X131.2Y-86.589
X131.2Y-87.889
T2
X129.625Y-95.25
X130.2Y-100.025
X131.075Y-91.95
X131.955Y-99.0
X132.39Y-87.719
X133.475Y-95.825
X140.25Y-84.65
X141.13Y-95.92
X141.15Y-90.02
X142.65Y-90.02
X142.66Y-95.93
X145.4Y-104.1
X145.725Y-83.9
X145.725Y-85.275
X146.5Y-91.825
X146.535Y-91.175
X148.65Y-102.3
X149.076Y-103.251
X149.6Y-89.875
X150.275Y-85.375
X150.3Y-83.9
X152.1Y-95.7
X155.65Y-84.65
X156.1Y-85.9
X157.375Y-85.925
X157.8Y-95.8
X165.264Y-103.08
T3
X122.749Y-76.495
X122.75Y-74.0
X122.75Y-79.0
X122.75Y-81.5
X122.75Y-84.0
X122.75Y-86.5
X122.75Y-89.0
X122.75Y-91.5
X122.75Y-94.0
X122.75Y-96.5
X122.75Y-99.0
X122.75Y-101.5
X122.75Y-104.0
X122.75Y-106.5
X125.0Y-75.0
X125.0Y-80.0
X125.29Y-82.419
X125.29Y-83.119
X125.29Y-83.819
X125.99Y-82.419
X125.99Y-83.119
X125.99Y-83.819
X127.1Y-91.7
X128.0Y-67.75
X128.0Y-112.5
X130.0Y-80.0
X130.0Y-110.0
X130.5Y-67.75
X130.5Y-112.5
X131.2Y-83.1
X132.4Y-89.4
X133.0Y-67.75
X133.0Y-112.5
X134.66Y-86.36
X135.0Y-90.0
X135.0Y-110.0
X135.5Y-67.75
X135.5Y-84.7
X135.5Y-112.5
X138.0Y-67.75
X139.5Y-92.25
X140.25Y-92.25
X140.5Y-67.75
X141.6Y-106.1
X143.0Y-67.75
X145.5Y-67.75
X147.225Y-85.4
X147.225Y-86.1
X147.225Y-86.8
X147.225Y-87.5
X147.464Y-79.236
X148.0Y-67.75
X148.6Y-78.1
X150.5Y-67.75
X152.8Y-90.9
X153.0Y-67.75
X153.5Y-97.25
X155.0Y-105.0
X155.1Y-88.9
X155.1Y-89.5
X155.425Y-93.8
X155.425Y-94.375
X155.5Y-67.75
X155.5Y-92.7
X156.0Y-92.2
X156.9Y-88.9
X156.9Y-89.5
X157.5Y-88.9
X157.5Y-89.5
X158.0Y-67.75
X160.0Y-85.0
X160.0Y-90.0
X160.0Y-95.0
X160.0Y-100.0
X160.0Y-105.0
X160.0Y-110.0
X160.5Y-67.75
X160.5Y-112.5
X163.0Y-67.75
X163.0Y-112.5
X165.0Y-80.0
X165.0Y-85.0
X165.0Y-90.0
X165.0Y-95.0
X165.0Y-100.0
X165.0Y-110.0
X165.245Y-106.1
X165.264Y-104.58
X165.5Y-67.75
X165.5Y-112.5
X168.0Y-67.75
X168.0Y-112.5
X170.0Y-75.0
X170.0Y-80.0
X170.0Y-85.0
X170.0Y-90.0
X170.0Y-95.0
X170.0Y-100.0
X170.0Y-105.0
X173.25Y-74.0
X173.25Y-76.5
X173.25Y-79.0
X173.25Y-81.5
X173.25Y-84.0
X173.25Y-86.5
X173.25Y-89.0
X173.25Y-91.5
X173.25Y-94.0
X173.25Y-96.5
X173.25Y-99.0
X173.25Y-101.5
X173.25Y-104.0
X173.25Y-106.5
T4
X121.85Y-69.25
X121.85Y-110.75
X122.553Y-67.553
X122.553Y-70.947
X122.553Y-109.053
X122.553Y-112.447
X124.25Y-66.85
X124.25Y-71.65
X124.25Y-108.35
X124.25Y-113.15
X125.947Y-67.553
X125.947Y-70.947
X125.947Y-109.053
X125.947Y-112.447
X126.65Y-69.25
X126.65Y-110.75
X169.35Y-69.25
X169.35Y-110.75
X170.053Y-67.553
X170.053Y-70.947
X170.053Y-109.053
X170.053Y-112.447
X171.75Y-66.85
X171.75Y-71.65
X171.75Y-108.35
X171.75Y-113.15
X173.447Y-67.553
X173.447Y-70.947
X173.447Y-109.053
X173.447Y-112.447
X174.15Y-69.25
X174.15Y-110.75
T5
X140.5Y-110.5
X143.0Y-110.5
X145.5Y-110.5
X148.0Y-110.5
X150.5Y-110.5
X153.0Y-110.5
X155.5Y-110.5
T6
X137.75Y-82.38
X137.75Y-87.46
X137.75Y-92.54
X137.75Y-97.62
X140.38Y-79.75
X140.38Y-100.25
X145.46Y-79.75
X145.46Y-100.25
X150.54Y-79.75
X150.54Y-100.25
X155.62Y-79.75
X155.62Y-100.25
X158.25Y-82.38
X158.25Y-87.46
X158.25Y-92.54
X158.25Y-97.62
T7
X135.7Y-73.33
X135.7Y-76.866
X137.468Y-75.098
X139.236Y-73.33
X139.236Y-76.866
X156.752Y-73.332
X156.752Y-76.868
X158.52Y-75.1
X160.288Y-73.332
X160.288Y-76.868
T8
X137.468Y-71.098
X158.52Y-71.1
T9
X124.25Y-69.25
X124.25Y-110.75
X171.75Y-69.25
X171.75Y-110.75
M30
