%TF.GenerationSoftware,KiCad,Pcbnew,10.0.5-unknown-202607221313~667fa36054~ubuntu25.10.1*%
%TF.CreationDate,Date%
%TF.ProjectId,OPEN_WEIGHT,4f50454e-5f57-4454-9947-48542e6b6963,+ (Unreleased)*%
%TF.SameCoordinates,Original*%
%TF.FileFunction,Soldermask,Top*%
%TF.FilePolarity,Negative*%
%FSLAX46Y46*%
G04 Gerber Fmt 4.6, Leading zero omitted, Abs format (unit mm)*
G04 Created by KiCad*
%MOMM*%
%LPD*%
G01*
G04 APERTURE LIST*
G04 APERTURE END LIST*
G36*
X171752399Y-65950477D02*
G01*
X171757224Y-65950952D01*
X171759476Y-65951884D01*
X171769134Y-65953806D01*
X171772684Y-65957356D01*
X171777232Y-65959240D01*
X171790759Y-65972767D01*
X171792642Y-65977314D01*
X171796194Y-65980866D01*
X171798115Y-65990526D01*
X171799047Y-65992775D01*
X171799521Y-65997595D01*
X171800000Y-66000000D01*
X171800000Y-66002452D01*
X171800000Y-66024626D01*
X171829289Y-66053915D01*
X171907016Y-66053915D01*
X171918378Y-66055034D01*
X171929425Y-66055034D01*
X172006124Y-66063675D01*
X172219530Y-66084694D01*
X172254633Y-66091676D01*
X172286020Y-66095213D01*
X172378305Y-66116276D01*
X172527518Y-66145957D01*
X172585790Y-66163633D01*
X172635874Y-66175065D01*
X172716648Y-66203329D01*
X172828026Y-66237115D01*
X172908684Y-66270524D01*
X172974587Y-66293585D01*
X173037493Y-66323879D01*
X173118154Y-66357290D01*
X173220799Y-66412155D01*
X173297900Y-66449285D01*
X173341397Y-66476616D01*
X173395091Y-66505316D01*
X173521551Y-66589814D01*
X173601748Y-66640205D01*
X173626458Y-66659911D01*
X173656202Y-66679785D01*
X173821925Y-66815791D01*
X173882309Y-66863945D01*
X173890122Y-66871758D01*
X173898945Y-66878999D01*
X174121000Y-67101054D01*
X174128240Y-67109876D01*
X174136055Y-67117691D01*
X174184215Y-67178081D01*
X174320214Y-67343797D01*
X174340086Y-67373538D01*
X174359795Y-67398252D01*
X174410191Y-67478457D01*
X174494683Y-67604908D01*
X174523380Y-67658597D01*
X174550715Y-67702100D01*
X174587849Y-67779209D01*
X174642709Y-67881845D01*
X174676116Y-67962497D01*
X174706415Y-68025413D01*
X174729478Y-68091324D01*
X174762884Y-68171973D01*
X174796665Y-68283336D01*
X174824935Y-68364126D01*
X174836368Y-68414218D01*
X174854042Y-68472481D01*
X174883717Y-68621666D01*
X174904787Y-68713980D01*
X174908324Y-68745375D01*
X174915305Y-68780469D01*
X174936321Y-68993855D01*
X174944966Y-69070575D01*
X174944966Y-69081622D01*
X174946085Y-69092984D01*
X174946085Y-69170711D01*
X174975374Y-69200000D01*
X175000000Y-69200000D01*
X175002399Y-69200477D01*
X175007224Y-69200952D01*
X175009476Y-69201884D01*
X175019134Y-69203806D01*
X175022684Y-69207356D01*
X175027232Y-69209240D01*
X175040759Y-69222767D01*
X175042642Y-69227314D01*
X175046194Y-69230866D01*
X175048115Y-69240526D01*
X175049047Y-69242775D01*
X175049521Y-69247595D01*
X175050000Y-69250000D01*
X175050000Y-110750000D01*
X175049521Y-110752405D01*
X175049047Y-110757224D01*
X175048115Y-110759471D01*
X175046194Y-110769134D01*
X175042642Y-110772685D01*
X175040759Y-110777232D01*
X175027232Y-110790759D01*
X175022685Y-110792642D01*
X175019134Y-110796194D01*
X175009471Y-110798115D01*
X175007224Y-110799047D01*
X175002404Y-110799521D01*
X175000000Y-110800000D01*
X174997548Y-110800000D01*
X174975374Y-110800000D01*
X174946085Y-110829289D01*
X174946085Y-110907015D01*
X174944966Y-110918376D01*
X174944966Y-110929425D01*
X174936320Y-111006151D01*
X174915305Y-111219530D01*
X174908324Y-111254621D01*
X174904787Y-111286020D01*
X174883715Y-111378340D01*
X174854042Y-111527518D01*
X174836369Y-111585777D01*
X174824935Y-111635874D01*
X174796663Y-111716670D01*
X174762884Y-111828026D01*
X174729480Y-111908669D01*
X174706415Y-111974587D01*
X174676113Y-112037508D01*
X174642709Y-112118154D01*
X174587853Y-112220780D01*
X174550715Y-112297900D01*
X174523377Y-112341407D01*
X174494683Y-112395091D01*
X174410201Y-112521526D01*
X174359795Y-112601748D01*
X174340082Y-112626466D01*
X174320214Y-112656202D01*
X174184243Y-112821882D01*
X174136055Y-112882309D01*
X174128235Y-112890128D01*
X174121000Y-112898945D01*
X173898945Y-113121000D01*
X173890128Y-113128235D01*
X173882309Y-113136055D01*
X173821882Y-113184243D01*
X173656202Y-113320214D01*
X173626466Y-113340082D01*
X173601748Y-113359795D01*
X173521526Y-113410201D01*
X173395091Y-113494683D01*
X173341407Y-113523377D01*
X173297900Y-113550715D01*
X173220780Y-113587853D01*
X173118154Y-113642709D01*
X173037508Y-113676113D01*
X172974587Y-113706415D01*
X172908669Y-113729480D01*
X172828026Y-113762884D01*
X172716670Y-113796663D01*
X172635874Y-113824935D01*
X172585777Y-113836369D01*
X172527518Y-113854042D01*
X172378340Y-113883715D01*
X172286020Y-113904787D01*
X172254621Y-113908324D01*
X172219530Y-113915305D01*
X172006146Y-113936321D01*
X171929425Y-113944966D01*
X171918377Y-113944966D01*
X171907016Y-113946085D01*
X171829289Y-113946085D01*
X171800000Y-113975374D01*
X171800000Y-114000000D01*
X171799521Y-114002405D01*
X171799047Y-114007224D01*
X171798115Y-114009471D01*
X171796194Y-114019134D01*
X171792642Y-114022685D01*
X171790759Y-114027232D01*
X171777232Y-114040759D01*
X171772685Y-114042642D01*
X171769134Y-114046194D01*
X171759471Y-114048115D01*
X171757224Y-114049047D01*
X171752404Y-114049521D01*
X171750000Y-114050000D01*
X171747548Y-114050000D01*
X158062452Y-114050000D01*
X158060000Y-114050000D01*
X158057595Y-114049521D01*
X158052775Y-114049047D01*
X158050526Y-114048115D01*
X158040866Y-114046194D01*
X158037314Y-114042642D01*
X158032767Y-114040759D01*
X158019240Y-114027232D01*
X158017356Y-114022684D01*
X158013806Y-114019134D01*
X158011884Y-114009476D01*
X158010952Y-114007224D01*
X158010477Y-114002400D01*
X158010000Y-114000000D01*
X158010000Y-110750000D01*
X158010477Y-110747600D01*
X158010952Y-110742775D01*
X158011885Y-110740521D01*
X158013806Y-110730866D01*
X158017355Y-110727316D01*
X158019240Y-110722767D01*
X158032767Y-110709240D01*
X158037316Y-110707355D01*
X158040866Y-110703806D01*
X158050521Y-110701885D01*
X158052775Y-110700952D01*
X158057600Y-110700477D01*
X158060000Y-110700000D01*
X168524626Y-110700000D01*
X168553915Y-110670711D01*
X168553915Y-110592984D01*
X168555034Y-110581622D01*
X168555034Y-110570575D01*
X168563675Y-110493878D01*
X168584694Y-110280469D01*
X168591676Y-110245364D01*
X168595213Y-110213980D01*
X168616275Y-110121700D01*
X168645957Y-109972481D01*
X168663634Y-109914205D01*
X168675065Y-109864126D01*
X168703326Y-109783357D01*
X168737115Y-109671973D01*
X168770527Y-109591308D01*
X168793585Y-109525413D01*
X168823876Y-109462512D01*
X168857290Y-109381845D01*
X168912160Y-109279190D01*
X168949285Y-109202100D01*
X168976612Y-109158608D01*
X169005316Y-109104908D01*
X169089824Y-108978432D01*
X169140205Y-108898252D01*
X169159907Y-108873546D01*
X169179785Y-108843797D01*
X169315819Y-108678038D01*
X169363945Y-108617691D01*
X169371754Y-108609881D01*
X169378999Y-108601054D01*
X169601054Y-108378999D01*
X169609881Y-108371754D01*
X169617691Y-108363945D01*
X169678038Y-108315819D01*
X169843797Y-108179785D01*
X169873546Y-108159907D01*
X169898252Y-108140205D01*
X169978432Y-108089824D01*
X170104908Y-108005316D01*
X170158608Y-107976612D01*
X170202100Y-107949285D01*
X170279190Y-107912160D01*
X170381845Y-107857290D01*
X170462512Y-107823876D01*
X170525413Y-107793585D01*
X170591308Y-107770527D01*
X170671973Y-107737115D01*
X170783357Y-107703326D01*
X170864126Y-107675065D01*
X170914205Y-107663634D01*
X170972481Y-107645957D01*
X171121700Y-107616275D01*
X171213980Y-107595213D01*
X171245364Y-107591676D01*
X171280469Y-107584694D01*
X171493878Y-107563675D01*
X171570575Y-107555034D01*
X171581622Y-107555034D01*
X171592984Y-107553915D01*
X171670711Y-107553915D01*
X171700000Y-107524626D01*
X171700000Y-72475374D01*
X171670711Y-72446085D01*
X171592984Y-72446085D01*
X171581623Y-72444966D01*
X171570575Y-72444966D01*
X171493855Y-72436321D01*
X171280469Y-72415305D01*
X171245375Y-72408324D01*
X171213980Y-72404787D01*
X171121666Y-72383717D01*
X170972481Y-72354042D01*
X170914218Y-72336368D01*
X170864126Y-72324935D01*
X170783336Y-72296665D01*
X170671973Y-72262884D01*
X170591324Y-72229478D01*
X170525413Y-72206415D01*
X170462497Y-72176116D01*
X170381845Y-72142709D01*
X170279209Y-72087849D01*
X170202100Y-72050715D01*
X170158597Y-72023380D01*
X170104908Y-71994683D01*
X169978457Y-71910191D01*
X169898252Y-71859795D01*
X169873538Y-71840086D01*
X169843797Y-71820214D01*
X169678081Y-71684215D01*
X169617691Y-71636055D01*
X169609876Y-71628240D01*
X169601054Y-71621000D01*
X169378999Y-71398945D01*
X169371758Y-71390122D01*
X169363945Y-71382309D01*
X169315791Y-71321925D01*
X169179785Y-71156202D01*
X169159911Y-71126458D01*
X169140205Y-71101748D01*
X169089814Y-71021551D01*
X169005316Y-70895091D01*
X168976616Y-70841397D01*
X168949285Y-70797900D01*
X168912155Y-70720799D01*
X168857290Y-70618154D01*
X168823879Y-70537493D01*
X168793585Y-70474587D01*
X168770524Y-70408684D01*
X168737115Y-70328026D01*
X168703329Y-70216648D01*
X168675065Y-70135874D01*
X168663633Y-70085790D01*
X168645957Y-70027518D01*
X168616276Y-69878305D01*
X168595213Y-69786020D01*
X168591676Y-69754633D01*
X168584694Y-69719530D01*
X168563676Y-69506128D01*
X168555034Y-69429425D01*
X168555034Y-69418376D01*
X168553915Y-69407015D01*
X168553915Y-69329289D01*
X168524626Y-69300000D01*
X164529289Y-69300000D01*
X164500000Y-69329289D01*
X164500000Y-80125000D01*
X164495723Y-80190247D01*
X164495723Y-80190263D01*
X164469079Y-80289698D01*
X164461940Y-80316342D01*
X164396677Y-80429381D01*
X164396669Y-80429388D01*
X164353554Y-80478553D01*
X162978553Y-81853553D01*
X162929396Y-81896661D01*
X162929381Y-81896677D01*
X162817033Y-81961541D01*
X162816342Y-81961940D01*
X162690263Y-81995723D01*
X162690248Y-81995723D01*
X162625000Y-82000000D01*
X162623363Y-82000000D01*
X159102181Y-82000000D01*
X159072916Y-82029149D01*
X159072855Y-82044442D01*
X159072371Y-82166835D01*
X159072620Y-82169416D01*
X159097897Y-82296489D01*
X159097897Y-82463511D01*
X159070884Y-82599313D01*
X159070655Y-82601594D01*
X159063605Y-84387686D01*
X159052593Y-87177476D01*
X159054277Y-87186034D01*
X159065313Y-87212677D01*
X159097897Y-87376489D01*
X159097897Y-87543511D01*
X159065313Y-87707323D01*
X159052016Y-87739423D01*
X159050342Y-87747756D01*
X159042318Y-89780373D01*
X159032945Y-92155000D01*
X159032729Y-92209522D01*
X159034412Y-92218076D01*
X159065313Y-92292677D01*
X159097897Y-92456489D01*
X159097897Y-92623511D01*
X159065313Y-92787323D01*
X159031770Y-92868301D01*
X159030096Y-92876633D01*
X159014705Y-96775817D01*
X159012866Y-97241567D01*
X159014550Y-97250124D01*
X159065313Y-97372677D01*
X159097897Y-97536489D01*
X159097897Y-97703511D01*
X159065313Y-97867323D01*
X159011526Y-97997175D01*
X159009851Y-98005511D01*
X159005333Y-99150000D01*
X158999996Y-100501974D01*
X158995461Y-100567219D01*
X158961181Y-100693164D01*
X158895472Y-100805944D01*
X158802813Y-100897875D01*
X158689517Y-100962692D01*
X158563306Y-100995976D01*
X158514335Y-100995782D01*
X158450000Y-101000000D01*
X158448361Y-101000000D01*
X156029394Y-101000000D01*
X156020947Y-101001679D01*
X155867323Y-101065313D01*
X155703511Y-101097897D01*
X155536489Y-101097897D01*
X155372677Y-101065313D01*
X155219052Y-101001679D01*
X155210606Y-101000000D01*
X150949394Y-101000000D01*
X150940947Y-101001679D01*
X150787323Y-101065313D01*
X150623511Y-101097897D01*
X150456489Y-101097897D01*
X150292677Y-101065313D01*
X150138370Y-101001397D01*
X149999497Y-100908605D01*
X149881395Y-100790503D01*
X149788603Y-100651630D01*
X149724687Y-100497323D01*
X149692103Y-100333511D01*
X149692103Y-100166489D01*
X149724687Y-100002677D01*
X149788603Y-99848370D01*
X149881395Y-99709497D01*
X149999497Y-99591395D01*
X150138370Y-99498603D01*
X150292677Y-99434687D01*
X150456489Y-99402103D01*
X150623511Y-99402103D01*
X150787323Y-99434687D01*
X150941630Y-99498603D01*
X151080503Y-99591395D01*
X151198605Y-99709497D01*
X151291397Y-99848370D01*
X151347323Y-99983388D01*
X151372184Y-100000000D01*
X154787816Y-100000000D01*
X154812676Y-99983388D01*
X154868603Y-99848370D01*
X154961395Y-99709497D01*
X155079497Y-99591395D01*
X155080521Y-99590710D01*
X155099502Y-99571730D01*
X155073932Y-99510000D01*
X154537444Y-99510000D01*
X154527500Y-99510000D01*
X154520429Y-99507071D01*
X154517500Y-99500000D01*
X154517500Y-98800000D01*
X154520429Y-98792929D01*
X154527500Y-98790000D01*
X154688211Y-98790000D01*
X154717500Y-98760711D01*
X154717500Y-97439289D01*
X154688211Y-97410000D01*
X154527500Y-97410000D01*
X154520429Y-97407071D01*
X154517500Y-97400000D01*
X154517500Y-96700000D01*
X154520429Y-96692929D01*
X154527500Y-96690000D01*
X155527500Y-96690000D01*
X155534571Y-96692929D01*
X155537500Y-96700000D01*
X155537500Y-97400000D01*
X155534571Y-97407071D01*
X155527500Y-97410000D01*
X155517556Y-97410000D01*
X155366789Y-97410000D01*
X155337500Y-97439289D01*
X155337500Y-98760711D01*
X155366789Y-98790000D01*
X155517556Y-98790000D01*
X155527500Y-98790000D01*
X155534571Y-98792929D01*
X155537500Y-98800000D01*
X155537500Y-98809944D01*
X155537500Y-99373054D01*
X155566549Y-99402103D01*
X155703511Y-99402103D01*
X155867323Y-99434687D01*
X155973298Y-99478583D01*
X156017500Y-99449049D01*
X156017500Y-98809944D01*
X156017500Y-98800000D01*
X156020429Y-98792929D01*
X156027500Y-98790000D01*
X156188211Y-98790000D01*
X156217500Y-98760711D01*
X156217500Y-97439289D01*
X156188211Y-97410000D01*
X156027500Y-97410000D01*
X156020429Y-97407071D01*
X156017500Y-97400000D01*
X156017500Y-96700000D01*
X156020429Y-96692929D01*
X156027500Y-96690000D01*
X157027500Y-96690000D01*
X157034571Y-96692929D01*
X157037500Y-96700000D01*
X157037500Y-97400000D01*
X157034571Y-97407071D01*
X157027500Y-97410000D01*
X157017556Y-97410000D01*
X156866789Y-97410000D01*
X156837500Y-97439289D01*
X156837500Y-98760711D01*
X156866789Y-98790000D01*
X157017556Y-98790000D01*
X157027500Y-98790000D01*
X157034571Y-98792929D01*
X157037500Y-98800000D01*
X157037500Y-99500000D01*
X157034571Y-99507071D01*
X157027500Y-99510000D01*
X157017556Y-99510000D01*
X156166068Y-99510000D01*
X156140498Y-99571730D01*
X156159477Y-99590710D01*
X156160503Y-99591395D01*
X156278605Y-99709497D01*
X156371397Y-99848370D01*
X156427323Y-99983388D01*
X156452184Y-100000000D01*
X157972819Y-100000000D01*
X158002084Y-99970851D01*
X158008065Y-98455644D01*
X157991441Y-98430659D01*
X157848370Y-98371397D01*
X157709497Y-98278605D01*
X157591395Y-98160503D01*
X157498603Y-98021630D01*
X157434687Y-97867323D01*
X157402103Y-97703511D01*
X157402103Y-97536489D01*
X157434687Y-97372677D01*
X157498603Y-97218370D01*
X157591395Y-97079497D01*
X157709497Y-96961395D01*
X157848370Y-96868603D01*
X157998071Y-96806594D01*
X158014672Y-96781856D01*
X158028085Y-93383937D01*
X158011222Y-93358592D01*
X158003886Y-93355553D01*
X158002677Y-93355313D01*
X157848370Y-93291397D01*
X157709497Y-93198605D01*
X157591395Y-93080503D01*
X157498603Y-92941630D01*
X157498130Y-92940490D01*
X157495440Y-92936463D01*
X157496277Y-92936015D01*
X157434687Y-92787323D01*
X157402103Y-92623511D01*
X157402103Y-92456489D01*
X157434687Y-92292677D01*
X157498603Y-92138370D01*
X157591395Y-91999497D01*
X157709497Y-91881395D01*
X157848370Y-91788603D01*
X158002677Y-91724687D01*
X158003885Y-91724446D01*
X158017916Y-91718635D01*
X158034758Y-91693536D01*
X158048124Y-88307377D01*
X158025649Y-88279882D01*
X158002677Y-88275313D01*
X157848370Y-88211397D01*
X157709497Y-88118605D01*
X157591395Y-88000503D01*
X157498603Y-87861630D01*
X157434687Y-87707323D01*
X157402103Y-87543511D01*
X157402103Y-87376489D01*
X157434687Y-87212677D01*
X157498603Y-87058370D01*
X157591395Y-86919497D01*
X157709497Y-86801395D01*
X157848370Y-86708603D01*
X158002677Y-86644687D01*
X158032378Y-86638779D01*
X158054818Y-86611544D01*
X158068161Y-83231364D01*
X158045686Y-83203868D01*
X158002677Y-83195313D01*
X157848370Y-83131397D01*
X157709497Y-83038605D01*
X157591395Y-82920503D01*
X157498603Y-82781630D01*
X157434687Y-82627323D01*
X157402103Y-82463511D01*
X157402103Y-82296489D01*
X157434687Y-82132677D01*
X157498603Y-81978370D01*
X157591395Y-81839497D01*
X157709497Y-81721395D01*
X157848370Y-81628603D01*
X157988092Y-81570728D01*
X158004278Y-81546505D01*
X158004278Y-81434737D01*
X158038060Y-81308658D01*
X158103323Y-81195619D01*
X158195619Y-81103323D01*
X158308658Y-81038060D01*
X158434737Y-81004278D01*
X158500000Y-81000000D01*
X162407128Y-81000000D01*
X162425505Y-80992388D01*
X163492388Y-79925505D01*
X163500000Y-79907128D01*
X163500000Y-69329289D01*
X163470711Y-69300000D01*
X132529289Y-69300000D01*
X132500000Y-69329289D01*
X132500000Y-79907128D01*
X132507612Y-79925505D01*
X133574495Y-80992388D01*
X133592872Y-81000000D01*
X137500000Y-81000000D01*
X137565263Y-81004278D01*
X137691342Y-81038060D01*
X137804381Y-81103323D01*
X137896677Y-81195619D01*
X137961940Y-81308658D01*
X137995722Y-81434737D01*
X138000000Y-81500000D01*
X138000000Y-81501637D01*
X138000000Y-81547815D01*
X138016612Y-81572676D01*
X138151630Y-81628603D01*
X138290503Y-81721395D01*
X138408605Y-81839497D01*
X138501397Y-81978370D01*
X138565313Y-82132677D01*
X138597897Y-82296489D01*
X138597897Y-82463511D01*
X138565313Y-82627323D01*
X138501397Y-82781630D01*
X138408605Y-82920503D01*
X138290503Y-83038605D01*
X138151630Y-83131397D01*
X138016611Y-83187323D01*
X138000000Y-83212184D01*
X138000000Y-86627815D01*
X138016612Y-86652676D01*
X138151630Y-86708603D01*
X138290503Y-86801395D01*
X138408605Y-86919497D01*
X138501397Y-87058370D01*
X138565313Y-87212677D01*
X138597897Y-87376489D01*
X138597897Y-87543511D01*
X138565313Y-87707323D01*
X138501397Y-87861630D01*
X138408605Y-88000503D01*
X138290503Y-88118605D01*
X138151630Y-88211397D01*
X138016611Y-88267323D01*
X138000000Y-88292184D01*
X138000000Y-91707815D01*
X138016612Y-91732676D01*
X138151630Y-91788603D01*
X138290503Y-91881395D01*
X138408605Y-91999497D01*
X138501397Y-92138370D01*
X138565313Y-92292677D01*
X138597897Y-92456489D01*
X138597897Y-92623511D01*
X138565313Y-92787323D01*
X138501397Y-92941630D01*
X138408605Y-93080503D01*
X138290503Y-93198605D01*
X138151630Y-93291397D01*
X138016611Y-93347323D01*
X138000000Y-93372184D01*
X138000000Y-96787815D01*
X138016612Y-96812676D01*
X138151630Y-96868603D01*
X138290503Y-96961395D01*
X138408605Y-97079497D01*
X138501397Y-97218370D01*
X138565313Y-97372677D01*
X138597897Y-97536489D01*
X138597897Y-97703511D01*
X138565313Y-97867323D01*
X138501397Y-98021630D01*
X138408605Y-98160503D01*
X138290503Y-98278605D01*
X138151630Y-98371397D01*
X138016611Y-98427323D01*
X138000000Y-98452184D01*
X138000000Y-100500000D01*
X137995722Y-100565263D01*
X137961940Y-100691342D01*
X137896677Y-100804381D01*
X137804381Y-100896677D01*
X137691342Y-100961940D01*
X137565263Y-100995722D01*
X137434737Y-100995722D01*
X137308658Y-100961940D01*
X137195619Y-100896677D01*
X137103323Y-100804381D01*
X137038060Y-100691342D01*
X137004278Y-100565263D01*
X137000000Y-100500000D01*
X137000000Y-98029394D01*
X136998320Y-98020947D01*
X136934687Y-97867323D01*
X136902103Y-97703511D01*
X136902103Y-97536489D01*
X136934687Y-97372677D01*
X136998319Y-97219053D01*
X137000000Y-97210605D01*
X137000000Y-92949394D01*
X136998320Y-92940947D01*
X136934687Y-92787323D01*
X136902103Y-92623511D01*
X136902103Y-92456489D01*
X136934687Y-92292677D01*
X136998319Y-92139053D01*
X137000000Y-92130605D01*
X137000000Y-87869394D01*
X136998320Y-87860947D01*
X136934687Y-87707323D01*
X136902103Y-87543511D01*
X136902103Y-87376489D01*
X136934687Y-87212677D01*
X136998319Y-87059053D01*
X137000000Y-87050605D01*
X137000000Y-82789394D01*
X136998320Y-82780947D01*
X136934687Y-82627323D01*
X136902103Y-82463511D01*
X136902103Y-82296489D01*
X136934687Y-82132677D01*
X136971334Y-82044200D01*
X136941801Y-82000000D01*
X133376637Y-82000000D01*
X133375000Y-82000000D01*
X133309752Y-81995723D01*
X133309737Y-81995723D01*
X133210301Y-81969079D01*
X133183658Y-81961940D01*
X133070619Y-81896677D01*
X133070611Y-81896669D01*
X133021447Y-81853554D01*
X131646447Y-80478553D01*
X131603338Y-80429396D01*
X131603323Y-80429381D01*
X131538060Y-80316342D01*
X131538015Y-80316174D01*
X131504277Y-80190263D01*
X131504277Y-80190247D01*
X131500000Y-80125000D01*
X131500000Y-69329289D01*
X131470711Y-69300000D01*
X127475374Y-69300000D01*
X127446085Y-69329289D01*
X127446085Y-69407015D01*
X127444966Y-69418376D01*
X127444966Y-69429425D01*
X127436320Y-69506151D01*
X127415305Y-69719530D01*
X127408324Y-69754621D01*
X127404787Y-69786020D01*
X127383715Y-69878340D01*
X127354042Y-70027518D01*
X127336369Y-70085777D01*
X127324935Y-70135874D01*
X127296663Y-70216670D01*
X127262884Y-70328026D01*
X127229480Y-70408669D01*
X127206415Y-70474587D01*
X127176113Y-70537508D01*
X127142709Y-70618154D01*
X127087853Y-70720780D01*
X127050715Y-70797900D01*
X127023377Y-70841407D01*
X126994683Y-70895091D01*
X126910201Y-71021526D01*
X126859795Y-71101748D01*
X126840082Y-71126466D01*
X126820214Y-71156202D01*
X126684243Y-71321882D01*
X126636055Y-71382309D01*
X126628235Y-71390128D01*
X126621000Y-71398945D01*
X126398945Y-71621000D01*
X126390128Y-71628235D01*
X126382309Y-71636055D01*
X126321882Y-71684243D01*
X126156202Y-71820214D01*
X126126466Y-71840082D01*
X126101748Y-71859795D01*
X126021526Y-71910201D01*
X125895091Y-71994683D01*
X125841407Y-72023377D01*
X125797900Y-72050715D01*
X125720780Y-72087853D01*
X125618154Y-72142709D01*
X125537508Y-72176113D01*
X125474587Y-72206415D01*
X125408669Y-72229480D01*
X125328026Y-72262884D01*
X125216670Y-72296663D01*
X125135874Y-72324935D01*
X125085777Y-72336369D01*
X125027518Y-72354042D01*
X124878340Y-72383715D01*
X124786020Y-72404787D01*
X124754621Y-72408324D01*
X124719530Y-72415305D01*
X124506146Y-72436321D01*
X124429425Y-72444966D01*
X124418377Y-72444966D01*
X124407016Y-72446085D01*
X124329289Y-72446085D01*
X124300000Y-72475374D01*
X124300000Y-107524626D01*
X124329289Y-107553915D01*
X124407016Y-107553915D01*
X124418378Y-107555034D01*
X124429425Y-107555034D01*
X124506124Y-107563675D01*
X124719530Y-107584694D01*
X124754633Y-107591676D01*
X124786020Y-107595213D01*
X124878305Y-107616276D01*
X125027518Y-107645957D01*
X125085790Y-107663633D01*
X125135874Y-107675065D01*
X125216648Y-107703329D01*
X125328026Y-107737115D01*
X125408684Y-107770524D01*
X125474587Y-107793585D01*
X125537493Y-107823879D01*
X125618154Y-107857290D01*
X125720799Y-107912155D01*
X125797900Y-107949285D01*
X125841397Y-107976616D01*
X125895091Y-108005316D01*
X126021551Y-108089814D01*
X126101748Y-108140205D01*
X126126458Y-108159911D01*
X126156202Y-108179785D01*
X126321925Y-108315791D01*
X126382309Y-108363945D01*
X126390122Y-108371758D01*
X126398945Y-108378999D01*
X126621000Y-108601054D01*
X126628240Y-108609876D01*
X126636055Y-108617691D01*
X126684215Y-108678081D01*
X126820214Y-108843797D01*
X126840086Y-108873538D01*
X126859795Y-108898252D01*
X126910191Y-108978457D01*
X126994683Y-109104908D01*
X127023380Y-109158597D01*
X127050715Y-109202100D01*
X127087849Y-109279209D01*
X127142709Y-109381845D01*
X127176116Y-109462497D01*
X127206415Y-109525413D01*
X127229478Y-109591324D01*
X127262884Y-109671973D01*
X127296665Y-109783336D01*
X127324935Y-109864126D01*
X127336368Y-109914218D01*
X127354042Y-109972481D01*
X127383717Y-110121666D01*
X127404787Y-110213980D01*
X127408324Y-110245375D01*
X127415305Y-110280469D01*
X127436321Y-110493855D01*
X127444966Y-110570575D01*
X127444966Y-110581622D01*
X127446085Y-110592984D01*
X127446085Y-110670711D01*
X127475374Y-110700000D01*
X137950000Y-110700000D01*
X137952399Y-110700477D01*
X137957224Y-110700952D01*
X137959476Y-110701884D01*
X137969134Y-110703806D01*
X137972684Y-110707356D01*
X137977232Y-110709240D01*
X137990759Y-110722767D01*
X137992642Y-110727314D01*
X137996194Y-110730866D01*
X137998115Y-110740526D01*
X137999047Y-110742775D01*
X137999521Y-110747595D01*
X138000000Y-110750000D01*
X138000000Y-114000000D01*
X137999521Y-114002405D01*
X137999047Y-114007224D01*
X137998115Y-114009471D01*
X137996194Y-114019134D01*
X137992642Y-114022685D01*
X137990759Y-114027232D01*
X137977232Y-114040759D01*
X137972685Y-114042642D01*
X137969134Y-114046194D01*
X137959471Y-114048115D01*
X137957224Y-114049047D01*
X137952404Y-114049521D01*
X137950000Y-114050000D01*
X137947548Y-114050000D01*
X124252452Y-114050000D01*
X124250000Y-114050000D01*
X124247595Y-114049521D01*
X124242775Y-114049047D01*
X124240526Y-114048115D01*
X124230866Y-114046194D01*
X124227314Y-114042642D01*
X124222767Y-114040759D01*
X124209240Y-114027232D01*
X124207356Y-114022684D01*
X124203806Y-114019134D01*
X124201884Y-114009476D01*
X124200952Y-114007224D01*
X124200477Y-114002400D01*
X124200000Y-114000000D01*
X124200000Y-113975374D01*
X124170711Y-113946085D01*
X124092984Y-113946085D01*
X124081623Y-113944966D01*
X124070575Y-113944966D01*
X123993855Y-113936321D01*
X123780469Y-113915305D01*
X123745375Y-113908324D01*
X123713980Y-113904787D01*
X123621666Y-113883717D01*
X123472481Y-113854042D01*
X123414218Y-113836368D01*
X123364126Y-113824935D01*
X123283336Y-113796665D01*
X123171973Y-113762884D01*
X123091324Y-113729478D01*
X123025413Y-113706415D01*
X122962497Y-113676116D01*
X122881845Y-113642709D01*
X122779209Y-113587849D01*
X122702100Y-113550715D01*
X122658597Y-113523380D01*
X122604908Y-113494683D01*
X122478457Y-113410191D01*
X122398252Y-113359795D01*
X122373538Y-113340086D01*
X122343797Y-113320214D01*
X122178081Y-113184215D01*
X122117691Y-113136055D01*
X122109876Y-113128240D01*
X122101054Y-113121000D01*
X121878999Y-112898945D01*
X121871758Y-112890122D01*
X121863945Y-112882309D01*
X121815791Y-112821925D01*
X121679785Y-112656202D01*
X121659911Y-112626458D01*
X121640205Y-112601748D01*
X121589814Y-112521551D01*
X121505316Y-112395091D01*
X121476616Y-112341397D01*
X121449285Y-112297900D01*
X121412155Y-112220799D01*
X121357290Y-112118154D01*
X121323879Y-112037493D01*
X121293585Y-111974587D01*
X121270524Y-111908684D01*
X121237115Y-111828026D01*
X121203329Y-111716648D01*
X121175065Y-111635874D01*
X121163633Y-111585790D01*
X121145957Y-111527518D01*
X121116276Y-111378305D01*
X121095213Y-111286020D01*
X121091676Y-111254633D01*
X121084694Y-111219530D01*
X121063676Y-111006128D01*
X121055034Y-110929425D01*
X121055034Y-110918376D01*
X121053915Y-110907015D01*
X121053915Y-110829289D01*
X121024626Y-110800000D01*
X121002452Y-110800000D01*
X121000000Y-110800000D01*
X120997595Y-110799521D01*
X120992775Y-110799047D01*
X120990526Y-110798115D01*
X120980866Y-110796194D01*
X120977314Y-110792642D01*
X120972767Y-110790759D01*
X120959240Y-110777232D01*
X120957356Y-110772684D01*
X120953806Y-110769134D01*
X120951884Y-110759476D01*
X120950952Y-110757224D01*
X120950477Y-110752400D01*
X120950000Y-110750000D01*
X120950000Y-69250000D01*
X120950477Y-69247600D01*
X120950952Y-69242775D01*
X120951885Y-69240521D01*
X120953806Y-69230866D01*
X120957355Y-69227316D01*
X120959240Y-69222767D01*
X120972767Y-69209240D01*
X120977316Y-69207355D01*
X120980866Y-69203806D01*
X120990521Y-69201885D01*
X120992775Y-69200952D01*
X120997600Y-69200477D01*
X121000000Y-69200000D01*
X121024626Y-69200000D01*
X121053915Y-69170711D01*
X121053915Y-69092984D01*
X121055034Y-69081622D01*
X121055034Y-69070575D01*
X121063675Y-68993878D01*
X121084694Y-68780469D01*
X121091676Y-68745364D01*
X121095213Y-68713980D01*
X121116275Y-68621700D01*
X121145957Y-68472481D01*
X121163634Y-68414205D01*
X121175065Y-68364126D01*
X121203326Y-68283357D01*
X121237115Y-68171973D01*
X121270527Y-68091308D01*
X121293585Y-68025413D01*
X121323876Y-67962512D01*
X121357290Y-67881845D01*
X121412160Y-67779190D01*
X121449285Y-67702100D01*
X121476612Y-67658608D01*
X121505316Y-67604908D01*
X121589824Y-67478432D01*
X121640205Y-67398252D01*
X121659907Y-67373546D01*
X121679785Y-67343797D01*
X121815819Y-67178038D01*
X121863945Y-67117691D01*
X121871754Y-67109881D01*
X121878999Y-67101054D01*
X122101054Y-66878999D01*
X122109881Y-66871754D01*
X122117691Y-66863945D01*
X122178038Y-66815819D01*
X122343797Y-66679785D01*
X122373546Y-66659907D01*
X122398252Y-66640205D01*
X122478432Y-66589824D01*
X122604908Y-66505316D01*
X122658608Y-66476612D01*
X122702100Y-66449285D01*
X122779190Y-66412160D01*
X122881845Y-66357290D01*
X122962512Y-66323876D01*
X123025413Y-66293585D01*
X123091308Y-66270527D01*
X123171973Y-66237115D01*
X123283357Y-66203326D01*
X123364126Y-66175065D01*
X123414205Y-66163634D01*
X123472481Y-66145957D01*
X123621700Y-66116275D01*
X123713980Y-66095213D01*
X123745364Y-66091676D01*
X123780469Y-66084694D01*
X123993878Y-66063675D01*
X124070575Y-66055034D01*
X124081622Y-66055034D01*
X124092984Y-66053915D01*
X124170711Y-66053915D01*
X124200000Y-66024626D01*
X124200000Y-66002452D01*
X124200000Y-66000000D01*
X124200477Y-65997600D01*
X124200952Y-65992775D01*
X124201885Y-65990521D01*
X124203806Y-65980866D01*
X124207355Y-65977316D01*
X124209240Y-65972767D01*
X124222767Y-65959240D01*
X124227316Y-65957355D01*
X124230866Y-65953806D01*
X124240521Y-65951885D01*
X124242775Y-65950952D01*
X124247600Y-65950477D01*
X124250000Y-65950000D01*
X171750000Y-65950000D01*
X171752399Y-65950477D01*
G37*
G36*
X138968858Y-111905133D02*
G01*
X138978316Y-111905133D01*
X139005563Y-111912433D01*
X139074099Y-111926066D01*
X139106448Y-111939465D01*
X139129610Y-111945672D01*
X139150377Y-111957662D01*
X139182722Y-111971060D01*
X139240816Y-112009877D01*
X139265257Y-112023988D01*
X139271946Y-112030677D01*
X139280481Y-112036380D01*
X139363619Y-112119518D01*
X139369321Y-112128052D01*
X139376012Y-112134743D01*
X139390124Y-112159186D01*
X139428939Y-112217277D01*
X139442335Y-112249618D01*
X139454328Y-112270390D01*
X139460535Y-112293555D01*
X139473933Y-112325900D01*
X139487565Y-112394433D01*
X139494867Y-112421684D01*
X139494867Y-112431141D01*
X139496870Y-112441211D01*
X139496870Y-112558788D01*
X139494867Y-112568857D01*
X139494867Y-112578316D01*
X139487564Y-112605569D01*
X139473933Y-112674099D01*
X139460535Y-112706441D01*
X139454328Y-112729610D01*
X139442334Y-112750383D01*
X139428939Y-112782722D01*
X139390128Y-112840805D01*
X139376012Y-112865257D01*
X139369319Y-112871949D01*
X139363619Y-112880481D01*
X139280481Y-112963619D01*
X139271949Y-112969319D01*
X139265257Y-112976012D01*
X139240805Y-112990128D01*
X139182722Y-113028939D01*
X139150383Y-113042334D01*
X139129610Y-113054328D01*
X139106441Y-113060535D01*
X139074099Y-113073933D01*
X139005569Y-113087564D01*
X138978316Y-113094867D01*
X138968858Y-113094867D01*
X138958788Y-113096870D01*
X138841212Y-113096870D01*
X138831142Y-113094867D01*
X138821684Y-113094867D01*
X138794432Y-113087564D01*
X138725900Y-113073933D01*
X138693555Y-113060535D01*
X138670390Y-113054328D01*
X138649618Y-113042335D01*
X138617277Y-113028939D01*
X138559186Y-112990124D01*
X138534743Y-112976012D01*
X138528052Y-112969321D01*
X138519518Y-112963619D01*
X138436380Y-112880481D01*
X138430677Y-112871946D01*
X138423988Y-112865257D01*
X138409877Y-112840816D01*
X138371060Y-112782722D01*
X138357662Y-112750377D01*
X138345672Y-112729610D01*
X138339465Y-112706448D01*
X138326066Y-112674099D01*
X138312433Y-112605563D01*
X138305133Y-112578316D01*
X138305133Y-112568858D01*
X138303130Y-112558788D01*
X138303130Y-112441211D01*
X138305133Y-112431140D01*
X138305133Y-112421684D01*
X138312433Y-112394439D01*
X138326066Y-112325900D01*
X138339466Y-112293548D01*
X138345672Y-112270390D01*
X138357660Y-112249624D01*
X138371060Y-112217277D01*
X138409881Y-112159175D01*
X138423988Y-112134743D01*
X138430675Y-112128055D01*
X138436380Y-112119518D01*
X138519518Y-112036380D01*
X138528055Y-112030675D01*
X138534743Y-112023988D01*
X138559175Y-112009881D01*
X138617277Y-111971060D01*
X138649624Y-111957660D01*
X138670390Y-111945672D01*
X138693548Y-111939466D01*
X138725900Y-111926066D01*
X138794437Y-111912433D01*
X138821684Y-111905133D01*
X138831142Y-111905133D01*
X138841212Y-111903130D01*
X138958788Y-111903130D01*
X138968858Y-111905133D01*
G37*
G36*
X141104047Y-109525805D02*
G01*
X141155408Y-109531764D01*
X141172954Y-109539511D01*
X141195671Y-109544030D01*
X141219991Y-109560280D01*
X141240793Y-109569465D01*
X141255000Y-109583672D01*
X141276777Y-109598223D01*
X141291327Y-109619999D01*
X141305534Y-109634206D01*
X141314718Y-109655006D01*
X141330970Y-109679329D01*
X141335489Y-109702048D01*
X141343235Y-109719591D01*
X141349192Y-109770940D01*
X141350000Y-109775000D01*
X141350000Y-111225000D01*
X141349192Y-111229059D01*
X141343235Y-111280408D01*
X141335489Y-111297950D01*
X141330970Y-111320671D01*
X141314716Y-111344995D01*
X141305534Y-111365793D01*
X141291329Y-111379997D01*
X141276777Y-111401777D01*
X141254997Y-111416329D01*
X141240793Y-111430534D01*
X141219995Y-111439716D01*
X141195671Y-111455970D01*
X141172950Y-111460489D01*
X141155408Y-111468235D01*
X141104061Y-111474192D01*
X141100000Y-111475000D01*
X139900000Y-111475000D01*
X139895941Y-111474192D01*
X139844591Y-111468235D01*
X139827048Y-111460489D01*
X139804329Y-111455970D01*
X139780006Y-111439718D01*
X139759206Y-111430534D01*
X139744999Y-111416327D01*
X139723223Y-111401777D01*
X139708672Y-111380000D01*
X139694465Y-111365793D01*
X139685280Y-111344991D01*
X139669030Y-111320671D01*
X139664511Y-111297954D01*
X139656764Y-111280408D01*
X139650805Y-111229049D01*
X139650000Y-111225000D01*
X139650000Y-109775000D01*
X139650804Y-109770953D01*
X139656764Y-109719591D01*
X139664511Y-109702043D01*
X139669030Y-109679329D01*
X139685278Y-109655010D01*
X139694465Y-109634206D01*
X139708674Y-109619996D01*
X139723223Y-109598223D01*
X139744996Y-109583674D01*
X139759206Y-109569465D01*
X139780010Y-109560278D01*
X139804329Y-109544030D01*
X139827043Y-109539511D01*
X139844591Y-109531764D01*
X139895952Y-109525805D01*
X139900000Y-109525000D01*
X141100000Y-109525000D01*
X141104047Y-109525805D01*
G37*
G36*
X143246742Y-109561601D02*
G01*
X143400687Y-109625367D01*
X143539234Y-109717941D01*
X143657059Y-109835766D01*
X143749633Y-109974313D01*
X143813399Y-110128258D01*
X143845907Y-110291685D01*
X143850000Y-110375000D01*
X143850000Y-110625000D01*
X143845907Y-110708315D01*
X143813399Y-110871742D01*
X143749633Y-111025687D01*
X143657059Y-111164234D01*
X143539234Y-111282059D01*
X143400687Y-111374633D01*
X143246742Y-111438399D01*
X143083315Y-111470907D01*
X142916685Y-111470907D01*
X142753258Y-111438399D01*
X142599313Y-111374633D01*
X142460766Y-111282059D01*
X142342941Y-111164234D01*
X142250367Y-111025687D01*
X142186601Y-110871742D01*
X142154093Y-110708315D01*
X142150000Y-110625000D01*
X142150000Y-110375000D01*
X142154093Y-110291685D01*
X142186601Y-110128258D01*
X142250367Y-109974313D01*
X142342941Y-109835766D01*
X142460766Y-109717941D01*
X142599313Y-109625367D01*
X142753258Y-109561601D01*
X142916685Y-109529093D01*
X143083315Y-109529093D01*
X143246742Y-109561601D01*
G37*
G36*
X145746742Y-109561601D02*
G01*
X145900687Y-109625367D01*
X146039234Y-109717941D01*
X146157059Y-109835766D01*
X146249633Y-109974313D01*
X146313399Y-110128258D01*
X146345907Y-110291685D01*
X146350000Y-110375000D01*
X146350000Y-110625000D01*
X146345907Y-110708315D01*
X146313399Y-110871742D01*
X146249633Y-111025687D01*
X146157059Y-111164234D01*
X146039234Y-111282059D01*
X145900687Y-111374633D01*
X145746742Y-111438399D01*
X145583315Y-111470907D01*
X145416685Y-111470907D01*
X145253258Y-111438399D01*
X145099313Y-111374633D01*
X144960766Y-111282059D01*
X144842941Y-111164234D01*
X144750367Y-111025687D01*
X144686601Y-110871742D01*
X144654093Y-110708315D01*
X144650000Y-110625000D01*
X144650000Y-110375000D01*
X144654093Y-110291685D01*
X144686601Y-110128258D01*
X144750367Y-109974313D01*
X144842941Y-109835766D01*
X144960766Y-109717941D01*
X145099313Y-109625367D01*
X145253258Y-109561601D01*
X145416685Y-109529093D01*
X145583315Y-109529093D01*
X145746742Y-109561601D01*
G37*
G36*
X148246742Y-109561601D02*
G01*
X148400687Y-109625367D01*
X148539234Y-109717941D01*
X148657059Y-109835766D01*
X148749633Y-109974313D01*
X148813399Y-110128258D01*
X148845907Y-110291685D01*
X148850000Y-110375000D01*
X148850000Y-110625000D01*
X148845907Y-110708315D01*
X148813399Y-110871742D01*
X148749633Y-111025687D01*
X148657059Y-111164234D01*
X148539234Y-111282059D01*
X148400687Y-111374633D01*
X148246742Y-111438399D01*
X148083315Y-111470907D01*
X147916685Y-111470907D01*
X147753258Y-111438399D01*
X147599313Y-111374633D01*
X147460766Y-111282059D01*
X147342941Y-111164234D01*
X147250367Y-111025687D01*
X147186601Y-110871742D01*
X147154093Y-110708315D01*
X147150000Y-110625000D01*
X147150000Y-110375000D01*
X147154093Y-110291685D01*
X147186601Y-110128258D01*
X147250367Y-109974313D01*
X147342941Y-109835766D01*
X147460766Y-109717941D01*
X147599313Y-109625367D01*
X147753258Y-109561601D01*
X147916685Y-109529093D01*
X148083315Y-109529093D01*
X148246742Y-109561601D01*
G37*
G36*
X150746742Y-109561601D02*
G01*
X150900687Y-109625367D01*
X151039234Y-109717941D01*
X151157059Y-109835766D01*
X151249633Y-109974313D01*
X151313399Y-110128258D01*
X151345907Y-110291685D01*
X151350000Y-110375000D01*
X151350000Y-110625000D01*
X151345907Y-110708315D01*
X151313399Y-110871742D01*
X151249633Y-111025687D01*
X151157059Y-111164234D01*
X151039234Y-111282059D01*
X150900687Y-111374633D01*
X150746742Y-111438399D01*
X150583315Y-111470907D01*
X150416685Y-111470907D01*
X150253258Y-111438399D01*
X150099313Y-111374633D01*
X149960766Y-111282059D01*
X149842941Y-111164234D01*
X149750367Y-111025687D01*
X149686601Y-110871742D01*
X149654093Y-110708315D01*
X149650000Y-110625000D01*
X149650000Y-110375000D01*
X149654093Y-110291685D01*
X149686601Y-110128258D01*
X149750367Y-109974313D01*
X149842941Y-109835766D01*
X149960766Y-109717941D01*
X150099313Y-109625367D01*
X150253258Y-109561601D01*
X150416685Y-109529093D01*
X150583315Y-109529093D01*
X150746742Y-109561601D01*
G37*
G36*
X153246742Y-109561601D02*
G01*
X153400687Y-109625367D01*
X153539234Y-109717941D01*
X153657059Y-109835766D01*
X153749633Y-109974313D01*
X153813399Y-110128258D01*
X153845907Y-110291685D01*
X153850000Y-110375000D01*
X153850000Y-110625000D01*
X153845907Y-110708315D01*
X153813399Y-110871742D01*
X153749633Y-111025687D01*
X153657059Y-111164234D01*
X153539234Y-111282059D01*
X153400687Y-111374633D01*
X153246742Y-111438399D01*
X153083315Y-111470907D01*
X152916685Y-111470907D01*
X152753258Y-111438399D01*
X152599313Y-111374633D01*
X152460766Y-111282059D01*
X152342941Y-111164234D01*
X152250367Y-111025687D01*
X152186601Y-110871742D01*
X152154093Y-110708315D01*
X152150000Y-110625000D01*
X152150000Y-110375000D01*
X152154093Y-110291685D01*
X152186601Y-110128258D01*
X152250367Y-109974313D01*
X152342941Y-109835766D01*
X152460766Y-109717941D01*
X152599313Y-109625367D01*
X152753258Y-109561601D01*
X152916685Y-109529093D01*
X153083315Y-109529093D01*
X153246742Y-109561601D01*
G37*
G36*
X155746742Y-109561601D02*
G01*
X155900687Y-109625367D01*
X156039234Y-109717941D01*
X156157059Y-109835766D01*
X156249633Y-109974313D01*
X156313399Y-110128258D01*
X156345907Y-110291685D01*
X156350000Y-110375000D01*
X156350000Y-110625000D01*
X156345907Y-110708315D01*
X156313399Y-110871742D01*
X156249633Y-111025687D01*
X156157059Y-111164234D01*
X156039234Y-111282059D01*
X155900687Y-111374633D01*
X155746742Y-111438399D01*
X155583315Y-111470907D01*
X155416685Y-111470907D01*
X155253258Y-111438399D01*
X155099313Y-111374633D01*
X154960766Y-111282059D01*
X154842941Y-111164234D01*
X154750367Y-111025687D01*
X154686601Y-110871742D01*
X154654093Y-110708315D01*
X154650000Y-110625000D01*
X154650000Y-110375000D01*
X154654093Y-110291685D01*
X154686601Y-110128258D01*
X154750367Y-109974313D01*
X154842941Y-109835766D01*
X154960766Y-109717941D01*
X155099313Y-109625367D01*
X155253258Y-109561601D01*
X155416685Y-109529093D01*
X155583315Y-109529093D01*
X155746742Y-109561601D01*
G37*
G36*
X147000000Y-106925000D02*
G01*
X146600000Y-106925000D01*
X146600000Y-106025000D01*
X147000000Y-106025000D01*
X147000000Y-106925000D01*
G37*
G36*
X147800000Y-106925000D02*
G01*
X147400000Y-106925000D01*
X147400000Y-106025000D01*
X147800000Y-106025000D01*
X147800000Y-106925000D01*
G37*
G36*
X148600000Y-106925000D02*
G01*
X148200000Y-106925000D01*
X148200000Y-106025000D01*
X148600000Y-106025000D01*
X148600000Y-106925000D01*
G37*
G36*
X149400000Y-106925000D02*
G01*
X149000000Y-106925000D01*
X149000000Y-106025000D01*
X149400000Y-106025000D01*
X149400000Y-106925000D01*
G37*
G36*
X145751537Y-106040224D02*
G01*
X145816421Y-106083579D01*
X145859776Y-106148463D01*
X145875000Y-106225000D01*
X145875000Y-106625000D01*
X145859776Y-106701537D01*
X145816421Y-106766421D01*
X145751537Y-106809776D01*
X145675000Y-106825000D01*
X145125000Y-106825000D01*
X145048463Y-106809776D01*
X144983579Y-106766421D01*
X144940224Y-106701537D01*
X144925000Y-106625000D01*
X144925000Y-106225000D01*
X144940224Y-106148463D01*
X144983579Y-106083579D01*
X145048463Y-106040224D01*
X145125000Y-106025000D01*
X145675000Y-106025000D01*
X145751537Y-106040224D01*
G37*
G36*
X160228712Y-105621651D02*
G01*
X160299680Y-105669070D01*
X160347099Y-105740038D01*
X160363750Y-105823750D01*
X160363750Y-106336250D01*
X160347099Y-106419962D01*
X160299680Y-106490930D01*
X160228712Y-106538349D01*
X160145000Y-106555000D01*
X159707500Y-106555000D01*
X159623788Y-106538349D01*
X159552820Y-106490930D01*
X159505401Y-106419962D01*
X159488750Y-106336250D01*
X159488750Y-105823750D01*
X159505401Y-105740038D01*
X159552820Y-105669070D01*
X159623788Y-105621651D01*
X159707500Y-105605000D01*
X160145000Y-105605000D01*
X160228712Y-105621651D01*
G37*
G36*
X161803712Y-105621651D02*
G01*
X161874680Y-105669070D01*
X161922099Y-105740038D01*
X161938750Y-105823750D01*
X161938750Y-106336250D01*
X161922099Y-106419962D01*
X161874680Y-106490930D01*
X161803712Y-106538349D01*
X161720000Y-106555000D01*
X161282500Y-106555000D01*
X161198788Y-106538349D01*
X161127820Y-106490930D01*
X161080401Y-106419962D01*
X161063750Y-106336250D01*
X161063750Y-105823750D01*
X161080401Y-105740038D01*
X161127820Y-105669070D01*
X161198788Y-105621651D01*
X161282500Y-105605000D01*
X161720000Y-105605000D01*
X161803712Y-105621651D01*
G37*
G36*
X163165287Y-105620224D02*
G01*
X163230171Y-105663579D01*
X163273526Y-105728463D01*
X163288750Y-105805000D01*
X163288750Y-106355000D01*
X163273526Y-106431537D01*
X163230171Y-106496421D01*
X163165287Y-106539776D01*
X163088750Y-106555000D01*
X162688750Y-106555000D01*
X162612213Y-106539776D01*
X162547329Y-106496421D01*
X162503974Y-106431537D01*
X162488750Y-106355000D01*
X162488750Y-105805000D01*
X162503974Y-105728463D01*
X162547329Y-105663579D01*
X162612213Y-105620224D01*
X162688750Y-105605000D01*
X163088750Y-105605000D01*
X163165287Y-105620224D01*
G37*
G36*
X164815287Y-105620224D02*
G01*
X164880171Y-105663579D01*
X164923526Y-105728463D01*
X164938750Y-105805000D01*
X164938750Y-106355000D01*
X164923526Y-106431537D01*
X164880171Y-106496421D01*
X164815287Y-106539776D01*
X164738750Y-106555000D01*
X164338750Y-106555000D01*
X164262213Y-106539776D01*
X164197329Y-106496421D01*
X164153974Y-106431537D01*
X164138750Y-106355000D01*
X164138750Y-105805000D01*
X164153974Y-105728463D01*
X164197329Y-105663579D01*
X164262213Y-105620224D01*
X164338750Y-105605000D01*
X164738750Y-105605000D01*
X164815287Y-105620224D01*
G37*
G36*
X142601537Y-104340224D02*
G01*
X142666421Y-104383579D01*
X142709776Y-104448463D01*
X142725000Y-104525000D01*
X142725000Y-105075000D01*
X142709776Y-105151537D01*
X142666421Y-105216421D01*
X142601537Y-105259776D01*
X142525000Y-105275000D01*
X142125000Y-105275000D01*
X142048463Y-105259776D01*
X141983579Y-105216421D01*
X141940224Y-105151537D01*
X141925000Y-105075000D01*
X141925000Y-104525000D01*
X141940224Y-104448463D01*
X141983579Y-104383579D01*
X142048463Y-104340224D01*
X142125000Y-104325000D01*
X142525000Y-104325000D01*
X142601537Y-104340224D01*
G37*
G36*
X144251537Y-104340224D02*
G01*
X144316421Y-104383579D01*
X144359776Y-104448463D01*
X144375000Y-104525000D01*
X144375000Y-105075000D01*
X144359776Y-105151537D01*
X144316421Y-105216421D01*
X144251537Y-105259776D01*
X144175000Y-105275000D01*
X143775000Y-105275000D01*
X143698463Y-105259776D01*
X143633579Y-105216421D01*
X143590224Y-105151537D01*
X143575000Y-105075000D01*
X143575000Y-104525000D01*
X143590224Y-104448463D01*
X143633579Y-104383579D01*
X143698463Y-104340224D01*
X143775000Y-104325000D01*
X144175000Y-104325000D01*
X144251537Y-104340224D01*
G37*
G36*
X147000000Y-105225000D02*
G01*
X146600000Y-105225000D01*
X146600000Y-104325000D01*
X147000000Y-104325000D01*
X147000000Y-105225000D01*
G37*
G36*
X147800000Y-105225000D02*
G01*
X147400000Y-105225000D01*
X147400000Y-104325000D01*
X147800000Y-104325000D01*
X147800000Y-105225000D01*
G37*
G36*
X148600000Y-105225000D02*
G01*
X148200000Y-105225000D01*
X148200000Y-104325000D01*
X148600000Y-104325000D01*
X148600000Y-105225000D01*
G37*
G36*
X149400000Y-105225000D02*
G01*
X149000000Y-105225000D01*
X149000000Y-104325000D01*
X149400000Y-104325000D01*
X149400000Y-105225000D01*
G37*
G36*
X127325000Y-105200000D02*
G01*
X125475000Y-105200000D01*
X125475000Y-103300000D01*
X127325000Y-103300000D01*
X127325000Y-105200000D01*
G37*
G36*
X131675000Y-105200000D02*
G01*
X129825000Y-105200000D01*
X129825000Y-103300000D01*
X131675000Y-103300000D01*
X131675000Y-105200000D01*
G37*
G36*
X145751537Y-104390224D02*
G01*
X145816421Y-104433579D01*
X145859776Y-104498463D01*
X145875000Y-104575000D01*
X145875000Y-104975000D01*
X145859776Y-105051537D01*
X145816421Y-105116421D01*
X145751537Y-105159776D01*
X145675000Y-105175000D01*
X145125000Y-105175000D01*
X145048463Y-105159776D01*
X144983579Y-105116421D01*
X144940224Y-105051537D01*
X144925000Y-104975000D01*
X144925000Y-104575000D01*
X144940224Y-104498463D01*
X144983579Y-104433579D01*
X145048463Y-104390224D01*
X145125000Y-104375000D01*
X145675000Y-104375000D01*
X145751537Y-104390224D01*
G37*
G36*
X160228712Y-104121651D02*
G01*
X160299680Y-104169070D01*
X160347099Y-104240038D01*
X160363750Y-104323750D01*
X160363750Y-104836250D01*
X160347099Y-104919962D01*
X160299680Y-104990930D01*
X160228712Y-105038349D01*
X160145000Y-105055000D01*
X159707500Y-105055000D01*
X159623788Y-105038349D01*
X159552820Y-104990930D01*
X159505401Y-104919962D01*
X159488750Y-104836250D01*
X159488750Y-104323750D01*
X159505401Y-104240038D01*
X159552820Y-104169070D01*
X159623788Y-104121651D01*
X159707500Y-104105000D01*
X160145000Y-104105000D01*
X160228712Y-104121651D01*
G37*
G36*
X161803712Y-104121651D02*
G01*
X161874680Y-104169070D01*
X161922099Y-104240038D01*
X161938750Y-104323750D01*
X161938750Y-104836250D01*
X161922099Y-104919962D01*
X161874680Y-104990930D01*
X161803712Y-105038349D01*
X161720000Y-105055000D01*
X161282500Y-105055000D01*
X161198788Y-105038349D01*
X161127820Y-104990930D01*
X161080401Y-104919962D01*
X161063750Y-104836250D01*
X161063750Y-104323750D01*
X161080401Y-104240038D01*
X161127820Y-104169070D01*
X161198788Y-104121651D01*
X161282500Y-104105000D01*
X161720000Y-104105000D01*
X161803712Y-104121651D01*
G37*
G36*
X163165287Y-104120224D02*
G01*
X163230171Y-104163579D01*
X163273526Y-104228463D01*
X163288750Y-104305000D01*
X163288750Y-104855000D01*
X163273526Y-104931537D01*
X163230171Y-104996421D01*
X163165287Y-105039776D01*
X163088750Y-105055000D01*
X162688750Y-105055000D01*
X162612213Y-105039776D01*
X162547329Y-104996421D01*
X162503974Y-104931537D01*
X162488750Y-104855000D01*
X162488750Y-104305000D01*
X162503974Y-104228463D01*
X162547329Y-104163579D01*
X162612213Y-104120224D01*
X162688750Y-104105000D01*
X163088750Y-104105000D01*
X163165287Y-104120224D01*
G37*
G36*
X164815287Y-104120224D02*
G01*
X164880171Y-104163579D01*
X164923526Y-104228463D01*
X164938750Y-104305000D01*
X164938750Y-104855000D01*
X164923526Y-104931537D01*
X164880171Y-104996421D01*
X164815287Y-105039776D01*
X164738750Y-105055000D01*
X164338750Y-105055000D01*
X164262213Y-105039776D01*
X164197329Y-104996421D01*
X164153974Y-104931537D01*
X164138750Y-104855000D01*
X164138750Y-104305000D01*
X164153974Y-104228463D01*
X164197329Y-104163579D01*
X164262213Y-104120224D01*
X164338750Y-104105000D01*
X164738750Y-104105000D01*
X164815287Y-104120224D01*
G37*
G36*
X160228712Y-102621651D02*
G01*
X160299680Y-102669070D01*
X160347099Y-102740038D01*
X160363750Y-102823750D01*
X160363750Y-103336250D01*
X160347099Y-103419962D01*
X160299680Y-103490930D01*
X160228712Y-103538349D01*
X160145000Y-103555000D01*
X159707500Y-103555000D01*
X159623788Y-103538349D01*
X159552820Y-103490930D01*
X159505401Y-103419962D01*
X159488750Y-103336250D01*
X159488750Y-102823750D01*
X159505401Y-102740038D01*
X159552820Y-102669070D01*
X159623788Y-102621651D01*
X159707500Y-102605000D01*
X160145000Y-102605000D01*
X160228712Y-102621651D01*
G37*
G36*
X161803712Y-102621651D02*
G01*
X161874680Y-102669070D01*
X161922099Y-102740038D01*
X161938750Y-102823750D01*
X161938750Y-103336250D01*
X161922099Y-103419962D01*
X161874680Y-103490930D01*
X161803712Y-103538349D01*
X161720000Y-103555000D01*
X161282500Y-103555000D01*
X161198788Y-103538349D01*
X161127820Y-103490930D01*
X161080401Y-103419962D01*
X161063750Y-103336250D01*
X161063750Y-102823750D01*
X161080401Y-102740038D01*
X161127820Y-102669070D01*
X161198788Y-102621651D01*
X161282500Y-102605000D01*
X161720000Y-102605000D01*
X161803712Y-102621651D01*
G37*
G36*
X163165287Y-102620224D02*
G01*
X163230171Y-102663579D01*
X163273526Y-102728463D01*
X163288750Y-102805000D01*
X163288750Y-103355000D01*
X163273526Y-103431537D01*
X163230171Y-103496421D01*
X163165287Y-103539776D01*
X163088750Y-103555000D01*
X162688750Y-103555000D01*
X162612213Y-103539776D01*
X162547329Y-103496421D01*
X162503974Y-103431537D01*
X162488750Y-103355000D01*
X162488750Y-102805000D01*
X162503974Y-102728463D01*
X162547329Y-102663579D01*
X162612213Y-102620224D01*
X162688750Y-102605000D01*
X163088750Y-102605000D01*
X163165287Y-102620224D01*
G37*
G36*
X164815287Y-102620224D02*
G01*
X164880171Y-102663579D01*
X164923526Y-102728463D01*
X164938750Y-102805000D01*
X164938750Y-103355000D01*
X164923526Y-103431537D01*
X164880171Y-103496421D01*
X164815287Y-103539776D01*
X164738750Y-103555000D01*
X164338750Y-103555000D01*
X164262213Y-103539776D01*
X164197329Y-103496421D01*
X164153974Y-103431537D01*
X164138750Y-103355000D01*
X164138750Y-102805000D01*
X164153974Y-102728463D01*
X164197329Y-102663579D01*
X164262213Y-102620224D01*
X164338750Y-102605000D01*
X164738750Y-102605000D01*
X164815287Y-102620224D01*
G37*
G36*
X133811104Y-101592127D02*
G01*
X133884099Y-101640901D01*
X133932873Y-101713896D01*
X133950000Y-101800000D01*
X133950000Y-102250000D01*
X133932873Y-102336104D01*
X133884099Y-102409099D01*
X133811104Y-102457873D01*
X133725000Y-102475000D01*
X133225000Y-102475000D01*
X133138896Y-102457873D01*
X133065901Y-102409099D01*
X133017127Y-102336104D01*
X133000000Y-102250000D01*
X133000000Y-101800000D01*
X133017127Y-101713896D01*
X133065901Y-101640901D01*
X133138896Y-101592127D01*
X133225000Y-101575000D01*
X133725000Y-101575000D01*
X133811104Y-101592127D01*
G37*
G36*
X135321104Y-101592127D02*
G01*
X135394099Y-101640901D01*
X135442873Y-101713896D01*
X135460000Y-101800000D01*
X135460000Y-102250000D01*
X135442873Y-102336104D01*
X135394099Y-102409099D01*
X135321104Y-102457873D01*
X135235000Y-102475000D01*
X134735000Y-102475000D01*
X134648896Y-102457873D01*
X134575901Y-102409099D01*
X134527127Y-102336104D01*
X134510000Y-102250000D01*
X134510000Y-101800000D01*
X134527127Y-101713896D01*
X134575901Y-101640901D01*
X134648896Y-101592127D01*
X134735000Y-101575000D01*
X135235000Y-101575000D01*
X135321104Y-101592127D01*
G37*
G36*
X140627323Y-99434687D02*
G01*
X140781630Y-99498603D01*
X140920503Y-99591395D01*
X141038605Y-99709497D01*
X141131397Y-99848370D01*
X141187323Y-99983388D01*
X141212184Y-100000000D01*
X144627816Y-100000000D01*
X144652676Y-99983388D01*
X144708603Y-99848370D01*
X144801395Y-99709497D01*
X144919497Y-99591395D01*
X145058370Y-99498603D01*
X145212677Y-99434687D01*
X145376489Y-99402103D01*
X145543511Y-99402103D01*
X145707323Y-99434687D01*
X145861630Y-99498603D01*
X146000503Y-99591395D01*
X146118605Y-99709497D01*
X146211397Y-99848370D01*
X146272661Y-99996274D01*
X146289056Y-100010653D01*
X146391342Y-100038060D01*
X146504381Y-100103323D01*
X146596677Y-100195619D01*
X146661940Y-100308658D01*
X146695722Y-100434737D01*
X146695722Y-100565263D01*
X146661940Y-100691342D01*
X146596677Y-100804381D01*
X146504381Y-100896677D01*
X146391342Y-100961940D01*
X146265263Y-100995722D01*
X146200000Y-101000000D01*
X146198363Y-101000000D01*
X145869394Y-101000000D01*
X145860947Y-101001679D01*
X145707323Y-101065313D01*
X145543511Y-101097897D01*
X145376489Y-101097897D01*
X145212677Y-101065313D01*
X145059052Y-101001679D01*
X145050606Y-101000000D01*
X140789394Y-101000000D01*
X140780947Y-101001679D01*
X140627323Y-101065313D01*
X140463511Y-101097897D01*
X140296489Y-101097897D01*
X140132677Y-101065313D01*
X139978370Y-101001397D01*
X139977342Y-101000710D01*
X139974577Y-100999565D01*
X139967230Y-100997851D01*
X139934737Y-100995722D01*
X139808658Y-100961940D01*
X139695619Y-100896677D01*
X139603323Y-100804381D01*
X139538060Y-100691342D01*
X139504278Y-100565263D01*
X139504278Y-100434737D01*
X139531915Y-100331590D01*
X139532103Y-100330165D01*
X139532103Y-100166489D01*
X139564687Y-100002677D01*
X139628603Y-99848370D01*
X139721395Y-99709497D01*
X139839497Y-99591395D01*
X139978370Y-99498603D01*
X140132677Y-99434687D01*
X140296489Y-99402103D01*
X140463511Y-99402103D01*
X140627323Y-99434687D01*
G37*
G36*
X133811104Y-100042127D02*
G01*
X133884099Y-100090901D01*
X133932873Y-100163896D01*
X133950000Y-100250000D01*
X133950000Y-100700000D01*
X133932873Y-100786104D01*
X133884099Y-100859099D01*
X133811104Y-100907873D01*
X133725000Y-100925000D01*
X133225000Y-100925000D01*
X133138896Y-100907873D01*
X133065901Y-100859099D01*
X133017127Y-100786104D01*
X133000000Y-100700000D01*
X133000000Y-100250000D01*
X133017127Y-100163896D01*
X133065901Y-100090901D01*
X133138896Y-100042127D01*
X133225000Y-100025000D01*
X133725000Y-100025000D01*
X133811104Y-100042127D01*
G37*
G36*
X135321104Y-100042127D02*
G01*
X135394099Y-100090901D01*
X135442873Y-100163896D01*
X135460000Y-100250000D01*
X135460000Y-100700000D01*
X135442873Y-100786104D01*
X135394099Y-100859099D01*
X135321104Y-100907873D01*
X135235000Y-100925000D01*
X134735000Y-100925000D01*
X134648896Y-100907873D01*
X134575901Y-100859099D01*
X134527127Y-100786104D01*
X134510000Y-100700000D01*
X134510000Y-100250000D01*
X134527127Y-100163896D01*
X134575901Y-100090901D01*
X134648896Y-100042127D01*
X134735000Y-100025000D01*
X135235000Y-100025000D01*
X135321104Y-100042127D01*
G37*
G36*
X126379047Y-98900805D02*
G01*
X126430408Y-98906764D01*
X126447954Y-98914511D01*
X126470671Y-98919030D01*
X126494991Y-98935280D01*
X126515793Y-98944465D01*
X126530000Y-98958672D01*
X126551777Y-98973223D01*
X126566327Y-98994999D01*
X126580534Y-99009206D01*
X126589718Y-99030006D01*
X126605970Y-99054329D01*
X126610489Y-99077048D01*
X126618235Y-99094591D01*
X126624192Y-99145940D01*
X126625000Y-99150000D01*
X126625000Y-99750000D01*
X126624192Y-99754059D01*
X126618235Y-99805408D01*
X126610489Y-99822950D01*
X126605970Y-99845671D01*
X126589716Y-99869995D01*
X126580534Y-99890793D01*
X126566329Y-99904997D01*
X126551777Y-99926777D01*
X126529997Y-99941329D01*
X126515793Y-99955534D01*
X126494995Y-99964716D01*
X126470671Y-99980970D01*
X126447950Y-99985489D01*
X126430408Y-99993235D01*
X126379061Y-99999192D01*
X126375000Y-100000000D01*
X125775000Y-100000000D01*
X125770941Y-99999192D01*
X125719591Y-99993235D01*
X125702048Y-99985489D01*
X125679329Y-99980970D01*
X125655006Y-99964718D01*
X125634206Y-99955534D01*
X125619999Y-99941327D01*
X125598223Y-99926777D01*
X125583672Y-99905000D01*
X125569465Y-99890793D01*
X125560280Y-99869991D01*
X125544030Y-99845671D01*
X125539511Y-99822954D01*
X125531764Y-99805408D01*
X125525805Y-99754049D01*
X125525000Y-99750000D01*
X125525000Y-99150000D01*
X125525804Y-99145953D01*
X125531764Y-99094591D01*
X125539511Y-99077043D01*
X125544030Y-99054329D01*
X125560278Y-99030010D01*
X125569465Y-99009206D01*
X125583674Y-98994996D01*
X125598223Y-98973223D01*
X125619996Y-98958674D01*
X125634206Y-98944465D01*
X125655010Y-98935278D01*
X125679329Y-98919030D01*
X125702043Y-98914511D01*
X125719591Y-98906764D01*
X125770952Y-98900805D01*
X125775000Y-98900000D01*
X126375000Y-98900000D01*
X126379047Y-98900805D01*
G37*
G36*
X154034571Y-96692929D02*
G01*
X154037500Y-96700000D01*
X154037500Y-97400000D01*
X154034571Y-97407071D01*
X154027500Y-97410000D01*
X154017556Y-97410000D01*
X153866789Y-97410000D01*
X153837500Y-97439289D01*
X153837500Y-98760711D01*
X153866789Y-98790000D01*
X154017556Y-98790000D01*
X154027500Y-98790000D01*
X154034571Y-98792929D01*
X154037500Y-98800000D01*
X154037500Y-99500000D01*
X154034571Y-99507071D01*
X154027500Y-99510000D01*
X154017556Y-99510000D01*
X153037444Y-99510000D01*
X153027500Y-99510000D01*
X153020429Y-99507071D01*
X153017500Y-99500000D01*
X153017500Y-98800000D01*
X153020429Y-98792929D01*
X153027500Y-98790000D01*
X153188211Y-98790000D01*
X153217500Y-98760711D01*
X153217500Y-97439289D01*
X153188211Y-97410000D01*
X153027500Y-97410000D01*
X153020429Y-97407071D01*
X153017500Y-97400000D01*
X153017500Y-96700000D01*
X153020429Y-96692929D01*
X153027500Y-96690000D01*
X154027500Y-96690000D01*
X154034571Y-96692929D01*
G37*
G36*
X133761104Y-98542127D02*
G01*
X133834099Y-98590901D01*
X133882873Y-98663896D01*
X133900000Y-98750000D01*
X133900000Y-99250000D01*
X133882873Y-99336104D01*
X133834099Y-99409099D01*
X133761104Y-99457873D01*
X133675000Y-99475000D01*
X133225000Y-99475000D01*
X133138896Y-99457873D01*
X133065901Y-99409099D01*
X133017127Y-99336104D01*
X133000000Y-99250000D01*
X133000000Y-98750000D01*
X133017127Y-98663896D01*
X133065901Y-98590901D01*
X133138896Y-98542127D01*
X133225000Y-98525000D01*
X133675000Y-98525000D01*
X133761104Y-98542127D01*
G37*
G36*
X135311104Y-98542127D02*
G01*
X135384099Y-98590901D01*
X135432873Y-98663896D01*
X135450000Y-98750000D01*
X135450000Y-99250000D01*
X135432873Y-99336104D01*
X135384099Y-99409099D01*
X135311104Y-99457873D01*
X135225000Y-99475000D01*
X134775000Y-99475000D01*
X134688896Y-99457873D01*
X134615901Y-99409099D01*
X134567127Y-99336104D01*
X134550000Y-99250000D01*
X134550000Y-98750000D01*
X134567127Y-98663896D01*
X134615901Y-98590901D01*
X134688896Y-98542127D01*
X134775000Y-98525000D01*
X135225000Y-98525000D01*
X135311104Y-98542127D01*
G37*
G36*
X129095000Y-99300000D02*
G01*
X128855000Y-99300000D01*
X128855000Y-98700000D01*
X129095000Y-98700000D01*
X129095000Y-99300000D01*
G37*
G36*
X129595000Y-99300000D02*
G01*
X129355000Y-99300000D01*
X129355000Y-98700000D01*
X129595000Y-98700000D01*
X129595000Y-99300000D01*
G37*
G36*
X130095000Y-99300000D02*
G01*
X129855000Y-99300000D01*
X129855000Y-98700000D01*
X130095000Y-98700000D01*
X130095000Y-99300000D01*
G37*
G36*
X130595000Y-99300000D02*
G01*
X130355000Y-99300000D01*
X130355000Y-98700000D01*
X130595000Y-98700000D01*
X130595000Y-99300000D01*
G37*
G36*
X131095000Y-99300000D02*
G01*
X130855000Y-99300000D01*
X130855000Y-98700000D01*
X131095000Y-98700000D01*
X131095000Y-99300000D01*
G37*
G36*
X131175000Y-97195712D02*
G01*
X131204288Y-97225000D01*
X131675000Y-97225000D01*
X131675000Y-97475000D01*
X131204287Y-97475000D01*
X131175000Y-97504287D01*
X131175000Y-97695712D01*
X131204288Y-97725000D01*
X131675000Y-97725000D01*
X131675000Y-97975000D01*
X131204287Y-97975000D01*
X131175000Y-98004287D01*
X131175000Y-98425000D01*
X128775000Y-98425000D01*
X128775000Y-98004288D01*
X128745712Y-97975000D01*
X128275000Y-97975000D01*
X128275000Y-97725000D01*
X128745711Y-97725000D01*
X128775000Y-97695711D01*
X128775000Y-97504288D01*
X128745712Y-97475000D01*
X128275000Y-97475000D01*
X128275000Y-97225000D01*
X128745711Y-97225000D01*
X128775000Y-97195711D01*
X128775000Y-96779922D01*
X128775000Y-96775000D01*
X131175000Y-96775000D01*
X131175000Y-97195712D01*
G37*
G36*
X126379047Y-96100805D02*
G01*
X126430408Y-96106764D01*
X126447954Y-96114511D01*
X126470671Y-96119030D01*
X126494991Y-96135280D01*
X126515793Y-96144465D01*
X126530000Y-96158672D01*
X126551777Y-96173223D01*
X126566327Y-96194999D01*
X126580534Y-96209206D01*
X126589718Y-96230006D01*
X126605970Y-96254329D01*
X126610489Y-96277048D01*
X126618235Y-96294591D01*
X126624192Y-96345940D01*
X126625000Y-96350000D01*
X126625000Y-96950000D01*
X126624192Y-96954059D01*
X126618235Y-97005408D01*
X126610489Y-97022950D01*
X126605970Y-97045671D01*
X126589716Y-97069995D01*
X126580534Y-97090793D01*
X126566329Y-97104997D01*
X126551777Y-97126777D01*
X126529997Y-97141329D01*
X126515793Y-97155534D01*
X126494995Y-97164716D01*
X126470671Y-97180970D01*
X126447950Y-97185489D01*
X126430408Y-97193235D01*
X126379061Y-97199192D01*
X126375000Y-97200000D01*
X125775000Y-97200000D01*
X125770941Y-97199192D01*
X125719591Y-97193235D01*
X125702048Y-97185489D01*
X125679329Y-97180970D01*
X125655006Y-97164718D01*
X125634206Y-97155534D01*
X125619999Y-97141327D01*
X125598223Y-97126777D01*
X125583672Y-97105000D01*
X125569465Y-97090793D01*
X125560280Y-97069991D01*
X125544030Y-97045671D01*
X125539511Y-97022954D01*
X125531764Y-97005408D01*
X125525805Y-96954049D01*
X125525000Y-96950000D01*
X125525000Y-96350000D01*
X125525804Y-96345953D01*
X125531764Y-96294591D01*
X125539511Y-96277043D01*
X125544030Y-96254329D01*
X125560278Y-96230010D01*
X125569465Y-96209206D01*
X125583674Y-96194996D01*
X125598223Y-96173223D01*
X125619996Y-96158674D01*
X125634206Y-96144465D01*
X125655010Y-96135278D01*
X125679329Y-96119030D01*
X125702043Y-96114511D01*
X125719591Y-96106764D01*
X125770952Y-96100805D01*
X125775000Y-96100000D01*
X126375000Y-96100000D01*
X126379047Y-96100805D01*
G37*
G36*
X129095000Y-96500000D02*
G01*
X128855000Y-96500000D01*
X128855000Y-95900000D01*
X129095000Y-95900000D01*
X129095000Y-96500000D01*
G37*
G36*
X129595000Y-96500000D02*
G01*
X129355000Y-96500000D01*
X129355000Y-95900000D01*
X129595000Y-95900000D01*
X129595000Y-96500000D01*
G37*
G36*
X130095000Y-96500000D02*
G01*
X129855000Y-96500000D01*
X129855000Y-95900000D01*
X130095000Y-95900000D01*
X130095000Y-96500000D01*
G37*
G36*
X130595000Y-96500000D02*
G01*
X130355000Y-96500000D01*
X130355000Y-95900000D01*
X130595000Y-95900000D01*
X130595000Y-96500000D01*
G37*
G36*
X131095000Y-96500000D02*
G01*
X130855000Y-96500000D01*
X130855000Y-95900000D01*
X131095000Y-95900000D01*
X131095000Y-96500000D01*
G37*
G36*
X152988604Y-95304627D02*
G01*
X153061599Y-95353401D01*
X153110373Y-95426396D01*
X153127500Y-95512500D01*
X153127500Y-96012500D01*
X153110373Y-96098604D01*
X153061599Y-96171599D01*
X152988604Y-96220373D01*
X152902500Y-96237500D01*
X152452500Y-96237500D01*
X152366396Y-96220373D01*
X152293401Y-96171599D01*
X152244627Y-96098604D01*
X152227500Y-96012500D01*
X152227500Y-95512500D01*
X152244627Y-95426396D01*
X152293401Y-95353401D01*
X152366396Y-95304627D01*
X152452500Y-95287500D01*
X152902500Y-95287500D01*
X152988604Y-95304627D01*
G37*
G36*
X154538604Y-95304627D02*
G01*
X154611599Y-95353401D01*
X154660373Y-95426396D01*
X154677500Y-95512500D01*
X154677500Y-96012500D01*
X154660373Y-96098604D01*
X154611599Y-96171599D01*
X154538604Y-96220373D01*
X154452500Y-96237500D01*
X154002500Y-96237500D01*
X153916396Y-96220373D01*
X153843401Y-96171599D01*
X153794627Y-96098604D01*
X153777500Y-96012500D01*
X153777500Y-95512500D01*
X153794627Y-95426396D01*
X153843401Y-95353401D01*
X153916396Y-95304627D01*
X154002500Y-95287500D01*
X154452500Y-95287500D01*
X154538604Y-95304627D01*
G37*
G36*
X155988604Y-95304627D02*
G01*
X156061599Y-95353401D01*
X156110373Y-95426396D01*
X156127500Y-95512500D01*
X156127500Y-96012500D01*
X156110373Y-96098604D01*
X156061599Y-96171599D01*
X155988604Y-96220373D01*
X155902500Y-96237500D01*
X155452500Y-96237500D01*
X155366396Y-96220373D01*
X155293401Y-96171599D01*
X155244627Y-96098604D01*
X155227500Y-96012500D01*
X155227500Y-95512500D01*
X155244627Y-95426396D01*
X155293401Y-95353401D01*
X155366396Y-95304627D01*
X155452500Y-95287500D01*
X155902500Y-95287500D01*
X155988604Y-95304627D01*
G37*
G36*
X157538604Y-95304627D02*
G01*
X157611599Y-95353401D01*
X157660373Y-95426396D01*
X157677500Y-95512500D01*
X157677500Y-96012500D01*
X157660373Y-96098604D01*
X157611599Y-96171599D01*
X157538604Y-96220373D01*
X157452500Y-96237500D01*
X157002500Y-96237500D01*
X156916396Y-96220373D01*
X156843401Y-96171599D01*
X156794627Y-96098604D01*
X156777500Y-96012500D01*
X156777500Y-95512500D01*
X156794627Y-95426396D01*
X156843401Y-95353401D01*
X156916396Y-95304627D01*
X157002500Y-95287500D01*
X157452500Y-95287500D01*
X157538604Y-95304627D01*
G37*
G36*
X133826537Y-95440224D02*
G01*
X133891421Y-95483579D01*
X133934776Y-95548463D01*
X133950000Y-95625000D01*
X133950000Y-96025000D01*
X133934776Y-96101537D01*
X133891421Y-96166421D01*
X133826537Y-96209776D01*
X133750000Y-96225000D01*
X133200000Y-96225000D01*
X133123463Y-96209776D01*
X133058579Y-96166421D01*
X133015224Y-96101537D01*
X133000000Y-96025000D01*
X133000000Y-95625000D01*
X133015224Y-95548463D01*
X133058579Y-95483579D01*
X133123463Y-95440224D01*
X133200000Y-95425000D01*
X133750000Y-95425000D01*
X133826537Y-95440224D01*
G37*
G36*
X141486104Y-94842127D02*
G01*
X141559099Y-94890901D01*
X141607873Y-94963896D01*
X141625000Y-95050000D01*
X141625000Y-95500000D01*
X141607873Y-95586104D01*
X141559099Y-95659099D01*
X141486104Y-95707873D01*
X141400000Y-95725000D01*
X140900000Y-95725000D01*
X140813896Y-95707873D01*
X140740901Y-95659099D01*
X140692127Y-95586104D01*
X140675000Y-95500000D01*
X140675000Y-95050000D01*
X140692127Y-94963896D01*
X140740901Y-94890901D01*
X140813896Y-94842127D01*
X140900000Y-94825000D01*
X141400000Y-94825000D01*
X141486104Y-94842127D01*
G37*
G36*
X142986104Y-94842127D02*
G01*
X143059099Y-94890901D01*
X143107873Y-94963896D01*
X143125000Y-95050000D01*
X143125000Y-95500000D01*
X143107873Y-95586104D01*
X143059099Y-95659099D01*
X142986104Y-95707873D01*
X142900000Y-95725000D01*
X142400000Y-95725000D01*
X142313896Y-95707873D01*
X142240901Y-95659099D01*
X142192127Y-95586104D01*
X142175000Y-95500000D01*
X142175000Y-95050000D01*
X142192127Y-94963896D01*
X142240901Y-94890901D01*
X142313896Y-94842127D01*
X142400000Y-94825000D01*
X142900000Y-94825000D01*
X142986104Y-94842127D01*
G37*
G36*
X125361104Y-94642127D02*
G01*
X125434099Y-94690901D01*
X125482873Y-94763896D01*
X125500000Y-94850000D01*
X125500000Y-95350000D01*
X125482873Y-95436104D01*
X125434099Y-95509099D01*
X125361104Y-95557873D01*
X125275000Y-95575000D01*
X124825000Y-95575000D01*
X124738896Y-95557873D01*
X124665901Y-95509099D01*
X124617127Y-95436104D01*
X124600000Y-95350000D01*
X124600000Y-94850000D01*
X124617127Y-94763896D01*
X124665901Y-94690901D01*
X124738896Y-94642127D01*
X124825000Y-94625000D01*
X125275000Y-94625000D01*
X125361104Y-94642127D01*
G37*
G36*
X126911104Y-94642127D02*
G01*
X126984099Y-94690901D01*
X127032873Y-94763896D01*
X127050000Y-94850000D01*
X127050000Y-95350000D01*
X127032873Y-95436104D01*
X126984099Y-95509099D01*
X126911104Y-95557873D01*
X126825000Y-95575000D01*
X126375000Y-95575000D01*
X126288896Y-95557873D01*
X126215901Y-95509099D01*
X126167127Y-95436104D01*
X126150000Y-95350000D01*
X126150000Y-94850000D01*
X126167127Y-94763896D01*
X126215901Y-94690901D01*
X126288896Y-94642127D01*
X126375000Y-94625000D01*
X126825000Y-94625000D01*
X126911104Y-94642127D01*
G37*
G36*
X145825000Y-95300000D02*
G01*
X144375000Y-95300000D01*
X144375000Y-94850000D01*
X145825000Y-94850000D01*
X145825000Y-95300000D01*
G37*
G36*
X151625000Y-95300000D02*
G01*
X150175000Y-95300000D01*
X150175000Y-94850000D01*
X151625000Y-94850000D01*
X151625000Y-95300000D01*
G37*
G36*
X155811104Y-94042127D02*
G01*
X155884099Y-94090901D01*
X155932873Y-94163896D01*
X155950000Y-94250000D01*
X155950000Y-94750000D01*
X155932873Y-94836104D01*
X155884099Y-94909099D01*
X155811104Y-94957873D01*
X155725000Y-94975000D01*
X155275000Y-94975000D01*
X155188896Y-94957873D01*
X155115901Y-94909099D01*
X155067127Y-94836104D01*
X155050000Y-94750000D01*
X155050000Y-94250000D01*
X155067127Y-94163896D01*
X155115901Y-94090901D01*
X155188896Y-94042127D01*
X155275000Y-94025000D01*
X155725000Y-94025000D01*
X155811104Y-94042127D01*
G37*
G36*
X157361104Y-94042127D02*
G01*
X157434099Y-94090901D01*
X157482873Y-94163896D01*
X157500000Y-94250000D01*
X157500000Y-94750000D01*
X157482873Y-94836104D01*
X157434099Y-94909099D01*
X157361104Y-94957873D01*
X157275000Y-94975000D01*
X156825000Y-94975000D01*
X156738896Y-94957873D01*
X156665901Y-94909099D01*
X156617127Y-94836104D01*
X156600000Y-94750000D01*
X156600000Y-94250000D01*
X156617127Y-94163896D01*
X156665901Y-94090901D01*
X156738896Y-94042127D01*
X156825000Y-94025000D01*
X157275000Y-94025000D01*
X157361104Y-94042127D01*
G37*
G36*
X145825000Y-94650000D02*
G01*
X144375000Y-94650000D01*
X144375000Y-94200000D01*
X145825000Y-94200000D01*
X145825000Y-94650000D01*
G37*
G36*
X151625000Y-94650000D02*
G01*
X150175000Y-94650000D01*
X150175000Y-94200000D01*
X151625000Y-94200000D01*
X151625000Y-94650000D01*
G37*
G36*
X129101537Y-93640224D02*
G01*
X129166421Y-93683579D01*
X129209776Y-93748463D01*
X129225000Y-93825000D01*
X129225000Y-94375000D01*
X129209776Y-94451537D01*
X129166421Y-94516421D01*
X129101537Y-94559776D01*
X129025000Y-94575000D01*
X128625000Y-94575000D01*
X128548463Y-94559776D01*
X128483579Y-94516421D01*
X128440224Y-94451537D01*
X128425000Y-94375000D01*
X128425000Y-93825000D01*
X128440224Y-93748463D01*
X128483579Y-93683579D01*
X128548463Y-93640224D01*
X128625000Y-93625000D01*
X129025000Y-93625000D01*
X129101537Y-93640224D01*
G37*
G36*
X130751537Y-93640224D02*
G01*
X130816421Y-93683579D01*
X130859776Y-93748463D01*
X130875000Y-93825000D01*
X130875000Y-94375000D01*
X130859776Y-94451537D01*
X130816421Y-94516421D01*
X130751537Y-94559776D01*
X130675000Y-94575000D01*
X130275000Y-94575000D01*
X130198463Y-94559776D01*
X130133579Y-94516421D01*
X130090224Y-94451537D01*
X130075000Y-94375000D01*
X130075000Y-93825000D01*
X130090224Y-93748463D01*
X130133579Y-93683579D01*
X130198463Y-93640224D01*
X130275000Y-93625000D01*
X130675000Y-93625000D01*
X130751537Y-93640224D01*
G37*
G36*
X132311104Y-93692127D02*
G01*
X132384099Y-93740901D01*
X132432873Y-93813896D01*
X132450000Y-93900000D01*
X132450000Y-94350000D01*
X132432873Y-94436104D01*
X132384099Y-94509099D01*
X132311104Y-94557873D01*
X132225000Y-94575000D01*
X131725000Y-94575000D01*
X131638896Y-94557873D01*
X131565901Y-94509099D01*
X131517127Y-94436104D01*
X131500000Y-94350000D01*
X131500000Y-93900000D01*
X131517127Y-93813896D01*
X131565901Y-93740901D01*
X131638896Y-93692127D01*
X131725000Y-93675000D01*
X132225000Y-93675000D01*
X132311104Y-93692127D01*
G37*
G36*
X133826537Y-93790224D02*
G01*
X133891421Y-93833579D01*
X133934776Y-93898463D01*
X133950000Y-93975000D01*
X133950000Y-94375000D01*
X133934776Y-94451537D01*
X133891421Y-94516421D01*
X133826537Y-94559776D01*
X133750000Y-94575000D01*
X133200000Y-94575000D01*
X133123463Y-94559776D01*
X133058579Y-94516421D01*
X133015224Y-94451537D01*
X133000000Y-94375000D01*
X133000000Y-93975000D01*
X133015224Y-93898463D01*
X133058579Y-93833579D01*
X133123463Y-93790224D01*
X133200000Y-93775000D01*
X133750000Y-93775000D01*
X133826537Y-93790224D01*
G37*
G36*
X141486104Y-93292127D02*
G01*
X141559099Y-93340901D01*
X141607873Y-93413896D01*
X141625000Y-93500000D01*
X141625000Y-93950000D01*
X141607873Y-94036104D01*
X141559099Y-94109099D01*
X141486104Y-94157873D01*
X141400000Y-94175000D01*
X140900000Y-94175000D01*
X140813896Y-94157873D01*
X140740901Y-94109099D01*
X140692127Y-94036104D01*
X140675000Y-93950000D01*
X140675000Y-93500000D01*
X140692127Y-93413896D01*
X140740901Y-93340901D01*
X140813896Y-93292127D01*
X140900000Y-93275000D01*
X141400000Y-93275000D01*
X141486104Y-93292127D01*
G37*
G36*
X142986104Y-93292127D02*
G01*
X143059099Y-93340901D01*
X143107873Y-93413896D01*
X143125000Y-93500000D01*
X143125000Y-93950000D01*
X143107873Y-94036104D01*
X143059099Y-94109099D01*
X142986104Y-94157873D01*
X142900000Y-94175000D01*
X142400000Y-94175000D01*
X142313896Y-94157873D01*
X142240901Y-94109099D01*
X142192127Y-94036104D01*
X142175000Y-93950000D01*
X142175000Y-93500000D01*
X142192127Y-93413896D01*
X142240901Y-93340901D01*
X142313896Y-93292127D01*
X142400000Y-93275000D01*
X142900000Y-93275000D01*
X142986104Y-93292127D01*
G37*
G36*
X125361104Y-93132127D02*
G01*
X125434099Y-93180901D01*
X125482873Y-93253896D01*
X125500000Y-93340000D01*
X125500000Y-93840000D01*
X125482873Y-93926104D01*
X125434099Y-93999099D01*
X125361104Y-94047873D01*
X125275000Y-94065000D01*
X124825000Y-94065000D01*
X124738896Y-94047873D01*
X124665901Y-93999099D01*
X124617127Y-93926104D01*
X124600000Y-93840000D01*
X124600000Y-93340000D01*
X124617127Y-93253896D01*
X124665901Y-93180901D01*
X124738896Y-93132127D01*
X124825000Y-93115000D01*
X125275000Y-93115000D01*
X125361104Y-93132127D01*
G37*
G36*
X126911104Y-93132127D02*
G01*
X126984099Y-93180901D01*
X127032873Y-93253896D01*
X127050000Y-93340000D01*
X127050000Y-93840000D01*
X127032873Y-93926104D01*
X126984099Y-93999099D01*
X126911104Y-94047873D01*
X126825000Y-94065000D01*
X126375000Y-94065000D01*
X126288896Y-94047873D01*
X126215901Y-93999099D01*
X126167127Y-93926104D01*
X126150000Y-93840000D01*
X126150000Y-93340000D01*
X126167127Y-93253896D01*
X126215901Y-93180901D01*
X126288896Y-93132127D01*
X126375000Y-93115000D01*
X126825000Y-93115000D01*
X126911104Y-93132127D01*
G37*
G36*
X145825000Y-94000000D02*
G01*
X144375000Y-94000000D01*
X144375000Y-93550000D01*
X145825000Y-93550000D01*
X145825000Y-94000000D01*
G37*
G36*
X151625000Y-94000000D02*
G01*
X150175000Y-94000000D01*
X150175000Y-93550000D01*
X151625000Y-93550000D01*
X151625000Y-94000000D01*
G37*
G36*
X155736104Y-92842127D02*
G01*
X155809099Y-92890901D01*
X155857873Y-92963896D01*
X155875000Y-93050000D01*
X155875000Y-93550000D01*
X155857873Y-93636104D01*
X155809099Y-93709099D01*
X155736104Y-93757873D01*
X155650000Y-93775000D01*
X155200000Y-93775000D01*
X155113896Y-93757873D01*
X155040901Y-93709099D01*
X154992127Y-93636104D01*
X154975000Y-93550000D01*
X154975000Y-93050000D01*
X154992127Y-92963896D01*
X155040901Y-92890901D01*
X155113896Y-92842127D01*
X155200000Y-92825000D01*
X155650000Y-92825000D01*
X155736104Y-92842127D01*
G37*
G36*
X157286104Y-92842127D02*
G01*
X157359099Y-92890901D01*
X157407873Y-92963896D01*
X157425000Y-93050000D01*
X157425000Y-93550000D01*
X157407873Y-93636104D01*
X157359099Y-93709099D01*
X157286104Y-93757873D01*
X157200000Y-93775000D01*
X156750000Y-93775000D01*
X156663896Y-93757873D01*
X156590901Y-93709099D01*
X156542127Y-93636104D01*
X156525000Y-93550000D01*
X156525000Y-93050000D01*
X156542127Y-92963896D01*
X156590901Y-92890901D01*
X156663896Y-92842127D01*
X156750000Y-92825000D01*
X157200000Y-92825000D01*
X157286104Y-92842127D01*
G37*
G36*
X145825000Y-93350000D02*
G01*
X144375000Y-93350000D01*
X144375000Y-92900000D01*
X145825000Y-92900000D01*
X145825000Y-93350000D01*
G37*
G36*
X151625000Y-93350000D02*
G01*
X150175000Y-93350000D01*
X150175000Y-92900000D01*
X151625000Y-92900000D01*
X151625000Y-93350000D01*
G37*
G36*
X129101537Y-92170224D02*
G01*
X129166421Y-92213579D01*
X129209776Y-92278463D01*
X129225000Y-92355000D01*
X129225000Y-92905000D01*
X129209776Y-92981537D01*
X129166421Y-93046421D01*
X129101537Y-93089776D01*
X129025000Y-93105000D01*
X128625000Y-93105000D01*
X128548463Y-93089776D01*
X128483579Y-93046421D01*
X128440224Y-92981537D01*
X128425000Y-92905000D01*
X128425000Y-92355000D01*
X128440224Y-92278463D01*
X128483579Y-92213579D01*
X128548463Y-92170224D01*
X128625000Y-92155000D01*
X129025000Y-92155000D01*
X129101537Y-92170224D01*
G37*
G36*
X130751537Y-92170224D02*
G01*
X130816421Y-92213579D01*
X130859776Y-92278463D01*
X130875000Y-92355000D01*
X130875000Y-92905000D01*
X130859776Y-92981537D01*
X130816421Y-93046421D01*
X130751537Y-93089776D01*
X130675000Y-93105000D01*
X130275000Y-93105000D01*
X130198463Y-93089776D01*
X130133579Y-93046421D01*
X130090224Y-92981537D01*
X130075000Y-92905000D01*
X130075000Y-92355000D01*
X130090224Y-92278463D01*
X130133579Y-92213579D01*
X130198463Y-92170224D01*
X130275000Y-92155000D01*
X130675000Y-92155000D01*
X130751537Y-92170224D01*
G37*
G36*
X132311104Y-92142127D02*
G01*
X132384099Y-92190901D01*
X132432873Y-92263896D01*
X132450000Y-92350000D01*
X132450000Y-92800000D01*
X132432873Y-92886104D01*
X132384099Y-92959099D01*
X132311104Y-93007873D01*
X132225000Y-93025000D01*
X131725000Y-93025000D01*
X131638896Y-93007873D01*
X131565901Y-92959099D01*
X131517127Y-92886104D01*
X131500000Y-92800000D01*
X131500000Y-92350000D01*
X131517127Y-92263896D01*
X131565901Y-92190901D01*
X131638896Y-92142127D01*
X131725000Y-92125000D01*
X132225000Y-92125000D01*
X132311104Y-92142127D01*
G37*
G36*
X152651537Y-92040224D02*
G01*
X152716421Y-92083579D01*
X152759776Y-92148463D01*
X152775000Y-92225000D01*
X152775000Y-92775000D01*
X152759776Y-92851537D01*
X152716421Y-92916421D01*
X152651537Y-92959776D01*
X152575000Y-92975000D01*
X152175000Y-92975000D01*
X152098463Y-92959776D01*
X152033579Y-92916421D01*
X151990224Y-92851537D01*
X151975000Y-92775000D01*
X151975000Y-92225000D01*
X151990224Y-92148463D01*
X152033579Y-92083579D01*
X152098463Y-92040224D01*
X152175000Y-92025000D01*
X152575000Y-92025000D01*
X152651537Y-92040224D01*
G37*
G36*
X154301537Y-92040224D02*
G01*
X154366421Y-92083579D01*
X154409776Y-92148463D01*
X154425000Y-92225000D01*
X154425000Y-92775000D01*
X154409776Y-92851537D01*
X154366421Y-92916421D01*
X154301537Y-92959776D01*
X154225000Y-92975000D01*
X153825000Y-92975000D01*
X153748463Y-92959776D01*
X153683579Y-92916421D01*
X153640224Y-92851537D01*
X153625000Y-92775000D01*
X153625000Y-92225000D01*
X153640224Y-92148463D01*
X153683579Y-92083579D01*
X153748463Y-92040224D01*
X153825000Y-92025000D01*
X154225000Y-92025000D01*
X154301537Y-92040224D01*
G37*
G36*
X141486104Y-91842127D02*
G01*
X141559099Y-91890901D01*
X141607873Y-91963896D01*
X141625000Y-92050000D01*
X141625000Y-92500000D01*
X141607873Y-92586104D01*
X141559099Y-92659099D01*
X141486104Y-92707873D01*
X141400000Y-92725000D01*
X140900000Y-92725000D01*
X140813896Y-92707873D01*
X140740901Y-92659099D01*
X140692127Y-92586104D01*
X140675000Y-92500000D01*
X140675000Y-92050000D01*
X140692127Y-91963896D01*
X140740901Y-91890901D01*
X140813896Y-91842127D01*
X140900000Y-91825000D01*
X141400000Y-91825000D01*
X141486104Y-91842127D01*
G37*
G36*
X142986104Y-91842127D02*
G01*
X143059099Y-91890901D01*
X143107873Y-91963896D01*
X143125000Y-92050000D01*
X143125000Y-92500000D01*
X143107873Y-92586104D01*
X143059099Y-92659099D01*
X142986104Y-92707873D01*
X142900000Y-92725000D01*
X142400000Y-92725000D01*
X142313896Y-92707873D01*
X142240901Y-92659099D01*
X142192127Y-92586104D01*
X142175000Y-92500000D01*
X142175000Y-92050000D01*
X142192127Y-91963896D01*
X142240901Y-91890901D01*
X142313896Y-91842127D01*
X142400000Y-91825000D01*
X142900000Y-91825000D01*
X142986104Y-91842127D01*
G37*
G36*
X145825000Y-92700000D02*
G01*
X144375000Y-92700000D01*
X144375000Y-92250000D01*
X145825000Y-92250000D01*
X145825000Y-92700000D01*
G37*
G36*
X151625000Y-92700000D02*
G01*
X150175000Y-92700000D01*
X150175000Y-92250000D01*
X151625000Y-92250000D01*
X151625000Y-92700000D01*
G37*
G36*
X155257403Y-90786418D02*
G01*
X155306066Y-90818934D01*
X155338582Y-90867597D01*
X155350000Y-90925000D01*
X155350000Y-91950000D01*
X155338582Y-92007403D01*
X155306066Y-92056066D01*
X155257403Y-92088582D01*
X155200000Y-92100000D01*
X154900000Y-92100000D01*
X154842597Y-92088582D01*
X154793934Y-92056066D01*
X154761418Y-92007403D01*
X154750000Y-91950000D01*
X154750000Y-90925000D01*
X154761418Y-90867597D01*
X154793934Y-90818934D01*
X154842597Y-90786418D01*
X154900000Y-90775000D01*
X155200000Y-90775000D01*
X155257403Y-90786418D01*
G37*
G36*
X157157403Y-90786418D02*
G01*
X157206066Y-90818934D01*
X157238582Y-90867597D01*
X157250000Y-90925000D01*
X157250000Y-91950000D01*
X157238582Y-92007403D01*
X157206066Y-92056066D01*
X157157403Y-92088582D01*
X157100000Y-92100000D01*
X156800000Y-92100000D01*
X156742597Y-92088582D01*
X156693934Y-92056066D01*
X156661418Y-92007403D01*
X156650000Y-91950000D01*
X156650000Y-90925000D01*
X156661418Y-90867597D01*
X156693934Y-90818934D01*
X156742597Y-90786418D01*
X156800000Y-90775000D01*
X157100000Y-90775000D01*
X157157403Y-90786418D01*
G37*
G36*
X145825000Y-92050000D02*
G01*
X144375000Y-92050000D01*
X144375000Y-91600000D01*
X145825000Y-91600000D01*
X145825000Y-92050000D01*
G37*
G36*
X151625000Y-92050000D02*
G01*
X150175000Y-92050000D01*
X150175000Y-91600000D01*
X151625000Y-91600000D01*
X151625000Y-92050000D01*
G37*
G36*
X129051537Y-90640224D02*
G01*
X129116421Y-90683579D01*
X129159776Y-90748463D01*
X129175000Y-90825000D01*
X129175000Y-91375000D01*
X129159776Y-91451537D01*
X129116421Y-91516421D01*
X129051537Y-91559776D01*
X128975000Y-91575000D01*
X128575000Y-91575000D01*
X128498463Y-91559776D01*
X128433579Y-91516421D01*
X128390224Y-91451537D01*
X128375000Y-91375000D01*
X128375000Y-90825000D01*
X128390224Y-90748463D01*
X128433579Y-90683579D01*
X128498463Y-90640224D01*
X128575000Y-90625000D01*
X128975000Y-90625000D01*
X129051537Y-90640224D01*
G37*
G36*
X130701537Y-90640224D02*
G01*
X130766421Y-90683579D01*
X130809776Y-90748463D01*
X130825000Y-90825000D01*
X130825000Y-91375000D01*
X130809776Y-91451537D01*
X130766421Y-91516421D01*
X130701537Y-91559776D01*
X130625000Y-91575000D01*
X130225000Y-91575000D01*
X130148463Y-91559776D01*
X130083579Y-91516421D01*
X130040224Y-91451537D01*
X130025000Y-91375000D01*
X130025000Y-90825000D01*
X130040224Y-90748463D01*
X130083579Y-90683579D01*
X130148463Y-90640224D01*
X130225000Y-90625000D01*
X130625000Y-90625000D01*
X130701537Y-90640224D01*
G37*
G36*
X145825000Y-91400000D02*
G01*
X144375000Y-91400000D01*
X144375000Y-90950000D01*
X145825000Y-90950000D01*
X145825000Y-91400000D01*
G37*
G36*
X151625000Y-91400000D02*
G01*
X150175000Y-91400000D01*
X150175000Y-90950000D01*
X151625000Y-90950000D01*
X151625000Y-91400000D01*
G37*
G36*
X141486104Y-90292127D02*
G01*
X141559099Y-90340901D01*
X141607873Y-90413896D01*
X141625000Y-90500000D01*
X141625000Y-90950000D01*
X141607873Y-91036104D01*
X141559099Y-91109099D01*
X141486104Y-91157873D01*
X141400000Y-91175000D01*
X140900000Y-91175000D01*
X140813896Y-91157873D01*
X140740901Y-91109099D01*
X140692127Y-91036104D01*
X140675000Y-90950000D01*
X140675000Y-90500000D01*
X140692127Y-90413896D01*
X140740901Y-90340901D01*
X140813896Y-90292127D01*
X140900000Y-90275000D01*
X141400000Y-90275000D01*
X141486104Y-90292127D01*
G37*
G36*
X142986104Y-90292127D02*
G01*
X143059099Y-90340901D01*
X143107873Y-90413896D01*
X143125000Y-90500000D01*
X143125000Y-90950000D01*
X143107873Y-91036104D01*
X143059099Y-91109099D01*
X142986104Y-91157873D01*
X142900000Y-91175000D01*
X142400000Y-91175000D01*
X142313896Y-91157873D01*
X142240901Y-91109099D01*
X142192127Y-91036104D01*
X142175000Y-90950000D01*
X142175000Y-90500000D01*
X142192127Y-90413896D01*
X142240901Y-90340901D01*
X142313896Y-90292127D01*
X142400000Y-90275000D01*
X142900000Y-90275000D01*
X142986104Y-90292127D01*
G37*
G36*
X145825000Y-90750000D02*
G01*
X144375000Y-90750000D01*
X144375000Y-90300000D01*
X145825000Y-90300000D01*
X145825000Y-90750000D01*
G37*
G36*
X151625000Y-90750000D02*
G01*
X150175000Y-90750000D01*
X150175000Y-90300000D01*
X151625000Y-90300000D01*
X151625000Y-90750000D01*
G37*
G36*
X129003701Y-88669556D02*
G01*
X129028033Y-88685814D01*
X129044291Y-88710146D01*
X129050000Y-88738847D01*
X129050000Y-90038847D01*
X129044291Y-90067548D01*
X129028033Y-90091880D01*
X129003701Y-90108138D01*
X128975000Y-90113847D01*
X128825000Y-90113847D01*
X128796299Y-90108138D01*
X128771967Y-90091880D01*
X128755709Y-90067548D01*
X128750000Y-90038847D01*
X128750000Y-88738847D01*
X128755709Y-88710146D01*
X128771967Y-88685814D01*
X128796299Y-88669556D01*
X128825000Y-88663847D01*
X128975000Y-88663847D01*
X129003701Y-88669556D01*
G37*
G36*
X129503701Y-88669556D02*
G01*
X129528033Y-88685814D01*
X129544291Y-88710146D01*
X129550000Y-88738847D01*
X129550000Y-90038847D01*
X129544291Y-90067548D01*
X129528033Y-90091880D01*
X129503701Y-90108138D01*
X129475000Y-90113847D01*
X129325000Y-90113847D01*
X129296299Y-90108138D01*
X129271967Y-90091880D01*
X129255709Y-90067548D01*
X129250000Y-90038847D01*
X129250000Y-88738847D01*
X129255709Y-88710146D01*
X129271967Y-88685814D01*
X129296299Y-88669556D01*
X129325000Y-88663847D01*
X129475000Y-88663847D01*
X129503701Y-88669556D01*
G37*
G36*
X130003701Y-88669556D02*
G01*
X130028033Y-88685814D01*
X130044291Y-88710146D01*
X130050000Y-88738847D01*
X130050000Y-90038847D01*
X130044291Y-90067548D01*
X130028033Y-90091880D01*
X130003701Y-90108138D01*
X129975000Y-90113847D01*
X129825000Y-90113847D01*
X129796299Y-90108138D01*
X129771967Y-90091880D01*
X129755709Y-90067548D01*
X129750000Y-90038847D01*
X129750000Y-88738847D01*
X129755709Y-88710146D01*
X129771967Y-88685814D01*
X129796299Y-88669556D01*
X129825000Y-88663847D01*
X129975000Y-88663847D01*
X130003701Y-88669556D01*
G37*
G36*
X130503701Y-88669556D02*
G01*
X130528033Y-88685814D01*
X130544291Y-88710146D01*
X130550000Y-88738847D01*
X130550000Y-90038847D01*
X130544291Y-90067548D01*
X130528033Y-90091880D01*
X130503701Y-90108138D01*
X130475000Y-90113847D01*
X130325000Y-90113847D01*
X130296299Y-90108138D01*
X130271967Y-90091880D01*
X130255709Y-90067548D01*
X130250000Y-90038847D01*
X130250000Y-88738847D01*
X130255709Y-88710146D01*
X130271967Y-88685814D01*
X130296299Y-88669556D01*
X130325000Y-88663847D01*
X130475000Y-88663847D01*
X130503701Y-88669556D01*
G37*
G36*
X131003701Y-88669556D02*
G01*
X131028033Y-88685814D01*
X131044291Y-88710146D01*
X131050000Y-88738847D01*
X131050000Y-90038847D01*
X131044291Y-90067548D01*
X131028033Y-90091880D01*
X131003701Y-90108138D01*
X130975000Y-90113847D01*
X130825000Y-90113847D01*
X130796299Y-90108138D01*
X130771967Y-90091880D01*
X130755709Y-90067548D01*
X130750000Y-90038847D01*
X130750000Y-88738847D01*
X130755709Y-88710146D01*
X130771967Y-88685814D01*
X130796299Y-88669556D01*
X130825000Y-88663847D01*
X130975000Y-88663847D01*
X131003701Y-88669556D01*
G37*
G36*
X145825000Y-90100000D02*
G01*
X144375000Y-90100000D01*
X144375000Y-89650000D01*
X145825000Y-89650000D01*
X145825000Y-90100000D01*
G37*
G36*
X151625000Y-90100000D02*
G01*
X150175000Y-90100000D01*
X150175000Y-89650000D01*
X151625000Y-89650000D01*
X151625000Y-90100000D01*
G37*
G36*
X127636104Y-89130974D02*
G01*
X127709099Y-89179748D01*
X127757873Y-89252743D01*
X127775000Y-89338847D01*
X127775000Y-89788847D01*
X127757873Y-89874951D01*
X127709099Y-89947946D01*
X127636104Y-89996720D01*
X127550000Y-90013847D01*
X127050000Y-90013847D01*
X126963896Y-89996720D01*
X126890901Y-89947946D01*
X126842127Y-89874951D01*
X126825000Y-89788847D01*
X126825000Y-89338847D01*
X126842127Y-89252743D01*
X126890901Y-89179748D01*
X126963896Y-89130974D01*
X127050000Y-89113847D01*
X127550000Y-89113847D01*
X127636104Y-89130974D01*
G37*
G36*
X156207403Y-88511418D02*
G01*
X156256066Y-88543934D01*
X156288582Y-88592597D01*
X156300000Y-88650000D01*
X156300000Y-89675000D01*
X156288582Y-89732403D01*
X156256066Y-89781066D01*
X156207403Y-89813582D01*
X156150000Y-89825000D01*
X155850000Y-89825000D01*
X155792597Y-89813582D01*
X155743934Y-89781066D01*
X155711418Y-89732403D01*
X155700000Y-89675000D01*
X155700000Y-88650000D01*
X155711418Y-88592597D01*
X155743934Y-88543934D01*
X155792597Y-88511418D01*
X155850000Y-88500000D01*
X156150000Y-88500000D01*
X156207403Y-88511418D01*
G37*
G36*
X145825000Y-89450000D02*
G01*
X144375000Y-89450000D01*
X144375000Y-89000000D01*
X145825000Y-89000000D01*
X145825000Y-89450000D01*
G37*
G36*
X151625000Y-89450000D02*
G01*
X150175000Y-89450000D01*
X150175000Y-89000000D01*
X151625000Y-89000000D01*
X151625000Y-89450000D01*
G37*
G36*
X145825000Y-88800000D02*
G01*
X144375000Y-88800000D01*
X144375000Y-88350000D01*
X145825000Y-88350000D01*
X145825000Y-88800000D01*
G37*
G36*
X151625000Y-88800000D02*
G01*
X150175000Y-88800000D01*
X150175000Y-88350000D01*
X151625000Y-88350000D01*
X151625000Y-88800000D01*
G37*
G36*
X127636104Y-87580974D02*
G01*
X127709099Y-87629748D01*
X127757873Y-87702743D01*
X127775000Y-87788847D01*
X127775000Y-88238847D01*
X127757873Y-88324951D01*
X127709099Y-88397946D01*
X127636104Y-88446720D01*
X127550000Y-88463847D01*
X127050000Y-88463847D01*
X126963896Y-88446720D01*
X126890901Y-88397946D01*
X126842127Y-88324951D01*
X126825000Y-88238847D01*
X126825000Y-87788847D01*
X126842127Y-87702743D01*
X126890901Y-87629748D01*
X126963896Y-87580974D01*
X127050000Y-87563847D01*
X127550000Y-87563847D01*
X127636104Y-87580974D01*
G37*
G36*
X130845000Y-88153847D02*
G01*
X128955000Y-88153847D01*
X128955000Y-86323847D01*
X130845000Y-86323847D01*
X130845000Y-88153847D01*
G37*
G36*
X145825000Y-88150000D02*
G01*
X144375000Y-88150000D01*
X144375000Y-87700000D01*
X145825000Y-87700000D01*
X145825000Y-88150000D01*
G37*
G36*
X151625000Y-88150000D02*
G01*
X150175000Y-88150000D01*
X150175000Y-87700000D01*
X151625000Y-87700000D01*
X151625000Y-88150000D01*
G37*
G36*
X155626104Y-87042127D02*
G01*
X155699099Y-87090901D01*
X155747873Y-87163896D01*
X155765000Y-87250000D01*
X155765000Y-87700000D01*
X155747873Y-87786104D01*
X155699099Y-87859099D01*
X155626104Y-87907873D01*
X155540000Y-87925000D01*
X155040000Y-87925000D01*
X154953896Y-87907873D01*
X154880901Y-87859099D01*
X154832127Y-87786104D01*
X154815000Y-87700000D01*
X154815000Y-87250000D01*
X154832127Y-87163896D01*
X154880901Y-87090901D01*
X154953896Y-87042127D01*
X155040000Y-87025000D01*
X155540000Y-87025000D01*
X155626104Y-87042127D01*
G37*
G36*
X157136104Y-87042127D02*
G01*
X157209099Y-87090901D01*
X157257873Y-87163896D01*
X157275000Y-87250000D01*
X157275000Y-87700000D01*
X157257873Y-87786104D01*
X157209099Y-87859099D01*
X157136104Y-87907873D01*
X157050000Y-87925000D01*
X156550000Y-87925000D01*
X156463896Y-87907873D01*
X156390901Y-87859099D01*
X156342127Y-87786104D01*
X156325000Y-87700000D01*
X156325000Y-87250000D01*
X156342127Y-87163896D01*
X156390901Y-87090901D01*
X156463896Y-87042127D01*
X156550000Y-87025000D01*
X157050000Y-87025000D01*
X157136104Y-87042127D01*
G37*
G36*
X126086104Y-86080974D02*
G01*
X126159099Y-86129748D01*
X126207873Y-86202743D01*
X126225000Y-86288847D01*
X126225000Y-86738847D01*
X126207873Y-86824951D01*
X126159099Y-86897946D01*
X126086104Y-86946720D01*
X126000000Y-86963847D01*
X125500000Y-86963847D01*
X125413896Y-86946720D01*
X125340901Y-86897946D01*
X125292127Y-86824951D01*
X125275000Y-86738847D01*
X125275000Y-86288847D01*
X125292127Y-86202743D01*
X125340901Y-86129748D01*
X125413896Y-86080974D01*
X125500000Y-86063847D01*
X126000000Y-86063847D01*
X126086104Y-86080974D01*
G37*
G36*
X127636104Y-86080974D02*
G01*
X127709099Y-86129748D01*
X127757873Y-86202743D01*
X127775000Y-86288847D01*
X127775000Y-86738847D01*
X127757873Y-86824951D01*
X127709099Y-86897946D01*
X127636104Y-86946720D01*
X127550000Y-86963847D01*
X127050000Y-86963847D01*
X126963896Y-86946720D01*
X126890901Y-86897946D01*
X126842127Y-86824951D01*
X126825000Y-86738847D01*
X126825000Y-86288847D01*
X126842127Y-86202743D01*
X126890901Y-86129748D01*
X126963896Y-86080974D01*
X127050000Y-86063847D01*
X127550000Y-86063847D01*
X127636104Y-86080974D01*
G37*
G36*
X132801537Y-85929071D02*
G01*
X132866421Y-85972426D01*
X132909776Y-86037310D01*
X132925000Y-86113847D01*
X132925000Y-86513847D01*
X132909776Y-86590384D01*
X132866421Y-86655268D01*
X132801537Y-86698623D01*
X132725000Y-86713847D01*
X132175000Y-86713847D01*
X132098463Y-86698623D01*
X132033579Y-86655268D01*
X131990224Y-86590384D01*
X131975000Y-86513847D01*
X131975000Y-86113847D01*
X131990224Y-86037310D01*
X132033579Y-85972426D01*
X132098463Y-85929071D01*
X132175000Y-85913847D01*
X132725000Y-85913847D01*
X132801537Y-85929071D01*
G37*
G36*
X134301537Y-85929071D02*
G01*
X134366421Y-85972426D01*
X134409776Y-86037310D01*
X134425000Y-86113847D01*
X134425000Y-86513847D01*
X134409776Y-86590384D01*
X134366421Y-86655268D01*
X134301537Y-86698623D01*
X134225000Y-86713847D01*
X133675000Y-86713847D01*
X133598463Y-86698623D01*
X133533579Y-86655268D01*
X133490224Y-86590384D01*
X133475000Y-86513847D01*
X133475000Y-86113847D01*
X133490224Y-86037310D01*
X133533579Y-85972426D01*
X133598463Y-85929071D01*
X133675000Y-85913847D01*
X134225000Y-85913847D01*
X134301537Y-85929071D01*
G37*
G36*
X142836104Y-85692127D02*
G01*
X142909099Y-85740901D01*
X142957873Y-85813896D01*
X142975000Y-85900000D01*
X142975000Y-86400000D01*
X142957873Y-86486104D01*
X142909099Y-86559099D01*
X142836104Y-86607873D01*
X142750000Y-86625000D01*
X142300000Y-86625000D01*
X142213896Y-86607873D01*
X142140901Y-86559099D01*
X142092127Y-86486104D01*
X142075000Y-86400000D01*
X142075000Y-85900000D01*
X142092127Y-85813896D01*
X142140901Y-85740901D01*
X142213896Y-85692127D01*
X142300000Y-85675000D01*
X142750000Y-85675000D01*
X142836104Y-85692127D01*
G37*
G36*
X144386104Y-85692127D02*
G01*
X144459099Y-85740901D01*
X144507873Y-85813896D01*
X144525000Y-85900000D01*
X144525000Y-86400000D01*
X144507873Y-86486104D01*
X144459099Y-86559099D01*
X144386104Y-86607873D01*
X144300000Y-86625000D01*
X143850000Y-86625000D01*
X143763896Y-86607873D01*
X143690901Y-86559099D01*
X143642127Y-86486104D01*
X143625000Y-86400000D01*
X143625000Y-85900000D01*
X143642127Y-85813896D01*
X143690901Y-85740901D01*
X143763896Y-85692127D01*
X143850000Y-85675000D01*
X144300000Y-85675000D01*
X144386104Y-85692127D01*
G37*
G36*
X152211104Y-85692127D02*
G01*
X152284099Y-85740901D01*
X152332873Y-85813896D01*
X152350000Y-85900000D01*
X152350000Y-86400000D01*
X152332873Y-86486104D01*
X152284099Y-86559099D01*
X152211104Y-86607873D01*
X152125000Y-86625000D01*
X151675000Y-86625000D01*
X151588896Y-86607873D01*
X151515901Y-86559099D01*
X151467127Y-86486104D01*
X151450000Y-86400000D01*
X151450000Y-85900000D01*
X151467127Y-85813896D01*
X151515901Y-85740901D01*
X151588896Y-85692127D01*
X151675000Y-85675000D01*
X152125000Y-85675000D01*
X152211104Y-85692127D01*
G37*
G36*
X153761104Y-85692127D02*
G01*
X153834099Y-85740901D01*
X153882873Y-85813896D01*
X153900000Y-85900000D01*
X153900000Y-86400000D01*
X153882873Y-86486104D01*
X153834099Y-86559099D01*
X153761104Y-86607873D01*
X153675000Y-86625000D01*
X153225000Y-86625000D01*
X153138896Y-86607873D01*
X153065901Y-86559099D01*
X153017127Y-86486104D01*
X153000000Y-86400000D01*
X153000000Y-85900000D01*
X153017127Y-85813896D01*
X153065901Y-85740901D01*
X153138896Y-85692127D01*
X153225000Y-85675000D01*
X153675000Y-85675000D01*
X153761104Y-85692127D01*
G37*
G36*
X155626104Y-85492127D02*
G01*
X155699099Y-85540901D01*
X155747873Y-85613896D01*
X155765000Y-85700000D01*
X155765000Y-86150000D01*
X155747873Y-86236104D01*
X155699099Y-86309099D01*
X155626104Y-86357873D01*
X155540000Y-86375000D01*
X155040000Y-86375000D01*
X154953896Y-86357873D01*
X154880901Y-86309099D01*
X154832127Y-86236104D01*
X154815000Y-86150000D01*
X154815000Y-85700000D01*
X154832127Y-85613896D01*
X154880901Y-85540901D01*
X154953896Y-85492127D01*
X155040000Y-85475000D01*
X155540000Y-85475000D01*
X155626104Y-85492127D01*
G37*
G36*
X157136104Y-85492127D02*
G01*
X157209099Y-85540901D01*
X157257873Y-85613896D01*
X157275000Y-85700000D01*
X157275000Y-86150000D01*
X157257873Y-86236104D01*
X157209099Y-86309099D01*
X157136104Y-86357873D01*
X157050000Y-86375000D01*
X156550000Y-86375000D01*
X156463896Y-86357873D01*
X156390901Y-86309099D01*
X156342127Y-86236104D01*
X156325000Y-86150000D01*
X156325000Y-85700000D01*
X156342127Y-85613896D01*
X156390901Y-85540901D01*
X156463896Y-85492127D01*
X156550000Y-85475000D01*
X157050000Y-85475000D01*
X157136104Y-85492127D01*
G37*
G36*
X129003701Y-84369556D02*
G01*
X129028033Y-84385814D01*
X129044291Y-84410146D01*
X129050000Y-84438847D01*
X129050000Y-85738847D01*
X129044291Y-85767548D01*
X129028033Y-85791880D01*
X129003701Y-85808138D01*
X128975000Y-85813847D01*
X128825000Y-85813847D01*
X128796299Y-85808138D01*
X128771967Y-85791880D01*
X128755709Y-85767548D01*
X128750000Y-85738847D01*
X128750000Y-84438847D01*
X128755709Y-84410146D01*
X128771967Y-84385814D01*
X128796299Y-84369556D01*
X128825000Y-84363847D01*
X128975000Y-84363847D01*
X129003701Y-84369556D01*
G37*
G36*
X129503701Y-84369556D02*
G01*
X129528033Y-84385814D01*
X129544291Y-84410146D01*
X129550000Y-84438847D01*
X129550000Y-85738847D01*
X129544291Y-85767548D01*
X129528033Y-85791880D01*
X129503701Y-85808138D01*
X129475000Y-85813847D01*
X129325000Y-85813847D01*
X129296299Y-85808138D01*
X129271967Y-85791880D01*
X129255709Y-85767548D01*
X129250000Y-85738847D01*
X129250000Y-84438847D01*
X129255709Y-84410146D01*
X129271967Y-84385814D01*
X129296299Y-84369556D01*
X129325000Y-84363847D01*
X129475000Y-84363847D01*
X129503701Y-84369556D01*
G37*
G36*
X130003701Y-84369556D02*
G01*
X130028033Y-84385814D01*
X130044291Y-84410146D01*
X130050000Y-84438847D01*
X130050000Y-85738847D01*
X130044291Y-85767548D01*
X130028033Y-85791880D01*
X130003701Y-85808138D01*
X129975000Y-85813847D01*
X129825000Y-85813847D01*
X129796299Y-85808138D01*
X129771967Y-85791880D01*
X129755709Y-85767548D01*
X129750000Y-85738847D01*
X129750000Y-84438847D01*
X129755709Y-84410146D01*
X129771967Y-84385814D01*
X129796299Y-84369556D01*
X129825000Y-84363847D01*
X129975000Y-84363847D01*
X130003701Y-84369556D01*
G37*
G36*
X130503701Y-84369556D02*
G01*
X130528033Y-84385814D01*
X130544291Y-84410146D01*
X130550000Y-84438847D01*
X130550000Y-85738847D01*
X130544291Y-85767548D01*
X130528033Y-85791880D01*
X130503701Y-85808138D01*
X130475000Y-85813847D01*
X130325000Y-85813847D01*
X130296299Y-85808138D01*
X130271967Y-85791880D01*
X130255709Y-85767548D01*
X130250000Y-85738847D01*
X130250000Y-84438847D01*
X130255709Y-84410146D01*
X130271967Y-84385814D01*
X130296299Y-84369556D01*
X130325000Y-84363847D01*
X130475000Y-84363847D01*
X130503701Y-84369556D01*
G37*
G36*
X131003701Y-84369556D02*
G01*
X131028033Y-84385814D01*
X131044291Y-84410146D01*
X131050000Y-84438847D01*
X131050000Y-85738847D01*
X131044291Y-85767548D01*
X131028033Y-85791880D01*
X131003701Y-85808138D01*
X130975000Y-85813847D01*
X130825000Y-85813847D01*
X130796299Y-85808138D01*
X130771967Y-85791880D01*
X130755709Y-85767548D01*
X130750000Y-85738847D01*
X130750000Y-84438847D01*
X130755709Y-84410146D01*
X130771967Y-84385814D01*
X130796299Y-84369556D01*
X130825000Y-84363847D01*
X130975000Y-84363847D01*
X131003701Y-84369556D01*
G37*
G36*
X126086104Y-84530974D02*
G01*
X126159099Y-84579748D01*
X126207873Y-84652743D01*
X126225000Y-84738847D01*
X126225000Y-85188847D01*
X126207873Y-85274951D01*
X126159099Y-85347946D01*
X126086104Y-85396720D01*
X126000000Y-85413847D01*
X125500000Y-85413847D01*
X125413896Y-85396720D01*
X125340901Y-85347946D01*
X125292127Y-85274951D01*
X125275000Y-85188847D01*
X125275000Y-84738847D01*
X125292127Y-84652743D01*
X125340901Y-84579748D01*
X125413896Y-84530974D01*
X125500000Y-84513847D01*
X126000000Y-84513847D01*
X126086104Y-84530974D01*
G37*
G36*
X127636104Y-84530974D02*
G01*
X127709099Y-84579748D01*
X127757873Y-84652743D01*
X127775000Y-84738847D01*
X127775000Y-85188847D01*
X127757873Y-85274951D01*
X127709099Y-85347946D01*
X127636104Y-85396720D01*
X127550000Y-85413847D01*
X127050000Y-85413847D01*
X126963896Y-85396720D01*
X126890901Y-85347946D01*
X126842127Y-85274951D01*
X126825000Y-85188847D01*
X126825000Y-84738847D01*
X126842127Y-84652743D01*
X126890901Y-84579748D01*
X126963896Y-84530974D01*
X127050000Y-84513847D01*
X127550000Y-84513847D01*
X127636104Y-84530974D01*
G37*
G36*
X141236104Y-84192127D02*
G01*
X141309099Y-84240901D01*
X141357873Y-84313896D01*
X141375000Y-84400000D01*
X141375000Y-84900000D01*
X141357873Y-84986104D01*
X141309099Y-85059099D01*
X141236104Y-85107873D01*
X141150000Y-85125000D01*
X140700000Y-85125000D01*
X140613896Y-85107873D01*
X140540901Y-85059099D01*
X140492127Y-84986104D01*
X140475000Y-84900000D01*
X140475000Y-84400000D01*
X140492127Y-84313896D01*
X140540901Y-84240901D01*
X140613896Y-84192127D01*
X140700000Y-84175000D01*
X141150000Y-84175000D01*
X141236104Y-84192127D01*
G37*
G36*
X142786104Y-84192127D02*
G01*
X142859099Y-84240901D01*
X142907873Y-84313896D01*
X142925000Y-84400000D01*
X142925000Y-84900000D01*
X142907873Y-84986104D01*
X142859099Y-85059099D01*
X142786104Y-85107873D01*
X142700000Y-85125000D01*
X142250000Y-85125000D01*
X142163896Y-85107873D01*
X142090901Y-85059099D01*
X142042127Y-84986104D01*
X142025000Y-84900000D01*
X142025000Y-84400000D01*
X142042127Y-84313896D01*
X142090901Y-84240901D01*
X142163896Y-84192127D01*
X142250000Y-84175000D01*
X142700000Y-84175000D01*
X142786104Y-84192127D01*
G37*
G36*
X144436104Y-84192127D02*
G01*
X144509099Y-84240901D01*
X144557873Y-84313896D01*
X144575000Y-84400000D01*
X144575000Y-84900000D01*
X144557873Y-84986104D01*
X144509099Y-85059099D01*
X144436104Y-85107873D01*
X144350000Y-85125000D01*
X143900000Y-85125000D01*
X143813896Y-85107873D01*
X143740901Y-85059099D01*
X143692127Y-84986104D01*
X143675000Y-84900000D01*
X143675000Y-84400000D01*
X143692127Y-84313896D01*
X143740901Y-84240901D01*
X143813896Y-84192127D01*
X143900000Y-84175000D01*
X144350000Y-84175000D01*
X144436104Y-84192127D01*
G37*
G36*
X145986104Y-84192127D02*
G01*
X146059099Y-84240901D01*
X146107873Y-84313896D01*
X146125000Y-84400000D01*
X146125000Y-84900000D01*
X146107873Y-84986104D01*
X146059099Y-85059099D01*
X145986104Y-85107873D01*
X145900000Y-85125000D01*
X145450000Y-85125000D01*
X145363896Y-85107873D01*
X145290901Y-85059099D01*
X145242127Y-84986104D01*
X145225000Y-84900000D01*
X145225000Y-84400000D01*
X145242127Y-84313896D01*
X145290901Y-84240901D01*
X145363896Y-84192127D01*
X145450000Y-84175000D01*
X145900000Y-84175000D01*
X145986104Y-84192127D01*
G37*
G36*
X147536104Y-84192127D02*
G01*
X147609099Y-84240901D01*
X147657873Y-84313896D01*
X147675000Y-84400000D01*
X147675000Y-84900000D01*
X147657873Y-84986104D01*
X147609099Y-85059099D01*
X147536104Y-85107873D01*
X147450000Y-85125000D01*
X147000000Y-85125000D01*
X146913896Y-85107873D01*
X146840901Y-85059099D01*
X146792127Y-84986104D01*
X146775000Y-84900000D01*
X146775000Y-84400000D01*
X146792127Y-84313896D01*
X146840901Y-84240901D01*
X146913896Y-84192127D01*
X147000000Y-84175000D01*
X147450000Y-84175000D01*
X147536104Y-84192127D01*
G37*
G36*
X149086104Y-84192127D02*
G01*
X149159099Y-84240901D01*
X149207873Y-84313896D01*
X149225000Y-84400000D01*
X149225000Y-84900000D01*
X149207873Y-84986104D01*
X149159099Y-85059099D01*
X149086104Y-85107873D01*
X149000000Y-85125000D01*
X148550000Y-85125000D01*
X148463896Y-85107873D01*
X148390901Y-85059099D01*
X148342127Y-84986104D01*
X148325000Y-84900000D01*
X148325000Y-84400000D01*
X148342127Y-84313896D01*
X148390901Y-84240901D01*
X148463896Y-84192127D01*
X148550000Y-84175000D01*
X149000000Y-84175000D01*
X149086104Y-84192127D01*
G37*
G36*
X153811104Y-84192127D02*
G01*
X153884099Y-84240901D01*
X153932873Y-84313896D01*
X153950000Y-84400000D01*
X153950000Y-84900000D01*
X153932873Y-84986104D01*
X153884099Y-85059099D01*
X153811104Y-85107873D01*
X153725000Y-85125000D01*
X153275000Y-85125000D01*
X153188896Y-85107873D01*
X153115901Y-85059099D01*
X153067127Y-84986104D01*
X153050000Y-84900000D01*
X153050000Y-84400000D01*
X153067127Y-84313896D01*
X153115901Y-84240901D01*
X153188896Y-84192127D01*
X153275000Y-84175000D01*
X153725000Y-84175000D01*
X153811104Y-84192127D01*
G37*
G36*
X155361104Y-84192127D02*
G01*
X155434099Y-84240901D01*
X155482873Y-84313896D01*
X155500000Y-84400000D01*
X155500000Y-84900000D01*
X155482873Y-84986104D01*
X155434099Y-85059099D01*
X155361104Y-85107873D01*
X155275000Y-85125000D01*
X154825000Y-85125000D01*
X154738896Y-85107873D01*
X154665901Y-85059099D01*
X154617127Y-84986104D01*
X154600000Y-84900000D01*
X154600000Y-84400000D01*
X154617127Y-84313896D01*
X154665901Y-84240901D01*
X154738896Y-84192127D01*
X154825000Y-84175000D01*
X155275000Y-84175000D01*
X155361104Y-84192127D01*
G37*
G36*
X150636104Y-84182127D02*
G01*
X150709099Y-84230901D01*
X150757873Y-84303896D01*
X150775000Y-84390000D01*
X150775000Y-84890000D01*
X150757873Y-84976104D01*
X150709099Y-85049099D01*
X150636104Y-85097873D01*
X150550000Y-85115000D01*
X150100000Y-85115000D01*
X150013896Y-85097873D01*
X149940901Y-85049099D01*
X149892127Y-84976104D01*
X149875000Y-84890000D01*
X149875000Y-84390000D01*
X149892127Y-84303896D01*
X149940901Y-84230901D01*
X150013896Y-84182127D01*
X150100000Y-84165000D01*
X150550000Y-84165000D01*
X150636104Y-84182127D01*
G37*
G36*
X152186104Y-84182127D02*
G01*
X152259099Y-84230901D01*
X152307873Y-84303896D01*
X152325000Y-84390000D01*
X152325000Y-84890000D01*
X152307873Y-84976104D01*
X152259099Y-85049099D01*
X152186104Y-85097873D01*
X152100000Y-85115000D01*
X151650000Y-85115000D01*
X151563896Y-85097873D01*
X151490901Y-85049099D01*
X151442127Y-84976104D01*
X151425000Y-84890000D01*
X151425000Y-84390000D01*
X151442127Y-84303896D01*
X151490901Y-84230901D01*
X151563896Y-84182127D01*
X151650000Y-84165000D01*
X152100000Y-84165000D01*
X152186104Y-84182127D01*
G37*
G36*
X132801537Y-84279071D02*
G01*
X132866421Y-84322426D01*
X132909776Y-84387310D01*
X132925000Y-84463847D01*
X132925000Y-84863847D01*
X132909776Y-84940384D01*
X132866421Y-85005268D01*
X132801537Y-85048623D01*
X132725000Y-85063847D01*
X132175000Y-85063847D01*
X132098463Y-85048623D01*
X132033579Y-85005268D01*
X131990224Y-84940384D01*
X131975000Y-84863847D01*
X131975000Y-84463847D01*
X131990224Y-84387310D01*
X132033579Y-84322426D01*
X132098463Y-84279071D01*
X132175000Y-84263847D01*
X132725000Y-84263847D01*
X132801537Y-84279071D01*
G37*
G36*
X134301537Y-84279071D02*
G01*
X134366421Y-84322426D01*
X134409776Y-84387310D01*
X134425000Y-84463847D01*
X134425000Y-84863847D01*
X134409776Y-84940384D01*
X134366421Y-85005268D01*
X134301537Y-85048623D01*
X134225000Y-85063847D01*
X133675000Y-85063847D01*
X133598463Y-85048623D01*
X133533579Y-85005268D01*
X133490224Y-84940384D01*
X133475000Y-84863847D01*
X133475000Y-84463847D01*
X133490224Y-84387310D01*
X133533579Y-84322426D01*
X133598463Y-84279071D01*
X133675000Y-84263847D01*
X134225000Y-84263847D01*
X134301537Y-84279071D01*
G37*
G36*
X132301537Y-82779071D02*
G01*
X132366421Y-82822426D01*
X132409776Y-82887310D01*
X132425000Y-82963847D01*
X132425000Y-83513847D01*
X132409776Y-83590384D01*
X132366421Y-83655268D01*
X132301537Y-83698623D01*
X132225000Y-83713847D01*
X131825000Y-83713847D01*
X131748463Y-83698623D01*
X131683579Y-83655268D01*
X131640224Y-83590384D01*
X131625000Y-83513847D01*
X131625000Y-82963847D01*
X131640224Y-82887310D01*
X131683579Y-82822426D01*
X131748463Y-82779071D01*
X131825000Y-82763847D01*
X132225000Y-82763847D01*
X132301537Y-82779071D01*
G37*
G36*
X133951537Y-82779071D02*
G01*
X134016421Y-82822426D01*
X134059776Y-82887310D01*
X134075000Y-82963847D01*
X134075000Y-83513847D01*
X134059776Y-83590384D01*
X134016421Y-83655268D01*
X133951537Y-83698623D01*
X133875000Y-83713847D01*
X133475000Y-83713847D01*
X133398463Y-83698623D01*
X133333579Y-83655268D01*
X133290224Y-83590384D01*
X133275000Y-83513847D01*
X133275000Y-82963847D01*
X133290224Y-82887310D01*
X133333579Y-82822426D01*
X133398463Y-82779071D01*
X133475000Y-82763847D01*
X133875000Y-82763847D01*
X133951537Y-82779071D01*
G37*
G36*
X128350000Y-83638847D02*
G01*
X126650000Y-83638847D01*
X126650000Y-82338847D01*
X128350000Y-82338847D01*
X128350000Y-83638847D01*
G37*
G36*
X131050000Y-83638847D02*
G01*
X129350000Y-83638847D01*
X129350000Y-82338847D01*
X131050000Y-82338847D01*
X131050000Y-83638847D01*
G37*
G36*
X146036104Y-82692127D02*
G01*
X146109099Y-82740901D01*
X146157873Y-82813896D01*
X146175000Y-82900000D01*
X146175000Y-83400000D01*
X146157873Y-83486104D01*
X146109099Y-83559099D01*
X146036104Y-83607873D01*
X145950000Y-83625000D01*
X145500000Y-83625000D01*
X145413896Y-83607873D01*
X145340901Y-83559099D01*
X145292127Y-83486104D01*
X145275000Y-83400000D01*
X145275000Y-82900000D01*
X145292127Y-82813896D01*
X145340901Y-82740901D01*
X145413896Y-82692127D01*
X145500000Y-82675000D01*
X145950000Y-82675000D01*
X146036104Y-82692127D01*
G37*
G36*
X147586104Y-82692127D02*
G01*
X147659099Y-82740901D01*
X147707873Y-82813896D01*
X147725000Y-82900000D01*
X147725000Y-83400000D01*
X147707873Y-83486104D01*
X147659099Y-83559099D01*
X147586104Y-83607873D01*
X147500000Y-83625000D01*
X147050000Y-83625000D01*
X146963896Y-83607873D01*
X146890901Y-83559099D01*
X146842127Y-83486104D01*
X146825000Y-83400000D01*
X146825000Y-82900000D01*
X146842127Y-82813896D01*
X146890901Y-82740901D01*
X146963896Y-82692127D01*
X147050000Y-82675000D01*
X147500000Y-82675000D01*
X147586104Y-82692127D01*
G37*
G36*
X149036104Y-82692127D02*
G01*
X149109099Y-82740901D01*
X149157873Y-82813896D01*
X149175000Y-82900000D01*
X149175000Y-83400000D01*
X149157873Y-83486104D01*
X149109099Y-83559099D01*
X149036104Y-83607873D01*
X148950000Y-83625000D01*
X148500000Y-83625000D01*
X148413896Y-83607873D01*
X148340901Y-83559099D01*
X148292127Y-83486104D01*
X148275000Y-83400000D01*
X148275000Y-82900000D01*
X148292127Y-82813896D01*
X148340901Y-82740901D01*
X148413896Y-82692127D01*
X148500000Y-82675000D01*
X148950000Y-82675000D01*
X149036104Y-82692127D01*
G37*
G36*
X150586104Y-82692127D02*
G01*
X150659099Y-82740901D01*
X150707873Y-82813896D01*
X150725000Y-82900000D01*
X150725000Y-83400000D01*
X150707873Y-83486104D01*
X150659099Y-83559099D01*
X150586104Y-83607873D01*
X150500000Y-83625000D01*
X150050000Y-83625000D01*
X149963896Y-83607873D01*
X149890901Y-83559099D01*
X149842127Y-83486104D01*
X149825000Y-83400000D01*
X149825000Y-82900000D01*
X149842127Y-82813896D01*
X149890901Y-82740901D01*
X149963896Y-82692127D01*
X150050000Y-82675000D01*
X150500000Y-82675000D01*
X150586104Y-82692127D01*
G37*
G36*
X142796537Y-82830224D02*
G01*
X142861421Y-82873579D01*
X142904776Y-82938463D01*
X142920000Y-83015000D01*
X142920000Y-83415000D01*
X142904776Y-83491537D01*
X142861421Y-83556421D01*
X142796537Y-83599776D01*
X142720000Y-83615000D01*
X142170000Y-83615000D01*
X142093463Y-83599776D01*
X142028579Y-83556421D01*
X141985224Y-83491537D01*
X141970000Y-83415000D01*
X141970000Y-83015000D01*
X141985224Y-82938463D01*
X142028579Y-82873579D01*
X142093463Y-82830224D01*
X142170000Y-82815000D01*
X142720000Y-82815000D01*
X142796537Y-82830224D01*
G37*
G36*
X144506537Y-82830224D02*
G01*
X144571421Y-82873579D01*
X144614776Y-82938463D01*
X144630000Y-83015000D01*
X144630000Y-83415000D01*
X144614776Y-83491537D01*
X144571421Y-83556421D01*
X144506537Y-83599776D01*
X144430000Y-83615000D01*
X143880000Y-83615000D01*
X143803463Y-83599776D01*
X143738579Y-83556421D01*
X143695224Y-83491537D01*
X143680000Y-83415000D01*
X143680000Y-83015000D01*
X143695224Y-82938463D01*
X143738579Y-82873579D01*
X143803463Y-82830224D01*
X143880000Y-82815000D01*
X144430000Y-82815000D01*
X144506537Y-82830224D01*
G37*
G36*
X152201537Y-82830224D02*
G01*
X152266421Y-82873579D01*
X152309776Y-82938463D01*
X152325000Y-83015000D01*
X152325000Y-83415000D01*
X152309776Y-83491537D01*
X152266421Y-83556421D01*
X152201537Y-83599776D01*
X152125000Y-83615000D01*
X151575000Y-83615000D01*
X151498463Y-83599776D01*
X151433579Y-83556421D01*
X151390224Y-83491537D01*
X151375000Y-83415000D01*
X151375000Y-83015000D01*
X151390224Y-82938463D01*
X151433579Y-82873579D01*
X151498463Y-82830224D01*
X151575000Y-82815000D01*
X152125000Y-82815000D01*
X152201537Y-82830224D01*
G37*
G36*
X153871537Y-82830224D02*
G01*
X153936421Y-82873579D01*
X153979776Y-82938463D01*
X153995000Y-83015000D01*
X153995000Y-83415000D01*
X153979776Y-83491537D01*
X153936421Y-83556421D01*
X153871537Y-83599776D01*
X153795000Y-83615000D01*
X153245000Y-83615000D01*
X153168463Y-83599776D01*
X153103579Y-83556421D01*
X153060224Y-83491537D01*
X153045000Y-83415000D01*
X153045000Y-83015000D01*
X153060224Y-82938463D01*
X153103579Y-82873579D01*
X153168463Y-82830224D01*
X153245000Y-82815000D01*
X153795000Y-82815000D01*
X153871537Y-82830224D01*
G37*
G36*
X142796537Y-81180224D02*
G01*
X142861421Y-81223579D01*
X142904776Y-81288463D01*
X142920000Y-81365000D01*
X142920000Y-81765000D01*
X142904776Y-81841537D01*
X142861421Y-81906421D01*
X142796537Y-81949776D01*
X142720000Y-81965000D01*
X142170000Y-81965000D01*
X142093463Y-81949776D01*
X142028579Y-81906421D01*
X141985224Y-81841537D01*
X141970000Y-81765000D01*
X141970000Y-81365000D01*
X141985224Y-81288463D01*
X142028579Y-81223579D01*
X142093463Y-81180224D01*
X142170000Y-81165000D01*
X142720000Y-81165000D01*
X142796537Y-81180224D01*
G37*
G36*
X144506537Y-81180224D02*
G01*
X144571421Y-81223579D01*
X144614776Y-81288463D01*
X144630000Y-81365000D01*
X144630000Y-81765000D01*
X144614776Y-81841537D01*
X144571421Y-81906421D01*
X144506537Y-81949776D01*
X144430000Y-81965000D01*
X143880000Y-81965000D01*
X143803463Y-81949776D01*
X143738579Y-81906421D01*
X143695224Y-81841537D01*
X143680000Y-81765000D01*
X143680000Y-81365000D01*
X143695224Y-81288463D01*
X143738579Y-81223579D01*
X143803463Y-81180224D01*
X143880000Y-81165000D01*
X144430000Y-81165000D01*
X144506537Y-81180224D01*
G37*
G36*
X152201537Y-81180224D02*
G01*
X152266421Y-81223579D01*
X152309776Y-81288463D01*
X152325000Y-81365000D01*
X152325000Y-81765000D01*
X152309776Y-81841537D01*
X152266421Y-81906421D01*
X152201537Y-81949776D01*
X152125000Y-81965000D01*
X151575000Y-81965000D01*
X151498463Y-81949776D01*
X151433579Y-81906421D01*
X151390224Y-81841537D01*
X151375000Y-81765000D01*
X151375000Y-81365000D01*
X151390224Y-81288463D01*
X151433579Y-81223579D01*
X151498463Y-81180224D01*
X151575000Y-81165000D01*
X152125000Y-81165000D01*
X152201537Y-81180224D01*
G37*
G36*
X153871537Y-81180224D02*
G01*
X153936421Y-81223579D01*
X153979776Y-81288463D01*
X153995000Y-81365000D01*
X153995000Y-81765000D01*
X153979776Y-81841537D01*
X153936421Y-81906421D01*
X153871537Y-81949776D01*
X153795000Y-81965000D01*
X153245000Y-81965000D01*
X153168463Y-81949776D01*
X153103579Y-81906421D01*
X153060224Y-81841537D01*
X153045000Y-81765000D01*
X153045000Y-81365000D01*
X153060224Y-81288463D01*
X153103579Y-81223579D01*
X153168463Y-81180224D01*
X153245000Y-81165000D01*
X153795000Y-81165000D01*
X153871537Y-81180224D01*
G37*
G36*
X140627323Y-78934687D02*
G01*
X140781630Y-78998603D01*
X140920503Y-79091395D01*
X141038605Y-79209497D01*
X141131397Y-79348370D01*
X141195313Y-79502677D01*
X141227897Y-79666489D01*
X141227897Y-79833511D01*
X141195313Y-79997323D01*
X141131397Y-80151630D01*
X141038605Y-80290503D01*
X140920503Y-80408605D01*
X140781630Y-80501397D01*
X140627323Y-80565313D01*
X140463511Y-80597897D01*
X140296489Y-80597897D01*
X140132677Y-80565313D01*
X139978370Y-80501397D01*
X139839497Y-80408605D01*
X139721395Y-80290503D01*
X139628603Y-80151630D01*
X139564687Y-79997323D01*
X139532103Y-79833511D01*
X139532103Y-79666489D01*
X139564687Y-79502677D01*
X139628603Y-79348370D01*
X139721395Y-79209497D01*
X139839497Y-79091395D01*
X139978370Y-78998603D01*
X140132677Y-78934687D01*
X140296489Y-78902103D01*
X140463511Y-78902103D01*
X140627323Y-78934687D01*
G37*
G36*
X145707323Y-78934687D02*
G01*
X145861630Y-78998603D01*
X146000503Y-79091395D01*
X146118605Y-79209497D01*
X146211397Y-79348370D01*
X146275313Y-79502677D01*
X146307897Y-79666489D01*
X146307897Y-79833511D01*
X146275313Y-79997323D01*
X146211397Y-80151630D01*
X146118605Y-80290503D01*
X146000503Y-80408605D01*
X145861630Y-80501397D01*
X145707323Y-80565313D01*
X145543511Y-80597897D01*
X145376489Y-80597897D01*
X145212677Y-80565313D01*
X145058370Y-80501397D01*
X144919497Y-80408605D01*
X144801395Y-80290503D01*
X144708603Y-80151630D01*
X144644687Y-79997323D01*
X144612103Y-79833511D01*
X144612103Y-79666489D01*
X144644687Y-79502677D01*
X144708603Y-79348370D01*
X144801395Y-79209497D01*
X144919497Y-79091395D01*
X145058370Y-78998603D01*
X145212677Y-78934687D01*
X145376489Y-78902103D01*
X145543511Y-78902103D01*
X145707323Y-78934687D01*
G37*
G36*
X150787323Y-78934687D02*
G01*
X150941630Y-78998603D01*
X151080503Y-79091395D01*
X151198605Y-79209497D01*
X151291397Y-79348370D01*
X151355313Y-79502677D01*
X151387897Y-79666489D01*
X151387897Y-79833511D01*
X151355313Y-79997323D01*
X151291397Y-80151630D01*
X151198605Y-80290503D01*
X151080503Y-80408605D01*
X150941630Y-80501397D01*
X150787323Y-80565313D01*
X150623511Y-80597897D01*
X150456489Y-80597897D01*
X150292677Y-80565313D01*
X150138370Y-80501397D01*
X149999497Y-80408605D01*
X149881395Y-80290503D01*
X149788603Y-80151630D01*
X149724687Y-79997323D01*
X149692103Y-79833511D01*
X149692103Y-79666489D01*
X149724687Y-79502677D01*
X149788603Y-79348370D01*
X149881395Y-79209497D01*
X149999497Y-79091395D01*
X150138370Y-78998603D01*
X150292677Y-78934687D01*
X150456489Y-78902103D01*
X150623511Y-78902103D01*
X150787323Y-78934687D01*
G37*
G36*
X155867323Y-78934687D02*
G01*
X156021630Y-78998603D01*
X156160503Y-79091395D01*
X156278605Y-79209497D01*
X156371397Y-79348370D01*
X156435313Y-79502677D01*
X156467897Y-79666489D01*
X156467897Y-79833511D01*
X156435313Y-79997323D01*
X156371397Y-80151630D01*
X156278605Y-80290503D01*
X156160503Y-80408605D01*
X156021630Y-80501397D01*
X155867323Y-80565313D01*
X155703511Y-80597897D01*
X155536489Y-80597897D01*
X155372677Y-80565313D01*
X155218370Y-80501397D01*
X155079497Y-80408605D01*
X154961395Y-80290503D01*
X154868603Y-80151630D01*
X154804687Y-79997323D01*
X154772103Y-79833511D01*
X154772103Y-79666489D01*
X154804687Y-79502677D01*
X154868603Y-79348370D01*
X154961395Y-79209497D01*
X155079497Y-79091395D01*
X155218370Y-78998603D01*
X155372677Y-78934687D01*
X155536489Y-78902103D01*
X155703511Y-78902103D01*
X155867323Y-78934687D01*
G37*
G36*
X157689500Y-77805500D02*
G01*
X155814500Y-77805500D01*
X155814500Y-75930500D01*
X157689500Y-75930500D01*
X157689500Y-77805500D01*
G37*
G36*
X136637500Y-77803500D02*
G01*
X134762500Y-77803500D01*
X134762500Y-75928500D01*
X136637500Y-75928500D01*
X136637500Y-77803500D01*
G37*
G36*
X160560142Y-75970868D02*
G01*
X160729934Y-76041199D01*
X160882744Y-76143303D01*
X161012697Y-76273256D01*
X161114801Y-76426066D01*
X161185132Y-76595858D01*
X161220986Y-76776109D01*
X161220986Y-76959891D01*
X161185132Y-77140142D01*
X161114801Y-77309934D01*
X161012697Y-77462744D01*
X160882744Y-77592697D01*
X160729934Y-77694801D01*
X160560142Y-77765132D01*
X160379891Y-77800986D01*
X160196109Y-77800986D01*
X160015858Y-77765132D01*
X159846066Y-77694801D01*
X159693256Y-77592697D01*
X159563303Y-77462744D01*
X159461199Y-77309934D01*
X159390868Y-77140142D01*
X159355014Y-76959891D01*
X159355014Y-76776109D01*
X159390868Y-76595858D01*
X159461199Y-76426066D01*
X159563303Y-76273256D01*
X159693256Y-76143303D01*
X159846066Y-76041199D01*
X160015858Y-75970868D01*
X160196109Y-75935014D01*
X160379891Y-75935014D01*
X160560142Y-75970868D01*
G37*
G36*
X139508142Y-75968868D02*
G01*
X139677934Y-76039199D01*
X139830744Y-76141303D01*
X139960697Y-76271256D01*
X140062801Y-76424066D01*
X140133132Y-76593858D01*
X140168986Y-76774109D01*
X140168986Y-76957891D01*
X140133132Y-77138142D01*
X140062801Y-77307934D01*
X139960697Y-77460744D01*
X139830744Y-77590697D01*
X139677934Y-77692801D01*
X139508142Y-77763132D01*
X139327891Y-77798986D01*
X139144109Y-77798986D01*
X138963858Y-77763132D01*
X138794066Y-77692801D01*
X138641256Y-77590697D01*
X138511303Y-77460744D01*
X138409199Y-77307934D01*
X138338868Y-77138142D01*
X138303014Y-76957891D01*
X138303014Y-76774109D01*
X138338868Y-76593858D01*
X138409199Y-76424066D01*
X138511303Y-76271256D01*
X138641256Y-76141303D01*
X138794066Y-76039199D01*
X138963858Y-75968868D01*
X139144109Y-75933014D01*
X139327891Y-75933014D01*
X139508142Y-75968868D01*
G37*
G36*
X151180134Y-73933156D02*
G01*
X151359220Y-73991345D01*
X151526998Y-74076832D01*
X151679338Y-74187513D01*
X151812487Y-74320662D01*
X151923168Y-74473002D01*
X152008655Y-74640780D01*
X152066844Y-74819866D01*
X152096301Y-75005849D01*
X152096301Y-75194151D01*
X152066844Y-75380134D01*
X152008655Y-75559220D01*
X151923168Y-75726998D01*
X151812487Y-75879338D01*
X151679338Y-76012487D01*
X151526998Y-76123168D01*
X151359220Y-76208655D01*
X151180134Y-76266844D01*
X150994151Y-76296301D01*
X150805849Y-76296301D01*
X150619866Y-76266844D01*
X150440780Y-76208655D01*
X150273002Y-76123168D01*
X150120662Y-76012487D01*
X149987513Y-75879338D01*
X149876832Y-75726998D01*
X149791345Y-75559220D01*
X149733156Y-75380134D01*
X149703699Y-75194151D01*
X149703699Y-75005849D01*
X149733156Y-74819866D01*
X149791345Y-74640780D01*
X149876832Y-74473002D01*
X149987513Y-74320662D01*
X150120662Y-74187513D01*
X150273002Y-74076832D01*
X150440780Y-73991345D01*
X150619866Y-73933156D01*
X150805849Y-73903699D01*
X150994151Y-73903699D01*
X151180134Y-73933156D01*
G37*
G36*
X166420134Y-73933156D02*
G01*
X166599220Y-73991345D01*
X166766998Y-74076832D01*
X166919338Y-74187513D01*
X167052487Y-74320662D01*
X167163168Y-74473002D01*
X167248655Y-74640780D01*
X167306844Y-74819866D01*
X167336301Y-75005849D01*
X167336301Y-75194151D01*
X167306844Y-75380134D01*
X167248655Y-75559220D01*
X167163168Y-75726998D01*
X167052487Y-75879338D01*
X166919338Y-76012487D01*
X166766998Y-76123168D01*
X166599220Y-76208655D01*
X166420134Y-76266844D01*
X166234151Y-76296301D01*
X166045849Y-76296301D01*
X165859866Y-76266844D01*
X165680780Y-76208655D01*
X165513002Y-76123168D01*
X165360662Y-76012487D01*
X165227513Y-75879338D01*
X165116832Y-75726998D01*
X165031345Y-75559220D01*
X164973156Y-75380134D01*
X164943699Y-75194151D01*
X164943699Y-75005849D01*
X164973156Y-74819866D01*
X165031345Y-74640780D01*
X165116832Y-74473002D01*
X165227513Y-74320662D01*
X165360662Y-74187513D01*
X165513002Y-74076832D01*
X165680780Y-73991345D01*
X165859866Y-73933156D01*
X166045849Y-73903699D01*
X166234151Y-73903699D01*
X166420134Y-73933156D01*
G37*
G36*
X130128134Y-73931156D02*
G01*
X130307220Y-73989345D01*
X130474998Y-74074832D01*
X130627338Y-74185513D01*
X130760487Y-74318662D01*
X130871168Y-74471002D01*
X130956655Y-74638780D01*
X131014844Y-74817866D01*
X131044301Y-75003849D01*
X131044301Y-75192151D01*
X131014844Y-75378134D01*
X130956655Y-75557220D01*
X130871168Y-75724998D01*
X130760487Y-75877338D01*
X130627338Y-76010487D01*
X130474998Y-76121168D01*
X130307220Y-76206655D01*
X130128134Y-76264844D01*
X129942151Y-76294301D01*
X129753849Y-76294301D01*
X129567866Y-76264844D01*
X129388780Y-76206655D01*
X129221002Y-76121168D01*
X129068662Y-76010487D01*
X128935513Y-75877338D01*
X128824832Y-75724998D01*
X128739345Y-75557220D01*
X128681156Y-75378134D01*
X128651699Y-75192151D01*
X128651699Y-75003849D01*
X128681156Y-74817866D01*
X128739345Y-74638780D01*
X128824832Y-74471002D01*
X128935513Y-74318662D01*
X129068662Y-74185513D01*
X129221002Y-74074832D01*
X129388780Y-73989345D01*
X129567866Y-73931156D01*
X129753849Y-73901699D01*
X129942151Y-73901699D01*
X130128134Y-73931156D01*
G37*
G36*
X145368134Y-73931156D02*
G01*
X145547220Y-73989345D01*
X145714998Y-74074832D01*
X145867338Y-74185513D01*
X146000487Y-74318662D01*
X146111168Y-74471002D01*
X146196655Y-74638780D01*
X146254844Y-74817866D01*
X146284301Y-75003849D01*
X146284301Y-75192151D01*
X146254844Y-75378134D01*
X146196655Y-75557220D01*
X146111168Y-75724998D01*
X146000487Y-75877338D01*
X145867338Y-76010487D01*
X145714998Y-76121168D01*
X145547220Y-76206655D01*
X145368134Y-76264844D01*
X145182151Y-76294301D01*
X144993849Y-76294301D01*
X144807866Y-76264844D01*
X144628780Y-76206655D01*
X144461002Y-76121168D01*
X144308662Y-76010487D01*
X144175513Y-75877338D01*
X144064832Y-75724998D01*
X143979345Y-75557220D01*
X143921156Y-75378134D01*
X143891699Y-75192151D01*
X143891699Y-75003849D01*
X143921156Y-74817866D01*
X143979345Y-74638780D01*
X144064832Y-74471002D01*
X144175513Y-74318662D01*
X144308662Y-74185513D01*
X144461002Y-74074832D01*
X144628780Y-73989345D01*
X144807866Y-73931156D01*
X144993849Y-73901699D01*
X145182151Y-73901699D01*
X145368134Y-73931156D01*
G37*
G36*
X158792142Y-74202868D02*
G01*
X158961934Y-74273199D01*
X159114744Y-74375303D01*
X159244697Y-74505256D01*
X159346801Y-74658066D01*
X159417132Y-74827858D01*
X159452986Y-75008109D01*
X159452986Y-75191891D01*
X159417132Y-75372142D01*
X159346801Y-75541934D01*
X159244697Y-75694744D01*
X159114744Y-75824697D01*
X158961934Y-75926801D01*
X158792142Y-75997132D01*
X158611891Y-76032986D01*
X158428109Y-76032986D01*
X158247858Y-75997132D01*
X158078066Y-75926801D01*
X157925256Y-75824697D01*
X157795303Y-75694744D01*
X157693199Y-75541934D01*
X157622868Y-75372142D01*
X157587014Y-75191891D01*
X157587014Y-75008109D01*
X157622868Y-74827858D01*
X157693199Y-74658066D01*
X157795303Y-74505256D01*
X157925256Y-74375303D01*
X158078066Y-74273199D01*
X158247858Y-74202868D01*
X158428109Y-74167014D01*
X158611891Y-74167014D01*
X158792142Y-74202868D01*
G37*
G36*
X137740142Y-74200868D02*
G01*
X137909934Y-74271199D01*
X138062744Y-74373303D01*
X138192697Y-74503256D01*
X138294801Y-74656066D01*
X138365132Y-74825858D01*
X138400986Y-75006109D01*
X138400986Y-75189891D01*
X138365132Y-75370142D01*
X138294801Y-75539934D01*
X138192697Y-75692744D01*
X138062744Y-75822697D01*
X137909934Y-75924801D01*
X137740142Y-75995132D01*
X137559891Y-76030986D01*
X137376109Y-76030986D01*
X137195858Y-75995132D01*
X137026066Y-75924801D01*
X136873256Y-75822697D01*
X136743303Y-75692744D01*
X136641199Y-75539934D01*
X136570868Y-75370142D01*
X136535014Y-75189891D01*
X136535014Y-75006109D01*
X136570868Y-74825858D01*
X136641199Y-74656066D01*
X136743303Y-74503256D01*
X136873256Y-74373303D01*
X137026066Y-74271199D01*
X137195858Y-74200868D01*
X137376109Y-74165014D01*
X137559891Y-74165014D01*
X137740142Y-74200868D01*
G37*
G36*
X157024142Y-72434868D02*
G01*
X157193934Y-72505199D01*
X157346744Y-72607303D01*
X157476697Y-72737256D01*
X157578801Y-72890066D01*
X157649132Y-73059858D01*
X157684986Y-73240109D01*
X157684986Y-73423891D01*
X157649132Y-73604142D01*
X157578801Y-73773934D01*
X157476697Y-73926744D01*
X157346744Y-74056697D01*
X157193934Y-74158801D01*
X157024142Y-74229132D01*
X156843891Y-74264986D01*
X156660109Y-74264986D01*
X156479858Y-74229132D01*
X156310066Y-74158801D01*
X156157256Y-74056697D01*
X156027303Y-73926744D01*
X155925199Y-73773934D01*
X155854868Y-73604142D01*
X155819014Y-73423891D01*
X155819014Y-73240109D01*
X155854868Y-73059858D01*
X155925199Y-72890066D01*
X156027303Y-72737256D01*
X156157256Y-72607303D01*
X156310066Y-72505199D01*
X156479858Y-72434868D01*
X156660109Y-72399014D01*
X156843891Y-72399014D01*
X157024142Y-72434868D01*
G37*
G36*
X160560142Y-72434868D02*
G01*
X160729934Y-72505199D01*
X160882744Y-72607303D01*
X161012697Y-72737256D01*
X161114801Y-72890066D01*
X161185132Y-73059858D01*
X161220986Y-73240109D01*
X161220986Y-73423891D01*
X161185132Y-73604142D01*
X161114801Y-73773934D01*
X161012697Y-73926744D01*
X160882744Y-74056697D01*
X160729934Y-74158801D01*
X160560142Y-74229132D01*
X160379891Y-74264986D01*
X160196109Y-74264986D01*
X160015858Y-74229132D01*
X159846066Y-74158801D01*
X159693256Y-74056697D01*
X159563303Y-73926744D01*
X159461199Y-73773934D01*
X159390868Y-73604142D01*
X159355014Y-73423891D01*
X159355014Y-73240109D01*
X159390868Y-73059858D01*
X159461199Y-72890066D01*
X159563303Y-72737256D01*
X159693256Y-72607303D01*
X159846066Y-72505199D01*
X160015858Y-72434868D01*
X160196109Y-72399014D01*
X160379891Y-72399014D01*
X160560142Y-72434868D01*
G37*
G36*
X135972142Y-72432868D02*
G01*
X136141934Y-72503199D01*
X136294744Y-72605303D01*
X136424697Y-72735256D01*
X136526801Y-72888066D01*
X136597132Y-73057858D01*
X136632986Y-73238109D01*
X136632986Y-73421891D01*
X136597132Y-73602142D01*
X136526801Y-73771934D01*
X136424697Y-73924744D01*
X136294744Y-74054697D01*
X136141934Y-74156801D01*
X135972142Y-74227132D01*
X135791891Y-74262986D01*
X135608109Y-74262986D01*
X135427858Y-74227132D01*
X135258066Y-74156801D01*
X135105256Y-74054697D01*
X134975303Y-73924744D01*
X134873199Y-73771934D01*
X134802868Y-73602142D01*
X134767014Y-73421891D01*
X134767014Y-73238109D01*
X134802868Y-73057858D01*
X134873199Y-72888066D01*
X134975303Y-72735256D01*
X135105256Y-72605303D01*
X135258066Y-72503199D01*
X135427858Y-72432868D01*
X135608109Y-72397014D01*
X135791891Y-72397014D01*
X135972142Y-72432868D01*
G37*
G36*
X139508142Y-72432868D02*
G01*
X139677934Y-72503199D01*
X139830744Y-72605303D01*
X139960697Y-72735256D01*
X140062801Y-72888066D01*
X140133132Y-73057858D01*
X140168986Y-73238109D01*
X140168986Y-73421891D01*
X140133132Y-73602142D01*
X140062801Y-73771934D01*
X139960697Y-73924744D01*
X139830744Y-74054697D01*
X139677934Y-74156801D01*
X139508142Y-74227132D01*
X139327891Y-74262986D01*
X139144109Y-74262986D01*
X138963858Y-74227132D01*
X138794066Y-74156801D01*
X138641256Y-74054697D01*
X138511303Y-73924744D01*
X138409199Y-73771934D01*
X138338868Y-73602142D01*
X138303014Y-73421891D01*
X138303014Y-73238109D01*
X138338868Y-73057858D01*
X138409199Y-72888066D01*
X138511303Y-72735256D01*
X138641256Y-72605303D01*
X138794066Y-72503199D01*
X138963858Y-72432868D01*
X139144109Y-72397014D01*
X139327891Y-72397014D01*
X139508142Y-72432868D01*
G37*
G36*
X151232660Y-69714373D02*
G01*
X151445324Y-69783472D01*
X151644560Y-69884988D01*
X151825463Y-70016421D01*
X151983579Y-70174537D01*
X152115012Y-70355440D01*
X152216528Y-70554676D01*
X152285627Y-70767340D01*
X152320607Y-70988196D01*
X152320607Y-71211804D01*
X152285627Y-71432660D01*
X152216528Y-71645324D01*
X152115012Y-71844560D01*
X151983579Y-72025463D01*
X151825463Y-72183579D01*
X151644560Y-72315012D01*
X151445324Y-72416528D01*
X151232660Y-72485627D01*
X151011804Y-72520607D01*
X150788196Y-72520607D01*
X150567340Y-72485627D01*
X150354676Y-72416528D01*
X150155440Y-72315012D01*
X149974537Y-72183579D01*
X149816421Y-72025463D01*
X149684988Y-71844560D01*
X149583472Y-71645324D01*
X149514373Y-71432660D01*
X149479393Y-71211804D01*
X149479393Y-70988196D01*
X149514373Y-70767340D01*
X149583472Y-70554676D01*
X149684988Y-70355440D01*
X149816421Y-70174537D01*
X149974537Y-70016421D01*
X150155440Y-69884988D01*
X150354676Y-69783472D01*
X150567340Y-69714373D01*
X150788196Y-69679393D01*
X151011804Y-69679393D01*
X151232660Y-69714373D01*
G37*
G36*
X166472660Y-69714373D02*
G01*
X166685324Y-69783472D01*
X166884560Y-69884988D01*
X167065463Y-70016421D01*
X167223579Y-70174537D01*
X167355012Y-70355440D01*
X167456528Y-70554676D01*
X167525627Y-70767340D01*
X167560607Y-70988196D01*
X167560607Y-71211804D01*
X167525627Y-71432660D01*
X167456528Y-71645324D01*
X167355012Y-71844560D01*
X167223579Y-72025463D01*
X167065463Y-72183579D01*
X166884560Y-72315012D01*
X166685324Y-72416528D01*
X166472660Y-72485627D01*
X166251804Y-72520607D01*
X166028196Y-72520607D01*
X165807340Y-72485627D01*
X165594676Y-72416528D01*
X165395440Y-72315012D01*
X165214537Y-72183579D01*
X165056421Y-72025463D01*
X164924988Y-71844560D01*
X164823472Y-71645324D01*
X164754373Y-71432660D01*
X164719393Y-71211804D01*
X164719393Y-70988196D01*
X164754373Y-70767340D01*
X164823472Y-70554676D01*
X164924988Y-70355440D01*
X165056421Y-70174537D01*
X165214537Y-70016421D01*
X165395440Y-69884988D01*
X165594676Y-69783472D01*
X165807340Y-69714373D01*
X166028196Y-69679393D01*
X166251804Y-69679393D01*
X166472660Y-69714373D01*
G37*
G36*
X130180660Y-69712373D02*
G01*
X130393324Y-69781472D01*
X130592560Y-69882988D01*
X130773463Y-70014421D01*
X130931579Y-70172537D01*
X131063012Y-70353440D01*
X131164528Y-70552676D01*
X131233627Y-70765340D01*
X131268607Y-70986196D01*
X131268607Y-71209804D01*
X131233627Y-71430660D01*
X131164528Y-71643324D01*
X131063012Y-71842560D01*
X130931579Y-72023463D01*
X130773463Y-72181579D01*
X130592560Y-72313012D01*
X130393324Y-72414528D01*
X130180660Y-72483627D01*
X129959804Y-72518607D01*
X129736196Y-72518607D01*
X129515340Y-72483627D01*
X129302676Y-72414528D01*
X129103440Y-72313012D01*
X128922537Y-72181579D01*
X128764421Y-72023463D01*
X128632988Y-71842560D01*
X128531472Y-71643324D01*
X128462373Y-71430660D01*
X128427393Y-71209804D01*
X128427393Y-70986196D01*
X128462373Y-70765340D01*
X128531472Y-70552676D01*
X128632988Y-70353440D01*
X128764421Y-70172537D01*
X128922537Y-70014421D01*
X129103440Y-69882988D01*
X129302676Y-69781472D01*
X129515340Y-69712373D01*
X129736196Y-69677393D01*
X129959804Y-69677393D01*
X130180660Y-69712373D01*
G37*
G36*
X145420660Y-69712373D02*
G01*
X145633324Y-69781472D01*
X145832560Y-69882988D01*
X146013463Y-70014421D01*
X146171579Y-70172537D01*
X146303012Y-70353440D01*
X146404528Y-70552676D01*
X146473627Y-70765340D01*
X146508607Y-70986196D01*
X146508607Y-71209804D01*
X146473627Y-71430660D01*
X146404528Y-71643324D01*
X146303012Y-71842560D01*
X146171579Y-72023463D01*
X146013463Y-72181579D01*
X145832560Y-72313012D01*
X145633324Y-72414528D01*
X145420660Y-72483627D01*
X145199804Y-72518607D01*
X144976196Y-72518607D01*
X144755340Y-72483627D01*
X144542676Y-72414528D01*
X144343440Y-72313012D01*
X144162537Y-72181579D01*
X144004421Y-72023463D01*
X143872988Y-71842560D01*
X143771472Y-71643324D01*
X143702373Y-71430660D01*
X143667393Y-71209804D01*
X143667393Y-70986196D01*
X143702373Y-70765340D01*
X143771472Y-70552676D01*
X143872988Y-70353440D01*
X144004421Y-70172537D01*
X144162537Y-70014421D01*
X144343440Y-69882988D01*
X144542676Y-69781472D01*
X144755340Y-69712373D01*
X144976196Y-69677393D01*
X145199804Y-69677393D01*
X145420660Y-69712373D01*
G37*
G36*
X158813913Y-70131098D02*
G01*
X158997289Y-70207055D01*
X159162323Y-70317327D01*
X159302673Y-70457677D01*
X159412945Y-70622711D01*
X159488902Y-70806087D01*
X159527625Y-71000758D01*
X159527625Y-71199242D01*
X159488902Y-71393913D01*
X159412945Y-71577289D01*
X159302673Y-71742323D01*
X159162323Y-71882673D01*
X158997289Y-71992945D01*
X158813913Y-72068902D01*
X158619242Y-72107625D01*
X158420758Y-72107625D01*
X158226087Y-72068902D01*
X158042711Y-71992945D01*
X157877677Y-71882673D01*
X157737327Y-71742323D01*
X157627055Y-71577289D01*
X157551098Y-71393913D01*
X157512375Y-71199242D01*
X157512375Y-71000758D01*
X157551098Y-70806087D01*
X157627055Y-70622711D01*
X157737327Y-70457677D01*
X157877677Y-70317327D01*
X158042711Y-70207055D01*
X158226087Y-70131098D01*
X158420758Y-70092375D01*
X158619242Y-70092375D01*
X158813913Y-70131098D01*
G37*
G36*
X137761913Y-70129098D02*
G01*
X137945289Y-70205055D01*
X138110323Y-70315327D01*
X138250673Y-70455677D01*
X138360945Y-70620711D01*
X138436902Y-70804087D01*
X138475625Y-70998758D01*
X138475625Y-71197242D01*
X138436902Y-71391913D01*
X138360945Y-71575289D01*
X138250673Y-71740323D01*
X138110323Y-71880673D01*
X137945289Y-71990945D01*
X137761913Y-72066902D01*
X137567242Y-72105625D01*
X137368758Y-72105625D01*
X137174087Y-72066902D01*
X136990711Y-71990945D01*
X136825677Y-71880673D01*
X136685327Y-71740323D01*
X136575055Y-71575289D01*
X136499098Y-71391913D01*
X136460375Y-71197242D01*
X136460375Y-70998758D01*
X136499098Y-70804087D01*
X136575055Y-70620711D01*
X136685327Y-70455677D01*
X136825677Y-70315327D01*
X136990711Y-70205055D01*
X137174087Y-70129098D01*
X137368758Y-70090375D01*
X137567242Y-70090375D01*
X137761913Y-70129098D01*
G37*
M02*
