%TF.GenerationSoftware,KiCad,Pcbnew,10.0.5-unknown-202607221313~667fa36054~ubuntu25.10.1*%
%TF.CreationDate,Date%
%TF.ProjectId,OPEN_WEIGHT,4f50454e-5f57-4454-9947-48542e6b6963,+ (Unreleased)*%
%TF.SameCoordinates,Original*%
%TF.FileFunction,Paste,Top*%
%TF.FilePolarity,Positive*%
%FSLAX46Y46*%
G04 Gerber Fmt 4.6, Leading zero omitted, Abs format (unit mm)*
G04 Created by KiCad*
%MOMM*%
%LPD*%
G01*
G04 APERTURE LIST*
G04 Aperture macros list*
%AMRoundRect*
0 Rectangle with rounded corners*
0 $1 Rounding radius*
0 $2 $3 $4 $5 $6 $7 $8 $9 X,Y pos of 4 corners*
0 Add a 4 corners polygon primitive as box body*
4,1,4,$2,$3,$4,$5,$6,$7,$8,$9,$2,$3,0*
0 Add four circle primitives for the rounded corners*
1,1,$1+$1,$2,$3*
1,1,$1+$1,$4,$5*
1,1,$1+$1,$6,$7*
1,1,$1+$1,$8,$9*
0 Add four rect primitives between the rounded corners*
20,1,$1+$1,$2,$3,$4,$5,0*
20,1,$1+$1,$4,$5,$6,$7,0*
20,1,$1+$1,$6,$7,$8,$9,0*
20,1,$1+$1,$8,$9,$2,$3,0*%
G04 Aperture macros list end*
%ADD10C,0.010000*%
%ADD11RoundRect,0.200000X-0.275000X0.200000X-0.275000X-0.200000X0.275000X-0.200000X0.275000X0.200000X0*%
%ADD12RoundRect,0.225000X0.250000X-0.225000X0.250000X0.225000X-0.250000X0.225000X-0.250000X-0.225000X0*%
%ADD13RoundRect,0.200000X0.200000X0.275000X-0.200000X0.275000X-0.200000X-0.275000X0.200000X-0.275000X0*%
%ADD14R,1.850000X1.900000*%
%ADD15R,0.240000X0.600000*%
%ADD16R,2.400000X1.650000*%
%ADD17R,0.500000X0.250000*%
%ADD18RoundRect,0.225000X-0.225000X-0.250000X0.225000X-0.250000X0.225000X0.250000X-0.225000X0.250000X0*%
%ADD19RoundRect,0.225000X0.225000X0.250000X-0.225000X0.250000X-0.225000X-0.250000X0.225000X-0.250000X0*%
%ADD20RoundRect,0.150000X0.150000X-0.512500X0.150000X0.512500X-0.150000X0.512500X-0.150000X-0.512500X0*%
%ADD21R,1.450000X0.450000*%
%ADD22RoundRect,0.200000X0.275000X-0.200000X0.275000X0.200000X-0.275000X0.200000X-0.275000X-0.200000X0*%
%ADD23RoundRect,0.200000X-0.200000X-0.275000X0.200000X-0.275000X0.200000X0.275000X-0.200000X0.275000X0*%
%ADD24RoundRect,0.225000X-0.250000X0.225000X-0.250000X-0.225000X0.250000X-0.225000X0.250000X0.225000X0*%
%ADD25RoundRect,0.218750X-0.218750X-0.256250X0.218750X-0.256250X0.218750X0.256250X-0.218750X0.256250X0*%
%ADD26RoundRect,0.250000X-0.300000X0.300000X-0.300000X-0.300000X0.300000X-0.300000X0.300000X0.300000X0*%
%ADD27R,0.400000X0.900000*%
%ADD28R,1.700000X1.300000*%
%ADD29RoundRect,0.185000X0.195000X-0.185000X0.195000X0.185000X-0.195000X0.185000X-0.195000X-0.185000X0*%
%ADD30RoundRect,0.075000X0.075000X-0.650000X0.075000X0.650000X-0.075000X0.650000X-0.075000X-0.650000X0*%
G04 APERTURE END LIST*
D10*
%TO.C,Y2*%
X153927500Y-99400000D02*
X153927500Y-98900000D01*
X153727500Y-98900000D01*
X153727500Y-97300000D01*
X153927500Y-97300000D01*
X153927500Y-96800000D01*
X153127500Y-96800000D01*
X153127500Y-97300000D01*
X153327500Y-97300000D01*
X153327500Y-98900000D01*
X153127500Y-98900000D01*
X153127500Y-99400000D01*
X153927500Y-99400000D01*
G36*
X153927500Y-97300000D02*
G01*
X153727500Y-97300000D01*
X153727500Y-98900000D01*
X153927500Y-98900000D01*
X153927500Y-99400000D01*
X153127500Y-99400000D01*
X153127500Y-98900000D01*
X153327500Y-98900000D01*
X153327500Y-97300000D01*
X153127500Y-97300000D01*
X153127500Y-96800000D01*
X153927500Y-96800000D01*
X153927500Y-97300000D01*
G37*
X155427500Y-99400000D02*
X155427500Y-98900000D01*
X155227500Y-98900000D01*
X155227500Y-97300000D01*
X155427500Y-97300000D01*
X155427500Y-96800000D01*
X154627500Y-96800000D01*
X154627500Y-97300000D01*
X154827500Y-97300000D01*
X154827500Y-98900000D01*
X154627500Y-98900000D01*
X154627500Y-99400000D01*
X155427500Y-99400000D01*
G36*
X155427500Y-97300000D02*
G01*
X155227500Y-97300000D01*
X155227500Y-98900000D01*
X155427500Y-98900000D01*
X155427500Y-99400000D01*
X154627500Y-99400000D01*
X154627500Y-98900000D01*
X154827500Y-98900000D01*
X154827500Y-97300000D01*
X154627500Y-97300000D01*
X154627500Y-96800000D01*
X155427500Y-96800000D01*
X155427500Y-97300000D01*
G37*
X156927500Y-99400000D02*
X156927500Y-98900000D01*
X156727500Y-98900000D01*
X156727500Y-97300000D01*
X156927500Y-97300000D01*
X156927500Y-96800000D01*
X156127500Y-96800000D01*
X156127500Y-97300000D01*
X156327500Y-97300000D01*
X156327500Y-98900000D01*
X156127500Y-98900000D01*
X156127500Y-99400000D01*
X156927500Y-99400000D01*
G36*
X156927500Y-97300000D02*
G01*
X156727500Y-97300000D01*
X156727500Y-98900000D01*
X156927500Y-98900000D01*
X156927500Y-99400000D01*
X156127500Y-99400000D01*
X156127500Y-98900000D01*
X156327500Y-98900000D01*
X156327500Y-97300000D01*
X156127500Y-97300000D01*
X156127500Y-96800000D01*
X156927500Y-96800000D01*
X156927500Y-97300000D01*
G37*
%TD*%
D11*
%TO.C,R2*%
X142445000Y-81565000D03*
X142445000Y-83215000D03*
%TD*%
D12*
%TO.C,C22*%
X133475000Y-102025000D03*
X133475000Y-100475000D03*
%TD*%
D13*
%TO.C,R11*%
X164538750Y-103080000D03*
X162888750Y-103080000D03*
%TD*%
D11*
%TO.C,R4*%
X151850000Y-81565000D03*
X151850000Y-83215000D03*
%TD*%
D14*
%TO.C,L1*%
X130750000Y-104250000D03*
X126400000Y-104250000D03*
%TD*%
D11*
%TO.C,R1*%
X144155000Y-81565000D03*
X144155000Y-83215000D03*
%TD*%
D15*
%TO.C,IC2*%
X130975000Y-96200000D03*
X130475000Y-96200000D03*
X129975000Y-96200000D03*
X129475000Y-96200000D03*
X128975000Y-96200000D03*
X128975000Y-99000000D03*
X129475000Y-99000000D03*
X129975000Y-99000000D03*
X130475000Y-99000000D03*
X130975000Y-99000000D03*
D16*
X129975000Y-97600000D03*
D17*
X128525000Y-97350000D03*
X128525000Y-97850000D03*
X131425000Y-97850000D03*
X131425000Y-97350000D03*
%TD*%
D18*
%TO.C,C24*%
X155677500Y-95762500D03*
X157227500Y-95762500D03*
%TD*%
D19*
%TO.C,C25*%
X154227500Y-95762500D03*
X152677500Y-95762500D03*
%TD*%
D18*
%TO.C,C9*%
X148725000Y-83150000D03*
X150275000Y-83150000D03*
%TD*%
%TO.C,C27*%
X150325000Y-84640000D03*
X151875000Y-84640000D03*
%TD*%
D20*
%TO.C,Q1*%
X155050000Y-91437500D03*
X156950000Y-91437500D03*
X156000000Y-89162500D03*
%TD*%
D18*
%TO.C,C5*%
X147225000Y-84650000D03*
X148775000Y-84650000D03*
%TD*%
D21*
%TO.C,U1*%
X150900000Y-95075000D03*
X150900000Y-94425000D03*
X150900000Y-93775000D03*
X150900000Y-93125000D03*
X150900000Y-92475000D03*
X150900000Y-91825000D03*
X150900000Y-91175000D03*
X150900000Y-90525000D03*
X150900000Y-89875000D03*
X150900000Y-89225000D03*
X150900000Y-88575000D03*
X150900000Y-87925000D03*
X145100000Y-87925000D03*
X145100000Y-88575000D03*
X145100000Y-89225000D03*
X145100000Y-89875000D03*
X145100000Y-90525000D03*
X145100000Y-91175000D03*
X145100000Y-91825000D03*
X145100000Y-92475000D03*
X145100000Y-93125000D03*
X145100000Y-93775000D03*
X145100000Y-94425000D03*
X145100000Y-95075000D03*
%TD*%
D13*
%TO.C,R17*%
X130475000Y-92630000D03*
X128825000Y-92630000D03*
%TD*%
D22*
%TO.C,R13*%
X132450000Y-86313847D03*
X132450000Y-84663847D03*
%TD*%
D19*
%TO.C,C20*%
X126600000Y-95100000D03*
X125050000Y-95100000D03*
%TD*%
D23*
%TO.C,R16*%
X162888750Y-104580000D03*
X164538750Y-104580000D03*
%TD*%
D24*
%TO.C,C4*%
X141150000Y-90725000D03*
X141150000Y-92275000D03*
%TD*%
D23*
%TO.C,R14*%
X128775000Y-91100000D03*
X130425000Y-91100000D03*
%TD*%
D24*
%TO.C,C15*%
X125750000Y-84963847D03*
X125750000Y-86513847D03*
%TD*%
D13*
%TO.C,R9*%
X133675000Y-83238847D03*
X132025000Y-83238847D03*
%TD*%
D25*
%TO.C,D1*%
X159926250Y-106080000D03*
X161501250Y-106080000D03*
%TD*%
D23*
%TO.C,R15*%
X128825000Y-94100000D03*
X130475000Y-94100000D03*
%TD*%
D19*
%TO.C,C6*%
X144075000Y-86150000D03*
X142525000Y-86150000D03*
%TD*%
D12*
%TO.C,C21*%
X134985000Y-102025000D03*
X134985000Y-100475000D03*
%TD*%
D22*
%TO.C,R6*%
X145400000Y-106425000D03*
X145400000Y-104775000D03*
%TD*%
D12*
%TO.C,C23*%
X155290000Y-87475000D03*
X155290000Y-85925000D03*
%TD*%
D18*
%TO.C,C26*%
X155425000Y-93300000D03*
X156975000Y-93300000D03*
%TD*%
%TO.C,C28*%
X151900000Y-86150000D03*
X153450000Y-86150000D03*
%TD*%
D11*
%TO.C,R5*%
X153520000Y-81565000D03*
X153520000Y-83215000D03*
%TD*%
D12*
%TO.C,C11*%
X156800000Y-87475000D03*
X156800000Y-85925000D03*
%TD*%
%TO.C,C17*%
X131975000Y-94125000D03*
X131975000Y-92575000D03*
%TD*%
D23*
%TO.C,R8*%
X142325000Y-104800000D03*
X143975000Y-104800000D03*
%TD*%
D11*
%TO.C,R12*%
X133950000Y-84663847D03*
X133950000Y-86313847D03*
%TD*%
D24*
%TO.C,C1*%
X141150000Y-93725000D03*
X141150000Y-95275000D03*
%TD*%
D26*
%TO.C,D3*%
X126075000Y-96650000D03*
X126075000Y-99450000D03*
%TD*%
D18*
%TO.C,C18*%
X133450000Y-99000000D03*
X135000000Y-99000000D03*
%TD*%
D27*
%TO.C,RN1*%
X149200000Y-104775000D03*
X148400000Y-104775000D03*
X147600000Y-104775000D03*
X146800000Y-104775000D03*
X146800000Y-106475000D03*
X147600000Y-106475000D03*
X148400000Y-106475000D03*
X149200000Y-106475000D03*
%TD*%
D18*
%TO.C,C7*%
X145725000Y-83150000D03*
X147275000Y-83150000D03*
%TD*%
D19*
%TO.C,C10*%
X145675000Y-84650000D03*
X144125000Y-84650000D03*
%TD*%
D24*
%TO.C,C13*%
X127300000Y-84963847D03*
X127300000Y-86513847D03*
%TD*%
D25*
%TO.C,D2*%
X159926250Y-103080000D03*
X161501250Y-103080000D03*
%TD*%
D18*
%TO.C,C12*%
X155500000Y-94500000D03*
X157050000Y-94500000D03*
%TD*%
D28*
%TO.C,C14*%
X130200000Y-82988847D03*
X127500000Y-82988847D03*
%TD*%
D29*
%TO.C,U2*%
X129430000Y-87698847D03*
X130370000Y-87698847D03*
X129430000Y-86778847D03*
X130370000Y-86778847D03*
D30*
X128900000Y-89388847D03*
X129400000Y-89388847D03*
X129900000Y-89388847D03*
X130400000Y-89388847D03*
X130900000Y-89388847D03*
X130900000Y-85088847D03*
X130400000Y-85088847D03*
X129900000Y-85088847D03*
X129400000Y-85088847D03*
X128900000Y-85088847D03*
%TD*%
D19*
%TO.C,C8*%
X142475000Y-84650000D03*
X140925000Y-84650000D03*
%TD*%
D24*
%TO.C,C2*%
X142650000Y-93725000D03*
X142650000Y-95275000D03*
%TD*%
D11*
%TO.C,R18*%
X133475000Y-94175000D03*
X133475000Y-95825000D03*
%TD*%
D24*
%TO.C,C3*%
X142650000Y-90725000D03*
X142650000Y-92275000D03*
%TD*%
D23*
%TO.C,R10*%
X152375000Y-92500000D03*
X154025000Y-92500000D03*
%TD*%
D19*
%TO.C,C19*%
X126600000Y-93590000D03*
X125050000Y-93590000D03*
%TD*%
D23*
%TO.C,R3*%
X162888750Y-106080000D03*
X164538750Y-106080000D03*
%TD*%
D12*
%TO.C,C16*%
X127300000Y-89563847D03*
X127300000Y-88013847D03*
%TD*%
D18*
%TO.C,C29*%
X153500000Y-84650000D03*
X155050000Y-84650000D03*
%TD*%
D25*
%TO.C,D4*%
X159926250Y-104580000D03*
X161501250Y-104580000D03*
%TD*%
M02*
