%TF.GenerationSoftware,KiCad,Pcbnew,10.0.5-unknown-202607221313~667fa36054~ubuntu25.10.1*%
%TF.CreationDate,Date%
%TF.ProjectId,OPEN_WEIGHT,4f50454e-5f57-4454-9947-48542e6b6963,+ (Unreleased)*%
%TF.SameCoordinates,Original*%
%TF.FileFunction,Soldermask,Bot*%
%TF.FilePolarity,Negative*%
%FSLAX46Y46*%
G04 Gerber Fmt 4.6, Leading zero omitted, Abs format (unit mm)*
G04 Created by KiCad*
%MOMM*%
%LPD*%
G01*
G04 APERTURE LIST*
G04 APERTURE END LIST*
G36*
X171752399Y-65950477D02*
G01*
X171757224Y-65950952D01*
X171759476Y-65951884D01*
X171769134Y-65953806D01*
X171772684Y-65957356D01*
X171777232Y-65959240D01*
X171790759Y-65972767D01*
X171792642Y-65977314D01*
X171796194Y-65980866D01*
X171798115Y-65990526D01*
X171799047Y-65992775D01*
X171799521Y-65997595D01*
X171800000Y-66000000D01*
X171800000Y-66002452D01*
X171800000Y-66024626D01*
X171829289Y-66053915D01*
X171907016Y-66053915D01*
X171918378Y-66055034D01*
X171929425Y-66055034D01*
X172006124Y-66063675D01*
X172219530Y-66084694D01*
X172254633Y-66091676D01*
X172286020Y-66095213D01*
X172378305Y-66116276D01*
X172527518Y-66145957D01*
X172585790Y-66163633D01*
X172635874Y-66175065D01*
X172716648Y-66203329D01*
X172828026Y-66237115D01*
X172908684Y-66270524D01*
X172974587Y-66293585D01*
X173037493Y-66323879D01*
X173118154Y-66357290D01*
X173220799Y-66412155D01*
X173297900Y-66449285D01*
X173341397Y-66476616D01*
X173395091Y-66505316D01*
X173521551Y-66589814D01*
X173601748Y-66640205D01*
X173626458Y-66659911D01*
X173656202Y-66679785D01*
X173821925Y-66815791D01*
X173882309Y-66863945D01*
X173890122Y-66871758D01*
X173898945Y-66878999D01*
X174121000Y-67101054D01*
X174128240Y-67109876D01*
X174136055Y-67117691D01*
X174184215Y-67178081D01*
X174320214Y-67343797D01*
X174340086Y-67373538D01*
X174359795Y-67398252D01*
X174410191Y-67478457D01*
X174494683Y-67604908D01*
X174523380Y-67658597D01*
X174550715Y-67702100D01*
X174587849Y-67779209D01*
X174642709Y-67881845D01*
X174676116Y-67962497D01*
X174706415Y-68025413D01*
X174729478Y-68091324D01*
X174762884Y-68171973D01*
X174796665Y-68283336D01*
X174824935Y-68364126D01*
X174836368Y-68414218D01*
X174854042Y-68472481D01*
X174883717Y-68621666D01*
X174904787Y-68713980D01*
X174908324Y-68745375D01*
X174915305Y-68780469D01*
X174936321Y-68993855D01*
X174944966Y-69070575D01*
X174944966Y-69081622D01*
X174946085Y-69092984D01*
X174946085Y-69170711D01*
X174975374Y-69200000D01*
X175000000Y-69200000D01*
X175002399Y-69200477D01*
X175007224Y-69200952D01*
X175009476Y-69201884D01*
X175019134Y-69203806D01*
X175022684Y-69207356D01*
X175027232Y-69209240D01*
X175040759Y-69222767D01*
X175042642Y-69227314D01*
X175046194Y-69230866D01*
X175048115Y-69240526D01*
X175049047Y-69242775D01*
X175049521Y-69247595D01*
X175050000Y-69250000D01*
X175050000Y-110750000D01*
X175049521Y-110752405D01*
X175049047Y-110757224D01*
X175048115Y-110759471D01*
X175046194Y-110769134D01*
X175042642Y-110772685D01*
X175040759Y-110777232D01*
X175027232Y-110790759D01*
X175022685Y-110792642D01*
X175019134Y-110796194D01*
X175009471Y-110798115D01*
X175007224Y-110799047D01*
X175002404Y-110799521D01*
X175000000Y-110800000D01*
X174997548Y-110800000D01*
X174975374Y-110800000D01*
X174946085Y-110829289D01*
X174946085Y-110907015D01*
X174944966Y-110918376D01*
X174944966Y-110929425D01*
X174936320Y-111006151D01*
X174915305Y-111219530D01*
X174908324Y-111254621D01*
X174904787Y-111286020D01*
X174883715Y-111378340D01*
X174854042Y-111527518D01*
X174836369Y-111585777D01*
X174824935Y-111635874D01*
X174796663Y-111716670D01*
X174762884Y-111828026D01*
X174729480Y-111908669D01*
X174706415Y-111974587D01*
X174676113Y-112037508D01*
X174642709Y-112118154D01*
X174587853Y-112220780D01*
X174550715Y-112297900D01*
X174523377Y-112341407D01*
X174494683Y-112395091D01*
X174410201Y-112521526D01*
X174359795Y-112601748D01*
X174340082Y-112626466D01*
X174320214Y-112656202D01*
X174184243Y-112821882D01*
X174136055Y-112882309D01*
X174128235Y-112890128D01*
X174121000Y-112898945D01*
X173898945Y-113121000D01*
X173890128Y-113128235D01*
X173882309Y-113136055D01*
X173821882Y-113184243D01*
X173656202Y-113320214D01*
X173626466Y-113340082D01*
X173601748Y-113359795D01*
X173521526Y-113410201D01*
X173395091Y-113494683D01*
X173341407Y-113523377D01*
X173297900Y-113550715D01*
X173220780Y-113587853D01*
X173118154Y-113642709D01*
X173037508Y-113676113D01*
X172974587Y-113706415D01*
X172908669Y-113729480D01*
X172828026Y-113762884D01*
X172716670Y-113796663D01*
X172635874Y-113824935D01*
X172585777Y-113836369D01*
X172527518Y-113854042D01*
X172378340Y-113883715D01*
X172286020Y-113904787D01*
X172254621Y-113908324D01*
X172219530Y-113915305D01*
X172006146Y-113936321D01*
X171929425Y-113944966D01*
X171918377Y-113944966D01*
X171907016Y-113946085D01*
X171829289Y-113946085D01*
X171800000Y-113975374D01*
X171800000Y-114000000D01*
X171799521Y-114002405D01*
X171799047Y-114007224D01*
X171798115Y-114009471D01*
X171796194Y-114019134D01*
X171792642Y-114022685D01*
X171790759Y-114027232D01*
X171777232Y-114040759D01*
X171772685Y-114042642D01*
X171769134Y-114046194D01*
X171759471Y-114048115D01*
X171757224Y-114049047D01*
X171752404Y-114049521D01*
X171750000Y-114050000D01*
X171747548Y-114050000D01*
X158062452Y-114050000D01*
X158060000Y-114050000D01*
X158057595Y-114049521D01*
X158052775Y-114049047D01*
X158050526Y-114048115D01*
X158040866Y-114046194D01*
X158037314Y-114042642D01*
X158032767Y-114040759D01*
X158019240Y-114027232D01*
X158017356Y-114022684D01*
X158013806Y-114019134D01*
X158011884Y-114009476D01*
X158010952Y-114007224D01*
X158010477Y-114002400D01*
X158010000Y-114000000D01*
X158010000Y-110750000D01*
X158010477Y-110747600D01*
X158010952Y-110742775D01*
X158011885Y-110740521D01*
X158013806Y-110730866D01*
X158017355Y-110727316D01*
X158019240Y-110722767D01*
X158032767Y-110709240D01*
X158037316Y-110707355D01*
X158040866Y-110703806D01*
X158050521Y-110701885D01*
X158052775Y-110700952D01*
X158057600Y-110700477D01*
X158060000Y-110700000D01*
X168524626Y-110700000D01*
X168553915Y-110670711D01*
X168553915Y-110592984D01*
X168555034Y-110581622D01*
X168555034Y-110570575D01*
X168563675Y-110493878D01*
X168584694Y-110280469D01*
X168591676Y-110245364D01*
X168595213Y-110213980D01*
X168616275Y-110121700D01*
X168645957Y-109972481D01*
X168663634Y-109914205D01*
X168675065Y-109864126D01*
X168703326Y-109783357D01*
X168737115Y-109671973D01*
X168770527Y-109591308D01*
X168793585Y-109525413D01*
X168823876Y-109462512D01*
X168857290Y-109381845D01*
X168912160Y-109279190D01*
X168949285Y-109202100D01*
X168976612Y-109158608D01*
X169005316Y-109104908D01*
X169089824Y-108978432D01*
X169140205Y-108898252D01*
X169159907Y-108873546D01*
X169179785Y-108843797D01*
X169315819Y-108678038D01*
X169363945Y-108617691D01*
X169371754Y-108609881D01*
X169378999Y-108601054D01*
X169601054Y-108378999D01*
X169609881Y-108371754D01*
X169617691Y-108363945D01*
X169678038Y-108315819D01*
X169843797Y-108179785D01*
X169873546Y-108159907D01*
X169898252Y-108140205D01*
X169978432Y-108089824D01*
X170104908Y-108005316D01*
X170158608Y-107976612D01*
X170202100Y-107949285D01*
X170279190Y-107912160D01*
X170381845Y-107857290D01*
X170462512Y-107823876D01*
X170525413Y-107793585D01*
X170591308Y-107770527D01*
X170671973Y-107737115D01*
X170783357Y-107703326D01*
X170864126Y-107675065D01*
X170914205Y-107663634D01*
X170972481Y-107645957D01*
X171121700Y-107616275D01*
X171213980Y-107595213D01*
X171245364Y-107591676D01*
X171280469Y-107584694D01*
X171493878Y-107563675D01*
X171570575Y-107555034D01*
X171581622Y-107555034D01*
X171592984Y-107553915D01*
X171670711Y-107553915D01*
X171700000Y-107524626D01*
X171700000Y-72475374D01*
X171670711Y-72446085D01*
X171592984Y-72446085D01*
X171581623Y-72444966D01*
X171570575Y-72444966D01*
X171493855Y-72436321D01*
X171280469Y-72415305D01*
X171245375Y-72408324D01*
X171213980Y-72404787D01*
X171121666Y-72383717D01*
X170972481Y-72354042D01*
X170914218Y-72336368D01*
X170864126Y-72324935D01*
X170783336Y-72296665D01*
X170671973Y-72262884D01*
X170591324Y-72229478D01*
X170525413Y-72206415D01*
X170462497Y-72176116D01*
X170381845Y-72142709D01*
X170279209Y-72087849D01*
X170202100Y-72050715D01*
X170158597Y-72023380D01*
X170104908Y-71994683D01*
X169978457Y-71910191D01*
X169898252Y-71859795D01*
X169873538Y-71840086D01*
X169843797Y-71820214D01*
X169678081Y-71684215D01*
X169617691Y-71636055D01*
X169609876Y-71628240D01*
X169601054Y-71621000D01*
X169378999Y-71398945D01*
X169371758Y-71390122D01*
X169363945Y-71382309D01*
X169315791Y-71321925D01*
X169179785Y-71156202D01*
X169159911Y-71126458D01*
X169140205Y-71101748D01*
X169089814Y-71021551D01*
X169005316Y-70895091D01*
X168976616Y-70841397D01*
X168949285Y-70797900D01*
X168912155Y-70720799D01*
X168857290Y-70618154D01*
X168823879Y-70537493D01*
X168793585Y-70474587D01*
X168770524Y-70408684D01*
X168737115Y-70328026D01*
X168703329Y-70216648D01*
X168675065Y-70135874D01*
X168663633Y-70085790D01*
X168645957Y-70027518D01*
X168616276Y-69878305D01*
X168595213Y-69786020D01*
X168591676Y-69754633D01*
X168584694Y-69719530D01*
X168563676Y-69506128D01*
X168555034Y-69429425D01*
X168555034Y-69418376D01*
X168553915Y-69407015D01*
X168553915Y-69329289D01*
X168524626Y-69300000D01*
X127475374Y-69300000D01*
X127446085Y-69329289D01*
X127446085Y-69407015D01*
X127444966Y-69418376D01*
X127444966Y-69429425D01*
X127436320Y-69506151D01*
X127415305Y-69719530D01*
X127408324Y-69754621D01*
X127404787Y-69786020D01*
X127383715Y-69878340D01*
X127354042Y-70027518D01*
X127336369Y-70085777D01*
X127324935Y-70135874D01*
X127296663Y-70216670D01*
X127262884Y-70328026D01*
X127229480Y-70408669D01*
X127206415Y-70474587D01*
X127176113Y-70537508D01*
X127142709Y-70618154D01*
X127087853Y-70720780D01*
X127050715Y-70797900D01*
X127023377Y-70841407D01*
X126994683Y-70895091D01*
X126910201Y-71021526D01*
X126859795Y-71101748D01*
X126840082Y-71126466D01*
X126820214Y-71156202D01*
X126684243Y-71321882D01*
X126636055Y-71382309D01*
X126628235Y-71390128D01*
X126621000Y-71398945D01*
X126398945Y-71621000D01*
X126390128Y-71628235D01*
X126382309Y-71636055D01*
X126321882Y-71684243D01*
X126156202Y-71820214D01*
X126126466Y-71840082D01*
X126101748Y-71859795D01*
X126021526Y-71910201D01*
X125895091Y-71994683D01*
X125841407Y-72023377D01*
X125797900Y-72050715D01*
X125720780Y-72087853D01*
X125618154Y-72142709D01*
X125537508Y-72176113D01*
X125474587Y-72206415D01*
X125408669Y-72229480D01*
X125328026Y-72262884D01*
X125216670Y-72296663D01*
X125135874Y-72324935D01*
X125085777Y-72336369D01*
X125027518Y-72354042D01*
X124878340Y-72383715D01*
X124786020Y-72404787D01*
X124754621Y-72408324D01*
X124719530Y-72415305D01*
X124506146Y-72436321D01*
X124429425Y-72444966D01*
X124418377Y-72444966D01*
X124407016Y-72446085D01*
X124329289Y-72446085D01*
X124300000Y-72475374D01*
X124300000Y-107524626D01*
X124329289Y-107553915D01*
X124407016Y-107553915D01*
X124418378Y-107555034D01*
X124429425Y-107555034D01*
X124506124Y-107563675D01*
X124719530Y-107584694D01*
X124754633Y-107591676D01*
X124786020Y-107595213D01*
X124878305Y-107616276D01*
X125027518Y-107645957D01*
X125085790Y-107663633D01*
X125135874Y-107675065D01*
X125216648Y-107703329D01*
X125328026Y-107737115D01*
X125408684Y-107770524D01*
X125474587Y-107793585D01*
X125537493Y-107823879D01*
X125618154Y-107857290D01*
X125720799Y-107912155D01*
X125797900Y-107949285D01*
X125841397Y-107976616D01*
X125895091Y-108005316D01*
X126021551Y-108089814D01*
X126101748Y-108140205D01*
X126126458Y-108159911D01*
X126156202Y-108179785D01*
X126321925Y-108315791D01*
X126382309Y-108363945D01*
X126390122Y-108371758D01*
X126398945Y-108378999D01*
X126621000Y-108601054D01*
X126628240Y-108609876D01*
X126636055Y-108617691D01*
X126684215Y-108678081D01*
X126820214Y-108843797D01*
X126840086Y-108873538D01*
X126859795Y-108898252D01*
X126910191Y-108978457D01*
X126994683Y-109104908D01*
X127023380Y-109158597D01*
X127050715Y-109202100D01*
X127087849Y-109279209D01*
X127142709Y-109381845D01*
X127176116Y-109462497D01*
X127206415Y-109525413D01*
X127229478Y-109591324D01*
X127262884Y-109671973D01*
X127296665Y-109783336D01*
X127324935Y-109864126D01*
X127336368Y-109914218D01*
X127354042Y-109972481D01*
X127383717Y-110121666D01*
X127404787Y-110213980D01*
X127408324Y-110245375D01*
X127415305Y-110280469D01*
X127436321Y-110493855D01*
X127444966Y-110570575D01*
X127444966Y-110581622D01*
X127446085Y-110592984D01*
X127446085Y-110670711D01*
X127475374Y-110700000D01*
X137940000Y-110700000D01*
X137942399Y-110700477D01*
X137947224Y-110700952D01*
X137949476Y-110701884D01*
X137959134Y-110703806D01*
X137962684Y-110707356D01*
X137967232Y-110709240D01*
X137980759Y-110722767D01*
X137982642Y-110727314D01*
X137986194Y-110730866D01*
X137988115Y-110740526D01*
X137989047Y-110742775D01*
X137989521Y-110747595D01*
X137990000Y-110750000D01*
X137990000Y-114000000D01*
X137989521Y-114002405D01*
X137989047Y-114007224D01*
X137988115Y-114009471D01*
X137986194Y-114019134D01*
X137982642Y-114022685D01*
X137980759Y-114027232D01*
X137967232Y-114040759D01*
X137962685Y-114042642D01*
X137959134Y-114046194D01*
X137949471Y-114048115D01*
X137947224Y-114049047D01*
X137942404Y-114049521D01*
X137940000Y-114050000D01*
X137937548Y-114050000D01*
X124252452Y-114050000D01*
X124250000Y-114050000D01*
X124247595Y-114049521D01*
X124242775Y-114049047D01*
X124240526Y-114048115D01*
X124230866Y-114046194D01*
X124227314Y-114042642D01*
X124222767Y-114040759D01*
X124209240Y-114027232D01*
X124207356Y-114022684D01*
X124203806Y-114019134D01*
X124201884Y-114009476D01*
X124200952Y-114007224D01*
X124200477Y-114002400D01*
X124200000Y-114000000D01*
X124200000Y-113975374D01*
X124170711Y-113946085D01*
X124092984Y-113946085D01*
X124081623Y-113944966D01*
X124070575Y-113944966D01*
X123993855Y-113936321D01*
X123780469Y-113915305D01*
X123745375Y-113908324D01*
X123713980Y-113904787D01*
X123621666Y-113883717D01*
X123472481Y-113854042D01*
X123414218Y-113836368D01*
X123364126Y-113824935D01*
X123283336Y-113796665D01*
X123171973Y-113762884D01*
X123091324Y-113729478D01*
X123025413Y-113706415D01*
X122962497Y-113676116D01*
X122881845Y-113642709D01*
X122779209Y-113587849D01*
X122702100Y-113550715D01*
X122658597Y-113523380D01*
X122604908Y-113494683D01*
X122478457Y-113410191D01*
X122398252Y-113359795D01*
X122373538Y-113340086D01*
X122343797Y-113320214D01*
X122178081Y-113184215D01*
X122117691Y-113136055D01*
X122109876Y-113128240D01*
X122101054Y-113121000D01*
X121878999Y-112898945D01*
X121871758Y-112890122D01*
X121863945Y-112882309D01*
X121815791Y-112821925D01*
X121679785Y-112656202D01*
X121659911Y-112626458D01*
X121640205Y-112601748D01*
X121589814Y-112521551D01*
X121505316Y-112395091D01*
X121476616Y-112341397D01*
X121449285Y-112297900D01*
X121412155Y-112220799D01*
X121357290Y-112118154D01*
X121323879Y-112037493D01*
X121293585Y-111974587D01*
X121270524Y-111908684D01*
X121237115Y-111828026D01*
X121203329Y-111716648D01*
X121175065Y-111635874D01*
X121163633Y-111585790D01*
X121145957Y-111527518D01*
X121116276Y-111378305D01*
X121095213Y-111286020D01*
X121091676Y-111254633D01*
X121084694Y-111219530D01*
X121063676Y-111006128D01*
X121055034Y-110929425D01*
X121055034Y-110918376D01*
X121053915Y-110907015D01*
X121053915Y-110829289D01*
X121024626Y-110800000D01*
X121002452Y-110800000D01*
X121000000Y-110800000D01*
X120997595Y-110799521D01*
X120992775Y-110799047D01*
X120990526Y-110798115D01*
X120980866Y-110796194D01*
X120977314Y-110792642D01*
X120972767Y-110790759D01*
X120959240Y-110777232D01*
X120957356Y-110772684D01*
X120953806Y-110769134D01*
X120951884Y-110759476D01*
X120950952Y-110757224D01*
X120950477Y-110752400D01*
X120950000Y-110750000D01*
X120950000Y-69250000D01*
X120950477Y-69247600D01*
X120950952Y-69242775D01*
X120951885Y-69240521D01*
X120953806Y-69230866D01*
X120957355Y-69227316D01*
X120959240Y-69222767D01*
X120972767Y-69209240D01*
X120977316Y-69207355D01*
X120980866Y-69203806D01*
X120990521Y-69201885D01*
X120992775Y-69200952D01*
X120997600Y-69200477D01*
X121000000Y-69200000D01*
X121024626Y-69200000D01*
X121053915Y-69170711D01*
X121053915Y-69092984D01*
X121055034Y-69081622D01*
X121055034Y-69070575D01*
X121063675Y-68993878D01*
X121084694Y-68780469D01*
X121091676Y-68745364D01*
X121095213Y-68713980D01*
X121116275Y-68621700D01*
X121145957Y-68472481D01*
X121163634Y-68414205D01*
X121175065Y-68364126D01*
X121203326Y-68283357D01*
X121237115Y-68171973D01*
X121270527Y-68091308D01*
X121293585Y-68025413D01*
X121323876Y-67962512D01*
X121357290Y-67881845D01*
X121412160Y-67779190D01*
X121449285Y-67702100D01*
X121476612Y-67658608D01*
X121505316Y-67604908D01*
X121589824Y-67478432D01*
X121640205Y-67398252D01*
X121659907Y-67373546D01*
X121679785Y-67343797D01*
X121815819Y-67178038D01*
X121863945Y-67117691D01*
X121871754Y-67109881D01*
X121878999Y-67101054D01*
X122101054Y-66878999D01*
X122109881Y-66871754D01*
X122117691Y-66863945D01*
X122178038Y-66815819D01*
X122343797Y-66679785D01*
X122373546Y-66659907D01*
X122398252Y-66640205D01*
X122478432Y-66589824D01*
X122604908Y-66505316D01*
X122658608Y-66476612D01*
X122702100Y-66449285D01*
X122779190Y-66412160D01*
X122881845Y-66357290D01*
X122962512Y-66323876D01*
X123025413Y-66293585D01*
X123091308Y-66270527D01*
X123171973Y-66237115D01*
X123283357Y-66203326D01*
X123364126Y-66175065D01*
X123414205Y-66163634D01*
X123472481Y-66145957D01*
X123621700Y-66116275D01*
X123713980Y-66095213D01*
X123745364Y-66091676D01*
X123780469Y-66084694D01*
X123993878Y-66063675D01*
X124070575Y-66055034D01*
X124081622Y-66055034D01*
X124092984Y-66053915D01*
X124170711Y-66053915D01*
X124200000Y-66024626D01*
X124200000Y-66002452D01*
X124200000Y-66000000D01*
X124200477Y-65997600D01*
X124200952Y-65992775D01*
X124201885Y-65990521D01*
X124203806Y-65980866D01*
X124207355Y-65977316D01*
X124209240Y-65972767D01*
X124222767Y-65959240D01*
X124227316Y-65957355D01*
X124230866Y-65953806D01*
X124240521Y-65951885D01*
X124242775Y-65950952D01*
X124247600Y-65950477D01*
X124250000Y-65950000D01*
X171750000Y-65950000D01*
X171752399Y-65950477D01*
G37*
G36*
X138968858Y-111905133D02*
G01*
X138978316Y-111905133D01*
X139005563Y-111912433D01*
X139074099Y-111926066D01*
X139106448Y-111939465D01*
X139129610Y-111945672D01*
X139150377Y-111957662D01*
X139182722Y-111971060D01*
X139240816Y-112009877D01*
X139265257Y-112023988D01*
X139271946Y-112030677D01*
X139280481Y-112036380D01*
X139363619Y-112119518D01*
X139369321Y-112128052D01*
X139376012Y-112134743D01*
X139390124Y-112159186D01*
X139428939Y-112217277D01*
X139442335Y-112249618D01*
X139454328Y-112270390D01*
X139460535Y-112293555D01*
X139473933Y-112325900D01*
X139487565Y-112394433D01*
X139494867Y-112421684D01*
X139494867Y-112431141D01*
X139496870Y-112441211D01*
X139496870Y-112558788D01*
X139494867Y-112568857D01*
X139494867Y-112578316D01*
X139487564Y-112605569D01*
X139473933Y-112674099D01*
X139460535Y-112706441D01*
X139454328Y-112729610D01*
X139442334Y-112750383D01*
X139428939Y-112782722D01*
X139390128Y-112840805D01*
X139376012Y-112865257D01*
X139369319Y-112871949D01*
X139363619Y-112880481D01*
X139280481Y-112963619D01*
X139271949Y-112969319D01*
X139265257Y-112976012D01*
X139240805Y-112990128D01*
X139182722Y-113028939D01*
X139150383Y-113042334D01*
X139129610Y-113054328D01*
X139106441Y-113060535D01*
X139074099Y-113073933D01*
X139005569Y-113087564D01*
X138978316Y-113094867D01*
X138968858Y-113094867D01*
X138958788Y-113096870D01*
X138841212Y-113096870D01*
X138831142Y-113094867D01*
X138821684Y-113094867D01*
X138794432Y-113087564D01*
X138725900Y-113073933D01*
X138693555Y-113060535D01*
X138670390Y-113054328D01*
X138649618Y-113042335D01*
X138617277Y-113028939D01*
X138559186Y-112990124D01*
X138534743Y-112976012D01*
X138528052Y-112969321D01*
X138519518Y-112963619D01*
X138436380Y-112880481D01*
X138430677Y-112871946D01*
X138423988Y-112865257D01*
X138409877Y-112840816D01*
X138371060Y-112782722D01*
X138357662Y-112750377D01*
X138345672Y-112729610D01*
X138339465Y-112706448D01*
X138326066Y-112674099D01*
X138312433Y-112605563D01*
X138305133Y-112578316D01*
X138305133Y-112568858D01*
X138303130Y-112558788D01*
X138303130Y-112441211D01*
X138305133Y-112431140D01*
X138305133Y-112421684D01*
X138312433Y-112394439D01*
X138326066Y-112325900D01*
X138339466Y-112293548D01*
X138345672Y-112270390D01*
X138357660Y-112249624D01*
X138371060Y-112217277D01*
X138409881Y-112159175D01*
X138423988Y-112134743D01*
X138430675Y-112128055D01*
X138436380Y-112119518D01*
X138519518Y-112036380D01*
X138528055Y-112030675D01*
X138534743Y-112023988D01*
X138559175Y-112009881D01*
X138617277Y-111971060D01*
X138649624Y-111957660D01*
X138670390Y-111945672D01*
X138693548Y-111939466D01*
X138725900Y-111926066D01*
X138794437Y-111912433D01*
X138821684Y-111905133D01*
X138831142Y-111905133D01*
X138841212Y-111903130D01*
X138958788Y-111903130D01*
X138968858Y-111905133D01*
G37*
G36*
X141104047Y-109525805D02*
G01*
X141155408Y-109531764D01*
X141172954Y-109539511D01*
X141195671Y-109544030D01*
X141219991Y-109560280D01*
X141240793Y-109569465D01*
X141255000Y-109583672D01*
X141276777Y-109598223D01*
X141291327Y-109619999D01*
X141305534Y-109634206D01*
X141314718Y-109655006D01*
X141330970Y-109679329D01*
X141335489Y-109702048D01*
X141343235Y-109719591D01*
X141349192Y-109770940D01*
X141350000Y-109775000D01*
X141350000Y-111225000D01*
X141349192Y-111229059D01*
X141343235Y-111280408D01*
X141335489Y-111297950D01*
X141330970Y-111320671D01*
X141314716Y-111344995D01*
X141305534Y-111365793D01*
X141291329Y-111379997D01*
X141276777Y-111401777D01*
X141254997Y-111416329D01*
X141240793Y-111430534D01*
X141219995Y-111439716D01*
X141195671Y-111455970D01*
X141172950Y-111460489D01*
X141155408Y-111468235D01*
X141104061Y-111474192D01*
X141100000Y-111475000D01*
X139900000Y-111475000D01*
X139895941Y-111474192D01*
X139844591Y-111468235D01*
X139827048Y-111460489D01*
X139804329Y-111455970D01*
X139780006Y-111439718D01*
X139759206Y-111430534D01*
X139744999Y-111416327D01*
X139723223Y-111401777D01*
X139708672Y-111380000D01*
X139694465Y-111365793D01*
X139685280Y-111344991D01*
X139669030Y-111320671D01*
X139664511Y-111297954D01*
X139656764Y-111280408D01*
X139650805Y-111229049D01*
X139650000Y-111225000D01*
X139650000Y-109775000D01*
X139650804Y-109770953D01*
X139656764Y-109719591D01*
X139664511Y-109702043D01*
X139669030Y-109679329D01*
X139685278Y-109655010D01*
X139694465Y-109634206D01*
X139708674Y-109619996D01*
X139723223Y-109598223D01*
X139744996Y-109583674D01*
X139759206Y-109569465D01*
X139780010Y-109560278D01*
X139804329Y-109544030D01*
X139827043Y-109539511D01*
X139844591Y-109531764D01*
X139895952Y-109525805D01*
X139900000Y-109525000D01*
X141100000Y-109525000D01*
X141104047Y-109525805D01*
G37*
G36*
X143246742Y-109561601D02*
G01*
X143400687Y-109625367D01*
X143539234Y-109717941D01*
X143657059Y-109835766D01*
X143749633Y-109974313D01*
X143813399Y-110128258D01*
X143845907Y-110291685D01*
X143850000Y-110375000D01*
X143850000Y-110625000D01*
X143845907Y-110708315D01*
X143813399Y-110871742D01*
X143749633Y-111025687D01*
X143657059Y-111164234D01*
X143539234Y-111282059D01*
X143400687Y-111374633D01*
X143246742Y-111438399D01*
X143083315Y-111470907D01*
X142916685Y-111470907D01*
X142753258Y-111438399D01*
X142599313Y-111374633D01*
X142460766Y-111282059D01*
X142342941Y-111164234D01*
X142250367Y-111025687D01*
X142186601Y-110871742D01*
X142154093Y-110708315D01*
X142150000Y-110625000D01*
X142150000Y-110375000D01*
X142154093Y-110291685D01*
X142186601Y-110128258D01*
X142250367Y-109974313D01*
X142342941Y-109835766D01*
X142460766Y-109717941D01*
X142599313Y-109625367D01*
X142753258Y-109561601D01*
X142916685Y-109529093D01*
X143083315Y-109529093D01*
X143246742Y-109561601D01*
G37*
G36*
X145746742Y-109561601D02*
G01*
X145900687Y-109625367D01*
X146039234Y-109717941D01*
X146157059Y-109835766D01*
X146249633Y-109974313D01*
X146313399Y-110128258D01*
X146345907Y-110291685D01*
X146350000Y-110375000D01*
X146350000Y-110625000D01*
X146345907Y-110708315D01*
X146313399Y-110871742D01*
X146249633Y-111025687D01*
X146157059Y-111164234D01*
X146039234Y-111282059D01*
X145900687Y-111374633D01*
X145746742Y-111438399D01*
X145583315Y-111470907D01*
X145416685Y-111470907D01*
X145253258Y-111438399D01*
X145099313Y-111374633D01*
X144960766Y-111282059D01*
X144842941Y-111164234D01*
X144750367Y-111025687D01*
X144686601Y-110871742D01*
X144654093Y-110708315D01*
X144650000Y-110625000D01*
X144650000Y-110375000D01*
X144654093Y-110291685D01*
X144686601Y-110128258D01*
X144750367Y-109974313D01*
X144842941Y-109835766D01*
X144960766Y-109717941D01*
X145099313Y-109625367D01*
X145253258Y-109561601D01*
X145416685Y-109529093D01*
X145583315Y-109529093D01*
X145746742Y-109561601D01*
G37*
G36*
X148246742Y-109561601D02*
G01*
X148400687Y-109625367D01*
X148539234Y-109717941D01*
X148657059Y-109835766D01*
X148749633Y-109974313D01*
X148813399Y-110128258D01*
X148845907Y-110291685D01*
X148850000Y-110375000D01*
X148850000Y-110625000D01*
X148845907Y-110708315D01*
X148813399Y-110871742D01*
X148749633Y-111025687D01*
X148657059Y-111164234D01*
X148539234Y-111282059D01*
X148400687Y-111374633D01*
X148246742Y-111438399D01*
X148083315Y-111470907D01*
X147916685Y-111470907D01*
X147753258Y-111438399D01*
X147599313Y-111374633D01*
X147460766Y-111282059D01*
X147342941Y-111164234D01*
X147250367Y-111025687D01*
X147186601Y-110871742D01*
X147154093Y-110708315D01*
X147150000Y-110625000D01*
X147150000Y-110375000D01*
X147154093Y-110291685D01*
X147186601Y-110128258D01*
X147250367Y-109974313D01*
X147342941Y-109835766D01*
X147460766Y-109717941D01*
X147599313Y-109625367D01*
X147753258Y-109561601D01*
X147916685Y-109529093D01*
X148083315Y-109529093D01*
X148246742Y-109561601D01*
G37*
G36*
X150746742Y-109561601D02*
G01*
X150900687Y-109625367D01*
X151039234Y-109717941D01*
X151157059Y-109835766D01*
X151249633Y-109974313D01*
X151313399Y-110128258D01*
X151345907Y-110291685D01*
X151350000Y-110375000D01*
X151350000Y-110625000D01*
X151345907Y-110708315D01*
X151313399Y-110871742D01*
X151249633Y-111025687D01*
X151157059Y-111164234D01*
X151039234Y-111282059D01*
X150900687Y-111374633D01*
X150746742Y-111438399D01*
X150583315Y-111470907D01*
X150416685Y-111470907D01*
X150253258Y-111438399D01*
X150099313Y-111374633D01*
X149960766Y-111282059D01*
X149842941Y-111164234D01*
X149750367Y-111025687D01*
X149686601Y-110871742D01*
X149654093Y-110708315D01*
X149650000Y-110625000D01*
X149650000Y-110375000D01*
X149654093Y-110291685D01*
X149686601Y-110128258D01*
X149750367Y-109974313D01*
X149842941Y-109835766D01*
X149960766Y-109717941D01*
X150099313Y-109625367D01*
X150253258Y-109561601D01*
X150416685Y-109529093D01*
X150583315Y-109529093D01*
X150746742Y-109561601D01*
G37*
G36*
X153246742Y-109561601D02*
G01*
X153400687Y-109625367D01*
X153539234Y-109717941D01*
X153657059Y-109835766D01*
X153749633Y-109974313D01*
X153813399Y-110128258D01*
X153845907Y-110291685D01*
X153850000Y-110375000D01*
X153850000Y-110625000D01*
X153845907Y-110708315D01*
X153813399Y-110871742D01*
X153749633Y-111025687D01*
X153657059Y-111164234D01*
X153539234Y-111282059D01*
X153400687Y-111374633D01*
X153246742Y-111438399D01*
X153083315Y-111470907D01*
X152916685Y-111470907D01*
X152753258Y-111438399D01*
X152599313Y-111374633D01*
X152460766Y-111282059D01*
X152342941Y-111164234D01*
X152250367Y-111025687D01*
X152186601Y-110871742D01*
X152154093Y-110708315D01*
X152150000Y-110625000D01*
X152150000Y-110375000D01*
X152154093Y-110291685D01*
X152186601Y-110128258D01*
X152250367Y-109974313D01*
X152342941Y-109835766D01*
X152460766Y-109717941D01*
X152599313Y-109625367D01*
X152753258Y-109561601D01*
X152916685Y-109529093D01*
X153083315Y-109529093D01*
X153246742Y-109561601D01*
G37*
G36*
X155746742Y-109561601D02*
G01*
X155900687Y-109625367D01*
X156039234Y-109717941D01*
X156157059Y-109835766D01*
X156249633Y-109974313D01*
X156313399Y-110128258D01*
X156345907Y-110291685D01*
X156350000Y-110375000D01*
X156350000Y-110625000D01*
X156345907Y-110708315D01*
X156313399Y-110871742D01*
X156249633Y-111025687D01*
X156157059Y-111164234D01*
X156039234Y-111282059D01*
X155900687Y-111374633D01*
X155746742Y-111438399D01*
X155583315Y-111470907D01*
X155416685Y-111470907D01*
X155253258Y-111438399D01*
X155099313Y-111374633D01*
X154960766Y-111282059D01*
X154842941Y-111164234D01*
X154750367Y-111025687D01*
X154686601Y-110871742D01*
X154654093Y-110708315D01*
X154650000Y-110625000D01*
X154650000Y-110375000D01*
X154654093Y-110291685D01*
X154686601Y-110128258D01*
X154750367Y-109974313D01*
X154842941Y-109835766D01*
X154960766Y-109717941D01*
X155099313Y-109625367D01*
X155253258Y-109561601D01*
X155416685Y-109529093D01*
X155583315Y-109529093D01*
X155746742Y-109561601D01*
G37*
G36*
X143161683Y-103236827D02*
G01*
X143297517Y-103293091D01*
X143419764Y-103374774D01*
X143523727Y-103478737D01*
X143605410Y-103600984D01*
X143661674Y-103736818D01*
X143690358Y-103881019D01*
X143690358Y-104028045D01*
X143661674Y-104172246D01*
X143605410Y-104308080D01*
X143523727Y-104430327D01*
X143419764Y-104534290D01*
X143297517Y-104615973D01*
X143161683Y-104672237D01*
X143017482Y-104700921D01*
X142870456Y-104700921D01*
X142726255Y-104672237D01*
X142590421Y-104615973D01*
X142468174Y-104534290D01*
X142364211Y-104430327D01*
X142282528Y-104308080D01*
X142226264Y-104172246D01*
X142197580Y-104028045D01*
X142197580Y-103881019D01*
X142226264Y-103736818D01*
X142282528Y-103600984D01*
X142364211Y-103478737D01*
X142468174Y-103374774D01*
X142590421Y-103293091D01*
X142726255Y-103236827D01*
X142870456Y-103208143D01*
X143017482Y-103208143D01*
X143161683Y-103236827D01*
G37*
G36*
X140627323Y-99434687D02*
G01*
X140781630Y-99498603D01*
X140920503Y-99591395D01*
X141038605Y-99709497D01*
X141131397Y-99848370D01*
X141195313Y-100002677D01*
X141227897Y-100166489D01*
X141227897Y-100333511D01*
X141195313Y-100497323D01*
X141131397Y-100651630D01*
X141038605Y-100790503D01*
X140920503Y-100908605D01*
X140781630Y-101001397D01*
X140627323Y-101065313D01*
X140463511Y-101097897D01*
X140296489Y-101097897D01*
X140132677Y-101065313D01*
X139978370Y-101001397D01*
X139839497Y-100908605D01*
X139721395Y-100790503D01*
X139628603Y-100651630D01*
X139564687Y-100497323D01*
X139532103Y-100333511D01*
X139532103Y-100166489D01*
X139564687Y-100002677D01*
X139628603Y-99848370D01*
X139721395Y-99709497D01*
X139839497Y-99591395D01*
X139978370Y-99498603D01*
X140132677Y-99434687D01*
X140296489Y-99402103D01*
X140463511Y-99402103D01*
X140627323Y-99434687D01*
G37*
G36*
X145707323Y-99434687D02*
G01*
X145861630Y-99498603D01*
X146000503Y-99591395D01*
X146118605Y-99709497D01*
X146211397Y-99848370D01*
X146275313Y-100002677D01*
X146307897Y-100166489D01*
X146307897Y-100333511D01*
X146275313Y-100497323D01*
X146211397Y-100651630D01*
X146118605Y-100790503D01*
X146000503Y-100908605D01*
X145861630Y-101001397D01*
X145707323Y-101065313D01*
X145543511Y-101097897D01*
X145376489Y-101097897D01*
X145212677Y-101065313D01*
X145058370Y-101001397D01*
X144919497Y-100908605D01*
X144801395Y-100790503D01*
X144708603Y-100651630D01*
X144644687Y-100497323D01*
X144612103Y-100333511D01*
X144612103Y-100166489D01*
X144644687Y-100002677D01*
X144708603Y-99848370D01*
X144801395Y-99709497D01*
X144919497Y-99591395D01*
X145058370Y-99498603D01*
X145212677Y-99434687D01*
X145376489Y-99402103D01*
X145543511Y-99402103D01*
X145707323Y-99434687D01*
G37*
G36*
X150787323Y-99434687D02*
G01*
X150941630Y-99498603D01*
X151080503Y-99591395D01*
X151198605Y-99709497D01*
X151291397Y-99848370D01*
X151355313Y-100002677D01*
X151387897Y-100166489D01*
X151387897Y-100333511D01*
X151355313Y-100497323D01*
X151291397Y-100651630D01*
X151198605Y-100790503D01*
X151080503Y-100908605D01*
X150941630Y-101001397D01*
X150787323Y-101065313D01*
X150623511Y-101097897D01*
X150456489Y-101097897D01*
X150292677Y-101065313D01*
X150138370Y-101001397D01*
X149999497Y-100908605D01*
X149881395Y-100790503D01*
X149788603Y-100651630D01*
X149724687Y-100497323D01*
X149692103Y-100333511D01*
X149692103Y-100166489D01*
X149724687Y-100002677D01*
X149788603Y-99848370D01*
X149881395Y-99709497D01*
X149999497Y-99591395D01*
X150138370Y-99498603D01*
X150292677Y-99434687D01*
X150456489Y-99402103D01*
X150623511Y-99402103D01*
X150787323Y-99434687D01*
G37*
G36*
X155867323Y-99434687D02*
G01*
X156021630Y-99498603D01*
X156160503Y-99591395D01*
X156278605Y-99709497D01*
X156371397Y-99848370D01*
X156435313Y-100002677D01*
X156467897Y-100166489D01*
X156467897Y-100333511D01*
X156435313Y-100497323D01*
X156371397Y-100651630D01*
X156278605Y-100790503D01*
X156160503Y-100908605D01*
X156021630Y-101001397D01*
X155867323Y-101065313D01*
X155703511Y-101097897D01*
X155536489Y-101097897D01*
X155372677Y-101065313D01*
X155218370Y-101001397D01*
X155079497Y-100908605D01*
X154961395Y-100790503D01*
X154868603Y-100651630D01*
X154804687Y-100497323D01*
X154772103Y-100333511D01*
X154772103Y-100166489D01*
X154804687Y-100002677D01*
X154868603Y-99848370D01*
X154961395Y-99709497D01*
X155079497Y-99591395D01*
X155218370Y-99498603D01*
X155372677Y-99434687D01*
X155536489Y-99402103D01*
X155703511Y-99402103D01*
X155867323Y-99434687D01*
G37*
G36*
X132117714Y-98282295D02*
G01*
X132253548Y-98338559D01*
X132375795Y-98420242D01*
X132479758Y-98524205D01*
X132561441Y-98646452D01*
X132617705Y-98782286D01*
X132646389Y-98926487D01*
X132646389Y-99073513D01*
X132617705Y-99217714D01*
X132561441Y-99353548D01*
X132479758Y-99475795D01*
X132375795Y-99579758D01*
X132253548Y-99661441D01*
X132117714Y-99717705D01*
X131973513Y-99746389D01*
X131826487Y-99746389D01*
X131682286Y-99717705D01*
X131546452Y-99661441D01*
X131424205Y-99579758D01*
X131320242Y-99475795D01*
X131238559Y-99353548D01*
X131182295Y-99217714D01*
X131153611Y-99073513D01*
X131153611Y-98926487D01*
X131182295Y-98782286D01*
X131238559Y-98646452D01*
X131320242Y-98524205D01*
X131424205Y-98420242D01*
X131546452Y-98338559D01*
X131682286Y-98282295D01*
X131826487Y-98253611D01*
X131973513Y-98253611D01*
X132117714Y-98282295D01*
G37*
G36*
X137997323Y-96804687D02*
G01*
X138151630Y-96868603D01*
X138290503Y-96961395D01*
X138408605Y-97079497D01*
X138501397Y-97218370D01*
X138565313Y-97372677D01*
X138597897Y-97536489D01*
X138597897Y-97703511D01*
X138565313Y-97867323D01*
X138501397Y-98021630D01*
X138408605Y-98160503D01*
X138290503Y-98278605D01*
X138151630Y-98371397D01*
X137997323Y-98435313D01*
X137833511Y-98467897D01*
X137666489Y-98467897D01*
X137502677Y-98435313D01*
X137348370Y-98371397D01*
X137209497Y-98278605D01*
X137091395Y-98160503D01*
X136998603Y-98021630D01*
X136934687Y-97867323D01*
X136902103Y-97703511D01*
X136902103Y-97536489D01*
X136934687Y-97372677D01*
X136998603Y-97218370D01*
X137091395Y-97079497D01*
X137209497Y-96961395D01*
X137348370Y-96868603D01*
X137502677Y-96804687D01*
X137666489Y-96772103D01*
X137833511Y-96772103D01*
X137997323Y-96804687D01*
G37*
G36*
X158497323Y-96804687D02*
G01*
X158651630Y-96868603D01*
X158790503Y-96961395D01*
X158908605Y-97079497D01*
X159001397Y-97218370D01*
X159065313Y-97372677D01*
X159097897Y-97536489D01*
X159097897Y-97703511D01*
X159065313Y-97867323D01*
X159001397Y-98021630D01*
X158908605Y-98160503D01*
X158790503Y-98278605D01*
X158651630Y-98371397D01*
X158497323Y-98435313D01*
X158333511Y-98467897D01*
X158166489Y-98467897D01*
X158002677Y-98435313D01*
X157848370Y-98371397D01*
X157709497Y-98278605D01*
X157591395Y-98160503D01*
X157498603Y-98021630D01*
X157434687Y-97867323D01*
X157402103Y-97703511D01*
X157402103Y-97536489D01*
X157434687Y-97372677D01*
X157498603Y-97218370D01*
X157591395Y-97079497D01*
X157709497Y-96961395D01*
X157848370Y-96868603D01*
X158002677Y-96804687D01*
X158166489Y-96772103D01*
X158333511Y-96772103D01*
X158497323Y-96804687D01*
G37*
G36*
X153717714Y-96782295D02*
G01*
X153853548Y-96838559D01*
X153975795Y-96920242D01*
X154079758Y-97024205D01*
X154161441Y-97146452D01*
X154217705Y-97282286D01*
X154246389Y-97426487D01*
X154246389Y-97573513D01*
X154217705Y-97717714D01*
X154161441Y-97853548D01*
X154079758Y-97975795D01*
X153975795Y-98079758D01*
X153853548Y-98161441D01*
X153717714Y-98217705D01*
X153573513Y-98246389D01*
X153426487Y-98246389D01*
X153282286Y-98217705D01*
X153146452Y-98161441D01*
X153024205Y-98079758D01*
X152920242Y-97975795D01*
X152838559Y-97853548D01*
X152782295Y-97717714D01*
X152753611Y-97573513D01*
X152753611Y-97426487D01*
X152782295Y-97282286D01*
X152838559Y-97146452D01*
X152920242Y-97024205D01*
X153024205Y-96920242D01*
X153146452Y-96838559D01*
X153282286Y-96782295D01*
X153426487Y-96753611D01*
X153573513Y-96753611D01*
X153717714Y-96782295D01*
G37*
G36*
X133717714Y-95082295D02*
G01*
X133853548Y-95138559D01*
X133975795Y-95220242D01*
X134079758Y-95324205D01*
X134161441Y-95446452D01*
X134217705Y-95582286D01*
X134246389Y-95726487D01*
X134246389Y-95873513D01*
X134217705Y-96017714D01*
X134161441Y-96153548D01*
X134079758Y-96275795D01*
X133975795Y-96379758D01*
X133853548Y-96461441D01*
X133717714Y-96517705D01*
X133573513Y-96546389D01*
X133426487Y-96546389D01*
X133282286Y-96517705D01*
X133146452Y-96461441D01*
X133024205Y-96379758D01*
X132920242Y-96275795D01*
X132838559Y-96153548D01*
X132782295Y-96017714D01*
X132753611Y-95873513D01*
X132753611Y-95726487D01*
X132782295Y-95582286D01*
X132838559Y-95446452D01*
X132920242Y-95324205D01*
X133024205Y-95220242D01*
X133146452Y-95138559D01*
X133282286Y-95082295D01*
X133426487Y-95053611D01*
X133573513Y-95053611D01*
X133717714Y-95082295D01*
G37*
G36*
X137997323Y-91724687D02*
G01*
X138151630Y-91788603D01*
X138290503Y-91881395D01*
X138408605Y-91999497D01*
X138501397Y-92138370D01*
X138565313Y-92292677D01*
X138597897Y-92456489D01*
X138597897Y-92623511D01*
X138565313Y-92787323D01*
X138501397Y-92941630D01*
X138408605Y-93080503D01*
X138290503Y-93198605D01*
X138151630Y-93291397D01*
X137997323Y-93355313D01*
X137833511Y-93387897D01*
X137666489Y-93387897D01*
X137502677Y-93355313D01*
X137348370Y-93291397D01*
X137209497Y-93198605D01*
X137091395Y-93080503D01*
X136998603Y-92941630D01*
X136934687Y-92787323D01*
X136902103Y-92623511D01*
X136902103Y-92456489D01*
X136934687Y-92292677D01*
X136998603Y-92138370D01*
X137091395Y-91999497D01*
X137209497Y-91881395D01*
X137348370Y-91788603D01*
X137502677Y-91724687D01*
X137666489Y-91692103D01*
X137833511Y-91692103D01*
X137997323Y-91724687D01*
G37*
G36*
X158497323Y-91724687D02*
G01*
X158651630Y-91788603D01*
X158790503Y-91881395D01*
X158908605Y-91999497D01*
X159001397Y-92138370D01*
X159065313Y-92292677D01*
X159097897Y-92456489D01*
X159097897Y-92623511D01*
X159065313Y-92787323D01*
X159001397Y-92941630D01*
X158908605Y-93080503D01*
X158790503Y-93198605D01*
X158651630Y-93291397D01*
X158497323Y-93355313D01*
X158333511Y-93387897D01*
X158166489Y-93387897D01*
X158002677Y-93355313D01*
X157848370Y-93291397D01*
X157709497Y-93198605D01*
X157591395Y-93080503D01*
X157498603Y-92941630D01*
X157434687Y-92787323D01*
X157402103Y-92623511D01*
X157402103Y-92456489D01*
X157434687Y-92292677D01*
X157498603Y-92138370D01*
X157591395Y-91999497D01*
X157709497Y-91881395D01*
X157848370Y-91788603D01*
X158002677Y-91724687D01*
X158166489Y-91692103D01*
X158333511Y-91692103D01*
X158497323Y-91724687D01*
G37*
G36*
X133817714Y-91582295D02*
G01*
X133953548Y-91638559D01*
X134075795Y-91720242D01*
X134179758Y-91824205D01*
X134261441Y-91946452D01*
X134317705Y-92082286D01*
X134346389Y-92226487D01*
X134346389Y-92373513D01*
X134317705Y-92517714D01*
X134261441Y-92653548D01*
X134179758Y-92775795D01*
X134075795Y-92879758D01*
X133953548Y-92961441D01*
X133817714Y-93017705D01*
X133673513Y-93046389D01*
X133526487Y-93046389D01*
X133382286Y-93017705D01*
X133246452Y-92961441D01*
X133124205Y-92879758D01*
X133020242Y-92775795D01*
X132938559Y-92653548D01*
X132882295Y-92517714D01*
X132853611Y-92373513D01*
X132853611Y-92226487D01*
X132882295Y-92082286D01*
X132938559Y-91946452D01*
X133020242Y-91824205D01*
X133124205Y-91720242D01*
X133246452Y-91638559D01*
X133382286Y-91582295D01*
X133526487Y-91553611D01*
X133673513Y-91553611D01*
X133817714Y-91582295D01*
G37*
G36*
X127317714Y-90982295D02*
G01*
X127453548Y-91038559D01*
X127575795Y-91120242D01*
X127679758Y-91224205D01*
X127761441Y-91346452D01*
X127817705Y-91482286D01*
X127846389Y-91626487D01*
X127846389Y-91773513D01*
X127817705Y-91917714D01*
X127761441Y-92053548D01*
X127679758Y-92175795D01*
X127575795Y-92279758D01*
X127453548Y-92361441D01*
X127317714Y-92417705D01*
X127173513Y-92446389D01*
X127026487Y-92446389D01*
X126882286Y-92417705D01*
X126746452Y-92361441D01*
X126624205Y-92279758D01*
X126520242Y-92175795D01*
X126438559Y-92053548D01*
X126382295Y-91917714D01*
X126353611Y-91773513D01*
X126353611Y-91626487D01*
X126382295Y-91482286D01*
X126438559Y-91346452D01*
X126520242Y-91224205D01*
X126624205Y-91120242D01*
X126746452Y-91038559D01*
X126882286Y-90982295D01*
X127026487Y-90953611D01*
X127173513Y-90953611D01*
X127317714Y-90982295D01*
G37*
G36*
X153017714Y-90182295D02*
G01*
X153153548Y-90238559D01*
X153275795Y-90320242D01*
X153379758Y-90424205D01*
X153461441Y-90546452D01*
X153517705Y-90682286D01*
X153546389Y-90826487D01*
X153546389Y-90973513D01*
X153517705Y-91117714D01*
X153461441Y-91253548D01*
X153379758Y-91375795D01*
X153275795Y-91479758D01*
X153153548Y-91561441D01*
X153017714Y-91617705D01*
X152873513Y-91646389D01*
X152726487Y-91646389D01*
X152582286Y-91617705D01*
X152446452Y-91561441D01*
X152324205Y-91479758D01*
X152220242Y-91375795D01*
X152138559Y-91253548D01*
X152082295Y-91117714D01*
X152053611Y-90973513D01*
X152053611Y-90826487D01*
X152082295Y-90682286D01*
X152138559Y-90546452D01*
X152220242Y-90424205D01*
X152324205Y-90320242D01*
X152446452Y-90238559D01*
X152582286Y-90182295D01*
X152726487Y-90153611D01*
X152873513Y-90153611D01*
X153017714Y-90182295D01*
G37*
G36*
X132617714Y-88682295D02*
G01*
X132753548Y-88738559D01*
X132875795Y-88820242D01*
X132979758Y-88924205D01*
X133061441Y-89046452D01*
X133117705Y-89182286D01*
X133146389Y-89326487D01*
X133146389Y-89473513D01*
X133117705Y-89617714D01*
X133061441Y-89753548D01*
X132979758Y-89875795D01*
X132875795Y-89979758D01*
X132753548Y-90061441D01*
X132617714Y-90117705D01*
X132473513Y-90146389D01*
X132326487Y-90146389D01*
X132182286Y-90117705D01*
X132046452Y-90061441D01*
X131924205Y-89979758D01*
X131820242Y-89875795D01*
X131738559Y-89753548D01*
X131682295Y-89617714D01*
X131653611Y-89473513D01*
X131653611Y-89326487D01*
X131682295Y-89182286D01*
X131738559Y-89046452D01*
X131820242Y-88924205D01*
X131924205Y-88820242D01*
X132046452Y-88738559D01*
X132182286Y-88682295D01*
X132326487Y-88653611D01*
X132473513Y-88653611D01*
X132617714Y-88682295D01*
G37*
G36*
X137997323Y-86644687D02*
G01*
X138151630Y-86708603D01*
X138290503Y-86801395D01*
X138408605Y-86919497D01*
X138501397Y-87058370D01*
X138565313Y-87212677D01*
X138597897Y-87376489D01*
X138597897Y-87543511D01*
X138565313Y-87707323D01*
X138501397Y-87861630D01*
X138408605Y-88000503D01*
X138290503Y-88118605D01*
X138151630Y-88211397D01*
X137997323Y-88275313D01*
X137833511Y-88307897D01*
X137666489Y-88307897D01*
X137502677Y-88275313D01*
X137348370Y-88211397D01*
X137209497Y-88118605D01*
X137091395Y-88000503D01*
X136998603Y-87861630D01*
X136934687Y-87707323D01*
X136902103Y-87543511D01*
X136902103Y-87376489D01*
X136934687Y-87212677D01*
X136998603Y-87058370D01*
X137091395Y-86919497D01*
X137209497Y-86801395D01*
X137348370Y-86708603D01*
X137502677Y-86644687D01*
X137666489Y-86612103D01*
X137833511Y-86612103D01*
X137997323Y-86644687D01*
G37*
G36*
X158497323Y-86644687D02*
G01*
X158651630Y-86708603D01*
X158790503Y-86801395D01*
X158908605Y-86919497D01*
X159001397Y-87058370D01*
X159065313Y-87212677D01*
X159097897Y-87376489D01*
X159097897Y-87543511D01*
X159065313Y-87707323D01*
X159001397Y-87861630D01*
X158908605Y-88000503D01*
X158790503Y-88118605D01*
X158651630Y-88211397D01*
X158497323Y-88275313D01*
X158333511Y-88307897D01*
X158166489Y-88307897D01*
X158002677Y-88275313D01*
X157848370Y-88211397D01*
X157709497Y-88118605D01*
X157591395Y-88000503D01*
X157498603Y-87861630D01*
X157434687Y-87707323D01*
X157402103Y-87543511D01*
X157402103Y-87376489D01*
X157434687Y-87212677D01*
X157498603Y-87058370D01*
X157591395Y-86919497D01*
X157709497Y-86801395D01*
X157848370Y-86708603D01*
X158002677Y-86644687D01*
X158166489Y-86612103D01*
X158333511Y-86612103D01*
X158497323Y-86644687D01*
G37*
G36*
X135717714Y-83982295D02*
G01*
X135853548Y-84038559D01*
X135975795Y-84120242D01*
X136079758Y-84224205D01*
X136161441Y-84346452D01*
X136217705Y-84482286D01*
X136246389Y-84626487D01*
X136246389Y-84773513D01*
X136217705Y-84917714D01*
X136161441Y-85053548D01*
X136079758Y-85175795D01*
X135975795Y-85279758D01*
X135853548Y-85361441D01*
X135717714Y-85417705D01*
X135573513Y-85446389D01*
X135426487Y-85446389D01*
X135282286Y-85417705D01*
X135146452Y-85361441D01*
X135024205Y-85279758D01*
X134920242Y-85175795D01*
X134838559Y-85053548D01*
X134782295Y-84917714D01*
X134753611Y-84773513D01*
X134753611Y-84626487D01*
X134782295Y-84482286D01*
X134838559Y-84346452D01*
X134920242Y-84224205D01*
X135024205Y-84120242D01*
X135146452Y-84038559D01*
X135282286Y-83982295D01*
X135426487Y-83953611D01*
X135573513Y-83953611D01*
X135717714Y-83982295D01*
G37*
G36*
X131417714Y-82382295D02*
G01*
X131553548Y-82438559D01*
X131675795Y-82520242D01*
X131779758Y-82624205D01*
X131861441Y-82746452D01*
X131917705Y-82882286D01*
X131946389Y-83026487D01*
X131946389Y-83173513D01*
X131917705Y-83317714D01*
X131861441Y-83453548D01*
X131779758Y-83575795D01*
X131675795Y-83679758D01*
X131553548Y-83761441D01*
X131417714Y-83817705D01*
X131273513Y-83846389D01*
X131126487Y-83846389D01*
X130982286Y-83817705D01*
X130846452Y-83761441D01*
X130724205Y-83679758D01*
X130620242Y-83575795D01*
X130538559Y-83453548D01*
X130482295Y-83317714D01*
X130453611Y-83173513D01*
X130453611Y-83026487D01*
X130482295Y-82882286D01*
X130538559Y-82746452D01*
X130620242Y-82624205D01*
X130724205Y-82520242D01*
X130846452Y-82438559D01*
X130982286Y-82382295D01*
X131126487Y-82353611D01*
X131273513Y-82353611D01*
X131417714Y-82382295D01*
G37*
G36*
X137997323Y-81564687D02*
G01*
X138151630Y-81628603D01*
X138290503Y-81721395D01*
X138408605Y-81839497D01*
X138501397Y-81978370D01*
X138565313Y-82132677D01*
X138597897Y-82296489D01*
X138597897Y-82463511D01*
X138565313Y-82627323D01*
X138501397Y-82781630D01*
X138408605Y-82920503D01*
X138290503Y-83038605D01*
X138151630Y-83131397D01*
X137997323Y-83195313D01*
X137833511Y-83227897D01*
X137666489Y-83227897D01*
X137502677Y-83195313D01*
X137348370Y-83131397D01*
X137209497Y-83038605D01*
X137091395Y-82920503D01*
X136998603Y-82781630D01*
X136934687Y-82627323D01*
X136902103Y-82463511D01*
X136902103Y-82296489D01*
X136934687Y-82132677D01*
X136998603Y-81978370D01*
X137091395Y-81839497D01*
X137209497Y-81721395D01*
X137348370Y-81628603D01*
X137502677Y-81564687D01*
X137666489Y-81532103D01*
X137833511Y-81532103D01*
X137997323Y-81564687D01*
G37*
G36*
X158497323Y-81564687D02*
G01*
X158651630Y-81628603D01*
X158790503Y-81721395D01*
X158908605Y-81839497D01*
X159001397Y-81978370D01*
X159065313Y-82132677D01*
X159097897Y-82296489D01*
X159097897Y-82463511D01*
X159065313Y-82627323D01*
X159001397Y-82781630D01*
X158908605Y-82920503D01*
X158790503Y-83038605D01*
X158651630Y-83131397D01*
X158497323Y-83195313D01*
X158333511Y-83227897D01*
X158166489Y-83227897D01*
X158002677Y-83195313D01*
X157848370Y-83131397D01*
X157709497Y-83038605D01*
X157591395Y-82920503D01*
X157498603Y-82781630D01*
X157434687Y-82627323D01*
X157402103Y-82463511D01*
X157402103Y-82296489D01*
X157434687Y-82132677D01*
X157498603Y-81978370D01*
X157591395Y-81839497D01*
X157709497Y-81721395D01*
X157848370Y-81628603D01*
X158002677Y-81564687D01*
X158166489Y-81532103D01*
X158333511Y-81532103D01*
X158497323Y-81564687D01*
G37*
G36*
X127317714Y-79782295D02*
G01*
X127453548Y-79838559D01*
X127575795Y-79920242D01*
X127679758Y-80024205D01*
X127761441Y-80146452D01*
X127817705Y-80282286D01*
X127846389Y-80426487D01*
X127846389Y-80573513D01*
X127817705Y-80717714D01*
X127761441Y-80853548D01*
X127679758Y-80975795D01*
X127575795Y-81079758D01*
X127453548Y-81161441D01*
X127317714Y-81217705D01*
X127173513Y-81246389D01*
X127026487Y-81246389D01*
X126882286Y-81217705D01*
X126746452Y-81161441D01*
X126624205Y-81079758D01*
X126520242Y-80975795D01*
X126438559Y-80853548D01*
X126382295Y-80717714D01*
X126353611Y-80573513D01*
X126353611Y-80426487D01*
X126382295Y-80282286D01*
X126438559Y-80146452D01*
X126520242Y-80024205D01*
X126624205Y-79920242D01*
X126746452Y-79838559D01*
X126882286Y-79782295D01*
X127026487Y-79753611D01*
X127173513Y-79753611D01*
X127317714Y-79782295D01*
G37*
G36*
X140627323Y-78934687D02*
G01*
X140781630Y-78998603D01*
X140920503Y-79091395D01*
X141038605Y-79209497D01*
X141131397Y-79348370D01*
X141195313Y-79502677D01*
X141227897Y-79666489D01*
X141227897Y-79833511D01*
X141195313Y-79997323D01*
X141131397Y-80151630D01*
X141038605Y-80290503D01*
X140920503Y-80408605D01*
X140781630Y-80501397D01*
X140627323Y-80565313D01*
X140463511Y-80597897D01*
X140296489Y-80597897D01*
X140132677Y-80565313D01*
X139978370Y-80501397D01*
X139839497Y-80408605D01*
X139721395Y-80290503D01*
X139628603Y-80151630D01*
X139564687Y-79997323D01*
X139532103Y-79833511D01*
X139532103Y-79666489D01*
X139564687Y-79502677D01*
X139628603Y-79348370D01*
X139721395Y-79209497D01*
X139839497Y-79091395D01*
X139978370Y-78998603D01*
X140132677Y-78934687D01*
X140296489Y-78902103D01*
X140463511Y-78902103D01*
X140627323Y-78934687D01*
G37*
G36*
X145707323Y-78934687D02*
G01*
X145861630Y-78998603D01*
X146000503Y-79091395D01*
X146118605Y-79209497D01*
X146211397Y-79348370D01*
X146275313Y-79502677D01*
X146307897Y-79666489D01*
X146307897Y-79833511D01*
X146275313Y-79997323D01*
X146211397Y-80151630D01*
X146118605Y-80290503D01*
X146000503Y-80408605D01*
X145861630Y-80501397D01*
X145707323Y-80565313D01*
X145543511Y-80597897D01*
X145376489Y-80597897D01*
X145212677Y-80565313D01*
X145058370Y-80501397D01*
X144919497Y-80408605D01*
X144801395Y-80290503D01*
X144708603Y-80151630D01*
X144644687Y-79997323D01*
X144612103Y-79833511D01*
X144612103Y-79666489D01*
X144644687Y-79502677D01*
X144708603Y-79348370D01*
X144801395Y-79209497D01*
X144919497Y-79091395D01*
X145058370Y-78998603D01*
X145212677Y-78934687D01*
X145376489Y-78902103D01*
X145543511Y-78902103D01*
X145707323Y-78934687D01*
G37*
G36*
X150787323Y-78934687D02*
G01*
X150941630Y-78998603D01*
X151080503Y-79091395D01*
X151198605Y-79209497D01*
X151291397Y-79348370D01*
X151355313Y-79502677D01*
X151387897Y-79666489D01*
X151387897Y-79833511D01*
X151355313Y-79997323D01*
X151291397Y-80151630D01*
X151198605Y-80290503D01*
X151080503Y-80408605D01*
X150941630Y-80501397D01*
X150787323Y-80565313D01*
X150623511Y-80597897D01*
X150456489Y-80597897D01*
X150292677Y-80565313D01*
X150138370Y-80501397D01*
X149999497Y-80408605D01*
X149881395Y-80290503D01*
X149788603Y-80151630D01*
X149724687Y-79997323D01*
X149692103Y-79833511D01*
X149692103Y-79666489D01*
X149724687Y-79502677D01*
X149788603Y-79348370D01*
X149881395Y-79209497D01*
X149999497Y-79091395D01*
X150138370Y-78998603D01*
X150292677Y-78934687D01*
X150456489Y-78902103D01*
X150623511Y-78902103D01*
X150787323Y-78934687D01*
G37*
G36*
X155867323Y-78934687D02*
G01*
X156021630Y-78998603D01*
X156160503Y-79091395D01*
X156278605Y-79209497D01*
X156371397Y-79348370D01*
X156435313Y-79502677D01*
X156467897Y-79666489D01*
X156467897Y-79833511D01*
X156435313Y-79997323D01*
X156371397Y-80151630D01*
X156278605Y-80290503D01*
X156160503Y-80408605D01*
X156021630Y-80501397D01*
X155867323Y-80565313D01*
X155703511Y-80597897D01*
X155536489Y-80597897D01*
X155372677Y-80565313D01*
X155218370Y-80501397D01*
X155079497Y-80408605D01*
X154961395Y-80290503D01*
X154868603Y-80151630D01*
X154804687Y-79997323D01*
X154772103Y-79833511D01*
X154772103Y-79666489D01*
X154804687Y-79502677D01*
X154868603Y-79348370D01*
X154961395Y-79209497D01*
X155079497Y-79091395D01*
X155218370Y-78998603D01*
X155372677Y-78934687D01*
X155536489Y-78902103D01*
X155703511Y-78902103D01*
X155867323Y-78934687D01*
G37*
G36*
X157689500Y-77805500D02*
G01*
X155814500Y-77805500D01*
X155814500Y-75930500D01*
X157689500Y-75930500D01*
X157689500Y-77805500D01*
G37*
G36*
X136637500Y-77803500D02*
G01*
X134762500Y-77803500D01*
X134762500Y-75928500D01*
X136637500Y-75928500D01*
X136637500Y-77803500D01*
G37*
G36*
X160560142Y-75970868D02*
G01*
X160729934Y-76041199D01*
X160882744Y-76143303D01*
X161012697Y-76273256D01*
X161114801Y-76426066D01*
X161185132Y-76595858D01*
X161220986Y-76776109D01*
X161220986Y-76959891D01*
X161185132Y-77140142D01*
X161114801Y-77309934D01*
X161012697Y-77462744D01*
X160882744Y-77592697D01*
X160729934Y-77694801D01*
X160560142Y-77765132D01*
X160379891Y-77800986D01*
X160196109Y-77800986D01*
X160015858Y-77765132D01*
X159846066Y-77694801D01*
X159693256Y-77592697D01*
X159563303Y-77462744D01*
X159461199Y-77309934D01*
X159390868Y-77140142D01*
X159355014Y-76959891D01*
X159355014Y-76776109D01*
X159390868Y-76595858D01*
X159461199Y-76426066D01*
X159563303Y-76273256D01*
X159693256Y-76143303D01*
X159846066Y-76041199D01*
X160015858Y-75970868D01*
X160196109Y-75935014D01*
X160379891Y-75935014D01*
X160560142Y-75970868D01*
G37*
G36*
X139508142Y-75968868D02*
G01*
X139677934Y-76039199D01*
X139830744Y-76141303D01*
X139960697Y-76271256D01*
X140062801Y-76424066D01*
X140133132Y-76593858D01*
X140168986Y-76774109D01*
X140168986Y-76957891D01*
X140133132Y-77138142D01*
X140062801Y-77307934D01*
X139960697Y-77460744D01*
X139830744Y-77590697D01*
X139677934Y-77692801D01*
X139508142Y-77763132D01*
X139327891Y-77798986D01*
X139144109Y-77798986D01*
X138963858Y-77763132D01*
X138794066Y-77692801D01*
X138641256Y-77590697D01*
X138511303Y-77460744D01*
X138409199Y-77307934D01*
X138338868Y-77138142D01*
X138303014Y-76957891D01*
X138303014Y-76774109D01*
X138338868Y-76593858D01*
X138409199Y-76424066D01*
X138511303Y-76271256D01*
X138641256Y-76141303D01*
X138794066Y-76039199D01*
X138963858Y-75968868D01*
X139144109Y-75933014D01*
X139327891Y-75933014D01*
X139508142Y-75968868D01*
G37*
G36*
X151180134Y-73933156D02*
G01*
X151359220Y-73991345D01*
X151526998Y-74076832D01*
X151679338Y-74187513D01*
X151812487Y-74320662D01*
X151923168Y-74473002D01*
X152008655Y-74640780D01*
X152066844Y-74819866D01*
X152096301Y-75005849D01*
X152096301Y-75194151D01*
X152066844Y-75380134D01*
X152008655Y-75559220D01*
X151923168Y-75726998D01*
X151812487Y-75879338D01*
X151679338Y-76012487D01*
X151526998Y-76123168D01*
X151359220Y-76208655D01*
X151180134Y-76266844D01*
X150994151Y-76296301D01*
X150805849Y-76296301D01*
X150619866Y-76266844D01*
X150440780Y-76208655D01*
X150273002Y-76123168D01*
X150120662Y-76012487D01*
X149987513Y-75879338D01*
X149876832Y-75726998D01*
X149791345Y-75559220D01*
X149733156Y-75380134D01*
X149703699Y-75194151D01*
X149703699Y-75005849D01*
X149733156Y-74819866D01*
X149791345Y-74640780D01*
X149876832Y-74473002D01*
X149987513Y-74320662D01*
X150120662Y-74187513D01*
X150273002Y-74076832D01*
X150440780Y-73991345D01*
X150619866Y-73933156D01*
X150805849Y-73903699D01*
X150994151Y-73903699D01*
X151180134Y-73933156D01*
G37*
G36*
X166420134Y-73933156D02*
G01*
X166599220Y-73991345D01*
X166766998Y-74076832D01*
X166919338Y-74187513D01*
X167052487Y-74320662D01*
X167163168Y-74473002D01*
X167248655Y-74640780D01*
X167306844Y-74819866D01*
X167336301Y-75005849D01*
X167336301Y-75194151D01*
X167306844Y-75380134D01*
X167248655Y-75559220D01*
X167163168Y-75726998D01*
X167052487Y-75879338D01*
X166919338Y-76012487D01*
X166766998Y-76123168D01*
X166599220Y-76208655D01*
X166420134Y-76266844D01*
X166234151Y-76296301D01*
X166045849Y-76296301D01*
X165859866Y-76266844D01*
X165680780Y-76208655D01*
X165513002Y-76123168D01*
X165360662Y-76012487D01*
X165227513Y-75879338D01*
X165116832Y-75726998D01*
X165031345Y-75559220D01*
X164973156Y-75380134D01*
X164943699Y-75194151D01*
X164943699Y-75005849D01*
X164973156Y-74819866D01*
X165031345Y-74640780D01*
X165116832Y-74473002D01*
X165227513Y-74320662D01*
X165360662Y-74187513D01*
X165513002Y-74076832D01*
X165680780Y-73991345D01*
X165859866Y-73933156D01*
X166045849Y-73903699D01*
X166234151Y-73903699D01*
X166420134Y-73933156D01*
G37*
G36*
X130128134Y-73931156D02*
G01*
X130307220Y-73989345D01*
X130474998Y-74074832D01*
X130627338Y-74185513D01*
X130760487Y-74318662D01*
X130871168Y-74471002D01*
X130956655Y-74638780D01*
X131014844Y-74817866D01*
X131044301Y-75003849D01*
X131044301Y-75192151D01*
X131014844Y-75378134D01*
X130956655Y-75557220D01*
X130871168Y-75724998D01*
X130760487Y-75877338D01*
X130627338Y-76010487D01*
X130474998Y-76121168D01*
X130307220Y-76206655D01*
X130128134Y-76264844D01*
X129942151Y-76294301D01*
X129753849Y-76294301D01*
X129567866Y-76264844D01*
X129388780Y-76206655D01*
X129221002Y-76121168D01*
X129068662Y-76010487D01*
X128935513Y-75877338D01*
X128824832Y-75724998D01*
X128739345Y-75557220D01*
X128681156Y-75378134D01*
X128651699Y-75192151D01*
X128651699Y-75003849D01*
X128681156Y-74817866D01*
X128739345Y-74638780D01*
X128824832Y-74471002D01*
X128935513Y-74318662D01*
X129068662Y-74185513D01*
X129221002Y-74074832D01*
X129388780Y-73989345D01*
X129567866Y-73931156D01*
X129753849Y-73901699D01*
X129942151Y-73901699D01*
X130128134Y-73931156D01*
G37*
G36*
X145368134Y-73931156D02*
G01*
X145547220Y-73989345D01*
X145714998Y-74074832D01*
X145867338Y-74185513D01*
X146000487Y-74318662D01*
X146111168Y-74471002D01*
X146196655Y-74638780D01*
X146254844Y-74817866D01*
X146284301Y-75003849D01*
X146284301Y-75192151D01*
X146254844Y-75378134D01*
X146196655Y-75557220D01*
X146111168Y-75724998D01*
X146000487Y-75877338D01*
X145867338Y-76010487D01*
X145714998Y-76121168D01*
X145547220Y-76206655D01*
X145368134Y-76264844D01*
X145182151Y-76294301D01*
X144993849Y-76294301D01*
X144807866Y-76264844D01*
X144628780Y-76206655D01*
X144461002Y-76121168D01*
X144308662Y-76010487D01*
X144175513Y-75877338D01*
X144064832Y-75724998D01*
X143979345Y-75557220D01*
X143921156Y-75378134D01*
X143891699Y-75192151D01*
X143891699Y-75003849D01*
X143921156Y-74817866D01*
X143979345Y-74638780D01*
X144064832Y-74471002D01*
X144175513Y-74318662D01*
X144308662Y-74185513D01*
X144461002Y-74074832D01*
X144628780Y-73989345D01*
X144807866Y-73931156D01*
X144993849Y-73901699D01*
X145182151Y-73901699D01*
X145368134Y-73931156D01*
G37*
G36*
X158792142Y-74202868D02*
G01*
X158961934Y-74273199D01*
X159114744Y-74375303D01*
X159244697Y-74505256D01*
X159346801Y-74658066D01*
X159417132Y-74827858D01*
X159452986Y-75008109D01*
X159452986Y-75191891D01*
X159417132Y-75372142D01*
X159346801Y-75541934D01*
X159244697Y-75694744D01*
X159114744Y-75824697D01*
X158961934Y-75926801D01*
X158792142Y-75997132D01*
X158611891Y-76032986D01*
X158428109Y-76032986D01*
X158247858Y-75997132D01*
X158078066Y-75926801D01*
X157925256Y-75824697D01*
X157795303Y-75694744D01*
X157693199Y-75541934D01*
X157622868Y-75372142D01*
X157587014Y-75191891D01*
X157587014Y-75008109D01*
X157622868Y-74827858D01*
X157693199Y-74658066D01*
X157795303Y-74505256D01*
X157925256Y-74375303D01*
X158078066Y-74273199D01*
X158247858Y-74202868D01*
X158428109Y-74167014D01*
X158611891Y-74167014D01*
X158792142Y-74202868D01*
G37*
G36*
X137740142Y-74200868D02*
G01*
X137909934Y-74271199D01*
X138062744Y-74373303D01*
X138192697Y-74503256D01*
X138294801Y-74656066D01*
X138365132Y-74825858D01*
X138400986Y-75006109D01*
X138400986Y-75189891D01*
X138365132Y-75370142D01*
X138294801Y-75539934D01*
X138192697Y-75692744D01*
X138062744Y-75822697D01*
X137909934Y-75924801D01*
X137740142Y-75995132D01*
X137559891Y-76030986D01*
X137376109Y-76030986D01*
X137195858Y-75995132D01*
X137026066Y-75924801D01*
X136873256Y-75822697D01*
X136743303Y-75692744D01*
X136641199Y-75539934D01*
X136570868Y-75370142D01*
X136535014Y-75189891D01*
X136535014Y-75006109D01*
X136570868Y-74825858D01*
X136641199Y-74656066D01*
X136743303Y-74503256D01*
X136873256Y-74373303D01*
X137026066Y-74271199D01*
X137195858Y-74200868D01*
X137376109Y-74165014D01*
X137559891Y-74165014D01*
X137740142Y-74200868D01*
G37*
G36*
X157024142Y-72434868D02*
G01*
X157193934Y-72505199D01*
X157346744Y-72607303D01*
X157476697Y-72737256D01*
X157578801Y-72890066D01*
X157649132Y-73059858D01*
X157684986Y-73240109D01*
X157684986Y-73423891D01*
X157649132Y-73604142D01*
X157578801Y-73773934D01*
X157476697Y-73926744D01*
X157346744Y-74056697D01*
X157193934Y-74158801D01*
X157024142Y-74229132D01*
X156843891Y-74264986D01*
X156660109Y-74264986D01*
X156479858Y-74229132D01*
X156310066Y-74158801D01*
X156157256Y-74056697D01*
X156027303Y-73926744D01*
X155925199Y-73773934D01*
X155854868Y-73604142D01*
X155819014Y-73423891D01*
X155819014Y-73240109D01*
X155854868Y-73059858D01*
X155925199Y-72890066D01*
X156027303Y-72737256D01*
X156157256Y-72607303D01*
X156310066Y-72505199D01*
X156479858Y-72434868D01*
X156660109Y-72399014D01*
X156843891Y-72399014D01*
X157024142Y-72434868D01*
G37*
G36*
X160560142Y-72434868D02*
G01*
X160729934Y-72505199D01*
X160882744Y-72607303D01*
X161012697Y-72737256D01*
X161114801Y-72890066D01*
X161185132Y-73059858D01*
X161220986Y-73240109D01*
X161220986Y-73423891D01*
X161185132Y-73604142D01*
X161114801Y-73773934D01*
X161012697Y-73926744D01*
X160882744Y-74056697D01*
X160729934Y-74158801D01*
X160560142Y-74229132D01*
X160379891Y-74264986D01*
X160196109Y-74264986D01*
X160015858Y-74229132D01*
X159846066Y-74158801D01*
X159693256Y-74056697D01*
X159563303Y-73926744D01*
X159461199Y-73773934D01*
X159390868Y-73604142D01*
X159355014Y-73423891D01*
X159355014Y-73240109D01*
X159390868Y-73059858D01*
X159461199Y-72890066D01*
X159563303Y-72737256D01*
X159693256Y-72607303D01*
X159846066Y-72505199D01*
X160015858Y-72434868D01*
X160196109Y-72399014D01*
X160379891Y-72399014D01*
X160560142Y-72434868D01*
G37*
G36*
X135972142Y-72432868D02*
G01*
X136141934Y-72503199D01*
X136294744Y-72605303D01*
X136424697Y-72735256D01*
X136526801Y-72888066D01*
X136597132Y-73057858D01*
X136632986Y-73238109D01*
X136632986Y-73421891D01*
X136597132Y-73602142D01*
X136526801Y-73771934D01*
X136424697Y-73924744D01*
X136294744Y-74054697D01*
X136141934Y-74156801D01*
X135972142Y-74227132D01*
X135791891Y-74262986D01*
X135608109Y-74262986D01*
X135427858Y-74227132D01*
X135258066Y-74156801D01*
X135105256Y-74054697D01*
X134975303Y-73924744D01*
X134873199Y-73771934D01*
X134802868Y-73602142D01*
X134767014Y-73421891D01*
X134767014Y-73238109D01*
X134802868Y-73057858D01*
X134873199Y-72888066D01*
X134975303Y-72735256D01*
X135105256Y-72605303D01*
X135258066Y-72503199D01*
X135427858Y-72432868D01*
X135608109Y-72397014D01*
X135791891Y-72397014D01*
X135972142Y-72432868D01*
G37*
G36*
X139508142Y-72432868D02*
G01*
X139677934Y-72503199D01*
X139830744Y-72605303D01*
X139960697Y-72735256D01*
X140062801Y-72888066D01*
X140133132Y-73057858D01*
X140168986Y-73238109D01*
X140168986Y-73421891D01*
X140133132Y-73602142D01*
X140062801Y-73771934D01*
X139960697Y-73924744D01*
X139830744Y-74054697D01*
X139677934Y-74156801D01*
X139508142Y-74227132D01*
X139327891Y-74262986D01*
X139144109Y-74262986D01*
X138963858Y-74227132D01*
X138794066Y-74156801D01*
X138641256Y-74054697D01*
X138511303Y-73924744D01*
X138409199Y-73771934D01*
X138338868Y-73602142D01*
X138303014Y-73421891D01*
X138303014Y-73238109D01*
X138338868Y-73057858D01*
X138409199Y-72888066D01*
X138511303Y-72735256D01*
X138641256Y-72605303D01*
X138794066Y-72503199D01*
X138963858Y-72432868D01*
X139144109Y-72397014D01*
X139327891Y-72397014D01*
X139508142Y-72432868D01*
G37*
G36*
X151232660Y-69714373D02*
G01*
X151445324Y-69783472D01*
X151644560Y-69884988D01*
X151825463Y-70016421D01*
X151983579Y-70174537D01*
X152115012Y-70355440D01*
X152216528Y-70554676D01*
X152285627Y-70767340D01*
X152320607Y-70988196D01*
X152320607Y-71211804D01*
X152285627Y-71432660D01*
X152216528Y-71645324D01*
X152115012Y-71844560D01*
X151983579Y-72025463D01*
X151825463Y-72183579D01*
X151644560Y-72315012D01*
X151445324Y-72416528D01*
X151232660Y-72485627D01*
X151011804Y-72520607D01*
X150788196Y-72520607D01*
X150567340Y-72485627D01*
X150354676Y-72416528D01*
X150155440Y-72315012D01*
X149974537Y-72183579D01*
X149816421Y-72025463D01*
X149684988Y-71844560D01*
X149583472Y-71645324D01*
X149514373Y-71432660D01*
X149479393Y-71211804D01*
X149479393Y-70988196D01*
X149514373Y-70767340D01*
X149583472Y-70554676D01*
X149684988Y-70355440D01*
X149816421Y-70174537D01*
X149974537Y-70016421D01*
X150155440Y-69884988D01*
X150354676Y-69783472D01*
X150567340Y-69714373D01*
X150788196Y-69679393D01*
X151011804Y-69679393D01*
X151232660Y-69714373D01*
G37*
G36*
X166472660Y-69714373D02*
G01*
X166685324Y-69783472D01*
X166884560Y-69884988D01*
X167065463Y-70016421D01*
X167223579Y-70174537D01*
X167355012Y-70355440D01*
X167456528Y-70554676D01*
X167525627Y-70767340D01*
X167560607Y-70988196D01*
X167560607Y-71211804D01*
X167525627Y-71432660D01*
X167456528Y-71645324D01*
X167355012Y-71844560D01*
X167223579Y-72025463D01*
X167065463Y-72183579D01*
X166884560Y-72315012D01*
X166685324Y-72416528D01*
X166472660Y-72485627D01*
X166251804Y-72520607D01*
X166028196Y-72520607D01*
X165807340Y-72485627D01*
X165594676Y-72416528D01*
X165395440Y-72315012D01*
X165214537Y-72183579D01*
X165056421Y-72025463D01*
X164924988Y-71844560D01*
X164823472Y-71645324D01*
X164754373Y-71432660D01*
X164719393Y-71211804D01*
X164719393Y-70988196D01*
X164754373Y-70767340D01*
X164823472Y-70554676D01*
X164924988Y-70355440D01*
X165056421Y-70174537D01*
X165214537Y-70016421D01*
X165395440Y-69884988D01*
X165594676Y-69783472D01*
X165807340Y-69714373D01*
X166028196Y-69679393D01*
X166251804Y-69679393D01*
X166472660Y-69714373D01*
G37*
G36*
X130180660Y-69712373D02*
G01*
X130393324Y-69781472D01*
X130592560Y-69882988D01*
X130773463Y-70014421D01*
X130931579Y-70172537D01*
X131063012Y-70353440D01*
X131164528Y-70552676D01*
X131233627Y-70765340D01*
X131268607Y-70986196D01*
X131268607Y-71209804D01*
X131233627Y-71430660D01*
X131164528Y-71643324D01*
X131063012Y-71842560D01*
X130931579Y-72023463D01*
X130773463Y-72181579D01*
X130592560Y-72313012D01*
X130393324Y-72414528D01*
X130180660Y-72483627D01*
X129959804Y-72518607D01*
X129736196Y-72518607D01*
X129515340Y-72483627D01*
X129302676Y-72414528D01*
X129103440Y-72313012D01*
X128922537Y-72181579D01*
X128764421Y-72023463D01*
X128632988Y-71842560D01*
X128531472Y-71643324D01*
X128462373Y-71430660D01*
X128427393Y-71209804D01*
X128427393Y-70986196D01*
X128462373Y-70765340D01*
X128531472Y-70552676D01*
X128632988Y-70353440D01*
X128764421Y-70172537D01*
X128922537Y-70014421D01*
X129103440Y-69882988D01*
X129302676Y-69781472D01*
X129515340Y-69712373D01*
X129736196Y-69677393D01*
X129959804Y-69677393D01*
X130180660Y-69712373D01*
G37*
G36*
X145420660Y-69712373D02*
G01*
X145633324Y-69781472D01*
X145832560Y-69882988D01*
X146013463Y-70014421D01*
X146171579Y-70172537D01*
X146303012Y-70353440D01*
X146404528Y-70552676D01*
X146473627Y-70765340D01*
X146508607Y-70986196D01*
X146508607Y-71209804D01*
X146473627Y-71430660D01*
X146404528Y-71643324D01*
X146303012Y-71842560D01*
X146171579Y-72023463D01*
X146013463Y-72181579D01*
X145832560Y-72313012D01*
X145633324Y-72414528D01*
X145420660Y-72483627D01*
X145199804Y-72518607D01*
X144976196Y-72518607D01*
X144755340Y-72483627D01*
X144542676Y-72414528D01*
X144343440Y-72313012D01*
X144162537Y-72181579D01*
X144004421Y-72023463D01*
X143872988Y-71842560D01*
X143771472Y-71643324D01*
X143702373Y-71430660D01*
X143667393Y-71209804D01*
X143667393Y-70986196D01*
X143702373Y-70765340D01*
X143771472Y-70552676D01*
X143872988Y-70353440D01*
X144004421Y-70172537D01*
X144162537Y-70014421D01*
X144343440Y-69882988D01*
X144542676Y-69781472D01*
X144755340Y-69712373D01*
X144976196Y-69677393D01*
X145199804Y-69677393D01*
X145420660Y-69712373D01*
G37*
G36*
X158813913Y-70131098D02*
G01*
X158997289Y-70207055D01*
X159162323Y-70317327D01*
X159302673Y-70457677D01*
X159412945Y-70622711D01*
X159488902Y-70806087D01*
X159527625Y-71000758D01*
X159527625Y-71199242D01*
X159488902Y-71393913D01*
X159412945Y-71577289D01*
X159302673Y-71742323D01*
X159162323Y-71882673D01*
X158997289Y-71992945D01*
X158813913Y-72068902D01*
X158619242Y-72107625D01*
X158420758Y-72107625D01*
X158226087Y-72068902D01*
X158042711Y-71992945D01*
X157877677Y-71882673D01*
X157737327Y-71742323D01*
X157627055Y-71577289D01*
X157551098Y-71393913D01*
X157512375Y-71199242D01*
X157512375Y-71000758D01*
X157551098Y-70806087D01*
X157627055Y-70622711D01*
X157737327Y-70457677D01*
X157877677Y-70317327D01*
X158042711Y-70207055D01*
X158226087Y-70131098D01*
X158420758Y-70092375D01*
X158619242Y-70092375D01*
X158813913Y-70131098D01*
G37*
G36*
X137761913Y-70129098D02*
G01*
X137945289Y-70205055D01*
X138110323Y-70315327D01*
X138250673Y-70455677D01*
X138360945Y-70620711D01*
X138436902Y-70804087D01*
X138475625Y-70998758D01*
X138475625Y-71197242D01*
X138436902Y-71391913D01*
X138360945Y-71575289D01*
X138250673Y-71740323D01*
X138110323Y-71880673D01*
X137945289Y-71990945D01*
X137761913Y-72066902D01*
X137567242Y-72105625D01*
X137368758Y-72105625D01*
X137174087Y-72066902D01*
X136990711Y-71990945D01*
X136825677Y-71880673D01*
X136685327Y-71740323D01*
X136575055Y-71575289D01*
X136499098Y-71391913D01*
X136460375Y-71197242D01*
X136460375Y-70998758D01*
X136499098Y-70804087D01*
X136575055Y-70620711D01*
X136685327Y-70455677D01*
X136825677Y-70315327D01*
X136990711Y-70205055D01*
X137174087Y-70129098D01*
X137368758Y-70090375D01*
X137567242Y-70090375D01*
X137761913Y-70129098D01*
G37*
M02*
